<svg xmlns="http://www.w3.org/2000/svg" xmlns:svg="http://www.w3.org/2000/svg" xmlns:xlink="http://www.w3.org/1999/xlink" id="svg68" width="124" height="124" preserveAspectRatio="xMidYMid" version="1.1" viewBox="0 0 124 124"><metadata id="metadata72"/><defs id="defs37"><linearGradient id="linearGradient950"><stop style="stop-color:#007266;stop-opacity:1" id="stop946" offset="0"/><stop style="stop-color:#007266;stop-opacity:0" id="stop948" offset="1"/></linearGradient><linearGradient id="linearGradient-1" x1="71.775" x2="206.345" y1="187.33" y2="53.078" gradientTransform="matrix(0.35264551,0,0,0.40800991,10.373845,5.6478575)" gradientUnits="userSpaceOnUse"><stop id="stop2" offset="0%" stop-color="#058B7E"/><stop id="stop4" offset="0%" stop-color="#058D80"/><stop id="stop6" offset="100%" stop-color="#058D7F"/></linearGradient><path id="path-2" d="M 127.68269,0 C 57.165748,0 0,55.790933 0,124.61227 0,193.43392 57.165748,249.22453 127.68269,249.22453 l 0.27148,46.91374 c 65.60585,-37.27075 128,-87.01882 128,-171.526 C 255.95417,55.790933 198.19994,0 127.68269,0 Z"/><filter id="filter-3" width="1.008" height="1.007" x="-.004" y="-.003" filterUnits="objectBoundingBox"><feOffset id="feOffset10" dx="0" dy="2" in="SourceAlpha" result="shadowOffsetInner1"/><feComposite id="feComposite12" in="shadowOffsetInner1" in2="SourceAlpha" k1="0" k2="-1" k3="1" k4="0" operator="arithmetic" result="shadowInnerInner1"/><feColorMatrix id="feColorMatrix14" in="shadowInnerInner1" type="matrix" values="0 0 0 0 1 0 0 0 0 1 0 0 0 0 1 0 0 0 0.2 0"/></filter><path id="path-4" d="M 127.68269,0 C 57.165748,0 0,55.790933 0,124.61227 0,193.43392 57.165748,249.22453 127.68269,249.22453 l 0.27148,46.91374 c 65.60585,-37.27075 128,-87.01882 128,-171.526 C 255.95417,55.790933 198.19994,0 127.68269,0 Z"/><filter id="filter-5" width="1.008" height="1.007" x="-.004" y="-.003" filterUnits="objectBoundingBox"><feOffset id="feOffset18" dx="0" dy="-2" in="SourceAlpha" result="shadowOffsetInner1"/><feComposite id="feComposite20" in="shadowOffsetInner1" in2="SourceAlpha" k1="0" k2="-1" k3="1" k4="0" operator="arithmetic" result="shadowInnerInner1"/><feColorMatrix id="feColorMatrix22" in="shadowInnerInner1" type="matrix" values="0 0 0 0 0 0 0 0 0 0 0 0 0 0 0 0 0 0 0.1 0"/></filter><path id="path-6" d="M 127.68269,0 C 57.165748,0 0,55.790933 0,124.61227 0,193.43392 57.165748,249.22453 127.68269,249.22453 l 0.27148,46.91374 c 65.60585,-37.27075 128,-87.01882 128,-171.526 C 255.95417,55.790933 198.19994,0 127.68269,0 Z"/><linearGradient id="linearGradient-8" x1="119.337" x2="236.077" y1="153.51" y2="282.501" gradientTransform="scale(1.1271732,0.88717512)" gradientUnits="userSpaceOnUse"><stop id="stop26" offset="0%" stop-color="#000"/><stop id="stop28" offset="100%" stop-color="#D8D8D8" stop-opacity="0"/></linearGradient><path id="path-9" d="m 55.580192,128.1054 v 34.23858 c 0,9.03901 7.395555,16.43457 16.434567,16.43457 h 85.016021 c 9.03901,0 16.43457,-7.39556 16.43457,-16.43457 v -21.62283 l 33.65926,33.65925 v -46.275 z"/><filter id="filter-10" width="1.026" height="1.118" x="-.01" y="-.03" filterUnits="objectBoundingBox"><feOffset id="feOffset32" dx="1" dy="3" in="SourceAlpha" result="shadowOffsetOuter1"/><feColorMatrix id="feColorMatrix34" in="shadowOffsetOuter1" type="matrix" values="0 0 0 0 0 0 0 0 0 0 0 0 0 0 0 0 0 0 0.1 0"/></filter><mask id="mask-7" fill="#fff"><use id="use49" width="100%" height="100%" x="0" y="0" xlink:href="#path-6"/></mask><linearGradient id="linearGradient952" x1="80.087" x2="96.366" y1="68.221" y2="82.937" gradientUnits="userSpaceOnUse" xlink:href="#linearGradient950"/></defs><g id="g1001"><rect id="rect967" width="124" height="124" x="0" y="0" style="opacity:0;fill:#008072;fill-opacity:1;stroke:none;stroke-width:1.63019824;stroke-linecap:round;stroke-linejoin:miter;stroke-miterlimit:4;stroke-dasharray:1.63019823,3.2603964900000002;stroke-dashoffset:0;stroke-opacity:1;paint-order:stroke fill markers"/><g id="g965"><g style="fill:#000;fill-opacity:1" id="g43" transform="matrix(0.37931894,0,0,0.37931894,10.373845,5.6478575)"><use style="filter:url(#filter-3)" id="use41" width="100%" height="100%" x="0" y="0" xlink:href="#path-2"/></g><path style="fill:#59f;stroke-width:.37931895" id="path39" d="m 58.806308,5.6478575 c -26.748411,0 -48.432463,21.1625575 -48.432463,47.2677945 0,26.105355 21.684052,47.267788 48.432463,47.267788 v 0 c 26.086173,-0.13013 48.655802,-15.212614 48.655802,-47.267788 0,-26.105237 -21.907273,-47.2677945 -48.655802,-47.2677945 z"/><g id="g916" transform="matrix(0.96698632,0,0,0.96698632,2.218741,3.1352548)"><g id="g62" transform="matrix(0.39226919,0,0,0.39226919,8.433526,2.598385)"><use id="use58" width="100%" height="100%" x="0" y="0" xlink:href="#path-9" style="fill:#000;fill-opacity:1;filter:url(#filter-10)"/></g><path id="path64" d="M 89.682141,52.850186 V 34.646356 L 76.47865,47.821703 v -8.402255 c 0,-3.54585 -2.90105,-6.446774 -6.446775,-6.446774 H 36.68271 c -1.772863,0 -5.479585,-0.03472 -6.43699,-0.0086 0.04687,1.181868 -0.0098,4.682401 -0.0098,6.455326 v 13.430738 z" style="fill:#e2e2e2;stroke-width:.39226919"/><use id="use60" width="100%" height="100%" x="0" y="0" transform="matrix(0.39226919,0,0,0.39226919,8.4335257,2.5983849)" xlink:href="#path-9" style="fill:#f6f6f6;fill-rule:evenodd"/><rect style="opacity:1;fill:#59f;fill-opacity:1;stroke:none;stroke-width:1.36803973;stroke-opacity:1" id="rect1681" width="1.086" height="28.557" x="76.497" y="38.078"/></g></g></g></svg>