<svg xmlns="http://www.w3.org/2000/svg" xmlns:svg="http://www.w3.org/2000/svg" xmlns:xlink="http://www.w3.org/1999/xlink" id="svg2" width="128" height="128" version="1.1" viewBox="0 0 128 128"><metadata id="metadata13"/><defs id="defs6"><linearGradient id="linearGradient4290"><stop style="stop-color:#009fb1;stop-opacity:1" id="stop4292" offset="0"/><stop style="stop-color:#002057;stop-opacity:1" id="stop4294" offset="1"/></linearGradient><linearGradient id="linearGradient4237" x1=".046" x2="25.887" y1="19" y2="19" gradientUnits="userSpaceOnUse" xlink:href="#linearGradient4290"/><linearGradient id="linearGradient4245" x1=".046" x2="25.887" y1="8" y2="8" gradientUnits="userSpaceOnUse" xlink:href="#linearGradient4290"/><linearGradient id="linearGradient4245-127" x1=".046" x2="25.887" y1="8" y2="8" gradientUnits="userSpaceOnUse" xlink:href="#linearGradient4290-413"/><linearGradient id="linearGradient4290-413"><stop style="stop-color:#585858;stop-opacity:1" id="stop4153" offset="0"/><stop style="stop-color:#2b2b2b;stop-opacity:1" id="stop4155" offset="1"/></linearGradient><linearGradient id="linearGradient4237-879" x1=".046" x2="25.887" y1="19" y2="19" gradientUnits="userSpaceOnUse" xlink:href="#linearGradient4290-267"/><linearGradient id="linearGradient4290-267"><stop style="stop-color:#585858;stop-opacity:1" id="stop4159" offset="0"/><stop style="stop-color:#2b2b2b;stop-opacity:1" id="stop4161" offset="1"/></linearGradient></defs><g id="g4302" transform="matrix(1.0154289,0,0,1.0154289,1.1294549,-2.5536188)"><g id="g4296" transform="translate(-3.6339464,0.72884334)"><polygon id="polygon4216" points="25.887 2.582 12.967 15.502 .046 2.582 2.13 .498 12.967 11.334 23.803 .498" transform="matrix(0,4.0639409,4.0639409,0,10.686018,12.118461)" style="fill:url(#linearGradient4245-127);fill-opacity:1;stroke:#3f3f3f;stroke-width:.49213314;stroke-miterlimit:4;stroke-dasharray:none;stroke-opacity:1"/><polygon id="polygon4218" points="25.887 13.582 12.967 26.502 .046 13.582 2.13 11.498 12.967 22.334 23.803 11.498" transform="matrix(0,4.0639409,4.0639409,0,10.686018,12.118461)" style="fill:url(#linearGradient4237-879);fill-opacity:1;stroke:#3f3f3f;stroke-width:.49213314;stroke-miterlimit:4;stroke-dasharray:none;stroke-opacity:1"/></g><rect style="opacity:1;fill:#585858;fill-opacity:0;stroke:none;stroke-width:1.94490457;stroke-linecap:round;stroke-linejoin:round;stroke-miterlimit:4;stroke-dasharray:none;stroke-dashoffset:0;stroke-opacity:1" id="rect4300" width="126.055" height="126.055" x="-1.112" y="2.515"/></g></svg>