<svg xmlns="http://www.w3.org/2000/svg" xmlns:svg="http://www.w3.org/2000/svg" xmlns:xlink="http://www.w3.org/1999/xlink" id="svg4418" width="128" height="128" version="1.1" viewBox="0 0 128 128"><defs id="defs4420"><linearGradient id="linearGradient4175" x1="221.456" x2="227.58" y1="140.612" y2="108.388" gradientTransform="matrix(1.7349701,0,0,1.7349701,-359.83268,803.55314)" gradientUnits="userSpaceOnUse" xlink:href="#linearGradient4169"/><linearGradient id="linearGradient4169"><stop style="stop-color:#549200;stop-opacity:1" id="stop4171" offset="0"/><stop style="stop-color:#89b824;stop-opacity:.99215686" id="stop4173" offset="1"/></linearGradient><linearGradient id="linearGradient4159" x1="222.506" x2="224.807" y1="141.54" y2="109.184" gradientTransform="matrix(1.8156344,0,0,1.8156344,-378.05028,793.47298)" gradientUnits="userSpaceOnUse" xlink:href="#linearGradient4153"/><linearGradient id="linearGradient4153"><stop style="stop-color:#a4cc3e;stop-opacity:1" id="stop4155" offset="0"/><stop style="stop-color:#e5fa96;stop-opacity:1" id="stop4157" offset="1"/></linearGradient><linearGradient id="linearGradient4167" x1="222.953" x2="228.47" y1="139.286" y2="111.836" gradientTransform="matrix(1.7349701,0,0,1.7349701,-359.83268,803.55314)" gradientUnits="userSpaceOnUse" xlink:href="#linearGradient4161"/><linearGradient id="linearGradient4161"><stop style="stop-color:#97d600;stop-opacity:1" id="stop4163" offset="0"/><stop style="stop-color:#98c400;stop-opacity:1" id="stop4165" offset="1"/></linearGradient></defs><metadata id="metadata4423"/><g id="layer1" transform="translate(0,-924.36216)"><g id="g890" transform="translate(0,-0.52913639)"><rect id="rect882" width="128" height="128" x="0" y="924.891" style="opacity:1;fill:#ff7f2a;fill-opacity:0;stroke:none;stroke-width:1.47938025;stroke-miterlimit:4;stroke-dasharray:none;stroke-dashoffset:0;stroke-opacity:1"/><g id="g837" transform="matrix(1.8272167,0,0,1.8272167,4.9999967,-875.53155)"><circle style="opacity:1;fill:url(#linearGradient4175);fill-opacity:1;stroke:none;stroke-width:.72521752;stroke-linecap:round;stroke-linejoin:round;stroke-miterlimit:4;stroke-dasharray:none;stroke-dashoffset:0;stroke-opacity:1" id="path4147" cx="32" cy="1020.362" r="32"/><circle id="circle4149" cx="32" cy="1020.362" r="29.897" style="opacity:1;fill:url(#linearGradient4159);fill-opacity:1;stroke:none;stroke-width:.64745927;stroke-linecap:round;stroke-linejoin:round;stroke-miterlimit:4;stroke-dasharray:none;stroke-dashoffset:0;stroke-opacity:1"/><circle style="opacity:1;fill:url(#linearGradient4167);fill-opacity:1;stroke:none;stroke-width:.56970096;stroke-linecap:round;stroke-linejoin:round;stroke-miterlimit:4;stroke-dasharray:none;stroke-dashoffset:0;stroke-opacity:1" id="circle4151" cx="32" cy="1020.362" r="26.873"/><path id="path4233" d="m 50.983655,1013.3617 -23.242145,23.2421 c -0.475243,0.478 -1.247582,0.478 -1.720119,0 l -3.434894,-3.4699 c -0.472536,-0.4753 -1.247582,-1.253 -1.717412,-1.7337 l -7.993146,-8.4035 c -0.234915,-0.235 -0.359139,-0.5672 -0.359139,-0.8831 0,-0.3105 0.124224,-0.613 0.359139,-0.8479 l 3.502419,-3.1567 c 0.237621,-0.2431 0.553525,-0.3619 0.866791,-0.3619 0.307853,0 0.615706,0.1243 0.850621,0.3619 l 7.928328,8.0876 c 0.472536,0.4806 1.244875,0.4806 1.720118,0 l 18.089822,-18.0412 c 0.475261,-0.478 1.244859,-0.478 1.71743,0 l 3.434894,3.4699 c 0.472536,0.4753 0.472536,1.2584 -0.0017,1.7364 z" style="fill:#fff;stroke-width:1.73497009"/></g></g></g></svg>