<svg xmlns="http://www.w3.org/2000/svg" xmlns:svg="http://www.w3.org/2000/svg" xmlns:xlink="http://www.w3.org/1999/xlink" id="svg43586" width="128" height="128" version="1.0" viewBox="0 0 128 128"><metadata id="metadata170"/><defs id="defs43588"><linearGradient id="linearGradient44699"><stop id="stop44701" offset="0" style="stop-color:#000173;stop-opacity:.93333334"/><stop id="stop44703" offset="1" style="stop-color:#3575f0;stop-opacity:1"/></linearGradient><linearGradient id="linearGradient44693"><stop id="stop44695" offset="0" style="stop-color:#3690e6;stop-opacity:1"/><stop id="stop44697" offset="1" style="stop-color:#d0e9ff;stop-opacity:1"/></linearGradient><linearGradient id="linearGradient44681"><stop id="stop44683" offset="0" style="stop-color:#ff5c38;stop-opacity:1"/><stop id="stop44685" offset=".304" style="stop-color:#fb7e65;stop-opacity:.99607843"/><stop id="stop44687" offset="1" style="stop-color:#cd0000;stop-opacity:.98039216"/></linearGradient><linearGradient id="linearGradient44627"><stop id="stop44629" offset="0" style="stop-color:#fffcfb;stop-opacity:1"/><stop id="stop44633" offset="1" style="stop-color:#f4ad94;stop-opacity:1"/></linearGradient><linearGradient id="linearGradient44615"><stop id="stop44617" offset="0" style="stop-color:#2f68fa;stop-opacity:1"/><stop id="stop44619" offset="1" style="stop-color:#c7d5fb;stop-opacity:1"/></linearGradient><linearGradient id="linearGradient44605"><stop id="stop44607" offset="0" style="stop-color:#d0ecff;stop-opacity:1"/><stop id="stop44609" offset=".5" style="stop-color:#d7f0ff;stop-opacity:1"/><stop id="stop44611" offset="1" style="stop-color:#fff;stop-opacity:1"/></linearGradient><linearGradient id="linearGradient44090"><stop id="stop44092" offset="0" style="stop-color:#0926bb;stop-opacity:1"/><stop id="stop44094" offset="1" style="stop-color:#6bb5fe;stop-opacity:1"/></linearGradient><linearGradient id="linearGradient44080"><stop id="stop44082" offset="0" style="stop-color:#2c8300;stop-opacity:1"/><stop id="stop44084" offset=".25" style="stop-color:#57aeff;stop-opacity:1"/><stop id="stop44086" offset=".5" style="stop-color:#fff;stop-opacity:1"/><stop id="stop44088" offset="1" style="stop-color:#5aafff;stop-opacity:1"/></linearGradient><filter id="filter3297"><feGaussianBlur id="feGaussianBlur3299" stdDeviation=".267"/></filter><filter id="filter3293"><feGaussianBlur id="feGaussianBlur3295" stdDeviation=".355"/></filter><linearGradient id="linearGradient3219"><stop id="stop3221" offset="0" style="stop-color:#0e7309;stop-opacity:1"/><stop id="stop3223" offset="1" style="stop-color:#70d13e;stop-opacity:1"/></linearGradient><radialGradient id="radialGradient44048" cx="53.602" cy="59.729" r="17.834" fx="53.602" fy="59.729" gradientTransform="matrix(0,1.655849,-1.6391884,0,152.15006,-32.923726)" gradientUnits="userSpaceOnUse" xlink:href="#linearGradient44627"/><radialGradient id="radialGradient44061" cx="479.683" cy="709.658" r="5.006" fx="479.683" fy="709.658" gradientTransform="matrix(0.856113,-0.0637264,0.1161478,1.5603521,-743.30707,-121.7687)" gradientUnits="userSpaceOnUse" xlink:href="#linearGradient44605"/><linearGradient id="linearGradient44067" x1="517.022" x2="517.022" y1="705.484" y2="745.301" gradientTransform="matrix(-1,0,0,1,253.42404,245.75912)" gradientUnits="userSpaceOnUse" xlink:href="#linearGradient44090"/><linearGradient id="linearGradient44070" x1="517.022" x2="517.022" y1="705.484" y2="745.301" gradientTransform="translate(-730.02214,245.75912)" gradientUnits="userSpaceOnUse" xlink:href="#linearGradient44090"/><radialGradient id="radialGradient44073" cx="491.522" cy="670.925" r="36.427" fx="491.522" fy="670.925" gradientTransform="matrix(0,2.0237831,-1.9580539,0,1075.328,-66.735647)" gradientUnits="userSpaceOnUse" xlink:href="#linearGradient44080"/><linearGradient id="linearGradient44076" x1="83.281" x2="83.281" y1="123.098" y2="66.311" gradientTransform="translate(-282.47353,882.69271)" gradientUnits="userSpaceOnUse" xlink:href="#linearGradient44699"/><linearGradient id="linearGradient44613" x1="-246.577" x2="-248.777" y1="958.08" y2="964.617" gradientUnits="userSpaceOnUse" xlink:href="#linearGradient44615"/><linearGradient id="linearGradient44625" x1="-246.577" x2="-248.777" y1="958.08" y2="964.617" gradientTransform="matrix(-1,0,0,1,-476.93424,0)" gradientUnits="userSpaceOnUse" xlink:href="#linearGradient44615"/><linearGradient id="linearGradient44667" x1="517.022" x2="517.022" y1="705.484" y2="745.301" gradientTransform="translate(-772.48144,227.87334)" gradientUnits="userSpaceOnUse" xlink:href="#linearGradient3219"/><linearGradient id="linearGradient44677" x1="60.127" x2="60.127" y1="81.914" y2="47.543" gradientUnits="userSpaceOnUse" xlink:href="#linearGradient44681"/><linearGradient id="linearGradient44691" x1="-35.567" x2="-35.567" y1="76.563" y2="84.91" gradientUnits="userSpaceOnUse" xlink:href="#linearGradient44693"/><linearGradient id="linearGradient4167" x1="227.024" x2="227.08" y1="130.945" y2="109.85" gradientTransform="matrix(1.80011,0,0,1.80011,-313.07166,-137.6591)" gradientUnits="userSpaceOnUse" xlink:href="#linearGradient4161"/><linearGradient id="linearGradient4161"><stop style="stop-color:#97d600;stop-opacity:1" id="stop4163" offset="0"/><stop style="stop-color:#6f8f00;stop-opacity:1" id="stop4165" offset="1"/></linearGradient><filter style="color-interpolation-filters:sRGB" id="filter6061" width="1.072" height="1.072" x="-.036" y="-.036"><feGaussianBlur id="feGaussianBlur6063" stdDeviation=".617"/></filter></defs><rect id="rect6075" width="128" height="128" x="0" y="0" style="opacity:1;fill:#1a1a1a;fill-opacity:0;stroke:none;stroke-width:1.5;stroke-linecap:round;stroke-linejoin:round;stroke-miterlimit:4;stroke-dasharray:none;stroke-dashoffset:0;stroke-opacity:1"/><g id="g3498" transform="matrix(1.1454774,0,0,1.1454774,336.47789,-1030.8399)"><path id="path3217" d="m -263.35265,933.74757 c 8.46364,9.0621 14.91528,24.09751 16.80551,38.65267" style="fill:#000;fill-opacity:0;fill-rule:evenodd;stroke:url(#linearGradient44667);stroke-width:1.5;stroke-linecap:butt;stroke-linejoin:miter;stroke-miterlimit:4;stroke-dasharray:none;stroke-opacity:1"/><path id="path44010" d="m -237.54657,906.14303 c -14.71669,0 -26.69498,11.97829 -26.69498,26.69498 0,14.71669 11.97829,26.69498 26.69498,26.69498 14.71668,0 26.69497,-11.97829 26.69497,-26.69498 0,-14.71669 -11.97829,-26.69498 -26.69497,-26.69498 z" style="fill:#000;fill-opacity:.50196078;stroke:none;stroke-width:1.33686185;stroke-linecap:square;stroke-linejoin:miter;stroke-miterlimit:4;stroke-dasharray:none;stroke-dashoffset:0;stroke-opacity:1;filter:url(#filter3297)"/><path id="path44012" d="m -237.62978,943.41146 c -21.63445,0 -39.1875,17.34747 -39.1875,38.75 l 0,6.125 c 0,6.05287 6.27536,18.75004 28.90625,18.75004 l 20.53125,0 c 22.63038,0 28.9375,-12.07968 28.9375,-18.75004 l 0,-6.125 c 0,-21.40254 -17.55305,-38.75 -39.1875,-38.75 z" style="fill:#000;fill-opacity:.50196078;stroke:none;stroke-width:1.5;stroke-linecap:square;stroke-linejoin:miter;stroke-miterlimit:4;stroke-dashoffset:0;stroke-opacity:1;filter:url(#filter3293)"/><path id="path44014" d="m -238.37978,942.16146 c -21.63445,0 -39.1875,17.34747 -39.1875,38.75 l 0,6.125 c 0,6.05287 6.27536,18.75004 28.90625,18.75004 l 20.53125,0 c 22.63038,0 28.9375,-12.07968 28.9375,-18.75004 l 0,-6.125 c 0,-21.40254 -17.55305,-38.75 -39.1875,-38.75 z" style="fill:url(#linearGradient44076);fill-opacity:1;stroke:none;stroke-width:1.5;stroke-linecap:square;stroke-linejoin:miter;stroke-miterlimit:4;stroke-dashoffset:0;stroke-opacity:1"/><path id="path44016" d="m -238.37978,944.32217 c -20.11022,0 -36.4266,15.9074 -36.4266,35.53322 l 0,5.61655 c 0,5.55039 5.83324,17.19346 26.8697,17.19346 l 19.08475,0 c 21.03599,0 26.89875,-11.07683 26.89875,-17.19346 l 0,-5.61655 c 0,-19.62582 -16.31638,-35.53322 -36.4266,-35.53322 z" style="fill:url(#radialGradient44073);fill-opacity:1;stroke:none;stroke-width:1.5;stroke-linecap:square;stroke-linejoin:miter;stroke-miterlimit:4;stroke-dashoffset:0;stroke-opacity:1"/><path id="path44018" d="m -220.89335,951.63335 c 8.46364,9.0621 14.91528,24.09751 16.80551,38.65267" style="fill:#000;fill-opacity:0;fill-rule:evenodd;stroke:url(#linearGradient44070);stroke-width:1.5;stroke-linecap:butt;stroke-linejoin:miter;stroke-miterlimit:4;stroke-dasharray:none;stroke-opacity:1"/><path id="path44020" d="m -255.70476,951.63335 c -8.46364,9.0621 -14.91528,24.09751 -16.80551,38.65267" style="fill:#000;fill-opacity:0;fill-rule:evenodd;stroke:url(#linearGradient44067);stroke-width:1.5;stroke-linecap:butt;stroke-linejoin:miter;stroke-miterlimit:4;stroke-dasharray:none;stroke-opacity:1"/><path id="path44022" d="m -245.07157,955.83473 c -2.3027,1.97418 -4.96223,3.5307 -3.72122,8.28271 -5.66073,-1.14662 -9.94971,-8.89011 -6.36208,-14.40472 l 10.0833,6.12201 z" style="fill:#c5ffbd;fill-opacity:1;fill-rule:evenodd;stroke:url(#linearGradient44613);stroke-width:1px;stroke-linecap:butt;stroke-linejoin:miter;stroke-opacity:1"/><path id="path44024" d="m -36.972118,84.910487 -5.409768,-9.369991 10.819535,-10e-7 -5.409767,9.369992 z" transform="matrix(1.1784451,0,0,0.9316118,-194.72944,886.86434)" style="fill:url(#linearGradient44691);fill-opacity:1;stroke:none;stroke-width:.85552669;stroke-linecap:square;stroke-linejoin:miter;stroke-miterlimit:4;stroke-dasharray:none;stroke-dashoffset:0;stroke-opacity:1"/><path id="path44028" d="m -254.93334,950.41537 9,5.46875 c -0.98816,0.81483 -2.01362,1.64574 -2.75,2.78125 -0.74928,1.1554 -0.98341,2.74156 -0.65625,4.71875 -2.36917,-0.72853 -4.49352,-2.64468 -5.65625,-5.0625 -1.20326,-2.5021 -1.34831,-5.40312 0.0625,-7.90625 z" style="fill:url(#radialGradient44061);fill-opacity:1;fill-rule:evenodd;stroke:none;stroke-width:1px;stroke-linecap:butt;stroke-linejoin:miter;stroke-opacity:1"/><path id="path44621" d="m -231.86267,955.83473 c 2.3027,1.97418 4.96223,3.5307 3.72122,8.28271 5.66073,-1.14662 9.94971,-8.89011 6.36208,-14.40472 l -10.0833,6.12201 z" style="fill:#9dcfff;fill-opacity:1;fill-rule:evenodd;stroke:url(#linearGradient44625);stroke-width:1px;stroke-linecap:butt;stroke-linejoin:miter;stroke-opacity:1"/><path id="path44030" d="m 76.945221,64.499184 a 17.165627,17.165627 0 1 1 -34.331253,0 17.165627,17.165627 0 1 1 34.331253,0 z" transform="matrix(1.4960409,0,0,1.4960409,-327.73177,835.09337)" style="fill:url(#radialGradient44048);fill-opacity:1;stroke:url(#linearGradient44677);stroke-width:1.33686185;stroke-linecap:square;stroke-linejoin:miter;stroke-miterlimit:4;stroke-dasharray:none;stroke-dashoffset:0;stroke-opacity:1"/></g><circle style="opacity:1;fill:#1a1a1a;fill-opacity:.66393439;stroke:none;stroke-width:.41800001;stroke-linecap:round;stroke-linejoin:round;stroke-miterlimit:4;stroke-dasharray:none;stroke-dashoffset:0;stroke-opacity:1;filter:url(#filter6061)" id="circle6047" cx="-295.683" cy="983.966" r="20.562" transform="matrix(1.4081142,0,0,1.4081142,510.77481,-1296.7313)"/><circle id="path4147" cx="93.473" cy="87.29" r="29.82" style="opacity:1;fill:#256526;fill-opacity:1;stroke:none;stroke-width:.41800001;stroke-linecap:round;stroke-linejoin:round;stroke-miterlimit:4;stroke-dasharray:none;stroke-dashoffset:0;stroke-opacity:1"/><circle id="circle4151" cx="93.473" cy="87.29" r="27.882" style="opacity:1;fill:url(#linearGradient4167);fill-opacity:1;stroke:none;stroke-width:.32836357;stroke-linecap:round;stroke-linejoin:round;stroke-miterlimit:4;stroke-dasharray:none;stroke-dashoffset:0;stroke-opacity:1"/><g id="text6036" transform="matrix(1.7920204,0,0,1.7920204,624.4132,-1674.3289)" style="font-style:normal;font-variant:normal;font-weight:400;font-stretch:normal;font-size:42.51968384px;line-height:125%;font-family:Archive;-inkscape-font-specification:'Archive, Normal';text-align:start;letter-spacing:0;word-spacing:0;writing-mode:lr-tb;text-anchor:start;fill:#5a9604;fill-opacity:1;stroke:none;stroke-width:1px;stroke-linecap:butt;stroke-linejoin:miter;stroke-opacity:1"><path id="path6041" d="m -287.86811,980.96356 -5.69764,0 0,-5.69764 c 0,-0.76535 -0.25512,-1.23307 -1.23307,-1.23307 l -3.31654,0 c -0.97795,0 -1.23307,0.46772 -1.23307,1.23307 l 0,5.69764 -5.74016,0 c -0.76535,0 -1.23307,0.25512 -1.23307,1.23307 l 0,3.31653 c 0,0.97796 0.46772,1.23307 1.23307,1.23307 l 5.74016,0 0,5.69764 c 0,0.76536 0.25512,1.23307 1.23307,1.23307 l 3.31654,0 c 0.97795,0 1.23307,-0.46771 1.23307,-1.23307 l 0,-5.69764 5.69764,0 c 0.76535,0 1.23307,-0.25511 1.23307,-1.23307 l 0,-3.31653 c 0,-0.97795 -0.46772,-1.23307 -1.23307,-1.23307 z" style="fill:#5a9604;fill-opacity:1"/></g><g style="font-style:normal;font-variant:normal;font-weight:400;font-stretch:normal;font-size:42.51968384px;line-height:125%;font-family:Archive;-inkscape-font-specification:'Archive, Normal';text-align:start;letter-spacing:0;word-spacing:0;writing-mode:lr-tb;text-anchor:start;fill:#fff;fill-opacity:1;stroke:none;stroke-width:1px;stroke-linecap:butt;stroke-linejoin:miter;stroke-opacity:1" id="g6043" transform="matrix(1.7920204,0,0,1.7920204,625.74941,-1675.8012)"><path id="path6045" d="m -287.86811,980.96356 -5.69764,0 0,-5.69764 c 0,-0.76535 -0.25512,-1.23307 -1.23307,-1.23307 l -3.31654,0 c -0.97795,0 -1.23307,0.46772 -1.23307,1.23307 l 0,5.69764 -5.74016,0 c -0.76535,0 -1.23307,0.25512 -1.23307,1.23307 l 0,3.31653 c 0,0.97796 0.46772,1.23307 1.23307,1.23307 l 5.74016,0 0,5.69764 c 0,0.76536 0.25512,1.23307 1.23307,1.23307 l 3.31654,0 c 0.97795,0 1.23307,-0.46771 1.23307,-1.23307 l 0,-5.69764 5.69764,0 c 0.76535,0 1.23307,-0.25511 1.23307,-1.23307 l 0,-3.31653 c 0,-0.97795 -0.46772,-1.23307 -1.23307,-1.23307 z"/></g></svg>