<svg xmlns="http://www.w3.org/2000/svg" xmlns:svg="http://www.w3.org/2000/svg" xmlns:xlink="http://www.w3.org/1999/xlink" id="svg43586" width="128" height="128" version="1.0" viewBox="0 0 128 128"><metadata id="metadata170"/><defs id="defs43588"><linearGradient id="linearGradient44699"><stop id="stop44701" offset="0" style="stop-color:#000173;stop-opacity:.93333334"/><stop id="stop44703" offset="1" style="stop-color:#3575f0;stop-opacity:1"/></linearGradient><linearGradient id="linearGradient44693"><stop id="stop44695" offset="0" style="stop-color:#3690e6;stop-opacity:1"/><stop id="stop44697" offset="1" style="stop-color:#d0e9ff;stop-opacity:1"/></linearGradient><linearGradient id="linearGradient44681"><stop id="stop44683" offset="0" style="stop-color:#ff5c38;stop-opacity:1"/><stop id="stop44685" offset=".304" style="stop-color:#fb7e65;stop-opacity:.99607843"/><stop id="stop44687" offset="1" style="stop-color:#cd0000;stop-opacity:.98039216"/></linearGradient><linearGradient id="linearGradient44627"><stop id="stop44629" offset="0" style="stop-color:#fffcfb;stop-opacity:1"/><stop id="stop44633" offset="1" style="stop-color:#f4ad94;stop-opacity:1"/></linearGradient><linearGradient id="linearGradient44615"><stop id="stop44617" offset="0" style="stop-color:#2f68fa;stop-opacity:1"/><stop id="stop44619" offset="1" style="stop-color:#c7d5fb;stop-opacity:1"/></linearGradient><linearGradient id="linearGradient44605"><stop id="stop44607" offset="0" style="stop-color:#d0ecff;stop-opacity:1"/><stop id="stop44609" offset=".5" style="stop-color:#d7f0ff;stop-opacity:1"/><stop id="stop44611" offset="1" style="stop-color:#fff;stop-opacity:1"/></linearGradient><linearGradient id="linearGradient44090"><stop id="stop44092" offset="0" style="stop-color:#0926bb;stop-opacity:1"/><stop id="stop44094" offset="1" style="stop-color:#6bb5fe;stop-opacity:1"/></linearGradient><linearGradient id="linearGradient44080"><stop id="stop44082" offset="0" style="stop-color:#2c8300;stop-opacity:1"/><stop id="stop44084" offset=".25" style="stop-color:#57aeff;stop-opacity:1"/><stop id="stop44086" offset=".5" style="stop-color:#fff;stop-opacity:1"/><stop id="stop44088" offset="1" style="stop-color:#5aafff;stop-opacity:1"/></linearGradient><filter id="filter3297"><feGaussianBlur id="feGaussianBlur3299" stdDeviation=".267"/></filter><filter id="filter3293"><feGaussianBlur id="feGaussianBlur3295" stdDeviation=".355"/></filter><linearGradient id="linearGradient3219"><stop id="stop3221" offset="0" style="stop-color:#0e7309;stop-opacity:1"/><stop id="stop3223" offset="1" style="stop-color:#70d13e;stop-opacity:1"/></linearGradient><radialGradient id="radialGradient44048" cx="53.602" cy="59.729" r="17.834" fx="53.602" fy="59.729" gradientTransform="matrix(0,1.655849,-1.6391884,0,152.15006,-32.923726)" gradientUnits="userSpaceOnUse" xlink:href="#linearGradient44627"/><radialGradient id="radialGradient44061" cx="479.683" cy="709.658" r="5.006" fx="479.683" fy="709.658" gradientTransform="matrix(0.856113,-0.0637264,0.1161478,1.5603521,-743.30707,-121.7687)" gradientUnits="userSpaceOnUse" xlink:href="#linearGradient44605"/><linearGradient id="linearGradient44067" x1="517.022" x2="517.022" y1="705.484" y2="745.301" gradientTransform="matrix(-1,0,0,1,253.42404,245.75912)" gradientUnits="userSpaceOnUse" xlink:href="#linearGradient44090"/><linearGradient id="linearGradient44070" x1="517.022" x2="517.022" y1="705.484" y2="745.301" gradientTransform="translate(-730.02214,245.75912)" gradientUnits="userSpaceOnUse" xlink:href="#linearGradient44090"/><radialGradient id="radialGradient44073" cx="491.522" cy="670.925" r="36.427" fx="491.522" fy="670.925" gradientTransform="matrix(0,2.0237831,-1.9580539,0,1075.328,-66.735647)" gradientUnits="userSpaceOnUse" xlink:href="#linearGradient44080"/><linearGradient id="linearGradient44076" x1="83.281" x2="83.281" y1="123.098" y2="66.311" gradientTransform="translate(-282.47353,882.69271)" gradientUnits="userSpaceOnUse" xlink:href="#linearGradient44699"/><linearGradient id="linearGradient44613" x1="-246.577" x2="-248.777" y1="958.08" y2="964.617" gradientUnits="userSpaceOnUse" xlink:href="#linearGradient44615"/><linearGradient id="linearGradient44625" x1="-246.577" x2="-248.777" y1="958.08" y2="964.617" gradientTransform="matrix(-1,0,0,1,-476.93424,0)" gradientUnits="userSpaceOnUse" xlink:href="#linearGradient44615"/><linearGradient id="linearGradient44667" x1="517.022" x2="517.022" y1="705.484" y2="745.301" gradientTransform="translate(-772.48144,227.87334)" gradientUnits="userSpaceOnUse" xlink:href="#linearGradient3219"/><linearGradient id="linearGradient44677" x1="60.127" x2="60.127" y1="81.914" y2="47.543" gradientUnits="userSpaceOnUse" xlink:href="#linearGradient44681"/><linearGradient id="linearGradient44691" x1="-35.567" x2="-35.567" y1="76.563" y2="84.91" gradientUnits="userSpaceOnUse" xlink:href="#linearGradient44693"/><linearGradient id="linearGradient4167" x1="227.024" x2="227.08" y1="130.945" y2="109.85" gradientTransform="matrix(1.80011,0,0,1.80011,-313.07166,-137.6591)" gradientUnits="userSpaceOnUse" xlink:href="#linearGradient4161"/><linearGradient id="linearGradient4161"><stop style="stop-color:#97d600;stop-opacity:1" id="stop4163" offset="0"/><stop style="stop-color:#6f8f00;stop-opacity:1" id="stop4165" offset="1"/></linearGradient><filter style="color-interpolation-filters:sRGB" id="filter6061" width="1.072" height="1.072" x="-.036" y="-.036"><feGaussianBlur id="feGaussianBlur6063" stdDeviation=".617"/></filter><linearGradient id="linearGradient6336" x1="86.347" x2="86.347" y1="112.711" y2="183.203" gradientTransform="translate(118.85665,-63.721966)" gradientUnits="userSpaceOnUse" xlink:href="#XMLID_35_"/><linearGradient id="XMLID_35_" x1="86.347" x2="86.347" y1="112.711" y2="183.203" gradientTransform="translate(-4.882813e-4,9.765625e-4)" gradientUnits="userSpaceOnUse"><stop id="stop86" offset="0" style="stop-color:#428aff;stop-opacity:1"/><stop id="stop88" offset="1" style="stop-color:#0035ed;stop-opacity:1"/></linearGradient><radialGradient id="radialGradient6338" cx="87.392" cy="90.319" r="89.119" fx="87.392" fy="90.319" gradientTransform="translate(118.85665,-63.721966)" gradientUnits="userSpaceOnUse" xlink:href="#XMLID_36_"/><radialGradient id="XMLID_36_" cx="87.392" cy="90.319" r="89.119" fx="87.392" fy="90.319" gradientTransform="translate(-4.882813e-4,9.765625e-4)" gradientUnits="userSpaceOnUse"><stop id="stop93" offset=".348" style="stop-color:#428aff;stop-opacity:1"/><stop id="stop95" offset=".539" style="stop-color:#fff;stop-opacity:1"/><stop id="stop97" offset="1" style="stop-color:#57adff;stop-opacity:1"/></radialGradient><linearGradient id="linearGradient6340" x1="40.5" x2="51.5" y1="63" y2="63" gradientTransform="translate(158.64994,3.8151147)" gradientUnits="userSpaceOnUse" xlink:href="#linearGradient3279"/><linearGradient id="linearGradient3279"><stop id="stop3281" offset="0" style="stop-color:#db0000;stop-opacity:1"/><stop id="stop3287" offset=".5" style="stop-color:#ff4a00;stop-opacity:1"/><stop id="stop3283" offset="1" style="stop-color:#db0000;stop-opacity:1"/></linearGradient><linearGradient id="linearGradient6342" x1="86.344" x2="86.344" y1="167.014" y2="114.252" gradientTransform="translate(118.85665,-63.721966)" gradientUnits="userSpaceOnUse" xlink:href="#XMLID_37_"/><linearGradient id="XMLID_37_" x1="86.344" x2="86.344" y1="167.014" y2="114.252" gradientTransform="translate(-4.882813e-4,9.765625e-4)" gradientUnits="userSpaceOnUse"><stop id="stop102" offset="0" style="stop-color:#57adff;stop-opacity:1"/><stop id="stop104" offset="1" style="stop-color:#00008d;stop-opacity:1"/></linearGradient><linearGradient id="linearGradient6344" x1="39" x2="52.5" y1="85" y2="85" gradientTransform="translate(158.64994,3.8151147)" gradientUnits="userSpaceOnUse" spreadMethod="pad" xlink:href="#linearGradient3313"/><linearGradient id="linearGradient3313"><stop id="stop3315" offset="0" style="stop-color:#fe9999;stop-opacity:1"/><stop id="stop3321" offset=".5" style="stop-color:red;stop-opacity:1"/><stop id="stop3317" offset="1" style="stop-color:#fa6262;stop-opacity:1"/></linearGradient><linearGradient id="linearGradient6346" x1="105.445" x2="67.245" y1="122.622" y2="122.622" gradientTransform="translate(118.85665,-63.721966)" gradientUnits="userSpaceOnUse" xlink:href="#XMLID_38_"/><linearGradient id="XMLID_38_" x1="105.445" x2="67.245" y1="122.622" y2="122.622" gradientTransform="translate(-4.882813e-4,9.765625e-4)" gradientUnits="userSpaceOnUse"><stop id="stop115" offset="0" style="stop-color:#428aff;stop-opacity:1"/><stop id="stop117" offset="1" style="stop-color:#0035ed;stop-opacity:1"/></linearGradient><linearGradient id="linearGradient6348" x1="66.527" x2="106.162" y1="122.115" y2="122.115" gradientTransform="translate(118.85665,-63.721966)" gradientUnits="userSpaceOnUse" xlink:href="#XMLID_39_"/><linearGradient id="XMLID_39_" x1="66.527" x2="106.162" y1="122.115" y2="122.115" gradientTransform="translate(-4.882813e-4,9.765625e-4)" gradientUnits="userSpaceOnUse"><stop id="stop126" offset="0" style="stop-color:#dcf0ff;stop-opacity:1"/><stop id="stop128" offset="1" style="stop-color:#94caff;stop-opacity:1"/></linearGradient><linearGradient id="linearGradient6350" x1="66.808" x2="105.88" y1="117.826" y2="117.826" gradientTransform="translate(118.85665,-63.721966)" gradientUnits="userSpaceOnUse" xlink:href="#XMLID_40_"/><linearGradient id="XMLID_40_" x1="66.808" x2="105.88" y1="117.826" y2="117.826" gradientTransform="translate(-4.882813e-4,9.765625e-4)" gradientUnits="userSpaceOnUse"><stop id="stop135" offset="0" style="stop-color:#0053bd;stop-opacity:1"/><stop id="stop137" offset="1" style="stop-color:#00008d;stop-opacity:1"/></linearGradient><linearGradient id="linearGradient6352" x1="86.343" x2="86.343" y1="69.373" y2="128.885" gradientTransform="translate(-4.882813e-4,9.765625e-4)" gradientUnits="userSpaceOnUse" xlink:href="#XMLID_41_"/><linearGradient id="XMLID_41_" x1="86.343" x2="86.343" y1="69.373" y2="128.885" gradientTransform="translate(-4.882813e-4,9.765625e-4)" gradientUnits="userSpaceOnUse"><stop id="stop142" offset="0" style="stop-color:#c76200;stop-opacity:1"/><stop id="stop144" offset=".5" style="stop-color:#d8922a;stop-opacity:1"/><stop id="stop146" offset="1" style="stop-color:#960;stop-opacity:1"/></linearGradient><radialGradient id="radialGradient6354" cx="76.373" cy="82.791" r="47.319" fx="76.373" fy="82.791" gradientTransform="translate(118.85665,-63.721966)" gradientUnits="userSpaceOnUse" xlink:href="#XMLID_42_"/><radialGradient id="XMLID_42_" cx="76.373" cy="82.791" r="47.319" fx="76.373" fy="82.791" gradientTransform="translate(-4.882813e-4,9.765625e-4)" gradientUnits="userSpaceOnUse"><stop id="stop151" offset="0" style="stop-color:#fff;stop-opacity:1"/><stop id="stop153" offset=".517" style="stop-color:#ffdb9d;stop-opacity:1"/><stop id="stop155" offset=".753" style="stop-color:#f0cd87;stop-opacity:1"/><stop id="stop157" offset="1" style="stop-color:#ba8a2b;stop-opacity:1"/></radialGradient><linearGradient id="linearGradient6356" x1="117.469" x2="90.433" y1="192.094" y2="165.058" gradientTransform="matrix(1.0703,1e-4,1e-4,1.0985,117.32524,-109.70424)" gradientUnits="userSpaceOnUse" xlink:href="#XMLID_43_"/><linearGradient id="XMLID_43_" x1="117.469" x2="90.433" y1="192.094" y2="165.058" gradientTransform="matrix(1.0703,1e-4,1e-4,1.0985,-1.5319,-45.9813)" gradientUnits="userSpaceOnUse"><stop id="stop170" offset="0" style="stop-color:#0035ed;stop-opacity:1"/><stop id="stop172" offset=".085" style="stop-color:#1c50f0;stop-opacity:1"/><stop id="stop174" offset=".24" style="stop-color:#497cf4;stop-opacity:1"/><stop id="stop176" offset=".396" style="stop-color:#6fa0f8;stop-opacity:1"/><stop id="stop178" offset=".551" style="stop-color:#8cbdfb;stop-opacity:1"/><stop id="stop180" offset=".704" style="stop-color:#a0d1fd;stop-opacity:1"/><stop id="stop182" offset=".855" style="stop-color:#adddff;stop-opacity:1"/><stop id="stop184" offset="1" style="stop-color:#b1e1ff;stop-opacity:1"/></linearGradient><linearGradient id="linearGradient6358" x1="119.95" x2="91.555" y1="167.941" y2="139.546" gradientTransform="translate(-4.882813e-4,9.765625e-4)" gradientUnits="userSpaceOnUse" xlink:href="#XMLID_44_"/><linearGradient id="XMLID_44_" x1="119.95" x2="91.555" y1="167.941" y2="139.546" gradientTransform="translate(-4.882813e-4,9.765625e-4)" gradientUnits="userSpaceOnUse"><stop id="stop189" offset="0" style="stop-color:#0035ed;stop-opacity:1"/><stop id="stop191" offset=".085" style="stop-color:#1c50f0;stop-opacity:1"/><stop id="stop193" offset=".24" style="stop-color:#497cf4;stop-opacity:1"/><stop id="stop195" offset=".396" style="stop-color:#6fa0f8;stop-opacity:1"/><stop id="stop197" offset=".551" style="stop-color:#8cbdfb;stop-opacity:1"/><stop id="stop199" offset=".704" style="stop-color:#a0d1fd;stop-opacity:1"/><stop id="stop201" offset=".855" style="stop-color:#adddff;stop-opacity:1"/><stop id="stop203" offset="1" style="stop-color:#b1e1ff;stop-opacity:1"/></linearGradient><linearGradient id="linearGradient6360" x1="122.741" x2="96.799" y1="163.006" y2="137.064" gradientTransform="translate(118.85665,-63.721966)" gradientUnits="userSpaceOnUse" xlink:href="#XMLID_45_"/><linearGradient id="XMLID_45_" x1="122.741" x2="96.799" y1="163.006" y2="137.064" gradientTransform="translate(-4.882813e-4,9.765625e-4)" gradientUnits="userSpaceOnUse"><stop id="stop208" offset="0" style="stop-color:#034cfe;stop-opacity:1"/><stop id="stop210" offset=".038" style="stop-color:#1359fe;stop-opacity:1"/><stop id="stop212" offset=".177" style="stop-color:#4885fe;stop-opacity:1"/><stop id="stop3055" offset=".319" style="stop-color:#76aaff;stop-opacity:1"/><stop id="stop3057" offset=".459" style="stop-color:#9cc9ff;stop-opacity:1"/><stop id="stop3059" offset=".597" style="stop-color:#b9e0ff;stop-opacity:1"/><stop id="stop220" offset=".735" style="stop-color:#cdf1ff;stop-opacity:1"/><stop id="stop222" offset=".87" style="stop-color:#dafcff;stop-opacity:1"/><stop id="stop224" offset="1" style="stop-color:#deffff;stop-opacity:1"/></linearGradient><linearGradient id="linearGradient6362" x1="119.037" x2="93.096" y1="166.704" y2="140.763" gradientTransform="translate(-4.882813e-4,9.765625e-4)" gradientUnits="userSpaceOnUse" xlink:href="#XMLID_46_"/><linearGradient id="XMLID_46_" x1="119.037" x2="93.096" y1="166.704" y2="140.763" gradientTransform="translate(-4.882813e-4,9.765625e-4)" gradientUnits="userSpaceOnUse"><stop id="stop229" offset="0" style="stop-color:#006dff;stop-opacity:1"/><stop id="stop231" offset=".045" style="stop-color:#1379ff;stop-opacity:1"/><stop id="stop233" offset=".183" style="stop-color:#489cff;stop-opacity:1"/><stop id="stop235" offset=".323" style="stop-color:#76bbff;stop-opacity:1"/><stop id="stop237" offset=".462" style="stop-color:#9cd3ff;stop-opacity:1"/><stop id="stop239" offset=".6" style="stop-color:#b9e6ff;stop-opacity:1"/><stop id="stop241" offset=".737" style="stop-color:#cdf4ff;stop-opacity:1"/><stop id="stop3073" offset=".871" style="stop-color:#dafcff;stop-opacity:1"/><stop id="stop3075" offset="1" style="stop-color:#deffff;stop-opacity:1"/></linearGradient><linearGradient id="linearGradient6364" x1="108.004" x2="108.004" y1="152.141" y2="147.994" gradientTransform="translate(118.85665,-63.721966)" gradientUnits="userSpaceOnUse" xlink:href="#XMLID_47_"/><linearGradient id="XMLID_47_" x1="108.004" x2="108.004" y1="152.141" y2="147.994" gradientTransform="translate(-4.882813e-4,9.765625e-4)" gradientUnits="userSpaceOnUse"><stop id="stop254" offset="0" style="stop-color:#060;stop-opacity:1"/><stop id="stop256" offset="1" style="stop-color:#9f6;stop-opacity:1"/></linearGradient><linearGradient id="linearGradient6366" x1="110.075" x2="105.934" y1="150.064" y2="150.064" gradientTransform="translate(118.85665,-63.721966)" gradientUnits="userSpaceOnUse" xlink:href="#XMLID_48_"/><linearGradient id="XMLID_48_" x1="110.075" x2="105.934" y1="150.064" y2="150.064" gradientTransform="translate(-4.882813e-4,9.765625e-4)" gradientUnits="userSpaceOnUse"><stop id="stop261" offset="0" style="stop-color:#093;stop-opacity:1"/><stop id="stop263" offset="1" style="stop-color:#6fcf00;stop-opacity:1"/></linearGradient></defs><g id="g5589" transform="matrix(1.0398557,0,0,1.0398557,-151.03474,-2.1703454)"><path style="opacity:.2" id="path81" d="m 229.42714,57.031057 c 4.64,-5.249 7.458,-12.139 7.458,-19.694 0,-16.434 -13.318,-29.758 -29.753,-29.757 -16.433,0 -29.755,13.324 -29.754,29.757 0,7.555 2.822,14.446 7.459,19.696 -12.791,7.61 -21.363,21.572 -21.363,37.539 0,24.109003 19.547,26.838003 43.657,26.836003 24.111,0.002 43.658,-2.727 43.657,-26.836003 0,-15.965 -8.57,-29.928 -21.361,-37.541 z"/><path style="opacity:.2" id="path83" d="m 228.46214,56.070057 c 4.64,-5.251 7.46,-12.142 7.459,-19.698 0,-16.435 -13.323,-29.756 -29.755,-29.755 -16.434,0 -29.757,13.32 -29.757,29.755 0,7.555 2.82,14.447 7.459,19.698 -12.789,7.611 -21.358,21.574 -21.358,37.539 0,24.111003 19.543,26.838003 43.655,26.840003 24.111,-0.002 43.658,-2.729 43.658,-26.840003 0,-15.967 -8.572,-29.927 -21.361,-37.539 z"/><path style="fill:url(#linearGradient6336)" id="path90" d="m 161.54714,92.644057 c 0,24.104003 19.545,26.836003 43.654,26.836003 24.109,0 43.66,-2.732 43.659,-26.836003 0,-24.113 -19.549,-43.655 -43.659,-43.656 -24.109,0.002 -43.654,19.541 -43.654,43.656 z"/><path style="fill:url(#radialGradient6338)" id="path99" d="m 163.96714,91.736057 c 0,22.771003 18.463,25.352003 41.234,25.352003 22.771,0 41.234,-2.582 41.234,-25.352003 0,-22.773 -18.463,-41.235 -41.234,-41.235 -22.771,-0.001 -41.234,18.462 -41.234,41.235 z"/><path style="fill:url(#linearGradient6340);fill-opacity:1;fill-rule:evenodd;stroke:#a90609;stroke-width:1px;stroke-linecap:butt;stroke-linejoin:miter;stroke-opacity:1" id="path3239" d="m 196.64994,63.815114 c 0,0 2.5,6 2.5,6 0,0 11,0 11,0 0,0 2.5,-6 2.5,-6 0,0 -16,0 -16,0 z"/><path style="fill:url(#linearGradient6342)" id="path106" d="m 166.14714,103.29106 c 5.405,-30.080003 20.301,-51.896003 37.964,-52.761003 -4.373,0.114 -8.576,0.908 -12.509,2.275 -12.203,8.041 -21.789,26.586 -25.709,49.893003 0.084,0.194 0.166,0.393 0.254,0.593 m 78.361,-0.594 c -3.918,-23.305003 -13.505,-41.852003 -25.708,-49.893003 -3.933,-1.369 -8.137,-2.161 -12.506,-2.274 17.662,0.865 32.556,22.683 37.965,52.759003 0.083,-0.199 0.168,-0.397 0.249,-0.592 z"/><path style="fill:url(#linearGradient6344);fill-opacity:1;fill-rule:evenodd;stroke:#a90609;stroke-width:1px;stroke-linecap:butt;stroke-linejoin:miter;stroke-opacity:1" id="path3241" d="m 199.14994,69.815114 c 0,0 -4,34.500006 -4,34.500006 0,0 9.5,5 9.5,5 0,0 9.5,-4.5 9.5,-4.5 0,0 -4,-35.000006 -4,-35.000006 0,0 -11,0 -11,0 z"/><path style="opacity:.2" id="path167" d="m 204.848,109.172 c 1.419,-0.75 7.787,-4.125 9.593,-5.084 -0.008,-0.074 -0.021,-0.184 -0.041,-0.301 l -13.095,3.512 c 1.57,0.832 2.963,1.568 3.543,1.873 m -8.883,-10.693 c -0.268,2.105 -0.486,3.799 -0.613,4.791 l 18.358,-4.92 c -0.177,-1.35 -0.371,-2.861 -0.575,-4.477 l -17.17,4.606 m 2.714,-21.225 c -0.187,1.475 -0.396,3.096 -0.61,4.791 l 13.106,-3.51 c -0.214,-1.676 -0.412,-3.199 -0.574,-4.477 l -11.922,3.196 m -1.355,10.607 c -0.208,1.629 -0.418,3.25 -0.614,4.799 l 15.732,-4.217 c -0.19,-1.492 -0.385,-3.004 -0.574,-4.477 l -14.544,3.895 z"/><path style="opacity:.2;fill:#0035ed" id="path112" d="m 205.20114,49.993057 c -10.547,0 -19.1,5.603 -19.1,12.508 0,4.01 2.887,7.573 7.367,9.868 -0.264,-0.65 -0.404,-1.33 -0.403,-2.033 -0.001,-4.391 5.435,-5.513 12.135,-5.513 6.701,10e-4 12.136,1.123 12.135,5.513 0.001,0.703 -0.137,1.383 -0.402,2.033 4.482,-2.295 7.369,-5.857 7.368,-9.866 0,-6.909 -8.554,-12.511 -19.1,-12.51 z"/><path style="fill:url(#linearGradient6346)" id="path119" d="m 205.20114,45.430057 c -10.546,0 -19.1,6.744 -19.1,15.057 0,4.829 2.887,9.126 7.367,11.882 -0.264,-0.783 -0.404,-1.6 -0.403,-2.447 0,-5.286 5.434,-6.64 12.136,-6.64 6.701,-0.001 12.135,1.354 12.135,6.642 0,0.846 -0.138,1.664 -0.403,2.445 4.483,-2.758 7.368,-7.053 7.369,-11.88 0,-8.315 -8.555,-15.059 -19.101,-15.059 z"/><path style="opacity:.5;fill:#0035ed" id="path123" d="m 218.54014,70.179057 c 0,0.928 -0.153,1.83 -0.44,2.689 4.924,-3.033 8.099,-7.749 8.099,-13.057 0,-0.933 -0.102,-1.847 -0.293,-2.737 -6.052,-3.635 -13.133,-5.73 -20.705,-5.73 -7.57,0 -14.653,2.095 -20.704,5.729 -0.19,0.892 -0.293,1.807 -0.292,2.739 0,5.308 3.173,10.025 8.099,13.056 -0.289,-0.857 -0.44,-1.762 -0.44,-2.689 0.001,-5.812 5.971,-10.519 13.337,-10.519 7.368,10e-4 13.338,4.708 13.339,10.519 z"/><path style="fill:url(#linearGradient6348)" id="path130" d="m 205.20114,44.417057 c -10.944,0 -19.818,6.998 -19.818,15.626 0,5.011 2.994,9.465 7.641,12.326 -0.267,-0.814 -0.418,-1.662 -0.418,-2.541 -0.001,-5.482 5.64,-9.933 12.595,-9.932 6.957,0 12.594,4.45 12.594,9.932 0,0.879 -0.147,1.727 -0.418,2.541 4.648,-2.861 7.641,-7.314 7.641,-12.326 0,-8.629 -8.872,-15.626 -19.817,-15.626 z"/><path style="fill:#fff" id="path132" d="m 192.83114,71.677057 c -0.069,-0.266 -0.113,-0.543 -0.15,-0.816 -3.4,-3.566 -5.328,-8.404 -4.843,-13.358 0.242,-2.464 0.17,-4.076 -0.042,-4.933 -0.725,1.042 -1.298,2.165 -1.706,3.335 -0.072,1.059 -0.085,2.31 -0.004,3.73 0.283,4.984 2.894,9.3 6.745,12.042 z"/><path style="opacity:.1;fill:url(#linearGradient6350)" id="path139" d="m 205.20114,44.417057 c -9.813,0 -17.956,5.628 -19.537,13.009 2.706,2.75 5.942,4.93 9.544,6.366 2.299,-2.37 5.92,-3.896 9.993,-3.896 4.074,10e-4 7.695,1.527 9.996,3.896 3.599,-1.436 6.834,-3.617 9.54,-6.367 -1.579,-7.38 -9.72,-13.008 -19.536,-13.008 z"/><circle style="fill:url(#linearGradient6352)" id="circle148" cx="86.343" cy="99.131" r="29.756" transform="translate(118.85714,-63.722943)"/><path style="fill:url(#radialGradient6354)" id="path159" d="m 177.31714,35.797057 c 0,15.403 12.485,27.885 27.884,27.886 15.401,-10e-4 27.886,-12.483 27.886,-27.886 0,-15.395 -12.485,-27.882 -27.885,-27.882 -15.4,0 -27.885,12.487 -27.885,27.882 z"/><rect style="opacity:.95999995;fill:url(#linearGradient6356)" id="rect186" width="17.532" height="4.203" x="217.757" y="82.237"/><polygon style="fill:url(#linearGradient6358)" id="polygon205" points="107.572 162.186 116.258 160.611 116.255 150.508 98.884 150.51 98.884 160.615 98.884 160.615" transform="translate(118.85714,-63.722943)"/><rect style="opacity:.95999995;fill:url(#linearGradient6360)" id="rect226" width="15.721" height="3.666" x="218.9" y="82.615"/><polygon style="fill:url(#linearGradient6362)" id="polygon247" points="107.729 161.537 115.591 160.082 115.591 150.705 99.861 150.709 99.861 160.082 99.861 160.082" transform="translate(118.85714,-63.722943)"/><polygon style="fill:#dcf0ff" id="polygon249" points="100.187 159.369 107.41 160.658 114.631 159.365 114.631 159.078 108.854 160.148 108.854 160.148 101.633 158.811 101.633 151.105 100.184 151.105" transform="translate(118.85714,-63.722943)"/><path style="opacity:.2" id="path251" d="m 225.41214,86.431057 c 0,0.932 0.76,1.691 1.692,1.691 0.93,0 1.692,-0.762 1.691,-1.691 0,-0.932 -0.762,-1.693 -1.691,-1.693 -0.933,0 -1.692,0.76 -1.692,1.693 z"/><path style="fill:url(#linearGradient6364)" id="path258" d="m 225.16814,86.345057 c 0,0.93 0.766,1.689 1.694,1.689 0.93,0.002 1.692,-0.76 1.693,-1.689 -0.001,-0.932 -0.762,-1.691 -1.692,-1.691 -0.93,0.002 -1.695,0.76 -1.695,1.691 z"/><path style="fill:url(#linearGradient6366)" id="path265" d="m 225.55514,86.345057 c 0,0.719 0.584,1.305 1.307,1.303 0.723,0 1.305,-0.584 1.306,-1.303 0,-0.723 -0.583,-1.311 -1.306,-1.311 -0.722,-0.001 -1.307,0.589 -1.307,1.311 z"/><path style="fill:#006a00" id="path267" d="m 226.32114,85.798057 c -0.252,0.248 -0.381,0.523 -0.287,0.617 0.093,0.094 0.368,-0.031 0.618,-0.285 0.25,-0.248 0.375,-0.523 0.285,-0.615 -0.095,-0.092 -0.37,0.032 -0.616,0.283 z"/><path style="fill:#006a00" id="path269" d="m 227.06914,86.554057 c -0.244,0.246 -0.374,0.523 -0.281,0.613 0.093,0.096 0.368,-0.031 0.618,-0.279 0.25,-0.25 0.375,-0.529 0.285,-0.621 -0.093,-0.094 -0.37,0.035 -0.622,0.287 z"/></g><rect id="rect6075" width="128" height="128" x="0" y="0" style="opacity:1;fill:#1a1a1a;fill-opacity:0;stroke:none;stroke-width:1.5;stroke-linecap:round;stroke-linejoin:round;stroke-miterlimit:4;stroke-dasharray:none;stroke-dashoffset:0;stroke-opacity:1"/><circle style="opacity:1;fill:#1a1a1a;fill-opacity:.66393439;stroke:none;stroke-width:.41800001;stroke-linecap:round;stroke-linejoin:round;stroke-miterlimit:4;stroke-dasharray:none;stroke-dashoffset:0;stroke-opacity:1;filter:url(#filter6061)" id="circle6047" cx="-295.683" cy="983.966" r="20.562" transform="matrix(1.4081142,0,0,1.4081142,510.77481,-1296.7313)"/><g id="g4323"><circle style="opacity:1;fill:#256526;fill-opacity:1;stroke:none;stroke-width:.41800001;stroke-linecap:round;stroke-linejoin:round;stroke-miterlimit:4;stroke-dasharray:none;stroke-dashoffset:0;stroke-opacity:1" id="path4147" cx="93.473" cy="87.29" r="29.82"/><circle style="opacity:1;fill:url(#linearGradient4167);fill-opacity:1;stroke:none;stroke-width:.32836357;stroke-linecap:round;stroke-linejoin:round;stroke-miterlimit:4;stroke-dasharray:none;stroke-dashoffset:0;stroke-opacity:1" id="circle4151" cx="93.473" cy="87.29" r="27.882"/><g style="font-style:normal;font-variant:normal;font-weight:400;font-stretch:normal;font-size:42.51968384px;line-height:125%;font-family:Archive;-inkscape-font-specification:'Archive, Normal';text-align:start;letter-spacing:0;word-spacing:0;writing-mode:lr-tb;text-anchor:start;fill:#5a9604;fill-opacity:1;stroke:none;stroke-width:1px;stroke-linecap:butt;stroke-linejoin:miter;stroke-opacity:1" id="text6036" transform="matrix(1.7920204,0,0,1.7920204,624.4132,-1674.3289)"><path style="fill:#5a9604;fill-opacity:1" id="path6041" d="m -287.86811,980.96356 -5.69764,0 0,-5.69764 c 0,-0.76535 -0.25512,-1.23307 -1.23307,-1.23307 l -3.31654,0 c -0.97795,0 -1.23307,0.46772 -1.23307,1.23307 l 0,5.69764 -5.74016,0 c -0.76535,0 -1.23307,0.25512 -1.23307,1.23307 l 0,3.31653 c 0,0.97796 0.46772,1.23307 1.23307,1.23307 l 5.74016,0 0,5.69764 c 0,0.76536 0.25512,1.23307 1.23307,1.23307 l 3.31654,0 c 0.97795,0 1.23307,-0.46771 1.23307,-1.23307 l 0,-5.69764 5.69764,0 c 0.76535,0 1.23307,-0.25511 1.23307,-1.23307 l 0,-3.31653 c 0,-0.97795 -0.46772,-1.23307 -1.23307,-1.23307 z"/></g><g id="g6043" transform="matrix(1.7920204,0,0,1.7920204,625.74941,-1675.8012)" style="font-style:normal;font-variant:normal;font-weight:400;font-stretch:normal;font-size:42.51968384px;line-height:125%;font-family:Archive;-inkscape-font-specification:'Archive, Normal';text-align:start;letter-spacing:0;word-spacing:0;writing-mode:lr-tb;text-anchor:start;fill:#fff;fill-opacity:1;stroke:none;stroke-width:1px;stroke-linecap:butt;stroke-linejoin:miter;stroke-opacity:1"><path id="path6045" d="m -287.86811,980.96356 -5.69764,0 0,-5.69764 c 0,-0.76535 -0.25512,-1.23307 -1.23307,-1.23307 l -3.31654,0 c -0.97795,0 -1.23307,0.46772 -1.23307,1.23307 l 0,5.69764 -5.74016,0 c -0.76535,0 -1.23307,0.25512 -1.23307,1.23307 l 0,3.31653 c 0,0.97796 0.46772,1.23307 1.23307,1.23307 l 5.74016,0 0,5.69764 c 0,0.76536 0.25512,1.23307 1.23307,1.23307 l 3.31654,0 c 0.97795,0 1.23307,-0.46771 1.23307,-1.23307 l 0,-5.69764 5.69764,0 c 0.76535,0 1.23307,-0.25511 1.23307,-1.23307 l 0,-3.31653 c 0,-0.97795 -0.46772,-1.23307 -1.23307,-1.23307 z"/></g></g></svg>