<svg xmlns="http://www.w3.org/2000/svg" xmlns:svg="http://www.w3.org/2000/svg" xmlns:xlink="http://www.w3.org/1999/xlink" id="svg10831" width="128" height="128" version="1.1" viewBox="0 0 128 128"><defs id="defs10833"><linearGradient id="linearGradient16495" x1="201.82" x2="201.746" y1="784.223" y2="759.431" gradientTransform="matrix(3.3787344,0,0,3.795555,-618.10903,-1935.1527)" gradientUnits="userSpaceOnUse" xlink:href="#linearGradient14830"/><linearGradient id="linearGradient14830"><stop style="stop-color:#e6e6e6;stop-opacity:1" id="stop14832" offset="0"/><stop style="stop-color:#fff;stop-opacity:1" id="stop14834" offset="1"/></linearGradient><radialGradient id="radialGradient5866" cx="55.218" cy="458.465" r="15.213" fx="55.218" fy="458.465" gradientTransform="matrix(1.7804773,0,0,1.7779818,-65.663621,204.98595)" gradientUnits="userSpaceOnUse" xlink:href="#linearGradient4799"/><linearGradient id="linearGradient4799"><stop style="stop-color:#ffde00;stop-opacity:1" id="stop4801" offset="0"/><stop style="stop-color:#ffa700;stop-opacity:1" id="stop4803" offset="1"/></linearGradient></defs><metadata id="metadata10836"/><g id="layer1" transform="translate(0,-924.36216)"><g id="g4916" transform="translate(1.6212093,-3.7386701)"><rect id="rect4244" width="128" height="128" x="-1.621" y="928.101" ry="0" style="opacity:0;fill:#a1a1a1;fill-opacity:1;stroke:none;stroke-width:1;stroke-linecap:round;stroke-linejoin:round;stroke-miterlimit:4;stroke-dasharray:none;stroke-dashoffset:0;stroke-opacity:1"/><g id="g4898"><g id="g4882" transform="matrix(0.93280536,0,0,0.93280536,4.6822924,70.037086)"><rect style="fill:#ccc;fill-opacity:1;stroke:none;stroke-width:1;stroke-linejoin:round;stroke-miterlimit:4;stroke-dasharray:none;stroke-opacity:1" id="rect15963" width="95.986" height="119.057" x="16.145" y="928.956" ry="7.144"/><g id="g11438" transform="matrix(1.3419069,0,0,1,-32.132835,-0.50507627)"><rect id="rect15955" width="11.143" height="19.924" x="104.322" y="947.999" ry="2.118" style="fill:red;fill-opacity:1;stroke:none"/><rect style="fill:#4a0;fill-opacity:1;stroke:none" id="rect15957" width="11.143" height="19.924" x="104.475" y="969.206" ry="2.118"/><rect id="rect15959" width="11.143" height="19.924" x="104.322" y="990.412" ry="2.118" style="fill:#f60;fill-opacity:1;stroke:none"/><rect style="fill:#2e75a3;fill-opacity:1;stroke:none" id="rect15961" width="11.143" height="19.924" x="104.627" y="1011.618" ry="2.118"/></g><rect id="rect15965" width="90.002" height="113.867" x="19.19" y="931.551" ry="6.086" style="fill:url(#linearGradient16495);fill-opacity:1;stroke:#949494;stroke-opacity:1"/><g id="g12399" transform="matrix(1.2069733,0,0,1,-20.82586,0)"><rect style="fill:#b3b3b3;fill-opacity:1;stroke:none" id="rect15977" width="59.787" height="4.42" x="40.834" y="1020.178" ry="1.182"/><rect style="fill:#b3b3b3;fill-opacity:1;stroke:none" id="rect15979" width="59.787" height="4.42" x="40.834" y="1029.611" ry="1.182"/><rect id="rect15981" width="59.787" height="4.42" x="40.834" y="944.92" ry="1.182" style="fill:#e6e6e6;fill-opacity:1;stroke:none"/><rect id="rect15983" width="59.787" height="4.42" x="40.834" y="954.353" ry="1.182" style="fill:#e6e6e6;fill-opacity:1;stroke:none"/></g></g><path id="path4797" d="m 30.034565,1012.299 -0.0906,-15.81055 c 0.103864,-3.47167 6.535755,-3.27245 6.971392,-0.0884 v 15.63385 l 10.773971,-10.599 c 2.643794,-2.41982 6.489568,1.8272 4.164725,4.2396 l -10.049675,11.0409 14.123867,0.089 c 4.12001,0.5219 3.600722,7.1621 0.181001,7.4197 l -13.671174,-0.089 10.321278,9.7158 c 2.436804,2.6618 -0.814092,7.2726 -4.436329,4.9465 l -11.588808,-10.8641 -0.09058,15.6336 c 0.409719,3.3201 -6.564632,3.9474 -7.242998,0.089 l 0.09057,-14.839 -10.230746,9.9807 c -3.601596,0.8651 -6.558166,-1.6328 -5.160631,-4.681 l 10.864493,-10.1577 -15.6629941,0.1767 c -3.8582635,-0.7308 -3.7646489,-6.9293 0.090605,-7.4193 l 16.0251291,-0.089 -11.22665,-10.7758 c -2.184254,-3.3914 1.563564,-6.82476 4.526875,-4.7697 z" style="overflow:visible;fill:url(#radialGradient5866);fill-opacity:1;stroke:#ff4100;stroke-width:2.63791013;stroke-linecap:round;stroke-linejoin:round;stroke-miterlimit:4;stroke-dasharray:none;stroke-opacity:1"/></g></g></g></svg>