<svg xmlns="http://www.w3.org/2000/svg" xmlns:svg="http://www.w3.org/2000/svg" xmlns:x="adobe:ns:meta/" xmlns:xap="http://ns.adobe.com/xap/1.0/" xmlns:xapGImg="http://ns.adobe.com/xap/1.0/g/img/" xmlns:xapMM="http://ns.adobe.com/xap/1.0/mm/" id="svg548" style="overflow:visible" width="128" height="128" version="1.1" viewBox="0 0 128 128" xml:space="preserve"><metadata id="metadata549"><xpacket>begin=&apos; &apos; id=&apos;W5M0MpCehiHzreSzNTczkc9d&apos;</xpacket><x:xmpmeta x:xmptk="XMP toolkit 3.0-29, framework 1.6"><metadata/></x:xmpmeta><xpacket>end=&apos;w&apos;</xpacket></metadata><g id="Layer_1" transform="translate(0,54.4)"><linearGradient id="XMLID_8_" x1="23.606" x2="23.606" y1="42.427" y2="4.592" gradientUnits="userSpaceOnUse"><stop style="stop-color:#ff0" id="stop552" offset="0"/><stop style="stop-color:#ffa700" id="stop553" offset="1"/></linearGradient><linearGradient id="XMLID_9_" x1="23.604" x2="23.604" y1="4.589" y2="42.422" gradientUnits="userSpaceOnUse"><stop style="stop-color:#f8310e" id="stop561" offset="0"/><stop style="stop-color:#cf0000" id="stop562" offset="1"/></linearGradient><linearGradient id="XMLID_10_" x1="2.535" x2="2.535" y1="20.531" y2="20.503" gradientUnits="userSpaceOnUse"><stop style="stop-color:#900" id="stop568" offset="0"/><stop style="stop-color:#7c0000" id="stop569" offset="1"/></linearGradient><linearGradient id="XMLID_11_" x1="3.014" x2="44.387" y1="6.334" y2="47.708" gradientUnits="userSpaceOnUse"><stop style="stop-color:#ff0" id="stop575" offset=".006"/><stop style="stop-color:gold" id="stop576" offset=".303"/><stop style="stop-color:#ff6d00" id="stop577" offset="1"/></linearGradient><linearGradient id="XMLID_12_" x1="3.149" x2="3.149" y1="21.009" y2="19.971" gradientUnits="userSpaceOnUse"><stop style="stop-color:#900" id="stop585" offset="0"/><stop style="stop-color:#7c0000" id="stop586" offset="1"/></linearGradient><g id="g4173" transform="matrix(2.2179326,0,0,2.2179326,-2.3996682,-56.169914)"><path id="path557" d="m 22.679,4.324 c 0,0 -4.385,13.496 -4.468,13.75 -0.267,0 -14.458,0 -14.458,0 -0.423,0 -0.796,0.271 -0.927,0.674 0,0 -0.048,0.301 -0.048,0.301 0,0.311 0.15,0.606 0.402,0.789 0,0 10.529,7.649 11.697,8.498 -0.083,0.254 -4.467,13.751 -4.467,13.751 l -0.048,0.301 c 0,0.311 0.15,0.605 0.402,0.789 0.343,0.249 0.803,0.249 1.146,0 0,0 10.53,-7.65 11.697,-8.498 0.216,0.157 11.696,8.498 11.696,8.498 0.344,0.249 0.804,0.249 1.146,0 0.252,-0.183 0.402,-0.479 0.402,-0.789 l -0.048,-0.301 c 0,0 -4.022,-12.378 -4.468,-13.751 0.216,-0.157 11.697,-8.498 11.697,-8.498 0.251,-0.183 0.401,-0.478 0.401,-0.789 l -0.047,-0.301 c -0.132,-0.403 -0.505,-0.674 -0.928,-0.674 0,0 -14.191,0 -14.459,0 C 28.917,17.82 24.532,4.324 24.532,4.324 24.401,3.921 24.028,3.651 23.605,3.651 c -0.422,0 -0.795,0.27 -0.926,0.673 z" style="fill:url(#XMLID_8_)"/><path id="path558" d="m 22.912,4.785 c 0,0 -3.875,11.927 -4.257,13.103 -1.237,0 -13.777,0 -13.777,0 -0.831,0 -1.562,0.531 -1.819,1.321 l 0,0 c 0,0.004 -0.082,0.445 -0.082,0.445 L 2.961,19.739 2.965,19.8 c 0,0.591 0.281,1.148 0.747,1.509 0.279,0.211 1.811,1.324 11.187,8.136 -0.382,1.176 -4.28,13.173 -4.28,13.173 l -0.071,0.446 0,0.074 c 0,0.61 0.294,1.188 0.788,1.547 0.672,0.488 1.575,0.488 2.248,10e-4 0.002,-10e-4 10.268,-7.46 11.147,-8.099 1.001,0.728 11.146,8.098 11.146,8.098 0.673,0.488 1.576,0.488 2.248,10e-4 0.494,-0.359 0.789,-0.938 0.789,-1.548 l 0,-0.074 -0.071,-0.446 c 0,0 -3.897,-11.997 -4.28,-13.173 1.001,-0.728 11.146,-8.098 11.146,-8.098 0.494,-0.359 0.788,-0.938 0.788,-1.547 l 0,-0.073 -0.07,-0.447 -0.023,-0.071 c -0.257,-0.79 -0.988,-1.321 -1.818,-1.321 0,0 -12.541,0 -13.777,0 C 30.425,16.71 26.55,4.785 26.55,4.785 26.293,3.994 25.563,3.464 24.732,3.464 c -0.831,0 -1.563,0.53 -1.82,1.321 z M 3.678,21.282 C 3.662,21.269 3.642,21.251 3.642,21.251 c 0.006,0.007 0.012,0.013 0.036,0.031 z" style="opacity:.2"/><path id="path559" d="m 22.162,4.41 c 0,0 -3.875,11.927 -4.257,13.103 -1.237,0 -13.777,0 -13.777,0 -0.831,0 -1.562,0.531 -1.819,1.321 l 0,0 c 0,0.004 -0.082,0.445 -0.082,0.445 l -0.016,0.085 0.004,0.061 c 0,0.591 0.281,1.148 0.747,1.509 0.279,0.211 1.811,1.324 11.187,8.136 -0.382,1.176 -4.28,13.173 -4.28,13.173 l -0.071,0.446 0,0.074 c 0,0.61 0.294,1.188 0.788,1.547 0.672,0.488 1.575,0.488 2.248,10e-4 0.002,-10e-4 10.268,-7.46 11.147,-8.099 1,0.728 11.146,8.098 11.146,8.098 0.673,0.488 1.576,0.488 2.248,10e-4 0.494,-0.359 0.789,-0.938 0.789,-1.548 l 0,-0.074 -0.071,-0.446 c 0,0 -3.897,-11.997 -4.28,-13.173 1.001,-0.728 11.146,-8.098 11.146,-8.098 0.494,-0.359 0.788,-0.938 0.788,-1.547 l 0,-0.073 -0.07,-0.447 -0.023,-0.071 c -0.257,-0.79 -0.988,-1.321 -1.818,-1.321 0,0 -12.541,0 -13.777,0 C 29.675,16.335 25.8,4.41 25.8,4.41 25.543,3.619 24.813,3.089 23.982,3.089 c -0.831,0 -1.563,0.53 -1.82,1.321 z M 2.928,20.907 C 2.912,20.894 2.892,20.876 2.892,20.876 c 0.006,0.007 0.012,0.013 0.036,0.031 z" style="opacity:.2"/><path id="path566" d="m 21.787,4.035 c 0,0 -3.875,11.927 -4.257,13.103 -1.237,0 -13.777,0 -13.777,0 -0.831,0 -1.562,0.531 -1.819,1.321 l 0,0 c 0,0.004 -0.082,0.445 -0.082,0.445 L 1.836,18.989 1.84,19.05 c 0,0.591 0.281,1.148 0.747,1.509 0.279,0.211 1.811,1.324 11.187,8.136 -0.382,1.176 -4.28,13.173 -4.28,13.173 l -0.071,0.446 0,0.074 c 0,0.61 0.294,1.188 0.788,1.547 0.672,0.488 1.575,0.488 2.248,10e-4 0.002,-10e-4 10.268,-7.46 11.147,-8.099 1,0.728 11.146,8.098 11.146,8.098 0.673,0.488 1.576,0.488 2.248,10e-4 0.494,-0.359 0.789,-0.938 0.789,-1.548 l 0,-0.074 -0.071,-0.446 c 0,0 -3.897,-11.997 -4.28,-13.173 1.001,-0.728 11.146,-8.098 11.146,-8.098 0.494,-0.359 0.788,-0.938 0.788,-1.547 l 0,-0.073 -0.07,-0.447 -0.023,-0.071 c -0.257,-0.79 -0.988,-1.321 -1.818,-1.321 0,0 -12.541,0 -13.777,0 C 29.3,15.96 25.425,4.035 25.425,4.035 25.168,3.244 24.438,2.714 23.607,2.714 c -0.831,0 -1.563,0.53 -1.82,1.321 z" style="fill:url(#XMLID_9_)"/><path id="path573" d="M 2.553,20.532 C 2.537,20.519 2.517,20.501 2.517,20.501 c 0.006,0.007 0.012,0.013 0.036,0.031 z" style="fill:url(#XMLID_10_)"/><path id="path583" d="M 22.5,4.267 18.243,17.37 c -0.101,0.309 -0.388,0.518 -0.713,0.518 l -13.777,0 c -0.497,0 -0.933,0.315 -1.095,0.783 -0.014,0.078 -0.035,0.19 -0.068,0.367 0,0.004 0,0.013 0,0.013 0,0.353 0.17,0.695 0.456,0.916 0.271,0.205 1.935,1.414 11.169,8.122 0.198,0.145 0.309,0.372 0.309,0.607 0,0.077 -0.012,0.155 -0.037,0.231 0,0 -4.226,13.006 -4.262,13.117 -0.012,0.074 -0.041,0.254 -0.052,0.329 0,0.005 0,0.016 0,0.016 0,0.371 0.179,0.723 0.479,0.94 0.409,0.297 0.958,0.297 1.367,0 l 11.146,-8.098 c 0.263,-0.19 0.619,-0.19 0.881,0 l 11.146,8.098 c 0.408,0.297 0.957,0.297 1.366,0 0.3,-0.218 0.479,-0.569 0.479,-0.94 0,0 0,-0.011 0,-0.016 -0.012,-0.074 -0.041,-0.255 -0.053,-0.329 -0.036,-0.111 -4.262,-13.117 -4.262,-13.117 -0.025,-0.076 -0.037,-0.154 -0.037,-0.231 0,-0.235 0.111,-0.463 0.31,-0.607 l 11.146,-8.098 c 0.301,-0.218 0.479,-0.57 0.479,-0.94 0,0 0,-0.01 0,-0.015 -0.012,-0.075 -0.04,-0.255 -0.052,-0.33 -0.002,-0.005 -0.005,-0.015 -0.005,-0.015 -0.156,-0.48 -0.601,-0.803 -1.105,-0.803 l -13.775,0 c -0.325,0 -0.613,-0.209 -0.714,-0.518 L 24.712,4.267 C 24.556,3.787 24.111,3.464 23.607,3.464 23.101,3.463 22.657,3.786 22.5,4.267 Z" style="fill:url(#XMLID_11_)"/><path id="path590" d="m 3.27,20.527 c 0,0.173 -0.058,0.345 -0.178,0.481 -0.012,0.014 -0.029,0.019 -0.042,0.031 0.012,-0.012 0.03,-0.017 0.042,-0.03 0.128,-0.146 0.193,-0.325 0.193,-0.502 0,-0.197 -0.079,-0.391 -0.238,-0.536 L 3.012,19.939 c 0.168,0.154 0.258,0.372 0.258,0.588 z" style="fill:url(#XMLID_12_)"/></g><radialGradient id="XMLID_13_" cx="21.9" cy="-65.741" r="155.734" fx="21.9" fy="-65.741" gradientTransform="matrix(0.1875,0,0,0.1875,19.5,19.5)" gradientUnits="userSpaceOnUse"><stop style="stop-color:#f66" id="stop592" offset="0"/><stop style="stop-color:#f8310e" id="stop593" offset=".685"/><stop style="stop-color:#cf0000" id="stop594" offset="1"/></radialGradient><linearGradient id="XMLID_14_" x1="19.33" x2="34.494" y1="16.675" y2="31.84" gradientUnits="userSpaceOnUse"><stop style="stop-color:#fff" id="stop602" offset="0"/><stop style="stop-color:#ffe9e9" id="stop603" offset=".051"/><stop style="stop-color:#ffacac" id="stop604" offset=".202"/><stop style="stop-color:#f77" id="stop605" offset=".353"/><stop style="stop-color:#ff4d4d" id="stop606" offset=".498"/><stop style="stop-color:#ff2b2b" id="stop607" offset=".638"/><stop style="stop-color:#ff1313" id="stop608" offset=".772"/><stop style="stop-color:#ff0505" id="stop609" offset=".895"/><stop style="stop-color:red" id="stop610" offset="1"/></linearGradient><polyline id="_x3C_Slice_x3E_" points="0 48 0 0 48 0 48 48" style="fill:none"/></g></svg>