<svg xmlns="http://www.w3.org/2000/svg" xmlns:svg="http://www.w3.org/2000/svg" xmlns:x="adobe:ns:meta/" xmlns:xap="http://ns.adobe.com/xap/1.0/" xmlns:xapGImg="http://ns.adobe.com/xap/1.0/g/img/" xmlns:xapMM="http://ns.adobe.com/xap/1.0/mm/" id="svg548" style="overflow:visible" width="128" height="128" version="1.1" viewBox="0 0 128 128" xml:space="preserve"><metadata id="metadata549"><xpacket>begin=&apos; &apos; id=&apos;W5M0MpCehiHzreSzNTczkc9d&apos;</xpacket><x:xmpmeta x:xmptk="XMP toolkit 3.0-29, framework 1.6"><metadata/></x:xmpmeta><xpacket>end=&apos;w&apos;</xpacket></metadata><g id="Layer_1" transform="translate(0,54.4)"><linearGradient id="XMLID_8_" x1="23.606" x2="23.606" y1="42.427" y2="4.592" gradientTransform="matrix(2.2179326,0,0,2.2179326,-2.3996682,-56.169914)" gradientUnits="userSpaceOnUse"><stop style="stop-color:#ff0" id="stop552" offset="0"/><stop style="stop-color:#ffa700" id="stop553" offset="1"/></linearGradient><linearGradient id="XMLID_9_" x1="23.604" x2="23.604" y1="4.589" y2="42.422" gradientTransform="matrix(2.2179326,0,0,2.2179326,-2.3996682,-56.169914)" gradientUnits="userSpaceOnUse"><stop style="stop-color:#f8310e" id="stop561" offset="0"/><stop style="stop-color:#cf0000" id="stop562" offset="1"/></linearGradient><linearGradient id="XMLID_10_" x1="2.535" x2="2.535" y1="20.531" y2="20.503" gradientTransform="matrix(2.2179326,0,0,2.2179326,-2.3996682,-56.169914)" gradientUnits="userSpaceOnUse"><stop style="stop-color:#900" id="stop568" offset="0"/><stop style="stop-color:#7c0000" id="stop569" offset="1"/></linearGradient><linearGradient id="XMLID_11_" x1="3.014" x2="44.387" y1="6.334" y2="47.708" gradientTransform="matrix(2.2179326,0,0,2.2179326,-2.3996682,-56.169914)" gradientUnits="userSpaceOnUse"><stop style="stop-color:#fff;stop-opacity:1" id="stop575" offset=".006"/><stop style="stop-color:#e6e6e6;stop-opacity:1" id="stop576" offset=".303"/><stop style="stop-color:gray;stop-opacity:1" id="stop577" offset="1"/></linearGradient><linearGradient id="XMLID_12_" x1="3.149" x2="3.149" y1="21.009" y2="19.971" gradientTransform="matrix(2.2179326,0,0,2.2179326,-2.3996682,-56.169914)" gradientUnits="userSpaceOnUse"><stop style="stop-color:#900" id="stop585" offset="0"/><stop style="stop-color:#7c0000" id="stop586" offset="1"/></linearGradient><path style="fill:url(#XMLID_8_)" id="path557" d="m 47.900825,-46.579573 c 0,0 -9.725634,29.933218 -9.909723,30.496573 -0.592188,0 -32.0668692,0 -32.0668692,0 -0.9381854,0 -1.7654743,0.60106 -2.0560235,1.494886 0,0 -0.1064607,0.667598 -0.1064607,0.667598 0,0.689777 0.3326899,1.344067 0.8916089,1.749949 0,0 23.3526125,16.9649664 25.9431575,18.8479912 C 30.412427,7.240779 20.68901,37.176215 20.68901,37.176215 l -0.106461,0.667598 c 0,0.689777 0.33269,1.341849 0.891609,1.749949 0.760751,0.552265 1.781,0.552265 2.541751,0 0,0 23.35483,-16.967185 25.943158,-18.847991 0.479073,0.348215 25.940939,18.847991 25.940939,18.847991 0.762969,0.552265 1.783218,0.552265 2.541751,0 0.558919,-0.405882 0.891609,-1.06239 0.891609,-1.749949 l -0.106461,-0.667598 c 0,0 -8.920525,-27.4535694 -9.909723,-30.4987908 0.479074,-0.3482155 25.943158,-18.8479912 25.943158,-18.8479912 0.556701,-0.405882 0.889391,-1.060172 0.889391,-1.749949 l -0.104243,-0.667598 C 95.752721,-15.48194 94.925432,-16.083 93.987247,-16.083 c 0,0 -31.474682,0 -32.069088,0 -0.18187,-0.563355 -9.907505,-30.496573 -9.907505,-30.496573 -0.290549,-0.893827 -1.117838,-1.492669 -2.056023,-1.492669 -0.935968,0 -1.763257,0.598842 -2.053806,1.492669 z"/><path style="opacity:.2" id="path558" d="m 48.417604,-45.557107 c 0,0 -8.594489,26.453283 -9.44174,29.061571 -2.743582,0 -30.556457,0 -30.556457,0 -1.843102,0 -3.4644107,1.177723 -4.0344194,2.929889 l 0,0 c 0,0.0089 -0.1818704,0.98698 -0.1818704,0.98698 l -0.035487,0.188525 0.00887,0.135293 c 0,1.310799 0.623239,2.5461871 1.6567956,3.3468608 C 6.4521008,-8.4400044 9.8499735,-5.9714455 30.64531,9.1371114 29.798059,11.7454 21.152558,38.353938 21.152558,38.353938 l -0.157473,0.989197 0,0.164127 c 0,1.352939 0.652072,2.634904 1.747731,3.431142 1.49045,1.082351 3.493244,1.082351 4.985912,0.0022 0.0044,-0.0022 22.773732,-16.545777 24.723295,-17.963036 2.22015,1.614655 24.721077,17.960818 24.721077,17.960818 1.492668,1.082351 3.495461,1.082351 4.985912,0.0022 1.095659,-0.796238 1.749949,-2.080421 1.749949,-3.43336 l 0,-0.164127 -0.157473,-0.989197 c 0,0 -8.643284,-26.608538 -9.492752,-29.2168266 2.220151,-1.6146549 24.721077,-17.9608182 24.721077,-17.9608182 1.095657,-0.7962378 1.747727,-2.0804212 1.747727,-3.4311422 l 0,-0.161909 -0.15525,-0.991415 -0.051,-0.157474 c -0.570013,-1.752166 -2.191321,-2.929889 -4.032205,-2.929889 0,0 -27.815093,0 -30.556458,0 -0.851686,-2.612724 -9.446175,-29.061571 -9.446175,-29.061571 -0.570008,-1.754384 -2.189099,-2.929888 -4.032201,-2.929888 -1.843102,0 -3.466629,1.175504 -4.036637,2.929888 z M 5.7578879,-8.9678724 c -0.035487,-0.028833 -0.079846,-0.068756 -0.079846,-0.068756 0.013308,0.015526 0.026615,0.028833 0.079846,0.068756 z"/><path style="fill:#b3b3b3" id="path566" d="m 45.922429,-47.220556 c 0,0 -8.594488,26.453282 -9.441739,29.061571 -2.743582,0 -30.5564572,0 -30.5564572,0 -1.8431019,0 -3.4644107,1.177722 -4.0344194,2.929889 l 0,0 c 0,0.0089 -0.1818704,0.98698 -0.1818704,0.98698 l -0.035487,0.188524 0.00887,0.135294 c 0,1.310798 0.623239,2.546187 1.6567956,3.34686 0.6188032,0.467984 4.016676,2.9365431 24.8120116,18.0451 -0.84725,2.608289 -9.492751,29.216826 -9.492751,29.216826 l -0.157473,0.989198 0,0.164127 c 0,1.352939 0.652072,2.634904 1.747731,3.431142 1.49045,1.082351 3.493243,1.082351 4.985912,0.0022 0.0044,-0.0022 22.773732,-16.545777 24.723295,-17.963036 2.217932,1.614655 24.721077,17.960818 24.721077,17.960818 1.492668,1.082351 3.495461,1.082351 4.985912,0.0022 1.095659,-0.796238 1.749949,-2.080421 1.749949,-3.43336 l 0,-0.164127 -0.157473,-0.989198 c 0,0 -8.643284,-26.608537 -9.492752,-29.216826 2.220151,-1.614655 24.721077,-17.960818 24.721077,-17.960818 1.095659,-0.796238 1.747731,-2.080421 1.747731,-3.431142 l 0,-0.161909 -0.155256,-0.991416 -0.05101,-0.157473 c -0.570009,-1.752167 -2.191317,-2.929889 -4.032201,-2.929889 0,0 -27.815093,0 -30.556458,0 -0.851686,-2.612725 -9.446175,-29.061571 -9.446175,-29.061571 -0.570009,-1.754385 -2.189099,-2.929889 -4.032201,-2.929889 -1.843102,0 -3.466629,1.175504 -4.036638,2.929889 z"/><path style="fill:url(#XMLID_10_)" id="path573" d="m 3.2627137,-10.631322 c -0.035487,-0.02883 -0.079845,-0.06876 -0.079845,-0.06876 0.013307,0.01553 0.026615,0.02883 0.079845,0.06876 z"/><path style="fill:url(#XMLID_11_)" id="path583" d="m 47.503815,-46.705996 -9.441739,29.061571 c -0.224011,0.685341 -0.860558,1.148889 -1.581386,1.148889 l -30.5564572,0 c -1.1023125,0 -2.0693311,0.698649 -2.4286361,1.736642 -0.031051,0.172998 -0.077628,0.421407 -0.1508195,0.813981 0,0.0089 0,0.02883 0,0.02883 0,0.78293 0.3770486,1.541463 1.0113773,2.031626 0.6010597,0.454676 4.2916996,3.1361569 24.7720895,18.0140488 0.43915,0.3216002 0.685341,0.8250709 0.685341,1.3462851 0,0.1707808 -0.02661,0.3437795 -0.08206,0.5123424 0,0 -9.372983,28.8464317 -9.452828,29.0926217 -0.02662,0.164127 -0.09094,0.563355 -0.115333,0.7297 0,0.01109 0,0.03549 0,0.03549 0,0.822853 0.39701,1.603565 1.06239,2.084857 0.907134,0.658726 2.124779,0.658726 3.031914,0 L 48.97874,21.970069 c 0.583317,-0.421407 1.372901,-0.421407 1.953999,0 l 24.721077,17.960819 c 0.904916,0.658726 2.122561,0.658726 3.029696,0 0.66538,-0.48351 1.06239,-1.262004 1.06239,-2.084857 0,0 0,-0.0244 0,-0.03549 -0.02662,-0.164127 -0.09094,-0.565573 -0.117551,-0.7297 -0.07984,-0.24619 -9.452829,-29.0926217 -9.452829,-29.0926217 -0.05545,-0.1685629 -0.08206,-0.3415616 -0.08206,-0.5123424 0,-0.5212142 0.24619,-1.0269028 0.687559,-1.3462851 L 95.502095,-11.831223 c 0.667597,-0.48351 1.062389,-1.264222 1.062389,-2.084857 0,0 0,-0.02218 0,-0.03327 -0.02661,-0.166345 -0.08872,-0.565573 -0.115332,-0.731918 -0.0044,-0.01109 -0.01109,-0.03327 -0.01109,-0.03327 -0.345997,-1.064607 -1.332977,-1.781 -2.450815,-1.781 l -30.552022,0 c -0.720828,0 -1.359593,-0.463548 -1.583604,-1.148889 l -9.441739,-29.061571 c -0.345997,-1.064607 -1.332977,-1.780999 -2.450815,-1.780999 -1.122274,-0.0022 -2.107036,0.714174 -2.455252,1.780999 z"/><path style="fill:url(#XMLID_12_)" id="path590" d="m 4.8529714,-10.642412 c 0,0.383703 -0.1286401,0.7651872 -0.394792,1.0668261 -0.026615,0.031051 -0.06432,0.042141 -0.093153,0.068756 0.026615,-0.026615 0.066538,-0.037705 0.093153,-0.066538 0.2838954,-0.3238182 0.428061,-0.720828 0.428061,-1.113402 0,-0.436933 -0.1752167,-0.867212 -0.527868,-1.188812 l -0.077628,-0.07097 c 0.3726127,0.341562 0.5722266,0.825071 0.5722266,1.304144 z"/><radialGradient id="XMLID_13_" cx="21.9" cy="-65.741" r="155.734" fx="21.9" fy="-65.741" gradientTransform="matrix(0.1875,0,0,0.1875,19.5,19.5)" gradientUnits="userSpaceOnUse"><stop style="stop-color:#f66" id="stop592" offset="0"/><stop style="stop-color:#f8310e" id="stop593" offset=".685"/><stop style="stop-color:#cf0000" id="stop594" offset="1"/></radialGradient><linearGradient id="XMLID_14_" x1="19.33" x2="34.494" y1="16.675" y2="31.84" gradientUnits="userSpaceOnUse"><stop style="stop-color:#fff" id="stop602" offset="0"/><stop style="stop-color:#ffe9e9" id="stop603" offset=".051"/><stop style="stop-color:#ffacac" id="stop604" offset=".202"/><stop style="stop-color:#f77" id="stop605" offset=".353"/><stop style="stop-color:#ff4d4d" id="stop606" offset=".498"/><stop style="stop-color:#ff2b2b" id="stop607" offset=".638"/><stop style="stop-color:#ff1313" id="stop608" offset=".772"/><stop style="stop-color:#ff0505" id="stop609" offset=".895"/><stop style="stop-color:red" id="stop610" offset="1"/></linearGradient><polyline id="_x3C_Slice_x3E_" points="0 48 0 0 48 0 48 48" style="fill:none"/></g></svg>