<svg xmlns="http://www.w3.org/2000/svg" xmlns:svg="http://www.w3.org/2000/svg" xmlns:xlink="http://www.w3.org/1999/xlink" id="svg2" width="128" height="128" version="1.0" viewBox="0 0 128 128"><metadata id="metadata170"/><defs id="defs4"><linearGradient id="linearGradient3377"><stop id="stop3379" offset="0" stop-color="#00339e"/><stop id="stop3387" offset=".324" stop-color="#0062c8"/><stop id="stop3381" offset="1" stop-color="#4fb0ec"/></linearGradient><filter id="filter3210"><feGaussianBlur id="feGaussianBlur3212" stdDeviation=".49"/></filter><filter id="filter3283"><feGaussianBlur id="feGaussianBlur3285" stdDeviation=".299"/></filter><filter id="filter3425"><feGaussianBlur id="feGaussianBlur3427" stdDeviation=".302"/></filter><filter id="filter3437"><feGaussianBlur id="feGaussianBlur3439" stdDeviation=".901"/></filter><linearGradient id="linearGradient3947" x1="127.95" x2="127.95" y1="77.207" y2="307.61" gradientTransform="matrix(0.38177,0,0,0.38177,445.32,231.28)" gradientUnits="userSpaceOnUse"><stop id="stop563" offset="0" stop-color="#3c3"/><stop id="stop564" offset="1" stop-color="#366"/></linearGradient><linearGradient id="linearGradient3949" x1="127.95" x2="127.95" y1="77.367" y2="307.36" gradientTransform="matrix(0.38177,0,0,0.38177,445.32,231.28)" gradientUnits="userSpaceOnUse"><stop id="stop570" offset=".006" stop-color="#cf6"/><stop id="stop571" offset="1" stop-color="#090"/></linearGradient><radialGradient id="radialGradient2330" cx="36.255" cy="19.631" r="7.353" gradientTransform="matrix(1.0733,-6.0093e-8,6.8393e-8,1.2215,-2.656,-4.3434)" gradientUnits="userSpaceOnUse"><stop id="stop3255" offset="0" stop-color="#fff"/><stop id="stop3257" offset="1" stop-color="#fff" stop-opacity=".5"/></radialGradient><linearGradient id="linearGradient2333" x1="351.29" x2="352.78" y1="258.97" y2="244.68" gradientTransform="translate(-304.57,-234.08)" gradientUnits="userSpaceOnUse"><stop id="stop3240" offset="0" stop-color="#21b933"/><stop id="stop3246" offset=".151" stop-color="#35cd35"/><stop id="stop3242" offset="1" stop-color="#d2ffd1"/></linearGradient><linearGradient id="linearGradient2336" x1="350.66" x2="350.66" y1="264.18" y2="249.71" gradientTransform="translate(-304.57,-234.08)" gradientUnits="userSpaceOnUse"><stop id="stop3230" offset="0" stop-color="#037806"/><stop id="stop3232" offset="1" stop-color="#39b71d"/></linearGradient><linearGradient id="linearGradient2339" x1="30.422" x2="63.776" y1="16.662" y2="16.662" gradientUnits="userSpaceOnUse"><stop id="stop3218" offset="0" stop-color="#306266"/><stop id="stop3224" offset=".5" stop-color="#026404"/><stop id="stop3220" offset="1" stop-color="#002931"/></linearGradient><linearGradient id="linearGradient2343" x1="409.9" x2="405.43" y1="317.2" y2="305.46" gradientTransform="matrix(1.1788,0,0,1.1788,-376.91,-289.07)" gradientUnits="userSpaceOnUse"><stop id="stop3348" offset="0" stop-color="#fff"/><stop id="stop3350" offset="1" stop-color="#b5daff"/></linearGradient><linearGradient id="linearGradient2346" x1="350.34" x2="385.93" y1="339.33" y2="257.7" gradientTransform="translate(-304.57,-234.08)" gradientUnits="userSpaceOnUse" xlink:href="#linearGradient3377"/><linearGradient id="linearGradient2352" x1="105.23" x2="100.08" y1="85.691" y2="70.443" gradientUnits="userSpaceOnUse"><stop id="stop3340" offset="0" stop-color="#fff"/><stop id="stop3342" offset="1" stop-color="#d0e9ff"/></linearGradient><linearGradient id="linearGradient2355" x1="55.679" x2="55.679" y1="94.561" y2="28.459" gradientUnits="userSpaceOnUse"><stop id="stop3610" offset="0" stop-color="#a166d7"/><stop id="stop3612" offset="1" stop-color="#fc76fd"/></linearGradient><linearGradient id="linearGradient2360" x1="354.4" x2="366.64" y1="332.65" y2="264.79" gradientTransform="translate(-304.57,-234.08)" gradientUnits="userSpaceOnUse"><stop id="stop3332" offset="0" stop-color="#badeff"/><stop id="stop3334" offset="1" stop-color="#fff"/></linearGradient><linearGradient id="linearGradient2363" x1="47.893" x2="47.893" y1="101.58" y2="28.659" gradientUnits="userSpaceOnUse"><stop id="stop3326" offset="0" stop-color="#e3effa"/><stop id="stop3328" offset="1" stop-color="#fff"/></linearGradient><linearGradient id="linearGradient2367" x1="80.626" x2="62.709" y1="95.051" y2="25.053" gradientUnits="userSpaceOnUse"><stop id="stop3642" offset="0" stop-color="#ffdc8b"/><stop id="stop3644" offset="1" stop-color="#ffecb8"/></linearGradient><linearGradient id="linearGradient2370" x1="42.926" x2="12.753" y1="107.47" y2="22.031" gradientUnits="userSpaceOnUse"><stop id="stop3204" offset="0" stop-color="#fff"/><stop id="stop3206" offset="1" stop-color="#fff" stop-opacity=".5"/></linearGradient><linearGradient id="linearGradient2373" x1="399.44" x2="365.23" y1="319.77" y2="245.74" gradientTransform="translate(-304.57,-234.08)" gradientUnits="userSpaceOnUse"><stop id="stop3196" offset="0" stop-color="#febf2d"/><stop id="stop3198" offset="1" stop-color="#fff0c3"/></linearGradient><linearGradient id="linearGradient2376" x1="342.52" x2="362.7" y1="347.77" y2="291.78" gradientTransform="translate(-304.57,-234.08)" gradientUnits="userSpaceOnUse"><stop id="stop3188" offset="0" stop-color="#ffec2d"/><stop id="stop3190" offset="1" stop-color="#ff6d00"/></linearGradient><linearGradient id="linearGradient2379" x1="40.437" x2="77.453" y1="117.11" y2="17.886" gradientUnits="userSpaceOnUse"><stop id="stop3172" offset="0" stop-color="#820000"/><stop id="stop3174" offset="1" stop-color="#fe3200"/></linearGradient><radialGradient id="radialGradient3362" cx="515.44" cy="258.95" r="30.028" gradientTransform="matrix(-0.68912,0,1.2875e-6,-0.66403,464.01,207.53)" gradientUnits="userSpaceOnUse"><stop id="stop3931" offset="0" stop-color="#ceff67"/><stop id="stop3933" offset="1" stop-color="#ceff67" stop-opacity="0"/></radialGradient><radialGradient id="radialGradient3365" cx="57.085" cy="101.16" r="120.81" gradientTransform="matrix(0.32762,0,0,0.24565,50.307,15.987)" gradientUnits="userSpaceOnUse"><stop id="stop3917" offset="0" stop-color="#fff"/><stop id="stop3919" offset="1" stop-color="#82d655"/></radialGradient><linearGradient id="linearGradient3370" x1="127.95" x2="127.95" y1="47.327" y2="212.99" gradientTransform="matrix(0.31444,0,0,0.31444,51.06,9.0285)" gradientUnits="userSpaceOnUse"><stop id="stop556" offset="0" stop-color="#090"/><stop id="stop557" offset="1" stop-color="#334966"/></linearGradient><filter id="filter3315"><feGaussianBlur id="feGaussianBlur3317" stdDeviation=".324"/></filter><filter id="filter5261"><feGaussianBlur id="feGaussianBlur5263" stdDeviation=".3"/></filter><filter id="filter6238"><feGaussianBlur id="feGaussianBlur6240" stdDeviation="1.909"/></filter><linearGradient id="linearGradient8308" x1="350.34" x2="385.93" y1="339.33" y2="257.7" gradientTransform="translate(-304.57,-234.08)" gradientUnits="userSpaceOnUse" xlink:href="#linearGradient3377"/></defs><rect style="opacity:.00120008;fill:#aa1000;fill-opacity:.8745098;stroke:none;stroke-width:1.10000002;stroke-linecap:round;stroke-linejoin:round;stroke-miterlimit:4;stroke-dasharray:none;stroke-dashoffset:0;stroke-opacity:1" id="rect8306" width="128" height="128" x="0" y="0"/><g id="g8277" transform="matrix(0.94004676,0,0,0.94004676,3.8653916,3.781416)"><path id="path3441" d="m 4.7992,37.98 26.614,74.64 c 1.789,5.02 6.689,7.86 13.687,6.69 l 68.43,-11.38 c 7.66,-1.27 11.04,-14.323 8.44,-19.723 L 91.7592,25.529 c -3.436,-7.128 -9.801,-11.791 -20.841,-10.732 l -55.913,5.366 c -2.554,0.245 -6.6322,2.155 -8.0249,6.029 L 5.3593,30.7 C 4.2952,33.659 3.854,35.328 4.7994,37.98 Z" style="opacity:.5;fill-rule:evenodd"/><path id="path2396" d="m 3.8693,36.247 26.615,74.643 c 1.788,5.02 6.688,7.85 13.686,6.69 l 68.43,-11.38 c 7.66,-1.27 11.04,-14.326 8.44,-19.726 L 90.8293,23.796 c -3.436,-7.128 -9.801,-11.791 -20.841,-10.732 l -55.913,5.366 c -2.554,0.245 -6.6321,2.155 -8.0248,6.029 l -1.621,4.508 c -1.0641,2.96 -1.5053,4.628 -0.5599,7.28 z" style="fill:url(#linearGradient2379);fill-rule:evenodd"/><path id="path3168" d="m 7.565,38.079 25.096,71.191 c 1.659,4.71 4.483,6.14 11.037,5.03 l 68.252,-11.6 c 6.4,-1.09 7.73,-11.998 6.35,-14.831 L 86.878,23.223 C 84.762,18.869 80.403,14.688 70.056,15.668 l -53.367,5.055 c -2.515,0.238 -6.7731,0.614 -8.2625,4.66 l -1.8489,5.022 c -1.0182,2.766 0.1104,5.186 0.9874,7.674 z" style="fill:url(#linearGradient2376);fill-rule:evenodd"/><path id="path3178" d="m 34.861,101.14 c 1.878,6.68 6.412,7.24 14.886,5.79 L 113.71,95.991 c 6.39,-1.094 5.97,-5.289 4.59,-8.122 L 86.878,23.223 C 84.945,19.875 80.403,14.688 70.056,15.668 l -53.367,5.055 c -1.86,0.176 -4.675,0.428 -6.617,2.185 -0.6828,0.618 -1.8391,2.693 -0.9856,5.114 l 25.775,73.118 z" style="fill:url(#linearGradient2373);fill-rule:evenodd"/><path id="path3182" d="m 11.312,22.031 c -0.438,0.241 -0.865,0.528 -1.25,0.875 -0.6826,0.618 -1.8217,2.704 -0.9682,5.125 l 25.781,73.089 c 1.879,6.69 6.401,7.27 14.875,5.82 L 113.7198,96 c 4.38,-0.749 5.54,-2.965 5.4,-5.188 -0.8,1.001 -2.21,1.822 -4.53,2.219 l -63.965,10.939 c -8.473,1.45 -12.996,0.87 -14.875,-5.814 L 10.6248,26.812 c -0.7363,-2.092 0.026,-3.922 0.687,-4.781 z" style="fill:url(#linearGradient2370);fill-rule:evenodd;filter:url(#filter3210)"/><path id="path3630" d="M 113.42,89.888 77.893,20.802 15.943,26.116 40.845,101.73 113.42,89.888 Z" style="fill:url(#linearGradient2367);fill-rule:evenodd"/><path id="path3433" d="m 82.117,23.733 -62.343,2.375 c -0.473,0.016 -0.917,0.237 -1.188,0.625 -0.27,0.387 -0.335,0.895 -0.187,1.344 L 44.086,105.2 c 0.765,2.3 3.092,3.73 5.25,3.13 L 108.27,91.858 c 0.53,-0.159 0.92,-0.59 1.03,-1.125 l 4.5,-20.875 c 0.1,-0.423 0.01,-0.868 -0.25,-1.219 C 103.22,54.309 93.523,38.984 83.43,24.358 83.129,23.937 82.633,23.701 82.117,23.733 Z" style="opacity:.5;fill-rule:evenodd;filter:url(#filter3437)"/><path id="path3287" d="M 20.374,26.284 80.719,23.485 C 90.79,38.078 100.5,52.671 110.23,67.264 L 105.53,87.4 46.814,103.12 20.374,26.284 Z" style="fill:url(#linearGradient2363);fill-rule:evenodd"/><path id="path3312" d="m 22.656,26.562 57.502,-2.165 c 9.466,13.717 18.75,28.679 27.902,42.396 l -3.8,18.15 L 49.065,99.716 22.656,26.562 Z" style="fill:url(#linearGradient2360);fill-rule:evenodd"/><path id="path3557" d="m 25.068,33.201 58.418,-3.612 m -56.006,9.94 59.333,-5.06 M 29.737,45.857 89.986,39.35 M 32.148,52.652 93.313,44.697 m -56.185,21.7 62.992,-10.85 M 40.006,73.97 103.92,61.672 M 45.373,82.164 101.49,70.267 M 48.486,91.554 106.04,77.187 M 34.716,59.291 96.797,49.889" style="fill:none;stroke:#3769e6;stroke-width:.5"/><path id="path3398" d="m 109.44,65.539 -16.47,3.219 c -0.176,0.031 -0.332,0.119 -0.406,0.281 -0.075,0.162 -0.059,0.377 0.031,0.531 l 11.435,19.156 0.94,-0.531 4.69,-21.562 -0.22,-1.094 z" style="opacity:.25;fill-rule:evenodd;filter:url(#filter3425)"/><path id="path3598" d="m 30.875,28.125 -2.031,0.063 -0.063,0.031 26.938,68.062 1.906,-0.531 -26.75,-67.625 z" style="fill:url(#linearGradient2355);fill-rule:evenodd"/><path id="path3293" d="M 94.872,70.143 110.23,67.264 105.35,88.117 94.872,70.143 Z" style="fill:url(#linearGradient2352);fill-rule:evenodd"/><path id="path3375" d="m 81.188,22 -62.344,2.375 c -0.473,0.016 -0.917,0.238 -1.188,0.625 -0.27,0.387 -0.335,0.895 -0.187,1.344 l 25.687,77.126 c 0.765,2.3 3.092,3.73 5.25,3.12 L 107.34,90.125 c 0.53,-0.159 0.92,-0.59 1.04,-1.125 l 4.5,-20.875 c 0.09,-0.423 0,-0.868 -0.26,-1.219 C 102.29,52.576 92.594,37.251 82.5,22.625 82.199,22.204 81.703,21.968 81.188,22 Z m -0.469,1.5 c 10.07,14.593 19.801,29.157 29.531,43.75 l -4.72,20.156 -0.03,0 -0.16,0.719 L 105,87.531 46.812,103.12 20.375,26.281 80.719,23.5 Z" style="fill:url(#linearGradient8308);fill-rule:evenodd"/><path id="path3393" d="m 110.38,66 -16.474,3.219 c -0.175,0.031 -0.331,0.119 -0.406,0.281 -0.075,0.162 -0.059,0.377 0.031,0.531 L 104.97,89.188 105.91,88.656 94.875,70.125 110.59,67.094 110.38,66 Z" style="fill:url(#linearGradient2346);fill-rule:evenodd"/><path id="path3299" d="m 109.95,68.465 -13.044,2.504 8.964,14.965 4.08,-17.469 z" style="fill:url(#linearGradient2343);fill-rule:evenodd"/><path id="path3279" d="m 30.13,16.961 c 7.052,-8.4096 17.965,-9.9958 25.103,-5.547 1.557,0.959 13.561,8.62 9.665,15.783 -2.266,4.166 -8.884,4.801 -15.362,5.608 C 40.668,33.91 39.327,32.36 37.783,31.102 34.392,28.336 31.348,21.63 30.13,16.961 Z" style="opacity:.5;fill-rule:evenodd;filter:url(#filter3283)"/><path id="path3214" d="m 29.507,16.205 c 7.052,-8.4099 17.965,-9.996 25.104,-5.547 1.557,0.959 13.561,8.619 9.664,15.783 -2.266,4.166 -8.884,4.801 -15.361,5.608 -8.869,1.105 -10.21,-0.445 -11.753,-1.704 -3.392,-2.765 -6.436,-9.471 -7.654,-14.14 z" style="fill:url(#linearGradient2339);fill-rule:evenodd"/><path id="path3226" d="m 31.123,15.947 c 6.267,-7.4733 16.365,-8.5397 22.708,-4.586 1.384,0.852 11.546,8.034 8.588,14.025 -2.296,4.652 -20.155,6.693 -24.007,3.773 -4.57,-3.464 -6.207,-9.063 -7.289,-13.212 z" style="fill:url(#linearGradient2336);fill-rule:evenodd"/><path id="path3236" d="m 33.539,14.895 c 4.474,-4.712 12.393,-6.9233 20.007,-3.248 1.383,0.852 10.402,8.187 5.099,12.252 -3.382,2.594 -14.836,4.496 -18.357,2.449 -4.199,-2.441 -6.932,-7.661 -6.749,-11.453 z" style="fill:url(#linearGradient2333);fill-rule:evenodd"/><path id="path3248" d="m 34.938,13.594 c -0.285,0.234 -0.579,0.468 -0.844,0.718 -0.19,0.231 -0.372,0.455 -0.563,0.594 -0.034,0.711 0.027,1.467 0.188,2.25 0.215,1.045 0.602,2.129 1.125,3.188 0.392,0.794 0.863,1.575 1.406,2.312 0.905,1.227 1.997,2.322 3.25,3.188 0.007,0.005 0.024,-0.005 0.031,0 0.244,0.167 0.495,0.352 0.75,0.5 0.203,0.117 0.436,0.22 0.688,0.312 0.135,0.05 0.289,0.083 0.437,0.125 0.405,0.115 0.825,0.217 1.313,0.281 0.095,0.014 0.183,0.021 0.281,0.032 0.251,0.028 0.514,0.046 0.781,0.062 0.728,0.045 1.497,0.066 2.313,0.032 0.816,-0.035 1.677,-0.116 2.531,-0.219 -1.768,-0.277 -3.709,-0.268 -4.781,-0.657 -8.722,-4.056 -8.625,-9.863 -8.906,-12.718 z" style="fill:url(#radialGradient2330);fill-rule:evenodd"/><path id="path554" d="m 758.49,359.91 c 0,0 -130.56,89.47 -132.58,90.86 -1.69,-1.68 -41.78,-41.6 -41.78,-41.6 -2.98,-2.96 -6.89,-4.06 -10.47,-2.94 -3.89,1.23 -6.4,4.01 -7.08,7.81 l -0.42,2.36 c -0.13,0.77 -0.12,1.53 0.04,2.29 l 0.59,2.8 0.41,1.25 46.25,101.69 c 1.45,3.18 4.38,5.43 7.83,6 3.44,0.58 6.94,-0.6 9.35,-3.14 L 771.86,378 c 2.07,-2.17 3.26,-5.27 3.26,-8.49 l -0.13,-1.23 -0.57,-2.72 c -0.7,-3.33 -2.86,-5.81 -6.23,-7.16 -2.16,-0.87 -5.59,-1.31 -9.7,1.51 z" transform="matrix(0.31444,0,0,0.31444,-119.11,-89.925)" style="opacity:.5;filter:url(#filter6238)"/><path id="path561" d="m 118.93,22.804 c 0,0 -41.052,28.133 -41.687,28.569 C 76.712,50.843 64.106,38.294 64.106,38.294 63.17,37.36 61.94,37.014 60.815,37.368 c -1.223,0.388 -2.013,1.26 -2.226,2.456 l -0.132,0.743 c -0.043,0.24 -0.038,0.481 0.012,0.718 l 0.185,0.881 0.128,0.392 14.544,31.977 c 0.456,1.001 1.376,1.706 2.462,1.887 1.082,0.182 2.181,-0.188 2.94,-0.989 L 123.14,28.49 c 0.65,-0.682 1.02,-1.655 1.02,-2.667 l -0.04,-0.388 -0.18,-0.857 c -0.22,-1.047 -0.9,-1.825 -1.96,-2.25 -0.68,-0.272 -1.76,-0.41 -3.05,0.476 z" style="fill:url(#linearGradient3370);filter:url(#filter5261)"/><path id="path568" d="m 529.01,249.9 c 0,0 -51.71,35.44 -52.18,35.76 -1.95,-1.94 -17.29,-17.22 -17.29,-17.22 -0.45,-0.45 -1.08,-0.76 -1.69,-0.56 -0.61,0.19 -1.03,0.56 -1.14,1.19 l -0.16,0.9 0.23,1.07 c 0,0.01 17.65,38.83 17.65,38.83 0.24,0.52 0.72,0.88 1.28,0.98 0.57,0.09 1.14,-0.1 1.53,-0.52 l 53.92,-56.99 c 0.39,-0.41 0.62,-1.02 0.62,-1.67 l -0.22,-1.04 c -0.12,-0.56 -0.46,-0.86 -0.99,-1.07 -0.53,-0.22 -1.08,0.01 -1.56,0.34 z" transform="matrix(0.82363,0,0,0.82363,-315.72,-181.46)" style="fill:url(#linearGradient3947)"/><path id="path575" d="m 477.57,287.23 c -0.55,0.38 -1.28,0.31 -1.74,-0.15 0,0 -17.15,-17.08 -17.5,-17.43 -0.04,0.1 -0.06,0.21 -0.06,0.32 0,0.13 0.02,0.26 0.07,0.37 0,0 17.6,38.69 17.66,38.81 0.33,-0.35 53.91,-56.99 53.91,-56.99 0.09,-0.1 0.15,-0.29 0.15,-0.49 0,-0.12 -0.03,-0.24 -0.08,-0.35 -0.39,0.26 -52.41,35.91 -52.41,35.91 z" transform="matrix(0.82363,0,0,0.82363,-315.72,-181.46)" style="fill:url(#linearGradient3949);filter:url(#filter3315)"/><path id="path582" d="m 78.264,56.045 0,10e-4 c -0.896,0.612 -2.104,0.502 -2.872,-0.263 0,0 -6.305,-6.278 -10.466,-10.421 3.329,7.321 9.646,21.209 11.737,25.805 1.911,-2.019 29.507,-31.185 37.727,-39.878 -9.87,6.761 -36.126,24.756 -36.126,24.756 z" style="fill:url(#radialGradient3365)"/><path id="path3927" d="m 78.264,56.045 0,10e-4 c -0.896,0.612 -2.104,0.502 -2.872,-0.263 0,0 -6.305,-6.278 -10.466,-10.421 3.329,7.321 9.646,21.209 11.737,25.805 1.911,-2.019 29.507,-31.185 37.727,-39.878 -9.87,6.761 -36.126,24.756 -36.126,24.756 z" style="fill:url(#radialGradient3362)"/></g></svg>