<svg xmlns="http://www.w3.org/2000/svg" xmlns:svg="http://www.w3.org/2000/svg" id="svg8" width="22" height="22" version="1.1" viewBox="0 0 5.821 5.821"><metadata id="metadata5"/><g id="layer1" transform="translate(0,-291.17915)"><g id="g1503"><rect id="rect1427" width="5.821" height="5.821" x="0" y="291.179" style="opacity:0;fill:#ececec;fill-opacity:1;stroke:none;stroke-width:1.32122481;stroke-linecap:square;stroke-linejoin:bevel;stroke-miterlimit:4;stroke-dasharray:none;stroke-dashoffset:0;stroke-opacity:1"/><path id="path1425" d="m 4.5854911,295.48846 -0.2761771,0.27618 q -0.054036,0.054 -0.1320847,0.054 -0.07805,0 -0.1380887,-0.054 l -1.1287245,-1.13472 -1.1287239,1.13472 q -0.060039,0.054 -0.1380889,0.054 -0.07805,0 -0.1320846,-0.054 l -0.2761774,-0.27618 q -0.054035,-0.0539 -0.054035,-0.13208 0,-0.0781 0.054035,-0.13808 l 1.1347283,-1.12873 -1.1347283,-1.12874 q -0.054035,-0.06 -0.054035,-0.13808 0,-0.0781 0.054035,-0.13208 l 0.2761774,-0.27618 q 0.054035,-0.054 0.1320846,-0.054 0.07805,0 0.1380889,0.054 l 1.1287239,1.12872 1.1287245,-1.12872 q 0.060038,-0.054 0.1380887,-0.054 0.07805,0 0.1320847,0.054 l 0.2761771,0.27618 q 0.054036,0.0539 0.054036,0.13208 0,0.0781 -0.054036,0.13808 l -1.128724,1.12874 1.128724,1.12873 q 0.054036,0.06 0.054036,0.13808 0,0.0781 -0.054036,0.13208 z" style="fill:#ff3019;stroke-width:.00600386;fill-opacity:1"/></g></g></svg>