<svg xmlns="http://www.w3.org/2000/svg" xmlns:svg="http://www.w3.org/2000/svg" id="svg8" width="22" height="22" version="1.1" viewBox="0 0 5.821 5.821"><metadata id="metadata5"/><g id="layer1" transform="translate(0,-291.17915)"><g id="g2057"><rect id="rect1427" width="5.821" height="5.821" x="0" y="291.179" style="opacity:0;fill:#ececec;fill-opacity:1;stroke:none;stroke-width:1.32122481;stroke-linecap:square;stroke-linejoin:bevel;stroke-miterlimit:4;stroke-dasharray:none;stroke-dashoffset:0;stroke-opacity:1"/><path style="fill:#33a10b;stroke-width:.00273792;fill-opacity:1" id="path1395" d="m 5.032303,293.09843 q 0,0.10956 -0.076659,0.18619 l -1.9822566,1.98225 -0.372356,0.37236 q -0.076659,0.0767 -0.1861791,0.0767 -0.1095158,0 -0.1861792,-0.0767 l -0.3723568,-0.37236 -0.99112712,-0.99112 q -0.0766588,-0.0767 -0.0766588,-0.18619 0,-0.10956 0.0766588,-0.18618 l 0.37235592,-0.37236 q 0.076659,-0.0767 0.1861792,-0.0767 0.1095158,0 0.1861791,0.0767 l 0.8049492,0.8077 1.7960762,-1.79882 q 0.076659,-0.0767 0.1861792,-0.0767 0.1095158,0 0.186178,0.0767 l 0.3723583,0.37236 q 0.076659,0.0767 0.076659,0.18617 z"/></g></g></svg>