<svg xmlns="http://www.w3.org/2000/svg" xmlns:xlink="http://www.w3.org/1999/xlink" id="svg2" width="128" height="128" version="1.0" viewBox="0 0 128 128"><defs id="defs5"><linearGradient id="linearGradient3567"><stop id="stop3569" offset="0" stop-color="#c2c2ff"/><stop id="stop3571" offset="1" stop-color="#fff"/></linearGradient><linearGradient id="linearGradient3557"><stop id="stop3559" offset="0" stop-color="#9595ff"/><stop id="stop3561" offset="1" stop-color="#fff"/></linearGradient><radialGradient id="radialGradient3170" cx="31.762" cy="87.431" r="9.393" gradientTransform="matrix(-1.3027 .15548 -.12894 -1.0949 86.022 168.1)" gradientUnits="userSpaceOnUse"><stop id="stop3166" offset="0" stop-color="#fff"/><stop id="stop3168" offset="1" stop-color="#68f71a"/></radialGradient><linearGradient id="linearGradient3222" x1="62.925" x2="83.218" y1="19.484" y2="93.321" gradientTransform="translate(-40)" gradientUnits="userSpaceOnUse"><stop id="stop3218" offset="0" stop-color="#0f0"/><stop id="stop3220" offset="1" stop-color="#093"/></linearGradient><linearGradient id="linearGradient3336" x1="115.49" x2="84.519" y1="97.133" y2="11.001" gradientTransform="translate(-60)" gradientUnits="userSpaceOnUse"><stop id="stop3332" offset="0" stop-color="#005c00"/><stop id="stop3334" offset="1" stop-color="#003232"/></linearGradient><linearGradient id="linearGradient3433" x1="98.482" x2="78.142" y1="101.53" y2="22.849" gradientTransform="translate(-60)" gradientUnits="userSpaceOnUse"><stop id="stop3437" offset="0" stop-color="#00932d"/><stop id="stop3439" offset=".341" stop-color="#0f0"/><stop id="stop3441" offset="1" stop-color="#fff"/></linearGradient><mask id="mask3670"><g id="g3672"><path id="path3674" fill="#fff" d="m122.02 77.981c0 16.697-28.543 30.229-63.757 30.229-35.213 0-63.76-13.532-63.76-30.229 0.0005-16.696 28.547-30.23 63.76-30.23 35.214 0 63.757 13.534 63.757 30.23z" transform="matrix(.89099 0 0 1.0286 6.1678 -4.6146)"/><path id="path3676" d="m122.02 77.981c0 16.697-28.543 30.229-63.757 30.229-35.213 0-63.76-13.532-63.76-30.229 0.0005-16.696 28.547-30.23 63.76-30.23 35.214 0 63.757 13.534 63.757 30.23z" transform="matrix(.37565 0 0 .43196 36.193 41.915)"/></g></mask><linearGradient id="linearGradient3823" x1="22.981" x2="62.676" y1="51.887" y2="117.12" gradientUnits="userSpaceOnUse"><stop id="stop3718" offset="0" stop-color="#6307ef"/><stop id="stop3720" offset="1" stop-color="#1a0279"/></linearGradient><radialGradient id="radialGradient3825" cx="58.263" cy="77.981" r="65.706" gradientTransform="matrix(.97105 -4.53e-8 2.9806e-8 .50855 1.6869 38.324)" gradientUnits="userSpaceOnUse"><stop id="stop3708" offset="0" stop-color="#206"/><stop id="stop3710" offset="1" stop-color="#3300c2"/></radialGradient><radialGradient id="radialGradient3827" cx="58.674" cy="134.59" r="63.76" gradientTransform="matrix(2.6699 -.19521 .087034 .98775 -110.1 -23.35)" gradientUnits="userSpaceOnUse"><stop id="stop3696" offset="0" stop-color="#fff"/><stop id="stop3704" offset=".386" stop-color="#fff"/><stop id="stop3698" offset="1"/></radialGradient><linearGradient id="linearGradient3829" x1="95.88" x2="129.04" y1="57.186" y2="55.171" gradientTransform="translate(-62.111 -1.2825)" gradientUnits="userSpaceOnUse"><stop id="stop3647" offset="0" stop-color="#e6d1f9"/><stop id="stop3649" offset="1" stop-color="#ccf"/></linearGradient><linearGradient id="linearGradient3831" x1="127.76" x2="135.95" y1="46.295" y2="70.415" gradientTransform="translate(-60)" gradientUnits="userSpaceOnUse" xlink:href="#linearGradient3557"/><linearGradient id="linearGradient3833" x1="129.06" x2="160.24" y1="2.202" y2="1.356" gradientTransform="translate(-19.568 20.33)" gradientUnits="userSpaceOnUse"><stop id="stop3623" offset="0" stop-color="#f1ecff"/><stop id="stop3625" offset="1" stop-color="#dcf"/></linearGradient><linearGradient id="linearGradient3835" x1="92.459" x2="86.794" y1="96.31" y2="70.659" gradientUnits="userSpaceOnUse" xlink:href="#linearGradient3567"/><linearGradient id="linearGradient3837" x1="91.822" x2="97.781" y1="84.081" y2="107.92" gradientTransform="translate(-40)" gradientUnits="userSpaceOnUse"><stop id="stop3633" offset="0" stop-color="#fff"/><stop id="stop3635" offset="1" stop-color="#ddf"/></linearGradient><linearGradient id="linearGradient3839" x1="130.09" x2="136.69" y1="24.576" y2="68.766" gradientTransform="matrix(-.99934 -.036401 .036401 -.99934 174.06 156.97)" gradientUnits="userSpaceOnUse" xlink:href="#linearGradient3557"/><linearGradient id="linearGradient3841" x1="95.589" x2="86.427" y1="101.7" y2="73.041" gradientTransform="matrix(-.99934 -.036401 .036401 -.99934 114.1 154.79)" gradientUnits="userSpaceOnUse" xlink:href="#linearGradient3567"/><linearGradient id="linearGradient3843" x1="101.41" x2="131.72" y1="79.547" y2="127.61" gradientTransform="translate(-40.162 -.12955)" gradientUnits="userSpaceOnUse"><stop id="stop3613" offset="0" stop-color="#fff"/><stop id="stop3615" offset="1" stop-color="#ddf"/></linearGradient><radialGradient id="radialGradient4394" cx="58.263" cy="77.981" r="63.76" gradientTransform="matrix(-1.0115 -4.1227e-8 2.2899e-8 -.54598 116.46 120.57)" gradientUnits="userSpaceOnUse"><stop id="stop4398" offset="0"/><stop id="stop4400" offset=".937"/><stop id="stop4402" offset="1" stop-opacity="0"/></radialGradient></defs><g id="layer4"><g id="g3740" transform="translate(4.3972 -129.72)"><path id="path3847" fill="url(#radialGradient4394)" d="m122.02 77.995c0 19.225-28.871 34.815-64.49 34.815-35.618 0-64.492-15.59-64.492-34.815-0.0003-19.226 28.874-34.812 64.492-34.812 35.619 0 64.49 15.586 64.49 34.812z" opacity=".75"/><path id="path3502" fill="url(#linearGradient3823)" d="m122.02 77.981c0 16.697-28.543 30.229-63.757 30.229-35.213 0-63.76-13.532-63.76-30.229 0.0005-16.696 28.547-30.23 63.76-30.23 35.214 0 63.757 13.534 63.757 30.23z" transform="matrix(.99713 0 0 1.1515 -.015795 -14.197)"/><path id="path3504" fill="#fff" d="m122.02 77.981c0 16.697-28.543 30.229-63.757 30.229-35.213 0-63.76-13.532-63.76-30.229 0.0005-16.696 28.547-30.23 63.76-30.23 35.214 0 63.757 13.534 63.757 30.23z" transform="matrix(.93431 0 0 1.0788 3.6439 -8.5258)"/><path id="path3512" fill="#cfcfdc" d="m122.02 77.981c0 16.697-28.543 30.229-63.757 30.229-35.213 0-63.76-13.532-63.76-30.229 0.0005-16.696 28.547-30.23 63.76-30.23 35.214 0 63.757 13.534 63.757 30.23z" transform="matrix(.29807 0 0 .34213 40.714 48.92)"/><path id="path3510" fill="#fff" d="m122.02 77.981c0 16.697-28.543 30.229-63.757 30.229-35.213 0-63.76-13.532-63.76-30.229 0.0005-16.696 28.547-30.23 63.76-30.23 35.214 0 63.757 13.534 63.757 30.23z" transform="matrix(.17531 0 0 0.2 47.866 60.003)"/><path id="path3508" fill="url(#radialGradient3825)" d="m122.02 77.981c0 16.697-28.543 30.229-63.757 30.229-35.213 0-63.76-13.532-63.76-30.229 0.0005-16.696 28.547-30.23 63.76-30.23 35.214 0 63.757 13.534 63.757 30.23z" transform="matrix(.096798 0 0 .10909 52.44 67.093)"/><path id="path3506" fill="url(#radialGradient3827)" d="m122.02 77.981c0 16.697-28.543 30.229-63.757 30.229-35.213 0-63.76-13.532-63.76-30.229 0.0005-16.696 28.547-30.23 63.76-30.23 35.214 0 63.757 13.534 63.757 30.23z" transform="matrix(.049687 0 0 .054545 55.185 71.346)"/><g id="g3660" mask="url(#mask3670)"><path id="rect3643" fill="url(#linearGradient3829)" fill-rule="evenodd" d="m-3.7906 45.735l89.411-9.71-18.505 36.094-21.803 3.114-49.103-29.498z"/><path id="path3547" fill="url(#linearGradient3831)" fill-rule="evenodd" d="m70.348 34.202l-11.012 34.851 11.198 5.576 50.856-17.755"/><path id="rect3619" fill="url(#linearGradient3833)" fill-rule="evenodd" d="m99.625 17.684l47.875-6.654-2.86 23.056-46.036-3.163 1.021-13.239z" transform="matrix(.78991 .61322 -.61696 0.787 0 0)"/><path id="path3565" fill="url(#linearGradient3835)" fill-rule="evenodd" d="m129.63 52.44l-59.757 21.692 2.483 8.2 41.394 21.568 21.28-7.197"/><path id="rect3629" fill="url(#linearGradient3837)" fill-rule="evenodd" d="m50.707 81.07l10.965-1.466 20.521 37.076-40.647-0.18 9.161-35.43z"/><path id="path3585" fill="url(#linearGradient3839)" fill-rule="evenodd" d="m45.047 118.05l12.273-34.428-10.987-5.98-51.472 15.891"/><path id="path3587" fill="url(#linearGradient3841)" fill-rule="evenodd" d="m-13.529 97.665l60.504-19.503-2.183-8.285-40.58-23.063-21.529 6.42"/><path id="path3609" fill="url(#linearGradient3843)" fill-rule="evenodd" d="m72.777 115.04l-11.53-31.995 2.721-0.907 27.595 28.242"/></g></g><use id="use3845" width="128" height="128" x="0" y="0" transform="matrix(.87676 -.48094 .48094 .87676 35.8 154.97)" xlink:href="#g3740"/></g><g id="layer1"><path id="path3300" fill="url(#linearGradient3336)" fill-rule="evenodd" d="m22.761 12.211l20.714 57.907c-9.696-1.376-17.468-0.856-24.936 7.048-11.151 11.803-3.399 26.954 14.279 26.954 11.366 0 24.296-9.79 24.555-18.14 0.16-5.061-15.874-48.776-15.874-48.776 7.487 1.699 20.26 3.873 24.629 15.617 0.829 2.227 3.75 1.634 3.811-0.111 0.454-12.848-7.87-19.893-17.52-25.289-10.108-5.651-19.523-10.62-24.364-17.353-0.425-0.5922-2.442-1.5757-3.759-1.1651-1.316 0.4107-1.822 2.5061-1.535 3.3081z"/><path id="path3204" fill="url(#linearGradient3222)" fill-rule="evenodd" d="m28.024 20.438l19.597 53.696c-6.846-2.801-19.321-3.751-27.009 3.939-10.115 10.119-4.306 23.457 11.818 23.457 12.919 0 22.352-9.532 22.352-16.586 0-6.23-17.818-52.08-17.818-52.08 16.918 5.34 24.642 7.319 30.643 18.551 1.522-17.661-26.235-25.131-36.594-34.907-0.777-0.733-5.868-5.694-6.108-5.622-1.137 0.435 0.157 1.436 3.119 9.552z"/><path id="path3192" fill="url(#linearGradient3433)" fill-rule="evenodd" d="m28.345 18.481l20.246 56.569c-6.846-2.801-19.65-4.118-27.338 3.573-10.115 10.118-3.848 22.257 11.36 22.257 11.833 0 21.564-8.98 21.253-16.028-0.275-6.229-18.917-54.187-18.917-54.187 8.032 3.783 21.745 5.211 31.585 16.087-6.324-16.13-26.954-19.998-36.309-29.5-0.749-0.761-3.319-3.315-4.124-4.015 0.232 1.308 1.987 4.527 2.244 5.244z"/><path id="path2384" fill="url(#radialGradient3170)" d="m41.457 81.004c0.001 2.558-4.204 4.632-9.392 4.632s-9.394-2.074-9.393-4.632c-0.001-2.558 4.205-4.632 9.393-4.632s9.393 2.074 9.392 4.632z" transform="matrix(1.0585 -0.375 .37443 1.06 -33.751 6.3925)"/></g></svg>