<svg xmlns="http://www.w3.org/2000/svg" xmlns:svg="http://www.w3.org/2000/svg" xmlns:xlink="http://www.w3.org/1999/xlink" id="svg7613" width="124" height="124" version="1.1" viewBox="0 0 128 128"><defs id="defs7615"><radialGradient id="radialGradient7559" cx="55.218" cy="458.465" r="15.213" fx="55.218" fy="458.465" gradientTransform="matrix(0.55758631,0,0,0.57073983,33.783815,180.81737)" gradientUnits="userSpaceOnUse" xlink:href="#linearGradient4799"/><linearGradient id="linearGradient4799"><stop id="stop4801" offset="0" style="stop-color:#ffde00;stop-opacity:1"/><stop id="stop4803" offset="1" style="stop-color:#ffa700;stop-opacity:1"/></linearGradient><radialGradient id="radialGradient7557" cx="55.218" cy="458.465" r="15.213" fx="55.218" fy="458.465" gradientTransform="matrix(0.55758631,0,0,0.57073983,104.95785,180.81737)" gradientUnits="userSpaceOnUse" xlink:href="#linearGradient4799-9"/><linearGradient id="linearGradient4799-9"><stop id="stop4801-0" offset="0" style="stop-color:#ffde00;stop-opacity:1"/><stop id="stop4803-9" offset="1" style="stop-color:#ffa700;stop-opacity:1"/></linearGradient><linearGradient id="linearGradient4799-6"><stop id="stop4801-8" offset="0" style="stop-color:#ffde00;stop-opacity:1"/><stop id="stop4803-96" offset="1" style="stop-color:#ffa700;stop-opacity:1"/></linearGradient><linearGradient id="linearGradient4799-2"><stop id="stop4801-4" offset="0" style="stop-color:#ffde00;stop-opacity:1"/><stop id="stop4803-8" offset="1" style="stop-color:#ffa700;stop-opacity:1"/></linearGradient><radialGradient id="radialGradient7509" cx="55.218" cy="458.465" r="15.213" fx="55.218" fy="458.465" gradientTransform="matrix(0.55758631,0,0,0.57073983,318.01246,180.81737)" gradientUnits="userSpaceOnUse" xlink:href="#linearGradient4799-1"/><linearGradient id="linearGradient4799-1"><stop id="stop4801-49" offset="0" style="stop-color:#ffde00;stop-opacity:1"/><stop id="stop4803-98" offset="1" style="stop-color:#ffa700;stop-opacity:1"/></linearGradient><radialGradient id="radialGradient7521" cx="6.408" cy="17.404" r="5.524" fx="6.408" fy="17.404" gradientTransform="matrix(1,0,0,0.416,0,10.16382)" gradientUnits="userSpaceOnUse" xlink:href="#linearGradient3609"/><linearGradient id="linearGradient3609"><stop id="stop3611" offset="0" style="stop-color:#000;stop-opacity:1"/><stop id="stop3613" offset="1" style="stop-color:#000;stop-opacity:0"/></linearGradient><linearGradient id="linearGradient7523" x1="7.576" x2="7.322" y1="20.302" y2="27.345" gradientUnits="userSpaceOnUse" xlink:href="#linearGradient4068"/><linearGradient id="linearGradient4068"><stop id="stop4070" offset="0" style="stop-color:#eaeae9;stop-opacity:1"/><stop id="stop4072" offset="1" style="stop-color:#a5a7a2;stop-opacity:1"/></linearGradient><linearGradient id="linearGradient7525" x1="7.576" x2="7.322" y1="20.302" y2="27.345" gradientUnits="userSpaceOnUse" xlink:href="#linearGradient4068"/><linearGradient id="linearGradient8239"><stop id="stop8241" offset="0" style="stop-color:#eaeae9;stop-opacity:1"/><stop id="stop8243" offset="1" style="stop-color:#a5a7a2;stop-opacity:1"/></linearGradient><linearGradient id="linearGradient7527" x1="4.683" x2="8.371" y1="24.665" y2="24.317" gradientUnits="userSpaceOnUse" xlink:href="#linearGradient3281"/><linearGradient id="linearGradient3281"><stop id="stop3283" offset="0" style="stop-color:#fff;stop-opacity:1"/><stop id="stop3285" offset="1" style="stop-color:#fff;stop-opacity:0"/></linearGradient><linearGradient id="linearGradient7529" x1="56.303" x2="56.609" y1="4.937" y2="8.68" gradientTransform="matrix(1.769913,0,0,1.769913,-88.34438,10.67235)" gradientUnits="userSpaceOnUse" xlink:href="#linearGradient4608"/><linearGradient id="linearGradient4608"><stop id="stop4610" offset="0" style="stop-color:#eeeeec"/><stop id="stop4612" offset="1" style="stop-color:#8a8c87;stop-opacity:1"/></linearGradient><linearGradient id="linearGradient7531" x1="11.126" x2="9.347" y1="25.56" y2="25.737" gradientTransform="matrix(1.296181,0,0,1.296181,-4.978245,-7.324566)" gradientUnits="userSpaceOnUse" xlink:href="#linearGradient4099"/><linearGradient id="linearGradient4099"><stop id="stop4101" offset="0" style="stop-color:#6f726f;stop-opacity:1"/><stop id="stop4103" offset="1" style="stop-color:#6f726f;stop-opacity:0"/></linearGradient><linearGradient id="linearGradient7533" x1="9.486" x2="7.378" y1="22.108" y2="22.638" gradientUnits="userSpaceOnUse" xlink:href="#linearGradient3510"/><linearGradient id="linearGradient3510"><stop id="stop3512" offset="0" style="stop-color:#fff;stop-opacity:1"/><stop id="stop3514" offset="1" style="stop-color:#fff;stop-opacity:0"/></linearGradient><radialGradient id="radialGradient7535" cx="5.082" cy="12.516" r="2.983" fx="5.082" fy="12.516" gradientTransform="matrix(1.525791,0,-1.480441e-8,1.768964,-0.08162983,6.066255)" gradientUnits="userSpaceOnUse" xlink:href="#linearGradient3674"/><linearGradient id="linearGradient3674"><stop id="stop3676" offset="0" style="stop-color:#fff;stop-opacity:0"/><stop id="stop3678" offset="1" style="stop-color:#fff;stop-opacity:1"/></linearGradient><radialGradient id="radialGradient7537" cx="-1.002" cy=".99" r="9.921" fx="-1.002" fy=".99" gradientTransform="matrix(-0.127582,1.416065,-1.630141,-0.146854,17.48751,15.56121)" gradientUnits="userSpaceOnUse" xlink:href="#linearGradient3676"/><linearGradient id="linearGradient3676"><stop id="stop4022" offset="0" style="stop-color:#eeeeec"/><stop id="stop3680" offset="1" style="stop-color:#555753"/></linearGradient><linearGradient id="linearGradient7539" x1="17.063" x2="20.313" y1="34.95" y2="5.375" gradientUnits="userSpaceOnUse" xlink:href="#linearGradient1557"/><linearGradient id="linearGradient1557"><stop id="stop1559" offset="0" style="stop-color:#2e3436;stop-opacity:1"/><stop id="stop1561" offset="1" style="stop-color:#888a85"/></linearGradient><radialGradient id="radialGradient7541" cx="-1.002" cy=".99" r="9.921" fx="-1.002" fy=".99" gradientTransform="matrix(-0.310032,2.110862,-2.082775,-0.305867,17.75288,16.41459)" gradientUnits="userSpaceOnUse" xlink:href="#linearGradient3730"/><linearGradient id="linearGradient3730"><stop id="stop3732" offset="0" style="stop-color:#eeeeec"/><stop id="stop3734" offset="1" style="stop-color:#888a85"/></linearGradient><radialGradient id="radialGradient7543" cx="12.705" cy="13.847" r="9.375" fx="12.705" fy="13.847" gradientTransform="matrix(0.06370852,-1.424475,1.547293,0.0692112,-9.530629,30.98681)" gradientUnits="userSpaceOnUse" xlink:href="#linearGradient3628"/><linearGradient id="linearGradient3628"><stop id="stop3630" offset="0" style="stop-color:#d3d7cf"/><stop id="stop3632" offset="1" style="stop-color:#555753"/></linearGradient><linearGradient id="linearGradient7545" x1="-.52" x2="-.52" y1="-.52" y2="19.27" gradientUnits="userSpaceOnUse" xlink:href="#linearGradient3692"/><linearGradient id="linearGradient3692"><stop id="stop3694" offset="0" style="stop-color:#2e3436;stop-opacity:1"/><stop id="stop3696" offset="1" style="stop-color:#babdb6"/></linearGradient><radialGradient id="radialGradient7547" cx="6.88" cy="7.199" r="9.375" fx="6.88" fy="7.199" gradientTransform="matrix(1.240749,0,0,1.157631,-1.713645,-1.134736)" gradientUnits="userSpaceOnUse" xlink:href="#linearGradient3670"/><linearGradient id="linearGradient3670"><stop id="stop3672" offset="0" style="stop-color:#d3d7cf"/><stop id="stop3674" offset="1" style="stop-color:#555753"/></linearGradient><radialGradient id="radialGradient7549" cx="36.828" cy="24.428" r="1.24" fx="36.828" fy="24.428" gradientTransform="matrix(13.39869,-4.118282e-6,6.831725e-6,22.22678,-456.6246,-518.5208)" gradientUnits="userSpaceOnUse" xlink:href="#linearGradient3498"/><linearGradient id="linearGradient3498"><stop id="stop3500" offset="0" style="stop-color:#3465a4;stop-opacity:1"/><stop id="stop3502" offset="1" style="stop-color:#3465a4;stop-opacity:0"/></linearGradient><radialGradient id="radialGradient7551" cx="36.828" cy="24.428" r="1.24" fx="36.828" fy="24.428" gradientTransform="matrix(13.39869,-4.118282e-6,6.831725e-6,22.22678,-456.6246,-518.5208)" gradientUnits="userSpaceOnUse" xlink:href="#linearGradient3498"/><linearGradient id="linearGradient8294"><stop id="stop8296" offset="0" style="stop-color:#3465a4;stop-opacity:1"/><stop id="stop8298" offset="1" style="stop-color:#3465a4;stop-opacity:0"/></linearGradient><radialGradient id="radialGradient7553" cx="36.828" cy="24.428" r="1.24" fx="36.828" fy="24.428" gradientTransform="matrix(21.09444,0,0,22.22672,-740.0468,-518.5196)" gradientUnits="userSpaceOnUse" xlink:href="#linearGradient3498"/><linearGradient id="linearGradient8301"><stop id="stop8303" offset="0" style="stop-color:#3465a4;stop-opacity:1"/><stop id="stop8305" offset="1" style="stop-color:#3465a4;stop-opacity:0"/></linearGradient><radialGradient id="radialGradient7555" cx="55.218" cy="458.465" r="15.213" fx="55.218" fy="458.465" gradientTransform="matrix(0.55758631,0,0,0.57073983,388.7386,180.81737)" gradientUnits="userSpaceOnUse" xlink:href="#linearGradient4799-0"/><linearGradient id="linearGradient4799-0"><stop id="stop4801-3" offset="0" style="stop-color:#ffde00;stop-opacity:1"/><stop id="stop4803-97" offset="1" style="stop-color:#ffa700;stop-opacity:1"/></linearGradient><radialGradient id="radialGradient8338" cx="55.218" cy="458.465" r="15.213" fx="55.218" fy="458.465" gradientTransform="matrix(0.55758631,0,0,0.57073983,388.7386,180.81737)" gradientUnits="userSpaceOnUse" xlink:href="#linearGradient4799-0"/><radialGradient id="radialGradient7521-153" cx="6.408" cy="17.404" r="5.524" fx="6.408" fy="17.404" gradientTransform="matrix(1,0,0,0.416,0,10.16382)" gradientUnits="userSpaceOnUse" xlink:href="#linearGradient3609-121"/><linearGradient id="linearGradient3609-121"><stop id="stop1022" offset="0" style="stop-color:#000;stop-opacity:1;opacity:1"/><stop id="stop1024" offset="1" style="stop-color:#000;stop-opacity:0;opacity:1"/></linearGradient><linearGradient id="linearGradient7523-574" x1="7.576" x2="7.322" y1="20.302" y2="27.345" gradientUnits="userSpaceOnUse" xlink:href="#linearGradient4068-64"/><linearGradient id="linearGradient4068-64"><stop id="stop1028" offset="0" style="stop-color:#e9e9e9;stop-opacity:1;opacity:1"/><stop id="stop1030" offset="1" style="stop-color:#a4a4a4;stop-opacity:1;opacity:1"/></linearGradient><linearGradient id="linearGradient7525-597" x1="7.576" x2="7.322" y1="20.302" y2="27.345" gradientUnits="userSpaceOnUse" xlink:href="#linearGradient4068-832"/><linearGradient id="linearGradient4068-832"><stop id="stop1034" offset="0" style="stop-color:#e9e9e9;stop-opacity:1;opacity:1"/><stop id="stop1036" offset="1" style="stop-color:#a4a4a4;stop-opacity:1;opacity:1"/></linearGradient><linearGradient id="linearGradient7527-294" x1="4.683" x2="8.371" y1="24.665" y2="24.317" gradientUnits="userSpaceOnUse" xlink:href="#linearGradient3281-217"/><linearGradient id="linearGradient3281-217"><stop id="stop1040" offset="0" style="stop-color:#fff;stop-opacity:1;opacity:1"/><stop id="stop1042" offset="1" style="stop-color:#fff;stop-opacity:0;opacity:1"/></linearGradient><linearGradient id="linearGradient7529-260" x1="56.303" x2="56.609" y1="4.937" y2="8.68" gradientTransform="matrix(1.769913,0,0,1.769913,-88.34438,10.67235)" gradientUnits="userSpaceOnUse" xlink:href="#linearGradient4608-180"/><linearGradient id="linearGradient4608-180"><stop id="stop1046" offset="0" style="stop-color:#ededed;opacity:1"/><stop id="stop1048" offset="1" style="stop-color:#898989;stop-opacity:1;opacity:1"/></linearGradient><linearGradient id="linearGradient7531-876" x1="11.126" x2="9.347" y1="25.56" y2="25.737" gradientTransform="matrix(1.296181,0,0,1.296181,-4.978245,-7.324566)" gradientUnits="userSpaceOnUse" xlink:href="#linearGradient4099-642"/><linearGradient id="linearGradient4099-642"><stop id="stop1052" offset="0" style="stop-color:#707070;stop-opacity:1;opacity:1"/><stop id="stop1054" offset="1" style="stop-color:#707070;stop-opacity:0;opacity:1"/></linearGradient><linearGradient id="linearGradient7533-523" x1="9.486" x2="7.378" y1="22.108" y2="22.638" gradientUnits="userSpaceOnUse" xlink:href="#linearGradient3510-232"/><linearGradient id="linearGradient3510-232"><stop id="stop1058" offset="0" style="stop-color:#fff;stop-opacity:1;opacity:1"/><stop id="stop1060" offset="1" style="stop-color:#fff;stop-opacity:0;opacity:1"/></linearGradient><radialGradient id="radialGradient7535-426" cx="5.082" cy="12.516" r="2.983" fx="5.082" fy="12.516" gradientTransform="matrix(1.525791,0,-1.480441e-8,1.768964,-0.08162983,6.066255)" gradientUnits="userSpaceOnUse" xlink:href="#linearGradient3674-141"/><linearGradient id="linearGradient3674-141"><stop id="stop1064" offset="0" style="stop-color:#fff;stop-opacity:0;opacity:1"/><stop id="stop1066" offset="1" style="stop-color:#fff;stop-opacity:1;opacity:1"/></linearGradient><radialGradient id="radialGradient7537-772" cx="-1.002" cy=".99" r="9.921" fx="-1.002" fy=".99" gradientTransform="matrix(-0.127582,1.416065,-1.630141,-0.146854,17.48751,15.56121)" gradientUnits="userSpaceOnUse" xlink:href="#linearGradient3676-665"/><linearGradient id="linearGradient3676-665"><stop id="stop1070" offset="0" style="stop-color:#ededed;opacity:1"/><stop id="stop1072" offset="1" style="stop-color:#555;opacity:1"/></linearGradient><linearGradient id="linearGradient7539-579" x1="17.063" x2="20.313" y1="34.95" y2="5.375" gradientUnits="userSpaceOnUse" xlink:href="#linearGradient1557-274"/><linearGradient id="linearGradient1557-274"><stop id="stop1076" offset="0" style="stop-color:#323232;stop-opacity:1;opacity:1"/><stop id="stop1078" offset="1" style="stop-color:#878787;opacity:1"/></linearGradient><radialGradient id="radialGradient7541-857" cx="-1.002" cy=".99" r="9.921" fx="-1.002" fy=".99" gradientTransform="matrix(-0.310032,2.110862,-2.082775,-0.305867,17.75288,16.41459)" gradientUnits="userSpaceOnUse" xlink:href="#linearGradient3730-269"/><linearGradient id="linearGradient3730-269"><stop id="stop1082" offset="0" style="stop-color:#ededed;opacity:1"/><stop id="stop1084" offset="1" style="stop-color:#878787;opacity:1"/></linearGradient><radialGradient id="radialGradient7543-713" cx="12.705" cy="13.847" r="9.375" fx="12.705" fy="13.847" gradientTransform="matrix(0.06370852,-1.424475,1.547293,0.0692112,-9.530629,30.98681)" gradientUnits="userSpaceOnUse" xlink:href="#linearGradient3628-885"/><linearGradient id="linearGradient3628-885"><stop id="stop1088" offset="0" style="stop-color:#d3d3d3;opacity:1"/><stop id="stop1090" offset="1" style="stop-color:#555;opacity:1"/></linearGradient><linearGradient id="linearGradient7545-109" x1="-.52" x2="-.52" y1="-.52" y2="19.27" gradientUnits="userSpaceOnUse" xlink:href="#linearGradient3692-403"/><linearGradient id="linearGradient3692-403"><stop id="stop1094" offset="0" style="stop-color:#323232;stop-opacity:1;opacity:1"/><stop id="stop1096" offset="1" style="stop-color:#b9b9b9;opacity:1"/></linearGradient><radialGradient id="radialGradient7547-64" cx="6.88" cy="7.199" r="9.375" fx="6.88" fy="7.199" gradientTransform="matrix(1.240749,0,0,1.157631,-1.713645,-1.134736)" gradientUnits="userSpaceOnUse" xlink:href="#linearGradient3670-400"/><linearGradient id="linearGradient3670-400"><stop id="stop1100" offset="0" style="stop-color:#d3d3d3;opacity:1"/><stop id="stop1102" offset="1" style="stop-color:#555;opacity:1"/></linearGradient><radialGradient id="radialGradient7549-579" cx="36.828" cy="24.428" r="1.24" fx="36.828" fy="24.428" gradientTransform="matrix(13.39869,-4.118282e-6,6.831725e-6,22.22678,-456.6246,-518.5208)" gradientUnits="userSpaceOnUse" xlink:href="#linearGradient3498-563"/><linearGradient id="linearGradient3498-563"><stop id="stop1106" offset="0" style="stop-color:#6c6c6c;stop-opacity:1;opacity:1"/><stop id="stop1108" offset="1" style="stop-color:#6c6c6c;stop-opacity:0;opacity:1"/></linearGradient><radialGradient id="radialGradient7551-183" cx="36.828" cy="24.428" r="1.24" fx="36.828" fy="24.428" gradientTransform="matrix(13.39869,-4.118282e-6,6.831725e-6,22.22678,-456.6246,-518.5208)" gradientUnits="userSpaceOnUse" xlink:href="#linearGradient3498-754"/><linearGradient id="linearGradient3498-754"><stop id="stop1112" offset="0" style="stop-color:#6c6c6c;stop-opacity:1;opacity:1"/><stop id="stop1114" offset="1" style="stop-color:#6c6c6c;stop-opacity:0;opacity:1"/></linearGradient><radialGradient id="radialGradient7553-284" cx="36.828" cy="24.428" r="1.24" fx="36.828" fy="24.428" gradientTransform="matrix(21.09444,0,0,22.22672,-740.0468,-518.5196)" gradientUnits="userSpaceOnUse" xlink:href="#linearGradient3498-929"/><linearGradient id="linearGradient3498-929"><stop id="stop1118" offset="0" style="stop-color:#6c6c6c;stop-opacity:1;opacity:1"/><stop id="stop1120" offset="1" style="stop-color:#6c6c6c;stop-opacity:0;opacity:1"/></linearGradient><linearGradient id="linearGradient4799-0-950"><stop id="stop1124" offset="0" style="stop-color:#7f7f7f;stop-opacity:1;opacity:1"/><stop id="stop1126" offset="1" style="stop-color:#7f7f7f;stop-opacity:1;opacity:1"/></linearGradient></defs><metadata id="metadata7618"/><g id="layer1" transform="translate(0,-928.36218)"><g id="audio_answer" transform="matrix(1.9374998,0,0,1.9374998,-784.50073,172.35165)"><rect id="rect5145" width="64" height="64" x="405.268" y="390.053" style="opacity:0;fill:#fff;fill-opacity:1;stroke:none"/><rect id="rect5147" width="42.889" height="53.323" x="416.838" y="395.963" ry="3.237" style="fill:#3d3d3d;fill-opacity:1;stroke:none;opacity:1"/><rect style="fill:#fff;fill-opacity:1;stroke:#9b9b9b;stroke-opacity:1;opacity:1" id="rect5149" width="42.889" height="53.323" x="415.556" y="394.682" ry="3.237"/><g id="layer1-6" transform="matrix(0.63232993,0,0,0.63232993,423.38126,402.97211)"><path style="opacity:.42857145;color:#000;fill:url(#radialGradient7521-153);fill-opacity:1;fill-rule:nonzero;stroke:none;stroke-width:1;marker:none;visibility:visible;display:inline;overflow:visible" id="path3607" d="m 11.932427,17.403807 a 5.524272,2.2980971 0 1 1 -11.04854352,0 5.524272,2.2980971 0 1 1 11.04854352,0 z" transform="matrix(2.901907,0,0,3.804948,-4.8525,-32.31157)"/><g id="g4090" transform="matrix(1.296182,0,0,1.296182,-4.176277,-7.324567)"><path style="color:#000;fill:url(#linearGradient7523-574);fill-opacity:1;fill-rule:nonzero;stroke:#5f5f5f;stroke-width:.57792485;stroke-linecap:round;stroke-linejoin:round;stroke-miterlimit:4;stroke-opacity:1;stroke-dasharray:none;stroke-dashoffset:0;marker:none;visibility:visible;display:inline;overflow:visible;opacity:1" id="path4076" d="m 12.374369,24.665476 a 3.6239225,6.3639616 0 1 1 -7.247845,0 3.6239225,6.3639616 0 1 1 7.247845,0 z" transform="matrix(1.415965,0,0,1.258558,-2.667614,-6.200669)"/><path style="color:#000;fill:url(#linearGradient7525-597);fill-opacity:1;fill-rule:nonzero;stroke:none;stroke-width:.86615634;marker:none;visibility:visible;display:inline;overflow:visible;opacity:1" id="path4060" d="m 12.374369,24.665476 a 3.6239225,6.3639616 0 1 1 -7.247845,0 3.6239225,6.3639616 0 1 1 7.247845,0 z" transform="matrix(1.154526,0,0,1.154526,-0.379902,-3.63468)"/><path style="color:#000;fill:#929292;fill-opacity:1;fill-rule:nonzero;stroke:none;stroke-width:.86615634;marker:none;visibility:visible;display:inline;overflow:visible;opacity:1" id="path4058" d="m 12.374369,24.665476 a 3.6239225,6.3639616 0 1 1 -7.247845,0 3.6239225,6.3639616 0 1 1 7.247845,0 z" transform="matrix(1.081355,0,0,1.081355,1.232653,-1.829889)"/><path style="opacity:.39560439;color:#000;fill:none;stroke:url(#linearGradient7527-294);stroke-width:.68416733;stroke-linecap:round;stroke-linejoin:round;stroke-miterlimit:4;stroke-opacity:1;stroke-dasharray:none;stroke-dashoffset:0;marker:none;visibility:visible;display:inline;overflow:visible" id="path3279" d="m 12.374369,24.665476 a 3.6239225,6.3639616 0 1 1 -7.247845,0 3.6239225,6.3639616 0 1 1 7.247845,0 z" transform="matrix(1.1807,0,0,1.076971,-0.608944,-1.721744)"/></g><path style="color:#000;fill:url(#linearGradient7529-260);fill-opacity:1;fill-rule:evenodd;stroke:url(#linearGradient7531-876);stroke-width:1.00000024;stroke-linecap:round;stroke-linejoin:miter;stroke-miterlimit:4;stroke-opacity:1;stroke-dashoffset:0;marker:none;visibility:visible;display:inline;overflow:visible;opacity:1" id="path4542" d="M 9.4806798,18.24261 16.570367,12.118401 16.341232,37.201244 9.1369775,31.676187 C 6.6164956,29.613972 6.1582259,20.41939 9.4806798,18.24261 z"/><path style="color:#000;fill:url(#linearGradient7533-523);fill-opacity:1;fill-rule:evenodd;stroke:none;stroke-width:1;marker:none;visibility:visible;display:inline;overflow:visible;opacity:1" id="path4544" d="m 7.5383505,21.987453 4.0549655,-3.039021 -0.251614,3.536074 -3.9634698,0.660996 0.1601183,-1.158049 z"/><path style="opacity:.7692308;color:#000;fill:url(#radialGradient7535-426);fill-opacity:1;fill-rule:nonzero;stroke:none;stroke-width:1;marker:none;visibility:visible;display:inline;overflow:visible" id="path3672" d="m 8.203516,30.371178 4.440805,3.568341 -0.556825,-2.427893 -4.4764048,-2.502739 0.5924248,1.362291 z"/><g style="display:inline;opacity:1" id="g4006" transform="matrix(1.096894,0,0,1.509271,-4.216951,-12.11812)"><path style="color:#000;fill:url(#radialGradient7537-772);fill-opacity:1;fill-rule:evenodd;stroke:url(#linearGradient7539-579);stroke-width:1.47668338;stroke-linecap:round;stroke-linejoin:miter;stroke-miterlimit:4;stroke-opacity:1;stroke-dasharray:none;stroke-dashoffset:0;marker:none;visibility:visible;display:inline;overflow:visible;opacity:1" id="path3726" d="M 23.75,14 C 21.81001,14.04917 20.013366,14.683436 18.5,15.6875 18.13319,15.264088 17.60375,15 17,15 c -0.0345,0 -0.08734,8.54e-4 -0.125,0 -0.02799,-2e-4 -0.06855,-0.0026 -0.09375,0 C 15.773145,15.102481 15,15.965001 15,17 c 0,0.60375 0.264088,1.13319 0.6875,1.5 C 14.639107,20.080181 14,21.962011 14,24 c 0,2.033681 0.611921,3.921829 1.65625,5.5 C 15.243427,29.869532 15,30.401641 15,31 c 0,1.104 0.896,2.000001 2,2 0.60375,0 1.13319,-0.264089 1.5,-0.6875 C 20.080181,33.360893 21.962011,34 24,34 c 2.03799,0 3.919819,-0.639107 5.5,-1.6875 0.36681,0.423412 0.896251,0.687501 1.5,0.6875 1.103999,0 2,-0.895999 2,-2 0,-0.60375 -0.264088,-1.13319 -0.6875,-1.5 C 33.360893,27.919819 34,26.03799 34,24 34,21.962011 33.360893,20.080181 32.3125,18.5 32.735912,18.13319 33,17.60375 33,17 c 0,-1.104 -0.896001,-2 -2,-2 -0.0345,0 -0.08734,8.54e-4 -0.125,0 -0.02799,-2e-4 -0.06855,-0.0026 -0.09375,0 -0.504052,0.05124 -0.961951,0.298435 -1.28125,0.65625 -0.0067,-0.0044 -0.02455,0.0044 -0.03125,0 C 27.894622,14.620029 26.025064,14 24,14 c -0.08617,0 -0.164349,-0.0022 -0.25,0 z"/><path style="color:#000;fill:url(#radialGradient7541-857);fill-opacity:1;fill-rule:evenodd;stroke:none;stroke-width:1.09104455;marker:none;visibility:visible;display:inline;overflow:visible;opacity:1" id="path3507" d="M 23.75,14 C 21.81001,14.04917 20.013366,14.683436 18.5,15.6875 18.13319,15.264088 17.60375,15 17,15 c -0.0345,0 -0.08734,8.54e-4 -0.125,0 -0.02799,-2e-4 -0.06855,-0.0026 -0.09375,0 C 15.773145,15.102481 15,15.965001 15,17 c 0,0.60375 0.264088,1.13319 0.6875,1.5 C 14.639107,20.080181 14,21.962011 14,24 c 0,2.033681 0.611921,3.921829 1.65625,5.5 C 15.243427,29.869532 15,30.401641 15,31 c 0,1.104 0.896,2.000001 2,2 0.60375,0 1.13319,-0.264089 1.5,-0.6875 C 20.080181,33.360893 21.962011,34 24,34 c 2.03799,0 3.919819,-0.639107 5.5,-1.6875 0.36681,0.423412 0.896251,0.687501 1.5,0.6875 1.103999,0 2,-0.895999 2,-2 0,-0.60375 -0.264088,-1.13319 -0.6875,-1.5 C 33.360893,27.919819 34,26.03799 34,24 34,21.962011 33.360893,20.080181 32.3125,18.5 32.735912,18.13319 33,17.60375 33,17 c 0,-1.104 -0.896001,-2 -2,-2 -0.0345,0 -0.08734,8.54e-4 -0.125,0 -0.02799,-2e-4 -0.06855,-0.0026 -0.09375,0 -0.504052,0.05124 -0.961951,0.298435 -1.28125,0.65625 -0.0067,-0.0044 -0.02455,0.0044 -0.03125,0 C 27.894622,14.620029 26.025064,14 24,14 c -0.08617,0 -0.164349,-0.0022 -0.25,0 z"/><path style="color:#000;fill:url(#radialGradient7543-713);fill-opacity:1;fill-rule:evenodd;stroke:url(#linearGradient7545-109);stroke-width:.8383193;stroke-linecap:round;stroke-linejoin:miter;stroke-miterlimit:4;stroke-opacity:1;stroke-dasharray:none;stroke-dashoffset:0;marker:none;visibility:visible;display:inline;overflow:visible;opacity:1" id="path3636" d="m 18.75,9.375 a 9.375,9.375 0 1 1 -18.75,0 9.375,9.375 0 1 1 18.75,0 z" transform="matrix(0.846982,0,0,0.911415,16.71027,15.44956)"/><path style="color:#000;fill:url(#radialGradient7547-64);fill-opacity:1;fill-rule:evenodd;stroke:none;stroke-width:6.57905483;marker:none;visibility:visible;display:inline;overflow:visible;opacity:1" id="path3519" d="m 18.75,9.375 a 9.375,9.375 0 1 1 -18.75,0 9.375,9.375 0 1 1 18.75,0 z" transform="matrix(0.367272,0,0,0.32,18.56254,21.125)"/><path style="color:#000;fill:#323232;fill-opacity:1;fill-rule:evenodd;stroke:none;stroke-width:1.10000002;marker:none;visibility:visible;display:inline;overflow:visible;opacity:1" id="path3718" d="m 17,16.5 a 0.5,0.5 0 1 1 -1,0 0.5,0.5 0 1 1 1,0 z" transform="matrix(1.3125,0,0,1.3125,-4.657679,-5.09375)"/><path style="color:#000;fill:#323232;fill-opacity:1;fill-rule:evenodd;stroke:none;stroke-width:1.10000002;marker:none;visibility:visible;display:inline;overflow:visible;opacity:1" id="path3720" d="m 17,16.5 a 0.5,0.5 0 1 1 -1,0 0.5,0.5 0 1 1 1,0 z" transform="translate(15.22159,0.25)"/><path style="color:#000;fill:#323232;fill-opacity:1;fill-rule:evenodd;stroke:none;stroke-width:1.10000002;marker:none;visibility:visible;display:inline;overflow:visible;opacity:1" id="path3722" d="m 17,16.5 a 0.5,0.5 0 1 1 -1,0 0.5,0.5 0 1 1 1,0 z" transform="translate(15.22159,14.96875)"/><path style="color:#000;fill:#323232;fill-opacity:1;fill-rule:evenodd;stroke:none;stroke-width:1.10000002;marker:none;visibility:visible;display:inline;overflow:visible;opacity:1" id="path3724" d="m 17,16.5 a 0.5,0.5 0 1 1 -1,0 0.5,0.5 0 1 1 1,0 z" transform="matrix(1.375,0,0,1.375,-5.688929,8.8125)"/></g><path style="color:#000;fill:none;stroke:url(#radialGradient7549-579);stroke-width:.99999982;stroke-linecap:round;stroke-linejoin:miter;stroke-miterlimit:4;stroke-opacity:1;stroke-dasharray:none;stroke-dashoffset:0;marker:none;visibility:visible;display:inline;overflow:visible;opacity:1" id="path3488" d="m 36.087935,32.865672 c 0.917263,-2.164764 1.48099,-5.158083 1.48099,-8.437989 0,-3.279906 -0.563727,-6.273225 -1.48099,-8.437989"/><path style="color:#000;fill:none;stroke:url(#radialGradient7551-183);stroke-width:.99999982;stroke-linecap:round;stroke-linejoin:miter;stroke-miterlimit:4;stroke-opacity:1;stroke-dasharray:none;stroke-dashoffset:0;marker:none;visibility:visible;display:inline;overflow:visible;opacity:1" id="path3494" d="m 39.838951,35.702755 c 1.225673,-2.892618 1.978941,-6.892375 1.978941,-11.275077 0,-4.382702 -0.753268,-8.382459 -1.978941,-11.275077"/><path style="color:#000;fill:none;stroke:url(#radialGradient7553-284);stroke-width:.99999982;stroke-linecap:round;stroke-linejoin:miter;stroke-miterlimit:4;stroke-opacity:1;stroke-dasharray:none;stroke-dashoffset:0;marker:none;visibility:visible;display:inline;overflow:visible;opacity:1" id="path3496" d="m 43.487454,39.708054 c 1.661074,-3.920178 2.681929,-9.340788 2.681929,-15.28038 0,-5.939591 -1.020855,-11.360202 -2.681929,-15.2803792"/></g><path id="path5931" d="m 418.70809,439.96834 -0.0284,-5.07522 c 0.0325,-1.11444 2.04678,-1.05051 2.18321,-0.0285 l 0,5.01854 3.37405,-3.4024 c 0.82795,-0.77673 2.03232,0.58656 1.30425,1.36097 l -3.14722,3.54417 4.42312,0.0284 c 1.29025,0.16752 1.12763,2.29901 0.0567,2.38169 l -4.28135,-0.0284 3.23228,3.11887 c 0.76312,0.85437 -0.25495,2.33446 -1.38931,1.58778 l -3.62923,-3.48746 -0.0284,5.01853 c 0.12831,1.06573 -2.05583,1.26709 -2.26827,0.0284 l 0.0284,-4.76338 -3.20393,3.20394 c -1.1279,0.27764 -2.0538,-0.52426 -1.61614,-1.50274 l 3.4024,-3.26063 -4.90513,0.0568 c -1.20828,-0.23463 -1.17896,-2.22438 0.0284,-2.38168 l 5.01854,-0.0284 -3.51581,-3.4591 c -0.68404,-1.08866 0.48965,-2.19074 1.41767,-1.53108 z" style="fill:#ccc;fill-opacity:1;stroke:#7f7f7f;stroke-width:.83637941;stroke-linecap:round;stroke-linejoin:round;stroke-miterlimit:4;stroke-opacity:1;stroke-dasharray:none;opacity:1"/></g></g></svg>