<svg xmlns="http://www.w3.org/2000/svg" xmlns:svg="http://www.w3.org/2000/svg" xmlns:xlink="http://www.w3.org/1999/xlink" id="svg2" width="128" height="128" version="1.1" viewBox="0 0 128 128"><defs id="defs4"><linearGradient id="linearGradient4243"><stop style="stop-color:#fff;stop-opacity:1" id="stop4245" offset="0"/><stop style="stop-color:#fff;stop-opacity:0" id="stop4247" offset="1"/></linearGradient><linearGradient id="linearGradient4229"><stop style="stop-color:#fff;stop-opacity:1" id="stop4231" offset="0"/><stop style="stop-color:#fff;stop-opacity:0" id="stop4233" offset="1"/></linearGradient><linearGradient id="linearGradient4215"><stop style="stop-color:#323a3a;stop-opacity:1" id="stop4217" offset="0"/><stop style="stop-color:#1e2020;stop-opacity:1" id="stop4219" offset="1"/></linearGradient><linearGradient id="linearGradient4201"><stop style="stop-color:#fff;stop-opacity:1" id="stop4203" offset="0"/><stop style="stop-color:#fff;stop-opacity:0" id="stop4205" offset="1"/></linearGradient><linearGradient id="linearGradient4187"><stop style="stop-color:#fff;stop-opacity:1" id="stop4189" offset="0"/><stop style="stop-color:#fff;stop-opacity:0" id="stop4191" offset="1"/></linearGradient><linearGradient id="linearGradient4177"><stop style="stop-color:#181818;stop-opacity:1" id="stop4179" offset="0"/><stop style="stop-color:#3a4444;stop-opacity:1" id="stop4181" offset="1"/></linearGradient><linearGradient id="linearGradient4162"><stop style="stop-color:#8a4215;stop-opacity:.95784312" id="stop4164" offset="0"/><stop style="stop-color:#c4782e;stop-opacity:1" id="stop4166" offset="1"/></linearGradient><linearGradient id="linearGradient4149"><stop style="stop-color:#5f2100;stop-opacity:1" id="stop4151" offset="0"/><stop style="stop-color:#9e4d13;stop-opacity:1" id="stop4153" offset="1"/></linearGradient><linearGradient id="linearGradient4155" x1="239.933" x2="240.22" y1="408.997" y2="367.637" gradientUnits="userSpaceOnUse" xlink:href="#linearGradient4149"/><linearGradient id="linearGradient4168" x1="339.252" x2="318.872" y1="391.043" y2="372.087" gradientTransform="translate(-78.015252,-1.148867)" gradientUnits="userSpaceOnUse" xlink:href="#linearGradient4162"/><linearGradient id="linearGradient4172" x1="336.093" x2="315.712" y1="399.372" y2="373.523" gradientTransform="matrix(-1,0,0,1,557.52655,-1.1129649)" gradientUnits="userSpaceOnUse" xlink:href="#linearGradient4162"/><linearGradient id="linearGradient4183" x1="240.276" x2="241.263" y1="345.294" y2="364.791" gradientUnits="userSpaceOnUse" xlink:href="#linearGradient4177"/><linearGradient id="linearGradient4193" x1="241.465" x2="241.959" y1="347.373" y2="376.619" gradientUnits="userSpaceOnUse" xlink:href="#linearGradient4187"/><linearGradient id="linearGradient4197" x1="240.479" x2="240.451" y1="340.014" y2="358.698" gradientTransform="matrix(0.91781391,0,0,0.89910466,19.806011,33.968344)" gradientUnits="userSpaceOnUse" xlink:href="#linearGradient4177"/><linearGradient id="linearGradient4207" x1="232.948" x2="266.255" y1="443.693" y2="393.732" gradientUnits="userSpaceOnUse" xlink:href="#linearGradient4201"/><linearGradient id="linearGradient4211" x1="232.948" x2="266.255" y1="443.693" y2="393.732" gradientTransform="matrix(-1,0,0,1,479.60393,-0.20309289)" gradientUnits="userSpaceOnUse" xlink:href="#linearGradient4201"/><radialGradient id="radialGradient4221" cx="306.911" cy="340.234" r="4.265" fx="306.911" fy="340.234" gradientTransform="matrix(1.1392312,0,0,1.0581165,-118.20621,-21.414464)" gradientUnits="userSpaceOnUse" xlink:href="#linearGradient4215"/><radialGradient id="radialGradient4225" cx="306.911" cy="340.234" r="4.265" fx="306.911" fy="340.234" gradientTransform="matrix(1.1839617,0,0,1.0581165,-113.34766,-21.288278)" gradientUnits="userSpaceOnUse" xlink:href="#linearGradient4215"/><linearGradient id="linearGradient4235" x1="232.084" x2="232.795" y1="331.255" y2="340.598" gradientTransform="matrix(1.3108162,0,0,1.3108162,-73.744484,-106.55844)" gradientUnits="userSpaceOnUse" xlink:href="#linearGradient4229"/><linearGradient id="linearGradient4239" x1="232.084" x2="232.795" y1="331.255" y2="340.598" gradientTransform="matrix(1.442913,0,0,1.3108162,-87.147407,-106.52253)" gradientUnits="userSpaceOnUse" xlink:href="#linearGradient4229"/><linearGradient id="linearGradient4249" x1="317.405" x2="317.445" y1="336.649" y2="340.922" gradientTransform="matrix(0.70825775,0,0,1,14.881725,-2.2907738)" gradientUnits="userSpaceOnUse" xlink:href="#linearGradient4243"/></defs><metadata id="metadata7"/><g id="layer1" transform="translate(0,-924.36216)"><g id="g4346"><rect id="rect4344" width="128" height="128" x="0" y="924.362" style="opacity:0;fill:#2b1100;fill-opacity:1;stroke:none;stroke-width:1.10000002;stroke-linecap:round;stroke-linejoin:round;stroke-miterlimit:4;stroke-dasharray:none;stroke-dashoffset:0;stroke-opacity:1"/><g id="g4315" transform="matrix(1.565323,0,0,1.565323,-311.52803,401.13899)"><g id="g4281" transform="matrix(-1,0,0,1,557.64474,-1.4360838)" style="fill:#2b1100"><path style="color:#000;font-style:normal;font-variant:normal;font-weight:400;font-stretch:normal;font-size:medium;line-height:normal;font-family:sans-serif;text-indent:0;text-align:start;text-decoration:none;text-decoration-line:none;text-decoration-style:solid;text-decoration-color:#000;letter-spacing:normal;word-spacing:normal;text-transform:none;direction:ltr;block-progression:tb;writing-mode:lr-tb;baseline-shift:baseline;text-anchor:start;white-space:normal;clip-rule:nonzero;display:inline;overflow:visible;visibility:visible;opacity:1;isolation:auto;mix-blend-mode:normal;color-interpolation:sRGB;color-interpolation-filters:linearRGB;solid-color:#000;solid-opacity:1;fill:#2b1100;fill-opacity:1;fill-rule:evenodd;stroke:none;stroke-width:1.10000002;stroke-linecap:round;stroke-linejoin:round;stroke-miterlimit:4;stroke-dasharray:none;stroke-dashoffset:0;stroke-opacity:1;color-rendering:auto;image-rendering:auto;shape-rendering:auto;text-rendering:auto;enable-background:accumulate" id="path4283" d="m 288.22461,341.51953 a 0.55005501,0.55005501 0 0 0 -0.39649,0.93945 l 4.59376,4.73829 a 0.55005501,0.55005501 0 0 0 0.18164,0.12304 l 5.45703,2.29883 a 0.55010904,0.55010904 0 0 0 0.42773,-1.01367 l -5.35351,-2.25391 -4.51758,-4.66015 a 0.55005501,0.55005501 0 0 0 -0.39258,-0.17188 z"/><path style="color:#000;font-style:normal;font-variant:normal;font-weight:400;font-stretch:normal;font-size:medium;line-height:normal;font-family:sans-serif;text-indent:0;text-align:start;text-decoration:none;text-decoration-line:none;text-decoration-style:solid;text-decoration-color:#000;letter-spacing:normal;word-spacing:normal;text-transform:none;direction:ltr;block-progression:tb;writing-mode:lr-tb;baseline-shift:baseline;text-anchor:start;white-space:normal;clip-rule:nonzero;display:inline;overflow:visible;visibility:visible;opacity:1;isolation:auto;mix-blend-mode:normal;color-interpolation:sRGB;color-interpolation-filters:linearRGB;solid-color:#000;solid-opacity:1;fill:#2b1100;fill-opacity:1;fill-rule:evenodd;stroke:none;stroke-width:1.20000005;stroke-linecap:round;stroke-linejoin:round;stroke-miterlimit:4;stroke-dasharray:none;stroke-dashoffset:0;stroke-opacity:1;color-rendering:auto;image-rendering:auto;shape-rendering:auto;text-rendering:auto;enable-background:accumulate" id="path4285" d="m 286.64648,379.38281 a 0.60006002,0.60006002 0 0 0 -0.32421,0.0977 l -5.02539,3.1582 a 0.60006002,0.60006002 0 0 0 -0.27149,0.40625 l -0.71875,4.16406 a 0.60061283,0.60061283 0 0 0 1.18359,0.20508 l 0.67188,-3.90039 4.79883,-3.01758 a 0.60006002,0.60006002 0 0 0 -0.31446,-1.11328 z"/><path style="color:#000;font-style:normal;font-variant:normal;font-weight:400;font-stretch:normal;font-size:medium;line-height:normal;font-family:sans-serif;text-indent:0;text-align:start;text-decoration:none;text-decoration-line:none;text-decoration-style:solid;text-decoration-color:#000;letter-spacing:normal;word-spacing:normal;text-transform:none;direction:ltr;block-progression:tb;writing-mode:lr-tb;baseline-shift:baseline;text-anchor:start;white-space:normal;clip-rule:nonzero;display:inline;overflow:visible;visibility:visible;opacity:1;isolation:auto;mix-blend-mode:normal;color-interpolation:sRGB;color-interpolation-filters:linearRGB;solid-color:#000;solid-opacity:1;fill:#2b1100;fill-opacity:1;fill-rule:evenodd;stroke:none;stroke-width:1.5;stroke-linecap:round;stroke-linejoin:round;stroke-miterlimit:4;stroke-dasharray:none;stroke-dashoffset:0;stroke-opacity:1;color-rendering:auto;image-rendering:auto;shape-rendering:auto;text-rendering:auto;enable-background:accumulate" id="path4287" d="m 298.14258,404.36328 a 0.750075,0.750075 0 0 0 -0.46485,0.1582 l -6.60742,5.02735 a 0.750075,0.750075 0 0 0 -0.2832,0.45898 l -0.86133,4.59571 a 0.750075,0.750075 0 1 0 1.47461,0.27539 l 0.80859,-4.31055 6.37696,-4.85156 a 0.750075,0.750075 0 0 0 -0.44336,-1.35352 z"/></g><g id="g4276" transform="translate(-77.835742,-1.4360838)" style="fill:#2b1100"><path style="color:#000;font-style:normal;font-variant:normal;font-weight:400;font-stretch:normal;font-size:medium;line-height:normal;font-family:sans-serif;text-indent:0;text-align:start;text-decoration:none;text-decoration-line:none;text-decoration-style:solid;text-decoration-color:#000;letter-spacing:normal;word-spacing:normal;text-transform:none;direction:ltr;block-progression:tb;writing-mode:lr-tb;baseline-shift:baseline;text-anchor:start;white-space:normal;clip-rule:nonzero;display:inline;overflow:visible;visibility:visible;opacity:1;isolation:auto;mix-blend-mode:normal;color-interpolation:sRGB;color-interpolation-filters:linearRGB;solid-color:#000;solid-opacity:1;fill:#2b1100;fill-opacity:1;fill-rule:evenodd;stroke:none;stroke-width:1.10000002;stroke-linecap:round;stroke-linejoin:round;stroke-miterlimit:4;stroke-dasharray:none;stroke-dashoffset:0;stroke-opacity:1;color-rendering:auto;image-rendering:auto;shape-rendering:auto;text-rendering:auto;enable-background:accumulate" id="path4251" d="m 288.22461,341.51953 a 0.55005501,0.55005501 0 0 0 -0.39649,0.93945 l 4.59376,4.73829 a 0.55005501,0.55005501 0 0 0 0.18164,0.12304 l 5.45703,2.29883 a 0.55010904,0.55010904 0 0 0 0.42773,-1.01367 l -5.35351,-2.25391 -4.51758,-4.66015 a 0.55005501,0.55005501 0 0 0 -0.39258,-0.17188 z"/><path style="color:#000;font-style:normal;font-variant:normal;font-weight:400;font-stretch:normal;font-size:medium;line-height:normal;font-family:sans-serif;text-indent:0;text-align:start;text-decoration:none;text-decoration-line:none;text-decoration-style:solid;text-decoration-color:#000;letter-spacing:normal;word-spacing:normal;text-transform:none;direction:ltr;block-progression:tb;writing-mode:lr-tb;baseline-shift:baseline;text-anchor:start;white-space:normal;clip-rule:nonzero;display:inline;overflow:visible;visibility:visible;opacity:1;isolation:auto;mix-blend-mode:normal;color-interpolation:sRGB;color-interpolation-filters:linearRGB;solid-color:#000;solid-opacity:1;fill:#2b1100;fill-opacity:1;fill-rule:evenodd;stroke:none;stroke-width:1.20000005;stroke-linecap:round;stroke-linejoin:round;stroke-miterlimit:4;stroke-dasharray:none;stroke-dashoffset:0;stroke-opacity:1;color-rendering:auto;image-rendering:auto;shape-rendering:auto;text-rendering:auto;enable-background:accumulate" id="path4253" d="m 286.64648,379.38281 a 0.60006002,0.60006002 0 0 0 -0.32421,0.0977 l -5.02539,3.1582 a 0.60006002,0.60006002 0 0 0 -0.27149,0.40625 l -0.71875,4.16406 a 0.60061283,0.60061283 0 0 0 1.18359,0.20508 l 0.67188,-3.90039 4.79883,-3.01758 a 0.60006002,0.60006002 0 0 0 -0.31446,-1.11328 z"/><path style="color:#000;font-style:normal;font-variant:normal;font-weight:400;font-stretch:normal;font-size:medium;line-height:normal;font-family:sans-serif;text-indent:0;text-align:start;text-decoration:none;text-decoration-line:none;text-decoration-style:solid;text-decoration-color:#000;letter-spacing:normal;word-spacing:normal;text-transform:none;direction:ltr;block-progression:tb;writing-mode:lr-tb;baseline-shift:baseline;text-anchor:start;white-space:normal;clip-rule:nonzero;display:inline;overflow:visible;visibility:visible;opacity:1;isolation:auto;mix-blend-mode:normal;color-interpolation:sRGB;color-interpolation-filters:linearRGB;solid-color:#000;solid-opacity:1;fill:#2b1100;fill-opacity:1;fill-rule:evenodd;stroke:none;stroke-width:1.5;stroke-linecap:round;stroke-linejoin:round;stroke-miterlimit:4;stroke-dasharray:none;stroke-dashoffset:0;stroke-opacity:1;color-rendering:auto;image-rendering:auto;shape-rendering:auto;text-rendering:auto;enable-background:accumulate" id="path4255" d="m 298.14258,404.36328 a 0.750075,0.750075 0 0 0 -0.46485,0.1582 l -6.60742,5.02735 a 0.750075,0.750075 0 0 0 -0.2832,0.45898 l -0.86133,4.59571 a 0.750075,0.750075 0 1 0 1.47461,0.27539 l 0.80859,-4.31055 6.37696,-4.85156 a 0.750075,0.750075 0 0 0 -0.44336,-1.35352 z"/></g><ellipse style="opacity:1;fill:url(#linearGradient4155);fill-opacity:1;stroke:none;stroke-width:1.61419106;stroke-linecap:round;stroke-linejoin:round;stroke-miterlimit:4;stroke-dasharray:none;stroke-dashoffset:0;stroke-opacity:1" id="path4147" cx="239.97" cy="374.818" rx="31.63" ry="37.806"/><path style="opacity:1;fill:url(#linearGradient4168);fill-opacity:1;stroke:#661f00;stroke-width:.5;stroke-linecap:round;stroke-linejoin:round;stroke-miterlimit:4;stroke-dasharray:none;stroke-dashoffset:0;stroke-opacity:1" id="ellipse4157" d="m 271.30147,374.73377 c 0,18.39263 -10.98898,33.71757 -25.54769,37.10712 -4.80673,-13.06016 -8.44189,-48.90813 -6.08266,-74.91264 17.46896,0 31.63035,16.92611 31.63035,37.80552 z"/><path id="path4170" d="m 208.20983,374.76967 c 0,18.39263 10.98898,33.71757 25.54769,37.10712 7.96611,-15.93233 6.14416,-48.04648 6.08266,-74.91264 -17.46896,0 -31.63035,16.92611 -31.63035,37.80552 z" style="opacity:1;fill:url(#linearGradient4172);fill-opacity:1;stroke:#661f00;stroke-width:.5;stroke-linecap:round;stroke-linejoin:round;stroke-miterlimit:4;stroke-dasharray:none;stroke-dashoffset:0;stroke-opacity:1"/><path style="opacity:1;fill:url(#linearGradient4183);fill-opacity:1;stroke:#2b2b2b;stroke-width:.57720166;stroke-linecap:round;stroke-linejoin:round;stroke-miterlimit:4;stroke-dasharray:none;stroke-dashoffset:0;stroke-opacity:1" id="path4174" d="m 262.90833,349.90181 c 0,5.4116 -9.91851,10.66022 -22.50791,10.66022 -12.5894,0 -23.80039,-4.9614 -23.80039,-10.373 0.50262,-3.04206 9.55949,-12.81436 22.36431,-13.24518 12.58229,-0.42334 23.58498,9.8441 23.94399,12.95796 z"/><path id="path4195" d="m 261.10693,348.5667 c 0,4.86559 -9.30643,11.20939 -20.86116,11.20939 -11.55473,0 -21.64125,-6.08556 -21.64125,-10.95115 0.46131,-2.73514 8.77384,-11.52146 20.52628,-11.90881 11.5482,-0.38063 21.64662,8.85087 21.97613,11.65057 z" style="opacity:1;fill:url(#linearGradient4197);fill-opacity:1;stroke:none;stroke-width:.52433646;stroke-linecap:round;stroke-linejoin:round;stroke-miterlimit:4;stroke-dasharray:none;stroke-dashoffset:0;stroke-opacity:1"/><path style="fill:url(#linearGradient4249);fill-opacity:1;fill-rule:evenodd;stroke:none;stroke-width:1px;stroke-linecap:butt;stroke-linejoin:miter;stroke-opacity:1" id="path4241" d="m 235.18031,340.07706 1.52343,-1.10574 c 2.3301,-0.54114 4.61048,-0.53539 6.84484,-0.0236 l 1.50162,1.11085 0.47366,-0.74672 -1.96294,-1.40934 c -2.1538,-0.73463 -4.98447,-0.75562 -7.0904,0.0236 l -1.79366,1.2842 z"/><ellipse style="opacity:.27700004;fill:url(#linearGradient4193);fill-opacity:1;stroke:none;stroke-width:.51834792;stroke-linecap:round;stroke-linejoin:round;stroke-miterlimit:4;stroke-dasharray:none;stroke-dashoffset:0;stroke-opacity:1" id="path4185" cx="240.392" cy="363.824" rx="14.362" ry="16.219"/><path style="opacity:.428;fill:url(#linearGradient4207);fill-opacity:1;fill-rule:evenodd;stroke:none;stroke-width:1px;stroke-linecap:butt;stroke-linejoin:miter;stroke-opacity:1" id="path4199" d="m 244.82851,406.93291 c 14.93035,-5.33852 22.57906,-15.61834 26.30054,-32.08868 -0.74077,17.15113 -7.98049,31.68746 -25.18353,36.96291 z"/><path id="path4209" d="m 235.58779,406.78058 c -14.93035,-5.33852 -23.39143,-15.66911 -27.11291,-32.13945 0.74077,17.15113 7.98049,31.68746 25.18353,36.96291 z" style="opacity:.428;fill:url(#linearGradient4211);fill-opacity:1;fill-rule:evenodd;stroke:none;stroke-width:1px;stroke-linecap:butt;stroke-linejoin:miter;stroke-opacity:1"/><ellipse style="opacity:1;fill:url(#radialGradient4221);fill-opacity:1;stroke:none;stroke-width:.5;stroke-linecap:round;stroke-linejoin:round;stroke-miterlimit:4;stroke-dasharray:none;stroke-dashoffset:0;stroke-opacity:1" id="path4213" cx="230.815" cy="340.742" rx="4.859" ry="4.513"/><ellipse id="ellipse4223" cx="249.378" cy="340.868" rx="5.05" ry="4.513" style="opacity:1;fill:url(#radialGradient4225);fill-opacity:1;stroke:none;stroke-width:.5;stroke-linecap:round;stroke-linejoin:round;stroke-miterlimit:4;stroke-dasharray:none;stroke-dashoffset:0;stroke-opacity:1"/><circle style="opacity:1;fill:url(#linearGradient4235);fill-opacity:1;stroke:none;stroke-width:.5;stroke-linecap:round;stroke-linejoin:round;stroke-miterlimit:4;stroke-dasharray:none;stroke-dashoffset:0;stroke-opacity:1" id="path4227" cx="231.507" cy="339.503" r="3.028"/><ellipse id="circle4237" cx="248.866" cy="339.539" rx="3.333" ry="3.028" style="opacity:1;fill:url(#linearGradient4239);fill-opacity:1;stroke:none;stroke-width:.5;stroke-linecap:round;stroke-linejoin:round;stroke-miterlimit:4;stroke-dasharray:none;stroke-dashoffset:0;stroke-opacity:1"/><circle style="opacity:.36680023;fill:#2b1100;fill-opacity:1;stroke:none;stroke-width:1.10000002;stroke-linecap:round;stroke-linejoin:round;stroke-miterlimit:4;stroke-dasharray:none;stroke-dashoffset:0;stroke-opacity:1" id="path4303" cx="218.376" cy="373.575" r="4.62"/><circle id="circle4305" cx="231.3" cy="382.622" r="2.62" style="opacity:.36680023;fill:#2b1100;fill-opacity:1;stroke:none;stroke-width:1.10000002;stroke-linecap:round;stroke-linejoin:round;stroke-miterlimit:4;stroke-dasharray:none;stroke-dashoffset:0;stroke-opacity:1"/><circle id="circle4307" cx="222.397" cy="392.1" r="4.62" style="opacity:.36680023;fill:#2b1100;fill-opacity:1;stroke:none;stroke-width:1.10000002;stroke-linecap:round;stroke-linejoin:round;stroke-miterlimit:4;stroke-dasharray:none;stroke-dashoffset:0;stroke-opacity:1"/><circle id="circle4309" cx="262.033" cy="369.267" r="4.62" style="opacity:.36680023;fill:#2b1100;fill-opacity:1;stroke:none;stroke-width:1.10000002;stroke-linecap:round;stroke-linejoin:round;stroke-miterlimit:4;stroke-dasharray:none;stroke-dashoffset:0;stroke-opacity:1"/><circle style="opacity:.36680023;fill:#2b1100;fill-opacity:1;stroke:none;stroke-width:1.10000002;stroke-linecap:round;stroke-linejoin:round;stroke-miterlimit:4;stroke-dasharray:none;stroke-dashoffset:0;stroke-opacity:1" id="circle4311" cx="250.831" cy="380.324" r="2.62"/><circle style="opacity:.36680023;fill:#2b1100;fill-opacity:1;stroke:none;stroke-width:1.10000002;stroke-linecap:round;stroke-linejoin:round;stroke-miterlimit:4;stroke-dasharray:none;stroke-dashoffset:0;stroke-opacity:1" id="circle4313" cx="254.565" cy="393.249" r="4.62"/></g></g></g></svg>