<svg xmlns="http://www.w3.org/2000/svg" xmlns:svg="http://www.w3.org/2000/svg" xmlns:xlink="http://www.w3.org/1999/xlink" id="svg11456" width="128" height="128" version="1.1" viewBox="0 0 128 128"><defs id="defs11458"><linearGradient id="linearGradient4289"><stop style="stop-color:#3ea900;stop-opacity:1" id="stop4291" offset="0"/><stop style="stop-color:#a3e600;stop-opacity:1" id="stop4293" offset="1"/></linearGradient><linearGradient id="linearGradient4281"><stop style="stop-color:#fff;stop-opacity:1" id="stop4283" offset="0"/><stop style="stop-color:#fff;stop-opacity:0" id="stop4285" offset="1"/></linearGradient><linearGradient id="linearGradient4287" x1="14.855" x2="84.632" y1="885.506" y2="1012.281" gradientTransform="matrix(1,0,0,1.0389012,0,-38.785798)" gradientUnits="userSpaceOnUse" xlink:href="#linearGradient4281"/><linearGradient id="linearGradient4295" x1="60.643" x2="67.714" y1="1050.148" y2="934.434" gradientUnits="userSpaceOnUse" xlink:href="#linearGradient4289"/></defs><metadata id="metadata11461"/><g id="layer1" transform="translate(0,-924.36216)"><g id="g4151" transform="matrix(1.0543657,0,0,1.0543657,-3.4794056,-53.733041)"><path id="path11435" d="m 64,928.36216 c -33.13503,0 -60.0000012,26.86503 -60.0000012,60 0,33.14014 26.8649712,60.00004 60.0000012,60.00004 33.134921,0 60,-26.8599 60,-60.00004 0,-33.13497 -26.865079,-60 -60,-60 z" style="fill:url(#linearGradient4295);fill-opacity:1;stroke:#329100;stroke-width:1.39999998;stroke-miterlimit:4;stroke-dasharray:none;stroke-opacity:1"/><path id="path4279" d="m 64.178571,929.58945 c -26.029338,0 -48.166116,16.60076 -56.3059114,39.74472 28.5950474,36.76013 83.9683154,38.03053 111.5430504,-2.80736 -8.88909,-21.6673 -30.27291,-36.93736 -55.237139,-36.93736 z" style="fill:url(#linearGradient4287);fill-opacity:1;stroke:none;stroke-width:.93388438;stroke-opacity:1"/></g></g></svg>