<svg xmlns="http://www.w3.org/2000/svg" xmlns:svg="http://www.w3.org/2000/svg" id="svg2105" width="128" height="128" version="1.1" viewBox="0 0 33.867 33.867"><metadata id="metadata2102"/><g id="layer1" transform="translate(0,-263.13334)"><g id="g1337" transform="translate(-13.021322,160.746)"><rect id="rect122" width="33.867" height="33.867" x="13.021" y="102.387" style="opacity:0;fill:#5f9aaa;fill-opacity:1;stroke:none;stroke-width:2.03699636;stroke-linecap:round;stroke-linejoin:bevel;stroke-miterlimit:4;stroke-dasharray:none;stroke-dashoffset:0;stroke-opacity:1"/><path id="path6-3" d="m 19.16597,107.41625 c -1.707282,0 -3.091223,1.39105 -3.091223,3.09122 v 21.63857 c 0,1.70017 1.383941,3.09122 3.091223,3.09122 h 9.273671 3.091223 9.273672 c 1.707899,0 3.091222,-1.39105 3.091222,-3.09122 v -21.63857 c 0,-1.70017 -1.383323,-3.09122 -3.091222,-3.09122 h -9.273672 -3.091223 z" style="fill:#bdc3c7;stroke-width:.26458332"/><path id="path8-6" d="m 19.16597,105.87064 c -1.707282,0 -3.091223,1.38394 -3.091223,3.09122 v 21.63857 c 0,1.70789 1.383941,3.09122 3.091223,3.09122 h 9.273671 3.091223 9.273672 c 1.707899,0 3.091222,-1.38333 3.091222,-3.09122 v -21.63857 c 0,-1.70728 -1.383323,-3.09122 -3.091222,-3.09122 h -9.273672 -3.091223 z" style="fill:#ecf0f1;stroke-width:.26458332"/><path id="path10-7" d="m 19.16597,105.87064 c -1.707282,0 -3.091223,1.38394 -3.091223,3.09122 v 4.63684 h 27.821011 v -4.63684 c 0,-1.70728 -1.383323,-3.09122 -3.091222,-3.09122 h -9.273672 -3.091223 z" style="fill:#e74c3c;fill-opacity:1;stroke-width:.26458332"/><path id="path12-5" d="m 23.03,109.73467 a 2.3184176,2.3184176 0 0 1 -4.636835,0 2.3184176,2.3184176 0 1 1 4.636835,0 z" style="fill:#c0392b;fill-opacity:1;stroke-width:.26458332"/><path id="path14-3" d="m 20.711582,103.84581 c -0.853641,0 -1.545612,0.59649 -1.545612,1.33234 v 3.99699 c 0,0.73585 0.691971,1.33233 1.545612,1.33233 0.853641,0 1.545612,-0.59648 1.545612,-1.33233 v -3.99699 c 0,-0.73585 -0.691971,-1.33234 -1.545612,-1.33234 z" style="fill:#bdc3c7;stroke-width:.24565092"/><path id="path16-5" d="m 41.577339,109.73467 a 2.3184176,2.3184176 0 0 1 -4.636834,0 2.3184176,2.3184176 0 1 1 4.636834,0 z" style="fill:#c0392b;fill-opacity:1;stroke-width:.26458332"/><path id="path20-6" d="m 39.258923,103.84581 c -0.853178,0 -1.545612,0.53294 -1.545612,1.33234 v 3.99699 c 0,0.66617 0.692434,1.33233 1.545612,1.33233 0.853175,0 1.545613,-0.66616 1.545613,-1.33233 v -3.99699 c 0,-0.7994 -0.692438,-1.33234 -1.545613,-1.33234 z" style="fill:#bdc3c7;stroke-width:.24565092"/><g id="g1200" transform="translate(0,-1.5875)"><path style="fill:#b3b3b3;stroke:none;stroke-width:.26458332;stroke-opacity:1" id="path4212" d="m 19.16597,118.23553 v 3.09122 h 3.091224 v -3.09122 z"/><path style="fill:#fff;stroke:none;stroke-width:.26458332;stroke-opacity:1" id="path4210" d="m 23.802806,118.23553 v 3.09122 h 3.091223 v -3.09122 z"/><path style="fill:#fff;stroke:none;stroke-width:.26458332;stroke-opacity:1" id="path4208" d="m 28.439641,118.23553 v 3.09122 h 3.091223 v -3.09122 z"/><path style="fill:#fff;stroke:none;stroke-width:.26458332;stroke-opacity:1" id="path4206" d="m 33.076476,118.23553 v 3.09122 h 3.091223 v -3.09122 z"/><path style="fill:#fff;stroke:none;stroke-width:.26458332;stroke-opacity:1" id="path22" d="m 37.713311,118.23553 v 3.09122 h 3.091225 v -3.09122 z"/><path style="fill:#b3b3b3;stroke:none;stroke-width:.26458332;stroke-opacity:1" id="path4183" d="m 19.16597,122.87237 v 3.09122 h 3.091224 v -3.09122 z"/><path style="fill:#fff;fill-opacity:1;stroke:none;stroke-width:.26458332;stroke-opacity:1" id="path4181" d="m 23.802806,122.87237 v 3.09122 h 3.091223 v -3.09122 z"/><path style="fill:#fff;stroke:none;stroke-width:.26458332;stroke-opacity:1" id="path4179" d="m 28.439641,122.87237 v 3.09122 h 3.091223 v -3.09122 z"/><path style="fill:#fc0;stroke:none;stroke-width:.26458332;stroke-opacity:1" id="path4177" d="m 33.076476,122.87237 v 3.09122 h 3.091223 v -3.09122 z"/><path style="fill:#fff;stroke:none;stroke-width:.26458332;stroke-opacity:1" id="path24" d="m 37.713311,122.87237 v 3.09122 h 3.091225 v -3.09122 z"/><path style="fill:#b3b3b3;stroke:none;stroke-width:.26458332;stroke-opacity:1" id="path4222" d="m 19.16597,127.5092 v 3.09123 h 3.091224 v -3.09123 z"/><path style="fill:#fff;stroke:none;stroke-width:.26458332;stroke-opacity:1" id="path4220" d="m 23.802806,127.5092 v 3.09123 h 3.091223 v -3.09123 z"/><path style="fill:#fff;stroke:none;stroke-width:.26458332;stroke-opacity:1" id="path4218" d="m 28.439641,127.5092 v 3.09123 h 3.091223 v -3.09123 z"/><path style="fill:#fff;stroke-width:.26458332;stroke:none" id="path4216" d="m 33.076476,127.5092 v 3.09123 h 3.091223 v -3.09123 z"/><path style="fill:#fff;stroke:none;stroke-width:.26458332;stroke-opacity:1" id="path26" d="m 37.713311,127.5092 v 3.09123 h 3.091225 v -3.09123 z"/></g></g></g></svg>