<svg xmlns="http://www.w3.org/2000/svg" xmlns:svg="http://www.w3.org/2000/svg" xmlns:xlink="http://www.w3.org/1999/xlink" id="svg2" width="128" height="128" version="1.1" viewBox="0 0 128 128"><metadata id="metadata18"/><defs id="defs16"><linearGradient id="linearGradient8048" x1="201.746" x2="200.383" y1="785.154" y2="751.779" gradientTransform="matrix(0.91342442,0,0,0.93333333,17.217862,51.351949)" gradientUnits="userSpaceOnUse" xlink:href="#linearGradient14830"/><linearGradient id="linearGradient14830"><stop style="stop-color:#e6e6e6;stop-opacity:1" id="stop14832" offset="0"/><stop style="stop-color:#fff;stop-opacity:1" id="stop14834" offset="1"/></linearGradient></defs><g id="g14884" transform="matrix(3.9333348,0,0,3.9333348,-728.77411,-2966.381)"><rect id="rect14793" width="2.056" height="4.899" x="214.263" y="760.2" ry=".521" style="fill:red;fill-opacity:1;stroke:none"/><rect style="fill:#4a0;fill-opacity:1;stroke:none" id="rect14795" width="2.056" height="4.899" x="214.291" y="765.414" ry=".521"/><rect id="rect14797" width="2.056" height="4.899" x="214.263" y="770.629" ry=".521" style="fill:#f60;fill-opacity:1;stroke:none"/><rect style="fill:#2e75a3;fill-opacity:1;stroke:none" id="rect14799" width="2.056" height="4.899" x="214.319" y="775.844" ry=".521"/><rect id="rect14801" width="25.931" height="30" x="188.621" y="755.279" ry="1.604" style="fill:#ccc;fill-opacity:1;stroke:none"/><rect style="fill:url(#linearGradient8048);fill-opacity:1;stroke:none" id="rect14880" width="24.332" height="28" x="189.508" y="756.279" ry="1.497"/><path id="path14803" d="m 192.46158,760.87975 c 0.72963,0 1.31702,0.53711 1.31702,1.20426 l 0,17.18096 c 0,0.66715 -0.58739,1.20426 -1.31702,1.20426 l -3.78112,0.0105 -0.01,-19.59909 z" style="fill:#37abc8;fill-opacity:1;stroke:none"/><g style="fill:#006680;fill-opacity:1" id="g14805" transform="matrix(0.21314799,0,0,0.21604605,134.95818,709.39987)"><rect style="fill:#006680;fill-opacity:1;stroke:none" id="rect14807" width="20.85" height="10.061" x="241.592" y="252.673" ry="2.606"/><rect id="rect14809" width="20.85" height="10.061" x="241.592" y="277.886" ry="2.606" style="fill:#006680;fill-opacity:1;stroke:none"/><rect style="fill:#006680;fill-opacity:1;stroke:none" id="rect14811" width="20.85" height="10.061" x="241.228" y="302.858" ry="2.606"/></g><rect style="fill:#b3b3b3;fill-opacity:1;stroke:none" id="rect14813" width="15.756" height="1.087" x="194.831" y="778.073" ry=".291"/><rect style="fill:#b3b3b3;fill-opacity:1;stroke:none" id="rect14815" width="15.756" height="1.087" x="194.831" y="780.392" ry=".291"/><rect id="rect14842" width="15.756" height="1.087" x="194.831" y="759.567" ry=".291" style="fill:#e6e6e6;fill-opacity:1;stroke:none"/><rect id="rect14844" width="15.756" height="1.087" x="194.831" y="761.886" ry=".291" style="fill:#e6e6e6;fill-opacity:1;stroke:none"/></g></svg>