<svg xmlns="http://www.w3.org/2000/svg" xmlns:pdf="http://ns.adobe.com/pdf/1.3/" xmlns:svg="http://www.w3.org/2000/svg" xmlns:x="adobe:ns:meta/" xmlns:xap="http://ns.adobe.com/xap/1.0/" xmlns:xapGImg="http://ns.adobe.com/xap/1.0/g/img/" xmlns:xapMM="http://ns.adobe.com/xap/1.0/mm/" xmlns:xlink="http://www.w3.org/1999/xlink" style="overflow:visible" id="svg548" width="128" height="128" version="1.1" viewBox="0 0 128 128" xml:space="preserve"><defs id="defs676"><linearGradient id="XMLID_13_" x1="23.676" x2="23.676" y1="44.797" y2="-1.548" gradientTransform="matrix(2.1289967,0,0,2.1289967,0.1040792,0.1040792)" gradientUnits="userSpaceOnUse"><stop id="stop554" offset="0" style="stop-color:#0035ed"/><stop id="stop555" offset="1" style="stop-color:#00008d"/></linearGradient><radialGradient id="XMLID_14_" cx="24.733" cy="142.066" r="194.909" fx="24.733" fy="142.066" gradientTransform="matrix(0.39918688,0,0,0.39918688,41.619515,41.619515)" gradientUnits="userSpaceOnUse"><stop id="stop561" offset="0" style="stop-color:#fff"/><stop id="stop562" offset=".326" style="stop-color:#ffff70;stop-opacity:1"/><stop id="stop563" offset=".753" style="stop-color:#ffea00;stop-opacity:1"/><stop id="stop564" offset=".867" style="stop-color:#fb0;stop-opacity:1"/><stop id="stop565" offset=".956" style="stop-color:#ffa200;stop-opacity:1"/><stop id="stop566" offset="1" style="stop-color:#ffad13;stop-opacity:1"/></radialGradient><radialGradient id="XMLID_15_" cx="37.761" cy="142.066" r="174.629" fx="37.761" fy="142.066" gradientTransform="matrix(0.39918688,0,0,0.39918688,41.619515,41.619515)" gradientUnits="userSpaceOnUse" xlink:href="#XMLID_19_"><stop id="stop576" offset="0" style="stop-color:#fff"/><stop id="stop577" offset="1" style="stop-color:#fff;stop-opacity:1"/></radialGradient><linearGradient id="XMLID_16_" x1="13.073" x2="13.073" y1="39.612" y2="7.293" gradientTransform="matrix(2.1289967,0,0,2.1289967,0.1040792,0.1040792)" gradientUnits="userSpaceOnUse"><stop id="stop583" offset="0" style="stop-color:#fff"/><stop id="stop584" offset="1" style="stop-color:#fffb99;stop-opacity:1"/></linearGradient><linearGradient id="XMLID_17_" x1="23.393" x2="23.393" y1="4.556" y2="23.688" gradientTransform="matrix(2.1289967,0,0,2.1289967,0.1040792,0.1040792)" gradientUnits="userSpaceOnUse"><stop id="stop590" offset="0" style="stop-color:#fff"/><stop id="stop591" offset=".15" style="stop-color:#fbfdff"/><stop id="stop592" offset=".304" style="stop-color:#fffcee;stop-opacity:1"/><stop id="stop593" offset=".462" style="stop-color:#fff8de;stop-opacity:1"/><stop id="stop594" offset=".62" style="stop-color:#fff2c4;stop-opacity:1"/><stop id="stop595" offset=".78" style="stop-color:#ffe88d;stop-opacity:1"/><stop id="stop596" offset=".939" style="stop-color:#ffec00;stop-opacity:1"/><stop id="stop597" offset="1" style="stop-color:#57adff"/></linearGradient><linearGradient id="XMLID_18_" x1="12.936" x2="34.485" y1="30.881" y2="30.881" gradientTransform="matrix(2.1289967,0,0,2.1289967,0.1040792,0.1040792)" gradientUnits="userSpaceOnUse"><stop id="stop603" offset="0" style="stop-color:#428aff"/><stop id="stop604" offset=".268" style="stop-color:#2969f8"/><stop id="stop605" offset=".56" style="stop-color:#124df2"/><stop id="stop606" offset=".814" style="stop-color:#053bee"/><stop id="stop607" offset="1" style="stop-color:#0035ed"/></linearGradient><linearGradient id="XMLID_19_" x1="12.936" x2="34.485" y1="31.065" y2="31.065" gradientTransform="matrix(2.1289967,0,0,2.1289967,0.1040792,0.1040792)" gradientUnits="userSpaceOnUse"><stop id="stop613" offset="0" style="stop-color:#428aff"/><stop id="stop614" offset=".268" style="stop-color:#2969f8"/><stop id="stop615" offset=".56" style="stop-color:#124df2"/><stop id="stop616" offset=".814" style="stop-color:#053bee"/><stop id="stop617" offset="1" style="stop-color:#0035ed"/></linearGradient><linearGradient id="XMLID_20_" x1="14.705" x2="32.71" y1="30.806" y2="30.806" gradientTransform="matrix(2.1289967,0,0,2.1289967,0.1040792,0.1040792)" gradientUnits="userSpaceOnUse"><stop id="stop623" offset="0" style="stop-color:#e6e6e6"/><stop id="stop624" offset=".018" style="stop-color:#e7e7e7"/><stop id="stop625" offset=".299" style="stop-color:#f9f9f9"/><stop id="stop626" offset=".506" style="stop-color:#fff"/><stop id="stop627" offset=".768" style="stop-color:#fafafa"/><stop id="stop628" offset="1" style="stop-color:#f0f0f0"/></linearGradient></defs><metadata id="metadata549"><xpacket>begin=&apos; &apos; id=&apos;W5M0MpCehiHzreSzNTczkc9d&apos;</xpacket><x:xmpmeta x:xmptk="XMP toolkit 3.0-29, framework 1.6"><metadata/></x:xmpmeta><xpacket>end=&apos;w&apos;</xpacket></metadata><g id="g7003" transform="matrix(1.1214754,0,0,1.1214754,6.7700934,6.7697046)"><path style="opacity:.2" id="path551" d="m 3.1911244,50.084406 c 0,10.659886 6.8617566,20.702364 18.4945946,27.263931 C 19.015957,80.7377 16.442,83.158369 14.632353,84.66357 l -5.2586222,4.364443 6.8234342,-0.378961 c 9.248362,-0.510959 16.925524,-2.218415 22.871812,-5.052109 4.183478,0.815406 8.490439,1.241205 12.822947,1.241205 26.855164,0 48.700796,-15.588514 48.700796,-34.751613 0,-19.160971 -21.847761,-34.751613 -48.700796,-34.751613 C 25.03676,15.330664 3.1911244,30.921306 3.1911244,50.084406 Z"/><path style="opacity:.2" id="path552" d="m 2.799389,48.9092 c 0,10.659886 6.8638854,20.700234 18.496723,27.263931 -2.669762,3.389363 -5.243719,5.810032 -7.053366,7.313104 l -5.2586216,4.364443 6.8234346,-0.378961 c 9.248362,-0.510959 16.925524,-2.218415 22.871811,-5.052109 4.183479,0.815405 8.490439,1.243334 12.822948,1.243334 26.855164,0 48.700802,-15.590643 48.700802,-34.753742 0,-19.1631 -21.847767,-34.751614 -48.702931,-34.751614 -26.853036,0 -48.7008,15.590643 -48.7008,34.751614 z"/><path style="fill:#aa1000;fill-opacity:.8745098" id="path559" d="m 1.8072766,48.127858 c 0,10.662015 6.8617563,20.702364 18.4945944,27.26606 -2.669762,3.387234 -5.243719,5.810032 -7.053366,7.313104 l -5.258622,4.364443 6.823434,-0.378961 c 9.248362,-0.510959 16.925524,-2.218415 22.871812,-5.052109 4.183478,0.815406 8.490439,1.241205 12.825076,1.241205 26.853035,0 48.7008,-15.588514 48.7008,-34.751613 0,-19.160971 -21.847765,-34.751613 -48.7008,-34.751613 C 23.655041,13.374116 1.8072766,28.964758 1.8072766,48.127858 Z"/><path style="fill:url(#XMLID_14_)" id="path574" d="m 50.510205,15.630852 c -25.61183,0 -46.4461919,14.577241 -46.4461919,32.497006 0,10.934527 7.7644509,20.617204 19.6314789,26.508138 -3.159431,4.441087 -6.40828,7.647356 -9.003527,9.8019 10.815303,-0.598248 17.992151,-2.776211 22.699362,-5.143656 4.164318,0.860115 8.564954,1.328494 13.123136,1.328494 25.609701,0 46.444063,-14.579369 46.444063,-32.497005 -0.0043,-17.917636 -20.83862,-32.494877 -46.448321,-32.494877 z"/><path style="fill:url(#XMLID_15_);fill-opacity:1" id="path581" d="m 34.440538,79.29424 c -4.219671,2.12261 -10.434213,4.089803 -19.467546,4.905209 -0.09368,0.07877 -0.189481,0.161804 -0.283156,0.238447 10.20641,-0.566313 17.170358,-2.535635 21.87757,-4.745533 -0.713214,-0.123482 -1.424299,-0.253351 -2.126868,-0.398123 z M 50.510205,15.630852 c -0.493927,0 -0.983596,0.0064 -1.473266,0.01703 24.930552,0.547152 44.972927,14.905106 44.972927,32.477845 0,17.568481 -20.029601,31.922176 -44.951637,32.477844 0.483283,0.01064 0.966565,0.01916 1.451976,0.01916 25.609701,0 46.444063,-14.579369 46.444063,-32.497005 0,-17.917636 -20.834362,-32.494877 -46.444063,-32.494877 z"/><path style="fill:url(#XMLID_16_)" id="path588" d="m 39.735353,79.29424 c -0.215029,0.108579 -0.440703,0.215029 -0.666376,0.321479 3.661874,0.653602 7.491939,1.007015 11.441228,1.007015 0.434315,0 0.868631,-0.0043 1.300817,-0.01277 -4.185607,-0.066 -8.23283,-0.521604 -12.075669,-1.31572 z m -25.045517,5.143656 c 0.881404,-0.04897 1.728745,-0.112836 2.563312,-0.180964 2.561183,-2.152416 5.716356,-5.301202 8.788498,-9.623065 C 14.176747,68.740804 6.4122964,59.060256 6.4122964,48.125729 c 0,-17.645125 20.2020496,-32.047788 45.2731146,-32.486361 -0.391735,-0.0064 -0.781342,-0.01064 -1.173077,-0.01064 -25.61183,0 -46.4461919,14.577241 -46.4461919,32.497006 0,10.934527 7.7644509,20.617204 19.6314789,26.508138 -3.163689,4.443216 -6.412538,7.649485 -9.007785,9.804029 z"/><path style="fill:url(#XMLID_17_)" id="path601" d="m 16.284454,32.409475 c 13.723513,7.670775 29.365252,9.554937 45.373178,5.377846 3.304203,-0.919727 6.659501,-2.033192 9.901963,-3.112593 3.908838,-1.298688 7.930513,-2.616537 11.971349,-3.640585 C 77.116277,22.76512 64.501971,17.487337 50.442077,17.487337 c -14.760334,0 -28.202819,5.94203 -34.157623,14.922138 z"/><path style="fill:#ea4e00;fill-opacity:1" id="path611" d="m 71.086958,56.047725 c -0.0043,0 -41.008734,0 -41.010863,0 -0.851599,-0.183093 -1.696811,-0.0149 -2.333381,0.483283 -0.596119,0.468379 -0.938887,1.162432 -0.938887,1.903323 0,9.533647 10.666273,17.287453 23.776635,17.287453 13.110362,0 23.778764,-7.755935 23.778764,-17.287453 0,-0.740891 -0.342768,-1.434944 -0.938887,-1.903323 -0.63657,-0.496056 -1.483911,-0.666376 -2.333381,-0.483283 z"/><path style="fill:#ff6d00;fill-opacity:1" id="path621" d="m 71.086958,56.44159 c -0.0043,0 -41.008734,0 -41.010863,0 -0.851599,-0.183094 -1.696811,-0.01703 -2.333381,0.481153 -0.596119,0.470508 -0.938887,1.162432 -0.938887,1.903323 0,9.533647 10.666273,17.287453 23.776635,17.287453 13.110362,0 23.778764,-7.755935 23.778764,-17.287453 0,-0.740891 -0.342768,-1.432815 -0.938887,-1.903323 -0.63657,-0.498185 -1.483911,-0.664247 -2.333381,-0.481153 z"/><path style="fill:url(#XMLID_20_)" id="path634" d="m 30.073966,57.465637 c -0.670634,0 -1.215657,0.432187 -1.215657,0.966565 0,8.535148 9.744418,15.479935 21.724282,15.479935 11.977735,0 21.722153,-6.944787 21.722153,-15.479935 0,-0.534378 -0.542894,-0.966565 -1.213528,-0.966565 l -41.01725,0 z"/><g id="g635" transform="matrix(2.1289967,0,0,2.1289967,0.1040792,0.1040792)"><g id="g636"><ellipse id="ellipse637" cx="15.882" cy="18.04" rx="3.979" ry="5.825"/><ellipse style="fill:#b1b1c5" id="ellipse638" cx="15.886" cy="18.098" rx="3.467" ry="5.075"/><linearGradient id="XMLID_21_" x1="37.125" x2="43.742" y1="6.046" y2="6.046" gradientTransform="matrix(0.9962,-0.0872,0.0872,0.9962,-24.7865,15.8203)" gradientUnits="userSpaceOnUse"><stop style="stop-color:#fff" id="stop640" offset="0"/><stop style="stop-color:#cecedb" id="stop641" offset="1"/></linearGradient><ellipse style="fill:url(#XMLID_21_)" id="ellipse645" cx="16.021" cy="18.317" rx="3.309" ry="4.844"/><path style="opacity:.5;fill:#fff" id="path646" d="m 14.052,18.249 c 0.451,-2.174 1.952,-3.726 3.442,-3.637 -0.506,-0.419 -1.09,-0.64 -1.695,-0.587 -1.609,0.141 -2.746,2.165 -2.54,4.52 0.096,1.094 0.465,2.066 0.993,2.781 -0.34,-0.857 -0.435,-1.947 -0.2,-3.077 z"/><circle id="circle647" cx="16.831" cy="19.636" r="1.733"/><linearGradient id="XMLID_22_" x1="41.061" x2="41.061" y1="4.354" y2="7.661" gradientTransform="matrix(0.9962,-0.0872,0.0872,0.9962,-24.7865,15.8203)" gradientUnits="userSpaceOnUse"><stop style="stop-color:#fff" id="stop649" offset="0"/><stop style="stop-color:#000" id="stop650" offset="1"/></linearGradient><circle style="fill:url(#XMLID_22_)" id="circle654" cx="16.746" cy="19.412" r="1.353"/></g><g id="g655"><ellipse id="ellipse656" cx="30.904" cy="18.04" rx="3.979" ry="5.825"/><ellipse style="fill:#b1b1c5" id="ellipse657" cx="30.899" cy="18.098" rx="3.467" ry="5.075"/><linearGradient id="XMLID_23_" x1="536.088" x2="542.706" y1="34.568" y2="34.568" gradientTransform="matrix(-0.9962,-0.0872,-0.0872,0.9962,571.1264,30.916)" gradientUnits="userSpaceOnUse"><stop style="stop-color:#fff" id="stop659" offset="0"/><stop style="stop-color:#cecedb" id="stop660" offset="1"/></linearGradient><ellipse style="fill:url(#XMLID_23_)" id="ellipse664" cx="30.765" cy="18.317" rx="3.309" ry="4.844"/><path style="opacity:.5;fill:#fff" id="path665" d="m 32.733,18.249 c -0.45,-2.174 -1.95,-3.726 -3.442,-3.637 0.506,-0.419 1.091,-0.64 1.694,-0.587 1.61,0.141 2.748,2.165 2.542,4.52 -0.097,1.094 -0.465,2.066 -0.994,2.781 0.342,-0.857 0.436,-1.947 0.2,-3.077 z"/><circle id="circle666" cx="29.954" cy="19.636" r="1.734"/><linearGradient id="XMLID_24_" x1="540.024" x2="540.024" y1="32.878" y2="36.184" gradientTransform="matrix(-0.9962,-0.0872,-0.0872,0.9962,571.1264,30.916)" gradientUnits="userSpaceOnUse"><stop style="stop-color:#fff" id="stop668" offset="0"/><stop style="stop-color:#000" id="stop669" offset="1"/></linearGradient><circle style="fill:url(#XMLID_24_)" id="circle673" cx="30.039" cy="19.412" r="1.353"/></g></g></g><polyline style="fill:none" id="_x3C_Slice_x3E_" points="0 48 0 0 48 0 48 48" transform="matrix(2.1289967,0,0,2.1289967,0.1040792,0.1040792)"/></svg>