<svg xmlns="http://www.w3.org/2000/svg" xmlns:svg="http://www.w3.org/2000/svg" xmlns:xlink="http://www.w3.org/1999/xlink" id="svg4418" width="64" height="64" version="1.1" viewBox="0 0 64 64"><defs id="defs4420"><linearGradient id="linearGradient4175" x1="221.456" x2="227.58" y1="140.612" y2="108.388" gradientUnits="userSpaceOnUse" xlink:href="#linearGradient4169"/><linearGradient id="linearGradient4169"><stop style="stop-color:#549200;stop-opacity:1" id="stop4171" offset="0"/><stop style="stop-color:#89b824;stop-opacity:.99215686" id="stop4173" offset="1"/></linearGradient><linearGradient id="linearGradient4159" x1="222.506" x2="224.807" y1="141.54" y2="109.184" gradientTransform="matrix(1.0464932,0,0,1.0464932,-10.500239,-5.8099907)" gradientUnits="userSpaceOnUse" xlink:href="#linearGradient4153"/><linearGradient id="linearGradient4153"><stop style="stop-color:#a4cc3e;stop-opacity:1" id="stop4155" offset="0"/><stop style="stop-color:#e5fa96;stop-opacity:1" id="stop4157" offset="1"/></linearGradient><linearGradient id="linearGradient4167" x1="222.953" x2="228.47" y1="139.286" y2="111.836" gradientUnits="userSpaceOnUse" xlink:href="#linearGradient4161"/><linearGradient id="linearGradient4161"><stop style="stop-color:#97d600;stop-opacity:1" id="stop4163" offset="0"/><stop style="stop-color:#98c400;stop-opacity:1" id="stop4165" offset="1"/></linearGradient></defs><metadata id="metadata4423"/><g id="layer1" transform="translate(0,-988.36216)"><g id="check-circle" transform="matrix(1.7349701,0,0,1.7349701,-359.83268,803.55314)"><circle id="path4147" cx="225.844" cy="124.964" r="18.444" style="opacity:1;fill:url(#linearGradient4175);fill-opacity:1;stroke:none;stroke-width:.41800001;stroke-linecap:round;stroke-linejoin:round;stroke-miterlimit:4;stroke-dasharray:none;stroke-dashoffset:0;stroke-opacity:1"/><circle style="opacity:1;fill:url(#linearGradient4159);fill-opacity:1;stroke:none;stroke-width:.37318179;stroke-linecap:round;stroke-linejoin:round;stroke-miterlimit:4;stroke-dasharray:none;stroke-dashoffset:0;stroke-opacity:1" id="circle4149" cx="225.844" cy="124.964" r="17.232"/><circle id="circle4151" cx="225.844" cy="124.964" r="15.489" style="opacity:1;fill:url(#linearGradient4167);fill-opacity:1;stroke:none;stroke-width:.32836357;stroke-linecap:round;stroke-linejoin:round;stroke-miterlimit:4;stroke-dasharray:none;stroke-dashoffset:0;stroke-opacity:1"/><path style="fill:#fff" id="path4233" d="m 236.78583,120.9292 -13.39628,13.39628 c -0.27392,0.27548 -0.71908,0.27548 -0.99144,0 l -1.9798,-2 c -0.27236,-0.27396 -0.71908,-0.7222 -0.98988,-0.99924 l -4.60708,-4.84364 c -0.1354,-0.13543 -0.207,-0.32688 -0.207,-0.50896 0,-0.179 0.0716,-0.35332 0.207,-0.48872 l 2.01872,-1.81948 c 0.13696,-0.14008 0.31904,-0.20856 0.4996,-0.20856 0.17744,0.001 0.35488,0.0716 0.49028,0.20856 l 4.56972,4.66152 c 0.27236,0.27704 0.71752,0.27704 0.99144,0 L 233.8177,117.9284 c 0.27393,-0.27548 0.71751,-0.27548 0.98989,0 l 1.9798,2 c 0.27236,0.27396 0.27236,0.72532 -10e-4,1.0008 z"/></g></g></svg>