<svg xmlns="http://www.w3.org/2000/svg" xmlns:svg="http://www.w3.org/2000/svg" id="svg8" width="32" height="32" version="1.1" viewBox="0 0 8.467 8.467"><metadata id="metadata5"/><g id="layer1" transform="translate(0,-288.53332)"><path id="path987" d="m 6.092867,292.68809 q 0,-0.56086 -0.276641,-1.03457 -0.276642,-0.4737 -0.750342,-0.75034 -0.473701,-0.27664 -1.034562,-0.27664 -0.560862,0 -1.034563,0.27664 -0.4737,0.27665 -0.750341,0.75034 -0.276641,0.47371 -0.276641,1.03457 0,0.56086 0.276641,1.03456 0.276641,0.4737 0.750341,0.75034 0.473701,0.27664 1.034563,0.27664 0.560861,0 1.034562,-0.27664 0.4737,-0.27664 0.750342,-0.75034 0.276641,-0.4737 0.276641,-1.03456 z m 0.848871,0 q 0,0.79202 -0.390329,1.46089 -0.390329,0.66887 -1.059195,1.0592 -0.668865,0.39032 -1.460892,0.39032 -0.792028,0 -1.460893,-0.39032 -0.668866,-0.39033 -1.059195,-1.0592 -0.390329,-0.66887 -0.390329,-1.46089 0,-0.79203 0.390329,-1.46089 0.390329,-0.66887 1.059195,-1.0592 0.668865,-0.39033 1.460893,-0.39033 0.792027,0 1.460892,0.39033 0.668866,0.39033 1.059195,1.0592 0.390329,0.66886 0.390329,1.46089 z" style="fill:#fff;stroke-width:.00378961"/><path style="stroke-width:.00378961;fill:#fff" id="path989" d="m 5.558532,292.37355 -1.599213,1.59921 q -0.072,0.072 -0.170532,0.072 -0.09853,0 -0.170533,-0.072 l -1.114143,-1.11414 q -0.072,-0.072 -0.072,-0.17053 0,-0.0985 0.072,-0.17053 l 0.38654,-0.38655 q 0.072,-0.072 0.170532,-0.072 0.09853,0 0.170532,0.072 l 0.557072,0.55708 1.042141,-1.04214 q 0.072,-0.072 0.170532,-0.072 0.09853,0 0.170533,0.072 l 0.386539,0.38654 q 0.072,0.072 0.072,0.17053 0,0.0985 -0.072,0.17053 z"/></g></svg>