<svg xmlns="http://www.w3.org/2000/svg" xmlns:svg="http://www.w3.org/2000/svg" id="svg8" width="32" height="32" version="1.1" viewBox="0 0 8.467 8.467"><metadata id="metadata5"/><g id="layer1" transform="translate(0,-288.53332)"><g id="g1000" transform="translate(-25.03826,260.87949)" style="fill:#666"><path style="stroke-width:.00378961;fill:#666" id="path963" d="m 30.798804,31.57263 -1.599213,1.599214 q -0.072,0.072 -0.170532,0.072 -0.09853,0 -0.170533,-0.072 L 27.744383,32.0577 q -0.072,-0.072 -0.072,-0.170533 0,-0.09853 0.072,-0.170532 l 0.38654,-0.38654 q 0.072,-0.072 0.170532,-0.072 0.09853,0 0.170532,0.072 l 0.557072,0.557072 1.042141,-1.042141 q 0.072,-0.072 0.170532,-0.072 0.09853,0 0.170533,0.072 l 0.386539,0.38654 q 0.072,0.072 0.072,0.170532 0,0.09853 -0.072,0.170532 z m 0.534335,0.314537 q 0,-0.560861 -0.276641,-1.034562 -0.276642,-0.4737 -0.750342,-0.750341 -0.473701,-0.276642 -1.034562,-0.276642 -0.560862,0 -1.034563,0.276642 -0.4737,0.276641 -0.750341,0.750341 -0.276641,0.473701 -0.276641,1.034562 0,0.560862 0.276641,1.034563 0.276641,0.4737 0.750341,0.750342 0.473701,0.27664 1.034563,0.27664 0.560861,0 1.034562,-0.27664 0.4737,-0.276642 0.750342,-0.750342 0.276641,-0.473701 0.276641,-1.034563 z m 0.848871,0 q 0,0.792028 -0.390329,1.460893 -0.390329,0.668866 -1.059195,1.059195 -0.668865,0.390329 -1.460892,0.390329 -0.792028,0 -1.460893,-0.390329 -0.668866,-0.390329 -1.059195,-1.059195 -0.390329,-0.668865 -0.390329,-1.460893 0,-0.792027 0.390329,-1.460892 0.390329,-0.668866 1.059195,-1.059195 0.668865,-0.390329 1.460893,-0.390329 0.792027,0 1.460892,0.390329 0.668866,0.390329 1.059195,1.059195 0.390329,0.668865 0.390329,1.460892 z"/></g></g></svg>