<svg xmlns="http://www.w3.org/2000/svg" xmlns:svg="http://www.w3.org/2000/svg" xmlns:xlink="http://www.w3.org/1999/xlink" id="svg1" width="128" height="128" version="1.0" viewBox="0 0 128 128" xml:space="preserve"><metadata id="metadata2392"/><defs id="defs419"><linearGradient id="linearGradient5024"><stop style="stop-color:#fff;stop-opacity:1" id="stop5026" offset="0"/><stop style="stop-color:#fff;stop-opacity:0" id="stop5028" offset="1"/></linearGradient><linearGradient id="linearGradient5153" x1="466.688" x2="466.688" y1="664.792" y2="709.067" gradientTransform="matrix(3.7565752,0,0,3.7565752,-1281.1474,-1839.9864)" gradientUnits="userSpaceOnUse" xlink:href="#linearGradient5024"/><linearGradient id="linearGradient5032"><stop style="stop-color:#ce1212;stop-opacity:1" id="stop5034" offset="0"/><stop style="stop-color:#ff1212;stop-opacity:1" id="stop5036" offset="1"/></linearGradient><linearGradient id="linearGradient5125" x1="-6.627" x2="16" y1="48" y2="-6.627" gradientUnits="userSpaceOnUse" xlink:href="#linearGradient5032"/><filter id="filter5068"><feGaussianBlur id="feGaussianBlur5070" stdDeviation=".164"/></filter></defs><g id="Layer_1" transform="scale(0.5,0.5)"><g id="g116"><linearGradient id="XMLID_11_" x1="128" x2="128" y1="244.428" y2="11.573" gradientUnits="userSpaceOnUse"><stop id="stop120" offset=".006" style="stop-color:#0035ed;stop-opacity:1"/><stop id="stop122" offset=".545" style="stop-color:#00008d;stop-opacity:1"/><stop id="stop124" offset="1" style="stop-color:#0053bd;stop-opacity:1"/><midPointStop id="midPointStop126" offset=".006" style="stop-color:#0035ed"/><midPointStop id="midPointStop128" offset=".5" style="stop-color:#0035ed"/><midPointStop id="midPointStop130" offset=".545" style="stop-color:#00008d"/><midPointStop id="midPointStop132" offset=".5" style="stop-color:#00008d"/><midPointStop id="midPointStop134" offset="1" style="stop-color:#0053bd"/></linearGradient><path id="path137" d="m 4.9804688,128 c 0,67.83203 55.1875002,123.02148 123.0214812,123.02148 67.83106,0 123.01758,-55.18945 123.01758,-123.02148 C 251.01953,60.166504 195.83301,4.9785156 128.00195,4.9785156 60.167969,4.9785156 4.9804688,60.166504 4.9804688,128 Z" style="fill:url(#XMLID_11_)"/><linearGradient id="XMLID_12_" x1="128" x2="127.999" y1="244.407" y2="11.546" gradientUnits="userSpaceOnUse"><stop id="stop141" offset=".006" style="stop-color:#428aff;stop-opacity:1"/><stop id="stop143" offset=".573" style="stop-color:#94caff;stop-opacity:1"/><stop id="stop145" offset="1" style="stop-color:#dcf0ff;stop-opacity:1"/><midPointStop id="midPointStop147" offset=".006" style="stop-color:#428aff"/><midPointStop id="midPointStop149" offset=".5" style="stop-color:#428aff"/><midPointStop id="midPointStop151" offset=".573" style="stop-color:#94caff"/><midPointStop id="midPointStop153" offset=".5" style="stop-color:#94caff"/><midPointStop id="midPointStop155" offset="1" style="stop-color:#dcf0ff"/></linearGradient><path id="path158" d="m 12.379883,128 c 0,63.75391 51.868164,115.62109 115.622067,115.62109 63.75196,0 115.61719,-51.86718 115.61719,-115.62109 0,-63.753906 -51.86523,-115.621582 -115.61719,-115.621582 C 64.248047,12.378418 12.379883,64.246094 12.379883,128 Z" style="fill:url(#XMLID_12_)"/><linearGradient id="XMLID_13_" x1="128.002" x2="128.002" y1="239.712" y2="16.285" gradientUnits="userSpaceOnUse"><stop id="stop162" offset="0" style="stop-color:#fff;stop-opacity:1"/><stop id="stop164" offset=".5" style="stop-color:#006dff;stop-opacity:1"/><stop id="stop166" offset="1" style="stop-color:#c9e6ff;stop-opacity:1"/><midPointStop id="midPointStop168" offset="0" style="stop-color:#fff"/><midPointStop id="midPointStop170" offset=".5" style="stop-color:#fff"/><midPointStop id="midPointStop172" offset=".5" style="stop-color:#006dff"/><midPointStop id="midPointStop174" offset=".5" style="stop-color:#006dff"/><midPointStop id="midPointStop176" offset="1" style="stop-color:#c9e6ff"/></linearGradient><path id="path179" d="m 16.285156,128 c 0,61.60352 50.119141,111.71191 111.716794,111.71191 61.60157,0 111.7168,-50.10839 111.7168,-111.71191 0,-61.597656 -50.11523,-111.715332 -111.7168,-111.715332 C 66.404297,16.284668 16.285156,66.402344 16.285156,128 Z" style="fill:url(#XMLID_13_)"/><path id="path181" d="m 128.00195,30.241699 c -56.102536,0 -101.750973,45.638184 -101.750973,101.747561 0,56.10254 45.648437,101.73926 101.750973,101.73926 56.1045,0 101.74805,-45.63672 101.74805,-101.73926 0,-56.109377 -45.64355,-101.747561 -101.74805,-101.747561 z" style="opacity:.8;fill:#fff"/><path id="path183" d="m 26.250977,128 c 0,56.10645 45.648437,101.73926 101.750973,101.73926 C 184.10645,229.73926 229.75,184.10645 229.75,128 229.75,71.896973 184.10645,26.252441 128.00195,26.252441 71.899414,26.252441 26.250977,71.896973 26.250977,128 Z" style="fill:#00008d"/><radialGradient id="XMLID_14_" cx="59.616" cy="234.039" r="69.963" fx="59.616" fy="234.039" gradientTransform="matrix(1.4187,0,0,1.4187,43.4252,-204.0338)" gradientUnits="userSpaceOnUse"><stop id="stop187" offset=".601" style="stop-color:#fff;stop-opacity:1"/><stop id="stop189" offset=".876" style="stop-color:#eaeaf0;stop-opacity:1"/><stop id="stop191" offset=".914" style="stop-color:#e6e6ed;stop-opacity:1"/><stop id="stop193" offset=".95" style="stop-color:#dbdbe5;stop-opacity:1"/><stop id="stop195" offset=".985" style="stop-color:#c8c8d7;stop-opacity:1"/><stop id="stop197" offset="1" style="stop-color:#bdbdcf;stop-opacity:1"/><midPointStop id="midPointStop199" offset=".601" style="stop-color:#fff"/><midPointStop id="midPointStop201" offset=".5" style="stop-color:#fff"/><midPointStop id="midPointStop203" offset=".876" style="stop-color:#eaeaf0"/><midPointStop id="midPointStop205" offset=".718" style="stop-color:#eaeaf0"/><midPointStop id="midPointStop207" offset="1" style="stop-color:#bdbdcf"/></radialGradient><path id="path210" d="m 28.743164,128 c 0,54.72852 44.526367,99.25293 99.258786,99.25293 54.73145,0 99.25977,-44.52441 99.25977,-99.25293 0,-54.729004 -44.52832,-99.256836 -99.25977,-99.256836 -54.732419,0 -99.258786,44.527832 -99.258786,99.256836 z" style="fill:url(#XMLID_14_)"/><path id="path212" d="m 32.070312,124.75635 c -1.104492,0 -2,0.89551 -2,2 l 0,2.48681 c 0,1.1045 0.895508,2 2,2 l 17.441407,0 c 1.104492,0 2,-0.8955 2,-2 l 0,-2.48681 c 0,-1.10449 -0.895508,-2 -2,-2 l -17.441407,0 z" style="fill:#616161"/><rect id="rect214" width="17.441" height="2.487" x="32.07" y="126.756" style="fill:#616161"/><path id="path216" d="m 206.49023,124.75635 c -1.10449,0 -2,0.89551 -2,2 l 0,2.48681 c 0,1.1045 0.89551,2 2,2 l 17.44825,0 c 1.10449,0 2,-0.8955 2,-2 l 0,-2.48681 c 0,-1.10449 -0.89551,-2 -2,-2 l -17.44825,0 z" style="fill:#616161"/><rect id="rect218" width="17.448" height="2.487" x="206.49" y="126.756" style="fill:#616161"/><path id="path220" d="m 126.75586,204.49023 c -1.10449,0 -2,0.89551 -2,2 l 0,17.44141 c 0,1.10449 0.89551,2 2,2 l 2.49219,0 c 1.10449,0 2,-0.89551 2,-2 l 0,-17.44141 c 0,-1.10449 -0.89551,-2 -2,-2 l -2.49219,0 z" style="fill:#616161"/><rect id="rect222" width="2.492" height="17.441" x="126.756" y="206.49" style="fill:#616161"/><path id="path224" d="m 126.75586,30.067871 c -1.10449,0 -2,0.895508 -2,2 l 0,17.441406 c 0,1.104493 0.89551,2 2,2 l 2.49219,0 c 1.10449,0 2,-0.895507 2,-2 l 0,-17.441406 c 0,-1.104492 -0.89551,-2 -2,-2 l -2.49219,0 0,0 z" style="fill:#616161"/><rect id="rect226" width="2.492" height="17.441" x="126.756" y="32.068" style="fill:#616161"/><path id="path228" d="m 169.80664,197.93555 -2.15137,1.25 c -0.95312,0.55468 -1.27832,1.77539 -0.72656,2.73047 l 6.23145,10.77929 c 0.55175,0.95508 1.77246,1.28223 2.72851,0.73242 l 2.15723,-1.24023 c 0.45996,-0.26465 0.79687,-0.70117 0.93457,-1.21484 0.13769,-0.5127 0.0664,-1.05957 -0.2002,-1.51954 l -6.2373,-10.78906 c -0.26563,-0.45996 -0.7041,-0.79492 -1.2168,-0.93164 -0.51367,-0.13672 -1.06055,-0.0635 -1.51953,0.20313 z" style="fill:#616161"/><polygon id="polygon230" points="168.66 200.915 174.892 211.694 177.049 210.454 177.049 210.454 170.812 199.665" style="fill:#616161"/><path id="path232" d="m 80.115234,42.565918 -2.159179,1.247559 c -0.957032,0.552734 -1.28418,1.775879 -0.731446,2.732421 l 6.229493,10.783692 c 0.552734,0.956055 1.77539,1.283691 2.731445,0.731445 l 2.15625,-1.244629 c 0.956055,-0.552246 1.28418,-1.77539 0.731445,-2.731933 L 82.847656,43.297852 c -0.265625,-0.459473 -0.702148,-0.794434 -1.214843,-0.932129 -0.512696,-0.137207 -1.058594,-0.06494 -1.517579,0.200195 z" style="fill:#616161"/><rect id="rect234" width="12.455" height="2.494" x="76.922" y="49.068" transform="matrix(0.499934,0.866063,-0.866063,0.499934,85.15588,-46.85146)" style="fill:#616161"/><path id="path236" d="m 84.669922,197.73242 c -0.512695,0.1377 -0.950195,0.47266 -1.21582,0.93262 l -6.229493,10.78906 c -0.265625,0.45996 -0.33789,1.00684 -0.199218,1.51953 0.137695,0.5127 0.473632,0.9502 0.93457,1.21485 l 2.15918,1.24023 c 0.956054,0.54883 2.176757,0.22168 2.728515,-0.73437 l 6.225586,-10.7793 c 0.551758,-0.95508 0.225586,-2.17676 -0.728515,-2.73047 l -2.155274,-1.25 c -0.459961,-0.26562 -1.006836,-0.33887 -1.519531,-0.20215 z" style="fill:#616161"/><polygon id="polygon238" points="85.186 199.665 78.956 210.454 81.115 211.694 81.115 211.694 87.342 200.915" style="fill:#616161"/><path id="path240" d="m 173.15918,43.297852 -6.23145,10.790527 c -0.26464,0.459473 -0.33691,1.005371 -0.19921,1.518066 0.13769,0.512696 0.47265,0.949219 0.93261,1.214356 l 2.15137,1.240722 c 0.95605,0.55127 2.17773,0.224122 2.73047,-0.731445 l 6.2373,-10.787109 c 0.26563,-0.459473 0.33789,-1.00586 0.2002,-1.518555 -0.13672,-0.512695 -0.47266,-0.949707 -0.93262,-1.214844 l -2.15722,-1.24414 c -0.95606,-0.551758 -2.17872,-0.224121 -2.73145,0.732422 z" style="fill:#616161"/><polygon id="polygon242" points="174.892 44.298 168.66 55.088 170.812 56.329 170.812 56.329 177.049 45.542" style="fill:#616161"/><path id="path244" d="m 54.084961,166.9248 -10.786133,6.2334 c -0.458984,0.26563 -0.793945,0.70215 -0.930664,1.21485 -0.137695,0.51367 -0.06445,1.05957 0.201172,1.51855 l 1.24707,2.1543 c 0.552735,0.95508 1.775391,1.28223 2.731445,0.72949 l 10.786133,-6.23437 c 0.459961,-0.26563 0.794922,-0.70313 0.931641,-1.21582 0.136719,-0.5127 0.06445,-1.0586 -0.202149,-1.51758 l -1.24707,-2.15332 c -0.552734,-0.95508 -1.77539,-1.28223 -2.731445,-0.7295 z" style="fill:#616161"/><rect id="rect246" width="12.458" height="2.488" x="44.087" y="171.606" transform="matrix(-0.865782,0.500421,-0.500421,-0.865782,180.3773,297.3212)" style="fill:#616161"/><path id="path248" d="m 209.45703,77.222656 -10.78906,6.232422 c -0.46094,0.266114 -0.7959,0.70459 -0.93262,1.218262 -0.13672,0.513672 -0.0625,1.060547 0.2041,1.520508 l 1.25391,2.152832 c 0.55469,0.95166 1.77441,1.275879 2.72852,0.725097 l 10.78613,-6.228515 c 0.45996,-0.265625 0.7959,-0.703125 0.93262,-1.216309 0.13671,-0.513183 0.0635,-1.060058 -0.20215,-1.519043 l -1.25098,-2.156738 c -0.55371,-0.954102 -1.77539,-1.280274 -2.73047,-0.728516 z" style="fill:#616161"/><rect id="rect250" width="12.455" height="2.493" x="199.462" y="81.901" transform="matrix(-0.865986,0.500069,-0.500069,-0.865986,425.3929,52.29269)" style="fill:#616161"/><path id="path252" d="m 199.19336,167.64941 -1.25391,2.15332 c -0.26758,0.45997 -0.34082,1.00684 -0.2041,1.52051 0.13672,0.51367 0.47168,0.95215 0.93164,1.21778 l 10.78906,6.23437 c 0.95606,0.55273 2.17872,0.22656 2.73145,-0.72852 l 1.25098,-2.15917 c 0.2666,-0.45997 0.33886,-1.00586 0.20214,-1.51856 -0.13769,-0.51367 -0.47265,-0.95117 -0.93261,-1.2168 l -10.78614,-6.22851 c -0.9541,-0.55078 -2.17285,-0.22656 -2.72851,0.72558 z" style="fill:#616161"/><polygon id="polygon254" points="199.668 170.81 210.457 177.044 211.708 174.885 211.708 174.885 200.922 168.656" style="fill:#616161"/><rect id="rect256" width="3.85" height="122.203" x="103.964" y="94.231" transform="matrix(-0.760473,-0.64937,0.64937,-0.760473,85.54559,342.2205)" style="opacity:.2"/><linearGradient id="XMLID_15_" x1="62.463" x2="154.298" y1="149.695" y2="149.695" gradientTransform="matrix(0.9546,0.0532,0.0532,0.9377,-6.635652,8.097183)" gradientUnits="userSpaceOnUse"><stop id="stop260" offset="0" style="stop-color:#f66;stop-opacity:1"/><stop id="stop262" offset="1" style="stop-color:red;stop-opacity:1"/><midPointStop id="midPointStop264" offset="0" style="stop-color:#f66"/><midPointStop id="midPointStop266" offset=".5" style="stop-color:#f66"/><midPointStop id="midPointStop268" offset="1" style="stop-color:red"/></linearGradient><polygon id="polygon271" points="145.917 109.005 142.988 106.506 63.66 199.461 63.66 199.461 66.589 201.961" style="fill:url(#XMLID_15_)"/><path id="path273" d="m 43.81543,77.953613 -1.247071,2.156739 c -0.265625,0.458984 -0.33789,1.005371 -0.200195,1.518066 0.136719,0.512207 0.472656,0.949707 0.931641,1.214844 l 10.786133,6.228515 c 0.956054,0.552246 2.179687,0.22461 2.731445,-0.731445 l 1.24707,-2.158203 c 0.265625,-0.459473 0.337891,-1.005371 0.201172,-1.517578 -0.137695,-0.512695 -0.472656,-0.949707 -0.932617,-1.214844 L 46.546875,77.222656 C 45.59082,76.67041 44.368164,76.997559 43.81543,77.953613 Z" style="fill:#616161"/><rect id="rect275" width="12.455" height="2.491" x="44.089" y="81.901" transform="matrix(0.866037,0.49998,-0.49998,0.866037,48.31216,-14.01864)" style="fill:#616161"/><path id="path277" d="m 189.22363,108.87109 c -0.15722,-0.58545 -0.73047,-0.94238 -1.28027,-0.79492 l -62.29004,16.68994 c -0.5498,0.14746 -0.86816,0.74219 -0.71094,1.33008 l 1.84961,6.90576 c 0.15821,0.58789 0.73047,0.94336 1.28125,0.7959 l 62.29004,-16.69092 c 0.54981,-0.14697 0.86914,-0.74218 0.71192,-1.32861 l -1.85157,-6.90723 z" style="opacity:.2"/><path id="path279" d="m 188.12402,107.771 c -0.15722,-0.58545 -0.73047,-0.9419 -1.28125,-0.79493 l -62.28906,16.68995 c -0.5498,0.14746 -0.86914,0.74267 -0.71094,1.33007 l 1.84961,6.90625 c 0.15821,0.58789 0.73047,0.94336 1.28028,0.7959 l 62.29101,-16.6914 c 0.54981,-0.14698 0.86914,-0.74219 0.71192,-1.32862 l -1.85157,-6.90722 z" style="fill:#585868"/><linearGradient id="XMLID_16_" x1="-123.349" x2="-116.198" y1="-86.029" y2="-86.029" gradientTransform="matrix(0.2588,0.9659,-0.9659,0.2588,104.8109,257.7903)" gradientUnits="userSpaceOnUse"><stop id="stop283" offset="0" style="stop-color:#585868;stop-opacity:1"/><stop id="stop285" offset=".008" style="stop-color:#656575;stop-opacity:1"/><stop id="stop287" offset=".034" style="stop-color:#8b8b99;stop-opacity:1"/><stop id="stop289" offset=".06" style="stop-color:#a8a8b6;stop-opacity:1"/><stop id="stop291" offset=".086" style="stop-color:#bdbdcb;stop-opacity:1"/><stop id="stop293" offset=".111" style="stop-color:#cacad7;stop-opacity:1"/><stop id="stop295" offset=".135" style="stop-color:#cecedb;stop-opacity:1"/><stop id="stop297" offset=".466" style="stop-color:#9a9ab1;stop-opacity:1"/><stop id="stop299" offset=".854" style="stop-color:#7d7d99;stop-opacity:1"/><stop id="stop301" offset="1" style="stop-color:#585868;stop-opacity:1"/><midPointStop id="midPointStop303" offset="0" style="stop-color:#585868"/><midPointStop id="midPointStop305" offset=".303" style="stop-color:#585868"/><midPointStop id="midPointStop307" offset=".135" style="stop-color:#cecedb"/><midPointStop id="midPointStop309" offset=".5" style="stop-color:#cecedb"/><midPointStop id="midPointStop311" offset=".466" style="stop-color:#9a9ab1"/><midPointStop id="midPointStop313" offset=".5" style="stop-color:#9a9ab1"/><midPointStop id="midPointStop315" offset=".854" style="stop-color:#7d7d99"/><midPointStop id="midPointStop317" offset=".5" style="stop-color:#7d7d99"/><midPointStop id="midPointStop319" offset="1" style="stop-color:#585868"/></linearGradient><polygon id="polygon322" points="126.689 131.635 124.839 124.729 187.129 108.039 187.129 108.039 188.979 114.945" style="fill:url(#XMLID_16_)"/><path id="path324" d="m 145.55762,133.42871 c 0.30371,-0.52637 -0.11231,-1.33594 -0.9336,-1.80957 L 51.853516,78.058105 c -0.820313,-0.473632 -1.730469,-0.430664 -2.03418,0.0957 l -3.575195,6.191894 c -0.303711,0.526367 0.114257,1.335938 0.93457,1.810059 l 92.769529,53.560062 c 0.82031,0.47363 1.73047,0.43066 2.03418,-0.0957 l 3.5752,-6.19141 z" style="opacity:.2"/><path id="path326" d="m 144.45801,132.3291 c 0.30371,-0.52637 -0.11328,-1.33691 -0.9336,-1.81055 L 50.753906,76.958008 c -0.820312,-0.473633 -1.730468,-0.430664 -2.034179,0.0957 l -3.575196,6.191894 c -0.304687,0.526368 0.113282,1.336426 0.934571,1.810059 l 92.769528,53.560549 c 0.82032,0.47363 1.73047,0.43067 2.03418,-0.0957 l 3.5752,-6.19141 z" style="fill:#585868"/><linearGradient id="XMLID_17_" x1="-218.144" x2="-210.992" y1="58.222" y2="58.222" gradientTransform="matrix(-0.5,0.866,-0.866,-0.5,37.93764,322.7147)" gradientUnits="userSpaceOnUse"><stop id="stop330" offset="0" style="stop-color:#585868;stop-opacity:1"/><stop id="stop332" offset=".191" style="stop-color:#cecedb;stop-opacity:1"/><stop id="stop334" offset=".466" style="stop-color:#9a9ab1;stop-opacity:1"/><stop id="stop336" offset=".854" style="stop-color:#7d7d99;stop-opacity:1"/><stop id="stop338" offset="1" style="stop-color:#585868;stop-opacity:1"/><midPointStop id="midPointStop340" offset="0" style="stop-color:#585868"/><midPointStop id="midPointStop342" offset=".5" style="stop-color:#585868"/><midPointStop id="midPointStop344" offset=".191" style="stop-color:#cecedb"/><midPointStop id="midPointStop346" offset=".5" style="stop-color:#cecedb"/><midPointStop id="midPointStop348" offset=".466" style="stop-color:#9a9ab1"/><midPointStop id="midPointStop350" offset=".5" style="stop-color:#9a9ab1"/><midPointStop id="midPointStop352" offset=".854" style="stop-color:#7d7d99"/><midPointStop id="midPointStop354" offset=".5" style="stop-color:#7d7d99"/><midPointStop id="midPointStop356" offset="1" style="stop-color:#585868"/></linearGradient><polygon id="polygon359" points="46.629 84.103 50.204 77.911 142.975 131.472 142.975 131.472 139.398 137.663" style="fill:url(#XMLID_17_)"/><path id="path361" d="m 117.63965,129.10156 c 0,6.31836 5.13965,11.45996 11.45801,11.45996 6.31933,0 11.46191,-5.1416 11.46191,-11.45996 0,-6.32129 -5.14258,-11.46338 -11.46191,-11.46338 -6.31836,0 -11.45801,5.14209 -11.45801,11.46338 z" style="opacity:.2"/><linearGradient id="XMLID_18_" x1="116.54" x2="139.459" y1="128" y2="128" gradientUnits="userSpaceOnUse"><stop id="stop365" offset="0" style="stop-color:#9a9ab1;stop-opacity:1"/><stop id="stop367" offset="1" style="stop-color:#585868;stop-opacity:1"/><midPointStop id="midPointStop369" offset="0" style="stop-color:#9a9ab1"/><midPointStop id="midPointStop371" offset=".5" style="stop-color:#9a9ab1"/><midPointStop id="midPointStop373" offset="1" style="stop-color:#585868"/></linearGradient><path id="path376" d="m 116.54004,128.00098 c 0,6.31933 5.13867,11.46093 11.45801,11.46093 6.31933,0 11.46093,-5.1416 11.46093,-11.46093 0,-6.32032 -5.1416,-11.46289 -11.46093,-11.46289 -6.31934,0 -11.45801,5.14257 -11.45801,11.46289 z" style="fill:url(#XMLID_18_)"/><radialGradient id="XMLID_19_" cx="126.62" cy="116.175" r="22.186" fx="126.62" fy="116.175" gradientUnits="userSpaceOnUse"><stop id="stop380" offset="0" style="stop-color:#9a9ab1;stop-opacity:1"/><stop id="stop382" offset=".59" style="stop-color:#585868;stop-opacity:1"/><stop id="stop384" offset="1" style="stop-color:#fff;stop-opacity:1"/><midPointStop id="midPointStop386" offset="0" style="stop-color:#9a9ab1"/><midPointStop id="midPointStop388" offset=".5" style="stop-color:#9a9ab1"/><midPointStop id="midPointStop390" offset=".59" style="stop-color:#585868"/><midPointStop id="midPointStop392" offset=".5" style="stop-color:#585868"/><midPointStop id="midPointStop394" offset="1" style="stop-color:#fff"/></radialGradient><path id="path397" d="m 117.63965,128.00098 c 0,5.71386 4.64746,10.36035 10.3584,10.36035 5.71386,0 10.36132,-4.64649 10.36132,-10.36035 0,-5.71338 -4.64746,-10.3628 -10.36132,-10.3628 -5.71094,0 -10.3584,4.64942 -10.3584,10.3628 z" style="fill:url(#XMLID_19_)"/><linearGradient id="XMLID_20_" x1="117.744" x2="137.875" y1="123.586" y2="123.586" gradientUnits="userSpaceOnUse"><stop id="stop401" offset="0" style="stop-color:#fff;stop-opacity:1"/><stop id="stop403" offset="1" style="stop-color:#585868;stop-opacity:1"/><midPointStop id="midPointStop405" offset="0" style="stop-color:#fff"/><midPointStop id="midPointStop407" offset=".5" style="stop-color:#fff"/><midPointStop id="midPointStop409" offset="1" style="stop-color:#585868"/></linearGradient><path id="path412" d="m 135.7373,125.42822 c -1.08105,-3.24267 -4.13769,-5.58984 -7.73925,-5.58984 -4.22852,0 -7.71387,3.23535 -8.11719,7.3623 5.33496,0.38477 10.73144,-0.0234 15.85644,-1.77246 z" style="fill:url(#XMLID_20_)"/></g><polyline id="_x3C_Slice_x3E_" points="0 256 0 0 256 0 256 256" style="fill:none"/></g></svg>