<svg xmlns="http://www.w3.org/2000/svg" xmlns:svg="http://www.w3.org/2000/svg" id="svg2" width="128" height="128" x="0" y="0" version="1.1" viewBox="0 0 128 128"><metadata id="metadata76"/><defs id="defs4"><linearGradient id="Gradient_1" x1="-665.55" x2="-665.327" y1="215.361" y2="215.361" gradientTransform="scale(-1,1)" gradientUnits="userSpaceOnUse"><stop id="stop7" offset="0" stop-color="#4B4B4B"/><stop id="stop9" offset=".071" stop-color="#9A9A9A"/><stop id="stop11" offset=".142" stop-color="#C4C4C4"/><stop id="stop13" offset=".203" stop-color="#CFCFCF"/><stop id="stop15" offset=".797" stop-color="#D2D2D2"/><stop id="stop17" offset=".921" stop-color="#ECECEC"/><stop id="stop19" offset="1" stop-color="#717171"/></linearGradient><radialGradient id="Gradient_2" cx="626.93" cy="364.214" r="127.059" gradientUnits="userSpaceOnUse"><stop id="stop22" offset=".37" stop-color="#FFF"/><stop id="stop24" offset="1" stop-color="#5FD8FF"/></radialGradient></defs><g id="Layer_1" transform="matrix(0.45542027,0,0,0.45542027,-225.11449,-80.347085)"><g id="g27"><path id="path29" d="m 689.982,308.945 c -5.797,-12.248 -18.514,-24.778 -33.916,-27.682 -28.5,-5.373 -31.587,18.752 -38.532,19.506 -40.673,4.419 -93.431,-28.838 -114.739,24.513 -13.329,33.371 23.176,29.049 24.111,35.402 2.364,16.07 -21.024,25.534 7.87,40.23 38.285,19.473 74.566,-17.415 84.615,-14.763 20.518,5.414 42.748,42.161 91.722,20.814 9.17,-3.997 13.352,-11.064 14.458,-19.606 0.104,-0.803 -0.094,-15.485 0.135,-15.544 13.435,-3.421 28.876,2.156 40.463,-8.504 42.181,-38.806 -38.307,-69.675 -74.285,-55.319" style="fill:#909090"/><path id="path31" d="m 689.982,308.945 c -5.797,-12.248 -18.514,-24.778 -33.916,-27.682 -28.5,-5.373 -31.587,18.752 -38.532,19.506 -40.673,4.419 -93.431,-28.838 -114.739,24.513 -13.329,33.371 23.176,29.049 24.111,35.402 2.364,16.07 -21.024,25.534 7.87,40.23 38.285,19.473 74.566,-17.415 84.615,-14.763 20.518,5.414 42.748,42.161 91.722,20.814 9.17,-3.997 13.352,-11.064 14.458,-19.606 0.104,-0.803 -0.094,-15.485 0.135,-15.544 13.435,-3.421 28.876,2.156 40.463,-8.504 42.181,-38.806 -38.307,-69.675 -74.285,-55.319" style="fill-opacity:0;stroke:#969696;stroke-width:7;stroke-linecap:round;stroke-linejoin:round"/></g></g><g id="Layer_2" transform="matrix(0.45542027,0,0,0.45542027,-223.18864,-84.198773)"><g id="g34"><g id="g36"><path id="path38" d="m 674.493,205.11 c 1.585,1.763 0.876,0.978 2.125,2.358 0.184,0.203 0.184,0.203 0.368,0.406 3.331,3.673 4.865,5.448 6.474,7.576 4.249,5.57 8.436,11.202 12.818,16.645 l 0,160.038 -134.59,0 0,-187.023 112.805,0 z" style="fill:#fff"/><path id="path40" d="m 674.493,205.11 c 1.585,1.763 0.876,0.978 2.125,2.358 0.184,0.203 0.184,0.203 0.368,0.406 3.331,3.673 4.865,5.448 6.474,7.576 4.249,5.57 8.436,11.202 12.818,16.645 l 0,160.038 -134.59,0 0,-187.023 112.805,0 z" style="fill-opacity:0;stroke:gray;stroke-width:8"/></g><path id="path42" d="m 670.434,203.31 0.454,32.242" style="fill-opacity:0;stroke:gray;stroke-width:8"/><path id="path44" d="m 696.278,232.095 -28.071,-0.614" style="fill-opacity:0;stroke:gray;stroke-width:8"/><path id="path46" d="m 561.688,200.446 0,187.731" style="fill-opacity:0;stroke:#ccc;stroke-width:8"/><path id="path48" d="m 561.688,205.246 104.969,-0.312" style="fill-opacity:0;stroke:#ccc;stroke-width:8"/><g id="g50"><path id="path52" d="m 665.328,208.918 0.222,26.692" style="fill:url(#Gradient_1)"/><path id="path54" d="m 665.328,208.918 0.222,26.692" style="fill-opacity:0;stroke:#d5d5d5;stroke-width:2.5"/></g><path id="path56" d="m 664.083,236.537 28.267,0.681" style="fill-opacity:0;stroke:#dadada;stroke-width:2.5"/></g></g><g id="Layer_3" transform="matrix(0.45542027,0,0,0.45542027,-223.18864,-84.198773)"><g id="g60"><g id="g62"><path id="path64" d="m 679.342,328.587 c -5.729,-12.531 -17.785,-25.072 -31.948,-27.472 -26.208,-4.439 -28.165,20.832 -34.478,21.901 -36.971,6.262 -86.317,-26.252 -103.865,30.223 -10.976,35.326 22.193,29.335 23.273,35.918 2.731,16.654 -18.28,27.47 8.619,41.611 35.644,18.738 67.446,-21.189 76.714,-18.834 18.923,4.807 40.527,42.203 84.471,17.958 8.228,-4.54 11.794,-12.076 12.498,-21.025 0.066,-0.841 -0.638,-16.136 -0.431,-16.206 12.142,-4.114 26.436,1.07 36.633,-10.513 37.12,-42.165 -37.454,-71.061 -69.784,-54.632" style="fill:#909090"/><path id="path66" d="m 679.342,328.587 c -5.729,-12.531 -17.785,-25.072 -31.948,-27.472 -26.208,-4.439 -28.165,20.832 -34.478,21.901 -36.971,6.262 -86.317,-26.252 -103.865,30.223 -10.976,35.326 22.193,29.335 23.273,35.918 2.731,16.654 -18.28,27.47 8.619,41.611 35.644,18.738 67.446,-21.189 76.714,-18.834 18.923,4.807 40.527,42.203 84.471,17.958 8.228,-4.54 11.794,-12.076 12.498,-21.025 0.066,-0.841 -0.638,-16.136 -0.431,-16.206 12.142,-4.114 26.436,1.07 36.633,-10.513 37.12,-42.165 -37.454,-71.061 -69.784,-54.632" style="fill-opacity:0;stroke:#969696;stroke-width:7;stroke-linecap:round;stroke-linejoin:round"/></g><g id="g68"><path id="path70" d="m 672.385,323.504 c -5.729,-12.53 -17.785,-25.072 -31.948,-27.471 -26.208,-4.439 -28.165,20.831 -34.478,21.901 -36.971,6.262 -86.317,-26.252 -103.865,30.223 -10.976,35.326 22.193,29.334 23.273,35.917 2.731,16.654 -18.28,27.471 8.619,41.612 35.644,18.737 67.446,-21.19 76.714,-18.835 18.923,4.808 40.527,42.204 84.471,17.959 8.228,-4.54 11.793,-12.076 12.498,-21.025 0.066,-0.842 -0.638,-16.137 -0.431,-16.207 12.142,-4.113 26.436,1.071 36.633,-10.512 37.12,-42.165 -37.454,-71.062 -69.784,-54.633" style="fill:url(#Gradient_2)"/><path id="path72" d="m 672.385,323.504 c -5.729,-12.53 -17.785,-25.072 -31.948,-27.471 -26.208,-4.439 -28.165,20.831 -34.478,21.901 -36.971,6.262 -86.317,-26.252 -103.865,30.223 -10.976,35.326 22.193,29.334 23.273,35.917 2.731,16.654 -18.28,27.471 8.619,41.612 35.644,18.737 67.446,-21.19 76.714,-18.835 18.923,4.808 40.527,42.204 84.471,17.959 8.228,-4.54 11.793,-12.076 12.498,-21.025 0.066,-0.842 -0.638,-16.137 -0.431,-16.207 12.142,-4.113 26.436,1.071 36.633,-10.512 37.12,-42.165 -37.454,-71.062 -69.784,-54.633" style="fill-opacity:0;stroke:#8df;stroke-width:7;stroke-linecap:round;stroke-linejoin:round"/></g></g></g></svg>