<svg xmlns="http://www.w3.org/2000/svg" xmlns:svg="http://www.w3.org/2000/svg" xmlns:xlink="http://www.w3.org/1999/xlink" id="svg2" width="128" height="128" x="0" y="0" version="1.1" viewBox="0 0 128 128"><metadata id="metadata95"/><defs id="defs4"><linearGradient id="Gradient_1" x1="-665.55" x2="-665.327" y1="215.361" y2="215.361" gradientTransform="scale(-1,1)" gradientUnits="userSpaceOnUse"><stop id="stop7" offset="0" stop-color="#4B4B4B"/><stop id="stop9" offset=".071" stop-color="#9A9A9A"/><stop id="stop11" offset=".142" stop-color="#C4C4C4"/><stop id="stop13" offset=".203" stop-color="#CFCFCF"/><stop id="stop15" offset=".797" stop-color="#D2D2D2"/><stop id="stop17" offset=".921" stop-color="#ECECEC"/><stop id="stop19" offset="1" stop-color="#717171"/></linearGradient><radialGradient id="Gradient_2" cx="626.93" cy="364.214" r="127.059" gradientUnits="userSpaceOnUse"><stop id="stop22" offset=".37" stop-color="#FFF"/><stop id="stop24" offset="1" stop-color="#5FD8FF"/></radialGradient><radialGradient id="Gradient_3" cx="544.674" cy="384.258" r="44.804" gradientUnits="userSpaceOnUse"><stop id="stop27" offset="0" stop-color="#FFF8B8"/><stop id="stop29" offset="1" stop-color="#FFBB17"/></radialGradient><radialGradient id="radialGradient3087" cx="544.674" cy="384.258" r="44.804" gradientUnits="userSpaceOnUse" xlink:href="#Gradient_3"/></defs><rect style="fill:none;stroke:none" id="rect3097" width="139.064" height="135.305" x="-4.335" y="-9.214" rx="11.731" ry="4.615"/><g id="Layer_1" transform="matrix(0.41998164,0,0,0.41998164,-200.55435,-74.056121)"><g id="g32"><path id="path34" d="m 689.982,308.945 c -5.797,-12.248 -18.514,-24.778 -33.916,-27.682 -28.5,-5.373 -31.587,18.752 -38.532,19.506 -40.673,4.419 -93.431,-28.838 -114.739,24.513 -13.329,33.371 23.176,29.049 24.111,35.402 2.364,16.07 -21.024,25.534 7.87,40.23 38.285,19.473 74.566,-17.415 84.615,-14.763 20.518,5.414 42.748,42.161 91.722,20.814 9.17,-3.997 13.352,-11.064 14.458,-19.606 0.104,-0.803 -0.094,-15.485 0.135,-15.544 13.435,-3.421 28.876,2.156 40.463,-8.504 42.181,-38.806 -38.307,-69.675 -74.285,-55.319" style="fill:#909090"/><path id="path36" d="m 689.982,308.945 c -5.797,-12.248 -18.514,-24.778 -33.916,-27.682 -28.5,-5.373 -31.587,18.752 -38.532,19.506 -40.673,4.419 -93.431,-28.838 -114.739,24.513 -13.329,33.371 23.176,29.049 24.111,35.402 2.364,16.07 -21.024,25.534 7.87,40.23 38.285,19.473 74.566,-17.415 84.615,-14.763 20.518,5.414 42.748,42.161 91.722,20.814 9.17,-3.997 13.352,-11.064 14.458,-19.606 0.104,-0.803 -0.094,-15.485 0.135,-15.544 13.435,-3.421 28.876,2.156 40.463,-8.504 42.181,-38.806 -38.307,-69.675 -74.285,-55.319" style="fill-opacity:0;stroke:#969696;stroke-width:7;stroke-linecap:round;stroke-linejoin:round"/></g></g><g id="Layer_2" transform="matrix(0.41998164,0,0,0.41998164,-198.5227,-78.119429)"><g id="g39"><g id="g41"><path id="path43" d="m 674.493,205.11 c 1.585,1.763 0.876,0.978 2.125,2.358 0.184,0.203 0.184,0.203 0.368,0.406 3.331,3.673 4.865,5.448 6.474,7.576 4.249,5.57 8.436,11.202 12.818,16.645 l 0,160.038 -134.59,0 0,-187.023 112.805,0 z" style="fill:#fff"/><path id="path45" d="m 674.493,205.11 c 1.585,1.763 0.876,0.978 2.125,2.358 0.184,0.203 0.184,0.203 0.368,0.406 3.331,3.673 4.865,5.448 6.474,7.576 4.249,5.57 8.436,11.202 12.818,16.645 l 0,160.038 -134.59,0 0,-187.023 112.805,0 z" style="fill-opacity:0;stroke:gray;stroke-width:8"/></g><path id="path47" d="m 670.434,203.31 0.454,32.242" style="fill-opacity:0;stroke:gray;stroke-width:8"/><path id="path49" d="m 696.278,232.095 -28.071,-0.614" style="fill-opacity:0;stroke:gray;stroke-width:8"/><path id="path51" d="m 561.688,200.446 0,187.731" style="fill-opacity:0;stroke:#ccc;stroke-width:8"/><path id="path53" d="m 561.688,205.246 104.969,-0.312" style="fill-opacity:0;stroke:#ccc;stroke-width:8"/><g id="g55"><path id="path57" d="m 665.328,208.918 0.222,26.692" style="fill:url(#Gradient_1)"/><path id="path59" d="m 665.328,208.918 0.222,26.692" style="fill-opacity:0;stroke:#d5d5d5;stroke-width:2.5"/></g><path id="path61" d="m 664.083,236.537 28.267,0.681" style="fill-opacity:0;stroke:#dadada;stroke-width:2.5"/></g></g><g id="Layer_3" transform="matrix(0.41998164,0,0,0.41998164,-198.5227,-78.119429)"><g id="g64"><g id="g66"><path id="path68" d="m 679.342,328.587 c -5.729,-12.531 -17.785,-25.072 -31.948,-27.472 -26.208,-4.439 -28.165,20.832 -34.478,21.901 -36.971,6.262 -86.317,-26.252 -103.865,30.223 -10.976,35.326 22.193,29.335 23.273,35.918 2.731,16.654 -18.28,27.47 8.619,41.611 35.644,18.738 67.446,-21.189 76.714,-18.834 18.923,4.807 40.527,42.203 84.471,17.958 8.228,-4.54 11.794,-12.076 12.498,-21.025 0.066,-0.841 -0.638,-16.136 -0.431,-16.206 12.142,-4.114 26.436,1.07 36.633,-10.513 37.12,-42.165 -37.454,-71.061 -69.784,-54.632" style="fill:#909090"/><path id="path70" d="m 679.342,328.587 c -5.729,-12.531 -17.785,-25.072 -31.948,-27.472 -26.208,-4.439 -28.165,20.832 -34.478,21.901 -36.971,6.262 -86.317,-26.252 -103.865,30.223 -10.976,35.326 22.193,29.335 23.273,35.918 2.731,16.654 -18.28,27.47 8.619,41.611 35.644,18.738 67.446,-21.189 76.714,-18.834 18.923,4.807 40.527,42.203 84.471,17.958 8.228,-4.54 11.794,-12.076 12.498,-21.025 0.066,-0.841 -0.638,-16.136 -0.431,-16.206 12.142,-4.114 26.436,1.07 36.633,-10.513 37.12,-42.165 -37.454,-71.061 -69.784,-54.632" style="fill-opacity:0;stroke:#969696;stroke-width:7;stroke-linecap:round;stroke-linejoin:round"/></g><g id="g72"><path id="path74" d="m 672.385,323.504 c -5.729,-12.53 -17.785,-25.072 -31.948,-27.471 -26.208,-4.439 -28.165,20.831 -34.478,21.901 -36.971,6.262 -86.317,-26.252 -103.865,30.223 -10.976,35.326 22.193,29.334 23.273,35.917 2.731,16.654 -18.28,27.471 8.619,41.612 35.644,18.737 67.446,-21.19 76.714,-18.835 18.923,4.808 40.527,42.204 84.471,17.959 8.228,-4.54 11.793,-12.076 12.498,-21.025 0.066,-0.842 -0.638,-16.137 -0.431,-16.207 12.142,-4.113 26.436,1.071 36.633,-10.512 37.12,-42.165 -37.454,-71.062 -69.784,-54.633" style="fill:url(#Gradient_2)"/><path id="path76" d="m 672.385,323.504 c -5.729,-12.53 -17.785,-25.072 -31.948,-27.471 -26.208,-4.439 -28.165,20.831 -34.478,21.901 -36.971,6.262 -86.317,-26.252 -103.865,30.223 -10.976,35.326 22.193,29.334 23.273,35.917 2.731,16.654 -18.28,27.471 8.619,41.612 35.644,18.737 67.446,-21.19 76.714,-18.835 18.923,4.808 40.527,42.204 84.471,17.959 8.228,-4.54 11.793,-12.076 12.498,-21.025 0.066,-0.842 -0.638,-16.137 -0.431,-16.207 12.142,-4.113 26.436,1.071 36.633,-10.512 37.12,-42.165 -37.454,-71.062 -69.784,-54.633" style="fill-opacity:0;stroke:#8df;stroke-width:7;stroke-linecap:round;stroke-linejoin:round"/></g></g></g><g id="g3089" transform="matrix(0.41998164,0,0,0.41998164,-120.84746,-89.394877)"><g id="g81" transform="matrix(1.5725645,0,0,1.4908239,-494.30188,-145.67182)"><path style="fill:gray" id="path83" d="m 515.431,365.332 c -2.832,-2.723 -2.832,-7.164 0,-9.887 2.792,-2.761 7.347,-2.761 10.139,0 l 14.337,13.961 0,-19.773 c 0,-3.824 3.208,-6.99 7.209,-6.99 3.94,0 7.188,3.166 7.188,6.99 l 0,19.773 14.317,-13.961 c 2.812,-2.761 7.347,-2.761 10.159,0 2.832,2.723 2.832,7.164 0,9.887 l -14.297,13.96 20.258,0.039 c 3.941,0 7.149,3.128 7.149,7.01 0,3.842 -3.208,7.009 -7.149,7.009 l -20.258,0 14.297,13.961 c 2.832,2.761 2.832,7.164 0,9.945 -2.812,2.703 -7.347,2.703 -10.159,0 l -14.277,-13.981 -0.04,19.716 c 0,3.9 -3.248,7.009 -7.188,7.009 -4.001,0 -7.209,-3.109 -7.209,-7.009 l 0,-19.754 -14.337,14.019 c -2.792,2.703 -7.347,2.703 -10.139,0 -2.832,-2.781 -2.832,-7.184 0,-9.945 l 14.317,-13.961 -20.278,0 c -3.94,0 -7.188,-3.167 -7.188,-7.009 0,-3.882 3.248,-7.01 7.188,-7.01 l 20.278,0 -14.317,-13.999 z"/><path style="fill-opacity:0;stroke:gray;stroke-width:1" id="path85" d="m 515.431,365.332 c -2.832,-2.723 -2.832,-7.164 0,-9.887 2.792,-2.761 7.347,-2.761 10.139,0 l 14.337,13.961 0,-19.773 c 0,-3.824 3.208,-6.99 7.209,-6.99 3.94,0 7.188,3.166 7.188,6.99 l 0,19.773 14.317,-13.961 c 2.812,-2.761 7.347,-2.761 10.159,0 2.832,2.723 2.832,7.164 0,9.887 l -14.297,13.96 20.258,0.039 c 3.941,0 7.149,3.128 7.149,7.01 0,3.842 -3.208,7.009 -7.149,7.009 l -20.258,0 14.297,13.961 c 2.832,2.761 2.832,7.164 0,9.945 -2.812,2.703 -7.347,2.703 -10.159,0 l -14.277,-13.981 -0.04,19.716 c 0,3.9 -3.248,7.009 -7.188,7.009 -4.001,0 -7.209,-3.109 -7.209,-7.009 l 0,-19.754 -14.337,14.019 c -2.792,2.703 -7.347,2.703 -10.139,0 -2.832,-2.781 -2.832,-7.184 0,-9.945 l 14.317,-13.961 -20.278,0 c -3.94,0 -7.188,-3.167 -7.188,-7.009 0,-3.882 3.248,-7.01 7.188,-7.01 l 20.278,0 -14.317,-13.999 z"/></g><g style="stroke:#f60" id="g87" transform="matrix(1.5725645,0,0,1.4908239,-494.30188,-145.67182)"><path style="fill:url(#radialGradient3087);stroke:#f60" id="path89" d="m 513.02,363.269 c -2.832,-2.723 -2.832,-7.164 0,-9.887 2.792,-2.761 7.346,-2.761 10.139,0 l 14.337,13.961 0,-19.773 c 0,-3.824 3.208,-6.99 7.208,-6.99 3.941,0 7.188,3.166 7.188,6.99 l 0,19.773 14.318,-13.961 c 2.812,-2.761 7.347,-2.761 10.159,0 2.831,2.723 2.831,7.164 0,9.887 l -14.298,13.96 20.258,0.039 c 3.941,0 7.149,3.128 7.149,7.01 0,3.842 -3.208,7.009 -7.149,7.009 l -20.258,0 14.298,13.961 c 2.831,2.761 2.831,7.164 0,9.945 -2.812,2.703 -7.347,2.703 -10.159,0 l -14.278,-13.981 -0.04,19.716 c 0,3.9 -3.247,7.009 -7.188,7.009 -4,0 -7.208,-3.109 -7.208,-7.009 l 0,-19.754 -14.337,14.019 c -2.793,2.703 -7.347,2.703 -10.139,0 -2.832,-2.781 -2.832,-7.184 0,-9.945 l 14.317,-13.961 -20.278,0 c -3.941,0 -7.188,-3.167 -7.188,-7.009 0,-3.882 3.247,-7.01 7.188,-7.01 l 20.278,0 -14.317,-13.999 z"/><path style="fill-opacity:0;stroke:#f60;stroke-width:2.5" id="path91" d="m 513.02,363.269 c -2.832,-2.723 -2.832,-7.164 0,-9.887 2.792,-2.761 7.346,-2.761 10.139,0 l 14.337,13.961 0,-19.773 c 0,-3.824 3.208,-6.99 7.208,-6.99 3.941,0 7.188,3.166 7.188,6.99 l 0,19.773 14.318,-13.961 c 2.812,-2.761 7.347,-2.761 10.159,0 2.831,2.723 2.831,7.164 0,9.887 l -14.298,13.96 20.258,0.039 c 3.941,0 7.149,3.128 7.149,7.01 0,3.842 -3.208,7.009 -7.149,7.009 l -20.258,0 14.298,13.961 c 2.831,2.761 2.831,7.164 0,9.945 -2.812,2.703 -7.347,2.703 -10.159,0 l -14.278,-13.981 -0.04,19.716 c 0,3.9 -3.247,7.009 -7.188,7.009 -4,0 -7.208,-3.109 -7.208,-7.009 l 0,-19.754 -14.337,14.019 c -2.793,2.703 -7.347,2.703 -10.139,0 -2.832,-2.781 -2.832,-7.184 0,-9.945 l 14.317,-13.961 -20.278,0 c -3.941,0 -7.188,-3.167 -7.188,-7.009 0,-3.882 3.247,-7.01 7.188,-7.01 l 20.278,0 -14.317,-13.999 z"/></g></g></svg>