<svg xmlns="http://www.w3.org/2000/svg" xmlns:svg="http://www.w3.org/2000/svg" xmlns:xlink="http://www.w3.org/1999/xlink" id="svg2" width="128" height="128" version="1.1" viewBox="0 0 128 128"><metadata id="metadata18"/><defs id="defs16"><radialGradient id="radialGradient5866" cx="55.218" cy="458.465" r="15.213" fx="55.218" fy="458.465" gradientTransform="matrix(0.45603813,0,0,0.46679611,166.84249,131.61818)" gradientUnits="userSpaceOnUse" xlink:href="#linearGradient4799"/><linearGradient id="linearGradient4799"><stop style="stop-color:#ffde00;stop-opacity:1" id="stop4801" offset="0"/><stop style="stop-color:#ffa700;stop-opacity:1" id="stop4803" offset="1"/></linearGradient></defs><g id="g12247" transform="matrix(4.2666667,0,0,4.2666667,-787.79818,-1378.2702)"><rect style="opacity:1;fill:#ccc;fill-opacity:1;stroke:none;stroke-width:.234375;stroke-linecap:round;stroke-linejoin:round;stroke-miterlimit:4;stroke-dasharray:none;stroke-dashoffset:0;stroke-opacity:1" id="rect19872" width="26.494" height="18.674" x="187.036" y="330.028" ry="1.416"/><rect id="rect19874" width="26.494" height="18.674" x="186.583" y="329.67" ry="1.416" style="opacity:1;fill:#b4b4b4;fill-opacity:1;stroke:none;stroke-width:.234375;stroke-linecap:round;stroke-linejoin:round;stroke-miterlimit:4;stroke-dasharray:none;stroke-dashoffset:0;stroke-opacity:1"/><g id="g17415" transform="matrix(1.4267221,0,0,1.4267221,-84.555543,-145.78115)"><path style="fill:#e6e6e6;stroke:#b2b3b5;stroke-width:.234375;stroke-linecap:round;stroke-linejoin:round;stroke-miterlimit:4;stroke-dasharray:none;stroke-opacity:1" id="path17276" d="m 207.60058,332.90019 -8.50107,6.51823 8.50107,6.51801 c 0.39455,0 0.71852,-0.3236 0.71852,-0.71853 l 0,-11.59903 c 0,-0.39524 -0.32397,-0.71868 -0.71852,-0.71868 z"/><path style="fill:#fcfcfc;stroke:#b2b3b5;stroke-width:.234375;stroke-linecap:round;stroke-linejoin:round;stroke-miterlimit:4;stroke-dasharray:none;stroke-opacity:1" id="path17278" d="m 190.59776,332.90019 c -0.39494,0 -0.71861,0.32344 -0.71861,0.71875 l 0,11.59903 c 0,0.39494 0.32367,0.71853 0.71861,0.71853 l 8.50182,-6.518 -8.50182,-6.51831 z"/><polygon style="fill:#cdcdcd" id="polygon17280" points="120.521 353.592 349.779 353.592 235.153 251.338" transform="matrix(0.07572998,0,0,0.07572998,181.29145,319.15891)"/><polygon style="fill:#f0f0f0;stroke:#b2b3b5;stroke-width:3.09487724;stroke-linecap:round;stroke-linejoin:round;stroke-miterlimit:4;stroke-dasharray:none;stroke-opacity:1" id="polygon17282" points="122.888 353.592 347.407 353.592 235.153 256.085" transform="matrix(0.07572998,0,0,0.07572998,181.29145,319.15891)"/><polygon style="fill:#ccd1d9" id="polygon17284" points="347.407 183.832 122.888 183.832 237.515 300.308" transform="matrix(0.07572998,0,0,0.07572998,181.29145,319.15891)"/><polygon style="fill:#fff;stroke:#b2b3b5;stroke-width:3.09487724;stroke-linecap:round;stroke-linejoin:round;stroke-miterlimit:4;stroke-dasharray:none;stroke-opacity:1" id="polygon17286" points="347.407 181.451 122.888 181.451 235.143 278.959" transform="matrix(0.07572998,0,0,0.07572998,181.29145,319.15891)"/></g><path id="path4797" d="m 191.35389,343.57234 -0.0231,-4.15097 c 0.0269,-0.91149 1.67399,-0.85918 1.78557,-0.0235 l 0,4.10457 2.75957,-2.78274 c 0.67715,-0.63528 1.66219,0.47976 1.06673,1.11314 l -2.57405,2.89867 3.61754,0.0236 c 1.05529,0.13702 0.9223,1.88031 0.0463,1.94798 l -3.50165,-0.0236 2.64363,2.55088 c 0.62412,0.69873 -0.20856,1.9093 -1.13631,1.29862 l -2.96824,-2.85235 -0.0234,4.10456 c 0.10492,0.87164 -1.68142,1.0363 -1.85517,0.0236 l 0.0235,-3.89583 -2.62039,2.62043 c -0.92252,0.22704 -1.67977,-0.42879 -1.32184,-1.22907 l 2.78277,-2.66681 -4.01181,0.0464 c -0.98823,-0.19189 -0.96425,-1.81931 0.0235,-1.94793 l 4.10454,-0.0236 -2.8755,-2.82915 c -0.55944,-0.89038 0.40049,-1.79176 1.15948,-1.25224 z" style="overflow:visible;fill:url(#radialGradient5866);fill-opacity:1;stroke:#ff4100;stroke-width:.68405712;stroke-linecap:round;stroke-linejoin:round;stroke-miterlimit:4;stroke-dasharray:none;stroke-opacity:1"/></g></svg>