<svg xmlns="http://www.w3.org/2000/svg" xmlns:svg="http://www.w3.org/2000/svg" xmlns:xlink="http://www.w3.org/1999/xlink" id="svg2" width="128" height="128" version="1.1" viewBox="0 0 128 128"><defs id="defs4"><linearGradient id="XMLID_8_" x1="74.5" x2="74.5" y1="5.048" y2="124.24" gradientUnits="userSpaceOnUse"><stop style="stop-color:#fff" id="stop4539" offset="0"/><stop style="stop-color:#e1e1df" id="stop4541" offset="1"/></linearGradient><linearGradient id="XMLID_9_" x1="74.5" x2="74.5" y1="11.081" y2="121.467" gradientUnits="userSpaceOnUse"><stop style="stop-color:#fdfdfd" id="stop4546" offset="0"/><stop style="stop-color:#f3f2f2" id="stop4548" offset=".158"/><stop style="stop-color:#d7d6d6" id="stop4550" offset=".677"/><stop style="stop-color:#c9cbca;stop-opacity:1" id="stop4552" offset="1"/></linearGradient><radialGradient id="XMLID_10_" cx="110" cy="32.869" r="15.596" gradientUnits="userSpaceOnUse"><stop style="stop-color:#8e8e8f" id="stop4557" offset=".213"/><stop style="stop-color:#eee" id="stop4559" offset=".927"/></radialGradient><linearGradient id="XMLID_11_" x1="92.023" x2="104.273" y1="9.947" y2="32.947" gradientUnits="userSpaceOnUse"><stop style="stop-color:#fffefe" id="stop4566" offset="0"/><stop style="stop-color:#cfd0d0" id="stop4568" offset="1"/></linearGradient><linearGradient id="XMLID_12_" x1="99.53" x2="105.905" y1="5.181" y2="31.931" gradientUnits="userSpaceOnUse"><stop style="stop-color:#fcfdfd" id="stop4573" offset="0"/><stop style="stop-color:#eee" id="stop4575" offset="1"/></linearGradient><radialGradient id="radialGradient4545" cx="110" cy="32.869" r="15.596" gradientUnits="userSpaceOnUse" xlink:href="#XMLID_10_"/><linearGradient id="linearGradient4547" x1="92.023" x2="104.273" y1="9.947" y2="32.947" gradientUnits="userSpaceOnUse" xlink:href="#XMLID_11_"/><linearGradient id="linearGradient4549" x1="99.53" x2="105.905" y1="5.181" y2="31.931" gradientUnits="userSpaceOnUse" xlink:href="#XMLID_12_"/><linearGradient id="linearGradient4551" x1="74.5" x2="74.5" y1="5.048" y2="124.24" gradientUnits="userSpaceOnUse" xlink:href="#XMLID_8_"/><linearGradient id="linearGradient4553" x1="74.5" x2="74.5" y1="11.081" y2="102.228" gradientUnits="userSpaceOnUse" xlink:href="#XMLID_9_"/><radialGradient id="radialGradient4555" cx="110" cy="32.869" r="15.596" gradientUnits="userSpaceOnUse" xlink:href="#XMLID_9_"/><linearGradient id="linearGradient4557" x1="92.023" x2="104.273" y1="9.947" y2="32.947" gradientUnits="userSpaceOnUse" xlink:href="#XMLID_11_"/><linearGradient id="linearGradient4559" x1="99.53" x2="105.905" y1="5.181" y2="31.931" gradientUnits="userSpaceOnUse" xlink:href="#XMLID_12_"/></defs><metadata id="metadata7"/><g id="layer1" transform="translate(0,-924.36216)"><g id="g4563"><rect id="rect4561" width="128" height="128" x="0" y="924.362" style="opacity:.36960012;fill:#00193e;fill-opacity:0;stroke:none;stroke-width:1.66299999;stroke-linecap:round;stroke-linejoin:round;stroke-miterlimit:4;stroke-dasharray:none;stroke-dashoffset:0;stroke-opacity:1"/><g id="g4520" transform="matrix(0.84999997,0,0,0.84999997,16.297562,938.30887)"><path style="opacity:.2" id="path4522" d="M 30.666,7 C 28.816,7 27,8.83 27,10.694 c 0,106.39 0,106.39 0,109.807 0,3.917 4,4.499 4,4.499 l 87,0 c 0,0 4,-0.268 4,-4.018 0,-3.75 0,-78.479 0,-78.479 C 122,37.306 94.325,7 87.135,7 L 30.666,7 Z"/><path style="opacity:.425" id="path4524" d="M 30.666,8 C 28.816,8 27,9.83 27,11.694 c 0,106.39 0,106.39 0,109.807 0,3.917 5,4.499 5,4.499 l 85,0 c 0,0 5,-0.268 5,-4.018 0,-3.75 0,-78.479 0,-78.479 C 122,38.306 94.325,8 87.135,8 L 30.666,8 Z"/><path style="opacity:.6;fill:#262626" id="path4526" d="M 30.666,6 C 28.816,6 27,7.83 27,9.694 c 0,106.39 0,106.39 0,109.807 0,3.917 3,4.499 3,4.499 l 89,0 c 0,0 3,-0.268 3,-4.018 0,-3.75 0,-78.479 0,-78.479 C 122,36.306 94.325,6 87.135,6 L 30.666,6 Z"/><path style="fill:#fcfdfd;fill-opacity:1" id="path4528" d="m 121,120.113 c 0,2.584 -2.398,2.887 -2.398,2.887 l -88.104,0 C 30.498,123 28,122.525 28,119.917 28,100.1 28,10.861 28,9.694 28,8.374 29.359,7 30.666,7 31.66,7 79.135,7 87.135,7 94.167,7 121,37.326 121,41.504 c 0,4.619 0,63.145 0,78.609 z"/><path style="fill:url(#radialGradient4545);opacity:.44" id="path4533" d="m 120,39 c 0,7.18 -2.82,13 -10,13 -7.18,0 -16,-5.82 -16,-13 0,-7.18 2.82,-9 10,-9 7.18,0 11,4 16,9 z"/><path style="opacity:.5;fill:#343434" id="path4535" d="m 84.415,6.963 c 0.547,0 0.947,0.002 3.616,1.193 4.182,1.891 4.103,22.225 4.103,26.673 l -0.001,0.128 c 0,0.521 0.399,0.959 0.918,1.002 5.973,0.496 23.318,-0.848 26.406,4.026 1.199,1.608 1.365,2.858 1.918,2.858 0.553,0 0.625,-0.786 0.625,-1.339 0,-0.797 -0.257,-1.574 -0.766,-2.428 -0.004,-0.009 -0.002,-0.018 -0.006,-0.026 -0.014,-0.028 -0.038,-0.065 -0.053,-0.094 l 0,-0.001 C 118.87,34.256 95.385,8.574 88.821,6.365 88.815,6.363 88.814,6.357 88.809,6.355 88.802,6.352 88.794,6.353 88.788,6.351 88.767,6.343 88.739,6.328 88.718,6.32 88.624,6.291 88.531,6.279 88.439,6.277 88.01,6.133 87.578,6 87.135,6 86.627,6 84.473,6.457 84.415,6.963 Z"/><path style="fill:url(#linearGradient4547)" id="path4537" d="M 121,41.504 C 117.625,32.875 93.133,34.962 93.133,34.962 93.003,37.629 94.632,7 87.135,7 94.168,7 121,38.814 121,41.504 Z"/><path style="fill:url(#linearGradient4549)" id="path4539" d="M 121,41.504 C 119.5,33.563 94.25,33.438 94.25,33.438 94.225,36.104 94.524,7 87.135,7 94.168,7 121,38.814 121,41.504 Z"/></g><g id="g5149" transform="matrix(0.84999997,0,0,0.84999997,-15.500062,924.22707)"><path id="path4532" d="M 30.666,7 C 28.816,7 27,8.83 27,10.694 c 0,106.39 0,106.39 0,109.807 0,3.917 4,4.499 4,4.499 l 87,0 c 0,0 4,-0.268 4,-4.018 0,-3.75 0,-78.479 0,-78.479 C 122,37.306 94.325,7 87.135,7 L 30.666,7 Z" style="opacity:.2"/><path id="path4534" d="M 30.666,8 C 28.816,8 27,9.83 27,11.694 c 0,106.39 0,106.39 0,109.807 0,3.917 5,4.499 5,4.499 l 85,0 c 0,0 5,-0.268 5,-4.018 0,-3.75 0,-78.479 0,-78.479 C 122,38.306 94.325,8 87.135,8 L 30.666,8 Z" style="opacity:.442"/><path id="path4536" d="M 30.666,6 C 28.816,6 27,7.83 27,9.694 c 0,106.39 0,106.39 0,109.807 0,3.917 3,4.499 3,4.499 l 89,0 c 0,0 3,-0.268 3,-4.018 0,-3.75 0,-78.479 0,-78.479 C 122,36.306 94.325,6 87.135,6 L 30.666,6 Z" style="opacity:.6;fill:#262626"/><path id="path4543" d="m 121,120.113 c 0,2.584 -2.398,2.887 -2.398,2.887 l -88.104,0 C 30.498,123 28,122.525 28,119.917 28,100.1 28,10.861 28,9.694 28,8.374 29.359,7 30.666,7 31.66,7 79.135,7 87.135,7 94.167,7 121,37.326 121,41.504 c 0,4.619 0,63.145 0,78.609 z" style="fill:url(#linearGradient4551)"/><path id="path4554" d="m 120,119.282 c 0,2.481 -2,2.718 -2,2.718 l -87,0 c 0,0 -2,-0.163 -2,-2.249 C 29,101.736 29,10.877 29,9.694 29,8.374 30.317,7 31.583,7 32.547,7 79.442,7 87.193,7 94.006,7 120,37.326 120,41.504 c 0,4.63 0,62.674 0,77.778 z" style="fill:url(#linearGradient4553);fill-opacity:1"/><path id="path4561" d="m 120,39 c 0,7.18 -2.82,13 -10,13 -7.18,0 -16,-5.82 -16,-13 0,-7.18 2.82,-9 10,-9 7.18,0 11,4 16,9 z" style="fill:url(#radialGradient4555);fill-opacity:1;opacity:.236"/><path id="path4563" d="m 84.415,6.963 c 0.547,0 0.947,0.002 3.616,1.193 4.182,1.891 4.103,22.225 4.103,26.673 l -0.001,0.128 c 0,0.521 0.399,0.959 0.918,1.002 5.973,0.496 23.318,-0.848 26.406,4.026 1.199,1.608 1.365,2.858 1.918,2.858 0.553,0 0.625,-0.786 0.625,-1.339 0,-0.797 -0.257,-1.574 -0.766,-2.428 -0.004,-0.009 -0.002,-0.018 -0.006,-0.026 -0.014,-0.028 -0.038,-0.065 -0.053,-0.094 l 0,-0.001 C 118.87,34.256 95.385,8.574 88.821,6.365 88.815,6.363 88.814,6.357 88.809,6.355 88.802,6.352 88.794,6.353 88.788,6.351 88.767,6.343 88.739,6.328 88.718,6.32 88.624,6.291 88.531,6.279 88.439,6.277 88.01,6.133 87.578,6 87.135,6 86.627,6 84.473,6.457 84.415,6.963 Z" style="opacity:.5;fill:#343434"/><path id="path4570" d="M 121,41.504 C 117.625,32.875 93.133,34.962 93.133,34.962 93.003,37.629 94.632,7 87.135,7 94.168,7 121,38.814 121,41.504 Z" style="fill:url(#linearGradient4557)"/><path id="path4577" d="M 121,41.504 C 119.5,33.563 94.25,33.438 94.25,33.438 94.225,36.104 94.524,7 87.135,7 94.168,7 121,38.814 121,41.504 Z" style="fill:url(#linearGradient4559)"/></g></g></g></svg>