<svg xmlns="http://www.w3.org/2000/svg" xmlns:svg="http://www.w3.org/2000/svg" xmlns:xlink="http://www.w3.org/1999/xlink" id="svg2" width="128" height="128" version="1.0" viewBox="0 0 128 128"><metadata id="metadata116"/><defs id="defs4"><linearGradient id="linearGradient3579"><stop id="stop3581" offset="0" stop-color="#672b27"/><stop id="stop3583" offset=".5" stop-color="#712913"/><stop id="stop3585" offset="1" stop-color="#965e26"/></linearGradient><linearGradient id="linearGradient3551"><stop id="stop3553" offset="0"/><stop id="stop3557" offset="1" stop-color="#6f382e" stop-opacity="0"/></linearGradient><linearGradient id="linearGradient3511"><stop id="stop3513" offset="0" stop-color="#813d20"/><stop id="stop3515" offset="1" stop-color="#7f4621"/></linearGradient><linearGradient id="linearGradient3439"><stop id="stop3441" offset="0" stop-color="#824623"/><stop id="stop3443" offset=".5" stop-color="#672412"/><stop id="stop3445" offset="1" stop-color="#420804" stop-opacity=".996"/></linearGradient><linearGradient id="linearGradient3431"><stop id="stop3433" offset="0" stop-color="#c96905"/><stop id="stop3435" offset="1" stop-color="#d6902a"/></linearGradient><linearGradient id="linearGradient3405"><stop id="stop3407" offset="0" stop-color="#672b27"/><stop id="stop3413" offset=".5" stop-color="#712913"/><stop id="stop3409" offset="1" stop-color="#620000" stop-opacity=".984"/></linearGradient><linearGradient id="linearGradient3356" x1="575.89" x2="661.55" y1="212.51" y2="278.1" gradientTransform="matrix(1.0473917,0,0,1.0473917,-586.70062,-211.78347)" gradientUnits="userSpaceOnUse"><stop id="stop3360" offset="0" stop-color="#029831"/><stop id="stop3372" offset=".5" stop-color="#006c02"/><stop id="stop3362" offset="1" stop-color="#003b2d"/></linearGradient><linearGradient id="linearGradient3370" x1="572.87" x2="663.65" y1="279.27" y2="279.27" gradientTransform="matrix(1.0473917,0,0,1.0473917,-586.70062,-211.78347)" gradientUnits="userSpaceOnUse"><stop id="stop3366" offset="0" stop-color="#2e6b01"/><stop id="stop3368" offset="1" stop-color="#152c28"/></linearGradient><linearGradient id="linearGradient3376" x1="570.7" x2="668.25" y1="284.79" y2="284.79" gradientTransform="matrix(1.0473917,0,0,1.0473917,-586.70062,-211.78347)" gradientUnits="userSpaceOnUse"><stop id="stop3380" offset="0" stop-color="#d68c23"/><stop id="stop3392" offset=".5" stop-color="#c66100"/><stop id="stop3382" offset="1" stop-color="#6f382e"/></linearGradient><linearGradient id="linearGradient3390" x1="568.19" x2="668.93" y1="280.44" y2="280.44" gradientTransform="matrix(1.0473917,0,0,1.0473917,-586.70062,-211.78347)" gradientUnits="userSpaceOnUse"><stop id="stop3386" offset="0" stop-color="#d5801f"/><stop id="stop3394" offset=".5" stop-color="#993a1b"/><stop id="stop3388" offset="1" stop-color="#78413e"/></linearGradient><linearGradient id="linearGradient3613" x1="568.29" x2="669.91" y1="285.4" y2="285.4" gradientTransform="matrix(1.0473917,0,0,1.0473917,-586.70062,-211.78347)" gradientUnits="userSpaceOnUse"><stop id="stop3609" offset="0" stop-color="#fff" stop-opacity=".502"/><stop id="stop3611" offset="1" stop-color="#fff" stop-opacity=".361"/></linearGradient><linearGradient id="linearGradient3617" x1="66.259" x2="66.259" y1="7.864" y2="88.929" gradientUnits="userSpaceOnUse"><stop id="stop3307" offset="0" stop-color="#010000"/><stop id="stop3352" offset=".736" stop-color="#411000"/><stop id="stop3309" offset="1" stop-color="#822000"/></linearGradient><linearGradient id="linearGradient3654" x1="568.67" x2="668" y1="289.29" y2="289.29" gradientTransform="matrix(1.0473917,0,0,1.0473917,-586.70062,-211.78347)" gradientUnits="userSpaceOnUse"><stop id="stop3625" offset="0" stop-color="#811f00"/><stop id="stop3631" offset=".5" stop-color="#5d0003"/><stop id="stop3627" offset="1" stop-color="#811f00"/></linearGradient><filter id="filter3772" width="1.763" height="1.062" x="-.382" y="-.031"><feGaussianBlur id="feGaussianBlur3774" stdDeviation=".581"/></filter><linearGradient id="linearGradient3810" x1="45.798" x2="45.798" y1="113.08" y2="64.41" gradientTransform="matrix(0.4716744,0.77958486,-0.77958486,0.4716744,83.820935,-15.213245)" gradientUnits="userSpaceOnUse"><stop id="stop3685" offset="0" stop-color="#5a5a6b"/><stop id="stop3691" offset=".5" stop-color="#837e97"/><stop id="stop3693" offset=".75" stop-color="#9192a7"/><stop id="stop3687" offset="1" stop-color="#8780a4"/></linearGradient><linearGradient id="linearGradient3814" x1="41.167" x2="41.167" y1="113.08" y2="71.687" gradientTransform="matrix(0.4716744,0.77958486,-0.77958486,0.4716744,83.820935,-15.213245)" gradientUnits="userSpaceOnUse"><stop id="stop3697" offset="0" stop-color="#c8c8d8"/><stop id="stop3699" offset="1" stop-color="#fbfbfc"/></linearGradient><filter id="filter3834"><feGaussianBlur id="feGaussianBlur3836" stdDeviation=".384"/></filter><linearGradient id="linearGradient3845" x1="599.37" x2="599.37" y1="285.4" y2="297.6" gradientTransform="matrix(-1.0473917,0,0,1.0473917,708.29448,-211.78347)" gradientUnits="userSpaceOnUse" xlink:href="#linearGradient3551"/><linearGradient id="linearGradient3847" x1="597.52" x2="597.52" y1="290.62" y2="318.35" gradientTransform="matrix(-1.0473917,0,0,1.0473917,708.18974,-211.78347)" gradientUnits="userSpaceOnUse" xlink:href="#linearGradient3579"/><linearGradient id="linearGradient3850" x1="599.37" x2="599.37" y1="285.4" y2="297.6" gradientTransform="matrix(1.0473917,0,0,1.0473917,-586.7053,-211.78347)" gradientUnits="userSpaceOnUse" xlink:href="#linearGradient3551"/><linearGradient id="linearGradient3852" x1="597.52" x2="597.52" y1="290.62" y2="318.35" gradientTransform="matrix(1.0473917,0,0,1.0473917,-586.59325,-211.78347)" gradientUnits="userSpaceOnUse" xlink:href="#linearGradient3579"/><linearGradient id="linearGradient3855" x1="583.48" x2="583.48" y1="315.81" y2="297.05" gradientTransform="matrix(-1.0473917,0,0,1.0473917,708.6087,-211.78347)" gradientUnits="userSpaceOnUse" xlink:href="#linearGradient3431"/><linearGradient id="linearGradient3857" x1="597.52" x2="597.52" y1="290.62" y2="318.35" gradientTransform="matrix(-1.0473917,0,0,1.0473917,708.50395,-211.78347)" gradientUnits="userSpaceOnUse" xlink:href="#linearGradient3405"/><linearGradient id="linearGradient3860" x1="583.48" x2="583.48" y1="315.81" y2="297.05" gradientTransform="matrix(1.0473917,0,0,1.0473917,-586.7053,-211.78347)" gradientUnits="userSpaceOnUse" xlink:href="#linearGradient3431"/><linearGradient id="linearGradient3862" x1="597.52" x2="597.52" y1="290.62" y2="318.35" gradientTransform="matrix(1.0473917,0,0,1.0473917,-586.59325,-211.78347)" gradientUnits="userSpaceOnUse" xlink:href="#linearGradient3405"/><linearGradient id="linearGradient3865" x1="622.05" x2="622.05" y1="295.55" y2="299.34" gradientTransform="matrix(1.0473917,0,0,1.0473917,-586.70062,-210.73609)" gradientUnits="userSpaceOnUse" xlink:href="#linearGradient3551"/><linearGradient id="linearGradient3867" x1="617.44" x2="617.44" y1="302.66" y2="299.45" gradientTransform="matrix(1.0473917,0,0,1.0473917,-586.70062,-211.78347)" gradientUnits="userSpaceOnUse" xlink:href="#linearGradient3511"/><linearGradient id="linearGradient3870" x1="622.05" x2="622.05" y1="301.88" y2="299.04" gradientTransform="matrix(1.0473917,0,0,1.0473917,-586.70062,-210.73609)" gradientUnits="userSpaceOnUse" xlink:href="#linearGradient3431"/><linearGradient id="linearGradient3875" x1="598.18" x2="598.18" y1="290.65" y2="319.61" gradientTransform="matrix(-1.0473917,0,0,1.0473917,708.6087,-211.78347)" gradientUnits="userSpaceOnUse" xlink:href="#linearGradient3439"/><linearGradient id="linearGradient3878" x1="612.31" x2="612.31" y1="303.4" y2="299.61" gradientTransform="matrix(1.0473917,0,0,1.0473917,-586.70062,-211.78347)" gradientUnits="userSpaceOnUse"><stop id="stop3505" offset="0" stop-color="#712717"/><stop id="stop3507" offset="1" stop-color="#76351b"/></linearGradient><linearGradient id="linearGradient3881" x1="598.18" x2="598.18" y1="290.65" y2="319.61" gradientTransform="matrix(1.0473917,0,0,1.0473917,-586.7053,-211.78347)" gradientUnits="userSpaceOnUse" xlink:href="#linearGradient3439"/><filter id="filter3955"><feGaussianBlur id="feGaussianBlur3957" stdDeviation="1.299"/></filter><linearGradient id="linearGradient3980" x1="27.965" x2="27.965" y1="10.75" y2="55.843" gradientTransform="matrix(1.0473917,0,0,1.0473917,-10.331443,-2.5250823)" gradientUnits="userSpaceOnUse"><stop id="stop3976" offset="0" stop-color="#fff" stop-opacity=".361"/><stop id="stop3978" offset="1" stop-color="#fff" stop-opacity="0"/></linearGradient><linearGradient id="linearGradient3990" x1="111.23" x2="111.23" y1="13.656" y2="80.617" gradientTransform="matrix(1.0473917,0,0,1.0473917,-10.331443,-2.5250823)" gradientUnits="userSpaceOnUse"><stop id="stop3986" offset="0" stop-color="#fff" stop-opacity=".361"/><stop id="stop3988" offset="1" stop-color="#fff" stop-opacity=".086"/></linearGradient><linearGradient id="linearGradient3444" x1="66.259" x2="66.259" y1="7.864" y2="88.929" gradientTransform="matrix(1.0473917,0,0,1.0473917,-10.331443,-2.5250823)" gradientUnits="userSpaceOnUse" xlink:href="#linearGradient3617"/><linearGradient id="linearGradient3446" x1="617.44" x2="617.44" y1="302.66" y2="299.45" gradientTransform="matrix(1.0473917,0,0,1.0473917,-586.70062,-211.78347)" gradientUnits="userSpaceOnUse" xlink:href="#linearGradient3511"/><linearGradient id="linearGradient3448" x1="66.259" x2="66.259" y1="7.864" y2="88.929" gradientTransform="matrix(1.0473917,0,0,1.0473917,-10.331443,-2.5250823)" gradientUnits="userSpaceOnUse" xlink:href="#linearGradient3617"/><linearGradient id="linearGradient5683"><stop id="stop5685" offset="0" style="stop-color:#047804;stop-opacity:1"/><stop id="stop5687" offset="1" style="stop-color:#169f16;stop-opacity:1"/></linearGradient><linearGradient id="linearGradient5665"><stop id="stop5667" offset="0" style="stop-color:#006200;stop-opacity:1"/><stop id="stop5669" offset="1" style="stop-color:#003d18;stop-opacity:1"/></linearGradient><linearGradient id="linearGradient5671" x1="111.103" x2="152.072" y1="392.45" y2="392.45" gradientTransform="translate(-107.42857,-368.36218)" gradientUnits="userSpaceOnUse" xlink:href="#linearGradient5665"/><linearGradient id="linearGradient5689" x1="116.41" x2="146.429" y1="391.983" y2="391.983" gradientTransform="translate(-107.42857,-368.36218)" gradientUnits="userSpaceOnUse" xlink:href="#linearGradient5683"/><filter id="filter5703"><feGaussianBlur id="feGaussianBlur5705" stdDeviation=".32"/></filter><linearGradient id="linearGradient5729" x1="116.41" x2="146.429" y1="391.983" y2="391.983" gradientTransform="translate(260.93361,-523.79076)" gradientUnits="userSpaceOnUse" xlink:href="#linearGradient5683"/><linearGradient id="linearGradient5734" x1="111.103" x2="152.072" y1="392.45" y2="392.45" gradientTransform="translate(260.93361,-523.79076)" gradientUnits="userSpaceOnUse" xlink:href="#linearGradient5665"/></defs><g id="g11507"><rect id="rect3450" width="128" height="128" x="0" y="0" ry="0" style="opacity:1;fill:#fc0;fill-opacity:0;stroke:none;stroke-width:1;stroke-linecap:round;stroke-linejoin:round;stroke-miterlimit:4;stroke-dasharray:none;stroke-dashoffset:0;stroke-opacity:1"/><g id="g11484"><path style="fill:#fff;fill-rule:evenodd" id="path3970" d="m 107.33254,81.876883 1.04739,-0.03247 -1.60251,-73.7971238 0,-0.03352 c 0,0 0.74365,-0.7896282 0.74365,-0.7896282 0,1.046e-4 -1.35113,0.2958887 -1.35113,0.2858328 L 15.100276,7.6869804 c -0.01152,-0.00115 -0.02932,-0.00356 -0.06494,0 -0.01885,0.00172 -0.06913,-0.011035 -0.09845,0 -0.01467,0.0054 -0.01571,0.022415 -0.03247,0.03268 -0.01676,0.010346 -0.06494,0.032255 -0.06598,0.032784 0,5.242e-4 -0.02199,0.048601 -0.03247,0.065464 -0.01046,0.016863 -0.02723,0.017909 -0.03247,0.03268 -0.01152,0.029646 0.001,0.080121 0,0.098248 -0.0041,0.036658 -0.001,0.053418 0,0.064936 l 0,0.03352 -1.27677,73.7971237 1.047391,0.03247 1.276771,-73.1425044 89.909146,0 1.60251,73.1425044 z M 106.77742,8.0137725 c 0,-0.00207 0.0103,0.01676 0,-0.064936 l 0,-0.098248 c 0,-8.38e-4 -0.0629,-0.064729 -0.0629,-0.065361 0,-7.334e-4 -0.0418,-0.053935 -0.0629,-0.065568 -0.0209,-0.011518 -0.0524,-0.028703 -0.0733,-0.03268 -0.0524,-0.015817 -0.0733,0 -0.0943,0 l -0.0314,0 c 0.16759,0.1579456 0.32469,0.3267851 0.32469,0.3267851 z"/><path style="fill:url(#linearGradient3356);fill-rule:evenodd;stroke:url(#linearGradient3370);stroke-width:1.04739177;stroke-linecap:square;stroke-linejoin:round" id="rect3354" d="m 13.988993,6.3777466 93.615867,0 c 0.27233,0 0.49227,0.2199523 0.49227,0.492275 l 1.26735,73.3802624 c 0,0.272322 -0.21995,0.492274 -0.49227,0.492274 l -94.883217,0 c -0.272322,0 -0.492274,-0.219952 -0.492274,-0.492274 l 0,-73.3802624 c 0,-0.2723227 0.219952,-0.492275 0.492274,-0.492275 z"/><path style="fill:url(#linearGradient3444);fill-rule:evenodd" id="path3635" d="m 6.4917629,90.987095 c 0,0.684995 0.5917763,1.276771 1.2767706,1.276771 l 106.3416765,0 c 0.69128,0 1.27782,-0.591776 1.27782,-1.276771 l -108.8973143,0 z"/><path style="fill:none;stroke:url(#linearGradient3881);stroke-width:1.46634841;stroke-linecap:square;stroke-linejoin:round" id="rect3396" d="m 39.849093,88.451361 c -0.345638,0 -0.77507,0.219952 -0.984548,0.492274 l -22.4875,29.065115 c -1.791039,2.31474 -0.900757,4.18957 2.03194,4.18957 l 2.335684,0 2.000518,0 5.383593,0 c 0.335166,0 0.806493,-0.21995 1.015971,-0.49227 L 52.868173,88.943635 c 0.18853,-0.282796 0.104743,-0.492274 -0.230427,-0.492274 l -3.812505,0 -5.037955,0 -3.938193,0 z"/><rect style="fill:none;stroke:url(#linearGradient3878);stroke-width:1.04739177;stroke-linecap:square;stroke-linejoin:round" id="rect3489" width="42.839" height="7.332" x="39.671" y="99.596" ry=".617"/><path style="fill:none;stroke:url(#linearGradient3875);stroke-width:1.46634841;stroke-linecap:square;stroke-linejoin:round" id="path3453" d="m 82.027557,88.451361 c 0.345639,0 0.775071,0.219952 0.984549,0.492274 L 105.4996,118.00875 c 1.79104,2.31474 0.89029,4.18957 -2.03193,4.18957 l -2.33568,0 -2.000525,0 -5.383595,0 c -0.345638,0 -0.806491,-0.21995 -1.015969,-0.49227 L 69.008479,88.943635 c -0.188531,-0.282796 -0.115213,-0.492274 0.230426,-0.492274 l 3.802032,0 5.048428,0 3.938192,0 z"/><rect style="fill:url(#linearGradient3870);fill-rule:evenodd;stroke:url(#linearGradient3446);stroke-width:1.04739177;stroke-linecap:square;stroke-linejoin:round" id="rect3499" width="42.839" height="5.237" x="39.671" y="100.643" ry=".617"/><rect style="fill:url(#linearGradient3865);fill-rule:evenodd;stroke:url(#linearGradient3867);stroke-width:1.04739177;stroke-linecap:square;stroke-linejoin:round" id="rect3565" width="42.839" height="5.237" x="39.671" y="100.643" ry=".617"/><path style="fill:url(#linearGradient3860);fill-rule:evenodd;stroke:url(#linearGradient3862);stroke-width:1.39931524;stroke-linecap:square;stroke-linejoin:round" id="path3403" d="m 40.728902,89.435909 c -0.32469,0 -0.733173,0.209478 -0.932178,0.471326 l -2.723218,3.529711 -19.942339,24.205224 c -1.707248,2.21 -0.85886,4.00103 1.937675,4.00103 l 2.230945,0 1.906252,0 4.220989,0 c 0.324692,0 0.764596,-0.21995 0.9636,-0.47132 L 50.951445,89.907235 c 0.199005,-0.261848 0.115214,-0.471326 -0.209478,-0.471326 l -2.649901,0 -4.807528,0 -2.555636,0 z"/><path style="fill:url(#linearGradient3855);fill-rule:evenodd;stroke:url(#linearGradient3857);stroke-width:1.39931524;stroke-linecap:square;stroke-linejoin:round" id="path3455" d="m 81.137275,89.435909 c 0.324691,0 0.743647,0.209478 0.942652,0.471326 l 2.712745,3.529711 19.952808,24.205224 c 1.70725,2.21 0.85887,4.00103 -1.93767,4.00103 l -2.23094,0 -1.906253,0 -4.220994,0 c -0.324692,0 -0.77507,-0.21995 -0.974074,-0.47132 L 70.914732,89.907235 c -0.199005,-0.261848 -0.104743,-0.471326 0.219952,-0.471326 l 2.639427,0 4.807528,0 2.555636,0 z"/><path style="fill:url(#linearGradient3850);fill-rule:evenodd;stroke:url(#linearGradient3852);stroke-width:.83791339;stroke-linecap:square;stroke-linejoin:round" id="path3547" d="m 40.728902,89.435909 c -0.32469,0 -0.733173,0.209478 -0.932178,0.471326 l -2.723218,3.529711 -18.947317,23.807214 c -1.707248,2.20999 -1.2045,3.91725 1.592036,3.91725 l 1.141658,0 1.906251,0 4.22099,0 c 0.324691,0 0.764596,-0.16759 0.974074,-0.42943 L 50.951445,89.907235 c 0.199005,-0.261848 0.115214,-0.471326 -0.209478,-0.471326 l -2.649901,0 -4.807528,0 -2.555636,0 z"/><path style="fill:url(#linearGradient3845);fill-rule:evenodd;stroke:url(#linearGradient3847);stroke-width:.83791339;stroke-linecap:square;stroke-linejoin:round" id="path3589" d="m 80.854479,89.435909 c 0.335165,0 0.743648,0.209478 0.942652,0.471326 l 2.712745,3.529711 18.947324,23.807214 c 1.71772,2.20999 1.2045,3.91725 -1.58158,3.91725 l -1.14165,0 -1.90625,0 -4.220988,0 c -0.335165,0 -0.77507,-0.16759 -0.974075,-0.42943 L 70.631936,89.907235 c -0.199005,-0.261848 -0.104743,-0.471326 0.219952,-0.471326 l 2.639427,0 4.818002,0 2.545162,0 z"/><path style="fill:url(#linearGradient3990);fill-rule:evenodd" id="path3961" d="m 107.33254,81.876883 1.04739,-0.03247 -1.60251,-73.7971238 0,-0.03352 c 0,0 0.74365,-0.7896282 0.74365,-0.7896282 0,1.046e-4 -1.35113,0.2958887 -1.35113,0.2858328 L 15.100276,7.6869804 c -0.01152,-0.00115 -0.02932,-0.00356 -0.06494,0 -0.01885,0.00172 -0.06913,-0.011035 -0.09845,0 -0.01467,0.0054 -0.01571,0.022415 -0.03247,0.03268 -0.01676,0.010346 -0.06494,0.032255 -0.06598,0.032784 0,5.242e-4 -0.02199,0.048601 -0.03247,0.065464 -0.01046,0.016863 -0.02723,0.017909 -0.03247,0.03268 -0.01152,0.029646 0.001,0.080121 0,0.098248 -0.0041,0.036658 -0.001,0.053418 0,0.064936 l 0,1.2820079 1.047392,0 89.909146,0 1.60251,72.5811025 z M 106.77742,8.0137725 c 0,-0.00207 0.0103,0.01676 0,-0.064936 l 0,-0.098248 c 0,-8.38e-4 -0.0629,-0.064729 -0.0629,-0.065361 0,-7.334e-4 -0.0418,-0.053935 -0.0629,-0.065568 -0.0209,-0.011518 -0.0524,-0.028703 -0.0733,-0.03268 -0.0524,-0.015817 -0.0733,0 -0.0943,0 l -0.0314,0 c 0.16759,0.1579456 0.32469,0.3267851 0.32469,0.3267851 z"/><rect style="fill:url(#linearGradient3376);fill-rule:evenodd;stroke:url(#linearGradient3390);stroke-width:1.04739177;stroke-linecap:square;stroke-linejoin:round" id="rect3374" width="106.907" height="9.264" x="7.537" y="81.79" ry=".489"/><rect style="fill:none;stroke:url(#linearGradient3613);stroke-width:1.04739177;stroke-linecap:square" id="rect3595" width="105.399" height="8.369" x="9.045" y="82.837"/><path style="fill:url(#linearGradient3448);fill-rule:evenodd" id="rect2521" d="m 88.185174,92.263866 -0.743648,-1.571087 26.112524,0 c 0.0209,0.0031 0.0419,0.0031 0.0629,0 0.0733,-0.01885 0.13615,-0.06598 0.16758,-0.130924 0.0209,-0.03037 0.0314,-0.06389 0.0314,-0.09846 l 0,-0.03247 0,-8.640981 0,-0.06494 c -0.0209,-0.07122 -0.0629,-0.129877 -0.12568,-0.16444 -0.0314,-0.01676 -0.0629,-0.02828 -0.10472,-0.03247 -0.0103,-0.001 -0.0209,-0.001 -0.0314,0 l -2.26236,0 -2.86986,0 -0.0418,-1.832935 -1.60252,-71.6478771 0,-0.03352 c 0,-0.00207 0.0104,0.01676 0,-0.064936 l 0,-0.098248 c 0,-8.38e-4 -0.0629,-0.064729 -0.0629,-0.065361 0,-7.334e-4 -0.0418,-0.053935 -0.0629,-0.065568 -0.0209,-0.011518 -0.0524,-0.028703 -0.0733,-0.03268 -0.0524,-0.015817 -0.0733,0 -0.0943,0 l -91.383883,0 c -0.01152,-0.00115 -0.02932,-0.00356 -0.06494,0 -0.01885,0.00172 -0.06913,-0.011035 -0.09846,0 -0.01467,0.0054 -0.01571,0.022415 -0.03247,0.03268 -0.01676,0.010346 -0.06494,0.032255 -0.06598,0.032784 0,5.242e-4 -0.02199,0.048601 -0.03247,0.065464 -0.01046,0.016863 -0.02723,0.017909 -0.03247,0.03268 -0.01152,0.029646 0.001,0.080121 0,0.098248 -0.0041,0.036658 -0.001,0.053418 0,0.064936 l 0,0.03352 -1.276771,71.6478771 -0.03247,1.832935 -2.880328,0 -2.2592239,0 c -0.020944,-0.0031 -0.042946,-0.0031 -0.064936,0 -0.070177,0.01885 -0.129877,0.06598 -0.1633932,0.130924 -0.017806,0.03037 -0.028278,0.06389 -0.03352,0.09846 l 0,0.03247 0,8.640982 c -0.00207,0.02199 -0.00207,0.04399 0,0.06493 0.019898,0.07122 0.067028,0.129877 0.1319714,0.164442 0.029324,0.01676 0.062843,0.02828 0.097409,0.03247 0.011518,0.001 0.02199,0.001 0.032474,0 l 25.7071821,0 -1.239065,1.571087 -25.0242817,0 c -0.6849944,0 -1.2767707,-0.591776 -1.2767707,-1.27677 l 0,-9.78578 c 0,-0.686042 0.585492,-1.244302 1.2767707,-1.244302 l 2.8478577,0 c 0.02199,0.0031 0.04399,0.0031 0.06494,0 0.07122,-0.01885 0.129876,-0.06598 0.164441,-0.130924 0.01676,-0.03037 0.02828,-0.06389 0.03247,-0.09846 0.001,-0.01046 0.001,-0.022 0,-0.03247 L 12.15501,8.0137725 c 0,-1.5989475 1.345899,-2.9452656 2.945266,-2.9452656 l 91.383884,0 c 1.6025,0 2.91174,1.310288 2.91174,2.9127966 l 1.57109,71.7138635 c 0,0.07645 0.042,0.148729 0.10472,0.196909 0.0418,0.0398 0.0943,0.06284 0.1571,0.06494 l 2.88033,0 c 0.69128,0 1.27782,0.55826 1.27782,1.244301 l 0,9.78578 c 0,0.684995 -0.58654,1.276771 -1.27782,1.276771 l -25.923989,0 z"/><path style="fill:none;stroke:url(#linearGradient3654);stroke-width:1.04739177" id="path3621" d="m 9.4433128,91.216475 102.9900272,0"/><path style="fill:#fff;stroke:#fff;stroke-width:.31784377" id="text3658" d="m 38.448257,45.896071 c -0.238387,0 -0.683366,-0.286059 -1.334948,-0.842285 -0.572115,-0.540335 -1.017098,-1.001209 -1.287265,-1.414409 -1.239589,0.667474 -2.33615,1.176025 -3.273791,1.509761 -0.937641,0.349626 -1.73225,0.524441 -2.352045,0.524441 -3.019515,0 -5.212637,-0.858177 -6.595261,-2.55864 -1.303159,-1.605116 -1.954734,-4.052512 -1.954734,-7.342194 0,-3.13076 1.064776,-5.784753 3.210219,-8.009662 2.161338,-2.209017 4.719982,-3.321468 7.691821,-3.321468 1.128345,0 2.383827,0.28606 3.76645,0.874071 1.764031,0.71515 2.638101,1.589219 2.638101,2.60632 0,0.349623 -0.127134,0.651575 -0.397304,0.921745 -0.127137,0.492659 -0.222491,1.303161 -0.30195,2.415613 -0.06359,1.128342 -0.111248,2.558642 -0.111248,4.322677 -0.01588,1.589215 0.09537,2.860591 0.317843,3.782337 0.127134,0.572122 0.540335,1.700467 1.223694,3.40093 0.09537,0.238383 0.238386,0.572122 0.444982,1.03299 l 0.111248,0.317849 c 0,0.524439 -0.174816,0.937639 -0.540335,1.287265 -0.365522,0.333732 -0.778718,0.492659 -1.255482,0.492659 z M 34.427533,32.46717 c 0,-0.556228 0.03177,-1.160126 0.11125,-1.811711 0.06359,-0.651575 0.174813,-1.350834 0.31784,-2.081878 -0.476762,-0.23838 -0.889958,-0.429084 -1.223695,-0.540335 -0.349628,-0.111248 -0.619798,-0.174811 -0.826391,-0.174811 -2.002418,0 -3.718774,0.810505 -5.180857,2.447399 -1.446191,1.636897 -2.161338,3.512172 -2.161338,5.641725 0,2.113662 0.365522,3.686989 1.112457,4.751767 0.74693,1.048881 1.875278,1.589216 3.369142,1.589216 1.239589,0 2.288474,-0.238381 3.146654,-0.683367 0.460869,-0.23838 1.112453,-0.731034 1.954739,-1.46208 -0.413197,-3.416821 -0.619792,-5.975462 -0.619792,-7.675925 z"/><path style="fill:#fff;stroke:#fff;stroke-width:.28010714" id="text3662" d="m 57.275588,50.21243 c -2.100804,0 -4.019539,-0.420165 -5.742197,-1.24648 -0.434164,0.658255 -0.980373,0.994381 -1.610618,0.994381 -0.518195,0 -0.966367,-0.182069 -1.330507,-0.546208 -0.364137,-0.36414 -0.546209,-0.826316 -0.546209,-1.372524 0,-0.364143 0.01398,-0.896342 0.042,-1.596614 0.042,-0.700265 0.05604,-1.232471 0.05604,-1.596611 0,-1.456554 -0.042,-3.641389 -0.112046,-6.554507 -0.08406,-2.92712 -0.112044,-5.11195 -0.112044,-6.568511 0,-1.008388 0,-2.913111 0.01399,-5.714183 0.01398,-2.81508 0.02799,-4.719807 0.02799,-5.742196 0,-0.826317 0.168063,-1.5686 0.518198,-2.226855 0.448172,-0.840321 1.078413,-1.26048 1.876719,-1.26048 1.036397,0 1.554593,0.588222 1.554593,1.792683 0,0.196076 -0.042,0.476182 -0.112044,0.854326 -0.07005,0.364143 -0.09805,0.64425 -0.09805,0.840326 l -0.07006,4.523726 -0.02799,5.28002 c 1.190455,-0.812309 2.338894,-1.428545 3.417307,-1.834702 1.078413,-0.406154 2.100806,-0.602231 3.05317,-0.602231 2.955128,0 5.36405,1.134437 7.212757,3.403303 1.736665,2.142824 2.604996,4.761824 2.604996,7.885013 0,3.137202 -1.02239,5.79822 -3.039162,7.997062 -2.030776,2.184835 -4.551742,3.291262 -7.576896,3.291262 z m 0.798305,-18.669142 c -1.134434,0 -2.296878,0.308116 -3.473327,0.938357 -0.588228,0.322124 -1.582605,1.008385 -2.983143,2.058788 l -0.04199,3.571369 0.02799,3.221231 0.01398,3.389293 c 0.65825,0.30812 1.596609,0.700272 2.787067,1.162446 0.854325,0.266102 1.820694,0.39215 2.871098,0.39215 2.002766,0 3.641393,-0.700265 4.929886,-2.100804 1.274485,-1.414538 1.918735,-3.16521 1.918735,-5.252012 0,-2.058784 -0.518201,-3.781443 -1.554596,-5.153967 -1.106426,-1.48457 -2.619002,-2.226851 -4.495723,-2.226851 z"/><path style="fill:#fff;stroke:#fff;stroke-width:.27674422" id="text3666" d="m 86.060312,53.642375 c -3.293254,0 -6.033021,-0.996277 -8.233141,-2.988837 -2.310813,-2.089419 -3.459301,-4.829184 -3.459301,-8.246976 0,-3.265581 1.079302,-6.614188 3.237906,-10.087328 2.407678,-3.846745 5.119771,-5.770119 8.136283,-5.770119 1.577441,0 3.334767,0.373608 5.271973,1.10698 2.449194,0.940932 3.680706,2.103256 3.680706,3.459303 0,0.608836 -0.207559,1.162324 -0.608861,1.63279 -0.401263,0.470464 -0.899402,0.705694 -1.480562,0.705694 -0.470466,0 -0.87174,-0.13837 -1.217668,-0.415114 -0.345942,-0.29058 -0.678032,-0.567324 -0.996289,-0.830232 -0.954766,-0.761045 -2.504534,-1.134653 -4.649299,-1.134653 -1.632793,0 -3.251748,1.45291 -4.856862,4.372561 -1.466746,2.68442 -2.186281,4.995233 -2.186281,6.960118 0,2.117091 0.719535,3.777558 2.158604,4.995233 1.342211,1.148488 3.0857,1.715812 5.202792,1.715812 0.954766,0 1.978724,-0.262909 3.071863,-0.774882 l 2.795115,-1.494418 c 0.48431,-0.249071 0.830238,-0.373608 1.037795,-0.373608 0.594991,0 1.106961,0.235237 1.535922,0.705701 0.428964,0.470466 0.650366,1.010118 0.650366,1.618954 0,1.17616 -1.231526,2.310815 -3.708379,3.390115 -2.158609,0.968605 -3.957448,1.452906 -5.382682,1.452906 z"/><path style="fill:url(#linearGradient3980);fill-rule:evenodd" id="path3972" d="m 14.773489,9.2905432 -1.27677,72.5643448 1.047391,0.03352 1.276771,-72.5978614 -1.047392,0 z"/></g><g id="layer1-8" transform="matrix(1.2744868,0,0,1.2744868,-74.589703,-414.89768)"><path style="opacity:1;fill:#000;fill-opacity:.49803922;fill-rule:evenodd;stroke:none;stroke-width:2;stroke-linecap:butt;stroke-linejoin:round;stroke-miterlimit:4;stroke-dasharray:none;stroke-dashoffset:1.56000006;stroke-opacity:1;filter:url(#filter5703)" id="path5701" d="m 17.875,3.40625 c -2.475371,0 -4.5,2.02464 -4.5,4.5 l 0,5.5 -5.5,0 c -2.4753702,0 -4.5,2.02464 -4.5,4.5 l 0,13 c 10e-8,2.47537 2.02464,4.5 4.5,4.5 l 5.5,0 0,5.5 c 0,2.47537 2.02464,4.5 4.5,4.5 l 13,0 c 2.475369,0 4.5,-2.02464 4.5,-4.5 l 0,-5.5 5.5,0 c 2.475371,0 4.5,-2.02464 4.5,-4.5 l 0,-13 c 10e-7,-2.47537 -2.02464,-4.5 -4.5,-4.5 l -5.5,0 0,-5.5 c 10e-7,-2.4753702 -2.02464,-4.5 -4.5,-4.5 l -13,0 z" transform="translate(107.42857,368.36218)"/><path style="opacity:1;fill:#fff;fill-opacity:1;fill-rule:evenodd;stroke:url(#linearGradient5671);stroke-width:2;stroke-linecap:butt;stroke-linejoin:miter;stroke-miterlimit:4;stroke-dasharray:none;stroke-dashoffset:1.56000006;stroke-opacity:1" id="rect5154" d="M 17.5,4 C 15.561337,4 14,5.5613368 14,7.5 L 14,14 7.5,14 C 5.5613365,14 3.9999998,15.561336 4,17.5 l 0,13 c 0,1.938663 1.5613363,3.499999 3.5,3.5 l 6.5,0 0,6.5 c 0,1.938663 1.561337,3.499999 3.5,3.5 l 13,0 c 1.938663,0 3.5,-1.561337 3.5,-3.5 l 0,-6.5 6.5,0 c 1.938663,0 3.5,-1.561337 3.5,-3.5 l 0,-13 C 44,15.561337 42.438664,14 40.5,14 L 34,14 34,7.5 C 34,5.5613365 32.438664,4.0000002 30.5,4 l -13,0 z" transform="translate(107.42857,368.36218)"/><path style="opacity:1;fill:url(#linearGradient5689);fill-opacity:1;fill-rule:evenodd;stroke:none;stroke-width:2;stroke-linecap:butt;stroke-linejoin:miter;stroke-miterlimit:4;stroke-dasharray:none;stroke-dashoffset:1.56000006;stroke-opacity:1" id="rect5673" d="m 19,9 0,10 -10,0 0,10 10,0 0,10 10,0 0,-10 10,0 0,-10 -10,0 0,-10 -10,0 z" transform="translate(107.42857,368.36218)"/></g></g></svg>