<svg xmlns="http://www.w3.org/2000/svg" xmlns:svg="http://www.w3.org/2000/svg" xmlns:xlink="http://www.w3.org/1999/xlink" id="svg4277" width="128" height="128" version="1.1" viewBox="0 0 128 128"><defs id="defs4279"><radialGradient id="radialGradient5866" cx="55.218" cy="458.465" r="15.213" fx="55.218" fy="458.465" gradientTransform="matrix(3.8902619,0,0,3.9820333,-150.43152,-837.41441)" gradientUnits="userSpaceOnUse" xlink:href="#linearGradient4799"/><linearGradient id="linearGradient4799"><stop style="stop-color:#ffde00;stop-opacity:1" id="stop4801" offset="0"/><stop style="stop-color:#ffa700;stop-opacity:1" id="stop4803" offset="1"/></linearGradient></defs><metadata id="metadata4282"/><g id="layer1" transform="translate(0,-924.36216)"><path id="path4797" d="m 58.664673,970.67387 -0.197955,-35.41001 c 0.226942,-7.77534 14.280323,-7.32915 15.232179,-0.19795 l 0,35.01462 23.540639,-23.73876 c 5.776544,-5.41915 14.179394,4.09263 9.099714,9.49589 l -21.958059,24.72726 30.859999,0.1983 c 9.00204,1.16906 7.86739,16.04051 0.39544,16.61768 l -29.870865,-0.19917 22.551495,21.76107 c 5.32434,5.9607 -1.77869,16.2877 -9.693161,11.0774 l -25.321009,-24.332 -0.197954,35.0147 c 0.895212,7.4357 -14.343417,8.8402 -15.825631,0.1983 l 0.197921,-33.2336 -22.353717,22.3542 c -7.869302,1.9362 -14.329276,-3.6584 -11.275716,-10.4853 l 23.73842,-22.74943 -34.222901,0.39671 c -8.4301453,-1.63707 -8.2256026,-15.52013 0.197956,-16.61735 l 35.014117,-0.1983 -24.529723,-24.13412 c -4.772494,-7.59573 3.416329,-15.28488 9.89103,-10.68241 z" style="overflow:visible;fill:url(#radialGradient5866);fill-opacity:1;stroke:#ff4100;stroke-width:5.83539248;stroke-linecap:round;stroke-linejoin:round;stroke-miterlimit:4;stroke-dasharray:none;stroke-opacity:1"/></g></svg>