<svg xmlns="http://www.w3.org/2000/svg" xmlns:svg="http://www.w3.org/2000/svg" xmlns:xlink="http://www.w3.org/1999/xlink" id="svg32939" width="128" height="128" version="1.1" viewBox="0 0 128 128"><defs id="defs32941"><linearGradient id="linearGradient32787" x1="597.997" x2="606.62" y1="693.133" y2="675.467" gradientUnits="userSpaceOnUse" xlink:href="#linearGradient32781"/><linearGradient id="linearGradient32781"><stop style="stop-color:#1abc9c;stop-opacity:1" id="stop32783" offset="0"/><stop style="stop-color:#aad400;stop-opacity:1" id="stop32785" offset="1"/></linearGradient><linearGradient id="linearGradient32795" x1="593.312" x2="597.503" y1="688.828" y2="690.363" gradientUnits="userSpaceOnUse" xlink:href="#linearGradient32789"/><linearGradient id="linearGradient32789"><stop style="stop-color:#34495e;stop-opacity:1" id="stop32791" offset="0"/><stop style="stop-color:#003265;stop-opacity:1" id="stop32793" offset="1"/></linearGradient></defs><metadata id="metadata32944"/><g id="layer1" transform="translate(0,-924.3622)"><g id="g32890" transform="matrix(4,0,0,4,-2312.813,-1772.4474)"><rect id="rect31979" width="32" height="32" x="578.203" y="674.202" style="opacity:0;fill:#ececec;fill-opacity:1;stroke:none;stroke-width:1;stroke-linecap:round;stroke-linejoin:round;stroke-miterlimit:4;stroke-dasharray:none;stroke-dashoffset:0;stroke-opacity:1"/><g id="g32875" transform="matrix(1.0727838,0,0,1.0727838,-44.114099,-50.367571)"><path style="fill:url(#linearGradient32787);fill-opacity:1" id="path9672" d="m 607.57911,684.82343 a 13.705569,13.705569 0 0 1 -25.13774,10.92998 13.705569,13.705569 0 0 1 25.13774,-10.92998 z"/><path style="fill:#fff" id="path9674" d="m 606.2265,690.2822 a 11.216391,11.216391 0 0 1 -22.43278,0 11.216391,11.216391 0 1 1 22.43278,0 z"/><rect style="fill:#999;fill-opacity:1;stroke:none" id="rect32813" width="1.168" height="1.304" x="594.321" y="679.963" ry="0"/><rect id="rect32815" width="1.168" height="1.304" x="601.144" y="683.096" ry="0" style="fill:#999;fill-opacity:1;stroke:none"/><rect id="rect32819" width="1.168" height="1.304" x="601.645" y="695.829" ry="0" style="fill:#999;fill-opacity:1;stroke:none"/><rect style="fill:#999;fill-opacity:1;stroke:none" id="rect32821" width="1.168" height="1.304" x="594.321" y="698.571" ry="0"/><rect style="fill:#999;fill-opacity:1;stroke:none" id="rect32853" width="1.168" height="1.304" x="587.503" y="683.096" ry="0"/><rect id="rect32855" width="1.168" height="1.304" x="584.932" y="689.848" ry="0" style="fill:#999;fill-opacity:1;stroke:none"/><path style="fill:teal" id="path9676" d="m 581.34351,689.61543 c -0.10313,2.1187 0.21934,4.11276 1.09053,6.10684 3.01814,6.97923 11.09087,10.21961 18.03259,7.22849 5.34658,-2.36795 8.44737,-7.727 8.2168,-13.21069 -0.25298,4.98515 -3.27899,9.72107 -8.2168,11.9644 -6.94186,2.9911 -15.01408,-0.24926 -18.03259,-7.2285 -0.69358,-1.49555 -1.02209,-3.24037 -1.09066,-4.86054 z"/><path style="fill:#3498db" id="path9678" d="m 604.98082,690.36322 c 0,0.62313 -0.55833,1.24628 -1.24629,1.24628 l -7.47775,0 0,-2.49258 7.47775,0 c 0.68796,0 1.24629,0.49851 1.24629,1.2463 z"/><path style="fill:#2c3e50" id="path9680" d="m 595.01049,681.63916 c -0.68796,0 -1.2463,0.55797 -1.2463,1.24628 l 0,4.98518 0,1.2463 2.49259,0 0,-1.2463 0,-4.98518 c 0,-0.68831 -0.55833,-1.24628 -1.24629,-1.24628 z"/><rect style="fill:#c0392b" id="rect9682" width="8.724" height="1.246" x="44.21" y="909.172" transform="matrix(0.7949345,-0.60669526,0.60669526,0.7949345,0,0)"/><path style="fill:url(#linearGradient32795);fill-opacity:1" id="path9684" d="m 595.01049,687.87062 c -1.37717,0 -2.4926,1.12167 -2.4926,2.4926 0,1.37091 1.11543,2.49257 2.4926,2.49257 1.37715,0 2.49258,-1.12166 2.49258,-2.49257 0,-1.37093 -1.11543,-2.4926 -2.49258,-2.4926 z m 0,1.2463 c 0.68796,0 1.24629,0.49851 1.24629,1.2463 0,0.62313 -0.55833,1.24628 -1.24629,1.24628 -0.68796,0 -1.2463,-0.62315 -1.2463,-1.24628 0,-0.74779 0.55834,-1.2463 1.2463,-1.2463 z"/></g></g></g></svg>