<svg xmlns="http://www.w3.org/2000/svg" xmlns:svg="http://www.w3.org/2000/svg" xmlns:xlink="http://www.w3.org/1999/xlink" id="svg7613" width="124" height="124" version="1.1" viewBox="0 0 124 124"><defs id="defs7615"><radialGradient id="radialGradient7559" cx="55.218" cy="458.465" r="15.213" fx="55.218" fy="458.465" gradientTransform="matrix(0.55758631,0,0,0.57073983,33.783815,180.81737)" gradientUnits="userSpaceOnUse" xlink:href="#linearGradient4799"/><linearGradient id="linearGradient4799"><stop style="stop-color:#ffde00;stop-opacity:1" id="stop4801" offset="0"/><stop style="stop-color:#ffa700;stop-opacity:1" id="stop4803" offset="1"/></linearGradient></defs><metadata id="metadata7618"/><g id="layer1" transform="translate(0,-928.36218)"><rect style="opacity:0;fill:#fff;fill-opacity:1;stroke:none" id="rect6802" width="124" height="124" x="0" y="928.362"/><path id="path6822" d="m 15.145031,948.13535 10.323938,-11.35631 74.922201,-0.14737 8.65296,12.60916 z" style="fill:#74c307;fill-opacity:1;stroke:none"/><rect id="rect6824" width="95.511" height="95.928" x="13.727" y="946.72" ry="4.504" style="fill:#008809;fill-opacity:1;stroke:none"/><rect style="fill:#fea;fill-opacity:1;stroke:#166b00;stroke-width:1.45018935;stroke-linecap:round;stroke-opacity:1" id="rect6826" width="86.847" height="87.227" x="18.059" y="951.071" ry="4.096"/><rect id="rect6848" width="10.898" height="6.518" x="91.789" y="990.138" ry="3.259" style="fill:#1a1a1a;fill-opacity:1;stroke:none"/><rect style="fill:#ccc;fill-opacity:1;stroke:none" id="rect6850" width="5.345" height="2.206" x="94.565" y="992.294" ry="1.103"/><rect id="rect6852" width="3.132" height=".842" x="95.672" y="992.976" ry=".421" style="fill:#1a1a1a;fill-opacity:1;stroke:none"/><circle id="path6830" cx="60.836" cy="994.958" r="24.015" style="fill:#333;fill-opacity:1;stroke:none"/><circle style="fill:#e6e6e6;fill-opacity:1;stroke:none" id="path6832" cx="60.836" cy="994.958" r="21.115"/><ellipse style="fill:gray;fill-opacity:1;stroke:none" id="path6834" cx="60.836" cy="994.958" rx="9.924" ry="9.865"/><circle id="path6836" cx="60.836" cy="994.958" r="9.513" style="fill:#fff;fill-opacity:1;stroke:none"/><circle style="fill:#333;fill-opacity:1;stroke:none" id="path6838" cx="60.836" cy="994.958" r="8.063"/><path id="path6842" d="m 56.90511,989.16203 3.857695,-6.62229 3.651008,6.62229 z" style="fill:#363636;fill-opacity:1;stroke:none"/><path id="path6844" d="m 60.86654,987.85384 c -3.004284,0 -5.566991,1.82047 -6.616487,4.39588 0,3.85595 3.22293,6.97902 7.160321,6.97902 2.953035,0 5.488894,-1.79937 6.571157,-4.30523 3.92e-4,-0.0302 0,-0.0604 0,-0.0906 0,-3.85594 -3.1776,-6.97903 -7.114991,-6.97903 z" style="fill:#4d4d4d;fill-opacity:1;stroke:none"/><path id="path6854" d="m 61.227817,973.81826 0,4.77235" style="fill:none;stroke:#555;stroke-width:.59962767;stroke-linecap:round;stroke-linejoin:round;stroke-miterlimit:4;stroke-dasharray:none;stroke-opacity:1"/><path style="fill:none;stroke:#555;stroke-width:.59962767;stroke-linecap:round;stroke-linejoin:round;stroke-miterlimit:4;stroke-dasharray:none;stroke-opacity:1" id="path6856" d="m 72.842848,977.84918 -3.143172,3.57641"/><path id="path6858" d="m 49.030327,977.56748 3.142327,3.5771" style="fill:none;stroke:#555;stroke-width:.59962767;stroke-linecap:round;stroke-linejoin:round;stroke-miterlimit:4;stroke-dasharray:none;stroke-opacity:1"/><path style="fill:none;stroke:#555;stroke-width:.59962767;stroke-linecap:round;stroke-linejoin:round;stroke-miterlimit:4;stroke-dasharray:none;stroke-opacity:1" id="path6860" d="m 41.744558,986.36615 4.216344,2.19274"/><path id="path6862" d="m 80.254761,987.49755 -4.60924,1.14161" style="fill:none;stroke:#555;stroke-width:.59962767;stroke-linecap:round;stroke-linejoin:round;stroke-miterlimit:4;stroke-dasharray:none;stroke-opacity:1"/><path style="fill:none;stroke:#555;stroke-width:.59962767;stroke-linecap:round;stroke-linejoin:round;stroke-miterlimit:4;stroke-dasharray:none;stroke-opacity:1" id="path6864" d="m 80.360581,1002.415 -4.01745,-2.5423"/><path id="path6866" d="m 72.956369,1011.4763 -2.868055,-3.8029" style="fill:none;stroke:#555;stroke-width:.59962767;stroke-linecap:round;stroke-linejoin:round;stroke-miterlimit:4;stroke-dasharray:none;stroke-opacity:1"/><path style="fill:none;stroke:#555;stroke-width:.59962767;stroke-linecap:round;stroke-linejoin:round;stroke-miterlimit:4;stroke-dasharray:none;stroke-opacity:1" id="path6868" d="m 60.912111,1015.192 0.0302,-4.7723"/><path id="path6870" d="m 41.724807,1001.789 4.356229,-1.89616" style="fill:none;stroke:#555;stroke-width:.59962767;stroke-linecap:round;stroke-linejoin:round;stroke-miterlimit:4;stroke-dasharray:none;stroke-opacity:1"/><path style="fill:none;stroke:#555;stroke-width:.59962767;stroke-linecap:round;stroke-linejoin:round;stroke-miterlimit:4;stroke-dasharray:none;stroke-opacity:1" id="path6872" d="m 49.248218,1011.4763 2.868054,-3.8029"/><circle id="path6914" cx="60.699" cy="985.801" r=".587" style="fill:#d40000;fill-opacity:1;stroke:none"/><rect style="fill:url(#linearGradient4454);fill-opacity:1;stroke:#505050;stroke-width:.47995076;stroke-linecap:round;stroke-linejoin:round;stroke-miterlimit:4;stroke-dasharray:none;stroke-opacity:1" id="rect6920" width="6.101" height="11.105" x="15.17" y="968.078" ry="1.08"/><rect id="rect6922" width="2.576" height="13.558" x="17.054" y="966.851" ry="1.319" style="fill:url(#linearGradient4456);fill-opacity:1;stroke:#505050;stroke-width:.34459004;stroke-linecap:round;stroke-linejoin:round;stroke-miterlimit:4;stroke-dasharray:none;stroke-opacity:1"/><rect style="fill:#02360f;fill-opacity:1;stroke:#505050;stroke-width:.47995076;stroke-linecap:round;stroke-linejoin:round;stroke-miterlimit:4;stroke-dasharray:none;stroke-opacity:1" id="rect6557" width="6.101" height="11.105" x="15.17" y="968.078" ry="1.08"/><rect id="rect6559" width="2.576" height="13.558" x="17.054" y="966.851" ry="1.319" style="fill:#008809;fill-opacity:1;stroke:#505050;stroke-width:.34459004;stroke-linecap:round;stroke-linejoin:round;stroke-miterlimit:4;stroke-dasharray:none;stroke-opacity:1"/><rect id="rect6583" width="6.101" height="11.105" x="15.17" y="1010.308" ry="1.08" style="fill:url(#linearGradient4462);fill-opacity:1;stroke:#505050;stroke-width:.47995076;stroke-linecap:round;stroke-linejoin:round;stroke-miterlimit:4;stroke-dasharray:none;stroke-opacity:1"/><rect style="fill:url(#linearGradient4464);fill-opacity:1;stroke:#505050;stroke-width:.34459004;stroke-linecap:round;stroke-linejoin:round;stroke-miterlimit:4;stroke-dasharray:none;stroke-opacity:1" id="rect6585" width="2.576" height="13.558" x="17.054" y="1009.081" ry="1.319"/><rect id="rect6587" width="6.101" height="11.105" x="15.17" y="1010.308" ry="1.08" style="fill:#02360f;fill-opacity:1;stroke:#505050;stroke-width:.47995076;stroke-linecap:round;stroke-linejoin:round;stroke-miterlimit:4;stroke-dasharray:none;stroke-opacity:1"/><rect style="fill:#008809;fill-opacity:1;stroke:#505050;stroke-width:.34459004;stroke-linecap:round;stroke-linejoin:round;stroke-miterlimit:4;stroke-dasharray:none;stroke-opacity:1" id="rect6589" width="2.576" height="13.558" x="17.054" y="1009.082" ry="1.319"/></g></svg>