<svg xmlns="http://www.w3.org/2000/svg" xmlns:svg="http://www.w3.org/2000/svg" id="svg2" width="128" height="128" space="preserve" version="1.0" viewBox="0 0 128 128"><metadata id="metadata41"/><linearGradient id="XMLID_4_" x1="64" x2="64" y1="-1.178" y2="99.458" gradientTransform="translate(0,145.06668)" gradientUnits="userSpaceOnUse"><stop style="stop-color:#00008d" id="stop5" offset="0"/><stop style="stop-color:#0053bd" id="stop7" offset="1"/><midPointStop style="stop-color:#00008d" offset="0"/><midPointStop style="stop-color:#00008d" offset=".5"/><midPointStop style="stop-color:#0053bd" offset="1"/></linearGradient><radialGradient id="XMLID_5_" cx="27.576" cy="107.82" r="115.48" gradientTransform="matrix(1,0,0,1.0565,0,144.5221)" gradientUnits="userSpaceOnUse"><stop style="stop-color:#fff" id="stop12" offset="0"/><stop style="stop-color:#def" id="stop14" offset=".057"/><stop style="stop-color:#b5daff" id="stop16" offset=".133"/><stop style="stop-color:#9dceff" id="stop18" offset=".193"/><stop style="stop-color:#94caff" id="stop20" offset=".23"/><stop style="stop-color:#0b74ff" id="stop22" offset=".596"/><stop style="stop-color:#0035ed" id="stop24" offset=".815"/><midPointStop style="stop-color:#fff" offset="0"/><midPointStop style="stop-color:#fff" offset=".4"/><midPointStop style="stop-color:#94caff" offset=".23"/><midPointStop style="stop-color:#94caff" offset=".5"/><midPointStop style="stop-color:#0b74ff" offset=".596"/><midPointStop style="stop-color:#0b74ff" offset=".5"/><midPointStop style="stop-color:#0035ed" offset=".815"/></radialGradient><linearGradient id="XMLID_6_" x1="62.342" x2="62.342" y1="8.826" y2="61.277" gradientTransform="translate(0,145.06668)" gradientUnits="userSpaceOnUse"><stop style="stop-color:#fff" id="stop29" offset="0"/><stop style="stop-color:#74aeff" id="stop31" offset="1"/><midPointStop style="stop-color:#fff" offset="0"/><midPointStop style="stop-color:#fff" offset=".5"/><midPointStop style="stop-color:#74aeff" offset="1"/></linearGradient><g id="g4169" transform="matrix(0.95045356,0,0,0.95045356,1.9368177,-131.5372)"><path id="path9" d="m 121.45,210.88168 c -0.68,-1.991 -2.46,-3.32 -4.46,-3.32 l -16.67,0 0,-41.946 c 0,-6.176 -4.73,-11.183 -10.567,-11.183 l -54.822,0 c -5.837,0 -10.568,5.0068 -10.568,11.183 l 0,41.946 -13.352,0 c -2.0003,0 -3.7854,1.329 -4.4602,3.32 -0.6748,1.993 -0.0947,4.22 1.4502,5.562 l 52.988,46.113 c 1.749,1.52 4.271,1.52 6.02,0 L 120,216.44368 c 1.54,-1.344 2.12,-3.569 1.45,-5.562 z" style="fill:url(#XMLID_4_)"/><path id="path26" d="m 95.584,212.57368 0,-46.958 c 0,-3.403 -2.617,-6.171 -5.831,-6.171 l -54.822,0 c -3.216,0 -5.831,2.768 -5.831,6.171 l 0,46.958 -18.089,0 52.988,46.113 52.991,-46.113 -21.406,0 z" style="fill:url(#XMLID_5_)"/><path id="path33" d="m 51.409,206.41768 c 14.399,-7.585 27.37,-16.011 42.377,-18.805 l 0,-22.665 c 0,-1.986 -1.809,-3.602 -4.033,-3.602 l -54.822,0 c -2.224,0 -4.033,1.616 -4.033,3.602 l 0,40.957 c 6.625,3.028 13.823,3.919 20.511,0.513 z" style="fill:url(#XMLID_6_)"/><polyline id="polyline35" points="0 128 0 0 128 0 128 128" transform="translate(0,145.06668)" style="fill:none"/></g></svg>