<svg xmlns="http://www.w3.org/2000/svg" xmlns:svg="http://www.w3.org/2000/svg" xmlns:xlink="http://www.w3.org/1999/xlink" id="svg7613" width="124" height="124" version="1.1" viewBox="0 0 124 124"><defs id="defs7615"><radialGradient id="radialGradient7559" cx="55.218" cy="458.465" r="15.213" fx="55.218" fy="458.465" gradientTransform="matrix(0.55758631,0,0,0.57073983,33.783815,180.81737)" gradientUnits="userSpaceOnUse" xlink:href="#linearGradient4799"/><linearGradient id="linearGradient4799"><stop style="stop-color:#ffde00;stop-opacity:1" id="stop4801" offset="0"/><stop style="stop-color:#ffa700;stop-opacity:1" id="stop4803" offset="1"/></linearGradient><radialGradient id="radialGradient5866" cx="55.218" cy="458.465" r="15.213" fx="55.218" fy="458.465" gradientTransform="matrix(1.0803234,0,0,1.1058083,-32.200346,522.84843)" gradientUnits="userSpaceOnUse" xlink:href="#linearGradient4799"/></defs><metadata id="metadata7618"/><g id="layer1" transform="translate(0,-928.36218)"><g id="dropdown"><rect id="rect3029" width="124" height="124" x=".375" y="928.243" style="opacity:0;fill:#ccc;fill-opacity:1;stroke:none"/><rect id="rect3031" width="83.097" height="103.313" x="22.792" y="939.694" ry="6.273" style="fill:#2d404e;fill-opacity:1;stroke:none"/><rect style="fill:#fff;fill-opacity:1;stroke:#70acc7;stroke-width:1.93749976;stroke-miterlimit:4;stroke-opacity:1;stroke-dasharray:none" id="rect3044" width="83.097" height="103.313" x="20.309" y="937.211" ry="6.273"/><path id="path4797" d="m 25.865537,1024.9534 -0.05497,-9.8333 c 0.06301,-2.1592 3.965639,-2.0353 4.229967,-0.055 l 0,9.7234 6.537217,-6.5921 c 1.604153,-1.5049 3.937618,1.1365 2.526992,2.6369 l -6.097742,6.8668 8.569802,0.055 c 2.499859,0.3246 2.184775,4.4544 0.109837,4.6146 l -8.295127,-0.055 6.262542,6.0428 c 1.478557,1.6554 -0.49396,4.5231 -2.691792,3.0764 l -7.03163,-6.757 -0.05495,9.7234 c 0.248603,2.0649 -3.983162,2.455 -4.394768,0.055 l 0.05495,-9.229 -6.207614,6.2076 c -2.185311,0.5379 -3.979242,-1.0157 -3.131272,-2.9115 l 6.592153,-6.3175 -9.503687,0.11 c -2.341042,-0.4546 -2.28424,-4.3097 0.05497,-4.6145 l 9.723422,-0.055 -6.811889,-6.702 c -1.325319,-2.1093 0.948709,-4.2446 2.74673,-2.9665 z" style="fill:url(#radialGradient5866);fill-opacity:1;stroke:#ff4100;stroke-width:1.62048495;stroke-linecap:round;stroke-linejoin:round;stroke-miterlimit:4;stroke-opacity:1;stroke-dasharray:none"/><rect id="rect6777" width="48.522" height="13.327" x="30.699" y="983.39" ry="0" style="fill:#006192;fill-opacity:1;stroke:none"/><path id="rect6754" d="m 79.893175,965.78234 0,42.82796 c 0,1.3964 -1.149086,2.5207 -2.576424,2.5207 l -44.241068,0 c -1.427341,0 -2.576426,-1.1243 -2.576426,-2.5207 l 0,-42.82796 z" style="fill:none;stroke:#006192;stroke-width:2;stroke-opacity:1;stroke-miterlimit:4;stroke-dasharray:none"/><rect id="rect6745" width="63.069" height="16.143" x="30.323" y="953.357" ry="2.065" style="fill:#fff;fill-opacity:1;stroke:#006192;stroke-width:2;stroke-opacity:1;stroke-miterlimit:4;stroke-dasharray:none"/><path id="rect6749" d="m 79.204089,953.84374 11.803713,0 c 1.143872,0 2.06475,0.92087 2.06475,2.06474 l 0,11.07457 c 0,1.14388 -0.920878,2.06476 -2.06475,2.06476 l -11.803713,0 z" style="fill:#006192;fill-opacity:1;stroke:none"/><path id="path6752" d="m 81.942028,958.97731 4.400829,5.28738 4.353573,-5.28815 z" style="fill:#fff;stroke:none"/><text style="font-size:11.29019833px;font-style:normal;font-variant:normal;font-weight:700;font-stretch:normal;text-align:start;line-height:125%;letter-spacing:0;word-spacing:0;writing-mode:lr-tb;text-anchor:start;fill:#006192;fill-opacity:1;stroke:none;font-family:Arial;-inkscape-font-specification:Arial Bold" id="text6765" x="33.899" y="981.048" xml:space="preserve"><tspan id="tspan6767" x="33.899" y="981.048">a</tspan></text><text id="text6769" x="34.275" y="1006.83" xml:space="preserve" style="font-size:11.29019833px;font-style:normal;font-variant:normal;font-weight:700;font-stretch:normal;text-align:start;line-height:125%;letter-spacing:0;word-spacing:0;writing-mode:lr-tb;text-anchor:start;fill:#006192;fill-opacity:1;stroke:none;font-family:Arial;-inkscape-font-specification:Arial Bold"><tspan id="tspan6771" x="34.275" y="1006.83">c</tspan></text><text id="text6773" x="33.805" y="993.751" xml:space="preserve" style="font-size:11.29019833px;font-style:normal;font-variant:normal;font-weight:700;font-stretch:normal;text-align:start;line-height:125%;letter-spacing:0;word-spacing:0;writing-mode:lr-tb;text-anchor:start;fill:#fff;fill-opacity:1;stroke:none;font-family:Arial;-inkscape-font-specification:Arial Bold"><tspan id="tspan6775" x="33.805" y="993.751">b</tspan></text></g></g></svg>