<svg xmlns="http://www.w3.org/2000/svg" xmlns:svg="http://www.w3.org/2000/svg" xmlns:x="adobe:ns:meta/" xmlns:xap="http://ns.adobe.com/xap/1.0/" xmlns:xapGImg="http://ns.adobe.com/xap/1.0/g/img/" xmlns:xapMM="http://ns.adobe.com/xap/1.0/mm/" id="svg548" style="overflow:visible" width="128" height="128" version="1.1" viewBox="0 0 128 128" xml:space="preserve"><defs id="defs1113"><linearGradient id="XMLID_139_" x1="-978.259" x2="-958.248" y1="-97.729" y2="-109.229" gradientTransform="matrix(-0.56389779,4.746986,4.746986,0.56389779,-0.00512016,4670.3412)" gradientUnits="userSpaceOnUse"><stop id="stop1054" offset="0" style="stop-color:#900"/><stop id="stop1055" offset="1" style="stop-color:#7c0000"/></linearGradient><linearGradient id="XMLID_140_" x1="-1759.684" x2="-1756.235" y1="572.477" y2="575.927" gradientTransform="matrix(4.7764576,-0.18469831,0.18469831,4.7764576,8359.2998,-3049.6313)" gradientUnits="userSpaceOnUse"><stop id="stop1061" offset="0" style="stop-color:#f8f1dc"/><stop id="stop1062" offset="1" style="stop-color:#d6a84a"/></linearGradient><linearGradient id="XMLID_141_" x1="-77.475" x2="-65.559" y1="-9.648" y2="16.807" gradientTransform="matrix(-4.764174,0.39225471,0.39225471,4.764174,-264.81734,-19.111523)" gradientUnits="userSpaceOnUse"><stop id="stop1068" offset="0" style="stop-color:#ffa700"/><stop id="stop1069" offset=".775" style="stop-color:gold"/><stop id="stop1070" offset="1" style="stop-color:#ff794b"/></linearGradient><linearGradient id="XMLID_142_" x1="-1753.172" x2="-1751.339" y1="564.308" y2="562.123" gradientTransform="matrix(4.7764576,-0.18469831,0.18469831,4.7764576,8359.2998,-3049.6313)" gradientUnits="userSpaceOnUse"><stop id="stop1081" offset="0" style="stop-color:#ffc957"/><stop id="stop1082" offset="1" style="stop-color:#ff6d00"/></linearGradient><linearGradient id="XMLID_143_" x1="-1763.878" x2="-1756.183" y1="557.699" y2="574.784" gradientTransform="matrix(4.7764576,-0.18469831,0.18469831,4.7764576,8359.2998,-3049.6313)" gradientUnits="userSpaceOnUse"><stop id="stop1088" offset="0" style="stop-color:#ffa700"/><stop id="stop1089" offset=".775" style="stop-color:gold"/><stop id="stop1090" offset="1" style="stop-color:#ff9200"/></linearGradient><linearGradient id="XMLID_144_" x1="-77.033" x2="-64.39" y1="9.494" y2="9.494" gradientTransform="matrix(-4.764174,0.39225471,0.39225471,4.764174,-264.81734,-19.111523)" gradientUnits="userSpaceOnUse"><stop id="stop1098" offset="0" style="stop-color:#7d7d99"/><stop id="stop1099" offset=".18" style="stop-color:#b1b1c5"/><stop id="stop1100" offset=".373" style="stop-color:#bcbcc8"/><stop id="stop1101" offset=".682" style="stop-color:#c8c8cb"/><stop id="stop1102" offset="1" style="stop-color:#ccc"/></linearGradient></defs><metadata id="metadata549"><xpacket>begin=&apos; &apos; id=&apos;W5M0MpCehiHzreSzNTczkc9d&apos;</xpacket><x:xmpmeta x:xmptk="XMP toolkit 3.0-29, framework 1.6"><metadata/></x:xmpmeta><xpacket>end=&apos;w&apos;</xpacket></metadata><g id="g1339" transform="matrix(1.1237162,0,0,1.1237162,-5.9936984,-5.6886366)"><g id="Layer_1" transform="translate(0,54.4)"><g id="g553"><linearGradient id="XMLID_73_" x1="49.839" x2="3.438" y1="24" y2="24" gradientTransform="matrix(-1,0,0,1,48,0)" gradientUnits="userSpaceOnUse"><stop id="stop555" offset="0" style="stop-color:#336"/><stop id="stop556" offset="1" style="stop-color:#00008d"/></linearGradient><linearGradient id="XMLID_74_" x1="49.835" x2="3.434" y1="24" y2="24" gradientTransform="matrix(-1,0,0,1,48,0)" gradientUnits="userSpaceOnUse"><stop id="stop562" offset="0" style="stop-color:#7e00b3"/><stop id="stop563" offset="1" style="stop-color:#00008d"/></linearGradient><linearGradient id="XMLID_75_" x1="36.697" x2="29.28" y1="37.584" y2="30.166" gradientTransform="matrix(-1,0,0,1,48,0)" gradientUnits="userSpaceOnUse"><stop id="stop569" offset="0" style="stop-color:#66c"/><stop id="stop570" offset="1" style="stop-color:#336"/></linearGradient><linearGradient id="XMLID_76_" x1="15.332" x2="43.208" y1="19.486" y2="33.111" gradientTransform="matrix(-1,0,0,1,48,0)" gradientUnits="userSpaceOnUse"><stop id="stop576" offset="0" style="stop-color:#00008d"/><stop id="stop577" offset=".23" style="stop-color:#7c74ff"/><stop id="stop578" offset="1" style="stop-color:#e6edff"/></linearGradient><linearGradient id="XMLID_77_" x1="42.595" x2="7.594" y1="33.86" y2="14.86" gradientTransform="matrix(-1,0,0,1,48,0)" gradientUnits="userSpaceOnUse"><stop id="stop586" offset="0" style="stop-color:#9b95ff"/><stop id="stop587" offset=".207" style="stop-color:#9791fb"/><stop id="stop588" offset=".424" style="stop-color:#8a86ef"/><stop id="stop589" offset=".643" style="stop-color:#7674db"/><stop id="stop590" offset=".77" style="stop-color:#66c"/><stop id="stop591" offset="1" style="stop-color:#5454a2"/></linearGradient><linearGradient id="XMLID_78_" x1="30.754" x2="13.254" y1="38.042" y2="6.292" gradientTransform="matrix(-1,0,0,1,48,0)" gradientUnits="userSpaceOnUse"><stop id="stop599" offset="0" style="stop-color:#fff"/><stop id="stop600" offset=".147" style="stop-color:#fbfbfd"/><stop id="stop601" offset=".3" style="stop-color:#eeeef6"/><stop id="stop602" offset=".457" style="stop-color:#d9d9eb"/><stop id="stop603" offset=".615" style="stop-color:#bcbcdb"/><stop id="stop604" offset=".775" style="stop-color:#9696c6"/><stop id="stop605" offset=".935" style="stop-color:#6969ad"/><stop id="stop606" offset="1" style="stop-color:#5454a2"/></linearGradient><linearGradient id="XMLID_79_" x1="23.473" x2="23.473" y1="39.5" y2="5.092" gradientTransform="matrix(-1,0,0,1,48,0)" gradientUnits="userSpaceOnUse"><stop id="stop613" offset="0" style="stop-color:#94caff"/><stop id="stop614" offset=".64" style="stop-color:#034cfe"/><stop id="stop615" offset="1" style="stop-color:#00008d"/></linearGradient><linearGradient id="XMLID_80_" x1="-6.399" x2="43.225" y1="5.69" y2="31.939" gradientTransform="matrix(-1,0,0,1,48,0)" gradientUnits="userSpaceOnUse"><stop id="stop623" offset="0" style="stop-color:#c9e6ff"/><stop id="stop624" offset="1" style="stop-color:#fff"/></linearGradient><radialGradient id="XMLID_81_" cx="109.353" cy="83.584" r="424.27" fx="109.353" fy="83.584" gradientTransform="matrix(-0.1875,0,0,0.1875,28.5,19.5)" gradientUnits="userSpaceOnUse"><stop id="stop630" offset="0" style="stop-color:#fff"/><stop id="stop631" offset=".1" style="stop-color:#ecf6ff"/><stop id="stop632" offset=".537" style="stop-color:#9ccfff"/><stop id="stop633" offset=".847" style="stop-color:#6ab6ff"/><stop id="stop634" offset="1" style="stop-color:#57adff"/></radialGradient><linearGradient id="XMLID_82_" x1="49.815" x2="3.693" y1="11.178" y2="11.178" gradientTransform="matrix(-1,0,0,1,48,0)" gradientUnits="userSpaceOnUse"><stop id="stop640" offset="0" style="stop-color:#7e00b3"/><stop id="stop641" offset="1" style="stop-color:#00008d"/></linearGradient><linearGradient id="XMLID_83_" x1="49.814" x2="3.688" y1="11.178" y2="11.178" gradientTransform="matrix(-1,0,0,1,48,0)" gradientUnits="userSpaceOnUse"><stop id="stop647" offset="0" style="stop-color:#7e00b3"/><stop id="stop648" offset="1" style="stop-color:#00008d"/></linearGradient><linearGradient id="XMLID_84_" x1="36.847" x2="2.732" y1="16.194" y2="16.194" gradientTransform="matrix(-1,0,0,1,48,0)" gradientUnits="userSpaceOnUse"><stop id="stop654" offset="0" style="stop-color:#fff"/><stop id="stop655" offset="1" style="stop-color:#000"/></linearGradient><linearGradient id="XMLID_85_" x1="24.133" x2="24.133" y1="2.108" y2="27.233" gradientTransform="matrix(-1,0,0,1,48,0)" gradientUnits="userSpaceOnUse"><stop id="stop661" offset="0" style="stop-color:#e1e1ff"/><stop id="stop662" offset=".5" style="stop-color:#9b95ff"/><stop id="stop663" offset="1" style="stop-color:#7c74ff"/></linearGradient><linearGradient id="XMLID_86_" x1="3.283" x2="44.98" y1="13.952" y2="13.952" gradientTransform="matrix(-1,0,0,1,48,0)" gradientUnits="userSpaceOnUse"><stop id="stop671" offset="0" style="stop-color:#e1e1ff"/><stop id="stop672" offset="1" style="stop-color:#9b95ff"/></linearGradient><linearGradient id="XMLID_87_" x1="24.132" x2="24.132" y1="2.17" y2="13.546" gradientTransform="matrix(-1,0,0,1,48,0)" gradientUnits="userSpaceOnUse"><stop id="stop678" offset="0" style="stop-color:#fff"/><stop id="stop679" offset=".218" style="stop-color:#fcfcff"/><stop id="stop680" offset=".407" style="stop-color:#f2f1ff"/><stop id="stop681" offset=".587" style="stop-color:#e1dfff"/><stop id="stop682" offset=".76" style="stop-color:#c9c6ff"/><stop id="stop683" offset=".927" style="stop-color:#aba6ff"/><stop id="stop684" offset="1" style="stop-color:#9b95ff"/></linearGradient><linearGradient id="XMLID_88_" x1="1.489" x2="31.886" y1="1.054" y2="17.133" gradientTransform="matrix(-1,0,0,1,48,0)" gradientUnits="userSpaceOnUse"><stop id="stop690" offset="0" style="stop-color:#94caff"/><stop id="stop691" offset="1" style="stop-color:#fff"/></linearGradient></g><path style="fill:#fff;stroke-width:4.78026533" id="path1052" d="m 17.597646,61.511369 c 6.780754,-29.109114 8.005436,-34.381636 8.820882,-35.545907 -0.09024,0.06618 -0.221003,0.164108 -0.221003,0.164108 l 55.99822,-73.728131 c 2.998077,-3.922777 11.027169,-0.624454 17.220572,4.096118 6.137943,4.667046 11.474813,11.519997 8.683453,15.536804 L 51.797352,45.84631 51.383024,45.962275 22.873112,62.217296 16.996585,64.570107 Z"/><path style="fill:url(#XMLID_139_);stroke-width:4.78026533" id="path1059" d="m 17.597646,61.511369 c 6.780754,-29.109114 8.005436,-34.381636 8.820882,-35.545907 -0.09024,0.06618 -0.221003,0.164108 -0.221003,0.164108 l 55.99822,-73.728131 c 2.998077,-3.922777 11.027169,-0.624454 17.220572,4.096118 6.137943,4.667046 11.474813,11.519997 8.683453,15.536804 L 51.797352,45.84631 51.383024,45.962275 22.873112,62.217296 16.996585,64.570107 Z"/><path style="fill:url(#XMLID_140_);stroke-width:4.78026533" id="path1066" d="M 30.183829,27.605214 21.878931,58.419117 49.26583,42.018835 49.129282,41.909301 c 0.191958,-0.07595 0.378559,-0.170261 0.532839,-0.289993 l 0.104229,0.08411 53.70423,-70.464038 -0.10614,-0.07359 c 1.59805,-2.099847 -1.39703,-7.071806 -6.688912,-11.109382 -5.295133,-4.031649 -10.87233,-5.600633 -12.476313,-3.504035 L 30.502827,27.00914 Z"/><path style="fill:url(#XMLID_141_);stroke-width:4.78026533" id="path1076" d="M 46.006314,43.971245 C 44.357279,43.8152 42.273691,43.108757 40.115437,41.97593 38.777191,41.280985 37.393203,40.395222 36.027345,39.349794 34.800715,38.423078 33.705049,37.433232 32.757193,36.455018 30.960548,34.599144 29.813028,32.578684 29.310148,30.873006 l 0.879609,-3.264543 0.318998,-0.596074 53.341793,-69.999699 c -0.335748,1.801087 1.137959,4.597789 3.819159,7.385619 0.982856,1.012816 2.097075,2.032103 3.363294,2.992082 1.32627,1.012166 2.679277,1.877094 3.975455,2.5644 3.715275,1.9631 7.026594,2.525289 8.442994,1.270251 l 0.0191,0.01434 -53.70423,70.464038 -0.104229,-0.08411 c -0.15294,0.124321 -0.340881,0.21404 -0.532839,0.289993 l 0.136548,0.109534 z"/><path style="fill:#fff;stroke-width:4.78026533" id="path1077" d="m 103.64216,-29.298726 c -1.24425,1.503574 -4.653077,0.999725 -8.498774,-1.034859 -1.275714,-0.66838 -2.59908,-1.517062 -3.900297,-2.511642 -1.247095,-0.945642 -2.33951,-1.941416 -3.303242,-2.939895 -3.099281,-3.213563 -4.553201,-6.45426 -3.414711,-8.081333 l -0.02046,-0.01892 -54.066658,70.928378 c -0.356013,1.816963 0.879927,5.061533 3.615821,7.883194 0.934661,0.967127 2.008523,1.933459 3.216029,2.845839 1.338127,1.018665 2.698401,1.891431 4.008346,2.574718 3.916066,2.053881 7.569287,2.695538 8.794592,1.092921 0.275644,-0.369289 1.49636,-1.970566 1.525603,-2.02392 L 103.8466,-29.144273 Z"/><path style="fill:#fff;stroke-width:4.78026533" id="path1078" d="m 96.676868,-39.939008 c -5.295134,-4.031648 -10.872331,-5.600632 -12.476314,-3.504035 l -12.097624,15.876225 0.808096,20.8683557 14.157113,-0.5471349 16.403771,-21.5104358 -0.10613,-0.07359 c 1.6013,-2.105776 -1.39837,-7.076395 -6.688912,-11.109383 z"/><path style="fill:#fff;stroke-width:4.78026533" id="path1079" d="m 103.64216,-29.298726 c -1.24425,1.503574 -4.653077,0.999725 -8.498774,-1.034859 -1.275714,-0.66838 -2.59908,-1.517062 -3.900297,-2.511642 -1.247095,-0.945642 -2.33951,-1.941416 -3.303242,-2.939895 -3.099281,-3.213563 -4.553201,-6.45426 -3.414711,-8.081333 l -0.02046,-0.01892 -54.066658,70.928378 c -0.356013,1.816963 0.879927,5.061533 3.615821,7.883194 0.934661,0.967127 2.008523,1.933459 3.216029,2.845839 1.338127,1.018665 2.698401,1.891431 4.008346,2.574718 3.916066,2.053881 7.569287,2.695538 8.794592,1.092921 0.275644,-0.369289 1.49636,-1.970566 1.525603,-2.02392 L 103.8466,-29.144273 Z"/><path style="fill:url(#XMLID_142_);stroke-width:4.78026533" id="path1086" d="m 96.676868,-39.939008 c -5.295134,-4.031648 -10.872331,-5.600632 -12.476314,-3.504035 l -12.097624,15.876225 0.808096,20.8683557 14.157113,-0.5471349 16.403771,-21.5104358 -0.10613,-0.07359 c 1.6013,-2.105776 -1.39837,-7.076395 -6.688912,-11.109383 z"/><path style="fill:url(#XMLID_143_);stroke-width:4.78026533" id="path1096" d="m 103.64216,-29.298726 c -1.24425,1.503574 -4.653077,0.999725 -8.498774,-1.034859 -1.275714,-0.66838 -2.59908,-1.517062 -3.900297,-2.511642 -1.247095,-0.945642 -2.33951,-1.941416 -3.303242,-2.939895 -3.099281,-3.213563 -4.553201,-6.45426 -3.414711,-8.081333 l -0.02046,-0.01892 -54.066658,70.928378 c -0.356013,1.816963 0.879927,5.061533 3.615821,7.883194 0.934661,0.967127 2.008523,1.933459 3.216029,2.845839 1.338127,1.018665 2.698401,1.891431 4.008346,2.574718 3.916066,2.053881 7.569287,2.695538 8.794592,1.092921 0.275644,-0.369289 1.49636,-1.970566 1.525603,-2.02392 L 103.8466,-29.144273 Z"/><path style="fill:url(#XMLID_144_);stroke-width:4.78026533" id="path1108" d="m 99.189847,-23.15873 c 0,0 -4.754019,0.227448 -8.589198,-1.805226 -1.275715,-0.668381 -2.605009,-1.520312 -3.904887,-2.510303 -1.242505,-0.946982 -2.33951,-1.941416 -3.303242,-2.939895 -2.529917,-2.62782 -3.965349,-5.276342 -3.779119,-7.043744 l 4.89261,-6.422893 0.02046,0.01893 c -1.138489,1.627072 0.31677,4.872359 3.414711,8.081333 0.963732,0.998479 2.056148,1.994253 3.303242,2.939895 1.301218,0.99458 2.624584,1.843262 3.900298,2.511642 3.841108,2.035923 7.254528,2.538433 8.498778,1.034859 l 0.19985,0.155792 -52.244949,68.554095 c -0.0279,0.05794 -1.24862,1.65922 -1.525603,2.02392 -0.245061,0.320523 -0.583263,0.543741 -1.00332,0.691258 z"/><path style="fill:#033;stroke-width:4.78026533" id="path1109" d="m 27.99552,49.587272 c 1.379054,1.056515 2.772988,1.959293 4.132467,2.692858 l -10.244468,6.137648 3.085132,-11.437756 c 0.905961,0.885869 1.916323,1.771141 3.026869,2.60725 z"/><path style="opacity:.5;fill:#fff;stroke-width:4.78026533" id="path1110" d="m 33.808642,34.649183 54.398003,-70.168582 c -0.08453,-0.08488 -0.180925,-0.176256 -0.262209,-0.267063 -1.235888,-1.282557 -2.20523,-2.573205 -2.860772,-3.761243 L 30.956146,30.268033 c 0.558263,1.400685 1.509303,2.935704 2.852496,4.38115 z"/><path style="opacity:.5;fill:#fff;stroke-width:4.78026533" id="path1111" d="m 87.944436,-35.786462 c -0.548901,-0.566817 -1.038717,-1.135943 -1.475949,-1.695519 L 32.163002,32.559998 c 0.52524,0.792834 1.145133,1.602856 1.890833,2.366194 0.645291,0.658195 1.346416,1.320011 2.111783,1.963074 l 54.448851,-70.233222 c -0.988161,-0.792158 -1.881298,-1.617033 -2.670033,-2.442506 z"/></g></g></svg>