<svg xmlns="http://www.w3.org/2000/svg" xmlns:svg="http://www.w3.org/2000/svg" xmlns:xlink="http://www.w3.org/1999/xlink" id="svg10709" width="128" height="128" version="1.1" viewBox="0 0 128 128"><defs id="defs10711"><clipPath id="clipPath9750" clipPathUnits="userSpaceOnUse"><g id="g9752" transform="matrix(0.67877845,0,-0.43891498,0.67877845,798.30404,345.95012)" style="fill:#265165;fill-opacity:1;stroke:none"><path id="path9754" d="m 1444.5578,1117.3546 3.9953,0 0,98.7642 -3.9953,0 z" style="opacity:1;fill:#265165;fill-opacity:1;stroke:none;stroke-width:.07723933;stroke-linecap:round;stroke-linejoin:round;stroke-miterlimit:4;stroke-dasharray:none;stroke-dashoffset:0;stroke-opacity:1"/><path style="opacity:1;fill:#265165;fill-opacity:1;stroke:none;stroke-width:.07723933;stroke-linecap:round;stroke-linejoin:round;stroke-miterlimit:4;stroke-dasharray:none;stroke-dashoffset:0;stroke-opacity:1" id="path9756" d="m 1450.8361,1117.3546 3.9953,0 0,98.7642 -3.9953,0 z"/><path id="path9758" d="m 1457.1144,1117.3546 3.9953,0 0,98.7642 -3.9953,0 z" style="opacity:1;fill:#265165;fill-opacity:1;stroke:none;stroke-width:.07723933;stroke-linecap:round;stroke-linejoin:round;stroke-miterlimit:4;stroke-dasharray:none;stroke-dashoffset:0;stroke-opacity:1"/><path style="opacity:1;fill:#265165;fill-opacity:1;stroke:none;stroke-width:.07723933;stroke-linecap:round;stroke-linejoin:round;stroke-miterlimit:4;stroke-dasharray:none;stroke-dashoffset:0;stroke-opacity:1" id="path9760" d="m 1463.3926,1117.3546 3.9953,0 0,98.7642 -3.9953,0 z"/><path id="path9762" d="m 1469.671,1117.3546 3.9953,0 0,98.7642 -3.9953,0 z" style="opacity:1;fill:#265165;fill-opacity:1;stroke:none;stroke-width:.07723933;stroke-linecap:round;stroke-linejoin:round;stroke-miterlimit:4;stroke-dasharray:none;stroke-dashoffset:0;stroke-opacity:1"/><path style="opacity:1;fill:#265165;fill-opacity:1;stroke:none;stroke-width:.07723933;stroke-linecap:round;stroke-linejoin:round;stroke-miterlimit:4;stroke-dasharray:none;stroke-dashoffset:0;stroke-opacity:1" id="path9764" d="m 1475.9492,1117.3546 3.9953,0 0,98.7642 -3.9953,0 z"/><path id="path9766" d="m 1482.2275,1117.3546 3.9953,0 0,98.7642 -3.9953,0 z" style="opacity:1;fill:#265165;fill-opacity:1;stroke:none;stroke-width:.07723933;stroke-linecap:round;stroke-linejoin:round;stroke-miterlimit:4;stroke-dasharray:none;stroke-dashoffset:0;stroke-opacity:1"/><path style="opacity:1;fill:#265165;fill-opacity:1;stroke:none;stroke-width:.07723933;stroke-linecap:round;stroke-linejoin:round;stroke-miterlimit:4;stroke-dasharray:none;stroke-dashoffset:0;stroke-opacity:1" id="path9768" d="m 1488.5059,1117.3546 3.9953,0 0,98.7642 -3.9953,0 z"/><path id="path9770" d="m 1494.7841,1117.3546 3.9953,0 0,98.7642 -3.9953,0 z" style="opacity:1;fill:#265165;fill-opacity:1;stroke:none;stroke-width:.07723933;stroke-linecap:round;stroke-linejoin:round;stroke-miterlimit:4;stroke-dasharray:none;stroke-dashoffset:0;stroke-opacity:1"/><path style="opacity:1;fill:#265165;fill-opacity:1;stroke:none;stroke-width:.07723933;stroke-linecap:round;stroke-linejoin:round;stroke-miterlimit:4;stroke-dasharray:none;stroke-dashoffset:0;stroke-opacity:1" id="path9772" d="m 1501.0624,1117.3546 3.9953,0 0,98.7642 -3.9953,0 z"/><path id="path9774" d="m 1507.3408,1117.3546 3.9952,0 0,98.7642 -3.9952,0 z" style="opacity:1;fill:#265165;fill-opacity:1;stroke:none;stroke-width:.07723933;stroke-linecap:round;stroke-linejoin:round;stroke-miterlimit:4;stroke-dasharray:none;stroke-dashoffset:0;stroke-opacity:1"/><path style="opacity:1;fill:#265165;fill-opacity:1;stroke:none;stroke-width:.07723933;stroke-linecap:round;stroke-linejoin:round;stroke-miterlimit:4;stroke-dasharray:none;stroke-dashoffset:0;stroke-opacity:1" id="path9776" d="m 1513.619,1117.3546 3.9953,0 0,98.7642 -3.9953,0 z"/><path id="path9778" d="m 1519.8973,1117.3546 3.9953,0 0,98.7642 -3.9953,0 z" style="opacity:1;fill:#265165;fill-opacity:1;stroke:none;stroke-width:.07723933;stroke-linecap:round;stroke-linejoin:round;stroke-miterlimit:4;stroke-dasharray:none;stroke-dashoffset:0;stroke-opacity:1"/><path style="opacity:1;fill:#265165;fill-opacity:1;stroke:none;stroke-width:.07723933;stroke-linecap:round;stroke-linejoin:round;stroke-miterlimit:4;stroke-dasharray:none;stroke-dashoffset:0;stroke-opacity:1" id="path9780" d="m 1526.1756,1117.3546 3.9953,0 0,98.7642 -3.9953,0 z"/><path id="path9782" d="m 1532.4539,1117.3546 3.9953,0 0,98.7642 -3.9953,0 z" style="opacity:1;fill:#265165;fill-opacity:1;stroke:none;stroke-width:.07723933;stroke-linecap:round;stroke-linejoin:round;stroke-miterlimit:4;stroke-dasharray:none;stroke-dashoffset:0;stroke-opacity:1"/><path style="opacity:1;fill:#265165;fill-opacity:1;stroke:none;stroke-width:.07723933;stroke-linecap:round;stroke-linejoin:round;stroke-miterlimit:4;stroke-dasharray:none;stroke-dashoffset:0;stroke-opacity:1" id="path9784" d="m 1538.7322,1117.3546 3.9953,0 0,98.7642 -3.9953,0 z"/><path id="path9786" d="m 1545.0105,1117.3546 3.9953,0 0,98.7642 -3.9953,0 z" style="opacity:1;fill:#265165;fill-opacity:1;stroke:none;stroke-width:.07723933;stroke-linecap:round;stroke-linejoin:round;stroke-miterlimit:4;stroke-dasharray:none;stroke-dashoffset:0;stroke-opacity:1"/><path style="opacity:1;fill:#265165;fill-opacity:1;stroke:none;stroke-width:.07723933;stroke-linecap:round;stroke-linejoin:round;stroke-miterlimit:4;stroke-dasharray:none;stroke-dashoffset:0;stroke-opacity:1" id="path9788" d="m 1551.2888,1117.3546 3.9953,0 0,98.7642 -3.9953,0 z"/><path id="path9790" d="m 1557.5671,1117.3546 3.9952,0 0,98.7642 -3.9952,0 z" style="opacity:1;fill:#265165;fill-opacity:1;stroke:none;stroke-width:.07723933;stroke-linecap:round;stroke-linejoin:round;stroke-miterlimit:4;stroke-dasharray:none;stroke-dashoffset:0;stroke-opacity:1"/><path style="opacity:1;fill:#265165;fill-opacity:1;stroke:none;stroke-width:.07723933;stroke-linecap:round;stroke-linejoin:round;stroke-miterlimit:4;stroke-dasharray:none;stroke-dashoffset:0;stroke-opacity:1" id="path9792" d="m 1563.8454,1117.3546 3.9953,0 0,98.7642 -3.9953,0 z"/><path id="path9794" d="m 1570.1237,1117.3546 3.9953,0 0,98.7642 -3.9953,0 z" style="opacity:1;fill:#265165;fill-opacity:1;stroke:none;stroke-width:.07723933;stroke-linecap:round;stroke-linejoin:round;stroke-miterlimit:4;stroke-dasharray:none;stroke-dashoffset:0;stroke-opacity:1"/><path style="opacity:1;fill:#265165;fill-opacity:1;stroke:none;stroke-width:.07723933;stroke-linecap:round;stroke-linejoin:round;stroke-miterlimit:4;stroke-dasharray:none;stroke-dashoffset:0;stroke-opacity:1" id="path9796" d="m 1576.4019,1117.3546 3.9953,0 0,98.7642 -3.9953,0 z"/><path id="path9798" d="m 1582.6803,1117.3546 3.9953,0 0,98.7642 -3.9953,0 z" style="opacity:1;fill:#265165;fill-opacity:1;stroke:none;stroke-width:.07723933;stroke-linecap:round;stroke-linejoin:round;stroke-miterlimit:4;stroke-dasharray:none;stroke-dashoffset:0;stroke-opacity:1"/><path style="opacity:1;fill:#265165;fill-opacity:1;stroke:none;stroke-width:.07723933;stroke-linecap:round;stroke-linejoin:round;stroke-miterlimit:4;stroke-dasharray:none;stroke-dashoffset:0;stroke-opacity:1" id="path9800" d="m 1588.9586,1117.3546 3.9953,0 0,98.7642 -3.9953,0 z"/><path id="path9802" d="m 1595.2368,1117.3546 3.9953,0 0,98.7642 -3.9953,0 z" style="opacity:1;fill:#265165;fill-opacity:1;stroke:none;stroke-width:.07723933;stroke-linecap:round;stroke-linejoin:round;stroke-miterlimit:4;stroke-dasharray:none;stroke-dashoffset:0;stroke-opacity:1"/><path style="opacity:1;fill:#265165;fill-opacity:1;stroke:none;stroke-width:.07723933;stroke-linecap:round;stroke-linejoin:round;stroke-miterlimit:4;stroke-dasharray:none;stroke-dashoffset:0;stroke-opacity:1" id="path9804" d="m 1601.5152,1117.3546 3.9953,0 0,98.7642 -3.9953,0 z"/><path id="path9806" d="m 1607.7935,1117.3546 3.9952,0 0,98.7642 -3.9952,0 z" style="opacity:1;fill:#265165;fill-opacity:1;stroke:none;stroke-width:.07723933;stroke-linecap:round;stroke-linejoin:round;stroke-miterlimit:4;stroke-dasharray:none;stroke-dashoffset:0;stroke-opacity:1"/><path style="opacity:1;fill:#265165;fill-opacity:1;stroke:none;stroke-width:.07723933;stroke-linecap:round;stroke-linejoin:round;stroke-miterlimit:4;stroke-dasharray:none;stroke-dashoffset:0;stroke-opacity:1" id="path9808" d="m 1614.0717,1117.3546 3.9953,0 0,98.7642 -3.9953,0 z"/><path id="path9810" d="m 1620.35,1117.3546 3.9953,0 0,98.7642 -3.9953,0 z" style="opacity:1;fill:#265165;fill-opacity:1;stroke:none;stroke-width:.07723933;stroke-linecap:round;stroke-linejoin:round;stroke-miterlimit:4;stroke-dasharray:none;stroke-dashoffset:0;stroke-opacity:1"/><path style="opacity:1;fill:#265165;fill-opacity:1;stroke:none;stroke-width:.07723933;stroke-linecap:round;stroke-linejoin:round;stroke-miterlimit:4;stroke-dasharray:none;stroke-dashoffset:0;stroke-opacity:1" id="path9812" d="m 1626.6283,1117.3546 3.9953,0 0,98.7642 -3.9953,0 z"/><path id="path9814" d="m 1632.9066,1117.3546 3.9953,0 0,98.7642 -3.9953,0 z" style="opacity:1;fill:#265165;fill-opacity:1;stroke:none;stroke-width:.07723933;stroke-linecap:round;stroke-linejoin:round;stroke-miterlimit:4;stroke-dasharray:none;stroke-dashoffset:0;stroke-opacity:1"/><path style="opacity:1;fill:#265165;fill-opacity:1;stroke:none;stroke-width:.07723933;stroke-linecap:round;stroke-linejoin:round;stroke-miterlimit:4;stroke-dasharray:none;stroke-dashoffset:0;stroke-opacity:1" id="path9816" d="m 1639.1849,1117.3546 3.9953,0 0,98.7642 -3.9953,0 z"/><path id="path9818" d="m 1645.4632,1117.3546 3.9953,0 0,98.7642 -3.9953,0 z" style="opacity:1;fill:#265165;fill-opacity:1;stroke:none;stroke-width:.07723933;stroke-linecap:round;stroke-linejoin:round;stroke-miterlimit:4;stroke-dasharray:none;stroke-dashoffset:0;stroke-opacity:1"/><path style="opacity:1;fill:#265165;fill-opacity:1;stroke:none;stroke-width:.07723933;stroke-linecap:round;stroke-linejoin:round;stroke-miterlimit:4;stroke-dasharray:none;stroke-dashoffset:0;stroke-opacity:1" id="path9820" d="m 1651.7415,1117.3546 3.9953,0 0,98.7642 -3.9953,0 z"/><path id="path9822" d="m 1658.0197,1117.3546 3.9953,0 0,98.7642 -3.9953,0 z" style="opacity:1;fill:#265165;fill-opacity:1;stroke:none;stroke-width:.07723933;stroke-linecap:round;stroke-linejoin:round;stroke-miterlimit:4;stroke-dasharray:none;stroke-dashoffset:0;stroke-opacity:1"/><path style="opacity:1;fill:#265165;fill-opacity:1;stroke:none;stroke-width:.07723933;stroke-linecap:round;stroke-linejoin:round;stroke-miterlimit:4;stroke-dasharray:none;stroke-dashoffset:0;stroke-opacity:1" id="path9824" d="m 1664.2981,1117.3546 3.9953,0 0,98.7642 -3.9953,0 z"/><path id="path9826" d="m 1670.5764,1117.3546 3.9953,0 0,98.7642 -3.9953,0 z" style="opacity:1;fill:#265165;fill-opacity:1;stroke:none;stroke-width:.07723933;stroke-linecap:round;stroke-linejoin:round;stroke-miterlimit:4;stroke-dasharray:none;stroke-dashoffset:0;stroke-opacity:1"/></g></clipPath><filter id="filter14456"><feGaussianBlur id="feGaussianBlur14458" stdDeviation=".36"/></filter><linearGradient id="linearGradient25649" x1="481.195" x2="495.852" y1="215.963" y2="224.939" gradientTransform="matrix(1.1060776,0,0,1.1060776,-17.332073,184.60948)" gradientUnits="userSpaceOnUse" xlink:href="#linearGradient14440"/><linearGradient id="linearGradient14440"><stop id="stop14442" offset="0" style="stop-color:#fc0;stop-opacity:1"/><stop style="stop-color:#fc0;stop-opacity:1" id="stop14444" offset=".377"/><stop id="stop14446" offset="1" style="stop-color:#f60;stop-opacity:1"/></linearGradient><linearGradient id="linearGradient25575" x1="207.379" x2="212.867" y1="458.023" y2="464.74" gradientUnits="userSpaceOnUse" xlink:href="#linearGradient14084"/><linearGradient id="linearGradient14084"><stop style="stop-color:#fc0;stop-opacity:1" id="stop14086" offset="0"/><stop style="stop-color:#d45500;stop-opacity:1" id="stop14088" offset="1"/></linearGradient><linearGradient id="linearGradient25664" x1="481.195" x2="495.852" y1="215.963" y2="224.939" gradientTransform="matrix(0.28889805,0,0,0.28889805,311.95494,389.54749)" gradientUnits="userSpaceOnUse" xlink:href="#linearGradient14440"/><linearGradient id="linearGradient25668" x1="481.195" x2="495.852" y1="215.963" y2="224.939" gradientTransform="matrix(0.28889805,0,0,0.28889805,324.49965,389.54748)" gradientUnits="userSpaceOnUse" xlink:href="#linearGradient14440"/></defs><metadata id="metadata10714"/><g id="layer1" transform="translate(0,-924.36216)"><g id="g25712" transform="matrix(5.8181818,0,0,5.8181818,-2611.7262,-1615.1297)"><rect style="opacity:1;fill:#719cd0;fill-opacity:0;stroke:none;stroke-width:.60000002;stroke-linecap:round;stroke-linejoin:round;stroke-miterlimit:4;stroke-dasharray:none;stroke-dashoffset:0;stroke-opacity:1" id="rect25627" width="22" height="22" x="448.89" y="436.475" ry=".009"/><path style="opacity:1;fill:#ccc;fill-opacity:.99215686;stroke:none;stroke-width:6.45499992;stroke-linecap:round;stroke-linejoin:round;stroke-miterlimit:4;stroke-dasharray:none;stroke-dashoffset:0;stroke-opacity:1" id="path25629" d="m 454.77228,427.51215 c -0.0259,0.0449 -8.92264,5.18141 -8.97446,5.18141 -0.0518,0 -8.94855,-5.13653 -8.97445,-5.18141 -0.0259,-0.0449 -0.0259,-10.31793 0,-10.3628 0.0259,-0.0449 8.92264,-5.18141 8.97445,-5.18141 0.0518,0 8.94855,5.13653 8.97446,5.18141 0.0259,0.0449 0.0259,10.31793 0,10.3628 z" transform="matrix(1.1118666,0,0,1.0494743,-35.777265,4.249896)"/><path id="path25631" d="m 454.77228,427.51215 c -0.0259,0.0449 -8.92264,5.18141 -8.97446,5.18141 -0.0518,0 -8.94855,-5.13653 -8.97445,-5.18141 -0.0259,-0.0449 -0.0259,-10.31793 0,-10.3628 0.0259,-0.0449 8.92264,-5.18141 8.97445,-5.18141 0.0518,0 8.94855,5.13653 8.97446,5.18141 0.0259,0.0449 0.0259,10.31793 0,10.3628 z" transform="matrix(1.0096307,0,0,0.95297535,9.7992763,45.00437)" style="opacity:1;fill:#e6e6e6;fill-opacity:.99215686;stroke:none;stroke-width:6.45499992;stroke-linecap:round;stroke-linejoin:round;stroke-miterlimit:4;stroke-dasharray:none;stroke-dashoffset:0;stroke-opacity:1"/><path style="opacity:1;fill:teal;fill-opacity:1;stroke:#fff;stroke-width:.02232209;stroke-linecap:round;stroke-linejoin:round;stroke-miterlimit:4;stroke-dasharray:none;stroke-dashoffset:0;stroke-opacity:1" id="path25635" d="m 453.05631,426.52144 c -0.0209,0.0363 -7.21658,4.19069 -7.25849,4.19069 -0.0419,0 -7.23753,-4.1544 -7.25849,-4.19069 -0.021,-0.0363 -0.021,-8.34509 0,-8.38138 0.021,-0.0363 7.21658,-4.19069 7.25849,-4.19069 0.0419,0 7.23754,4.1544 7.25849,4.19069 0.021,0.0363 0.021,8.34509 0,8.38138 z" transform="matrix(1.1118666,0,0,1.0494743,-35.777265,4.249896)"/><path style="opacity:1;fill:#3a7dce;fill-opacity:1;stroke:none;stroke-width:.16542321;stroke-linecap:round;stroke-linejoin:round;stroke-miterlimit:4;stroke-dasharray:none;stroke-dashoffset:0;stroke-opacity:1" id="path25639" d="m 467.96093,451.87318 c -0.0232,0.0381 -8.02386,4.39804 -8.07045,4.39804 -0.0466,0 -8.04718,-4.35994 -8.07048,-4.39804 l -0.008,-4.82041 8.16512,4.03861 7.98683,-3.90278 z"/><path id="path25641" d="m 1406.2141,1139.338 c -0.1553,0.2689 -53.4802,31.0561 -53.7908,31.0561 -0.3105,0 -53.6355,-30.7872 -53.7907,-31.0561 l -0.053,-34.0388 54.4216,28.5182 53.2333,-27.5591 z" clip-path="url(#clipPath9750)" transform="matrix(0.15003448,0,0,0.1416153,256.98041,290.5255)" style="opacity:1;fill:#005b49;fill-opacity:1;stroke:none;stroke-width:.16542321;stroke-linecap:round;stroke-linejoin:round;stroke-miterlimit:4;stroke-dasharray:none;stroke-dashoffset:0;stroke-opacity:1"/><g id="g25643" transform="matrix(0.58973149,0,0,0.58973149,150.87019,195.11789)"><path style="opacity:.82824426;fill:#999;fill-opacity:1;stroke:none;filter:url(#filter14456)" id="path25645" d="m 494.05368,227.42154 -4.95765,-2.37763 -5.10006,2.05447 0.72926,-5.44973 -3.52992,-4.21558 5.40836,-0.9905 2.91845,-4.65984 2.61329,4.83758 5.33362,1.33564 -3.79325,3.98028 z" transform="matrix(1.1264964,0,0,1.1344032,-27.229312,178.80157)"/><path id="path25647" d="m 529.12961,436.15535 -5.48355,-2.62984 -5.64106,2.2724 0.80662,-6.02783 -3.90437,-4.66276 5.98207,-1.09557 3.22803,-5.15414 2.8905,5.35073 5.8994,1.47733 -4.19563,4.4025 z" style="fill:url(#linearGradient25649);fill-opacity:1;stroke:#f4a800;stroke-width:.5;stroke-miterlimit:4;stroke-dasharray:none;stroke-opacity:1"/></g><g id="g25557" transform="matrix(0.78730857,0,0,0.78730857,299.67443,42.960685)"><path style="fill:#ff2a2a;stroke:none" id="path25559" d="m 211.48438,501.98718 0.85937,-0.82812 c 1.20518,-1.12706 4.38727,1.90961 3.10938,3.125 l -0.78125,0.82812 z"/><g id="g25561" transform="matrix(1.3032623,0,0,1.3032623,-62.216289,-94.286548)"><path style="fill:url(#linearGradient25575);fill-opacity:1" id="path25563" d="m 212.51319,459.86121 -4.03766,4.06785 -2.42259,-2.44152 4.03765,-4.06787 2.4226,2.44154 z"/><path style="fill:#fff;fill-opacity:1" id="path25565" d="m 208.40628,464.00436 -2.44213,0.004 0,-2.44073 0.16755,-0.15227 0.18321,0.30295 0.19709,0.0736 0.0976,0.26697 0.25493,0.0821 0.12243,0.23652 0.20782,0.0905 0.13096,0.25592 0.2438,0.11516 0.13085,0.27807 0.33823,0.18639 0.17242,0.27509 0.35798,0.2501 z"/><path style="fill:#000;stroke:none" id="path25567" d="m 205.96093,463.17859 0.85157,0.83203 -0.85156,0.004 z"/></g><path style="fill:#a00;stroke:none" id="path25569" d="m 211.45313,501.73718 3.39062,3.40625 0.26563,-0.27344 -3.39844,-3.39844 z"/></g><path style="fill:url(#linearGradient25664);fill-opacity:1;stroke:none" id="path25662" d="m 454.68606,455.24914 -1.43225,-0.68689 -1.4734,0.59353 0.21068,-1.57441 -1.01979,-1.21788 1.56247,-0.28615 0.84313,-1.34622 0.75498,1.39757 1.54087,0.38586 -1.09586,1.1499 z"/><path id="path25666" d="m 467.23077,455.24914 -1.43226,-0.68689 -1.47339,0.59353 0.21068,-1.57441 -1.01979,-1.21788 1.56247,-0.28615 0.84313,-1.34622 0.75498,1.39757 1.54087,0.38586 -1.09587,1.1499 z" style="fill:url(#linearGradient25668);fill-opacity:1;stroke:none"/></g></g></svg>