<svg xmlns="http://www.w3.org/2000/svg" xmlns:svg="http://www.w3.org/2000/svg" xmlns:xlink="http://www.w3.org/1999/xlink" id="svg2" width="128" height="128" version="1.1" viewBox="0 0 128 128"><metadata id="metadata18"/><defs id="defs16"><linearGradient id="linearGradient8050" x1="207.379" x2="212.867" y1="458.023" y2="464.74" gradientUnits="userSpaceOnUse" xlink:href="#linearGradient14084"/><linearGradient id="linearGradient14084"><stop style="stop-color:#fc0;stop-opacity:1" id="stop14086" offset="0"/><stop style="stop-color:#d45500;stop-opacity:1" id="stop14088" offset="1"/></linearGradient></defs><rect style="opacity:0;fill:#d45500;fill-opacity:.99215686;stroke:none" id="rect14464" width="120" height="120" x="3.568" y="4.146"/><g id="g14466" transform="matrix(10.469824,0,0,11.09916,-2454.6741,-1861.5945)"><g id="g14468" transform="translate(-17.942835,0.26516504)"><circle id="path14470" cx="258.125" cy="170.987" r="2.125" transform="matrix(0.40441172,0,0,0.40441172,157.93935,107.10358)" style="fill:#ffb380;fill-opacity:.99215686;stroke:none"/><path id="path14472" d="m 258.82318,172.96442 c 1.51122,0.11813 3.15172,0.9604 3.97747,2.43068 l -1.63518,1.5026 c -0.45387,-1.55626 -1.43719,-3.20158 -2.34229,-3.93328 z" style="fill:#275ab8;fill-opacity:.99215686;stroke:none"/><circle style="fill:#ffb380;fill-opacity:.99215686;stroke:none" id="path14474" cx="258.125" cy="170.987" r="2.125" transform="matrix(0.40441172,0,0,0.40441172,150.1581,107.32233)"/><path style="fill:#275ab8;fill-opacity:.99215686;stroke:none" id="path14476" d="m 257.82881,172.96442 c -1.51122,0.11813 -3.15172,0.9604 -3.97747,2.43068 l 1.63518,1.5026 c 0.45387,-1.55626 1.43719,-3.20158 2.34229,-3.93328 z"/><path id="path14478" d="m 255.34375,178.34243 6.1875,0.0312 c 0.23476,-1.81501 -0.60971,-4.01475 -1.71875,-4.90625 -0.75734,-0.60879 -1.92178,-0.74099 -2.78125,0.0312 -1.22227,1.09814 -1.98355,3.62435 -1.6875,4.8438 z" style="fill:#58a3fe;fill-opacity:1;stroke:none"/></g><circle style="fill:#ffb380;fill-opacity:.99215686;stroke:none" id="path14480" cx="258.125" cy="170.987" r="2.125" transform="matrix(1.2058823,0,0,1.2058823,-70.768379,-34.546993)"/><path style="fill:#28170b;stroke:none" id="path14482" d="m 237.57005,172.56668 c 0.24273,-0.43227 0.51103,-0.19963 0.77496,-0.0805 -0.22205,-0.70221 -0.13213,-1.62772 0.59329,-1.62141 0.37291,-0.49377 0.59201,-0.40457 1.16802,0.20023 0.42314,0.44428 1.0108,-0.14611 1.03454,-0.70081 0.76784,-0.14129 1.7411,0.26183 1.84523,1.57183 0.0487,-0.73273 0.42784,-0.64674 0.85414,-0.48988 -0.11193,-0.96118 -0.13699,-1.69099 -1.69151,-1.9554 l 0.64217,-0.24101 c -0.80173,-0.92362 -2.38906,-1.27977 -3.65235,-0.28722 -1.36153,0.15597 -1.74499,1.45585 -1.55159,2.59319 -0.0831,0.35248 -0.24945,0.72163 -0.0169,1.01099 z"/></g><path id="path14504" d="m 101.24323,49.008631 3.768,-3.630989 c 5.28427,-4.941727 19.23649,8.372908 13.63344,13.701928 l -3.42547,3.630988 z" style="fill:#ff2a2a;stroke:none"/><g id="g14506" transform="matrix(5.7143062,0,0,5.7143062,-1098.8295,-2565.4233)"><path id="path14508" d="m 212.51319,459.86121 -4.03766,4.06785 -2.42259,-2.44152 4.03765,-4.06787 2.4226,2.44154 z" style="fill:url(#linearGradient8050);fill-opacity:1"/><path id="path14510" d="m 208.40628,464.00436 -2.44213,0.004 0,-2.44073 0.16755,-0.15227 0.18321,0.30295 0.19709,0.0736 0.0976,0.26697 0.25493,0.0821 0.12243,0.23652 0.20782,0.0905 0.13096,0.25592 0.2438,0.11516 0.13085,0.27807 0.33823,0.18639 0.17242,0.27509 0.35798,0.2501 z" style="fill:#fff;fill-opacity:1"/><path id="path14512" d="m 205.96093,463.17859 0.85157,0.83203 -0.85156,0.004 z" style="fill:#000;stroke:none"/></g><path id="path14514" d="m 101.10621,47.912478 14.86657,14.9351 1.16467,-1.198931 -14.90085,-14.900855 z" style="fill:#a00;stroke:none"/></svg>