<svg xmlns="http://www.w3.org/2000/svg" xmlns:svg="http://www.w3.org/2000/svg" xmlns:xlink="http://www.w3.org/1999/xlink" id="svg8" width="128" height="128" version="1.1" viewBox="0 0 33.867 33.867"><defs id="defs2"><linearGradient id="linearGradient1392"><stop id="stop1388" offset="0" style="stop-color:#010000;stop-opacity:1"/><stop id="stop1390" offset="1" style="stop-color:#7b7b7e;stop-opacity:1"/></linearGradient><linearGradient id="linearGradient1361"><stop id="stop1357" offset="0" style="stop-color:#dcdcdc;stop-opacity:1"/><stop id="stop1359" offset="1" style="stop-color:#fff;stop-opacity:.99484539"/></linearGradient><linearGradient id="linearGradient1351"><stop id="stop1347" offset="0" style="stop-color:#d9d9e3;stop-opacity:1"/><stop id="stop1349" offset="1" style="stop-color:#fdfdfd;stop-opacity:1"/></linearGradient><style id="style924"/><linearGradient id="linearGradient1353" x1="-3.714" x2="-3.761" y1="287.954" y2="278.052" gradientTransform="matrix(1.0087029,0,0,1.1062674,0.09488261,-30.295317)" gradientUnits="userSpaceOnUse" xlink:href="#linearGradient1351"/><linearGradient id="linearGradient1363" x1="-3.509" x2="-3.509" y1="278.504" y2="276.885" gradientUnits="userSpaceOnUse" xlink:href="#linearGradient1361"/><linearGradient id="linearGradient1394" x1="-9.683" x2="-9.683" y1="64.403" y2="39.083" gradientTransform="matrix(0.26458333,0,0,0.26458333,0,263.13332)" gradientUnits="userSpaceOnUse" xlink:href="#linearGradient1392"/><clipPath id="clipPath1400" clipPathUnits="userSpaceOnUse"><rect style="opacity:1;fill:url(#linearGradient1404);fill-opacity:1;stroke:none;stroke-width:.35277778;stroke-linecap:round;stroke-linejoin:bevel;stroke-miterlimit:4;stroke-dasharray:none;stroke-dashoffset:0;stroke-opacity:1" id="rect1402" width="18.329" height="2.238" x="-12.426" y="276.671" ry="0"/></clipPath><linearGradient id="linearGradient1404" x1="-3.509" x2="-3.509" y1="278.504" y2="276.885" gradientTransform="translate(0,1.2291667e-6)" gradientUnits="userSpaceOnUse" xlink:href="#linearGradient1361"/><linearGradient id="linearGradient1421" x1="-3.509" x2="-3.509" y1="278.504" y2="276.885" gradientUnits="userSpaceOnUse" xlink:href="#linearGradient1361"/><linearGradient id="linearGradient1423" x1="-9.683" x2="-9.683" y1="64.403" y2="39.083" gradientTransform="matrix(0.26458333,0,0,0.26458333,0,263.13332)" gradientUnits="userSpaceOnUse" xlink:href="#linearGradient1392"/><linearGradient id="linearGradient1353-117" x1="-3.714" x2="-3.761" y1="287.954" y2="278.052" gradientTransform="matrix(1.0087029,0,0,1.1062674,0.09488261,-30.295317)" gradientUnits="userSpaceOnUse" xlink:href="#linearGradient1351-298"/><linearGradient id="linearGradient1351-298"><stop id="stop873" offset="0" style="stop-color:#dedede;stop-opacity:1;opacity:1"/><stop id="stop875" offset="1" style="stop-color:#fdfdfd;stop-opacity:1;opacity:1"/></linearGradient><linearGradient id="linearGradient1363-498" x1="-3.509" x2="-3.509" y1="278.504" y2="276.885" gradientUnits="userSpaceOnUse" xlink:href="#linearGradient1361-557"/><linearGradient id="linearGradient1361-557"><stop id="stop879" offset="0" style="stop-color:#dcdcdc;stop-opacity:1;opacity:1"/><stop id="stop881" offset="1" style="stop-color:#fff;stop-opacity:.99484539;opacity:1"/></linearGradient><linearGradient id="linearGradient1394-74" x1="-9.683" x2="-9.683" y1="64.403" y2="39.083" gradientTransform="matrix(0.26458333,0,0,0.26458333,0,263.13332)" gradientUnits="userSpaceOnUse" xlink:href="#linearGradient1392-869"/><linearGradient id="linearGradient1392-869"><stop id="stop885" offset="0" style="stop-color:#000;stop-opacity:1;opacity:1"/><stop id="stop887" offset="1" style="stop-color:#7c7c7c;stop-opacity:1;opacity:1"/></linearGradient><linearGradient id="linearGradient1421-59" x1="-3.509" x2="-3.509" y1="278.504" y2="276.885" gradientUnits="userSpaceOnUse" xlink:href="#linearGradient1361-606"/><linearGradient id="linearGradient1361-606"><stop id="stop891" offset="0" style="stop-color:#dcdcdc;stop-opacity:1;opacity:1"/><stop id="stop893" offset="1" style="stop-color:#fff;stop-opacity:.99484539;opacity:1"/></linearGradient><linearGradient id="linearGradient1423-968" x1="-9.683" x2="-9.683" y1="64.403" y2="39.083" gradientTransform="matrix(0.26458333,0,0,0.26458333,0,263.13332)" gradientUnits="userSpaceOnUse" xlink:href="#linearGradient1392-494"/><linearGradient id="linearGradient1392-494"><stop id="stop897" offset="0" style="stop-color:#000;stop-opacity:1;opacity:1"/><stop id="stop899" offset="1" style="stop-color:#7c7c7c;stop-opacity:1;opacity:1"/></linearGradient><linearGradient id="linearGradient1353-117-325" x1="-3.714" x2="-3.761" y1="287.954" y2="278.052" gradientTransform="matrix(1.0087029,0,0,1.1062674,0.09488261,-30.295317)" gradientUnits="userSpaceOnUse" xlink:href="#linearGradient1351-298-741"/><linearGradient id="linearGradient1351-298-741"><stop id="stop917" offset="0" style="stop-color:#dedede;stop-opacity:1;opacity:1"/><stop id="stop919" offset="1" style="stop-color:#fdfdfd;stop-opacity:1;opacity:1"/></linearGradient><linearGradient id="linearGradient1363-498-816" x1="-3.509" x2="-3.509" y1="278.504" y2="276.885" gradientUnits="userSpaceOnUse" xlink:href="#linearGradient1361-557-910"/><linearGradient id="linearGradient1361-557-910"><stop id="stop923" offset="0" style="stop-color:#dcdcdc;stop-opacity:1;opacity:1"/><stop id="stop925" offset="1" style="stop-color:#fff;stop-opacity:.99484539;opacity:1"/></linearGradient><linearGradient id="linearGradient1394-74-408" x1="-9.683" x2="-9.683" y1="64.403" y2="39.083" gradientTransform="matrix(0.26458333,0,0,0.26458333,0,263.13332)" gradientUnits="userSpaceOnUse" xlink:href="#linearGradient1392-869-417"/><linearGradient id="linearGradient1392-869-417"><stop id="stop929" offset="0" style="stop-color:#000;stop-opacity:1;opacity:1"/><stop id="stop931" offset="1" style="stop-color:#7c7c7c;stop-opacity:1;opacity:1"/></linearGradient><linearGradient id="linearGradient1421-59-952" x1="-3.509" x2="-3.509" y1="278.504" y2="276.885" gradientUnits="userSpaceOnUse" xlink:href="#linearGradient1361-606-3"/><linearGradient id="linearGradient1361-606-3"><stop id="stop935" offset="0" style="stop-color:#dcdcdc;stop-opacity:1;opacity:1"/><stop id="stop937" offset="1" style="stop-color:#fff;stop-opacity:.99484539;opacity:1"/></linearGradient><linearGradient id="linearGradient1423-968-141" x1="-9.683" x2="-9.683" y1="64.403" y2="39.083" gradientTransform="matrix(0.26458333,0,0,0.26458333,0,263.13332)" gradientUnits="userSpaceOnUse" xlink:href="#linearGradient1392-494-159"/><linearGradient id="linearGradient1392-494-159"><stop id="stop941" offset="0" style="stop-color:#000;stop-opacity:1;opacity:1"/><stop id="stop943" offset="1" style="stop-color:#7c7c7c;stop-opacity:1;opacity:1"/></linearGradient></defs><metadata id="metadata5"/><g id="layer1" transform="translate(0,-263.13332)"><g id="g1742"><rect style="opacity:0;fill:#aaa;fill-opacity:1;stroke:none;stroke-width:.40419206;stroke-linecap:round;stroke-linejoin:round;stroke-miterlimit:4;stroke-dasharray:none;stroke-dashoffset:0;stroke-opacity:1" id="rect1532" width="33.867" height="33.867" x="0" y="263.133"/><g id="g1427" transform="matrix(1.6399888,0,0,1.6399888,22.077944,-178.44413)"><rect id="rect1343" width="16.638" height="11.309" x="-11.402" y="277.596" ry="1.119" style="opacity:1;fill:#ededed;fill-opacity:1;stroke:#000;stroke-width:.3696824;stroke-linecap:round;stroke-linejoin:round;stroke-miterlimit:4;stroke-dasharray:none;stroke-dashoffset:0;stroke-opacity:1"/><rect id="rect1345" width="15.608" height="10.323" x="-10.902" y="278.147" ry="1.01" style="opacity:1;fill:url(#linearGradient1353-117-325);fill-opacity:1;stroke:none;stroke-width:.37266013;stroke-linecap:round;stroke-linejoin:bevel;stroke-miterlimit:4;stroke-dasharray:none;stroke-dashoffset:0;stroke-opacity:1"/></g><g id="g1717" transform="translate(-1.5130768e-6,6.7619774e-6)"><path id="Shape" d="m 23.313783,286.08384 c -0.0033,1.66527 -0.668096,3.26099 -1.848058,4.43607 -1.179961,1.17508 -2.77843,1.83323 -4.443694,1.82965 -0.145361,0 -0.290722,-0.004 -0.433914,-0.0174 -3.294531,-0.21277 -5.857838,-2.94696 -5.857838,-6.24836 0,-3.30139 2.563307,-6.03559 5.857838,-6.24836 0.143192,-0.013 0.288553,-0.0174 0.433914,-0.0174 1.665264,-0.004 3.263733,0.65457 4.443694,1.82965 1.179962,1.17508 1.844738,2.77081 1.848058,4.43607 z" style="fill:#b2b2b2;fill-rule:nonzero;stroke:none;stroke-width:.21695696;opacity:1"/><ellipse id="Oval" cx="16.588" cy="286.084" rx="5.858" ry="6.248" style="fill:#d4d4d4;fill-rule:nonzero;stroke:none;stroke-width:.21695696;opacity:1"/><path id="path1238" d="m 22.662912,286.08384 c -0.01047,3.10682 -2.53405,5.61876 -5.640881,5.61485 -0.182244,0 -0.362318,-0.009 -0.542393,-0.026 -2.888328,-0.26559 -5.098472,-2.68829 -5.098472,-5.58881 0,-2.90051 2.210144,-5.32321 5.098472,-5.58881 0.180075,-0.0174 0.360149,-0.026 0.542393,-0.026 3.106833,-0.004 5.630419,2.50802 5.640881,5.61484 z" style="fill:#555;fill-rule:nonzero;stroke:none;stroke-width:.21695696;opacity:1"/><ellipse id="ellipse1240" cx="16.745" cy="286.149" rx="5.098" ry="5.589" style="fill:#6a6a6a;fill-rule:nonzero;stroke:none;stroke-width:.21695696;opacity:1"/><path id="path1242" d="m 17.022031,291.6976 c -3.096874,-0.0149 -5.596693,-2.5349 -5.586743,-5.63179 0.0099,-3.0969 2.52591,-5.60076 5.622815,-5.59579 3.096906,0.005 5.604809,2.51691 5.604809,5.61382 -0.01101,3.10641 -2.534451,5.61772 -5.640881,5.61376 z m 0,-10.79361 c -2.857231,0.0149 -5.162787,2.34063 -5.15284,5.19789 0.0099,2.85725 2.331639,5.16685 5.188905,5.16187 2.857265,-0.005 5.170902,-2.32264 5.170902,-5.17991 -0.01078,-2.86686 -2.340084,-5.18404 -5.206967,-5.17985 z" style="fill:#555;fill-rule:nonzero;stroke:none;stroke-width:.21695696;opacity:1"/><path id="path1244" d="m 19.315266,286.26392 -0.30157,0.21044 -3.174081,2.19778 c -0.06622,0.0452 -0.152086,0.0498 -0.222769,0.012 -0.07068,-0.0378 -0.114439,-0.11188 -0.113514,-0.19206 v -4.81644 c -9.33e-4,-0.0802 0.04283,-0.15421 0.11351,-0.19206 0.07068,-0.0378 0.156558,-0.0332 0.222773,0.012 l 3.475651,2.40822 c 0.0582,0.0415 0.09275,0.10858 0.09275,0.18007 0,0.0715 -0.03455,0.13857 -0.09275,0.18008 z" style="fill:#9e9e9e;fill-rule:nonzero;stroke:none;stroke-width:.21695696;opacity:1"/><path id="path1246" d="m 19.013696,286.47436 -3.174081,2.19778 c -0.06622,0.0452 -0.152086,0.0498 -0.222769,0.012 -0.07068,-0.0378 -0.114439,-0.11188 -0.113514,-0.19206 l -1.4e-5,-4.4064 c 0.04262,-1.9e-4 0.08427,0.0127 0.11934,0.0369 z" style="fill:#eaeaea;fill-rule:nonzero;stroke:none;stroke-width:.21695696;opacity:1"/><ellipse id="ellipse1249" cx="17.022" cy="286.084" rx="6.292" ry="6.265" style="fill:none;fill-rule:evenodd;stroke:#000;stroke-width:.43391392;stroke-linecap:round;stroke-linejoin:round;opacity:1"/><ellipse id="ellipse1251" cx="17.022" cy="286.084" rx="5.424" ry="5.397" style="fill:none;fill-rule:evenodd;stroke:#000;stroke-width:.43391392;stroke-linecap:round;stroke-linejoin:round;opacity:1"/><path id="path1253" d="m 15.503332,283.67473 v 4.81823 c -9.11e-4,0.0799 0.04273,0.15368 0.113218,0.19133 0.07049,0.0377 0.156075,0.0329 0.221981,-0.0123 l 3.476767,-2.40912 c 0.05845,-0.0409 0.09326,-0.10773 0.09326,-0.17906 0,-0.0713 -0.03481,-0.13817 -0.09326,-0.17905 l -3.476767,-2.40912 c -0.06591,-0.0452 -0.151494,-0.0499 -0.221981,-0.0123 -0.07049,0.0377 -0.114139,0.11143 -0.113218,0.19134 z" style="fill:none;fill-rule:evenodd;stroke:#000;stroke-width:.43391392;stroke-linecap:round;stroke-linejoin:round;opacity:1"/></g><g id="g1411" transform="matrix(1.6399888,0,0,1.6399888,22.370394,-179.32231)"><rect id="rect1355" width="18.329" height="2.238" x="-12.426" y="276.671" ry=".623" style="opacity:1;fill:url(#linearGradient1363-498-816);fill-opacity:1;stroke:none;stroke-width:.35277778;stroke-linecap:round;stroke-linejoin:round;stroke-miterlimit:4;stroke-dasharray:none;stroke-dashoffset:0;stroke-opacity:1"/><path id="rect1365" d="m -1.5781983,276.28342 1.35650641,2.90422 H 1.3978474 l -1.35650626,-2.90422 z m 3.3806722,0.0238 1.3565063,2.90422 h 1.6190227 l -1.3565063,-2.90422 z m -6.7608275,0.0238 1.3565063,2.90422 h 1.6190226 l -1.3565064,-2.90422 z m -3.3801554,0.0243 1.3565063,2.9037 H -5.36298 l -1.3565063,-2.9037 z m -3.380156,0.0238 1.356507,2.9037 h 1.6190225 l -1.3565065,-2.9037 z" clip-path="url(#clipPath1400)" style="opacity:1;fill:url(#linearGradient1394-74-408);fill-opacity:1;stroke:none;stroke-width:.31014252;stroke-linecap:round;stroke-linejoin:bevel;stroke-miterlimit:4;stroke-dasharray:none;stroke-dashoffset:0;stroke-opacity:1"/><rect style="opacity:1;fill:none;fill-opacity:1;stroke:#000;stroke-width:.35277778;stroke-linecap:round;stroke-linejoin:round;stroke-miterlimit:4;stroke-dasharray:none;stroke-dashoffset:0;stroke-opacity:1" id="rect1406" width="18.329" height="2.238" x="-12.426" y="276.671" ry=".454"/></g><g id="g1419" transform="matrix(1.5899422,-0.40205348,0.40205348,1.5899422,-89.825568,-172.91553)"><rect style="opacity:1;fill:url(#linearGradient1421-59-952);fill-opacity:1;stroke:none;stroke-width:.35277778;stroke-linecap:round;stroke-linejoin:round;stroke-miterlimit:4;stroke-dasharray:none;stroke-dashoffset:0;stroke-opacity:1" id="rect1413" width="18.329" height="2.238" x="-12.426" y="276.671" ry=".623"/><path style="opacity:1;fill:url(#linearGradient1423-968-141);fill-opacity:1;stroke:none;stroke-width:.31014252;stroke-linecap:round;stroke-linejoin:bevel;stroke-miterlimit:4;stroke-dasharray:none;stroke-dashoffset:0;stroke-opacity:1" id="path1415" d="m -1.5781983,276.28342 1.35650641,2.90422 H 1.3978474 l -1.35650626,-2.90422 z m 3.3806722,0.0238 1.3565063,2.90422 h 1.6190227 l -1.3565063,-2.90422 z m -6.7608275,0.0238 1.3565063,2.90422 h 1.6190226 l -1.3565064,-2.90422 z m -3.3801554,0.0243 1.3565063,2.9037 H -5.36298 l -1.3565063,-2.9037 z m -3.380156,0.0238 1.356507,2.9037 h 1.6190225 l -1.3565065,-2.9037 z" clip-path="url(#clipPath1400)"/><rect id="rect1417" width="18.329" height="2.238" x="-12.426" y="276.671" ry=".454" style="opacity:1;fill:none;fill-opacity:1;stroke:#000;stroke-width:.35277778;stroke-linecap:round;stroke-linejoin:round;stroke-miterlimit:4;stroke-dasharray:none;stroke-dashoffset:0;stroke-opacity:1"/></g></g></g></svg>