<svg xmlns="http://www.w3.org/2000/svg" xmlns:svg="http://www.w3.org/2000/svg" id="svg2" width="128" height="128" version="1.1" viewBox="0 0 128 128"><metadata id="metadata20"/><defs id="defs18"><linearGradient id="XMLID_8_" x1="74.5" x2="74.5" y1="5.048" y2="124.24" gradientUnits="userSpaceOnUse"><stop id="stop4539" offset="0" style="stop-color:#fff"/><stop id="stop4541" offset="1" style="stop-color:#e1e1df"/></linearGradient><linearGradient id="XMLID_9_" x1="74.5" x2="74.5" y1="11.081" y2="121.467" gradientUnits="userSpaceOnUse"><stop id="stop4546" offset="0" style="stop-color:#fdfdfd"/><stop id="stop4548" offset=".298" style="stop-color:#f3f2f2"/><stop id="stop4550" offset=".817" style="stop-color:#d7d6d6"/><stop id="stop4552" offset="1" style="stop-color:#cccbca"/></linearGradient><radialGradient id="XMLID_10_" cx="110" cy="32.869" r="15.596" gradientUnits="userSpaceOnUse"><stop id="stop4557" offset=".213" style="stop-color:#8e8e8f"/><stop id="stop4559" offset=".927" style="stop-color:#eee"/></radialGradient><linearGradient id="XMLID_11_" x1="92.023" x2="104.273" y1="9.947" y2="32.947" gradientUnits="userSpaceOnUse"><stop id="stop4566" offset="0" style="stop-color:#fffefe"/><stop id="stop4568" offset="1" style="stop-color:#cfd0d0"/></linearGradient><linearGradient id="XMLID_12_" x1="99.53" x2="105.905" y1="5.181" y2="31.931" gradientUnits="userSpaceOnUse"><stop id="stop4573" offset="0" style="stop-color:#fcfdfd"/><stop id="stop4575" offset="1" style="stop-color:#eee"/></linearGradient><style id="style4989"/><linearGradient id="linearGradient4799"><stop id="stop4801" offset="0" style="stop-color:#ffde00;stop-opacity:1"/><stop id="stop4803" offset="1" style="stop-color:#ffa700;stop-opacity:1"/></linearGradient><linearGradient id="XMLID_139_" x1="-978.259" x2="-958.248" y1="-97.729" y2="-109.229" gradientTransform="matrix(-0.3029494,2.5502786,2.5502786,0.3029494,142.16285,2550.761)" gradientUnits="userSpaceOnUse"><stop id="stop1054" offset="0" style="stop-color:#900"/><stop id="stop1055" offset="1" style="stop-color:#7c0000"/></linearGradient><linearGradient id="XMLID_140_" x1="-1759.684" x2="-1756.235" y1="572.477" y2="575.927" gradientTransform="matrix(2.5661119,-0.0992276,0.0992276,2.5661119,4633.1297,-1596.7297)" gradientUnits="userSpaceOnUse"><stop id="stop1061" offset="0" style="stop-color:#f8f1dc"/><stop id="stop1062" offset="1" style="stop-color:#d6a84a"/></linearGradient><linearGradient id="XMLID_141_" x1="-77.475" x2="-65.559" y1="-9.648" y2="16.807" gradientTransform="matrix(-2.5595127,0.21073554,0.21073554,2.5595127,-0.10527997,31.391666)" gradientUnits="userSpaceOnUse"><stop id="stop1068" offset="0" style="stop-color:#ffa700"/><stop id="stop1069" offset=".775" style="stop-color:gold"/><stop id="stop1070" offset="1" style="stop-color:#ff794b"/></linearGradient><linearGradient id="XMLID_142_" x1="-1753.172" x2="-1751.339" y1="564.308" y2="562.123" gradientTransform="matrix(2.5661119,-0.0992276,0.0992276,2.5661119,4633.1297,-1596.7297)" gradientUnits="userSpaceOnUse"><stop id="stop1081" offset="0" style="stop-color:#ffc957"/><stop id="stop1082" offset="1" style="stop-color:#ff6d00"/></linearGradient><linearGradient id="XMLID_143_" x1="-1763.878" x2="-1755.42" y1="557.699" y2="573.917" gradientTransform="matrix(2.5661119,-0.0992276,0.0992276,2.5661119,4633.1297,-1596.7297)" gradientUnits="userSpaceOnUse"><stop id="stop1088" offset="0" style="stop-color:#ffa700"/><stop id="stop1089" offset=".775" style="stop-color:gold"/><stop id="stop1090" offset="1" style="stop-color:#ff9200"/></linearGradient><linearGradient id="XMLID_144_" x1="-77.033" x2="-64.39" y1="9.494" y2="9.494" gradientTransform="matrix(-2.5595127,0.21073554,0.21073554,2.5595127,-0.10527997,31.391666)" gradientUnits="userSpaceOnUse"><stop id="stop1098" offset="0" style="stop-color:#7d7d99"/><stop id="stop1099" offset=".18" style="stop-color:#b1b1c5"/><stop id="stop1100" offset=".373" style="stop-color:#bcbcc8"/><stop id="stop1101" offset=".682" style="stop-color:#c8c8cb"/><stop id="stop1102" offset="1" style="stop-color:#ccc"/></linearGradient><linearGradient id="linearGradient5799" x1="-978.259" x2="-958.248" y1="-97.729" y2="-109.229" gradientTransform="matrix(-0.3915,0.9202,0.9202,0.3915,-251.8165,957.8806)" gradientUnits="userSpaceOnUse"><stop style="stop-color:#900" id="stop5801" offset="0"/><stop style="stop-color:#7c0000" id="stop5803" offset="1"/></linearGradient><linearGradient id="linearGradient5806" x1="-1759.684" x2="-1756.235" y1="572.477" y2="575.927" gradientTransform="matrix(0.97,0.2429,-0.2429,0.97,1879.3727,-102.3761)" gradientUnits="userSpaceOnUse"><stop style="stop-color:#f8f1dc" id="stop5808" offset="0"/><stop style="stop-color:#d6a84a" id="stop5810" offset="1"/></linearGradient><linearGradient id="linearGradient5813" x1="-77.475" x2="-65.559" y1="-9.648" y2="16.807" gradientTransform="matrix(-0.9797,-0.2005,-0.2005,0.9797,-30.1045,0.6561)" gradientUnits="userSpaceOnUse"><stop style="stop-color:#ffa700" id="stop5815" offset="0"/><stop style="stop-color:gold" id="stop5817" offset=".775"/><stop style="stop-color:#ff794b" id="stop5819" offset="1"/></linearGradient><linearGradient id="linearGradient5825" x1="-1753.172" x2="-1751.339" y1="564.308" y2="562.123" gradientTransform="matrix(0.97,0.2429,-0.2429,0.97,1879.3727,-102.3761)" gradientUnits="userSpaceOnUse"><stop style="stop-color:#ffc957" id="stop5827" offset="0"/><stop style="stop-color:#ff6d00" id="stop5829" offset="1"/></linearGradient><linearGradient id="linearGradient5832" x1="-1763.878" x2="-1756.183" y1="557.699" y2="574.784" gradientTransform="matrix(0.97,0.2429,-0.2429,0.97,1879.3727,-102.3761)" gradientUnits="userSpaceOnUse"><stop style="stop-color:#ffa700" id="stop5834" offset="0"/><stop style="stop-color:gold" id="stop5836" offset=".775"/><stop style="stop-color:#ff9200" id="stop5838" offset="1"/></linearGradient><linearGradient id="linearGradient5841" x1="-77.033" x2="-64.39" y1="9.494" y2="9.494" gradientTransform="matrix(-0.9797,-0.2005,-0.2005,0.9797,-30.1045,0.6561)" gradientUnits="userSpaceOnUse"><stop style="stop-color:#7d7d99" id="stop5843" offset="0"/><stop style="stop-color:#b1b1c5" id="stop5845" offset=".18"/><stop style="stop-color:#bcbcc8" id="stop5847" offset=".373"/><stop style="stop-color:#c8c8cb" id="stop5849" offset=".682"/><stop style="stop-color:#ccc" id="stop5851" offset="1"/></linearGradient></defs><g id="g5149" transform="matrix(1.0333334,0,0,1.0333334,-11.977454,-4.6306154)"><path id="path4532" d="M 30.666,7 C 28.816,7 27,8.83 27,10.694 c 0,106.39 0,106.39 0,109.807 0,3.917 4,4.499 4,4.499 l 87,0 c 0,0 4,-0.268 4,-4.018 0,-3.75 0,-78.479 0,-78.479 C 122,37.306 94.325,7 87.135,7 L 30.666,7 Z" style="opacity:.2"/><path id="path4534" d="M 30.666,8 C 28.816,8 27,9.83 27,11.694 c 0,106.39 0,106.39 0,109.807 0,3.917 5,4.499 5,4.499 l 85,0 c 0,0 5,-0.268 5,-4.018 0,-3.75 0,-78.479 0,-78.479 C 122,38.306 94.325,8 87.135,8 L 30.666,8 Z" style="opacity:.2"/><path id="path4536" d="M 30.666,6 C 28.816,6 27,7.83 27,9.694 c 0,106.39 0,106.39 0,109.807 0,3.917 3,4.499 3,4.499 l 89,0 c 0,0 3,-0.268 3,-4.018 0,-3.75 0,-78.479 0,-78.479 C 122,36.306 94.325,6 87.135,6 L 30.666,6 Z" style="opacity:.6;fill:#262626"/><path id="path4543" d="m 121,120.113 c 0,2.584 -2.398,2.887 -2.398,2.887 l -88.104,0 C 30.498,123 28,122.525 28,119.917 28,100.1 28,10.861 28,9.694 28,8.374 29.359,7 30.666,7 31.66,7 79.135,7 87.135,7 94.167,7 121,37.326 121,41.504 c 0,4.619 0,63.145 0,78.609 z" style="fill:url(#XMLID_8_)"/><path id="path4554" d="m 120,119.282 c 0,2.481 -2,2.718 -2,2.718 l -87,0 c 0,0 -2,-0.163 -2,-2.249 C 29,101.736 29,10.877 29,9.694 29,8.374 30.317,7 31.583,7 32.547,7 79.442,7 87.193,7 94.006,7 120,37.326 120,41.504 c 0,4.63 0,62.674 0,77.778 z" style="fill:url(#XMLID_9_)"/><path id="path4561" d="m 120,39 c 0,7.18 -2.82,13 -10,13 -7.18,0 -16,-5.82 -16,-13 0,-7.18 2.82,-9 10,-9 7.18,0 11,4 16,9 z" style="fill:url(#XMLID_10_)"/><path id="path4563" d="m 84.415,6.963 c 0.547,0 0.947,0.002 3.616,1.193 4.182,1.891 4.103,22.225 4.103,26.673 l -0.001,0.128 c 0,0.521 0.399,0.959 0.918,1.002 5.973,0.496 23.318,-0.848 26.406,4.026 1.199,1.608 1.365,2.858 1.918,2.858 0.553,0 0.625,-0.786 0.625,-1.339 0,-0.797 -0.257,-1.574 -0.766,-2.428 -0.004,-0.009 -0.002,-0.018 -0.006,-0.026 -0.014,-0.028 -0.038,-0.065 -0.053,-0.094 l 0,-0.001 C 118.87,34.256 95.385,8.574 88.821,6.365 88.815,6.363 88.814,6.357 88.809,6.355 88.802,6.352 88.794,6.353 88.788,6.351 88.767,6.343 88.739,6.328 88.718,6.32 88.624,6.291 88.531,6.279 88.439,6.277 88.01,6.133 87.578,6 87.135,6 86.627,6 84.473,6.457 84.415,6.963 Z" style="opacity:.5;fill:#343434"/><path id="path4570" d="M 121,41.504 C 117.625,32.875 93.133,34.962 93.133,34.962 93.003,37.629 94.632,7 87.135,7 94.168,7 121,38.814 121,41.504 Z" style="fill:url(#XMLID_11_)"/><path id="path4577" d="M 121,41.504 C 119.5,33.563 94.25,33.438 94.25,33.438 94.225,36.104 94.524,7 87.135,7 94.168,7 121,38.814 121,41.504 Z" style="fill:url(#XMLID_12_)"/></g><g id="g6026" transform="translate(-74.497895,44.008409)"><path id="path1052" d="m 151.61981,74.705643 c 3.64291,-15.638629 4.30086,-18.471247 4.73895,-19.096742 -0.0485,0.03555 -0.11873,0.08817 -0.11873,0.08817 L 186.3246,16.087244 c 1.61069,-2.107479 5.92426,-0.335482 9.25161,2.200606 3.29756,2.507331 6.16475,6.189022 4.66511,8.347018 l -30.248,39.654852 -0.22259,0.0623 -15.31672,8.732874 -3.15711,1.264028 0.32291,-1.643281 z" style="fill:#fff"/><path id="path1059" d="m 151.61981,74.705643 c 3.64291,-15.638629 4.30086,-18.471247 4.73895,-19.096742 -0.0485,0.03555 -0.11873,0.08817 -0.11873,0.08817 L 186.3246,16.087244 c 1.61069,-2.107479 5.92426,-0.335482 9.25161,2.200606 3.29756,2.507331 6.16475,6.189022 4.66511,8.347018 l -30.248,39.654852 -0.22259,0.0623 -15.31672,8.732874 -3.15711,1.264028 0.32291,-1.643281 z" style="fill:url(#XMLID_139_)"/><path id="path1066" d="m 158.38164,56.489844 -4.46174,16.554512 14.71338,-8.810915 -0.0734,-0.05885 c 0.10313,-0.04081 0.20338,-0.09147 0.28627,-0.155797 l 0.056,0.04519 28.85215,-37.856216 -0.057,-0.03954 c 0.85854,-1.128125 -0.75054,-3.799269 -3.59356,-5.968423 -2.84477,-2.165969 -5.84107,-3.008893 -6.7028,-1.882513 l -28.84794,37.852311 -0.17137,0.320236 z" style="fill:url(#XMLID_140_)"/><path id="path1076" d="m 166.88213,65.282357 c -0.88593,-0.08383 -2.00532,-0.463364 -3.16482,-1.071966 -0.71896,-0.373353 -1.4625,-0.849222 -2.19629,-1.410869 -0.659,-0.497871 -1.24764,-1.029657 -1.75687,-1.555195 -0.96523,-0.997053 -1.58172,-2.082528 -1.85189,-2.998889 l 0.47256,-1.753848 0.17138,-0.320236 28.65743,-37.606754 c -0.18038,0.967619 0.61136,2.470124 2.05181,3.967862 0.52803,0.544127 1.12664,1.091731 1.8069,1.607472 0.71253,0.543777 1.43942,1.008453 2.13578,1.377702 1.99601,1.054659 3.77498,1.356691 4.53593,0.682432 l 0.0103,0.0077 -28.85215,37.856216 -0.056,-0.04519 c -0.0822,0.06679 -0.18314,0.114991 -0.28627,0.155797 l 0.0734,0.05885 -1.75115,1.048916 z" style="fill:url(#XMLID_141_)"/><path id="path1077" d="m 197.84651,25.918678 c -0.66846,0.807782 -2.49983,0.537094 -4.56589,-0.555969 -0.68537,-0.359082 -1.39634,-0.815029 -2.09541,-1.349359 -0.66999,-0.508039 -1.25688,-1.04301 -1.77464,-1.579434 -1.66506,-1.72646 -2.44617,-3.467498 -1.83452,-4.341629 l -0.011,-0.01017 -29.04686,38.105678 c -0.19126,0.976148 0.47274,2.719266 1.94257,4.23518 0.50214,0.519581 1.07907,1.038735 1.72779,1.528904 0.7189,0.547269 1.44969,1.016155 2.15345,1.383245 2.10387,1.10343 4.06654,1.448155 4.72482,0.587163 0.14809,-0.198397 0.80391,-1.05867 0.81962,-1.087334 l 28.0699,-36.8333 -0.10983,-0.08298 z" style="fill:#fff"/><path id="path1078" d="m 194.10447,20.202275 c -2.84477,-2.165969 -5.84107,-3.008893 -6.7028,-1.882513 l -6.49935,8.529369 0.43415,11.21135 7.60579,-0.293944 8.81279,-11.556302 -0.057,-0.03954 c 0.86028,-1.13131 -0.75126,-3.801734 -3.59356,-5.968423 z" style="fill:#fff"/><path id="path1079" d="m 197.84651,25.918678 c -0.66846,0.807782 -2.49983,0.537094 -4.56589,-0.555969 -0.68537,-0.359082 -1.39634,-0.815029 -2.09541,-1.349359 -0.66999,-0.508039 -1.25688,-1.04301 -1.77464,-1.579434 -1.66506,-1.72646 -2.44617,-3.467498 -1.83452,-4.341629 l -0.011,-0.01017 -29.04686,38.105678 c -0.19126,0.976148 0.47274,2.719266 1.94257,4.23518 0.50214,0.519581 1.07907,1.038735 1.72779,1.528904 0.7189,0.547269 1.44969,1.016155 2.15345,1.383245 2.10387,1.10343 4.06654,1.448155 4.72482,0.587163 0.14809,-0.198397 0.80391,-1.05867 0.81962,-1.087334 l 28.0699,-36.8333 -0.10983,-0.08298 z" style="fill:#fff"/><path id="path1086" d="m 194.10447,20.202275 c -2.84477,-2.165969 -5.84107,-3.008893 -6.7028,-1.882513 l -6.49935,8.529369 0.43415,11.21135 7.60579,-0.293944 8.81279,-11.556302 -0.057,-0.03954 c 0.86028,-1.13131 -0.75126,-3.801734 -3.59356,-5.968423 z" style="fill:url(#XMLID_142_)"/><path id="path1096" d="m 197.84651,25.918678 c -0.66846,0.807782 -2.49983,0.537094 -4.56589,-0.555969 -0.68537,-0.359082 -1.39634,-0.815029 -2.09541,-1.349359 -0.66999,-0.508039 -1.25688,-1.04301 -1.77464,-1.579434 -1.66506,-1.72646 -2.44617,-3.467498 -1.83452,-4.341629 l -0.011,-0.01017 -29.04686,38.105678 c -0.19126,0.976148 0.47274,2.719266 1.94257,4.23518 0.50214,0.519581 1.07907,1.038735 1.72779,1.528904 0.7189,0.547269 1.44969,1.016155 2.15345,1.383245 2.10387,1.10343 4.06654,1.448155 4.72482,0.587163 0.14809,-0.198397 0.80391,-1.05867 0.81962,-1.087334 l 28.0699,-36.8333 -0.10983,-0.08298 z" style="fill:url(#XMLID_143_)"/><path id="path1108" d="m 195.45454,29.217339 c 0,0 -2.55405,0.122195 -4.61447,-0.969843 -0.68537,-0.359081 -1.39952,-0.816774 -2.09787,-1.348639 -0.66753,-0.508758 -1.25688,-1.043009 -1.77464,-1.579434 -1.35918,-1.411774 -2.13035,-2.834671 -2.0303,-3.784192 l 2.62851,-3.450646 0.011,0.01017 c -0.61165,0.874131 0.17018,2.617634 1.83452,4.341629 0.51776,0.536425 1.10465,1.071396 1.77464,1.579434 0.69907,0.53433 1.41004,0.990277 2.0954,1.349359 2.06361,1.093783 3.89744,1.363752 4.5659,0.555969 l 0.10737,0.0837 -28.06816,36.830115 c -0.015,0.03113 -0.67081,0.891402 -0.81962,1.087334 -0.13166,0.172198 -0.31335,0.29212 -0.53903,0.371372 l 26.92675,-35.076323 z" style="fill:url(#XMLID_144_)"/><path id="path1109" d="m 157.20598,68.299521 c 0.74089,0.567604 1.48977,1.052614 2.22014,1.446716 l -5.50376,3.297399 1.65746,-6.144838 c 0.48672,0.475925 1.02953,0.95153 1.62616,1.400723 z" style="fill:#033"/><path id="path1110" d="m 160.32904,60.274157 29.22487,-37.697484 c -0.0454,-0.0456 -0.0972,-0.09469 -0.14087,-0.143477 -0.66397,-0.689044 -1.18474,-1.382433 -1.53693,-2.020696 l -29.07955,37.507921 c 0.29992,0.752507 0.81086,1.577183 1.53248,2.353736 z" style="opacity:.5;fill:#fff"/><path id="path1111" d="M 189.41304,22.433196 C 189.11815,22.128678 188.855,21.82292 188.6201,21.522292 L 159.44493,59.15176 c 0.28218,0.425944 0.61521,0.861121 1.01583,1.271218 0.34668,0.35361 0.72335,0.709165 1.13454,1.054645 l 29.25219,-37.732211 c -0.53088,-0.42558 -1.01071,-0.868738 -1.43445,-1.312216 z" style="opacity:.5;fill:#fff"/></g><path style="fill:#1f1f1f;fill-opacity:.74509805" id="path4233" d="m 58.532159,24.762409 -19.157074,19.15707 c -0.391711,0.393945 -1.028304,0.393945 -1.41779,0 l -2.831168,-2.860058 c -0.389485,-0.39177 -1.028303,-1.032766 -1.415556,-1.428942 L 27.12231,32.703933 c -0.19363,-0.193669 -0.296017,-0.467448 -0.296017,-0.727827 0,-0.255976 0.102387,-0.505259 0.296017,-0.698884 l 2.886829,-2.601909 c 0.195855,-0.200319 0.456233,-0.298248 0.714442,-0.298248 0.253742,0.0014 0.507492,0.10239 0.701114,0.298248 l 6.534834,6.666108 c 0.389477,0.396176 1.02607,0.396176 1.417789,0 L 54.287644,20.471178 c 0.391727,-0.393944 1.026061,-0.393944 1.415571,0 l 2.831169,2.860058 c 0.389486,0.391772 0.389486,1.037229 -0.0016,1.431173 z"/><path id="path6164" d="M 57.381612,54.38899 38.224538,73.54606 c -0.391711,0.393945 -1.028304,0.393945 -1.41779,0 L 33.97558,70.686002 c -0.389485,-0.39177 -1.028303,-1.032766 -1.415556,-1.428942 l -6.588261,-6.926546 c -0.19363,-0.193669 -0.296017,-0.467448 -0.296017,-0.727827 0,-0.255976 0.102387,-0.505259 0.296017,-0.698884 l 2.886829,-2.601909 c 0.195855,-0.200319 0.456233,-0.298248 0.714442,-0.298248 0.253742,0.0014 0.507492,0.10239 0.701114,0.298248 l 6.534834,6.666108 c 0.389477,0.396176 1.02607,0.396176 1.417789,0 L 53.137097,50.097759 c 0.391727,-0.393944 1.026061,-0.393944 1.415571,0 l 2.831169,2.860058 c 0.389486,0.391772 0.389486,1.037229 -0.0016,1.431173 z" style="fill:#1f1f1f;fill-opacity:.74509805"/><path style="fill:#1f1f1f;fill-opacity:.74509805" id="path6166" d="M 57.381612,84.015561 38.224538,103.17263 c -0.391711,0.39395 -1.028304,0.39395 -1.41779,0 l -2.831168,-2.86006 c -0.389485,-0.391767 -1.028303,-1.032763 -1.415556,-1.428939 l -6.588261,-6.926546 c -0.19363,-0.193669 -0.296017,-0.467448 -0.296017,-0.727827 0,-0.255976 0.102387,-0.505259 0.296017,-0.698884 l 2.886829,-2.601909 c 0.195855,-0.200319 0.456233,-0.298248 0.714442,-0.298248 0.253742,0.0014 0.507492,0.10239 0.701114,0.298248 l 6.534834,6.666108 c 0.389477,0.396176 1.02607,0.396176 1.417789,0 L 53.137097,79.72433 c 0.391727,-0.393944 1.026061,-0.393944 1.415571,0 l 2.831169,2.860058 c 0.389486,0.391772 0.389486,1.037229 -0.0016,1.431173 z"/></svg>