<svg xmlns="http://www.w3.org/2000/svg" xmlns:svg="http://www.w3.org/2000/svg" xmlns:xlink="http://www.w3.org/1999/xlink" id="svg4" width="128" height="128" version="1.1" viewBox="0 0 128 128"><metadata id="metadata10"/><defs id="defs8"><radialGradient id="radialGradient6719" cx="605.714" cy="486.648" r="117.143" fx="605.714" fy="486.648" gradientTransform="matrix(-2.774389,0,0,1.969706,112.7623,-872.8854)" gradientUnits="userSpaceOnUse" xlink:href="#linearGradient5060"/><linearGradient id="linearGradient5060"><stop style="stop-color:black;stop-opacity:1" id="stop5062" offset="0"/><stop style="stop-color:black;stop-opacity:0" id="stop5064" offset="1"/></linearGradient><radialGradient id="radialGradient6717" cx="605.714" cy="486.648" r="117.143" fx="605.714" fy="486.648" gradientTransform="matrix(2.774389,0,0,1.969706,-1891.633,-872.8854)" gradientUnits="userSpaceOnUse" xlink:href="#linearGradient5060"/><linearGradient id="linearGradient5048"><stop style="stop-color:black;stop-opacity:0" id="stop5050" offset="0"/><stop style="stop-color:black;stop-opacity:1" id="stop5056" offset=".5"/><stop style="stop-color:black;stop-opacity:0" id="stop5052" offset="1"/></linearGradient><linearGradient id="linearGradient6715" x1="302.857" x2="302.857" y1="366.648" y2="609.505" gradientTransform="matrix(2.774389,0,0,1.969706,-1892.179,-872.8854)" gradientUnits="userSpaceOnUse" xlink:href="#linearGradient5048"/><linearGradient id="linearGradient11520"><stop style="stop-color:#fff;stop-opacity:1" id="stop11522" offset="0"/><stop style="stop-color:#dcdcdc;stop-opacity:1" id="stop11524" offset="1"/></linearGradient><radialGradient id="radialGradient1348" cx="30.204" cy="44.565" r="6.566" fx="30.204" fy="44.565" gradientTransform="matrix(1,0,0,0.338462,0,29.48178)" gradientUnits="userSpaceOnUse" xlink:href="#linearGradient5060"/><radialGradient id="radialGradient1366" cx="24.446" cy="35.878" r="20.531" fx="24.446" fy="35.878" gradientTransform="matrix(1.0332421,0,0,1.0332421,-13.047087,-19.221421)" gradientUnits="userSpaceOnUse" xlink:href="#linearGradient11520"/></defs><g id="g1121" transform="translate(0.58755422,-1.3133354)"><rect id="rect1111" width="128" height="128" x="-.588" y="1.313" style="opacity:1;fill:#cbe4ff;fill-opacity:0;stroke:none;stroke-width:25.76903534;stroke-miterlimit:4;stroke-dasharray:none;stroke-dashoffset:0;stroke-opacity:1"/><g id="g1109" transform="matrix(7.4377987,0,0,7.4377987,-27.054286,-19.297854)"><path style="fill:#3566a4;fill-opacity:1;stroke-width:.77274019" id="path1025" d="m 13.689453,3.9589844 c -0.624612,0.023526 -1.17554,0.6075108 -1.162109,1.2324218 0.01342,0.6242928 0.586611,1.1819055 1.210937,1.1796876 h 1.71875 l -7.2031248,7.2109372 0.025391,-0.02344 c -0.2517986,0.214144 -0.4093209,0.535007 -0.4238281,0.865234 -0.014507,0.330227 0.1156067,0.66499 0.3476562,0.900391 0.2320495,0.2354 0.5641303,0.369146 0.8945312,0.359375 0.330401,-0.0098 0.6533617,-0.163407 0.8710938,-0.41211 l 7.199219,-7.1972652 v 1.7265624 a 0.43347834,0.43347834 0 0 0 0,0.011719 c 0.01668,0.620519 0.584334,1.173828 1.205078,1.173828 0.620743,0 1.190346,-0.553309 1.207031,-1.173828 a 0.43347834,0.43347834 0 0 0 0,-0.011719 V 5.1640625 C 19.579055,4.5338174 19.005245,3.9600081 18.375,3.9589844 h -4.626953 c -0.01727,-3.712e-4 -0.03546,-3.712e-4 -0.05274,0 a 0.43347834,0.43347834 0 0 0 -0.0059,0 z"/><path id="path819" d="M 17.601428,7.0271384 9.6422038,14.986362 A 0.7727402,0.7727402 0 1 1 8.5603676,13.889071 L 16.504137,5.9375747 h -2.76641 a 0.7727402,0.7727402 0 0 1 0,-1.5454804 h 4.636441 a 0.7727402,0.7727402 0 0 1 0.77274,0.7727402 v 4.6364412 a 0.7727402,0.7727402 0 0 1 -1.54548,0 z" style="fill:#98b9dc;fill-opacity:1;stroke-width:.77274019"/><path style="fill:#3566a4;fill-opacity:1;stroke-width:.77274019" id="path1021" d="m 6.7832031,5.4453125 c -1.1183035,0 -2.0371094,0.9188058 -2.0371093,2.0371094 v 9.2734371 c 1.926e-4,0.533234 0.2206032,1.0624 0.5976562,1.439453 0.377053,0.377054 0.9062196,0.597464 1.4394531,0.597657 h 9.2734379 c 0.533233,-1.93e-4 1.0624,-0.220603 1.439453,-0.597657 0.377053,-0.377053 0.597463,-0.906219 0.597656,-1.439453 v -3.863281 a 0.49230828,0.49230828 0 0 0 0,-0.01367 c -0.01752,-0.650764 -0.614624,-1.230469 -1.265625,-1.230468 -0.651001,0 -1.246148,0.579704 -1.263672,1.230468 a 0.49230828,0.49230828 0 0 0 0,0.01367 v 3.371094 H 7.2753906 V 7.9746094 h 3.3710934 a 0.49230828,0.49230828 0 0 0 0.01367,0 c 0.650781,-0.0175 1.230469,-0.6126563 1.230469,-1.2636719 0,-0.6510156 -0.579688,-1.2481246 -1.230469,-1.265625 a 0.49230828,0.49230828 0 0 0 -0.01367,0 z"/><path id="path2" d="m 16.055947,12.892236 a 0.7727405,0.7727405 0 0 1 1.545481,0 v 3.863702 a 1.5454804,1.5454804 0 0 1 -1.545481,1.54548 H 6.7830651 A 1.5454804,1.5454804 0 0 1 5.2375847,16.755938 V 7.4830551 c 0,-0.8500142 0.6954662,-1.5454804 1.5454804,-1.5454804 h 3.8637009 a 0.7727402,0.7727402 0 0 1 0,1.5454804 H 6.7830651 v 9.2728829 h 9.2728819 z" style="fill:#5d91c9;fill-opacity:1;stroke-width:.77274019"/><path style="fill:#98b9dc;fill-opacity:1;stroke-width:.77274019" id="path1045" d="M 5.2375847,16.172145 V 7.4830551 c 0,-0.8500142 0.6954662,-1.5454804 1.5454804,-1.5454804 h 3.8637009 c 1.03032,0 1.03032,1.5454804 0,1.5454804 H 6.7830651 v 7.4866099 z"/><path style="fill:#5d91c9;fill-opacity:1;stroke-width:.77274019" id="path1047" d="M 17.601428,7.0271384 9.6422038,14.986362 c -0.3824604,0.43483 -0.9131974,0.259341 -1.1233276,0.05045 3.4505518,-3.49488 6.8466718,-7.0202284 10.3359958,-10.4765782 0.08898,0.064559 0.292036,0.2042691 0.292036,0.6046007 v 4.6364412 c -7.41e-4,1.0295783 -1.546221,1.0295783 -1.54548,0 z"/></g></g></svg>