<svg xmlns="http://www.w3.org/2000/svg" xmlns:svg="http://www.w3.org/2000/svg" xmlns:xlink="http://www.w3.org/1999/xlink" id="Layer_1" width="128" height="128" version="1.1" viewBox="0 0 128 128" xml:space="preserve"><metadata id="metadata9"/><defs id="defs12"><linearGradient id="linearGradient4139"><stop style="stop-color:#3b5998;stop-opacity:1" id="stop4141" offset="0"/><stop style="stop-color:#025;stop-opacity:1" id="stop4143" offset="1"/></linearGradient><linearGradient id="linearGradient4145" x1="76.32" x2="76.32" y1="-7.334" y2="124.979" gradientUnits="userSpaceOnUse" xlink:href="#linearGradient4139"/></defs><g id="g4147" transform="matrix(0.96875,0,0,0.96875,2,2)"><rect id="rect2987" width="128" height="128" x="0" y="0" rx="16" ry="16" style="fill:url(#linearGradient4145);fill-opacity:1;fill-rule:nonzero;stroke:none"/><path id="f_1_" d="m 71.741957,113.99993 0,-45.615547 15.311,0 2.292475,-17.775665 -17.603115,0 0,-11.348733 c 0,-5.14707 1.430165,-8.654855 8.80874,-8.654855 l 9.41385,-0.0028 0,-15.900351 c -1.627425,-0.218453 -7.214275,-0.701985 -13.716875,-0.701985 -13.572007,0 -22.862487,8.286462 -22.862487,23.499531 l 0,13.10927 -15.350453,0 0,17.775665 15.350098,0 0,45.61555 18.356767,0 z" style="fill:#fff"/></g></svg>