<svg xmlns="http://www.w3.org/2000/svg" xmlns:osb="http://www.openswatchbook.org/uri/2009/osb" xmlns:svg="http://www.w3.org/2000/svg" xmlns:xlink="http://www.w3.org/1999/xlink" id="svg2" width="128" height="128" version="1.1" viewBox="0 0 128 128"><defs id="defs4"><linearGradient id="XMLID_8_" x1="74.5" x2="74.5" y1="5.048" y2="124.24" gradientTransform="matrix(2.0312711,0,0,2.0312711,-345.16404,-90.633428)" gradientUnits="userSpaceOnUse"><stop style="stop-color:#fff" id="stop4539" offset="0"/><stop style="stop-color:#e1e1df" id="stop4541" offset="1"/></linearGradient><linearGradient id="XMLID_9_" x1="74.5" x2="74.5" y1="11.081" y2="121.467" gradientTransform="matrix(2.0312711,0,0,2.0312711,-345.5935,-90.633428)" gradientUnits="userSpaceOnUse"><stop style="stop-color:#fdfdfd" id="stop4546" offset="0"/><stop style="stop-color:#f3f2f2" id="stop4548" offset=".298"/><stop style="stop-color:#d7d6d6" id="stop4550" offset=".817"/><stop style="stop-color:#cccbca" id="stop4552" offset="1"/></linearGradient><radialGradient id="XMLID_10_" cx="110" cy="32.869" r="15.596" gradientTransform="matrix(2.0312711,0,0,2.0312711,-345.16404,-90.633428)" gradientUnits="userSpaceOnUse"><stop style="stop-color:#8e8e8f" id="stop4557" offset=".213"/><stop style="stop-color:#eee" id="stop4559" offset=".927"/></radialGradient><linearGradient id="XMLID_11_" x1="92.023" x2="104.273" y1="9.947" y2="32.947" gradientTransform="matrix(2.0312711,0,0,2.0312711,-345.16404,-90.633428)" gradientUnits="userSpaceOnUse"><stop style="stop-color:#fffefe" id="stop4566" offset="0"/><stop style="stop-color:#cfd0d0" id="stop4568" offset="1"/></linearGradient><linearGradient id="XMLID_12_" x1="99.53" x2="105.905" y1="5.181" y2="31.931" gradientTransform="matrix(2.0312711,0,0,2.0312711,-345.16404,-90.633428)" gradientUnits="userSpaceOnUse"><stop style="stop-color:#fcfdfd" id="stop4573" offset="0"/><stop style="stop-color:#eee" id="stop4575" offset="1"/></linearGradient><linearGradient id="linearGradient5314" osb:paint="solid"><stop style="stop-color:#ededed;stop-opacity:1" id="stop5316" offset="0"/></linearGradient><linearGradient id="linearGradient3297-23"><stop id="stop8047" offset="0" style="stop-color:#f75414;stop-opacity:0"/><stop id="stop8049" offset=".75" style="stop-color:#a93d0c;stop-opacity:.63354039"/><stop id="stop8051" offset="1" style="stop-color:#5b260b;stop-opacity:1"/></linearGradient><linearGradient id="linearGradient3737-185" x1="371.051" x2="358.539" y1="531.371" y2="506.027" gradientTransform="matrix(1.0442557,0.3158214,-0.3089003,1.1264171,-200.92366,-658.11333)" gradientUnits="userSpaceOnUse" xlink:href="#linearGradient3297-23"/><linearGradient id="linearGradient3735-183" x1="382.033" x2="373.319" y1="544.527" y2="561.277" gradientTransform="matrix(1.0442557,0.3158214,-0.3089003,1.1264171,-200.92366,-658.11333)" gradientUnits="userSpaceOnUse" xlink:href="#linearGradient3297-23"/><linearGradient id="linearGradient3245-429"><stop id="stop7998" offset="0" style="stop-color:#ff8b1b;stop-opacity:1"/><stop id="stop8000" offset="1" style="stop-color:#f75414;stop-opacity:1"/></linearGradient><linearGradient id="linearGradient3739-540" x1="447.848" x2="445.933" y1="511.601" y2="487.9" gradientTransform="matrix(1.0442557,0.3158214,-0.3089003,1.1264171,-202.5981,-657.11026)" gradientUnits="userSpaceOnUse" xlink:href="#linearGradient3297-23"/><linearGradient id="linearGradient3733-293" x1="420.735" x2="437.014" y1="533.051" y2="555.801" gradientTransform="matrix(1.0442557,0.3158214,-0.3089003,1.1264171,-200.92366,-658.11333)" gradientUnits="userSpaceOnUse" xlink:href="#linearGradient3297-23"/><linearGradient id="linearGradient3245"><stop id="stop3247" offset="0" style="stop-color:#ee7d18;stop-opacity:1"/><stop id="stop3249" offset="1" style="stop-color:#de4c12;stop-opacity:1"/></linearGradient><radialGradient id="radialGradient5991" cx="436.419" cy="507.454" r="27.776" fx="436.419" fy="507.454" gradientTransform="matrix(1.0442559,0.3158215,-0.2422826,0.8834933,-234.5167,-535.61487)" gradientUnits="userSpaceOnUse" xlink:href="#linearGradient3245-429"/><radialGradient id="radialGradient5993" cx="371.017" cy="524.128" r="30.833" fx="371.017" fy="524.128" gradientTransform="matrix(1.0442559,0.3158215,-0.1664341,0.6069082,-274.64986,-389.26782)" gradientUnits="userSpaceOnUse" xlink:href="#linearGradient3245-429"/><radialGradient id="radialGradient5995" cx="387.819" cy="540.909" r="22.426" fx="387.819" fy="540.909" gradientTransform="matrix(1.0442559,0.3158215,-0.3201154,1.1673131,-194.81675,-680.38233)" gradientUnits="userSpaceOnUse" xlink:href="#linearGradient3245-429"/><radialGradient id="radialGradient5997" cx="420.071" cy="535.201" r="23.404" fx="420.071" fy="535.201" gradientTransform="matrix(1.0442559,0.3158215,-0.2803729,1.0223912,-215.18172,-600.96599)" gradientUnits="userSpaceOnUse" xlink:href="#linearGradient3245-429"/><radialGradient id="radialGradient5999" cx="436.419" cy="507.454" r="27.776" fx="436.419" fy="507.454" gradientTransform="matrix(1.0442559,0.3158215,-0.2422826,0.8834933,-234.5167,-535.61487)" gradientUnits="userSpaceOnUse" xlink:href="#linearGradient3245-429"/><radialGradient id="radialGradient6001" cx="371.017" cy="524.128" r="30.833" fx="371.017" fy="524.128" gradientTransform="matrix(1.0442559,0.3158215,-0.1664341,0.6069082,-274.64986,-389.26782)" gradientUnits="userSpaceOnUse" xlink:href="#linearGradient3245-429"/><radialGradient id="radialGradient6003" cx="387.819" cy="540.909" r="22.426" fx="387.819" fy="540.909" gradientTransform="matrix(1.0442559,0.3158215,-0.3201154,1.1673131,-194.81675,-680.38233)" gradientUnits="userSpaceOnUse" xlink:href="#linearGradient3245-429"/><radialGradient id="radialGradient6005" cx="420.071" cy="535.201" r="23.404" fx="420.071" fy="535.201" gradientTransform="matrix(1.0442559,0.3158215,-0.2803729,1.0223912,-215.18172,-600.96599)" gradientUnits="userSpaceOnUse" xlink:href="#linearGradient3245-429"/><linearGradient id="linearGradient91508" x1="447.848" x2="445.933" y1="511.601" y2="487.9" gradientTransform="matrix(1.0442557,0.3158214,-0.3089003,1.1264171,-202.5981,-657.11026)" gradientUnits="userSpaceOnUse" xlink:href="#linearGradient3297-23"/><linearGradient id="linearGradient91510" x1="371.051" x2="358.539" y1="531.371" y2="506.027" gradientTransform="matrix(1.0442557,0.3158214,-0.3089003,1.1264171,-200.92366,-658.11333)" gradientUnits="userSpaceOnUse" xlink:href="#linearGradient3297-23"/><linearGradient id="linearGradient91512" x1="382.033" x2="373.319" y1="544.527" y2="561.277" gradientTransform="matrix(1.0442557,0.3158214,-0.3089003,1.1264171,-200.92366,-658.11333)" gradientUnits="userSpaceOnUse" xlink:href="#linearGradient3297-23"/><linearGradient id="linearGradient91514" x1="420.735" x2="437.014" y1="533.051" y2="555.801" gradientTransform="matrix(1.0442557,0.3158214,-0.3089003,1.1264171,-200.92366,-658.11333)" gradientUnits="userSpaceOnUse" xlink:href="#linearGradient3297-23"/><linearGradient id="linearGradient91804" x1="-189.782" x2="-189.782" y1="68.643" y2="152.304" gradientUnits="userSpaceOnUse" xlink:href="#linearGradient3245"/></defs><metadata id="metadata7"/><g id="layer1" transform="translate(0,-924.36216)"><g id="layer4" transform="matrix(0.5087127,0,0,0.5087127,163.23825,965.95571)" style="display:inline"><g id="g91806"><path style="opacity:.2" id="path4532" d="m -282.87308,-76.414537 c -3.75785,0 -7.44664,3.717225 -7.44664,7.503528 0,216.107009 0,216.107009 0,223.047859 0,7.95636 8.12508,9.13856 8.12508,9.13856 l 176.72059,0 c 0,0 8.125078,-0.54431 8.125078,-8.16158 0,-7.61727 0,-159.4121411 0,-159.4121411 0,-10.5565089 -56.215418,-72.1162259 -70.820258,-72.1162259 l -114.70385,0 z"/><path style="opacity:.2" id="path4534" d="m -282.87308,-74.383253 c -3.75785,0 -7.44664,3.717226 -7.44664,7.503508 0,216.106955 0,216.106955 0,223.047805 0,7.95655 10.15636,9.13875 10.15636,9.13875 l 172.65805,0 c 0,0 10.156338,-0.54451 10.156338,-8.16177 0,-7.61727 0,-159.4120866 0,-159.4120866 0,-10.5565084 -56.215418,-72.1162064 -70.820258,-72.1162064 l -114.70385,0 z"/><path style="opacity:.6;fill:#262626" id="path4536" d="m -282.87308,-78.445802 c -3.75785,0 -7.44664,3.717226 -7.44664,7.503509 0,216.106893 0,216.106893 0,223.047743 0,7.95656 6.09381,9.13876 6.09381,9.13876 l 180.78312,0 c 0,0 6.093818,-0.54432 6.093818,-8.16159 0,-7.61726 0,-159.4121955 0,-159.4121955 0,-10.5565285 -56.215418,-72.1162265 -70.820258,-72.1162265 l -114.70385,0 z"/><path style="fill:url(#XMLID_8_)" id="path4543" d="m -99.380237,153.34859 c 0,5.24893 -4.870983,5.86441 -4.870983,5.86441 l -178.96311,0 c 0,0 -5.07412,-0.96498 -5.07412,-6.26247 0,-40.25377 0,-221.52233 0,-223.892823 0,-2.681278 2.7605,-5.472244 5.41537,-5.472244 2.01908,0 98.45368,0 114.70385,0 14.2839,0 68.788993,61.60033 68.788993,70.0869862 0,9.3824472 0,128.2647008 0,159.6761408 z"/><path style="fill:url(#XMLID_9_)" id="path4554" d="m -101.84096,151.6606 c 0,5.03959 -4.06255,5.521 -4.06255,5.521 l -176.72059,0 c 0,0 -4.06254,-0.33103 -4.06254,-4.5682 0,-36.59335 0,-221.152687 0,-223.555693 0,-2.681278 2.67518,-5.472244 5.24677,-5.472244 1.95815,0 97.21461,0 112.95899,0 13.83905,0 66.63992,61.60033 66.63992,70.0869862 0,9.4047781 0,127.3079708 0,157.9881508 z"/><path id="rect7361" d="m -98.859373,105.3378 0,46.38492 c 0,4.18016 -0.227122,7.77374 -6.902367,7.76902 l -175.18884,-0.12581 c -5.0988,0 -7.36278,-3.46325 -7.36278,-7.64341 l 0,-46.38492 z" style="opacity:1;fill:url(#linearGradient91804);fill-opacity:1;stroke:none;stroke-width:2;stroke-linecap:round;stroke-linejoin:round;stroke-miterlimit:4;stroke-dasharray:none;stroke-dashoffset:0;stroke-opacity:.74509804"/><text id="text7357" x="-229.68" y="145.498" xml:space="preserve" style="font-style:normal;font-variant:normal;font-weight:400;font-stretch:normal;font-size:38.1917305px;line-height:125%;font-family:'Arial Black';-inkscape-font-specification:'Arial Black, Normal';text-align:start;letter-spacing:0;word-spacing:0;writing-mode:lr-tb;text-anchor:start;fill:#fff;fill-opacity:1;stroke:none;stroke-width:1px;stroke-linecap:butt;stroke-linejoin:miter;stroke-opacity:1"><tspan id="tspan7359" x="-229.68" y="145.498">MM</tspan></text><path style="fill:url(#XMLID_10_)" id="path4561" d="m -101.4115,-11.41386 c 0,14.5845388 -5.72819,26.406536 -20.31272,26.406536 -14.58453,0 -32.50034,-11.8219972 -32.50034,-26.406536 0,-14.584519 5.72819,-18.281439 20.31272,-18.281439 14.58453,0 22.34398,8.125097 32.50034,18.281439 z"/><path style="opacity:.5;fill:#343434" id="path4563" d="m -173.69429,-76.489688 c 1.11111,0 1.92362,0.0039 7.34508,2.423313 8.49477,3.841127 8.3343,45.144991 8.3343,54.180091 l -0.002,0.260009 c 0,1.058279 0.81047,1.947976 1.8647,2.035333 12.13279,1.007504 47.36517,-1.722524 53.63775,8.1778972 2.43548,3.2662837 2.772682,5.8053593 3.895969,5.8053593 1.123286,0 1.269538,-1.596579 1.269538,-2.7198653 0,-1.6189295 -0.522024,-3.197227 -1.555947,-4.9319192 -0.0079,-0.01769 -0.0039,-0.03656 -0.0118,-0.05288 -0.0285,-0.05681 -0.07725,-0.132098 -0.107723,-0.190874 l 0,-0.002 c -4.682072,-9.544936 -52.386472,-61.712044 -65.719732,-66.199115 -0.0122,-0.0039 -0.0142,-0.01573 -0.0244,-0.02025 -0.0142,-0.0059 -0.0305,-0.0039 -0.0427,-0.0079 -0.0427,-0.01573 -0.0995,-0.04678 -0.14218,-0.0629 -0.19094,-0.05897 -0.37985,-0.08335 -0.56673,-0.08728 -0.87141,-0.292503 -1.74892,-0.562655 -2.64878,-0.562655 -1.03188,0 -5.40724,0.928284 -5.52505,1.956114 z"/><path style="fill:url(#XMLID_11_)" id="path4570" d="m -99.380237,-6.3275508 c -6.855543,-17.5278302 -56.605433,-13.2885812 -56.605433,-13.2885812 -0.26406,5.4174 3.04488,-56.798405 -12.18356,-56.798405 14.28593,0 68.788993,64.622861 68.788993,70.0869862 z"/><path style="fill:url(#XMLID_12_)" id="path4577" d="m -99.380237,-6.3275508 c -3.046903,-16.1303232 -54.336503,-16.3842382 -54.336503,-16.3842382 -0.0508,5.415375 0.55657,-53.702748 -14.45249,-53.702748 14.28593,0 68.788993,64.622861 68.788993,70.0869862 z"/><g id="g91663" transform="translate(-258.40404,-33.931859)"><g style="display:inline;opacity:.45;fill:#1a1a1a;fill-opacity:1;stroke:#1a1a1a;stroke-opacity:1" id="g4989" transform="matrix(1.0000477,0,0,0.98786211,-0.00304691,-1.5215661)"><ellipse id="path4760" cx="399.286" cy="530.934" rx="2.857" ry="18.214" transform="matrix(1.2318133,0.4037827,-0.1944214,1.1538008,-332.36939,-704.97154)" style="display:inline;fill:#1a1a1a;fill-opacity:1;stroke:#1a1a1a;stroke-width:3.4288168;stroke-miterlimit:4;stroke-dasharray:none;stroke-opacity:1"/><path id="path4762" d="m 61.01357,60.238595 c 0,0 25.14936,8.843051 34.352153,8.726775 C 106.84984,68.820268 126.19051,36.536807 125.7914,33.78597 124.90046,27.645294 107.49052,28.815231 91.249446,34.165387 75.008363,39.515545 59.484982,49.147989 61.01357,60.238595 Z" style="display:inline;fill:#1a1a1a;fill-opacity:1;fill-rule:evenodd;stroke:#1a1a1a;stroke-width:4.34352779;stroke-linecap:butt;stroke-linejoin:miter;stroke-miterlimit:4;stroke-dasharray:none;stroke-opacity:1"/><path id="path4764" d="m 55.489594,63.362778 c 0,0 -26.194271,-2.081838 -34.867417,-5.288038 C 9.0936345,53.812985 1.1070354,21.681375 2.2868504,19.660057 4.9205216,15.147855 20.956266,22.224427 34.670121,32.173709 48.383962,42.122998 60.170496,55.18488 55.489594,63.362778 Z" style="display:inline;fill:#1a1a1a;fill-opacity:1;fill-rule:evenodd;stroke:#1a1a1a;stroke-width:4.34352779;stroke-linecap:butt;stroke-linejoin:miter;stroke-miterlimit:4;stroke-dasharray:none;stroke-opacity:1"/><path id="path4766" d="m 56.600348,57.963575 c 0,0 -64.9242127,-10.839657 -42.751648,32.522806 14.338905,28.042329 47.452329,-7.590271 42.751648,-32.522806 z" style="display:inline;fill:#1a1a1a;fill-opacity:1;fill-rule:evenodd;stroke:#1a1a1a;stroke-width:4.34352779;stroke-linecap:butt;stroke-linejoin:miter;stroke-miterlimit:4;stroke-dasharray:none;stroke-opacity:1"/><path id="path4768" d="m 58.798384,58.287956 c 0,0 64.392556,13.825114 28.739568,46.158414 C 64.481332,125.35619 45.81797,79.848147 58.798384,58.287956 Z" style="display:inline;fill:#1a1a1a;fill-opacity:1;fill-rule:evenodd;stroke:#1a1a1a;stroke-width:4.34352779;stroke-linecap:butt;stroke-linejoin:miter;stroke-miterlimit:4;stroke-dasharray:none;stroke-opacity:1"/><ellipse id="path4770" cx="399.286" cy="530.934" rx="2.857" ry="18.214" transform="matrix(1.2318133,0.4037827,-0.1944214,1.1538008,-332.36939,-704.97154)" style="display:inline;fill:#1a1a1a;fill-opacity:1;stroke:#1a1a1a;stroke-width:3.4288168;stroke-miterlimit:4;stroke-dasharray:none;stroke-opacity:1"/><path style="display:inline;fill:#1a1a1a;fill-opacity:1;fill-rule:evenodd;stroke:#1a1a1a;stroke-width:2.75429773;stroke-linecap:butt;stroke-linejoin:miter;stroke-miterlimit:4;stroke-dasharray:none;stroke-opacity:1" id="path4774" d="m -106.4375,104.90625 c -0.84496,0.0562 -1.46812,0.33851 -1.78125,0.875 -0.74814,1.28175 4.31457,21.64131 11.625,24.34375 0.477264,0.17643 1.061016,0.36595 1.6875,0.53125 -7.3561,2.17704 -12.34811,7.55526 -5.96875,20.03125 9.09252,17.78207 30.074524,-4.8149 27.09375,-20.625 0,0 -0.09023,5.8e-4 -0.09375,0 -0.658021,-4.98045 -6.846255,-11.28979 -13.8125,-16.34375 -7.065635,-5.12606 -15.08852,-9.05611 -18.75,-8.8125 z" transform="matrix(1.5770001,0,0,1.5770001,172.94795,-147.14955)"/></g><g style="display:inline;opacity:.5970149;fill:#333;fill-opacity:.4;stroke:#b3b3b3" id="g4983" transform="matrix(1.0264649,0,0,1.0369062,-1.5420492,-1.252711)"><path style="display:inline;fill:#333;fill-opacity:.4;fill-rule:evenodd;stroke:#b3b3b3;stroke-width:4.34352779;stroke-linecap:butt;stroke-linejoin:miter;stroke-miterlimit:4;stroke-dasharray:none;stroke-opacity:1" id="path4975" d="m 61.01357,60.238595 c 0,0 25.14936,8.843051 34.352153,8.726775 C 106.84984,68.820268 126.19051,36.536807 125.7914,33.78597 124.90046,27.645294 107.49052,28.815231 91.249446,34.165387 75.008363,39.515545 59.484982,49.147989 61.01357,60.238595 Z"/><path style="display:inline;fill:#333;fill-opacity:.4;fill-rule:evenodd;stroke:#b3b3b3;stroke-width:4.34352779;stroke-linecap:butt;stroke-linejoin:miter;stroke-miterlimit:4;stroke-dasharray:none;stroke-opacity:1" id="path4977" d="m 58.798384,58.287956 c 0,0 64.392556,13.825114 28.739568,46.158414 C 64.481332,125.35619 45.81797,79.848147 58.798384,58.287956 Z"/><ellipse style="display:inline;fill:#333;fill-opacity:.4;stroke:#b3b3b3;stroke-width:3.4288168;stroke-miterlimit:4;stroke-dasharray:none;stroke-opacity:1" id="path4979" cx="399.286" cy="530.934" rx="2.857" ry="18.214" transform="matrix(1.2318133,0.4037827,-0.1944214,1.1538008,-332.36939,-704.97154)"/><path id="path4981" d="m -106.4375,104.90625 c -0.84496,0.0562 -1.46812,0.33851 -1.78125,0.875 -0.74814,1.28175 4.31457,21.64131 11.625,24.34375 0.477264,0.17643 1.061016,0.36595 1.6875,0.53125 -7.3561,2.17704 -12.34811,7.55526 -5.96875,20.03125 9.09252,17.78207 30.074524,-4.8149 27.09375,-20.625 0,0 -0.09023,5.8e-4 -0.09375,0 -0.658021,-4.98045 -6.846255,-11.28979 -13.8125,-16.34375 -7.065635,-5.12606 -15.08852,-9.05611 -18.75,-8.8125 z" transform="matrix(1.5770001,0,0,1.5770001,172.94795,-147.14955)" style="display:inline;fill:#333;fill-opacity:.4;fill-rule:evenodd;stroke:#b3b3b3;stroke-width:2.75429773;stroke-linecap:butt;stroke-linejoin:miter;stroke-miterlimit:4;stroke-dasharray:none;stroke-opacity:1"/></g><ellipse id="path3273" cx="399.286" cy="530.934" rx="2.857" ry="18.214" transform="matrix(1.2318133,0.4037827,-0.19442141,1.1538008,-332.36939,-704.97155)" style="display:inline;fill:#4a3000;fill-opacity:1;stroke:#4a3000;stroke-width:3.4288168;stroke-miterlimit:4;stroke-dasharray:none;stroke-opacity:1"/><path id="path3213" d="m 61.01357,60.238595 c 0,0 25.14936,8.843051 34.352153,8.726775 C 106.84984,68.820268 126.19051,36.536807 125.7914,33.78597 124.90046,27.645294 107.49052,28.815231 91.249446,34.165387 75.008363,39.515545 59.484982,49.147989 61.01357,60.238595 Z" style="display:inline;fill:url(#radialGradient5991);fill-opacity:1;fill-rule:evenodd;stroke:#4a3000;stroke-width:4.34352779;stroke-linecap:butt;stroke-linejoin:miter;stroke-miterlimit:4;stroke-dasharray:none;stroke-opacity:1"/><path id="path3215" d="m 55.489594,63.362778 c 0,0 -26.194271,-2.081838 -34.867417,-5.288038 C 9.0936345,53.812985 1.1070354,21.681375 2.2868504,19.660057 4.9205216,15.147855 20.956266,22.224427 34.670121,32.173709 48.383962,42.122998 60.170496,55.18488 55.489594,63.362778 Z" style="display:inline;fill:url(#radialGradient5993);fill-opacity:1;fill-rule:evenodd;stroke:#4a3000;stroke-width:4.34352779;stroke-linecap:butt;stroke-linejoin:miter;stroke-miterlimit:4;stroke-dasharray:none;stroke-opacity:1"/><path id="path3211" d="m 56.600348,57.963575 c 0,0 -64.9242127,-10.839657 -42.751648,32.522806 14.338905,28.042329 47.452329,-7.590271 42.751648,-32.522806 z" style="display:inline;fill:url(#radialGradient5995);fill-opacity:1;fill-rule:evenodd;stroke:#4a3000;stroke-width:4.34352779;stroke-linecap:butt;stroke-linejoin:miter;stroke-miterlimit:4;stroke-dasharray:none;stroke-opacity:1"/><path id="path3209" d="m 58.798384,58.287956 c 0,0 64.392556,13.825114 28.739568,46.158414 C 64.481332,125.35619 45.81797,79.848147 58.798384,58.287956 Z" style="display:inline;fill:url(#radialGradient5997);fill-opacity:1;fill-rule:evenodd;stroke:#4a3000;stroke-width:4.34352779;stroke-linecap:butt;stroke-linejoin:miter;stroke-miterlimit:4;stroke-dasharray:none;stroke-opacity:1"/><ellipse id="path3228" cx="399.286" cy="530.934" rx="2.857" ry="18.214" transform="matrix(1.2318133,0.4037827,-0.19442141,1.1538008,-332.36939,-704.97155)" style="display:inline;fill:#4a3000;fill-opacity:1;stroke:#4a3000;stroke-width:3.4288168;stroke-miterlimit:4;stroke-dasharray:none;stroke-opacity:1"/><path id="path3230" d="m 61.01357,60.238595 c 0,0 25.14936,8.843051 34.352153,8.726775 C 106.84984,68.820268 126.19051,36.536807 125.7914,33.78597 124.90046,27.645294 107.49052,28.815231 91.249446,34.165387 75.008363,39.515545 59.484982,49.147989 61.01357,60.238595 Z" style="display:inline;fill:url(#radialGradient5999);fill-opacity:1;fill-rule:evenodd;stroke:#4a3000;stroke-width:4.34352779;stroke-linecap:butt;stroke-linejoin:miter;stroke-miterlimit:4;stroke-dasharray:none;stroke-opacity:1"/><path id="path3232" d="m 55.489594,63.362778 c 0,0 -26.194271,-2.081838 -34.867417,-5.288038 C 9.0936345,53.812985 1.1070354,21.681375 2.2868504,19.660057 4.9205216,15.147855 20.956266,22.224427 34.670121,32.173709 48.383962,42.122998 60.170496,55.18488 55.489594,63.362778 Z" style="display:inline;fill:url(#radialGradient6001);fill-opacity:1;fill-rule:evenodd;stroke:#4a3000;stroke-width:4.34352779;stroke-linecap:butt;stroke-linejoin:miter;stroke-miterlimit:4;stroke-dasharray:none;stroke-opacity:1"/><path id="path3234" d="m 56.600348,57.963575 c 0,0 -64.9242127,-10.839657 -42.751648,32.522806 14.338905,28.042329 47.452329,-7.590271 42.751648,-32.522806 z" style="display:inline;fill:url(#radialGradient6003);fill-opacity:1;fill-rule:evenodd;stroke:#4a3000;stroke-width:4.34352779;stroke-linecap:butt;stroke-linejoin:miter;stroke-miterlimit:4;stroke-dasharray:none;stroke-opacity:1"/><path id="path3236" d="m 58.798384,58.287956 c 0,0 64.392556,13.825114 28.739568,46.158414 C 64.481332,125.35619 45.81797,79.848147 58.798384,58.287956 Z" style="display:inline;fill:url(#radialGradient6005);fill-opacity:1;fill-rule:evenodd;stroke:#4a3000;stroke-width:4.34352779;stroke-linecap:butt;stroke-linejoin:miter;stroke-miterlimit:4;stroke-dasharray:none;stroke-opacity:1"/><path id="path3285" d="m 59.339112,61.241664 c 0,0 25.149358,8.843051 34.352142,8.726776 C 105.17537,69.823339 124.51605,37.539873 124.11694,34.789035 123.22599,28.64836 105.81606,29.818306 89.574986,35.168453 73.333905,40.51861 57.810525,50.151054 59.339112,61.241664 Z" style="display:inline;fill:url(#linearGradient91508);fill-opacity:1;fill-rule:evenodd;stroke:none"/><path id="path3303" d="m 55.489585,63.362781 c 0,0 -26.194268,-2.081838 -34.867411,-5.288037 C 9.0936326,53.812986 1.1070353,21.681377 2.2868499,19.660057 4.9205207,15.147857 20.956261,22.224428 34.670116,32.17371 48.383957,42.123 60.170487,55.184884 55.489585,63.362781 Z" style="display:inline;fill:url(#linearGradient91510);fill-opacity:1;fill-rule:evenodd;stroke:none"/><path id="path3309" d="m 56.60034,57.963578 c 0,0 -64.9242048,-10.839657 -42.751641,32.522805 14.3389,28.042337 47.452322,-7.59027 42.751641,-32.522805 z" style="display:inline;fill:url(#linearGradient91512);fill-opacity:1;fill-rule:evenodd;stroke:none"/><path id="path3315" d="m 58.798376,58.28796 c 0,0 64.392574,13.825115 28.739563,46.15843 C 64.481324,125.3562 45.817964,79.848149 58.798376,58.28796 Z" style="display:inline;fill:url(#linearGradient91514);fill-opacity:1;fill-rule:evenodd;stroke:none"/><path id="path3238" d="m 59.339112,61.241664 c 0,0 25.149358,8.843051 34.352142,8.726776 C 105.17537,69.823339 124.51605,37.539873 124.11694,34.789035 123.22599,28.64836 105.81606,29.818306 89.574986,35.168453 73.333905,40.51861 57.810525,50.151054 59.339112,61.241664 Z" style="display:inline;fill:url(#linearGradient3739-540);fill-opacity:1;fill-rule:evenodd;stroke:none"/><path id="path3240" d="m 55.489585,63.362781 c 0,0 -26.194268,-2.081838 -34.867411,-5.288037 C 9.0936326,53.812986 1.1070353,21.681377 2.2868499,19.660057 4.9205207,15.147857 20.956261,22.224428 34.670116,32.17371 48.383957,42.123 60.170487,55.184884 55.489585,63.362781 Z" style="display:inline;fill:url(#linearGradient3737-185);fill-opacity:1;fill-rule:evenodd;stroke:none"/><path id="path3242" d="m 56.60034,57.963578 c 0,0 -64.9242048,-10.839657 -42.751641,32.522805 14.3389,28.042337 47.452322,-7.59027 42.751641,-32.522805 z" style="display:inline;fill:url(#linearGradient3735-183);fill-opacity:1;fill-rule:evenodd;stroke:none"/><path id="path3244" d="m 58.798376,58.28796 c 0,0 64.392574,13.825115 28.739563,46.15843 C 64.481324,125.3562 45.817964,79.848149 58.798376,58.28796 Z" style="display:inline;fill:url(#linearGradient3733-293);fill-opacity:1;fill-rule:evenodd;stroke:none"/></g></g></g></g></svg>