<svg xmlns="http://www.w3.org/2000/svg" xmlns:osb="http://www.openswatchbook.org/uri/2009/osb" xmlns:svg="http://www.w3.org/2000/svg" xmlns:xlink="http://www.w3.org/1999/xlink" id="svg2" width="128" height="128" version="1.1" viewBox="0 0 128 128"><defs id="defs4"><linearGradient id="XMLID_8_" x1="74.5" x2="74.5" y1="5.048" y2="124.24" gradientUnits="userSpaceOnUse"><stop style="stop-color:#fff" id="stop4539" offset="0"/><stop style="stop-color:#e1e1df" id="stop4541" offset="1"/></linearGradient><linearGradient id="XMLID_9_" x1="74.5" x2="74.5" y1="11.081" y2="121.467" gradientUnits="userSpaceOnUse"><stop style="stop-color:#fdfdfd" id="stop4546" offset="0"/><stop style="stop-color:#f3f2f2" id="stop4548" offset=".298"/><stop style="stop-color:#d7d6d6" id="stop4550" offset=".817"/><stop style="stop-color:#cccbca" id="stop4552" offset="1"/></linearGradient><radialGradient id="XMLID_10_" cx="110" cy="32.869" r="15.596" gradientUnits="userSpaceOnUse"><stop style="stop-color:#8e8e8f" id="stop4557" offset=".213"/><stop style="stop-color:#eee" id="stop4559" offset=".927"/></radialGradient><linearGradient id="XMLID_11_" x1="92.023" x2="104.273" y1="9.947" y2="32.947" gradientUnits="userSpaceOnUse"><stop style="stop-color:#fffefe" id="stop4566" offset="0"/><stop style="stop-color:#cfd0d0" id="stop4568" offset="1"/></linearGradient><linearGradient id="XMLID_12_" x1="99.53" x2="105.905" y1="5.181" y2="31.931" gradientUnits="userSpaceOnUse"><stop style="stop-color:#fcfdfd" id="stop4573" offset="0"/><stop style="stop-color:#eee" id="stop4575" offset="1"/></linearGradient><linearGradient id="linearGradient3607"><stop style="stop-color:#f9fbff;stop-opacity:1" id="stop3609" offset="0"/><stop style="stop-color:#62aaff;stop-opacity:1" id="stop3611" offset="1"/></linearGradient><linearGradient id="linearGradient3596"><stop style="stop-color:#0035ed;stop-opacity:1" id="stop3598" offset="0"/><stop style="stop-color:#1c7eff;stop-opacity:1" id="stop3615" offset=".554"/><stop style="stop-color:#98cbff;stop-opacity:1" id="stop3600" offset="1"/></linearGradient><linearGradient id="linearGradient3585"><stop style="stop-color:#00008d;stop-opacity:1" id="stop3587" offset="0"/><stop style="stop-color:#0048b7;stop-opacity:1" id="stop3589" offset="1"/></linearGradient><linearGradient id="linearGradient3628" x1="2891.426" x2="2758.474" y1="317.797" y2="1350.958" gradientTransform="matrix(0.03112505,0,0,0.03112505,-59.971883,66.472321)" gradientUnits="userSpaceOnUse" xlink:href="#linearGradient3607"/><linearGradient id="linearGradient3630" x1="2758.475" x2="2745.763" y1="288.136" y2="1792.373" gradientTransform="matrix(0.03112505,0,0,0.03112505,-59.971883,66.472321)" gradientUnits="userSpaceOnUse" xlink:href="#linearGradient3585"/><linearGradient id="linearGradient3632" x1="3275.424" x2="2453.39" y1="627.119" y2="1682.203" gradientTransform="matrix(0.03112505,0,0,0.03112505,-59.971883,66.472321)" gradientUnits="userSpaceOnUse" xlink:href="#linearGradient3596"/><linearGradient id="linearGradient2890" x1="16.371" x2="43.507" y1="14.877" y2="33.664" gradientUnits="userSpaceOnUse" xlink:href="#XMLID_25_"/><radialGradient id="XMLID_15_" cx="49.904" cy="47.092" r="30.084" fx="49.904" fy="47.092" gradientTransform="matrix(0.3749,0,0,0.375,14.9959,15)" gradientUnits="userSpaceOnUse"><stop style="stop-color:#fbfd4a;stop-opacity:1" id="stop555" offset="0"/><stop style="stop-color:#ff3600;stop-opacity:1" id="stop556" offset="1"/></radialGradient><linearGradient id="XMLID_16_" x1="33.705" x2="33.705" y1="29.923" y2="40.927" gradientUnits="userSpaceOnUse"><stop style="stop-color:#ffc842;stop-opacity:1" id="stop562" offset="0"/><stop style="stop-color:#ffc842;stop-opacity:1" id="stop563" offset="1"/></linearGradient><linearGradient id="XMLID_17_" x1="43.617" x2="36.869" y1="24.517" y2="29.578" gradientUnits="userSpaceOnUse"><stop style="stop-color:#ffc842;stop-opacity:1" id="stop569" offset="0"/><stop style="stop-color:#000" id="stop570" offset="1"/></linearGradient><linearGradient id="XMLID_18_" x1="-12.502" x2="15.653" y1="-47.087" y2="-47.087" gradientTransform="matrix(0.9573,0.289,-0.289,0.9573,14.7332,63.9165)" gradientUnits="userSpaceOnUse"><stop style="stop-color:#888" id="stop578" offset="0"/><stop style="stop-color:#555" id="stop579" offset="1"/></linearGradient><linearGradient id="XMLID_19_" x1="-4.256" x2="27.521" y1="-52.919" y2="-21.141" gradientTransform="matrix(0.9573,0.289,-0.289,0.9573,14.7332,63.9165)" gradientUnits="userSpaceOnUse"><stop style="stop-color:#fff" id="stop586" offset="0"/><stop style="stop-color:#fbf885;stop-opacity:1" id="stop587" offset="1"/></linearGradient><radialGradient id="XMLID_20_" cx="16.352" cy="37.996" r="49.415" fx="16.352" fy="37.996" gradientTransform="matrix(0.3749,0,0,0.375,14.9959,15)" gradientUnits="userSpaceOnUse"><stop style="stop-color:#fbfd4a;stop-opacity:1" id="stop594" offset="0"/><stop style="stop-color:#ff3600;stop-opacity:1" id="stop595" offset="1"/></radialGradient><radialGradient id="XMLID_21_" cx="38.168" cy="18.062" r="90.268" fx="38.168" fy="18.062" gradientTransform="matrix(0.3714,-0.0512,0.0511,0.3715,13.2666,17.0873)" gradientUnits="userSpaceOnUse"><stop style="stop-color:#fbf885;stop-opacity:1" id="stop602" offset="0"/><stop style="stop-color:#ffc842;stop-opacity:1" id="stop603" offset=".5"/><stop style="stop-color:#ff8119;stop-opacity:1" id="stop604" offset="1"/></radialGradient><linearGradient id="XMLID_22_" x1="9.663" x2="9.663" y1="14.929" y2="11.929" gradientTransform="matrix(0.9907,-0.1364,0.1364,0.9907,-4.6134,5.5667)" gradientUnits="userSpaceOnUse"><stop style="stop-color:#ffc842;stop-opacity:1" id="stop612" offset="0"/><stop style="stop-color:#ffdd57;stop-opacity:1" id="stop613" offset=".055"/><stop style="stop-color:#fde059;stop-opacity:1" id="stop614" offset=".344"/><stop style="stop-color:#fbe865;stop-opacity:1" id="stop615" offset=".608"/><stop style="stop-color:#faea66;stop-opacity:1" id="stop616" offset=".835"/><stop style="stop-color:#fbf885;stop-opacity:1" id="stop617" offset="1"/></linearGradient><linearGradient id="XMLID_23_" x1="13.461" x2="29.054" y1="13.736" y2="34.062" gradientTransform="matrix(0.9907,-0.1364,0.1364,0.9907,-4.6134,5.5667)" gradientUnits="userSpaceOnUse"><stop style="stop-color:#fff" id="stop623" offset="0"/><stop style="stop-color:#f8ff51;stop-opacity:1" id="stop624" offset="1"/></linearGradient><linearGradient id="XMLID_24_" x1="24.747" x2="49.274" y1="19.907" y2="44.434" gradientUnits="userSpaceOnUse"><stop style="stop-color:#fff" id="stop632" offset="0"/><stop style="stop-color:#f9ff4d;stop-opacity:1" id="stop633" offset="1"/></linearGradient><linearGradient id="XMLID_25_" x1="16.371" x2="43.507" y1="14.877" y2="33.664" gradientUnits="userSpaceOnUse"><stop style="stop-color:#ffc842;stop-opacity:1" id="stop639" offset="0"/><stop style="stop-color:#d34900;stop-opacity:1" id="stop640" offset="1"/></linearGradient><linearGradient id="XMLID_27_" x1="12.403" x2="40.508" y1="26.704" y2="26.704" gradientUnits="userSpaceOnUse"><stop style="stop-color:#888" id="stop647" offset="0"/><stop style="stop-color:#555" id="stop648" offset="1"/></linearGradient><linearGradient id="XMLID_28_" x1="41.545" x2="36.144" y1="40.628" y2="36.65" gradientUnits="userSpaceOnUse"><stop style="stop-color:#ffff7e;stop-opacity:1" id="stop655" offset="0"/><stop style="stop-color:#ff9e00;stop-opacity:1" id="stop656" offset="1"/></linearGradient><linearGradient id="linearGradient44699"><stop id="stop44701" offset="0" style="stop-color:#000173;stop-opacity:.93333334"/><stop id="stop44703" offset="1" style="stop-color:#3575f0;stop-opacity:1"/></linearGradient><linearGradient id="linearGradient44693"><stop id="stop44695" offset="0" style="stop-color:#3690e6;stop-opacity:1"/><stop id="stop44697" offset="1" style="stop-color:#d0e9ff;stop-opacity:1"/></linearGradient><linearGradient id="linearGradient44681"><stop id="stop44683" offset="0" style="stop-color:#ff5c38;stop-opacity:1"/><stop id="stop44685" offset=".304" style="stop-color:#fb7e65;stop-opacity:.99607843"/><stop id="stop44687" offset="1" style="stop-color:#cd0000;stop-opacity:.98039216"/></linearGradient><linearGradient id="linearGradient44627"><stop id="stop44629" offset="0" style="stop-color:#fffcfb;stop-opacity:1"/><stop id="stop44633" offset="1" style="stop-color:#f4ad94;stop-opacity:1"/></linearGradient><linearGradient id="linearGradient44615"><stop id="stop44617" offset="0" style="stop-color:#2f68fa;stop-opacity:1"/><stop id="stop44619" offset="1" style="stop-color:#c7d5fb;stop-opacity:1"/></linearGradient><linearGradient id="linearGradient44605"><stop id="stop44607" offset="0" style="stop-color:#d0ecff;stop-opacity:1"/><stop id="stop44609" offset=".5" style="stop-color:#d7f0ff;stop-opacity:1"/><stop id="stop44611" offset="1" style="stop-color:#fff;stop-opacity:1"/></linearGradient><linearGradient id="linearGradient44090"><stop id="stop44092" offset="0" style="stop-color:#0926bb;stop-opacity:1"/><stop id="stop44094" offset="1" style="stop-color:#6bb5fe;stop-opacity:1"/></linearGradient><linearGradient id="linearGradient44080"><stop id="stop44082" offset="0" style="stop-color:#2c8300;stop-opacity:1"/><stop id="stop44084" offset=".25" style="stop-color:#57aeff;stop-opacity:1"/><stop id="stop44086" offset=".5" style="stop-color:#fff;stop-opacity:1"/><stop id="stop44088" offset="1" style="stop-color:#5aafff;stop-opacity:1"/></linearGradient><filter id="filter3297"><feGaussianBlur id="feGaussianBlur3299" stdDeviation=".267"/></filter><filter id="filter3293"><feGaussianBlur id="feGaussianBlur3295" stdDeviation=".355"/></filter><linearGradient id="linearGradient3219"><stop id="stop3221" offset="0" style="stop-color:#0e7309;stop-opacity:1"/><stop id="stop3223" offset="1" style="stop-color:#70d13e;stop-opacity:1"/></linearGradient><radialGradient id="radialGradient44048" cx="53.602" cy="59.729" r="17.834" fx="53.602" fy="59.729" gradientTransform="matrix(0,1.655849,-1.6391884,0,152.15006,-32.923726)" gradientUnits="userSpaceOnUse" xlink:href="#linearGradient44627"/><radialGradient id="radialGradient44061" cx="479.683" cy="709.658" r="5.006" fx="479.683" fy="709.658" gradientTransform="matrix(0.856113,-0.0637264,0.1161478,1.5603521,-743.30707,-121.7687)" gradientUnits="userSpaceOnUse" xlink:href="#linearGradient44605"/><linearGradient id="linearGradient44067" x1="517.022" x2="517.022" y1="705.484" y2="745.301" gradientTransform="matrix(-1,0,0,1,253.42404,245.75912)" gradientUnits="userSpaceOnUse" xlink:href="#linearGradient44090"/><linearGradient id="linearGradient44070" x1="517.022" x2="517.022" y1="705.484" y2="745.301" gradientTransform="translate(-730.02214,245.75912)" gradientUnits="userSpaceOnUse" xlink:href="#linearGradient44090"/><radialGradient id="radialGradient44073" cx="491.522" cy="670.925" r="36.427" fx="491.522" fy="670.925" gradientTransform="matrix(0,2.0237831,-1.9580539,0,1075.328,-66.735647)" gradientUnits="userSpaceOnUse" xlink:href="#linearGradient44080"/><linearGradient id="linearGradient44076" x1="83.281" x2="83.281" y1="123.098" y2="66.311" gradientTransform="translate(-282.47353,882.69271)" gradientUnits="userSpaceOnUse" xlink:href="#linearGradient44699"/><linearGradient id="linearGradient44613" x1="-246.577" x2="-248.777" y1="958.08" y2="964.617" gradientUnits="userSpaceOnUse" xlink:href="#linearGradient44615"/><linearGradient id="linearGradient44625" x1="-246.577" x2="-248.777" y1="958.08" y2="964.617" gradientTransform="matrix(-1,0,0,1,-476.93424,0)" gradientUnits="userSpaceOnUse" xlink:href="#linearGradient44615"/><linearGradient id="linearGradient44667" x1="517.022" x2="517.022" y1="705.484" y2="745.301" gradientTransform="translate(-772.48144,227.87334)" gradientUnits="userSpaceOnUse" xlink:href="#linearGradient3219"/><linearGradient id="linearGradient44677" x1="60.127" x2="60.127" y1="81.914" y2="47.543" gradientUnits="userSpaceOnUse" xlink:href="#linearGradient44681"/><linearGradient id="linearGradient44691" x1="-35.567" x2="-35.567" y1="76.563" y2="84.91" gradientUnits="userSpaceOnUse" xlink:href="#linearGradient44693"/><linearGradient id="linearGradient3510"><stop id="stop3512" offset="0" style="stop-color:#fff;stop-opacity:1"/><stop id="stop3514" offset="1" style="stop-color:#fff;stop-opacity:0"/></linearGradient><linearGradient id="linearGradient3498"><stop id="stop3500" offset="0" style="stop-color:#3465a4;stop-opacity:1"/><stop id="stop3502" offset="1" style="stop-color:#3465a4;stop-opacity:0"/></linearGradient><linearGradient id="linearGradient4099"><stop id="stop4101" offset="0" style="stop-color:#6f726f;stop-opacity:1"/><stop id="stop4103" offset="1" style="stop-color:#6f726f;stop-opacity:0"/></linearGradient><linearGradient id="linearGradient4068"><stop id="stop4070" offset="0" style="stop-color:#eaeae9;stop-opacity:1"/><stop id="stop4072" offset="1" style="stop-color:#a5a7a2;stop-opacity:1"/></linearGradient><linearGradient id="linearGradient3670"><stop id="stop3672" offset="0" style="stop-color:#d3d7cf"/><stop id="stop3674" offset="1" style="stop-color:#555753"/></linearGradient><radialGradient id="radialGradient3634" cx="6.88" cy="7.199" r="9.375" fx="6.88" fy="7.199" gradientTransform="matrix(1.240749,0,0,1.157631,-1.713645,-1.134736)" gradientUnits="userSpaceOnUse" xlink:href="#linearGradient3670"/><linearGradient id="linearGradient3692"><stop id="stop3694" offset="0" style="stop-color:#2e3436;stop-opacity:1"/><stop id="stop3696" offset="1" style="stop-color:#babdb6"/></linearGradient><linearGradient id="linearGradient3698" x1="-.52" x2="-.52" y1="-.52" y2="19.27" gradientUnits="userSpaceOnUse" xlink:href="#linearGradient3692"/><radialGradient id="radialGradient3644" cx="12.705" cy="13.847" r="9.375" fx="12.705" fy="13.847" gradientTransform="matrix(0.06370852,-1.424475,1.547293,0.0692112,-9.530629,30.98681)" gradientUnits="userSpaceOnUse" xlink:href="#linearGradient3670"/><linearGradient id="linearGradient3730"><stop id="stop3732" offset="0" style="stop-color:#eeeeec"/><stop id="stop3734" offset="1" style="stop-color:#888a85"/></linearGradient><radialGradient id="radialGradient3728" cx="-1.002" cy=".99" r="9.921" fx="-1.002" fy=".99" gradientTransform="matrix(-0.310032,2.110862,-2.082775,-0.305867,17.75288,16.41459)" gradientUnits="userSpaceOnUse" xlink:href="#linearGradient3730"/><linearGradient id="linearGradient1557"><stop id="stop1559" offset="0" style="stop-color:#2e3436;stop-opacity:1"/><stop id="stop1561" offset="1" style="stop-color:#888a85"/></linearGradient><linearGradient id="linearGradient1549" x1="17.063" x2="20.313" y1="34.95" y2="5.375" gradientUnits="userSpaceOnUse" xlink:href="#linearGradient1557"/><linearGradient id="linearGradient3676"><stop id="stop4022" offset="0" style="stop-color:#eeeeec"/><stop id="stop3680" offset="1" style="stop-color:#555753"/></linearGradient><radialGradient id="radialGradient3702" cx="-1.002" cy=".99" r="9.921" fx="-1.002" fy=".99" gradientTransform="matrix(-0.127582,1.416065,-1.630141,-0.146854,17.48751,15.56121)" gradientUnits="userSpaceOnUse" xlink:href="#linearGradient3676"/><linearGradient id="linearGradient3788"><stop id="stop3790" offset="0" style="stop-color:#cccdcb;stop-opacity:1"/><stop id="stop3792" offset="1" style="stop-color:#888a85;stop-opacity:1"/></linearGradient><linearGradient id="linearGradient3657"><stop id="stop3659" offset="0" style="stop-color:#fafafa;stop-opacity:1"/><stop id="stop3661" offset="1" style="stop-color:#bfbfbf;stop-opacity:1"/></linearGradient><linearGradient id="linearGradient3609"><stop id="stop3611-6" offset="0" style="stop-color:#000;stop-opacity:1"/><stop id="stop3613" offset="1" style="stop-color:#000;stop-opacity:0"/></linearGradient><linearGradient id="linearGradient4585" x1="56.303" x2="56.609" y1="4.937" y2="8.68" gradientTransform="matrix(4.4611255,0,0,4.4611255,-215.94246,23.775709)" gradientUnits="userSpaceOnUse" xlink:href="#linearGradient4608"/><linearGradient id="linearGradient4641" x1="58.016" x2="57.954" y1="35.015" y2="40.999" gradientTransform="matrix(0.997993,0,0,1,-97.71685,-9.352993)" gradientUnits="userSpaceOnUse" spreadMethod="reflect" xlink:href="#linearGradient4608"/><linearGradient id="linearGradient4608"><stop id="stop4610" offset="0" style="stop-color:#eeeeec"/><stop id="stop4612" offset="1" style="stop-color:#8a8c87;stop-opacity:1"/></linearGradient><radialGradient id="radialGradient3615" cx="6.408" cy="17.404" r="5.524" fx="6.408" fy="17.404" gradientTransform="matrix(7.3143547,0,0,3.989648,-5.4983517,12.909402)" gradientUnits="userSpaceOnUse" xlink:href="#linearGradient3609"/><linearGradient id="linearGradient3668" x1="10.438" x2="10.438" y1="8.29" y2="18.985" gradientTransform="translate(-64.70027,0)" gradientUnits="userSpaceOnUse" xlink:href="#linearGradient3657"/><radialGradient id="radialGradient3680" cx="5.082" cy="12.516" r="2.983" fx="5.082" fy="12.516" gradientTransform="matrix(3.8458078,0,-3.7315016e-8,4.4587336,6.5267879,12.165891)" gradientUnits="userSpaceOnUse" xlink:href="#linearGradient3510"/><linearGradient id="linearGradient3794" x1="8.054" x2="10.438" y1="11.03" y2="11.03" gradientTransform="translate(-64.70027,0)" gradientUnits="userSpaceOnUse" xlink:href="#linearGradient3788"/><linearGradient id="linearGradient4095" x1="7.576" x2="7.322" y1="20.302" y2="27.345" gradientUnits="userSpaceOnUse" xlink:href="#linearGradient4068"/><linearGradient id="linearGradient4105" x1="11.126" x2="9.347" y1="25.56" y2="25.737" gradientTransform="matrix(3.267068,0,0,3.267068,-5.8152962,-21.586126)" gradientUnits="userSpaceOnUse" xlink:href="#linearGradient4099"/><linearGradient id="linearGradient3287" x1="4.683" x2="8.371" y1="24.665" y2="24.317" gradientUnits="userSpaceOnUse" xlink:href="#linearGradient3510"/><radialGradient id="radialGradient3504" cx="36.828" cy="24.428" r="1.24" fx="36.828" fy="24.428" gradientTransform="matrix(33.771851,-1.0380269e-5,1.7219594e-5,56.02335,-1144.2052,-1310.0735)" gradientUnits="userSpaceOnUse" xlink:href="#linearGradient3498"/><radialGradient id="radialGradient3506" cx="36.828" cy="24.428" r="1.24" fx="36.828" fy="24.428" gradientTransform="matrix(53.169249,0,0,56.023199,-1858.5804,-1310.0705)" gradientUnits="userSpaceOnUse" xlink:href="#linearGradient3498"/><radialGradient id="radialGradient3508" cx="36.828" cy="24.428" r="1.24" fx="36.828" fy="24.428" gradientTransform="matrix(33.771851,-1.0380269e-5,1.7219594e-5,56.02335,-1144.2052,-1310.0735)" gradientUnits="userSpaceOnUse" xlink:href="#linearGradient3498"/><linearGradient id="linearGradient3516" x1="9.486" x2="7.378" y1="22.108" y2="22.638" gradientTransform="matrix(2.5205338,0,0,2.5205338,6.7325386,-3.1243099)" gradientUnits="userSpaceOnUse" xlink:href="#linearGradient3510"/><filter id="filter5198"><feGaussianBlur id="feGaussianBlur5200" stdDeviation="1.124"/></filter><linearGradient id="linearGradient5613" x1="64" x2="64" y1="-1.178" y2="99.458" gradientTransform="matrix(0.45718256,0,0,0.45718256,-125.85122,67.08849)" gradientUnits="userSpaceOnUse" xlink:href="#XMLID_4_"/><linearGradient id="XMLID_4_" x1="64" x2="64" y1="-1.178" y2="99.458" gradientTransform="matrix(-1,0,0,-1,128,128)" gradientUnits="userSpaceOnUse"><stop id="stop105" offset="0" style="stop-color:#0053bd;stop-opacity:1"/><stop id="stop107" offset="1" style="stop-color:#00008d;stop-opacity:1"/><midPointStop style="stop-color:#00008d" id="midPointStop109" offset="0"/><midPointStop style="stop-color:#00008d" id="midPointStop111" offset=".5"/><midPointStop style="stop-color:#0053bd" id="midPointStop113" offset="1"/></linearGradient><radialGradient id="radialGradient5615" cx="323.325" cy="388.165" r="49.622" fx="323.325" fy="388.165" gradientTransform="matrix(-0.95919902,0.62734453,-0.48564594,-0.74254472,390.95468,162.6776)" gradientUnits="userSpaceOnUse" xlink:href="#radialGradient4602"/><radialGradient id="radialGradient4602" cx="27.576" cy="107.817" r="115.483" fx="27.576" fy="107.817" gradientTransform="matrix(1,0,0,1.0565,0,-0.544571)" gradientUnits="userSpaceOnUse"><stop id="stop4604" offset="0" style="stop-color:#fff;stop-opacity:1"/><stop id="stop4606" offset=".057" style="stop-color:#def;stop-opacity:1"/><stop id="stop4608" offset=".133" style="stop-color:#b5daff;stop-opacity:1"/><stop id="stop4610-6" offset=".193" style="stop-color:#9dceff;stop-opacity:1"/><stop id="stop4612-8" offset=".23" style="stop-color:#94caff;stop-opacity:1"/><stop id="stop4614" offset=".596" style="stop-color:#0b74ff;stop-opacity:1"/><stop id="stop4616" offset=".815" style="stop-color:#0035ed;stop-opacity:1"/><midPointStop style="stop-color:#fff" id="midPointStop134" offset="0"/><midPointStop style="stop-color:#fff" id="midPointStop136" offset=".4"/><midPointStop style="stop-color:#94caff" id="midPointStop138" offset=".23"/><midPointStop style="stop-color:#94caff" id="midPointStop140" offset=".5"/><midPointStop style="stop-color:#0b74ff" id="midPointStop142" offset=".596"/><midPointStop style="stop-color:#0b74ff" id="midPointStop144" offset=".5"/><midPointStop style="stop-color:#0035ed" id="midPointStop146" offset=".815"/></radialGradient><linearGradient id="linearGradient5617" x1="62.342" x2="62.342" y1="16.279" y2="63.596" gradientTransform="matrix(0.45718256,0,0,-0.45718256,-124.33546,125.60786)" gradientUnits="userSpaceOnUse" xlink:href="#linearGradient4619"/><linearGradient id="linearGradient4619" x1="62.342" x2="62.342" y1="8.826" y2="61.277" gradientUnits="userSpaceOnUse"><stop id="stop4621" offset="0" style="stop-color:#fff;stop-opacity:1"/><stop id="stop4623" offset="1" style="stop-color:#74aeff;stop-opacity:1"/><midPointStop style="stop-color:#fff" id="midPointStop157" offset="0"/><midPointStop style="stop-color:#fff" id="midPointStop159" offset=".5"/><midPointStop style="stop-color:#74aeff" id="midPointStop161" offset="1"/></linearGradient><linearGradient id="linearGradient5376"><stop id="stop5384" offset="0" style="stop-color:#e7e7e7;stop-opacity:1"/><stop style="stop-color:#fff;stop-opacity:1" id="stop5380" offset="1"/></linearGradient><linearGradient id="linearGradient5360"><stop style="stop-color:#fff;stop-opacity:1" id="stop5362" offset="0"/><stop style="stop-color:#e7e7e7;stop-opacity:1" id="stop5364" offset="1"/></linearGradient><linearGradient id="linearGradient5352"><stop style="stop-color:#4e111d;stop-opacity:1" id="stop5354" offset="0"/><stop style="stop-color:#8f1a1e;stop-opacity:1" id="stop5356" offset="1"/></linearGradient><linearGradient id="linearGradient5328"><stop style="stop-color:#7c1315;stop-opacity:1" id="stop5330" offset="0"/><stop style="stop-color:#e81c24;stop-opacity:1" id="stop5332" offset="1"/></linearGradient><linearGradient id="linearGradient5320"><stop style="stop-color:#e5e5e5;stop-opacity:1" id="stop5322" offset="0"/><stop style="stop-color:#fff;stop-opacity:1" id="stop5324" offset="1"/></linearGradient><linearGradient id="linearGradient5314" osb:paint="solid"><stop style="stop-color:#ededed;stop-opacity:1" id="stop5316" offset="0"/></linearGradient><linearGradient id="linearGradient5326-4" x1="-95.114" x2="421.451" y1="101.635" y2="101.635" gradientTransform="translate(345.06811,407.2935)" gradientUnits="userSpaceOnUse" xlink:href="#linearGradient5320"/><radialGradient id="radialGradient3634-2" cx="6.88" cy="7.199" r="9.375" fx="6.88" fy="7.199" gradientTransform="matrix(1.240749,0,0,1.157631,-1.713645,-1.134736)" gradientUnits="userSpaceOnUse" xlink:href="#linearGradient3670"/><radialGradient id="radialGradient3644-9" cx="12.705" cy="13.847" r="9.375" fx="12.705" fy="13.847" gradientTransform="matrix(0.06370852,-1.424475,1.547293,0.0692112,-9.530629,30.98681)" gradientUnits="userSpaceOnUse" xlink:href="#linearGradient3670"/><radialGradient id="radialGradient3728-0" cx="-1.002" cy=".99" r="9.921" fx="-1.002" fy=".99" gradientTransform="matrix(-0.310032,2.110862,-2.082775,-0.305867,17.75288,16.41459)" gradientUnits="userSpaceOnUse" xlink:href="#linearGradient3730"/><radialGradient id="radialGradient3702-8" cx="-1.002" cy=".99" r="9.921" fx="-1.002" fy=".99" gradientTransform="matrix(-0.127582,1.416065,-1.630141,-0.146854,17.48751,15.56121)" gradientUnits="userSpaceOnUse" xlink:href="#linearGradient3676"/><linearGradient id="linearGradient4585-7" x1="56.303" x2="56.609" y1="4.937" y2="8.68" gradientTransform="matrix(1.769913,0,0,1.769913,-88.34438,10.67235)" gradientUnits="userSpaceOnUse" xlink:href="#linearGradient4608"/><radialGradient id="radialGradient3615-2" cx="6.408" cy="17.404" r="5.524" fx="6.408" fy="17.404" gradientTransform="matrix(1,0,0,0.416,0,10.16382)" gradientUnits="userSpaceOnUse" xlink:href="#linearGradient3609"/><radialGradient id="radialGradient3680-2" cx="5.082" cy="12.516" r="2.983" fx="5.082" fy="12.516" gradientTransform="matrix(1.525791,0,-1.480441e-8,1.768964,-0.08162983,6.066255)" gradientUnits="userSpaceOnUse" xlink:href="#linearGradient3510"/><linearGradient id="linearGradient4105-8" x1="11.126" x2="9.347" y1="25.56" y2="25.737" gradientTransform="matrix(1.296181,0,0,1.296181,-4.978245,-7.324566)" gradientUnits="userSpaceOnUse" xlink:href="#linearGradient4099"/><radialGradient id="radialGradient3504-9" cx="36.828" cy="24.428" r="1.24" fx="36.828" fy="24.428" gradientTransform="matrix(13.39869,-4.118282e-6,6.831725e-6,22.22678,-456.6246,-518.5208)" gradientUnits="userSpaceOnUse" xlink:href="#linearGradient3498"/><radialGradient id="radialGradient3506-7" cx="36.828" cy="24.428" r="1.24" fx="36.828" fy="24.428" gradientTransform="matrix(21.09444,2.34445e-15,1.470518e-12,22.22672,-740.0468,-518.5196)" gradientUnits="userSpaceOnUse" xlink:href="#linearGradient3498"/><radialGradient id="radialGradient3508-3" cx="36.828" cy="24.428" r="1.24" fx="36.828" fy="24.428" gradientTransform="matrix(13.39869,-4.118282e-6,6.831725e-6,22.22678,-456.6246,-518.5208)" gradientUnits="userSpaceOnUse" xlink:href="#linearGradient3498"/><linearGradient id="linearGradient3516-6" x1="9.486" x2="7.378" y1="22.108" y2="22.638" gradientUnits="userSpaceOnUse" xlink:href="#linearGradient3510"/><linearGradient id="linearGradient10181" x1="63.249" x2="64.871" y1="1046.807" y2="1001.196" gradientUnits="userSpaceOnUse" xlink:href="#linearGradient5328"/></defs><metadata id="metadata7"/><g id="layer1" transform="translate(0,-924.36216)"><g id="g5149" transform="matrix(1.0333334,0,0,1.0333334,-12.351081,919.84935)"><path style="opacity:.2" id="path4532" d="M 30.666,7 C 28.816,7 27,8.83 27,10.694 c 0,106.39 0,106.39 0,109.807 0,3.917 4,4.499 4,4.499 l 87,0 c 0,0 4,-0.268 4,-4.018 0,-3.75 0,-78.479 0,-78.479 C 122,37.306 94.325,7 87.135,7 L 30.666,7 Z"/><path style="opacity:.2" id="path4534" d="M 30.666,8 C 28.816,8 27,9.83 27,11.694 c 0,106.39 0,106.39 0,109.807 0,3.917 5,4.499 5,4.499 l 85,0 c 0,0 5,-0.268 5,-4.018 0,-3.75 0,-78.479 0,-78.479 C 122,38.306 94.325,8 87.135,8 L 30.666,8 Z"/><path style="opacity:.6;fill:#262626" id="path4536" d="M 30.666,6 C 28.816,6 27,7.83 27,9.694 c 0,106.39 0,106.39 0,109.807 0,3.917 3,4.499 3,4.499 l 89,0 c 0,0 3,-0.268 3,-4.018 0,-3.75 0,-78.479 0,-78.479 C 122,36.306 94.325,6 87.135,6 L 30.666,6 Z"/><path style="fill:url(#XMLID_8_)" id="path4543" d="m 121,120.113 c 0,2.584 -2.398,2.887 -2.398,2.887 l -88.104,0 C 30.498,123 28,122.525 28,119.917 28,100.1 28,10.861 28,9.694 28,8.374 29.359,7 30.666,7 31.66,7 79.135,7 87.135,7 94.167,7 121,37.326 121,41.504 c 0,4.619 0,63.145 0,78.609 z"/><path style="fill:url(#XMLID_9_)" id="path4554" d="m 120,119.282 c 0,2.481 -2,2.718 -2,2.718 l -87,0 c 0,0 -2,-0.163 -2,-2.249 C 29,101.736 29,10.877 29,9.694 29,8.374 30.317,7 31.583,7 32.547,7 79.442,7 87.193,7 94.006,7 120,37.326 120,41.504 c 0,4.63 0,62.674 0,77.778 z"/><path style="fill:url(#XMLID_10_)" id="path4561" d="m 120,39 c 0,7.18 -2.82,13 -10,13 -7.18,0 -16,-5.82 -16,-13 0,-7.18 2.82,-9 10,-9 7.18,0 11,4 16,9 z"/><path style="opacity:.5;fill:#343434" id="path4563" d="m 84.415,6.963 c 0.547,0 0.947,0.002 3.616,1.193 4.182,1.891 4.103,22.225 4.103,26.673 l -0.001,0.128 c 0,0.521 0.399,0.959 0.918,1.002 5.973,0.496 23.318,-0.848 26.406,4.026 1.199,1.608 1.365,2.858 1.918,2.858 0.553,0 0.625,-0.786 0.625,-1.339 0,-0.797 -0.257,-1.574 -0.766,-2.428 -0.004,-0.009 -0.002,-0.018 -0.006,-0.026 -0.014,-0.028 -0.038,-0.065 -0.053,-0.094 l 0,-0.001 C 118.87,34.256 95.385,8.574 88.821,6.365 88.815,6.363 88.814,6.357 88.809,6.355 88.802,6.352 88.794,6.353 88.788,6.351 88.767,6.343 88.739,6.328 88.718,6.32 88.624,6.291 88.531,6.279 88.439,6.277 88.01,6.133 87.578,6 87.135,6 86.627,6 84.473,6.457 84.415,6.963 Z"/><path style="fill:url(#XMLID_11_)" id="path4570" d="M 121,41.504 C 117.625,32.875 93.133,34.962 93.133,34.962 93.003,37.629 94.632,7 87.135,7 94.168,7 121,38.814 121,41.504 Z"/><path style="fill:url(#XMLID_12_)" id="path4577" d="M 121,41.504 C 119.5,33.563 94.25,33.438 94.25,33.438 94.225,36.104 94.524,7 87.135,7 94.168,7 121,38.814 121,41.504 Z"/></g><path style="opacity:1;fill:url(#linearGradient10181);fill-opacity:1;stroke:none;stroke-width:2;stroke-linecap:round;stroke-linejoin:round;stroke-miterlimit:4;stroke-dasharray:none;stroke-dashoffset:0;stroke-opacity:.74509804" id="rect7361" d="m 112.73071,1019.5424 0,23.5966 c 0,2.1265 -0.11554,3.9546 -3.51132,3.9522 l -89.120784,-0.064 c -2.593827,-0 -3.745542,-1.7618 -3.745542,-3.8883 l 0,-23.5966 z"/><text style="font-style:normal;font-variant:normal;font-weight:400;font-stretch:normal;font-size:22.17122078px;line-height:125%;font-family:'Arial Black';-inkscape-font-specification:'Arial Black, Normal';text-align:start;letter-spacing:0;word-spacing:0;writing-mode:lr-tb;text-anchor:start;fill:#fff;fill-opacity:1;stroke:none;stroke-width:1px;stroke-linecap:butt;stroke-linejoin:miter;stroke-opacity:1" id="text7357" x="40.227" y="1041.252" xml:space="preserve"><tspan id="tspan7359" x="40.227" y="1041.252">PDF</tspan></text><path style="color:#000;font-style:normal;font-variant:normal;font-weight:400;font-stretch:normal;font-size:medium;line-height:normal;font-family:sans-serif;text-indent:0;text-align:start;text-decoration:none;text-decoration-line:none;text-decoration-style:solid;text-decoration-color:#000;letter-spacing:normal;word-spacing:normal;text-transform:none;direction:ltr;block-progression:tb;writing-mode:lr-tb;baseline-shift:baseline;text-anchor:start;white-space:normal;clip-rule:nonzero;display:inline;overflow:visible;visibility:visible;opacity:1;isolation:auto;mix-blend-mode:normal;color-interpolation:sRGB;color-interpolation-filters:linearRGB;solid-color:#000;solid-opacity:1;fill:#b6181d;fill-opacity:1;fill-rule:nonzero;stroke:none;stroke-width:1.39999998;stroke-linecap:butt;stroke-linejoin:round;stroke-miterlimit:10;stroke-dasharray:none;stroke-dashoffset:0;stroke-opacity:1;color-rendering:auto;image-rendering:auto;shape-rendering:auto;text-rendering:auto;enable-background:accumulate" id="path10254" d="m 60.451476,952.81903 c -0.05622,0.007 -0.634798,0.0483 -1.295863,0.2909 -0.680245,0.24969 -1.644586,0.75356 -2.36958,1.80892 a 1.895854,1.895854 0 0 0 -0.01062,0.0215 c -0.713314,1.06769 -0.975488,2.26321 -1.163633,3.65486 -0.191596,1.40405 -0.27598,3.13435 -0.0899,5.07767 0.18656,1.94867 0.64344,4.01934 1.221816,6.07735 a 1.895854,1.895854 0 0 0 0,0.005 c 0.318875,1.13155 0.981808,2.47812 1.475699,3.71834 -0.348215,1.08839 -0.28382,1.72172 -0.698181,2.81387 -2.213928,5.81942 -5.484417,11.39032 -8.436342,15.90471 -1.697654,0.6442 -3.427794,1.11124 -4.940152,1.84606 -3.502736,1.69945 -6.050446,3.53312 -7.701138,5.14107 -1.642546,1.6088 -2.409659,3.1412 -2.697514,4.4112 -0.294094,1.2853 -0.276669,2.4572 0.296198,3.5332 0.29341,0.5526 0.9537,1.1808 1.666115,1.4017 0.712412,0.2211 1.328266,0.1611 1.94644,0.058 1.252276,-0.2074 3.117439,-0.8916 5.421473,-2.8457 2.295568,-1.9546 5.119919,-5.1571 8.399316,-10.01261 0.09023,-0.13354 0.17356,-0.36128 0.264471,-0.49716 1.711008,-0.61553 3.356109,-1.37854 4.913705,-1.83545 3.440983,-1.00389 6.093445,-1.54229 8.462788,-1.97278 a 1.895854,1.895854 0 0 0 0.0055,0 c 1.917635,-0.3499 3.492819,-0.54946 5.077673,-0.7194 0.787383,0.84089 1.619629,1.89896 2.337844,2.61292 2.283269,2.27487 4.09528,3.78896 5.812877,5.00364 1.719174,1.2148 3.386615,2.18414 5.051228,2.68684 a 1.895854,1.895854 0 0 0 0.01062,0 c 1.671383,0.4892 3.248852,0.3967 4.538169,-0.011 a 1.895854,1.895854 0 0 0 0.02111,0 c 1.27885,-0.4192 2.671256,-1.25543 3.390406,-2.78212 0.721063,-1.52323 0.659062,-3.28623 -0.07404,-4.90833 -0.725513,-1.63036 -2.019911,-2.86395 -3.464456,-3.76599 -1.447294,-0.91257 -3.03148,-1.44341 -4.749738,-1.86181 l -0.0055,0 c -1.739004,-0.42653 -3.708239,-0.74965 -5.73354,-0.92032 a 1.895854,1.895854 0 0 0 -0.01062,0 c -1.821726,-0.14326 -3.68908,-0.11862 -5.574862,-0.005 -1.26667,-1.405 -2.517345,-2.64037 -3.676022,-4.10977 -2.254193,-2.85865 -4.090718,-5.63493 -5.305111,-7.91799 -0.308496,-0.58243 -0.362002,-0.9986 -0.602974,-1.52858 1.442287,-4.8691 2.871829,-10.02151 3.173546,-12.87931 0.184936,-1.7349 0.378487,-2.75112 0.312064,-3.85057 -0.0332,-0.54973 -0.177353,-1.20631 -0.571237,-1.7772 -0.298425,-0.4325 -0.693109,-0.64783 -1.068425,-0.86743 l 0.01062,-0.0164 c -0.02627,-0.0164 -0.06895,-0.031 -0.09522,-0.0476 -0.09064,-0.05 -0.172289,-0.17061 -0.259163,-0.21151 l -0.03174,0.0635 c -0.403695,-0.25863 -0.778087,-0.5374 -1.428096,-0.73523 a 1.895854,1.895854 0 0 0 -0.0055,0 c -0.831983,-0.25239 -1.677433,-0.0699 -1.750741,-0.0582 z m 0.650578,3.6866 c -0.06287,-0.019 0.358901,0.19769 0.740493,0.41783 -9.1e-4,0.38553 -0.09679,1.32142 -0.27504,2.99371 a 1.895854,1.895854 0 0 0 0,0.005 c -0.145992,1.38284 -1.169846,4.39816 -1.623798,6.57455 -0.239585,-1.08855 -0.554279,-2.2336 -0.645287,-3.18413 -0.155147,-1.62053 -0.08101,-3.0688 0.07404,-4.20497 a 1.895854,1.895854 0 0 0 0,-0.005 c 0.152248,-1.1261 0.412412,-1.83738 0.550082,-2.04693 0.132668,-0.18415 0.367812,-0.32307 0.539502,-0.38612 0.194685,-0.0716 0.134214,-0.0335 0.587107,-0.10586 0.435813,-0.0696 0.09951,-0.0441 0.05288,-0.0582 z m 0.962643,0.43901 -0.01598,0.0372 c 0.0062,0.002 -0.01062,-0.007 -0.0055,-0.005 l 0.02111,-0.0317 z m -1.391071,21.43201 c 1.254965,2.10706 2.573808,4.27329 4.421805,6.61684 0.661619,0.83902 1.368128,1.49499 2.073383,2.32198 -0.912469,0.13919 -1.731541,0.19877 -2.729246,0.3808 -2.429402,0.44147 -5.254266,1.01405 -8.848906,2.06281 a 1.895854,1.895854 0 0 0 -0.0055,0 c -0.370607,0.10857 -0.794809,0.32075 -1.179501,0.439 2.229494,-3.74561 4.532876,-7.43655 6.267753,-11.82143 z m 14.455497,12.15994 c 0.627449,0.0164 1.282913,-0.0486 1.898839,0 1.825413,0.15437 3.61839,0.45139 5.141144,0.82514 a 1.895854,1.895854 0 0 0 0.0055,0 c 1.525565,0.3712 2.685738,0.79188 3.633709,1.39103 a 1.895854,1.895854 0 0 0 0.01064,0 c 0.947301,0.59157 1.711154,1.42112 2.009911,2.09452 a 1.895854,1.895854 0 0 0 0.0055,0.0168 c 0.301524,0.66426 0.241886,1.43752 0.105775,1.72432 a 1.895854,1.895854 0 0 0 -0.0055,0.0112 c -0.136975,0.29216 -0.464834,0.55891 -1.142476,0.78285 -0.675582,0.21145 -1.323296,0.27588 -2.306111,-0.0112 l -0.0055,0 c -0.988942,-0.30107 -2.415542,-1.06977 -3.940485,-2.14734 -1.537532,-1.08728 -3.157433,-2.43014 -5.326268,-4.59111 a 1.895854,1.895854 0 0 0 0,-0.005 c -0.02572,-0.0243 -0.0586,-0.0694 -0.08462,-0.0954 z m -30.825701,7.90747 c -1.225743,1.42547 -2.776238,3.64054 -3.681313,4.41114 -1.691999,1.435 -2.535487,1.6313 -3.194704,1.772 0.0087,-0.1074 -0.01896,-0.056 0.01062,-0.1854 0.140766,-0.6235 0.402075,-1.3098 1.655531,-2.5387 0.993154,-0.9675 3.062883,-2.23533 5.209904,-3.45392 z"/></g></svg>