<svg xmlns="http://www.w3.org/2000/svg" xmlns:osb="http://www.openswatchbook.org/uri/2009/osb" xmlns:pdf="http://ns.adobe.com/pdf/1.3/" xmlns:svg="http://www.w3.org/2000/svg" xmlns:x="adobe:ns:meta/" xmlns:xap="http://ns.adobe.com/xap/1.0/" xmlns:xapGImg="http://ns.adobe.com/xap/1.0/g/img/" xmlns:xapMM="http://ns.adobe.com/xap/1.0/mm/" xmlns:xlink="http://www.w3.org/1999/xlink" style="overflow:visible" id="svg548" width="128" height="128" version="1.1" viewBox="0 0 128 128" xml:space="preserve"><defs id="defs664"><linearGradient id="linearGradient5090"><stop style="stop-color:#fff;stop-opacity:1" id="stop5092" offset="0"/><stop style="stop-color:#fff;stop-opacity:0" id="stop5094" offset="1"/></linearGradient><linearGradient id="linearGradient5080"><stop style="stop-color:#fff;stop-opacity:1" id="stop5082" offset="0"/><stop style="stop-color:#fff;stop-opacity:0" id="stop5084" offset="1"/></linearGradient><linearGradient id="linearGradient5044"><stop style="stop-color:#e81c24;stop-opacity:1" id="stop5046" offset="0"/><stop style="stop-color:#7c1315;stop-opacity:1" id="stop5048" offset="1"/></linearGradient><linearGradient id="linearGradient2890" x1="16.371" x2="43.507" y1="14.877" y2="33.664" gradientUnits="userSpaceOnUse" xlink:href="#XMLID_25_"/><linearGradient id="linearGradient2892" x1="16.371" x2="43.507" y1="14.877" y2="33.664" gradientUnits="userSpaceOnUse" xlink:href="#XMLID_25_"/><radialGradient id="XMLID_15_" cx="49.904" cy="47.092" r="30.084" fx="49.904" fy="47.092" gradientTransform="matrix(0.3749,0,0,0.375,14.9959,15)" gradientUnits="userSpaceOnUse"><stop id="stop555" offset="0" style="stop-color:#fbfd4a;stop-opacity:1"/><stop id="stop556" offset="1" style="stop-color:#ff3600;stop-opacity:1"/></radialGradient><linearGradient id="XMLID_16_" x1="33.705" x2="33.705" y1="29.923" y2="40.927" gradientUnits="userSpaceOnUse"><stop id="stop562" offset="0" style="stop-color:#ffc842;stop-opacity:1"/><stop id="stop563" offset="1" style="stop-color:#ffc842;stop-opacity:1"/></linearGradient><linearGradient id="XMLID_17_" x1="43.617" x2="36.869" y1="24.517" y2="29.578" gradientUnits="userSpaceOnUse"><stop id="stop569" offset="0" style="stop-color:#ffc842;stop-opacity:1"/><stop id="stop570" offset="1" style="stop-color:#000"/></linearGradient><linearGradient id="XMLID_18_" x1="-12.502" x2="15.653" y1="-47.087" y2="-47.087" gradientTransform="matrix(0.9573,0.289,-0.289,0.9573,14.7332,63.9165)" gradientUnits="userSpaceOnUse"><stop id="stop578" offset="0" style="stop-color:#888"/><stop id="stop579" offset="1" style="stop-color:#555"/></linearGradient><linearGradient id="XMLID_19_" x1="-4.256" x2="27.521" y1="-52.919" y2="-21.141" gradientTransform="matrix(0.9573,0.289,-0.289,0.9573,14.7332,63.9165)" gradientUnits="userSpaceOnUse"><stop id="stop586" offset="0" style="stop-color:#fff"/><stop id="stop587" offset="1" style="stop-color:#fbf885;stop-opacity:1"/></linearGradient><radialGradient id="XMLID_20_" cx="16.352" cy="37.996" r="49.415" fx="16.352" fy="37.996" gradientTransform="matrix(0.3749,0,0,0.375,14.9959,15)" gradientUnits="userSpaceOnUse"><stop id="stop594" offset="0" style="stop-color:#fbfd4a;stop-opacity:1"/><stop id="stop595" offset="1" style="stop-color:#ff3600;stop-opacity:1"/></radialGradient><radialGradient id="XMLID_21_" cx="38.168" cy="18.062" r="90.268" fx="38.168" fy="18.062" gradientTransform="matrix(0.3714,-0.0512,0.0511,0.3715,13.2666,17.0873)" gradientUnits="userSpaceOnUse"><stop id="stop602" offset="0" style="stop-color:#fbf885;stop-opacity:1"/><stop id="stop603" offset=".5" style="stop-color:#ffc842;stop-opacity:1"/><stop id="stop604" offset="1" style="stop-color:#ff8119;stop-opacity:1"/></radialGradient><linearGradient id="XMLID_22_" x1="9.663" x2="9.663" y1="14.929" y2="11.929" gradientTransform="matrix(0.9907,-0.1364,0.1364,0.9907,-4.6134,5.5667)" gradientUnits="userSpaceOnUse"><stop id="stop612" offset="0" style="stop-color:#ffc842;stop-opacity:1"/><stop id="stop613" offset=".055" style="stop-color:#ffdd57;stop-opacity:1"/><stop id="stop614" offset=".344" style="stop-color:#fde059;stop-opacity:1"/><stop id="stop615" offset=".608" style="stop-color:#fbe865;stop-opacity:1"/><stop id="stop616" offset=".835" style="stop-color:#faea66;stop-opacity:1"/><stop id="stop617" offset="1" style="stop-color:#fbf885;stop-opacity:1"/></linearGradient><linearGradient id="XMLID_23_" x1="13.461" x2="29.054" y1="13.736" y2="34.062" gradientTransform="matrix(0.9907,-0.1364,0.1364,0.9907,-4.6134,5.5667)" gradientUnits="userSpaceOnUse"><stop id="stop623" offset="0" style="stop-color:#fff"/><stop id="stop624" offset="1" style="stop-color:#f8ff51;stop-opacity:1"/></linearGradient><linearGradient id="XMLID_24_" x1="24.747" x2="49.274" y1="19.907" y2="44.434" gradientUnits="userSpaceOnUse"><stop id="stop632" offset="0" style="stop-color:#fff"/><stop id="stop633" offset="1" style="stop-color:#f9ff4d;stop-opacity:1"/></linearGradient><linearGradient id="XMLID_25_" x1="16.371" x2="43.507" y1="14.877" y2="33.664" gradientUnits="userSpaceOnUse"><stop id="stop639" offset="0" style="stop-color:#ffc842;stop-opacity:1"/><stop id="stop640" offset="1" style="stop-color:#d34900;stop-opacity:1"/></linearGradient><linearGradient id="XMLID_27_" x1="12.403" x2="40.508" y1="26.704" y2="26.704" gradientUnits="userSpaceOnUse"><stop id="stop647" offset="0" style="stop-color:#888"/><stop id="stop648" offset="1" style="stop-color:#555"/></linearGradient><linearGradient id="XMLID_28_" x1="41.545" x2="36.144" y1="40.628" y2="36.65" gradientUnits="userSpaceOnUse"><stop id="stop655" offset="0" style="stop-color:#ffff7e;stop-opacity:1"/><stop id="stop656" offset="1" style="stop-color:#ff9e00;stop-opacity:1"/></linearGradient><linearGradient id="linearGradient2957" x1="13.461" x2="29.054" y1="13.736" y2="34.062" gradientTransform="matrix(2.5950301,-0.35728485,0.35728485,2.5950301,-11.83129,3.1216105)" gradientUnits="userSpaceOnUse" xlink:href="#XMLID_23_"/><linearGradient id="linearGradient2960" x1="9.663" x2="9.663" y1="14.929" y2="11.929" gradientTransform="matrix(2.5950301,-0.35728485,0.35728485,2.5950301,-11.83129,3.1216105)" gradientUnits="userSpaceOnUse" xlink:href="#XMLID_22_"/><radialGradient id="radialGradient2963" cx="38.168" cy="18.062" r="90.268" fx="38.168" fy="18.062" gradientTransform="matrix(0.97284159,-0.13411279,0.13385085,0.97310353,35.003411,33.29856)" gradientUnits="userSpaceOnUse" xlink:href="#XMLID_21_"/><radialGradient id="radialGradient2967" cx="16.352" cy="37.996" r="49.415" fx="16.352" fy="37.996" gradientTransform="matrix(0.98200946,0,0,0.9822714,39.533123,27.831106)" gradientUnits="userSpaceOnUse" xlink:href="#XMLID_20_"/><linearGradient id="linearGradient2980" x1="43.617" x2="36.869" y1="24.517" y2="29.578" gradientTransform="matrix(2.6193904,0,0,2.6193904,0.25300607,-11.45975)" gradientUnits="userSpaceOnUse" xlink:href="#XMLID_17_"/><linearGradient id="linearGradient2983" x1="33.705" x2="33.705" y1="29.923" y2="40.927" gradientTransform="matrix(2.6193904,0,0,2.6193904,0.25300607,-11.45975)" gradientUnits="userSpaceOnUse" xlink:href="#XMLID_16_"/><radialGradient id="radialGradient2986" cx="49.904" cy="47.092" r="30.084" fx="49.904" fy="47.092" gradientTransform="matrix(0.98200946,0,0,0.9822714,39.533123,27.831106)" gradientUnits="userSpaceOnUse" xlink:href="#XMLID_15_"/><linearGradient id="linearGradient44699"><stop style="stop-color:#000173;stop-opacity:.93333334" id="stop44701" offset="0"/><stop style="stop-color:#3575f0;stop-opacity:1" id="stop44703" offset="1"/></linearGradient><linearGradient id="linearGradient44693"><stop style="stop-color:#3690e6;stop-opacity:1" id="stop44695" offset="0"/><stop style="stop-color:#d0e9ff;stop-opacity:1" id="stop44697" offset="1"/></linearGradient><linearGradient id="linearGradient44681"><stop style="stop-color:#ff5c38;stop-opacity:1" id="stop44683" offset="0"/><stop style="stop-color:#fb7e65;stop-opacity:.99607843" id="stop44685" offset=".304"/><stop style="stop-color:#cd0000;stop-opacity:.98039216" id="stop44687" offset="1"/></linearGradient><linearGradient id="linearGradient44627"><stop style="stop-color:#fffcfb;stop-opacity:1" id="stop44629" offset="0"/><stop style="stop-color:#f4ad94;stop-opacity:1" id="stop44633" offset="1"/></linearGradient><linearGradient id="linearGradient44615"><stop style="stop-color:#2f68fa;stop-opacity:1" id="stop44617" offset="0"/><stop style="stop-color:#c7d5fb;stop-opacity:1" id="stop44619" offset="1"/></linearGradient><linearGradient id="linearGradient44605"><stop style="stop-color:#d0ecff;stop-opacity:1" id="stop44607" offset="0"/><stop style="stop-color:#d7f0ff;stop-opacity:1" id="stop44609" offset=".5"/><stop style="stop-color:#fff;stop-opacity:1" id="stop44611" offset="1"/></linearGradient><linearGradient id="linearGradient44090"><stop style="stop-color:#0926bb;stop-opacity:1" id="stop44092" offset="0"/><stop style="stop-color:#6bb5fe;stop-opacity:1" id="stop44094" offset="1"/></linearGradient><linearGradient id="linearGradient44080"><stop style="stop-color:#2c8300;stop-opacity:1" id="stop44082" offset="0"/><stop style="stop-color:#57aeff;stop-opacity:1" id="stop44084" offset=".25"/><stop style="stop-color:#fff;stop-opacity:1" id="stop44086" offset=".5"/><stop style="stop-color:#5aafff;stop-opacity:1" id="stop44088" offset="1"/></linearGradient><filter id="filter3297"><feGaussianBlur id="feGaussianBlur3299" stdDeviation=".267"/></filter><filter id="filter3293"><feGaussianBlur id="feGaussianBlur3295" stdDeviation=".355"/></filter><linearGradient id="linearGradient3219"><stop style="stop-color:#0e7309;stop-opacity:1" id="stop3221" offset="0"/><stop style="stop-color:#70d13e;stop-opacity:1" id="stop3223" offset="1"/></linearGradient><radialGradient id="radialGradient44048" cx="53.602" cy="59.729" r="17.834" fx="53.602" fy="59.729" gradientTransform="matrix(0,1.655849,-1.6391884,0,152.15006,-32.923726)" gradientUnits="userSpaceOnUse" xlink:href="#linearGradient44627"/><radialGradient id="radialGradient44061" cx="479.683" cy="709.658" r="5.006" fx="479.683" fy="709.658" gradientTransform="matrix(0.856113,-0.0637264,0.1161478,1.5603521,-743.30707,-121.7687)" gradientUnits="userSpaceOnUse" xlink:href="#linearGradient44605"/><linearGradient id="linearGradient44067" x1="517.022" x2="517.022" y1="705.484" y2="745.301" gradientTransform="matrix(-1,0,0,1,253.42404,245.75912)" gradientUnits="userSpaceOnUse" xlink:href="#linearGradient44090"/><linearGradient id="linearGradient44070" x1="517.022" x2="517.022" y1="705.484" y2="745.301" gradientTransform="translate(-730.02214,245.75912)" gradientUnits="userSpaceOnUse" xlink:href="#linearGradient44090"/><radialGradient id="radialGradient44073" cx="491.522" cy="670.925" r="36.427" fx="491.522" fy="670.925" gradientTransform="matrix(0,2.0237831,-1.9580539,0,1075.328,-66.735647)" gradientUnits="userSpaceOnUse" xlink:href="#linearGradient44080"/><linearGradient id="linearGradient44076" x1="83.281" x2="83.281" y1="123.098" y2="66.311" gradientTransform="translate(-282.47353,882.69271)" gradientUnits="userSpaceOnUse" xlink:href="#linearGradient44699"/><linearGradient id="linearGradient44613" x1="-246.577" x2="-248.777" y1="958.08" y2="964.617" gradientUnits="userSpaceOnUse" xlink:href="#linearGradient44615"/><linearGradient id="linearGradient44625" x1="-246.577" x2="-248.777" y1="958.08" y2="964.617" gradientTransform="matrix(-1,0,0,1,-476.93424,0)" gradientUnits="userSpaceOnUse" xlink:href="#linearGradient44615"/><linearGradient id="linearGradient44667" x1="517.022" x2="517.022" y1="705.484" y2="745.301" gradientTransform="translate(-772.48144,227.87334)" gradientUnits="userSpaceOnUse" xlink:href="#linearGradient3219"/><linearGradient id="linearGradient44677" x1="60.127" x2="60.127" y1="81.914" y2="47.543" gradientUnits="userSpaceOnUse" xlink:href="#linearGradient44681"/><linearGradient id="linearGradient44691" x1="-35.567" x2="-35.567" y1="76.563" y2="84.91" gradientUnits="userSpaceOnUse" xlink:href="#linearGradient44693"/><linearGradient id="linearGradient3510"><stop style="stop-color:#fff;stop-opacity:1" id="stop3512" offset="0"/><stop style="stop-color:#fff;stop-opacity:0" id="stop3514" offset="1"/></linearGradient><linearGradient id="linearGradient3498"><stop style="stop-color:#3465a4;stop-opacity:1" id="stop3500" offset="0"/><stop style="stop-color:#3465a4;stop-opacity:0" id="stop3502" offset="1"/></linearGradient><linearGradient id="linearGradient4099"><stop style="stop-color:#6f726f;stop-opacity:1" id="stop4101" offset="0"/><stop style="stop-color:#6f726f;stop-opacity:0" id="stop4103" offset="1"/></linearGradient><linearGradient id="linearGradient4068"><stop style="stop-color:#eaeae9;stop-opacity:1" id="stop4070" offset="0"/><stop style="stop-color:#a5a7a2;stop-opacity:1" id="stop4072" offset="1"/></linearGradient><linearGradient id="linearGradient3670"><stop style="stop-color:#d3d7cf" id="stop3672" offset="0"/><stop style="stop-color:#555753" id="stop3674" offset="1"/></linearGradient><radialGradient id="radialGradient3634" cx="6.88" cy="7.199" r="9.375" fx="6.88" fy="7.199" gradientTransform="matrix(1.240749,0,0,1.157631,-1.713645,-1.134736)" gradientUnits="userSpaceOnUse" xlink:href="#linearGradient3670"/><linearGradient id="linearGradient3692"><stop style="stop-color:#2e3436;stop-opacity:1" id="stop3694" offset="0"/><stop style="stop-color:#babdb6" id="stop3696" offset="1"/></linearGradient><linearGradient id="linearGradient3698" x1="-.52" x2="-.52" y1="-.52" y2="19.27" gradientUnits="userSpaceOnUse" xlink:href="#linearGradient3692"/><radialGradient id="radialGradient3644" cx="12.705" cy="13.847" r="9.375" fx="12.705" fy="13.847" gradientTransform="matrix(0.06370852,-1.424475,1.547293,0.0692112,-9.530629,30.98681)" gradientUnits="userSpaceOnUse" xlink:href="#linearGradient3670"/><linearGradient id="linearGradient3730"><stop style="stop-color:#eeeeec" id="stop3732" offset="0"/><stop style="stop-color:#888a85" id="stop3734" offset="1"/></linearGradient><radialGradient id="radialGradient3728" cx="-1.002" cy=".99" r="9.921" fx="-1.002" fy=".99" gradientTransform="matrix(-0.310032,2.110862,-2.082775,-0.305867,17.75288,16.41459)" gradientUnits="userSpaceOnUse" xlink:href="#linearGradient3730"/><linearGradient id="linearGradient1557"><stop style="stop-color:#2e3436;stop-opacity:1" id="stop1559" offset="0"/><stop style="stop-color:#888a85" id="stop1561" offset="1"/></linearGradient><linearGradient id="linearGradient1549" x1="17.063" x2="20.313" y1="34.95" y2="5.375" gradientUnits="userSpaceOnUse" xlink:href="#linearGradient1557"/><linearGradient id="linearGradient3676"><stop style="stop-color:#eeeeec" id="stop4022" offset="0"/><stop style="stop-color:#555753" id="stop3680" offset="1"/></linearGradient><radialGradient id="radialGradient3702" cx="-1.002" cy=".99" r="9.921" fx="-1.002" fy=".99" gradientTransform="matrix(-0.127582,1.416065,-1.630141,-0.146854,17.48751,15.56121)" gradientUnits="userSpaceOnUse" xlink:href="#linearGradient3676"/><linearGradient id="linearGradient3788"><stop style="stop-color:#cccdcb;stop-opacity:1" id="stop3790" offset="0"/><stop style="stop-color:#888a85;stop-opacity:1" id="stop3792" offset="1"/></linearGradient><linearGradient id="linearGradient3657"><stop style="stop-color:#fafafa;stop-opacity:1" id="stop3659" offset="0"/><stop style="stop-color:#bfbfbf;stop-opacity:1" id="stop3661" offset="1"/></linearGradient><linearGradient id="linearGradient3609"><stop style="stop-color:#000;stop-opacity:1" id="stop3611" offset="0"/><stop style="stop-color:#000;stop-opacity:0" id="stop3613" offset="1"/></linearGradient><linearGradient id="linearGradient4585" x1="56.303" x2="56.609" y1="4.937" y2="8.68" gradientTransform="matrix(4.4611255,0,0,4.4611255,-215.94246,23.775709)" gradientUnits="userSpaceOnUse" xlink:href="#linearGradient4608"/><linearGradient id="linearGradient4641" x1="58.016" x2="57.954" y1="35.015" y2="40.999" gradientTransform="matrix(0.997993,0,0,1,-97.71685,-9.352993)" gradientUnits="userSpaceOnUse" spreadMethod="reflect" xlink:href="#linearGradient4608"/><linearGradient id="linearGradient4608"><stop style="stop-color:#eeeeec" id="stop4610" offset="0"/><stop style="stop-color:#8a8c87;stop-opacity:1" id="stop4612" offset="1"/></linearGradient><radialGradient id="radialGradient3615" cx="6.408" cy="17.404" r="5.524" fx="6.408" fy="17.404" gradientTransform="matrix(7.3143547,0,0,3.989648,-5.4983517,12.909402)" gradientUnits="userSpaceOnUse" xlink:href="#linearGradient3609"/><linearGradient id="linearGradient3668" x1="10.438" x2="10.438" y1="8.29" y2="18.985" gradientTransform="translate(-64.70027,0)" gradientUnits="userSpaceOnUse" xlink:href="#linearGradient3657"/><radialGradient id="radialGradient3680" cx="5.082" cy="12.516" r="2.983" fx="5.082" fy="12.516" gradientTransform="matrix(3.8458078,0,-3.7315016e-8,4.4587336,6.5267879,12.165891)" gradientUnits="userSpaceOnUse" xlink:href="#linearGradient3510"/><linearGradient id="linearGradient3794" x1="8.054" x2="10.438" y1="11.03" y2="11.03" gradientTransform="translate(-64.70027,0)" gradientUnits="userSpaceOnUse" xlink:href="#linearGradient3788"/><linearGradient id="linearGradient4095" x1="7.576" x2="7.322" y1="20.302" y2="27.345" gradientUnits="userSpaceOnUse" xlink:href="#linearGradient4068"/><linearGradient id="linearGradient4105" x1="11.126" x2="9.347" y1="25.56" y2="25.737" gradientTransform="matrix(3.267068,0,0,3.267068,-5.8152962,-21.586126)" gradientUnits="userSpaceOnUse" xlink:href="#linearGradient4099"/><linearGradient id="linearGradient3287" x1="4.683" x2="8.371" y1="24.665" y2="24.317" gradientUnits="userSpaceOnUse" xlink:href="#linearGradient3510"/><radialGradient id="radialGradient3504" cx="36.828" cy="24.428" r="1.24" fx="36.828" fy="24.428" gradientTransform="matrix(33.771851,-1.0380269e-5,1.7219594e-5,56.02335,-1144.2052,-1310.0735)" gradientUnits="userSpaceOnUse" xlink:href="#linearGradient3498"/><radialGradient id="radialGradient3506" cx="36.828" cy="24.428" r="1.24" fx="36.828" fy="24.428" gradientTransform="matrix(53.169249,0,0,56.023199,-1858.5804,-1310.0705)" gradientUnits="userSpaceOnUse" xlink:href="#linearGradient3498"/><radialGradient id="radialGradient3508" cx="36.828" cy="24.428" r="1.24" fx="36.828" fy="24.428" gradientTransform="matrix(33.771851,-1.0380269e-5,1.7219594e-5,56.02335,-1144.2052,-1310.0735)" gradientUnits="userSpaceOnUse" xlink:href="#linearGradient3498"/><linearGradient id="linearGradient3516" x1="9.486" x2="7.378" y1="22.108" y2="22.638" gradientTransform="matrix(2.5205338,0,0,2.5205338,6.7325386,-3.1243099)" gradientUnits="userSpaceOnUse" xlink:href="#linearGradient3510"/><filter id="filter5198"><feGaussianBlur id="feGaussianBlur5200" stdDeviation="1.124"/></filter><linearGradient id="linearGradient5613" x1="64" x2="64" y1="-1.178" y2="99.458" gradientTransform="matrix(0.45718256,0,0,0.45718256,-125.85122,67.08849)" gradientUnits="userSpaceOnUse" xlink:href="#XMLID_4_"/><linearGradient id="XMLID_4_" x1="64" x2="64" y1="-1.178" y2="99.458" gradientTransform="matrix(-1,0,0,-1,128,128)" gradientUnits="userSpaceOnUse"><stop style="stop-color:#0053bd;stop-opacity:1" id="stop105" offset="0"/><stop style="stop-color:#00008d;stop-opacity:1" id="stop107" offset="1"/><midPointStop id="midPointStop109" offset="0" style="stop-color:#00008d"/><midPointStop id="midPointStop111" offset=".5" style="stop-color:#00008d"/><midPointStop id="midPointStop113" offset="1" style="stop-color:#0053bd"/></linearGradient><radialGradient id="radialGradient5615" cx="323.325" cy="388.165" r="49.622" fx="323.325" fy="388.165" gradientTransform="matrix(-0.95919902,0.62734453,-0.48564594,-0.74254472,390.95468,162.6776)" gradientUnits="userSpaceOnUse" xlink:href="#radialGradient4602"/><radialGradient id="radialGradient4602" cx="27.576" cy="107.817" r="115.483" fx="27.576" fy="107.817" gradientTransform="matrix(1,0,0,1.0565,0,-0.544571)" gradientUnits="userSpaceOnUse"><stop style="stop-color:#fff;stop-opacity:1" id="stop4604" offset="0"/><stop style="stop-color:#def;stop-opacity:1" id="stop4606" offset=".057"/><stop style="stop-color:#b5daff;stop-opacity:1" id="stop4608" offset=".133"/><stop style="stop-color:#9dceff;stop-opacity:1" id="stop4610-6" offset=".193"/><stop style="stop-color:#94caff;stop-opacity:1" id="stop4612-8" offset=".23"/><stop style="stop-color:#0b74ff;stop-opacity:1" id="stop4614" offset=".596"/><stop style="stop-color:#0035ed;stop-opacity:1" id="stop4616" offset=".815"/><midPointStop id="midPointStop134" offset="0" style="stop-color:#fff"/><midPointStop id="midPointStop136" offset=".4" style="stop-color:#fff"/><midPointStop id="midPointStop138" offset=".23" style="stop-color:#94caff"/><midPointStop id="midPointStop140" offset=".5" style="stop-color:#94caff"/><midPointStop id="midPointStop142" offset=".596" style="stop-color:#0b74ff"/><midPointStop id="midPointStop144" offset=".5" style="stop-color:#0b74ff"/><midPointStop id="midPointStop146" offset=".815" style="stop-color:#0035ed"/></radialGradient><linearGradient id="linearGradient5617" x1="62.342" x2="62.342" y1="16.279" y2="63.596" gradientTransform="matrix(0.45718256,0,0,-0.45718256,-124.33546,125.60786)" gradientUnits="userSpaceOnUse" xlink:href="#linearGradient4619"/><linearGradient id="linearGradient4619" x1="62.342" x2="62.342" y1="8.826" y2="61.277" gradientUnits="userSpaceOnUse"><stop style="stop-color:#fff;stop-opacity:1" id="stop4621" offset="0"/><stop style="stop-color:#74aeff;stop-opacity:1" id="stop4623" offset="1"/><midPointStop id="midPointStop157" offset="0" style="stop-color:#fff"/><midPointStop id="midPointStop159" offset=".5" style="stop-color:#fff"/><midPointStop id="midPointStop161" offset="1" style="stop-color:#74aeff"/></linearGradient><linearGradient id="linearGradient5376"><stop style="stop-color:#e7e7e7;stop-opacity:1" id="stop5384" offset="0"/><stop id="stop5380" offset="1" style="stop-color:#fff;stop-opacity:1"/></linearGradient><linearGradient id="linearGradient5360"><stop id="stop5362" offset="0" style="stop-color:#fff;stop-opacity:1"/><stop id="stop5364" offset="1" style="stop-color:#e7e7e7;stop-opacity:1"/></linearGradient><linearGradient id="linearGradient5352"><stop id="stop5354" offset="0" style="stop-color:#4e111d;stop-opacity:1"/><stop id="stop5356" offset="1" style="stop-color:#8f1a1e;stop-opacity:1"/></linearGradient><linearGradient id="linearGradient5328"><stop id="stop5330" offset="0" style="stop-color:#7c1315;stop-opacity:1"/><stop id="stop5332" offset="1" style="stop-color:#e81c24;stop-opacity:1"/></linearGradient><linearGradient id="linearGradient5320"><stop id="stop5322" offset="0" style="stop-color:#e5e5e5;stop-opacity:1"/><stop id="stop5324" offset="1" style="stop-color:#fff;stop-opacity:1"/></linearGradient><linearGradient id="linearGradient5314" osb:paint="solid"><stop id="stop5316" offset="0" style="stop-color:#ededed;stop-opacity:1"/></linearGradient><linearGradient id="linearGradient5326-4" x1="-95.114" x2="421.451" y1="101.635" y2="101.635" gradientTransform="translate(345.06811,407.2935)" gradientUnits="userSpaceOnUse" xlink:href="#linearGradient5320"/><radialGradient id="radialGradient5050" cx="-53.632" cy="107.746" r="23.494" fx="-53.632" fy="107.746" gradientUnits="userSpaceOnUse" xlink:href="#linearGradient5044"/><linearGradient id="linearGradient5074" x1="-95.114" x2="421.451" y1="101.635" y2="101.635" gradientTransform="matrix(0.06488314,0,0,0.06488314,-113.61549,137.56463)" gradientUnits="userSpaceOnUse" xlink:href="#linearGradient5320"/><linearGradient id="linearGradient5086" x1="-53.587" x2="-53.587" y1="65.125" y2="104.904" gradientTransform="matrix(1.0478566,0,0,1.0518544,2.5952766,-5.5298226)" gradientUnits="userSpaceOnUse" xlink:href="#linearGradient5080"/><linearGradient id="linearGradient5096" x1="-50.877" x2="-49.257" y1="65.376" y2="102.48" gradientUnits="userSpaceOnUse" xlink:href="#linearGradient5090"/></defs><metadata id="metadata549"><xpacket id="xpacket6">begin=&apos; &apos; id=&apos;W5M0MpCehiHzreSzNTczkc9d&apos;</xpacket><x:xmpmeta x:xmptk="XMP toolkit 3.0-29, framework 1.6"><metadata id="metadata82"/></x:xmpmeta><xpacket id="xpacket8">end=&apos;w&apos;</xpacket></metadata><g id="g32583"><rect id="rect5157" width="128" height="128" x="0" y="0" style="opacity:0;fill:teal;fill-opacity:1;stroke:none;stroke-width:3;stroke-linecap:butt;stroke-linejoin:miter;stroke-miterlimit:4;stroke-dasharray:9,9;stroke-dashoffset:0;stroke-opacity:1"/><g id="g5138"><path id="path551" d="m 124.58237,53.456602 c -0.4322,-0.505542 -1.09228,-0.762242 -1.75499,-0.673183 L 105.91398,55.038714 102.108,27.38581 c -0.0891,-0.64699 -0.4322,-1.228494 -0.95084,-1.621403 -0.51864,-0.392909 -1.170864,-0.565788 -1.815234,-0.476729 0,0 -58.794837,8.096536 -63.308047,8.717331 -0.02358,-0.167641 -0.07596,-0.552691 -0.07596,-0.552691 -0.660089,-4.801343 -4.90874,-8.193453 -9.469099,-7.567419 L 11.870002,27.89921 c -2.1295639,0.293372 -4.0364801,1.41971 -5.3671304,3.174701 -1.1630094,1.534963 -1.7890437,3.460215 -1.7890437,5.419519 0,0.416483 0.028813,0.832966 0.08382,1.249449 l 0.8513019,6.173903 c 0,0 0.020955,0.125731 0.034052,0.188597 0.010477,0.08382 7.3683452,53.548198 7.3683452,53.548198 0.04977,0.356237 0.172879,0.694138 0.366714,0.992748 2.891807,4.502735 6.344164,8.541835 10.260152,12.004665 0.536975,0.47411 1.254688,0.69152 1.961924,0.5946 L 109.5785,99.686223 c 0.64437,-0.08906 1.2285,-0.42958 1.61879,-0.948219 0.0393,-0.04977 0.0602,-0.102156 0.0943,-0.154544 0.49245,-0.233126 0.8906,-0.652228 1.053,-1.197061 L 124.9648,55.300653 c 0.19646,-0.64437 0.0498,-1.335889 -0.38243,-1.844051 z" style="opacity:.2"/><path id="path552" d="m 123.93014,52.474331 c -0.4322,-0.508162 -1.09228,-0.762243 -1.75499,-0.673183 l -16.91602,2.255295 -3.80598,-27.652905 c -0.0864,-0.646989 -0.42958,-1.228494 -0.94822,-1.621402 -0.518634,-0.392909 -1.170863,-0.565789 -1.815233,-0.476729 0,0 -58.794837,8.096535 -63.308046,8.717331 -0.02358,-0.167641 -0.07596,-0.552692 -0.07596,-0.552692 -0.660086,-4.801342 -4.908737,-8.193453 -9.466477,-7.567418 l -14.621437,2.011691 c -2.1295641,0.293372 -4.0364803,1.41971 -5.3671306,3.174702 -1.1630094,1.534962 -1.7890437,3.460214 -1.7890437,5.419518 0,0.416483 0.028813,0.832966 0.08644,1.249449 l 0.8486825,6.173904 c 0,0 0.020955,0.12573 0.034052,0.188596 0.010478,0.08382 7.3683448,53.548198 7.3683448,53.548198 0.04977,0.356237 0.17288,0.694138 0.366715,0.992749 2.891807,4.502735 6.346783,8.541835 10.260152,12.004665 0.536975,0.47411 1.254688,0.69152 1.961924,0.5946 L 108.92627,98.701333 c 0.64438,-0.08906 1.2285,-0.42958 1.62141,-0.94822 0.0367,-0.04977 0.0576,-0.102156 0.0917,-0.154544 0.49244,-0.233125 0.89059,-0.652228 1.05299,-1.197061 l 12.62022,-42.085746 c 0.19646,-0.64175 0.0498,-1.333269 -0.38243,-1.841431 z" style="opacity:.2"/><path id="path553" d="m 122.94787,51.329657 c -0.4322,-0.508161 -1.09228,-0.762242 -1.75499,-0.673183 l -16.91602,2.257914 -3.80598,-27.658143 c -0.0864,-0.646989 -0.42958,-1.228494 -0.948217,-1.624022 -0.516019,-0.392908 -1.170867,-0.563169 -1.815237,-0.476729 0,0 -58.794837,8.099155 -63.305427,8.719951 -0.02358,-0.167641 -0.07596,-0.552692 -0.07596,-0.552692 -0.660086,-4.801342 -4.908737,-8.196072 -9.466477,-7.567418 l -14.618817,2.014311 c -2.1295647,0.293371 -4.0364809,1.419709 -5.3671313,3.174701 -1.1630093,1.534963 -1.7890436,3.457595 -1.7890436,5.419519 0,0.416483 0.028813,0.832966 0.08644,1.249449 l 0.8513019,6.173903 c 0,0 0.020955,0.125731 0.031433,0.185977 0.010478,0.08382 7.370964,53.548198 7.370964,53.548198 0.04977,0.353617 0.17288,0.694138 0.366715,0.995368 2.894426,4.497489 6.346783,8.536589 10.260152,12.002049 0.536975,0.47673 1.252069,0.69152 1.961923,0.5946 L 107.94924,97.55142 c 0.64437,-0.08644 1.2285,-0.42958 1.62141,-0.9456 0.0367,-0.04977 0.0602,-0.102156 0.0917,-0.154544 0.49245,-0.233125 0.8906,-0.652228 1.053,-1.197061 L 123.33554,53.16585 c 0.19122,-0.636512 0.0472,-1.33065 -0.38767,-1.836193 z" style="opacity:.2"/><path id="path560" d="m 120.21323,49.671583 -63.865979,8.518258 c -1.02942,0.136208 -1.770707,1.047756 -1.697364,2.085034 l 2.567002,36.417385 c 0.07596,1.071331 1.000607,1.885961 2.074557,1.823096 l 48.673514,-2.849897 c 0.82249,-0.05239 1.52972,-0.605079 1.76809,-1.396135 l 12.62022,-42.088365 c 0.19122,-0.639131 0.0498,-1.33065 -0.38505,-1.838812 -0.43482,-0.505542 -1.09491,-0.757004 -1.75499,-0.670564 z" style="fill:url(#radialGradient2986)"/><path id="path567" d="m 56.609191,60.138667 c 0.120491,1.707843 2.441271,34.625722 2.567002,36.417385 1.838812,-0.107395 47.366437,-2.773935 48.673517,-2.849897 0.37195,-1.236352 11.8213,-39.406109 12.62284,-42.085745 -2.83942,0.379811 -62.126704,8.285131 -63.863359,8.518257 z" style="fill:url(#linearGradient2983)"/><path id="path574" d="m 55.564054,61.746973 c 0.17288,2.464846 2.31816,32.889066 2.501518,35.477023 2.682255,-0.159782 45.931008,-2.690113 47.848408,-2.802747 0.53435,-1.791663 11.14812,-37.171769 12.30327,-41.027512 -4.13078,0.550072 -60.115007,8.012715 -62.653196,8.353236 z" style="opacity:.5;fill:url(#linearGradient2980)"/><path id="path599" d="m 96.722535,22.175842 c 0,0 -58.794837,8.099155 -63.305427,8.719951 -0.02358,-0.167641 -0.07596,-0.552692 -0.07596,-0.552692 -0.660087,-4.801342 -4.908738,-8.196072 -9.466477,-7.567418 L 9.2558509,24.789994 c -2.1321838,0.290752 -4.0364806,1.41709 -5.367131,3.172082 -1.1630093,1.534962 -1.791663,3.457595 -1.791663,5.419518 0,0.416483 0.028813,0.832966 0.08644,1.249449 l 0.8513019,6.173904 c 0,0 0.020955,0.12573 0.031433,0.185976 0.010477,0.08382 7.3709642,53.548198 7.3709642,53.548198 0.04977,0.353618 0.17288,0.694139 0.366715,0.995369 2.894426,4.49749 6.346783,8.53659 10.260152,12.00205 0.536975,0.47673 1.252068,0.69152 1.961923,0.5946 L 106.96173,96.569149 c 0.64437,-0.08644 1.2285,-0.42958 1.6214,-0.9456 0.39291,-0.518639 0.56579,-1.173487 0.47673,-1.817857 L 99.488611,24.276593 c -0.08644,-0.646989 -0.42958,-1.228494 -0.9456,-1.624022 -0.521258,-0.392908 -1.176106,-0.565788 -1.820476,-0.476729 z" style="fill:url(#radialGradient2967)"/><path id="path600" d="m 103.4177,27.220788 c -0.0891,-0.646989 -0.42958,-1.228494 -0.94822,-1.624022 -0.51864,-0.392909 -1.17087,-0.563169 -1.81524,-0.476729 0,0 -36.52478,5.02923 -54.205665,7.465263 L 36.363922,66.006102 c -0.392908,1.296598 0.34576,2.674397 1.642358,3.064686 l 59.161551,17.864243 c 1.296599,0.38767 2.671779,-0.34576 3.062069,-1.644977 l 7.68267,-25.447378 -4.49487,-32.621888 z" style="opacity:.1"/><path id="path610" d="M 97.057817,24.609256 31.318976,33.661869 30.907732,30.675764 C 30.431003,27.21031 27.429181,24.76118 24.207331,25.206477 L 9.5885135,27.220788 c -3.2218502,0.442677 -5.4509515,3.612139 -4.971603,7.077593 l 0.8486825,6.173903 c 0.00524,0.04977 0.018336,0.09692 0.026194,0.146686 l 7.376203,53.587489 c 2.737263,4.259129 6.053411,8.156781 9.822714,11.493881 L 106.62645,94.140974 97.057817,24.609256 Z" style="fill:url(#radialGradient2963)"/><path id="path621" d="m 9.7902065,28.679788 c -2.4124585,0.332663 -4.0810102,2.763457 -3.7142956,5.4169 l 0.8513019,6.173903 c 0.3640953,2.653442 2.6246292,4.542023 5.0397072,4.20936 L 26.585738,42.46564 c 2.415078,-0.330043 4.08101,-2.760837 3.714295,-5.416899 l -0.848682,-6.173903 c -0.366715,-2.653443 -2.627249,-4.542023 -5.039707,-4.21198 l -14.6214375,2.01693 z" style="fill:url(#linearGradient2960)"/><path id="path628" d="m 6.6914677,38.539174 c 0.2881329,2.090273 5.4352353,39.492549 7.7455373,56.264506 0.502923,0.670564 1.021562,1.325411 1.553299,1.969781 C 16.131751,86.526406 20.333253,75.972882 28.76769,70.165694 41.841067,60.720172 57.85864,61.856987 73.100872,57.369972 85.608462,53.42517 94.404375,41.962717 96.264142,29.648963 96.007442,27.797054 95.845039,26.597373 95.79789,26.269949 93.018717,26.65238 9.4758797,38.156743 6.6914677,38.539174 Z" style="opacity:.8;fill:url(#linearGradient2957)"/><path id="path629" d="M 24.34092,26.178271 9.7221024,28.192582 c -2.415078,0.332662 -4.0810103,2.763457 -3.7142956,5.416899 L 6.277604,35.555688 C 5.9108893,32.902246 7.579441,30.471452 9.9918996,30.138789 L 24.610717,28.124478 c 2.412459,-0.332663 4.675612,1.555918 5.039708,4.20936 l -0.269798,-1.946207 c -0.364095,-2.653442 -2.624629,-4.542023 -5.039707,-4.20936 z" style="fill:#fff"/><path id="path630" d="m 6.3195142,38.109594 7.6983888,55.942321 c 0.571027,0.777959 1.165628,1.534962 1.781185,2.281489 L 8.7110177,44.820472 C 8.2892958,41.763644 10.500061,38.932083 13.648569,38.499883 L 95.166617,27.273176 c 0.306469,-0.04191 0.610318,-0.05239 0.914167,-0.04977 L 95.881711,25.774885 6.3195142,38.109594 Z" style="fill:#fff"/><polygon id="polygon653" points="31.627 42.053 41.232 40.73 39.817 30.447 38.722 32.001" transform="matrix(2.6193904,0,0,2.6193904,0.25300607,-11.45975)" style="fill:#ff3600;fill-opacity:1"/><polygon id="polygon660" points="40.388 40.089 39.334 32.434 33.236 41.074" transform="matrix(2.6193904,0,0,2.6193904,0.25300607,-11.45975)" style="fill:url(#XMLID_28_)"/><path id="path661" d="m 102.72094,79.006136 c -0.10478,-0.764862 -0.20169,-1.482575 -0.29075,-2.126945 -2.89443,4.136018 -9.741516,13.914202 -12.405436,17.725415 0.591982,-0.0812 1.257307,-0.17288 1.969781,-0.272417 2.747741,-3.929085 7.82412,-11.176938 10.726405,-15.326053 z" style="fill:#fff"/><polyline style="fill:none" id="_x3C_Slice_x3E_" points="0 48 0 0 47.987 0 47.987 48" transform="translate(0,54.4)"/></g><g id="g5115" transform="matrix(1.2448276,0,0,1.2448276,98.435087,-38.357536)"><circle style="opacity:1;fill:url(#radialGradient5050);fill-opacity:1;stroke:none;stroke-width:3;stroke-linecap:butt;stroke-linejoin:miter;stroke-miterlimit:4;stroke-dasharray:9,9;stroke-dashoffset:0;stroke-opacity:1" id="path5042" cx="-53.632" cy="107.746" r="23.494"/><path style="fill:#7e1315;fill-opacity:1;stroke:none" id="path5112" d="m -89.152344,117.74219 c -1.071503,0 -2.591295,0.27774 -3.779297,0.66992 -2.384829,0.78724 -4.505532,2.29943 -5.86914,4.20703 -1.489019,2.08303 -2.458489,3.97089 -3.593749,6.98828 -1.69072,4.49378 -2.66892,6.30174 -4.11524,7.74805 -1.2537,1.2537 -1.9825,1.58468 -3.96289,1.7832 l -0.42578,0.043 a 0.62637501,0.62637501 0 0 0 -0.56445,0.62305 l 0,0.13476 a 0.62637501,0.62637501 0 0 0 -0.008,0.0899 l 0,2.48828 0,2.48828 a 0.62637501,0.62637501 0 0 0 0.006,0.0742 l 0,0.21484 a 0.62637501,0.62637501 0 0 0 0.62695,0.62696 l 0.45703,0 c 0.31967,-2.6e-4 0.83757,-0.044 1.26367,-0.0977 3.71064,-0.46747 6.48565,-2.05838 8.4961,-4.89649 1.03003,-1.45403 2.064107,-3.30253 2.953121,-5.26757 l 0.175781,-0.38672 2.701172,-0.0137 3.101563,-0.0156 a 0.62637501,0.62637501 0 0 0 0.623047,-0.62695 l 0,-0.47071 a 0.62637501,0.62637501 0 0 0 0.002,-0.0449 l 0,-2.52734 0,-2.52539 a 0.62637501,0.62637501 0 0 0 -0.626953,-0.62695 l -2.023438,0 c -0.48943,0 -0.464558,-0.007 -0.748047,-0.0137 0.79754,-1.33126 1.843884,-2.60328 2.634766,-3.0664 0.80686,-0.47248 1.610729,-0.72213 2.667969,-0.81446 l 0.427734,-0.0371 a 0.62637501,0.62637501 0 0 0 0.572266,-0.62304 l 0,-0.47071 a 0.62637501,0.62637501 0 0 0 0.002,-0.0449 l 0,-2.49023 0,-2.49219 a 0.62637501,0.62637501 0 0 0 -0.626953,-0.62695 l -0.367188,0 z" transform="matrix(1.0052128,0,0,0.99281266,46.059318,-22.667673)"/><g id="g5066" transform="matrix(0.65791357,0,0,0.65791357,13.565029,13.355421)"><path style="fill:#7e1315;fill-opacity:1;stroke:none" id="path5068" d="m -119.77835,160.88707 0,-3.78222 0.64825,-0.065 c 3.11539,-0.3123 4.60521,-0.98529 6.60243,-2.98251 2.32944,-2.32944 3.88935,-5.24917 6.47232,-12.11441 1.70915,-4.54273 3.12595,-7.30069 5.34567,-10.40592 1.937374,-2.71026 5.007586,-4.9065 8.445503,-6.04138 1.693917,-0.55917 3.998073,-0.96922 5.446362,-0.96922 l 0.555861,0 0,3.78577 0,3.78576 -0.648241,0.0566 c -1.717956,0.14999 -3.110381,0.57615 -4.454773,1.3634 -1.788309,1.0472 -3.984739,3.73545 -5.219907,6.38872 -0.428611,0.92072 -0.665078,0.84977 2.832149,0.84977 l 3.073138,0 0,3.84051 0,3.84052 -4.714143,0.0249 -4.714139,0.0249 -0.51847,1.146 c -1.32912,2.93784 -2.87957,5.70446 -4.3986,7.84881 -2.91902,4.1207 -6.81593,6.36111 -12.25648,7.04651 -0.60743,0.0765 -1.41773,0.13948 -1.80067,0.1399 l -0.69626,7.8e-4 0,-3.78221 z"/><path style="fill:maroon;fill-opacity:1;stroke:none" id="path5070" d="m -119.77556,160.10457 0,-3.78221 0.64823,-0.065 c 3.1154,-0.3123 4.60522,-0.98529 6.60245,-2.98251 2.32944,-2.32944 3.88935,-5.24916 6.47231,-12.1144 1.70915,-4.54274 3.12595,-7.30069 5.34567,-10.40593 1.937376,-2.71026 5.00759,-4.90649 8.445507,-6.04137 1.693913,-0.55918 3.998071,-0.96922 5.446364,-0.96922 l 0.555854,0 0,3.78576 0,3.78576 -0.648239,0.0566 c -1.717955,0.14999 -3.110382,0.57614 -4.454772,1.36339 -1.788305,1.0472 -3.98474,3.73546 -5.219904,6.38873 -0.428616,0.92071 -0.665081,0.84977 2.832146,0.84977 l 3.073137,0 0,3.84051 0,3.84051 -4.714139,0.0249 -4.714134,0.0249 -0.51847,1.146 c -1.32913,2.93783 -2.87958,5.70445 -4.39861,7.84881 -2.91902,4.12069 -6.81592,6.3611 -12.25648,7.04651 -0.60743,0.0765 -1.41773,0.13948 -1.80067,0.1399 l -0.69625,7.8e-4 0,-3.78222 z"/><path style="fill:url(#linearGradient5074);fill-opacity:1;stroke:none" id="path5072" d="m -119.78679,160.44821 0,-3.78221 0.64824,-0.065 c 3.1154,-0.3123 4.60522,-0.98529 6.60244,-2.98251 2.32944,-2.32945 3.88935,-5.24916 6.47231,-12.1144 1.70915,-4.54274 3.12595,-7.3007 5.34567,-10.40593 1.93738,-2.71026 5.007594,-4.90649 8.445511,-6.04138 1.693913,-0.55917 3.998071,-0.96921 5.446364,-0.96921 l 0.555854,0 0,3.78576 0,3.78576 -0.648239,0.0566 c -1.717955,0.14999 -3.110382,0.57615 -4.454772,1.3634 -1.788306,1.0472 -3.98474,3.73545 -5.219904,6.38872 -0.428616,0.92072 -0.665081,0.84977 2.832146,0.84977 l 3.073136,0 0,3.84051 0,3.84052 -4.714139,0.0249 -4.714137,0.0249 -0.51847,1.14599 c -1.32912,2.93784 -2.87958,5.70445 -4.3986,7.84881 -2.91902,4.12069 -6.81593,6.36111 -12.25649,7.04651 -0.60742,0.0765 -1.41772,0.13948 -1.80066,0.1399 l -0.69626,7.7e-4 0,-3.78222 z"/></g><ellipse id="circle5076" cx="-53.603" cy="107.804" rx="22.523" ry="22.609" style="opacity:1;fill:url(#linearGradient5086);fill-opacity:1;stroke:none;stroke-width:3;stroke-linecap:butt;stroke-linejoin:miter;stroke-miterlimit:4;stroke-dasharray:9,9;stroke-dashoffset:0;stroke-opacity:1"/><ellipse style="opacity:1;fill:url(#linearGradient5096);fill-opacity:1;stroke:none;stroke-width:3;stroke-linecap:butt;stroke-linejoin:miter;stroke-miterlimit:4;stroke-dasharray:9,9;stroke-dashoffset:0;stroke-opacity:1" id="path5088" cx="-53.713" cy="97.295" rx="16.77" ry="10.937"/></g></g></svg>