<svg xmlns="http://www.w3.org/2000/svg" xmlns:pdf="http://ns.adobe.com/pdf/1.3/" xmlns:svg="http://www.w3.org/2000/svg" xmlns:x="adobe:ns:meta/" xmlns:xap="http://ns.adobe.com/xap/1.0/" xmlns:xapGImg="http://ns.adobe.com/xap/1.0/g/img/" xmlns:xapMM="http://ns.adobe.com/xap/1.0/mm/" xmlns:xlink="http://www.w3.org/1999/xlink" style="overflow:visible" id="svg548" width="128" height="128" version="1.1" viewBox="0 0 128 128" xml:space="preserve"><defs id="defs664"><radialGradient id="XMLID_15_" cx="49.904" cy="47.092" r="30.084" fx="49.904" fy="47.092" gradientTransform="matrix(0.3749,0,0,0.375,14.9959,15)" gradientUnits="userSpaceOnUse"><stop id="stop555" offset="0" style="stop-color:#fbfd4a;stop-opacity:1"/><stop id="stop556" offset="1" style="stop-color:#ff3600;stop-opacity:1"/></radialGradient><linearGradient id="XMLID_16_" x1="33.705" x2="33.705" y1="29.923" y2="40.927" gradientUnits="userSpaceOnUse"><stop id="stop562" offset="0" style="stop-color:#ffc842;stop-opacity:1"/><stop id="stop563" offset="1" style="stop-color:#ffc842;stop-opacity:1"/></linearGradient><linearGradient id="XMLID_17_" x1="43.617" x2="36.869" y1="24.517" y2="29.578" gradientUnits="userSpaceOnUse"><stop id="stop569" offset="0" style="stop-color:#ffc842;stop-opacity:1"/><stop id="stop570" offset="1" style="stop-color:#000"/></linearGradient><radialGradient id="XMLID_20_" cx="16.352" cy="37.996" r="49.415" fx="16.352" fy="37.996" gradientTransform="matrix(0.3749,0,0,0.375,14.9959,15)" gradientUnits="userSpaceOnUse"><stop id="stop594" offset="0" style="stop-color:#fbfd4a;stop-opacity:1"/><stop id="stop595" offset="1" style="stop-color:#ff3600;stop-opacity:1"/></radialGradient><radialGradient id="XMLID_21_" cx="38.168" cy="18.062" r="90.268" fx="38.168" fy="18.062" gradientTransform="matrix(0.3714,-0.0512,0.0511,0.3715,13.2666,17.0873)" gradientUnits="userSpaceOnUse"><stop id="stop602" offset="0" style="stop-color:#fbf885;stop-opacity:1"/><stop id="stop603" offset=".5" style="stop-color:#ffc842;stop-opacity:1"/><stop id="stop604" offset="1" style="stop-color:#ff8119;stop-opacity:1"/></radialGradient><linearGradient id="XMLID_22_" x1="9.663" x2="9.663" y1="14.929" y2="11.929" gradientTransform="matrix(0.9907,-0.1364,0.1364,0.9907,-4.6134,5.5667)" gradientUnits="userSpaceOnUse"><stop id="stop612" offset="0" style="stop-color:#ffc842;stop-opacity:1"/><stop id="stop613" offset=".055" style="stop-color:#ffdd57;stop-opacity:1"/><stop id="stop614" offset=".344" style="stop-color:#fde059;stop-opacity:1"/><stop id="stop615" offset=".608" style="stop-color:#fbe865;stop-opacity:1"/><stop id="stop616" offset=".835" style="stop-color:#faea66;stop-opacity:1"/><stop id="stop617" offset="1" style="stop-color:#fbf885;stop-opacity:1"/></linearGradient><linearGradient id="XMLID_23_" x1="13.461" x2="29.054" y1="13.736" y2="34.062" gradientTransform="matrix(0.9907,-0.1364,0.1364,0.9907,-4.6134,5.5667)" gradientUnits="userSpaceOnUse"><stop id="stop623" offset="0" style="stop-color:#fff"/><stop id="stop624" offset="1" style="stop-color:#f8ff51;stop-opacity:1"/></linearGradient><linearGradient id="XMLID_28_" x1="41.545" x2="36.144" y1="40.628" y2="36.65" gradientUnits="userSpaceOnUse"><stop id="stop655" offset="0" style="stop-color:#ffff7e;stop-opacity:1"/><stop id="stop656" offset="1" style="stop-color:#ff9e00;stop-opacity:1"/></linearGradient><linearGradient id="linearGradient2957" x1="13.461" x2="29.054" y1="13.736" y2="34.062" gradientTransform="matrix(1.9757671,-0.27202446,0.27202446,1.9757671,-2.5111341,4.131263)" gradientUnits="userSpaceOnUse" xlink:href="#XMLID_23_"/><linearGradient id="linearGradient2960" x1="9.663" x2="9.663" y1="14.929" y2="11.929" gradientTransform="matrix(1.9757671,-0.27202446,0.27202446,1.9757671,-2.5111341,4.131263)" gradientUnits="userSpaceOnUse" xlink:href="#XMLID_22_"/><radialGradient id="radialGradient2963" cx="38.168" cy="18.062" r="90.268" fx="38.168" fy="18.062" gradientTransform="matrix(0.74068829,-0.10210889,0.10190946,0.74088773,33.147204,27.106959)" gradientUnits="userSpaceOnUse" xlink:href="#XMLID_21_"/><radialGradient id="radialGradient2967" cx="16.352" cy="37.996" r="49.415" fx="16.352" fy="37.996" gradientTransform="matrix(0.74766839,0,0,0.74786783,36.595971,22.944227)" gradientUnits="userSpaceOnUse" xlink:href="#XMLID_20_"/><linearGradient id="linearGradient2980" x1="43.617" x2="36.869" y1="24.517" y2="29.578" gradientTransform="matrix(1.9943142,0,0,1.9943142,6.689435,-6.9704859)" gradientUnits="userSpaceOnUse" xlink:href="#XMLID_17_"/><linearGradient id="linearGradient2983" x1="33.705" x2="33.705" y1="29.923" y2="40.927" gradientTransform="matrix(1.9943142,0,0,1.9943142,6.689435,-6.9704859)" gradientUnits="userSpaceOnUse" xlink:href="#XMLID_16_"/><radialGradient id="radialGradient2986" cx="49.904" cy="47.092" r="30.084" fx="49.904" fy="47.092" gradientTransform="matrix(0.74766839,0,0,0.74786783,36.595971,22.944227)" gradientUnits="userSpaceOnUse" xlink:href="#XMLID_15_"/><linearGradient id="linearGradient4069"><stop id="stop4071" offset="0" style="stop-color:#f32401;stop-opacity:1"/><stop id="stop4073" offset="1" style="stop-color:#af1a01;stop-opacity:1"/></linearGradient><linearGradient id="linearGradient3976"><stop id="stop3978" offset="0" style="stop-color:#d2d1cf;stop-opacity:1"/><stop id="stop3980" offset="1" style="stop-color:#d2d1cf;stop-opacity:.3539823"/></linearGradient><linearGradient id="linearGradient3889"><stop style="stop-color:#0c5fbd;stop-opacity:1" id="stop3891" offset="0"/><stop style="stop-color:#124aab;stop-opacity:1" id="stop3893" offset="1"/></linearGradient><linearGradient id="linearGradient3883"><stop id="stop3885" offset="0" style="stop-color:#bce6fd;stop-opacity:1"/><stop id="stop3887" offset="1" style="stop-color:#abe0fb;stop-opacity:1"/></linearGradient><linearGradient id="linearGradient3835"><stop style="stop-color:#6db0ee;stop-opacity:1" id="stop3837" offset="0"/><stop style="stop-color:#3a9bed;stop-opacity:1" id="stop3839" offset="1"/></linearGradient><linearGradient id="linearGradient3825"><stop style="stop-color:#fdfdff;stop-opacity:1" id="stop3827" offset="0"/><stop style="stop-color:#fdfdff;stop-opacity:0" id="stop3829" offset="1"/></linearGradient><linearGradient id="linearGradient3767"><stop style="stop-color:#34aeff;stop-opacity:1" id="stop3769" offset="0"/><stop style="stop-color:#b2e2ff;stop-opacity:1" id="stop3771" offset="1"/></linearGradient><linearGradient id="linearGradient3773" x1="82.517" x2="30.028" y1="94.352" y2="31.181" gradientTransform="translate(0.56942624,-0.09588402)" gradientUnits="userSpaceOnUse" xlink:href="#linearGradient3767"/><linearGradient id="linearGradient3831" x1="150.671" x2="123.44" y1="8.642" y2="25.328" gradientTransform="translate(-75.306512,-2.0205668)" gradientUnits="userSpaceOnUse" xlink:href="#linearGradient3825"/><linearGradient id="linearGradient3847-8" x1="105.277" x2="117.408" y1="37.416" y2="104.361" gradientUnits="userSpaceOnUse" xlink:href="#linearGradient3835"/><linearGradient id="linearGradient3895" x1="100.857" x2="167.994" y1="19.203" y2="102.92" gradientTransform="translate(-75.679709,-0.99324207)" gradientUnits="userSpaceOnUse" xlink:href="#linearGradient3889"/><linearGradient id="linearGradient3903" x1="105.277" x2="117.408" y1="37.416" y2="104.361" gradientTransform="translate(-1.5786031,0.84279384)" gradientUnits="userSpaceOnUse" xlink:href="#linearGradient3883"/><linearGradient id="linearGradient3995" x1="85.37" x2="98.903" y1="19.299" y2="102.053" gradientTransform="matrix(0.99517934,0,0,1.0030062,0.15365893,-0.33879519)" gradientUnits="userSpaceOnUse" xlink:href="#linearGradient3889"/><linearGradient id="linearGradient3889-1"><stop style="stop-color:#1f81f0;stop-opacity:1" id="stop3891-6" offset="0"/><stop style="stop-color:#3375ea;stop-opacity:1" id="stop3893-7" offset="1"/></linearGradient><linearGradient id="linearGradient4033" x1="85.37" x2="98.903" y1="19.299" y2="102.053" gradientTransform="matrix(0.99371873,0,0,1.0020862,0.19289863,-0.22134891)" gradientUnits="userSpaceOnUse" xlink:href="#linearGradient3889-1"/><linearGradient id="linearGradient4051" x1="53.541" x2="65.951" y1="109.009" y2="111.029" gradientUnits="userSpaceOnUse" xlink:href="#linearGradient4069"/><linearGradient id="linearGradient4067" x1="66.401" x2="53.826" y1="104.232" y2="105.273" gradientUnits="userSpaceOnUse" xlink:href="#linearGradient4069"/><linearGradient id="linearGradient4089" x1="91.365" x2="82.663" y1="88.093" y2="25.586" gradientUnits="userSpaceOnUse" xlink:href="#linearGradient3976"/><linearGradient id="linearGradient3976-7"><stop id="stop3978-0" offset="0" style="stop-color:#85817c;stop-opacity:1"/><stop id="stop3980-1" offset="1" style="stop-color:#7e7b76;stop-opacity:1"/></linearGradient><linearGradient id="linearGradient4130" x1="91.365" x2="82.663" y1="88.093" y2="25.586" gradientTransform="translate(0.8660352,-0.34641108)" gradientUnits="userSpaceOnUse" xlink:href="#linearGradient3976-7"/><linearGradient id="linearGradient4928" x1="91.365" x2="82.663" y1="88.093" y2="25.586" gradientUnits="userSpaceOnUse" xlink:href="#linearGradient3976"/><linearGradient id="linearGradient4930" x1="91.365" x2="82.663" y1="88.093" y2="25.586" gradientUnits="userSpaceOnUse" xlink:href="#linearGradient3976"/></defs><metadata id="metadata549"><xpacket id="xpacket6">begin=&apos; &apos; id=&apos;W5M0MpCehiHzreSzNTczkc9d&apos;</xpacket><x:xmpmeta x:xmptk="XMP toolkit 3.0-29, framework 1.6"><metadata id="metadata82"/></x:xmpmeta><xpacket id="xpacket8">end=&apos;w&apos;</xpacket></metadata><g id="g4720"><rect id="rect6163" width="128" height="128" x="0" y="0" ry="0" style="opacity:0;fill:#f95;fill-opacity:1;stroke:none;stroke-width:.88;stroke-linecap:round;stroke-linejoin:round;stroke-miterlimit:4;stroke-dasharray:none;stroke-dashoffset:0;stroke-opacity:1"/><g id="g4688"><g id="g6129" transform="matrix(1.2991295,0,0,1.2991295,-6.7409359,-7.3648295)"><path style="opacity:.4" id="path551" d="m 101.14847,40.979967 c -0.32906,-0.384903 -0.83163,-0.580346 -1.336187,-0.512539 L 86.934994,42.184533 84.037256,21.130558 c -0.06781,-0.492596 -0.329062,-0.935334 -0.723936,-1.234481 -0.394875,-0.299147 -0.891459,-0.430772 -1.38206,-0.362965 0,0 -44.764377,6.164425 -48.20058,6.637078 -0.01795,-0.127636 -0.05783,-0.420801 -0.05783,-0.420801 -0.502567,-3.655578 -3.737345,-6.238214 -7.209446,-5.761573 l -11.130268,1.533627 c -1.621377,0.223363 -3.073238,1.080919 -4.086349,2.417109 -0.885476,1.168668 -1.3621168,2.634489 -1.3621168,4.126236 0,0.317096 0.02194,0.634192 0.06382,0.951288 l 0.6481518,4.700599 c 0,0 0.01595,0.09573 0.02593,0.14359 0.008,0.06382 5.610006,40.769765 5.610006,40.769765 0.03789,0.271227 0.131625,0.528494 0.279204,0.755845 2.201723,3.428227 4.830229,6.503459 7.811729,9.139942 0.408834,0.360971 0.955276,0.526499 1.493741,0.45271 l 63.907799,-8.800909 c 0.490601,-0.06781 0.935333,-0.327067 1.232486,-0.721942 0.02992,-0.03789 0.04587,-0.07778 0.07179,-0.117664 0.374931,-0.177494 0.678067,-0.496584 0.801715,-0.911402 l 9.608598,-32.042646 c 0.14957,-0.490601 0.0379,-1.0171 -0.29117,-1.403997 z"/><path style="fill:url(#radialGradient2986)" id="path560" d="m 98.023042,39.572819 -48.625368,6.48551 c -0.783766,0.103704 -1.348157,0.797725 -1.292316,1.587474 l 1.954428,27.72695 c 0.05783,0.815675 0.761828,1.435906 1.579497,1.388043 l 37.058346,-2.169814 c 0.626215,-0.03989 1.16468,-0.460687 1.346162,-1.06297 l 9.608606,-32.04464 c 0.145585,-0.486613 0.03789,-1.013112 -0.293164,-1.400009 -0.331056,-0.384902 -0.833623,-0.576356 -1.336191,-0.510544 z"/><path style="fill:url(#linearGradient2983)" id="path567" d="m 49.597105,47.542098 c 0.09174,1.300293 1.858701,26.36284 1.954428,27.726951 1.400008,-0.08177 36.063184,-2.111979 37.058346,-2.169814 0.283193,-0.941316 9.00034,-30.002463 9.610601,-32.042646 -2.161837,0.289175 -47.301145,6.308015 -48.623375,6.485509 z"/><path style="opacity:.5;fill:url(#linearGradient2980)" id="path574" d="m 48.801374,48.766607 c 0.131624,1.87665 1.764968,25.040609 1.90457,27.010992 2.042177,-0.121653 34.970299,-2.048161 36.430137,-2.133916 0.40684,-1.364111 8.487801,-28.301313 9.367294,-31.236944 -3.145033,0.418806 -45.769511,6.100608 -47.702001,6.359868 z"/><path style="fill:url(#radialGradient2967)" id="path599" d="m 80.138033,18.638503 c 0,0 -44.764377,6.166419 -48.198586,6.639072 -0.01795,-0.127636 -0.05784,-0.420801 -0.05784,-0.420801 -0.502567,-3.655578 -3.737345,-6.240209 -7.207452,-5.761573 l -11.130267,1.533627 c -1.623372,0.221369 -3.073238,1.078924 -4.0863499,2.415115 -0.8854755,1.168668 -1.3641109,2.632495 -1.3641109,4.126236 0,0.317096 0.021937,0.634192 0.065812,0.951288 l 0.6481521,4.700598 c 0,0 0.015954,0.09573 0.023932,0.141597 0.00798,0.06382 5.6120007,40.769765 5.6120007,40.769765 0.03789,0.269232 0.131624,0.528493 0.279204,0.757839 2.203717,3.424238 4.832223,6.49947 7.811728,9.137948 0.408835,0.362965 0.953283,0.526499 1.493742,0.452709 L 87.933807,75.27902 c 0.490601,-0.06581 0.935333,-0.327067 1.23448,-0.719947 0.299147,-0.394874 0.430772,-0.893453 0.362966,-1.384054 L 82.244028,20.237943 c -0.06581,-0.492596 -0.327067,-0.935334 -0.719947,-1.236475 -0.396868,-0.299147 -0.895447,-0.430772 -1.386048,-0.362965 z"/><path style="fill:url(#radialGradient2963)" id="path610" d="m 80.393305,20.491221 -50.051304,6.89235 -0.313107,-2.273519 c -0.362965,-2.638477 -2.648449,-4.503161 -5.101456,-4.164128 l -11.130267,1.533628 c -2.453007,0.337039 -4.150168,2.750159 -3.785209,5.388637 l 0.646158,4.700598 c 0.004,0.03789 0.01396,0.07379 0.01994,0.111682 l 5.615989,40.79968 c 2.084059,3.242755 4.60886,6.210294 7.478678,8.751051 l 63.905805,-8.800909 -7.28523,-52.93907 z"/><path style="fill:url(#linearGradient2960)" id="path621" d="m 13.950733,23.590385 c -1.836763,0.253278 -3.107142,2.104001 -2.827938,4.124242 l 0.648153,4.700598 c 0.277209,2.020241 1.998302,3.458141 3.83706,3.204863 l 11.130268,-1.533627 c 1.838757,-0.251284 3.107141,-2.102008 2.827937,-4.124242 L 28.920055,25.26162 c -0.279204,-2.02024 -2.000297,-3.458141 -3.83706,-3.206857 l -11.132262,1.535622 z"/><path style="opacity:.8;fill:url(#linearGradient2957)" id="path628" d="m 11.591459,31.096984 c 0.219375,1.591462 4.138202,30.068275 5.897187,42.837869 0.382909,0.510544 0.777783,1.009123 1.182629,1.499724 0.107693,-7.801757 3.306573,-15.836849 9.728264,-20.258244 9.953623,-7.191497 22.148854,-6.325964 33.753768,-9.742225 9.522851,-3.003437 16.219758,-11.730556 17.635721,-21.105827 -0.195443,-1.40998 -0.319091,-2.323376 -0.354988,-2.572665 -2.115968,0.29117 -65.722625,9.050198 -67.842581,9.341368 z"/><path style="fill:#fff" id="path629" d="m 25.029148,21.685815 -11.130267,1.533627 c -1.838758,0.253278 -3.107142,2.104002 -2.827938,4.124242 l 0.205415,1.481776 c -0.279204,-2.020241 0.991174,-3.870964 2.827937,-4.124242 L 25.234563,23.16759 c 1.836763,-0.253278 3.559851,1.184623 3.83706,3.204863 l -0.205414,-1.481775 c -0.27721,-2.020241 -1.998303,-3.458141 -3.837061,-3.204863 z"/><path style="fill:#fff" id="path630" d="m 11.308267,30.769916 5.861289,42.592568 c 0.434761,0.592312 0.88747,1.168669 1.356134,1.737048 L 13.129076,35.879349 c -0.321085,-2.327365 1.362116,-4.483218 3.759282,-4.81228 L 78.95341,22.519438 c 0.233335,-0.03191 0.464675,-0.03989 0.696016,-0.03789 L 79.497858,21.37869 11.308267,30.769916 Z"/><polygon style="fill:#ff3600;fill-opacity:1" id="polygon653" points="41.232 40.73 39.817 30.447 38.722 32.001 31.627 42.053" transform="matrix(1.9943142,0,0,1.9943142,6.689435,-6.9704859)"/><polygon style="fill:url(#XMLID_28_)" id="polygon660" points="33.236 41.074 40.388 40.089 39.334 32.434" transform="matrix(1.9943142,0,0,1.9943142,6.689435,-6.9704859)"/><path style="fill:#fff" id="path661" d="m 84.705012,61.907144 c -0.07977,-0.58234 -0.153562,-1.128782 -0.221369,-1.619384 -2.203717,3.149023 -7.416854,10.593798 -9.445072,13.495525 0.450715,-0.06182 0.957271,-0.131625 1.499725,-0.207409 2.092035,-2.991471 5.957016,-8.509739 8.166716,-11.668732 z"/></g><g style="display:inline" id="layer2" transform="matrix(0.69610798,0,0,0.69610798,-14.393618,34.016458)"><path id="path3982" d="m 40.700448,111.41824 6.28236,3.10252 L 103.59715,100.1502 87.661263,18.294319 33.003957,37.595964 Z" style="fill:none;stroke:url(#linearGradient3995);stroke-width:2.0168519;stroke-linecap:round;stroke-linejoin:round;stroke-miterlimit:4;stroke-dasharray:none;stroke-opacity:1"/><path id="path3982-6" d="m 35.167085,39.035517 7.382442,71.115773 4.507652,2.78888 L 101.13784,98.703386 86.027397,21.091003 Z" style="fill:none;stroke:url(#linearGradient4033);stroke-width:3.02166986;stroke-linecap:round;stroke-linejoin:miter;stroke-miterlimit:4;stroke-dasharray:none;stroke-opacity:1"/><path style="display:inline;fill:#fff;fill-opacity:1;stroke:url(#linearGradient4130);stroke-width:1px;stroke-linecap:butt;stroke-linejoin:miter;stroke-opacity:1" id="path3912-7" d="M 48.127078,110.96066 100.58754,98.882438 85.426353,21.742496 32.892204,41.407686 Z"/><path id="path4087" d="m 42.496959,109.52811 c 4.034498,2.21582 4.034498,2.21582 4.034498,2.21582" style="opacity:.78475336;fill:none;stroke:#525252;stroke-width:2.77605724;stroke-linecap:round;stroke-linejoin:miter;stroke-miterlimit:4;stroke-dasharray:none;stroke-opacity:1"/><g id="g3984"><path style="fill:#fff;fill-opacity:1;stroke:url(#linearGradient4928);stroke-width:1px;stroke-linecap:butt;stroke-linejoin:miter;stroke-opacity:1" id="path3912" d="M 47.26104,111.30708 99.721503,98.00409 84.560315,22.088907 32.026166,41.754097 Z"/><path style="fill:#fff;fill-opacity:1;stroke:url(#linearGradient4930);stroke-width:1px;stroke-linecap:butt;stroke-linejoin:miter;stroke-opacity:1" id="path3912-3" d="M 46.665697,111.20337 98.1429,96.846887 83.824506,21.914963 30.026166,39.7541 45.614542,110.50325 Z"/><path style="fill:#fff;fill-opacity:1;stroke:url(#linearGradient4089);stroke-width:1px;stroke-linecap:butt;stroke-linejoin:miter;stroke-opacity:1" id="path3912-3-2" d="M 44.909876,110.07965 96.597778,95.723159 82.700781,21.774494 30.026166,39.754097 43.701367,109.21221 Z"/></g><path id="path4035" d="m 55.303776,123.47741 -1.263181,-31.331267 8.140731,-3.117726 3.637348,32.043303 z" style="fill:url(#linearGradient4051);fill-opacity:1;stroke:url(#linearGradient4067);stroke-width:1px;stroke-linecap:butt;stroke-linejoin:round;stroke-opacity:1"/><g id="g3905"><path style="fill:url(#linearGradient3773);fill-opacity:1;stroke:url(#linearGradient3895);stroke-width:2;stroke-linecap:butt;stroke-linejoin:round;stroke-miterlimit:4;stroke-dasharray:none;stroke-opacity:1" id="path3765" d="M 39.887421,110.92982 24.991621,32.467039 75.914491,5.2735341 93.061981,92.050259 Z"/><path style="fill:none;stroke:url(#linearGradient3831);stroke-width:2;stroke-linecap:butt;stroke-linejoin:miter;stroke-miterlimit:4;stroke-dasharray:none;stroke-opacity:1" id="path3765-9" d="m 27.599731,32.510684 c 4.72917,24.916667 9.45833,49.833333 14.1875,74.749996 16.44792,-5.84375 32.89583,-11.687496 49.34375,-17.531246 -5.42708,-27.479167 -10.85417,-54.958333 -16.28125,-82.4375008 -15.75,8.4062508 -31.5,16.8125008 -47.25,25.2187508 z"/><g id="g3897" transform="translate(-75.679709,-0.99324207)"><path id="path3833" d="m 104.73518,31.284755 -1.56548,0.925546 15.13014,78.238409 1.83789,-0.73482 z" style="color:#000;font-style:normal;font-variant:normal;font-weight:400;font-stretch:normal;font-size:medium;line-height:normal;font-family:Sans;-inkscape-font-specification:Sans;text-indent:0;text-align:start;text-decoration:none;text-decoration-line:none;letter-spacing:normal;word-spacing:normal;text-transform:none;direction:ltr;block-progression:tb;writing-mode:lr-tb;baseline-shift:baseline;text-anchor:start;display:inline;overflow:visible;visibility:visible;fill:url(#linearGradient3847-8);fill-opacity:1;fill-rule:nonzero;stroke:none;stroke-width:2;marker:none;enable-background:accumulate"/><path id="path3833-7" d="m 103.1697,32.210301 -1.56547,0.855314 14.85773,78.117905 1.83788,-0.73481 z" style="color:#000;font-style:normal;font-variant:normal;font-weight:400;font-stretch:normal;font-size:medium;line-height:normal;font-family:Sans;-inkscape-font-specification:Sans;text-indent:0;text-align:start;text-decoration:none;text-decoration-line:none;letter-spacing:normal;word-spacing:normal;text-transform:none;direction:ltr;block-progression:tb;writing-mode:lr-tb;baseline-shift:baseline;text-anchor:start;display:inline;overflow:visible;visibility:visible;fill:url(#linearGradient3903);fill-opacity:1;fill-rule:nonzero;stroke:none;stroke-width:2;marker:none;enable-background:accumulate"/></g></g></g></g></g></svg>