<svg xmlns="http://www.w3.org/2000/svg" xmlns:svg="http://www.w3.org/2000/svg" xmlns:xlink="http://www.w3.org/1999/xlink" id="svg25309" width="128" height="128" version="1.1" viewBox="0 0 128 128"><defs id="defs25311"><linearGradient id="linearGradient15568" x1="201.746" x2="200.383" y1="785.154" y2="751.779" gradientTransform="matrix(3.8972775,0,0,3.9822222,-722.63704,-2079.0608)" gradientUnits="userSpaceOnUse" xlink:href="#linearGradient14830"/><linearGradient id="linearGradient14830"><stop style="stop-color:#e6e6e6;stop-opacity:1" id="stop14832" offset="0"/><stop style="stop-color:#fff;stop-opacity:1" id="stop14834" offset="1"/></linearGradient></defs><metadata id="metadata25314"/><g id="layer1" transform="translate(0,-924.36216)"><g id="g25405"><rect style="opacity:.49060005;fill:#ccc;fill-opacity:0;stroke:none;stroke-width:3;stroke-linecap:round;stroke-linejoin:round;stroke-miterlimit:4;stroke-dasharray:none;stroke-dashoffset:0;stroke-opacity:1" id="rect15549" width="128" height="128" x="0" y="924.362"/><g id="g25392" transform="matrix(0.953125,0,0,0.953125,3.0000368,46.329474)"><rect id="rect15551" width="110.638" height="128" x="8.681" y="924.362" ry="6.842" style="fill:#ccc;fill-opacity:1;stroke:none"/><rect style="fill:url(#linearGradient15568);fill-opacity:1;stroke:none" id="rect15553" width="103.815" height="119.467" x="12.47" y="928.629" ry="6.386"/><g id="g15588" transform="matrix(5.8181818,0,0,5.8181818,-4042.5991,-2508.825)"><rect style="opacity:1;fill:teal;fill-opacity:1;stroke:none;stroke-width:3;stroke-linecap:round;stroke-linejoin:round;stroke-miterlimit:4;stroke-dasharray:none;stroke-dashoffset:0;stroke-opacity:1" id="rect15556" width="3.002" height="3.002" x="698.365" y="593.102"/><rect id="rect15558" width="10.962" height="2.945" x="702.167" y="593.089" ry=".307" style="fill:#ccc;fill-opacity:1;stroke:none"/></g><g id="g15579" transform="matrix(5.8181818,0,0,5.8181818,-4025.6326,-2507.733)"><rect id="rect15560" width="3.002" height="3.002" x="698.365" y="599.502" style="opacity:1;fill:#f60;fill-opacity:1;stroke:none;stroke-width:3;stroke-linecap:round;stroke-linejoin:round;stroke-miterlimit:4;stroke-dasharray:none;stroke-dashoffset:0;stroke-opacity:1"/><rect style="fill:#ccc;fill-opacity:1;stroke:none" id="rect15564" width="7.98" height="2.945" x="702.232" y="599.549" ry=".307"/></g><g id="g15583" transform="matrix(5.8181818,0,0,5.8181818,-4008.7936,-2508.825)"><rect id="rect15562" width="3.002" height="3.002" x="698.365" y="606.302" style="opacity:1;fill:#2c89a0;fill-opacity:1;stroke:none;stroke-width:3;stroke-linecap:round;stroke-linejoin:round;stroke-miterlimit:4;stroke-dasharray:none;stroke-dashoffset:0;stroke-opacity:1"/><rect id="rect15566" width="5.085" height="2.945" x="702.232" y="606.278" ry=".307" style="fill:#ccc;fill-opacity:1;stroke:none"/></g></g></g></g></svg>