<svg xmlns="http://www.w3.org/2000/svg" xmlns:svg="http://www.w3.org/2000/svg" id="svg54" width="124" height="124" enable-background="new 0 0 32 32" version="1.1" viewBox="0 0 124 124" xml:space="preserve"><metadata id="metadata60"/><g id="g882"><rect id="rect867" width="124" height="124" x="0" y="0" style="opacity:0;fill:#000;fill-opacity:1;stroke:none;stroke-width:26.32608604;stroke-linecap:round;stroke-linejoin:bevel;stroke-miterlimit:4;stroke-dasharray:none;stroke-dashoffset:0;stroke-opacity:1"/><g id="Layer_17" transform="matrix(3.7976291,0,0,3.7999998,1.2377964,1.200001)"><path style="fill:#3f51b5" id="path17" d="m 16,1 c -3.86,0 -7,3.09 -7,6.89 0,3.58 5.66,9.2 6.3,9.83 0.2,0.19 0.45,0.28 0.7,0.28 0.25,0 0.5,-0.09 0.7,-0.28 C 17.34,17.09 23,11.47 23,7.89 23,4.09 19.86,1 16,1 Z"/><g id="g35"><g id="g21"><path style="fill:#16bcd4" id="path19" d="m 10.5393,17.1082 c -0.04,-0.0191 -0.09,-0.0318 -0.13,-0.0445 0.03,0 0.06,0.0127 0.08,0.0191 0.02,0.0063 0.04,0.0126 0.05,0.0254 z"/></g><path style="fill:#16bcd4" id="path23" d="m 22.5093,17.0954 c -0.05,-0.0191 -0.11,-0.0382 -0.17,-0.0509 0.03,0 0.06,0.0127 0.09,0.0191 0.03,0.0064 0.06,0.0191 0.08,0.0318 z"/><path style="fill:#16bcd4" id="path25" d="m 30.9593,30.16 -1.98,-10.0545 c -0.03,-0.1846 -0.19,-0.35 -0.44,-0.4518 l -5.89,-2.4945 c -0.04,-0.0255 -0.09,-0.0445 -0.14,-0.0637 -0.05,-0.0191 -0.11,-0.0382 -0.17,-0.0509 -0.02,-0.0127 -0.05,-0.0191 -0.09,-0.0255 -0.03,0 -0.06,-0.0064 -0.09,-0.0064 C 22.1093,17 22.0493,17 21.9893,17 c -0.08,0 -0.17,0.0064 -0.26,0.0254 -0.05,0.0064 -0.11,0.0191 -0.16,0.0382 -0.03,0 -0.06,0.0127 -0.08,0.0191 -0.02,0.0064 -0.04,0.0127 -0.05,0.0254 l -0.02,0.0064 -5.43,2.3036 -5.43,-2.3036 -0.02,-0.0064 c -0.04,-0.0191 -0.09,-0.0318 -0.13,-0.0445 -0.05,-0.0191 -0.11,-0.0318 -0.16,-0.0382 C 10.1593,17.0063 10.0693,17 9.9893,17 c -0.03,0 -0.06,0 -0.08,0.0064 -0.03,-0.0064 -0.06,0 -0.08,0.0063 -0.03,0 -0.07,0.0064 -0.1,0.0064 -0.04,0.0064 -0.07,0.0127 -0.09,0.0255 h -0.01 c -0.03,0 -0.05,0.0127 -0.08,0.0191 -0.03,0.0064 -0.06,0.0191 -0.08,0.0318 -0.05,0.0191 -0.1,0.0382 -0.14,0.0637 l -5.89,2.4945 c -0.25,0.1018 -0.41,0.2673 -0.44,0.4518 l -2,10.1818 c -0.05,0.2355 0.12,0.4709 0.44,0.6045 0.16,0.07 0.36,0.1082 0.55,0.1082 0.17,0 0.34,-0.0255 0.5,-0.0827 l 6.5,-2.3609 0.09,0.0318 6.41,2.3291 c 0.03,0.0127 0.06,0.0191 0.1,0.0254 0.05,0.0191 0.11,0.0318 0.1801,0.0382 0.0699,0.0127 0.15,0.0191 0.22,0.0191 0.07,0 0.14,-0.0064 0.2,-0.0127 0.06,-0.0127 0.12,-0.0254 0.18,-0.0382 0.01,0 0.01,-0.0064 0.02,-0.0064 0.04,-0.0064 0.0699,-0.0127 0.1,-0.0254 l 6.41,-2.3291 v -0.07 l 0.09,0.0382 6.5,2.3609 c 0.16,0.0573 0.33,0.0827 0.5,0.0827 0.01,0 0.02,0 0.02,0 0.55,0 1,-0.2864 1,-0.6364 -10e-5,-0.07 -0.0201,-0.14 -0.0501,-0.2036 z"/><g id="g31"><path style="fill:#2197f3" id="path27" d="m 31.0093,30.3636 c 0,0.35 -0.45,0.6364 -1,0.6364 0,0 -0.01,0 -0.02,0 -0.17,0 -0.34,-0.0255 -0.5,-0.0827 l -6.5,-2.3609 -0.09,-0.0382 L 21.9893,17 c 0.06,0 0.12,0 0.17,0.0127 0.03,0 0.06,0.0064 0.09,0.0064 0.04,0.0064 0.07,0.0127 0.09,0.0255 0.06,0.0127 0.12,0.0318 0.17,0.0509 0.05,0.0191 0.1,0.0382 0.14,0.0637 l 5.89,2.4945 c 0.25,0.1018 0.41,0.2673 0.44,0.4518 l 1.98,10.0545 c 0.03,0.0636 0.05,0.1336 0.05,0.2036 z"/><path style="fill:#2197f3" id="path29" d="m 21.5693,17.0636 c -0.04,0.0127 -0.09,0.0255 -0.13,0.0445 0.01,-0.0127 0.03,-0.0191 0.05,-0.0254 0.02,-0.0063 0.05,-0.0191 0.08,-0.0191 z"/></g><path style="fill:#2197f3" id="path33" d="M 15.9893,19.4182 V 31 c -0.07,0 -0.15,-0.0064 -0.22,-0.0191 -0.07,-0.0064 -0.13,-0.0191 -0.1801,-0.0382 -0.04,-0.0064 -0.0699,-0.0127 -0.1,-0.0254 l -6.41,-2.3291 v -0.07 L 9.9893,17 c 0.08,0 0.17,0.0064 0.26,0.0254 0.05,0.0064 0.11,0.0191 0.16,0.0382 0.04,0.0127 0.09,0.0255 0.13,0.0445 l 0.02,0.0064 z"/></g><path style="fill:#2197f3" id="path37" d="m 18,7.89 c 0,1.11 -0.9,2 -2,2 -1.1,0 -2,-0.89 -2,-2 0,-1.1 0.9,-2 2,-2 1.1,0 2,0.9 2,2 z"/></g></g></svg>