<svg xmlns="http://www.w3.org/2000/svg" xmlns:svg="http://www.w3.org/2000/svg" xmlns:xlink="http://www.w3.org/1999/xlink" id="svg7262" width="128" height="128" version="1.1" viewBox="0 0 128 128"><defs id="defs7264"><linearGradient id="linearGradient10995" x1="531.477" x2="531.934" y1="501.223" y2="483.239" gradientTransform="matrix(5.8181818,0,0,5.8181818,-3022.2069,-1860.7333)" gradientUnits="userSpaceOnUse" xlink:href="#linearGradient10900"/><linearGradient id="linearGradient10900"><stop style="stop-color:#ececec;stop-opacity:1" id="stop10902" offset="0"/><stop style="stop-color:#fff;stop-opacity:1" id="stop10904" offset="1"/></linearGradient><linearGradient id="linearGradient10997" x1="614.156" x2="608.353" y1="679.236" y2="669.379" gradientUnits="userSpaceOnUse" xlink:href="#linearGradient10714"/><linearGradient id="linearGradient10714"><stop id="stop10716" offset="0" style="stop-color:#f60;stop-opacity:1"/><stop id="stop10718" offset="1" style="stop-color:#fc0;stop-opacity:1"/></linearGradient><filter id="filter14456"><feGaussianBlur id="feGaussianBlur14458" stdDeviation=".36"/></filter><linearGradient id="linearGradient10999" x1="481.195" x2="495.852" y1="215.963" y2="224.939" gradientTransform="matrix(1.1060776,0,0,1.1060776,-17.332073,184.60948)" gradientUnits="userSpaceOnUse" xlink:href="#linearGradient14440"/><linearGradient id="linearGradient14440"><stop id="stop14442" offset="0" style="stop-color:#fc0;stop-opacity:1"/><stop style="stop-color:#fc0;stop-opacity:1" id="stop14444" offset=".377"/><stop id="stop14446" offset="1" style="stop-color:#f60;stop-opacity:1"/></linearGradient></defs><metadata id="metadata7267"/><g id="layer1" transform="translate(0,-924.36219)"><g id="g7974"><rect style="opacity:0;fill:#ececec;fill-opacity:1;stroke:none;stroke-width:2;stroke-linecap:round;stroke-linejoin:round;stroke-miterlimit:4;stroke-dasharray:none;stroke-dashoffset:0;stroke-opacity:1" id="rect10964" width="128" height="128" x="0" y="924.362"/><rect style="opacity:1;fill:#ccc;fill-opacity:1;stroke:none" id="rect10966" width="116.262" height="126.286" x="8.573" y="925.219" ry="6.75"/><rect id="rect10968" width="105.131" height="117.867" x="15.179" y="929.429" ry="6.3" style="opacity:1;fill:url(#linearGradient10995);fill-opacity:1;stroke:none"/><rect style="opacity:1;fill:#37abc8;fill-opacity:1;stroke:none;stroke-width:.5;stroke-linecap:round;stroke-linejoin:round;stroke-miterlimit:4;stroke-dasharray:none;stroke-dashoffset:0;stroke-opacity:1" id="rect10970" width="20.206" height="68.916" x="5.052" y="955.931" ry="2.331"/><g id="g10972" transform="matrix(0.8972544,0,0,0.9094539,-214.63323,732.44904)" style="opacity:1;fill:#006680;fill-opacity:1"><rect id="rect10974" width="20.85" height="10.061" x="241.592" y="252.673" ry="2.606" style="fill:#006680;fill-opacity:1;stroke:none"/><rect style="fill:#006680;fill-opacity:1;stroke:none" id="rect10976" width="20.85" height="10.061" x="241.592" y="277.886" ry="2.606"/><rect id="rect10978" width="20.85" height="10.061" x="241.228" y="302.858" ry="2.606" style="fill:#006680;fill-opacity:1;stroke:none"/></g><path id="path10980" d="m 50.928838,982.73587 24.113978,6.40024 -21.989585,57.15429 -7.906793,-14.5449 -16.204683,8.138 z" style="opacity:1;fill:#08a;fill-opacity:1;stroke:none;stroke-width:.5;stroke-linecap:round;stroke-linejoin:round;stroke-miterlimit:4;stroke-dasharray:none;stroke-dashoffset:0;stroke-opacity:1"/><path style="opacity:1;fill:#006680;fill-opacity:1;stroke:none;stroke-width:.5;stroke-linecap:round;stroke-linejoin:round;stroke-miterlimit:4;stroke-dasharray:none;stroke-dashoffset:0;stroke-opacity:1" id="path10982" d="m 56.754642,987.54984 24.180887,-7.77472 27.515341,55.73358 -17.722119,-7.0623 -6.461847,14.8306 z"/><path style="opacity:1;fill:url(#linearGradient10997);fill-opacity:1;stroke:none;stroke-width:.5;stroke-linecap:round;stroke-linejoin:round;stroke-miterlimit:4;stroke-dasharray:none;stroke-dashoffset:0;stroke-opacity:1" id="path10984" d="m 614.57366,679.52495 -1.44436,-0.11928 -1.28757,1.08542 -1.0984,-0.94547 -1.67966,0.12132 -0.33289,-1.41053 -1.43018,-0.88913 0.55977,-1.33682 -0.63442,-1.55996 1.23862,-0.75247 0.40366,-1.63494 1.44437,0.11928 1.28756,-1.08543 1.09841,0.94547 1.67966,-0.12132 0.33289,1.41053 1.43018,0.88914 -0.55978,1.33681 0.63443,1.55996 -1.23863,0.75248 z" transform="matrix(8.3710714,0.03264,-0.0322432,8.4740934,-5031.9147,-4773.6794)"/><ellipse style="opacity:1;fill:#ff0;fill-opacity:1;stroke:none;stroke-width:.5;stroke-linecap:round;stroke-linejoin:round;stroke-miterlimit:4;stroke-dasharray:none;stroke-dashoffset:0;stroke-opacity:1" id="ellipse10986" cx="70.757" cy="972.845" rx="28.025" ry="28.37" transform="matrix(0.9999924,0.00389911,-0.00380488,0.99999276,0,0)"/><g id="g10989" transform="matrix(2.3890956,0,0,2.4184979,-1184.0457,-62.509097)"><path style="opacity:.82824426;fill:#999;fill-opacity:1;stroke:none;filter:url(#filter14456)" id="path10991" d="m 494.05368,227.42154 -4.95765,-2.37763 -5.10006,2.05447 0.72926,-5.44973 -3.52992,-4.21558 5.40836,-0.9905 2.91845,-4.65984 2.61329,4.83758 5.33362,1.33564 -3.79325,3.98028 z" transform="matrix(1.1264964,0,0,1.1344032,-27.229312,178.80157)"/><path id="path10993" d="m 529.12961,436.15535 -5.48355,-2.62984 -5.64106,2.2724 0.80662,-6.02783 -3.90437,-4.66276 5.98207,-1.09557 3.22803,-5.15414 2.8905,5.35073 5.8994,1.47733 -4.19563,4.4025 z" style="fill:url(#linearGradient10999);fill-opacity:1;stroke:#f4a800;stroke-width:.5;stroke-miterlimit:4;stroke-dasharray:none;stroke-opacity:1"/></g></g></g></svg>