<svg xmlns="http://www.w3.org/2000/svg" xmlns:svg="http://www.w3.org/2000/svg" style="overflow:visible" id="svg548" width="128" height="128" version="1.1" viewBox="0 0 128 128" xml:space="preserve"><metadata id="metadata253"/><g id="Layer_1" transform="matrix(0.47446556,0,0,0.47446556,3.3172912,4.9409954)" style="stroke:#000"><g id="g550"><path style="opacity:.2;stroke:none" id="path551" d="m 44,15.5 c -9.374,0 -17,7.626 -17,17 l 0,200 c 0,9.374 7.626,17 17,17 l 176,0 c 9.375,0 17,-7.626 17,-17 l 0,-200 c 0,-9.374 -7.625,-17 -17,-17 l -176,0 z"/><path style="opacity:.2;stroke:none" id="path552" d="m 42,13.5 c -9.374,0 -17,7.626 -17,17 l 0,200 c 0,9.374 7.626,17 17,17 l 176,0 c 9.375,0 17,-7.626 17,-17 l 0,-200 c 0,-9.374 -7.625,-17 -17,-17 l -176,0 z"/><path style="opacity:.2;stroke:none" id="path553" d="m 40,12.5 c -9.374,0 -17,7.626 -17,17 l 0,200 c 0,9.374 7.626,17 17,17 l 176,0 c 9.375,0 17,-7.626 17,-17 l 0,-200 c 0,-9.374 -7.625,-17 -17,-17 l -176,0 z"/><linearGradient id="XMLID_1_" x1="129" x2="129" y1="11" y2="245" gradientUnits="userSpaceOnUse"><stop style="stop-color:#494949" id="stop555" offset="0"/><stop style="stop-color:#000" id="stop556" offset="1"/></linearGradient><path style="fill:url(#XMLID_1_);stroke:none" id="path560" d="m 41,11 c -9.374,0 -17,7.626 -17,17 l 0,200 c 0,9.374 7.626,17 17,17 l 176,0 c 9.375,0 17,-7.626 17,-17 l 0,-200 c 0,-9.374 -7.625,-17 -17,-17 L 41,11 Z"/><path style="fill:#fff;stroke:none" id="path561" d="m 28,228 c 0,6.627 5.373,12 12,12 l 176,0 c 6.627,0 12,-5.373 12,-12 l 0,-200 c 0,-6.627 -5.373,-12 -12,-12 L 40,16 c -6.627,0 -12,5.373 -12,12 l 0,200 z"/><linearGradient id="XMLID_2_" x1="29.053" x2="226.947" y1="29.053" y2="226.947" gradientUnits="userSpaceOnUse"><stop style="stop-color:#fff" id="stop563" offset="0"/><stop style="stop-color:#dadada" id="stop564" offset="1"/></linearGradient><path style="fill:url(#XMLID_2_);stroke:none" id="path568" d="m 40,21 c -3.86,0 -7,3.14 -7,7 l 0,200 c 0,3.859 3.14,7 7,7 l 176,0 c 3.859,0 7,-3.141 7,-7 l 0,-200 c 0,-3.86 -3.141,-7 -7,-7 L 40,21 Z"/><path style="fill:none;stroke:none" id="path569" d="M 256,256 0,256 0,0 l 256,0 0,256 z"/></g><path style="opacity:.98999999;fill:#fff;stroke:none" id="path570" d="m 212.455,163.815 -129.697,0 0,-126.96 129.697,0 0,126.96 z"/><linearGradient id="XMLID_3_" x1="82.474" x2="211.141" y1="68.606" y2="68.606" gradientUnits="userSpaceOnUse"><stop style="stop-color:#b3b8ff" id="stop572" offset="0"/><stop style="stop-color:#7c74ff" id="stop573" offset="1"/></linearGradient><path style="opacity:.98999999;fill:url(#XMLID_3_);stroke:none" id="path577" d="m 82.474,78.94 128.667,0 0,-20.667 -128.667,0 0,20.667 z"/><linearGradient id="XMLID_4_" x1="82.474" x2="211.141" y1="67.273" y2="67.273" gradientUnits="userSpaceOnUse"><stop style="stop-color:#fff" id="stop579" offset="0"/><stop style="stop-color:#cecedb" id="stop580" offset="1"/></linearGradient><path style="opacity:.6;fill:url(#XMLID_4_);stroke:none" id="path584" d="m 86.474,62.284 124.667,0 0,-4.678 -128.667,0 0,19.334 4,0 0,-14.656 z"/><linearGradient id="XMLID_5_" x1="80.664" x2="214.549" y1="100.883" y2="100.883" gradientUnits="userSpaceOnUse"><stop style="stop-color:#ccc" id="stop586" offset="0"/><stop style="stop-color:#949494" id="stop587" offset="1"/></linearGradient><path style="fill:url(#XMLID_5_);stroke:none" id="path591" d="m 149.938,34.94 -4.662,0 -64.612,0 0,21.314 0,3.997 0,17.319 0,3.996 0,17.318 0,3.996 0,17.32 0,3.997 0,17.315 0,3.998 0,21.314 64.611,0 4.662,0 64.611,0 0,-21.314 0,-3.998 0,-17.315 0,-3.997 0,-17.319 0,-3.996 0,-17.319 0,-3.996 0,-17.318 0,-3.997 0,-21.315 -64.61,0 z m -65.277,3.997 c 6.475,0 51.937,0 60.614,0 l 0,17.318 -60.614,0 c 0,-4.606 0,-12.713 0,-17.318 z m 0,21.315 60.614,0 0,17.318 c -8.678,0 -54.14,0 -60.614,0 0,-4.605 0,-12.713 0,-17.318 z m 0,21.314 60.614,0 0,17.318 c -8.678,0 -54.14,0 -60.614,0 0,-4.605 0,-12.712 0,-17.318 z m 0,21.315 60.614,0 0,17.319 -60.614,0 c 0,-4.606 0,-12.714 0,-17.319 z m 0,21.316 60.614,0 0,17.315 -60.614,0 c 0,-4.605 0,-12.71 0,-17.315 z m 0,38.632 c 0,-4.605 0,-12.713 0,-17.318 l 60.614,0 0,17.318 c -8.677,0 -54.139,0 -60.614,0 z m 125.89,0 c -6.473,0 -51.934,0 -60.613,0 l 0,-17.318 60.613,0 c 0,4.605 0,12.713 0,17.318 z m 0,-21.316 -60.613,0 0,-17.315 60.613,0 c 0,4.604 0,12.709 0,17.315 z m 0,-21.313 -60.613,0 0,-17.319 60.613,0 c 0,4.605 0,12.713 0,17.319 z m 0,-21.315 c -6.473,0 -51.934,0 -60.613,0 l 0,-17.319 60.613,0 c 0,4.606 0,12.713 0,17.319 z m 0,-21.315 c -6.473,0 -51.934,0 -60.613,0 l 0,-17.318 60.613,0 c 0,4.605 0,12.713 0,17.318 z m -60.613,-21.315 0,-17.318 c 8.68,0 54.141,0 60.613,0 0,4.605 0,12.713 0,17.318 l -60.613,0 z"/><path style="opacity:.2;stroke:none" id="path592" d="m 55.727,87.871 c -6.217,0 -11.275,5.209 -11.275,11.612 l 0,109.965 c 0,6.402 5.059,11.611 11.275,11.611 l 89.101,0 c 6.217,0 11.275,-5.209 11.275,-11.611 l 0,-109.965 c 0,-6.403 -5.059,-11.612 -11.275,-11.612 l -89.101,0 z"/><path style="opacity:.2;stroke:none" id="path593" d="m 53.727,85.871 c -6.217,0 -11.275,5.209 -11.275,11.612 l 0,109.965 c 0,6.402 5.059,11.611 11.275,11.611 l 89.101,0 c 6.217,0 11.275,-5.209 11.275,-11.611 l 0,-109.965 c 0,-6.403 -5.059,-11.612 -11.275,-11.612 l -89.101,0 z"/><linearGradient id="XMLID_6_" x1="41.76" x2="152.807" y1="94.948" y2="205.995" gradientUnits="userSpaceOnUse"><stop style="stop-color:#7d7d99" id="stop595" offset="0"/><stop style="stop-color:#585868" id="stop596" offset="1"/></linearGradient><path style="fill:url(#XMLID_6_);stroke:none" id="path600" d="m 52.727,83.871 c -6.217,0 -11.275,5.209 -11.275,11.612 l 0,109.965 c 0,6.402 5.059,11.611 11.275,11.611 l 89.101,0 c 6.217,0 11.275,-5.209 11.275,-11.611 l 0,-109.965 c 0,-6.403 -5.059,-11.612 -11.275,-11.612 l -89.101,0 z"/><linearGradient id="XMLID_7_" x1="40.212" x2="154.353" y1="93.401" y2="207.542" gradientUnits="userSpaceOnUse"><stop style="stop-color:#fff" id="stop602" offset="0"/><stop style="stop-color:#cecedb" id="stop603" offset=".332"/><stop style="stop-color:#bdbdcf" id="stop604" offset="1"/></linearGradient><path style="fill:url(#XMLID_7_);stroke:none" id="path610" d="m 52.727,88.377 c -3.732,0 -6.771,3.188 -6.771,7.106 l 0,109.965 c 0,3.919 3.038,7.106 6.771,7.106 l 89.101,0 c 3.732,0 6.77,-3.188 6.77,-7.106 l 0,-109.965 c 0,-3.919 -3.037,-7.106 -6.77,-7.106 l -89.101,0 z"/><linearGradient id="XMLID_8_" x1="42.587" x2="109.066" y1="95.973" y2="162.451" gradientUnits="userSpaceOnUse"><stop style="stop-color:#fff" id="stop612" offset="0"/><stop style="stop-color:#cecedb" id="stop613" offset="1"/></linearGradient><path style="fill:url(#XMLID_8_);stroke:none" id="path617" d="m 141.389,90.085 -87.472,0 c -3.665,0 -6.646,3.129 -6.646,6.977 l 0,107.954 c 0,3.847 2.981,6.976 6.646,6.976 l 2.806,0 c -3.556,0 -6.449,-3.036 -6.449,-6.768 l 0,-104.738 c 0,-3.731 2.894,-6.769 6.449,-6.769 l 84.863,0 c 3.557,0 6.449,3.037 6.449,6.769 l 0,-3.425 c 0,-3.847 -2.982,-6.976 -6.646,-6.976 z"/><linearGradient id="XMLID_9_" x1="59.383" x2="135.172" y1="107.007" y2="107.007" gradientUnits="userSpaceOnUse"><stop style="stop-color:#fff" id="stop619" offset="0"/><stop style="stop-color:#000" id="stop620" offset="1"/></linearGradient><path style="fill:url(#XMLID_9_);stroke:none" id="path624" d="m 135.172,118.204 -75.789,0 0,-22.394 75.789,0 0,22.394 z"/><path style="stroke:none" id="path625" d="m 60.451,96.875 c 0,1.839 0,18.425 0,20.263 2.043,0 71.61,0 73.653,0 0,-1.838 0,-18.424 0,-20.263 -2.043,0 -71.61,0 -73.653,0 z"/><linearGradient id="XMLID_10_" x1="75.397" x2="119.157" y1="85.127" y2="128.887" gradientUnits="userSpaceOnUse"><stop style="stop-color:#6c3" id="stop627" offset="0"/><stop style="stop-color:#006a00" id="stop628" offset="1"/></linearGradient><path style="fill:url(#XMLID_10_);stroke:none" id="path632" d="m 62.049,98.475 c 0,2.482 0,14.582 0,17.063 2.994,0 67.46,0 70.455,0 0,-2.481 0,-14.581 0,-17.063 -2.994,0 -67.461,0 -70.455,0 z"/><linearGradient id="XMLID_11_" x1="75.399" x2="119.159" y1="85.13" y2="128.889" gradientUnits="userSpaceOnUse"><stop style="stop-color:#cfc" id="stop634" offset="0"/><stop style="stop-color:#093" id="stop635" offset="1"/></linearGradient><path style="fill:url(#XMLID_11_);stroke:none" id="path639" d="m 63.649,100.075 c 0,2.355 0,11.508 0,13.863 2.985,0 64.271,0 67.255,0 0,-2.355 0,-11.508 0,-13.863 -2.984,0 -64.27,0 -67.255,0 z"/><linearGradient id="XMLID_12_" x1="63.685" x2="63.685" y1="151.888" y2="165.752" gradientUnits="userSpaceOnUse"><stop style="stop-color:#494949" id="stop641" offset="0"/><stop style="stop-color:#949494" id="stop642" offset="1"/></linearGradient><path style="fill:url(#XMLID_12_);stroke:none" id="path646" d="m 55.153,158.818 c 0,4.704 3.827,8.532 8.531,8.532 4.705,0 8.532,-3.828 8.532,-8.532 0,-4.703 -3.827,-8.531 -8.532,-8.531 -4.704,0 -8.531,3.828 -8.531,8.531 z"/><linearGradient id="XMLID_13_" x1="63.684" x2="63.684" y1="165.75" y2="151.887" gradientUnits="userSpaceOnUse"><stop style="stop-color:#b6b6b6" id="stop648" offset="0"/><stop style="stop-color:#dadada" id="stop649" offset="1"/></linearGradient><path style="fill:url(#XMLID_13_);stroke:none" id="path653" d="m 56.752,158.818 c 0,3.829 3.104,6.932 6.932,6.932 3.829,0 6.932,-3.103 6.932,-6.932 0,-3.827 -3.103,-6.932 -6.932,-6.932 -3.828,0.001 -6.932,3.105 -6.932,6.932 z"/><linearGradient id="XMLID_14_" x1="86.08" x2="86.08" y1="151.888" y2="165.752" gradientUnits="userSpaceOnUse"><stop style="stop-color:#494949" id="stop655" offset="0"/><stop style="stop-color:#949494" id="stop656" offset="1"/></linearGradient><path style="fill:url(#XMLID_14_);stroke:none" id="path660" d="m 77.548,158.818 c 0,4.704 3.827,8.532 8.531,8.532 4.704,0 8.531,-3.828 8.531,-8.532 0,-4.703 -3.827,-8.531 -8.531,-8.531 -4.704,0 -8.531,3.828 -8.531,8.531 z"/><linearGradient id="XMLID_15_" x1="86.079" x2="86.079" y1="165.75" y2="151.887" gradientUnits="userSpaceOnUse"><stop style="stop-color:#b6b6b6" id="stop662" offset="0"/><stop style="stop-color:#dadada" id="stop663" offset="1"/></linearGradient><path style="fill:url(#XMLID_15_);stroke:none" id="path667" d="m 79.147,158.818 c 0,3.829 3.104,6.932 6.933,6.932 3.829,0 6.932,-3.103 6.932,-6.932 0,-3.827 -3.104,-6.932 -6.932,-6.932 -3.828,0 -6.933,3.105 -6.933,6.932 z"/><linearGradient id="XMLID_16_" x1="108.474" x2="108.474" y1="151.888" y2="165.752" gradientUnits="userSpaceOnUse"><stop style="stop-color:#494949" id="stop669" offset="0"/><stop style="stop-color:#949494" id="stop670" offset="1"/></linearGradient><path style="fill:url(#XMLID_16_);stroke:none" id="path674" d="m 99.943,158.818 c 0,4.704 3.827,8.532 8.531,8.532 4.704,0 8.531,-3.828 8.531,-8.532 0,-4.703 -3.827,-8.531 -8.531,-8.531 -4.704,0 -8.531,3.828 -8.531,8.531 z"/><linearGradient id="XMLID_17_" x1="108.475" x2="108.475" y1="165.75" y2="151.887" gradientUnits="userSpaceOnUse"><stop style="stop-color:#b6b6b6" id="stop676" offset="0"/><stop style="stop-color:#dadada" id="stop677" offset="1"/></linearGradient><path style="fill:url(#XMLID_17_);stroke:none" id="path681" d="m 101.543,158.818 c 0,3.829 3.103,6.932 6.931,6.932 3.828,0 6.933,-3.103 6.933,-6.932 0,-3.827 -3.104,-6.932 -6.933,-6.932 -3.829,0 -6.931,3.105 -6.931,6.932 z"/><linearGradient id="XMLID_18_" x1="130.871" x2="130.871" y1="151.888" y2="165.752" gradientUnits="userSpaceOnUse"><stop style="stop-color:#494949" id="stop683" offset="0"/><stop style="stop-color:#949494" id="stop684" offset="1"/></linearGradient><path style="fill:url(#XMLID_18_);stroke:none" id="path688" d="m 122.338,158.818 c 0,4.704 3.826,8.532 8.531,8.532 4.705,0 8.533,-3.828 8.533,-8.532 0,-4.703 -3.828,-8.531 -8.533,-8.531 -4.704,0 -8.531,3.828 -8.531,8.531 z"/><linearGradient id="XMLID_19_" x1="130.87" x2="130.87" y1="165.75" y2="151.887" gradientUnits="userSpaceOnUse"><stop style="stop-color:#006dff" id="stop690" offset="0"/><stop style="stop-color:#c9e6ff" id="stop691" offset="1"/></linearGradient><path style="fill:url(#XMLID_19_);stroke:none" id="path695" d="m 123.938,158.818 c 0,3.829 3.104,6.932 6.931,6.932 3.83,0 6.934,-3.103 6.934,-6.932 0,-3.827 -3.104,-6.932 -6.934,-6.932 -3.827,0.001 -6.931,3.105 -6.931,6.932 z"/><linearGradient id="XMLID_20_" x1="63.685" x2="63.685" y1="151.887" y2="165.75" gradientUnits="userSpaceOnUse"><stop style="stop-color:#ccc" id="stop697" offset="0"/><stop style="stop-color:#fff" id="stop698" offset="1"/></linearGradient><path style="fill:url(#XMLID_20_);stroke:none" id="path702" d="m 58.352,158.818 c 0,2.94 2.392,5.332 5.332,5.332 2.94,0 5.333,-2.392 5.333,-5.332 0,-2.939 -2.393,-5.332 -5.333,-5.332 -2.94,0 -5.332,2.393 -5.332,5.332 z"/><linearGradient id="XMLID_21_" x1="86.08" x2="86.08" y1="151.887" y2="165.75" gradientUnits="userSpaceOnUse"><stop style="stop-color:#ccc" id="stop704" offset="0"/><stop style="stop-color:#fff" id="stop705" offset="1"/></linearGradient><path style="fill:url(#XMLID_21_);stroke:none" id="path709" d="m 80.748,158.818 c 0,2.94 2.393,5.332 5.332,5.332 2.94,0 5.332,-2.392 5.332,-5.332 0,-2.939 -2.392,-5.332 -5.332,-5.332 -2.94,0 -5.332,2.393 -5.332,5.332 z"/><linearGradient id="XMLID_22_" x1="108.474" x2="108.474" y1="151.887" y2="165.75" gradientUnits="userSpaceOnUse"><stop style="stop-color:#ccc" id="stop711" offset="0"/><stop style="stop-color:#fff" id="stop712" offset="1"/></linearGradient><path style="fill:url(#XMLID_22_);stroke:none" id="path716" d="m 103.142,158.818 c 0,2.94 2.393,5.332 5.332,5.332 2.939,0 5.332,-2.392 5.332,-5.332 0,-2.939 -2.393,-5.332 -5.332,-5.332 -2.939,0 -5.332,2.393 -5.332,5.332 z"/><linearGradient id="XMLID_23_" x1="130.87" x2="130.87" y1="151.887" y2="165.75" gradientUnits="userSpaceOnUse"><stop style="stop-color:#034cfe" id="stop718" offset="0"/><stop style="stop-color:#fff" id="stop719" offset="1"/></linearGradient><path style="fill:url(#XMLID_23_);stroke:none" id="path723" d="m 125.537,158.818 c 0,2.94 2.394,5.332 5.333,5.332 2.941,0 5.334,-2.392 5.334,-5.332 0,-2.939 -2.393,-5.332 -5.334,-5.332 -2.94,0 -5.333,2.393 -5.333,5.332 z"/><linearGradient id="XMLID_24_" x1="63.685" x2="63.685" y1="125.697" y2="139.561" gradientUnits="userSpaceOnUse"><stop style="stop-color:#494949" id="stop725" offset="0"/><stop style="stop-color:#949494" id="stop726" offset="1"/></linearGradient><path style="fill:url(#XMLID_24_);stroke:none" id="path730" d="m 55.153,132.63 c 0,4.704 3.827,8.531 8.531,8.531 4.705,0 8.532,-3.827 8.532,-8.531 0,-4.705 -3.827,-8.531 -8.532,-8.531 -4.704,0 -8.531,3.826 -8.531,8.531 z"/><linearGradient id="XMLID_25_" x1="63.684" x2="63.684" y1="139.561" y2="125.699" gradientUnits="userSpaceOnUse"><stop style="stop-color:#7e00b3" id="stop732" offset="0"/><stop style="stop-color:#fcf" id="stop733" offset="1"/></linearGradient><path style="fill:url(#XMLID_25_);stroke:none" id="path737" d="m 56.752,132.63 c 0,3.828 3.104,6.932 6.932,6.932 3.829,0 6.932,-3.104 6.932,-6.932 0,-3.829 -3.103,-6.932 -6.932,-6.932 -3.828,0 -6.932,3.103 -6.932,6.932 z"/><linearGradient id="XMLID_26_" x1="86.08" x2="86.08" y1="125.697" y2="139.561" gradientUnits="userSpaceOnUse"><stop style="stop-color:#494949" id="stop739" offset="0"/><stop style="stop-color:#949494" id="stop740" offset="1"/></linearGradient><path style="fill:url(#XMLID_26_);stroke:none" id="path744" d="m 77.548,132.63 c 0,4.704 3.827,8.531 8.531,8.531 4.704,0 8.531,-3.827 8.531,-8.531 0,-4.705 -3.827,-8.531 -8.531,-8.531 -4.704,0 -8.531,3.826 -8.531,8.531 z"/><linearGradient id="XMLID_27_" x1="86.079" x2="86.079" y1="139.561" y2="125.699" gradientUnits="userSpaceOnUse"><stop style="stop-color:#7e00b3" id="stop746" offset="0"/><stop style="stop-color:#fcf" id="stop747" offset="1"/></linearGradient><path style="fill:url(#XMLID_27_);stroke:none" id="path751" d="m 79.147,132.63 c 0,3.828 3.104,6.932 6.933,6.932 3.829,0 6.932,-3.104 6.932,-6.932 0,-3.829 -3.104,-6.932 -6.932,-6.932 -3.828,0 -6.933,3.103 -6.933,6.932 z"/><linearGradient id="XMLID_28_" x1="108.474" x2="108.474" y1="125.697" y2="139.561" gradientUnits="userSpaceOnUse"><stop style="stop-color:#494949" id="stop753" offset="0"/><stop style="stop-color:#949494" id="stop754" offset="1"/></linearGradient><path style="fill:url(#XMLID_28_);stroke:none" id="path758" d="m 99.943,132.63 c 0,4.704 3.827,8.531 8.531,8.531 4.704,0 8.531,-3.827 8.531,-8.531 0,-4.705 -3.827,-8.531 -8.531,-8.531 -4.704,0 -8.531,3.826 -8.531,8.531 z"/><linearGradient id="XMLID_29_" x1="108.475" x2="108.475" y1="139.561" y2="125.699" gradientUnits="userSpaceOnUse"><stop style="stop-color:#7e00b3" id="stop760" offset="0"/><stop style="stop-color:#fcf" id="stop761" offset="1"/></linearGradient><path style="fill:url(#XMLID_29_);stroke:none" id="path765" d="m 101.543,132.63 c 0,3.828 3.103,6.932 6.931,6.932 3.828,0 6.933,-3.104 6.933,-6.932 0,-3.829 -3.104,-6.932 -6.933,-6.932 -3.829,0 -6.931,3.103 -6.931,6.932 z"/><linearGradient id="XMLID_30_" x1="130.871" x2="130.871" y1="125.697" y2="139.561" gradientUnits="userSpaceOnUse"><stop style="stop-color:#494949" id="stop767" offset="0"/><stop style="stop-color:#949494" id="stop768" offset="1"/></linearGradient><path style="fill:url(#XMLID_30_);stroke:none" id="path772" d="m 122.338,132.63 c 0,4.704 3.826,8.531 8.531,8.531 4.705,0 8.533,-3.827 8.533,-8.531 0,-4.705 -3.828,-8.531 -8.533,-8.531 -4.704,0 -8.531,3.826 -8.531,8.531 z"/><linearGradient id="XMLID_31_" x1="130.87" x2="130.87" y1="139.561" y2="125.699" gradientUnits="userSpaceOnUse"><stop style="stop-color:#900" id="stop774" offset="0"/><stop style="stop-color:#cf0000" id="stop775" offset="1"/></linearGradient><path style="fill:url(#XMLID_31_);stroke:none" id="path779" d="m 123.938,132.63 c 0,3.828 3.104,6.932 6.931,6.932 3.83,0 6.934,-3.104 6.934,-6.932 0,-3.829 -3.104,-6.932 -6.934,-6.932 -3.827,0 -6.931,3.103 -6.931,6.932 z"/><linearGradient id="XMLID_32_" x1="63.685" x2="63.685" y1="125.697" y2="139.563" gradientUnits="userSpaceOnUse"><stop style="stop-color:#ff02ff" id="stop781" offset="0"/><stop style="stop-color:#fff" id="stop782" offset="1"/></linearGradient><path style="fill:url(#XMLID_32_);stroke:none" id="path786" d="m 58.352,132.63 c 0,2.94 2.392,5.332 5.332,5.332 2.94,0 5.333,-2.392 5.333,-5.332 0,-2.94 -2.393,-5.333 -5.333,-5.333 -2.94,0 -5.332,2.392 -5.332,5.333 z"/><linearGradient id="XMLID_33_" x1="86.08" x2="86.08" y1="125.697" y2="139.563" gradientUnits="userSpaceOnUse"><stop style="stop-color:#ff02ff" id="stop788" offset="0"/><stop style="stop-color:#fff" id="stop789" offset="1"/></linearGradient><path style="fill:url(#XMLID_33_);stroke:none" id="path793" d="m 80.748,132.63 c 0,2.94 2.393,5.332 5.332,5.332 2.94,0 5.332,-2.392 5.332,-5.332 0,-2.94 -2.392,-5.333 -5.332,-5.333 -2.94,0 -5.332,2.392 -5.332,5.333 z"/><linearGradient id="XMLID_34_" x1="108.474" x2="108.474" y1="125.697" y2="139.563" gradientUnits="userSpaceOnUse"><stop style="stop-color:#ff02ff" id="stop795" offset="0"/><stop style="stop-color:#fff" id="stop796" offset="1"/></linearGradient><path style="fill:url(#XMLID_34_);stroke:none" id="path800" d="m 103.142,132.63 c 0,2.94 2.393,5.332 5.332,5.332 2.939,0 5.332,-2.392 5.332,-5.332 0,-2.94 -2.393,-5.333 -5.332,-5.333 -2.939,0 -5.332,2.392 -5.332,5.333 z"/><linearGradient id="XMLID_35_" x1="130.87" x2="130.87" y1="127.653" y2="147.918" gradientUnits="userSpaceOnUse"><stop style="stop-color:#f66" id="stop802" offset="0"/><stop style="stop-color:#fff" id="stop803" offset="1"/></linearGradient><path style="fill:url(#XMLID_35_);stroke:none" id="path807" d="m 125.537,132.63 c 0,2.94 2.394,5.332 5.333,5.332 2.941,0 5.334,-2.392 5.334,-5.332 0,-2.94 -2.393,-5.333 -5.334,-5.333 -2.94,0 -5.333,2.392 -5.333,5.333 z"/><linearGradient id="XMLID_36_" x1="63.685" x2="63.685" y1="172.149" y2="186.013" gradientUnits="userSpaceOnUse"><stop style="stop-color:#494949" id="stop809" offset="0"/><stop style="stop-color:#949494" id="stop810" offset="1"/></linearGradient><path style="fill:url(#XMLID_36_);stroke:none" id="path814" d="m 55.153,179.08 c 0,4.704 3.827,8.531 8.531,8.531 4.705,0 8.532,-3.827 8.532,-8.531 0,-4.704 -3.827,-8.531 -8.532,-8.531 -4.704,0 -8.531,3.827 -8.531,8.531 z"/><linearGradient id="XMLID_37_" x1="63.684" x2="63.684" y1="186.013" y2="172.148" gradientUnits="userSpaceOnUse"><stop style="stop-color:#b6b6b6" id="stop816" offset="0"/><stop style="stop-color:#dadada" id="stop817" offset="1"/></linearGradient><path style="fill:url(#XMLID_37_);stroke:none" id="path821" d="m 56.752,179.08 c 0,3.829 3.104,6.933 6.932,6.933 3.829,0 6.932,-3.104 6.932,-6.933 0,-3.828 -3.103,-6.932 -6.932,-6.932 -3.828,0 -6.932,3.104 -6.932,6.932 z"/><linearGradient id="XMLID_38_" x1="86.08" x2="86.08" y1="172.149" y2="186.013" gradientUnits="userSpaceOnUse"><stop style="stop-color:#494949" id="stop823" offset="0"/><stop style="stop-color:#949494" id="stop824" offset="1"/></linearGradient><path style="fill:url(#XMLID_38_);stroke:none" id="path828" d="m 77.548,179.08 c 0,4.704 3.827,8.531 8.531,8.531 4.704,0 8.531,-3.827 8.531,-8.531 0,-4.704 -3.827,-8.531 -8.531,-8.531 -4.704,0 -8.531,3.827 -8.531,8.531 z"/><linearGradient id="XMLID_39_" x1="86.079" x2="86.079" y1="186.013" y2="172.148" gradientUnits="userSpaceOnUse"><stop style="stop-color:#b6b6b6" id="stop830" offset="0"/><stop style="stop-color:#dadada" id="stop831" offset="1"/></linearGradient><path style="fill:url(#XMLID_39_);stroke:none" id="path835" d="m 79.147,179.08 c 0,3.829 3.104,6.933 6.933,6.933 3.829,0 6.932,-3.104 6.932,-6.933 0,-3.828 -3.104,-6.932 -6.932,-6.932 -3.828,0 -6.933,3.104 -6.933,6.932 z"/><linearGradient id="XMLID_40_" x1="108.474" x2="108.474" y1="172.149" y2="186.013" gradientUnits="userSpaceOnUse"><stop style="stop-color:#494949" id="stop837" offset="0"/><stop style="stop-color:#949494" id="stop838" offset="1"/></linearGradient><path style="fill:url(#XMLID_40_);stroke:none" id="path842" d="m 99.943,179.08 c 0,4.704 3.827,8.531 8.531,8.531 4.704,0 8.531,-3.827 8.531,-8.531 0,-4.704 -3.827,-8.531 -8.531,-8.531 -4.704,0 -8.531,3.827 -8.531,8.531 z"/><linearGradient id="XMLID_41_" x1="108.475" x2="108.475" y1="186.013" y2="172.148" gradientUnits="userSpaceOnUse"><stop style="stop-color:#b6b6b6" id="stop844" offset="0"/><stop style="stop-color:#dadada" id="stop845" offset="1"/></linearGradient><path style="fill:url(#XMLID_41_);stroke:none" id="path849" d="m 101.543,179.08 c 0,3.829 3.103,6.933 6.931,6.933 3.828,0 6.933,-3.104 6.933,-6.933 0,-3.828 -3.104,-6.932 -6.933,-6.932 -3.829,0 -6.931,3.104 -6.931,6.932 z"/><linearGradient id="XMLID_42_" x1="130.871" x2="130.871" y1="172.149" y2="186.013" gradientUnits="userSpaceOnUse"><stop style="stop-color:#494949" id="stop851" offset="0"/><stop style="stop-color:#949494" id="stop852" offset="1"/></linearGradient><path style="fill:url(#XMLID_42_);stroke:none" id="path856" d="m 122.338,179.08 c 0,4.704 3.826,8.531 8.531,8.531 4.705,0 8.533,-3.827 8.533,-8.531 0,-4.704 -3.828,-8.531 -8.533,-8.531 -4.704,0 -8.531,3.827 -8.531,8.531 z"/><linearGradient id="XMLID_43_" x1="130.87" x2="130.87" y1="186.013" y2="172.148" gradientUnits="userSpaceOnUse"><stop style="stop-color:#006dff" id="stop858" offset="0"/><stop style="stop-color:#c9e6ff" id="stop859" offset="1"/></linearGradient><path style="fill:url(#XMLID_43_);stroke:none" id="path863" d="m 123.938,179.08 c 0,3.829 3.104,6.933 6.931,6.933 3.83,0 6.934,-3.104 6.934,-6.933 0,-3.828 -3.104,-6.932 -6.934,-6.932 -3.827,0 -6.931,3.104 -6.931,6.932 z"/><linearGradient id="XMLID_44_" x1="63.685" x2="63.685" y1="172.148" y2="186.012" gradientUnits="userSpaceOnUse"><stop style="stop-color:#ccc" id="stop865" offset="0"/><stop style="stop-color:#fff" id="stop866" offset="1"/></linearGradient><path style="fill:url(#XMLID_44_);stroke:none" id="path870" d="m 58.352,179.08 c 0,2.94 2.392,5.332 5.332,5.332 2.94,0 5.333,-2.392 5.333,-5.332 0,-2.939 -2.393,-5.332 -5.333,-5.332 -2.94,0 -5.332,2.393 -5.332,5.332 z"/><linearGradient id="XMLID_45_" x1="86.08" x2="86.08" y1="172.148" y2="186.012" gradientUnits="userSpaceOnUse"><stop style="stop-color:#ccc" id="stop872" offset="0"/><stop style="stop-color:#fff" id="stop873" offset="1"/></linearGradient><path style="fill:url(#XMLID_45_);stroke:none" id="path877" d="m 80.748,179.08 c 0,2.94 2.393,5.332 5.332,5.332 2.94,0 5.332,-2.392 5.332,-5.332 0,-2.939 -2.392,-5.332 -5.332,-5.332 -2.94,0 -5.332,2.393 -5.332,5.332 z"/><linearGradient id="XMLID_46_" x1="108.474" x2="108.474" y1="172.148" y2="186.012" gradientUnits="userSpaceOnUse"><stop style="stop-color:#ccc" id="stop879" offset="0"/><stop style="stop-color:#fff" id="stop880" offset="1"/></linearGradient><path style="fill:url(#XMLID_46_);stroke:none" id="path884" d="m 103.142,179.08 c 0,2.94 2.393,5.332 5.332,5.332 2.939,0 5.332,-2.392 5.332,-5.332 0,-2.939 -2.393,-5.332 -5.332,-5.332 -2.939,0 -5.332,2.393 -5.332,5.332 z"/><linearGradient id="XMLID_47_" x1="130.87" x2="130.87" y1="172.148" y2="186.012" gradientUnits="userSpaceOnUse"><stop style="stop-color:#034cfe" id="stop886" offset="0"/><stop style="stop-color:#fff" id="stop887" offset="1"/></linearGradient><path style="fill:url(#XMLID_47_);stroke:none" id="path891" d="m 125.537,179.08 c 0,2.94 2.394,5.332 5.333,5.332 2.941,0 5.334,-2.392 5.334,-5.332 0,-2.939 -2.393,-5.332 -5.334,-5.332 -2.94,0 -5.333,2.393 -5.333,5.332 z"/><linearGradient id="XMLID_48_" x1="63.685" x2="63.685" y1="192.41" y2="206.274" gradientUnits="userSpaceOnUse"><stop style="stop-color:#494949" id="stop893" offset="0"/><stop style="stop-color:#949494" id="stop894" offset="1"/></linearGradient><path style="fill:url(#XMLID_48_);stroke:none" id="path898" d="m 55.153,199.342 c 0,4.704 3.827,8.531 8.531,8.531 4.705,0 8.532,-3.827 8.532,-8.531 0,-4.704 -3.827,-8.532 -8.532,-8.532 -4.704,0 -8.531,3.828 -8.531,8.532 z"/><linearGradient id="XMLID_49_" x1="63.684" x2="63.684" y1="206.273" y2="192.41" gradientUnits="userSpaceOnUse"><stop style="stop-color:#b6b6b6" id="stop900" offset="0"/><stop style="stop-color:#dadada" id="stop901" offset="1"/></linearGradient><path style="fill:url(#XMLID_49_);stroke:none" id="path905" d="m 56.752,199.342 c 0,3.828 3.104,6.932 6.932,6.932 3.829,0 6.932,-3.104 6.932,-6.932 0,-3.828 -3.103,-6.932 -6.932,-6.932 -3.828,0 -6.932,3.104 -6.932,6.932 z"/><linearGradient id="XMLID_50_" x1="86.08" x2="86.08" y1="192.41" y2="206.274" gradientUnits="userSpaceOnUse"><stop style="stop-color:#494949" id="stop907" offset="0"/><stop style="stop-color:#949494" id="stop908" offset="1"/></linearGradient><path style="fill:url(#XMLID_50_);stroke:none" id="path912" d="m 77.548,199.342 c 0,4.704 3.827,8.531 8.531,8.531 4.704,0 8.531,-3.827 8.531,-8.531 0,-4.704 -3.827,-8.532 -8.531,-8.532 -4.704,0 -8.531,3.828 -8.531,8.532 z"/><linearGradient id="XMLID_51_" x1="86.079" x2="86.079" y1="206.273" y2="192.41" gradientUnits="userSpaceOnUse"><stop style="stop-color:#b6b6b6" id="stop914" offset="0"/><stop style="stop-color:#dadada" id="stop915" offset="1"/></linearGradient><path style="fill:url(#XMLID_51_);stroke:none" id="path919" d="m 79.147,199.342 c 0,3.828 3.104,6.932 6.933,6.932 3.829,0 6.932,-3.104 6.932,-6.932 0,-3.828 -3.104,-6.932 -6.932,-6.932 -3.828,0 -6.933,3.104 -6.933,6.932 z"/><linearGradient id="XMLID_52_" x1="108.474" x2="108.474" y1="192.41" y2="206.274" gradientUnits="userSpaceOnUse"><stop style="stop-color:#494949" id="stop921" offset="0"/><stop style="stop-color:#949494" id="stop922" offset="1"/></linearGradient><path style="fill:url(#XMLID_52_);stroke:none" id="path926" d="m 99.943,199.342 c 0,4.704 3.827,8.531 8.531,8.531 4.704,0 8.531,-3.827 8.531,-8.531 0,-4.704 -3.827,-8.532 -8.531,-8.532 -4.704,0 -8.531,3.828 -8.531,8.532 z"/><linearGradient id="XMLID_53_" x1="108.475" x2="108.475" y1="206.273" y2="192.41" gradientUnits="userSpaceOnUse"><stop style="stop-color:#b6b6b6" id="stop928" offset="0"/><stop style="stop-color:#dadada" id="stop929" offset="1"/></linearGradient><path style="fill:url(#XMLID_53_);stroke:none" id="path933" d="m 101.543,199.342 c 0,3.828 3.103,6.932 6.931,6.932 3.828,0 6.933,-3.104 6.933,-6.932 0,-3.828 -3.104,-6.932 -6.933,-6.932 -3.829,0 -6.931,3.104 -6.931,6.932 z"/><linearGradient id="XMLID_54_" x1="130.871" x2="130.871" y1="192.41" y2="206.274" gradientUnits="userSpaceOnUse"><stop style="stop-color:#494949" id="stop935" offset="0"/><stop style="stop-color:#949494" id="stop936" offset="1"/></linearGradient><path style="fill:url(#XMLID_54_);stroke:none" id="path940" d="m 122.338,199.342 c 0,4.704 3.826,8.531 8.531,8.531 4.705,0 8.533,-3.827 8.533,-8.531 0,-4.704 -3.828,-8.532 -8.533,-8.532 -4.704,0 -8.531,3.828 -8.531,8.532 z"/><linearGradient id="XMLID_55_" x1="130.87" x2="130.87" y1="206.273" y2="192.41" gradientUnits="userSpaceOnUse"><stop style="stop-color:#006dff" id="stop942" offset="0"/><stop style="stop-color:#c9e6ff" id="stop943" offset="1"/></linearGradient><path style="fill:url(#XMLID_55_);stroke:none" id="path947" d="m 123.938,199.342 c 0,3.828 3.104,6.932 6.931,6.932 3.83,0 6.934,-3.104 6.934,-6.932 0,-3.828 -3.104,-6.932 -6.934,-6.932 -3.827,0 -6.931,3.104 -6.931,6.932 z"/><linearGradient id="XMLID_56_" x1="63.685" x2="63.685" y1="192.41" y2="206.273" gradientUnits="userSpaceOnUse"><stop style="stop-color:#ccc" id="stop949" offset="0"/><stop style="stop-color:#fff" id="stop950" offset="1"/></linearGradient><path style="fill:url(#XMLID_56_);stroke:none" id="path954" d="m 58.352,199.342 c 0,2.94 2.392,5.332 5.332,5.332 2.94,0 5.333,-2.392 5.333,-5.332 0,-2.94 -2.393,-5.332 -5.333,-5.332 -2.94,0 -5.332,2.391 -5.332,5.332 z"/><linearGradient id="XMLID_57_" x1="86.08" x2="86.08" y1="192.41" y2="206.273" gradientUnits="userSpaceOnUse"><stop style="stop-color:#ccc" id="stop956" offset="0"/><stop style="stop-color:#fff" id="stop957" offset="1"/></linearGradient><path style="fill:url(#XMLID_57_);stroke:none" id="path961" d="m 80.748,199.342 c 0,2.94 2.393,5.332 5.332,5.332 2.94,0 5.332,-2.392 5.332,-5.332 0,-2.94 -2.392,-5.332 -5.332,-5.332 -2.94,0 -5.332,2.391 -5.332,5.332 z"/><linearGradient id="XMLID_58_" x1="108.474" x2="108.474" y1="192.41" y2="206.273" gradientUnits="userSpaceOnUse"><stop style="stop-color:#ccc" id="stop963" offset="0"/><stop style="stop-color:#fff" id="stop964" offset="1"/></linearGradient><path style="fill:url(#XMLID_58_);stroke:none" id="path968" d="m 103.142,199.342 c 0,2.94 2.393,5.332 5.332,5.332 2.939,0 5.332,-2.392 5.332,-5.332 0,-2.94 -2.393,-5.332 -5.332,-5.332 -2.939,0 -5.332,2.391 -5.332,5.332 z"/><linearGradient id="XMLID_59_" x1="130.87" x2="130.87" y1="192.41" y2="206.273" gradientUnits="userSpaceOnUse"><stop style="stop-color:#034cfe" id="stop970" offset="0"/><stop style="stop-color:#fff" id="stop971" offset="1"/></linearGradient><path style="fill:url(#XMLID_59_);stroke:none" id="path975" d="m 125.537,199.342 c 0,2.94 2.394,5.332 5.333,5.332 2.941,0 5.334,-2.392 5.334,-5.332 0,-2.94 -2.393,-5.332 -5.334,-5.332 -2.94,0 -5.333,2.391 -5.333,5.332 z"/></g></svg>