<svg xmlns="http://www.w3.org/2000/svg" xmlns:pdf="http://ns.adobe.com/pdf/1.3/" xmlns:svg="http://www.w3.org/2000/svg" xmlns:x="adobe:ns:meta/" xmlns:xap="http://ns.adobe.com/xap/1.0/" xmlns:xapGImg="http://ns.adobe.com/xap/1.0/g/img/" xmlns:xapMM="http://ns.adobe.com/xap/1.0/mm/" xmlns:xlink="http://www.w3.org/1999/xlink" style="overflow:visible;enable-background:new 0 0 48 48" id="svg548" width="64" height="64" version="1.1" viewBox="0 0 48 48" xml:space="preserve"><defs id="defs624"><linearGradient id="linearGradient4451"><stop style="stop-color:#13ac13;stop-opacity:1" id="stop4453" offset="0"/><stop style="stop-color:#55d755;stop-opacity:1" id="stop4455" offset="1"/></linearGradient><radialGradient id="XMLID_9_" cx="49.904" cy="47.093" r="30.084" fx="49.904" fy="47.093" gradientTransform="matrix(0.375,0,0,0.375,15,15)" gradientUnits="userSpaceOnUse"><stop id="stop555" offset="0" style="stop-color:#389e1c;stop-opacity:1"/><stop id="stop556" offset="1" style="stop-color:#00590e;stop-opacity:1"/></radialGradient><linearGradient id="XMLID_10_" x1="33.715" x2="33.715" y1="29.923" y2="40.927" gradientUnits="userSpaceOnUse"><stop id="stop562" offset="0" style="stop-color:#6cd33c;stop-opacity:1"/><stop id="stop563" offset="1" style="stop-color:#58bf2c;stop-opacity:1"/></linearGradient><linearGradient id="XMLID_11_" x1="43.628" x2="36.878" y1="24.515" y2="29.577" gradientUnits="userSpaceOnUse"><stop id="stop569" offset="0" style="stop-color:#78df45;stop-opacity:1"/><stop id="stop570" offset="1" style="stop-color:#40a622;stop-opacity:1"/></linearGradient><radialGradient id="XMLID_12_" cx="16.351" cy="37.996" r="49.415" fx="16.351" fy="37.996" gradientTransform="matrix(0.375,0,0,0.375,15,15)" gradientUnits="userSpaceOnUse"><stop id="stop576" offset="0" style="stop-color:#00352f;stop-opacity:1"/><stop id="stop577" offset="1" style="stop-color:#006205;stop-opacity:1"/></radialGradient><radialGradient id="XMLID_13_" cx="38.168" cy="18.062" r="90.268" fx="38.168" fy="18.062" gradientTransform="matrix(0.3715,-0.0512,0.0512,0.3715,13.2702,17.0873)" gradientUnits="userSpaceOnUse"><stop id="stop584" offset="0" style="stop-color:#9cf"/><stop id="stop585" offset=".5" style="stop-color:#39f"/><stop id="stop586" offset="1" style="stop-color:#36f"/></radialGradient><linearGradient id="XMLID_14_" x1="9.665" x2="9.665" y1="14.93" y2="11.93" gradientTransform="matrix(0.9907,-0.1364,0.1364,0.9907,-4.6134,5.5667)" gradientUnits="userSpaceOnUse"><stop id="stop594" offset="0" style="stop-color:#6dcf6d;stop-opacity:1"/><stop id="stop595" offset=".055" style="stop-color:#3b9dff"/><stop id="stop596" offset=".344" style="stop-color:#55ba3b;stop-opacity:1"/><stop id="stop597" offset=".608" style="stop-color:#c4efbf;stop-opacity:1"/><stop id="stop598" offset=".835" style="stop-color:#e0f5e0;stop-opacity:1"/><stop id="stop599" offset="1" style="stop-color:#e1f5e1;stop-opacity:1"/></linearGradient><linearGradient id="XMLID_15_" x1="13.466" x2="29.062" y1="13.735" y2="34.065" gradientTransform="matrix(0.9907,-0.1364,0.1364,0.9907,-4.6134,5.5667)" gradientUnits="userSpaceOnUse"><stop id="stop605" offset="0" style="stop-color:#fff;stop-opacity:1"/><stop id="stop606" offset="1" style="stop-color:#d1fcd1;stop-opacity:1"/></linearGradient><linearGradient id="XMLID_16_" x1="41.555" x2="36.153" y1="40.628" y2="36.65" gradientUnits="userSpaceOnUse"><stop id="stop615" offset="0" style="stop-color:#73c97d;stop-opacity:1"/><stop id="stop616" offset="1" style="stop-color:#2ec72e;stop-opacity:1"/></linearGradient><linearGradient id="linearGradient4457" x1="1.64" x2="35.557" y1="29.249" y2="39.377" gradientUnits="userSpaceOnUse" xlink:href="#linearGradient4451"/></defs><metadata id="metadata549"><xpacket>begin=&apos; &apos; id=&apos;W5M0MpCehiHzreSzNTczkc9d&apos;</xpacket><x:xmpmeta x:xmptk="XMP toolkit 3.0-29, framework 1.6"><metadata/></x:xmpmeta><xpacket>end=&apos;w&apos;</xpacket></metadata><g id="g4459" transform="translate(-0.18050642,-5.8429442)"><path style="opacity:.2" id="path551" d="M 47.478,24.783 C 47.313,24.59 47.06,24.492 46.808,24.526 l -6.46,0.861 -1.453,-10.557 c -0.034,-0.247 -0.164,-0.469 -0.362,-0.619 -0.198,-0.15 -0.448,-0.216 -0.694,-0.182 0,0 -22.452,3.091 -24.175,3.328 -0.009,-0.064 -0.029,-0.211 -0.029,-0.211 -0.252,-1.833 -1.874,-3.128 -3.615,-2.889 l -5.583,0.769 c -0.813,0.112 -1.541,0.542 -2.049,1.212 -0.444,0.586 -0.684,1.321 -0.684,2.069 0,0.159 0.011,0.318 0.033,0.477 l 0.325,2.357 c 0,0 0.008,0.048 0.013,0.072 0.004,0.032 2.814,20.443 2.814,20.443 0.019,0.136 0.066,0.265 0.14,0.379 1.105,1.719 2.423,3.261 3.918,4.583 0.205,0.181 0.479,0.264 0.75,0.227 L 41.75,42.432 c 0.246,-0.034 0.469,-0.164 0.619,-0.362 0.014,-0.019 0.023,-0.039 0.035,-0.059 0.189,-0.089 0.34,-0.249 0.402,-0.457 l 4.82,-16.067 c 0.072,-0.246 0.017,-0.51 -0.148,-0.704 z"/><path style="opacity:.2" id="path552" d="m 47.229,24.408 c -0.165,-0.194 -0.418,-0.291 -0.67,-0.257 l -6.46,0.861 -1.453,-10.557 c -0.034,-0.247 -0.164,-0.469 -0.362,-0.619 -0.198,-0.15 -0.448,-0.216 -0.694,-0.182 0,0 -22.452,3.091 -24.175,3.328 -0.009,-0.064 -0.029,-0.211 -0.029,-0.211 -0.252,-1.833 -1.874,-3.128 -3.615,-2.889 L 4.187,14.65 c -0.813,0.112 -1.541,0.542 -2.049,1.212 -0.444,0.586 -0.684,1.321 -0.684,2.069 0,0.159 0.011,0.318 0.033,0.477 l 0.325,2.357 c 0,0 0.008,0.048 0.013,0.072 0.003,0.032 2.814,20.443 2.814,20.443 0.019,0.136 0.066,0.265 0.14,0.379 1.105,1.719 2.423,3.261 3.918,4.583 0.205,0.181 0.479,0.264 0.75,0.227 L 41.5,42.056 c 0.246,-0.034 0.469,-0.164 0.619,-0.362 0.014,-0.019 0.023,-0.039 0.036,-0.059 0.188,-0.089 0.34,-0.249 0.401,-0.457 l 4.82,-16.067 c 0.073,-0.245 0.018,-0.509 -0.147,-0.703 z"/><path style="opacity:.2" id="path553" d="m 46.854,23.971 c -0.165,-0.194 -0.418,-0.291 -0.67,-0.257 l -6.46,0.862 -1.453,-10.558 c -0.034,-0.247 -0.164,-0.469 -0.362,-0.62 -0.198,-0.15 -0.448,-0.215 -0.694,-0.182 0,0 -22.452,3.092 -24.175,3.329 -0.009,-0.064 -0.029,-0.211 -0.029,-0.211 -0.252,-1.833 -1.874,-3.129 -3.615,-2.889 L 3.813,14.214 C 3,14.326 2.272,14.756 1.764,15.426 1.32,16.012 1.08,16.746 1.08,17.495 c 0,0.159 0.011,0.318 0.033,0.477 l 0.325,2.357 c 0,0 0.008,0.048 0.013,0.071 0.004,0.032 2.814,20.443 2.814,20.443 0.019,0.135 0.066,0.265 0.14,0.38 1.105,1.717 2.423,3.259 3.918,4.582 0.205,0.182 0.479,0.264 0.75,0.227 l 32.053,-4.414 c 0.246,-0.033 0.469,-0.164 0.619,-0.361 0.014,-0.019 0.023,-0.039 0.036,-0.059 0.188,-0.089 0.34,-0.249 0.401,-0.457 l 4.82,-16.068 c 0.072,-0.244 0.017,-0.509 -0.148,-0.702 z"/><path style="fill:url(#XMLID_9_)" id="path560" d="M 45.809,23.338 21.421,26.59 c -0.393,0.052 -0.677,0.4 -0.649,0.796 l 0.98,13.903 c 0.029,0.409 0.382,0.72 0.792,0.696 L 41.13,40.897 c 0.315,-0.02 0.585,-0.231 0.675,-0.533 l 4.82,-16.068 c 0.073,-0.244 0.018,-0.508 -0.147,-0.702 -0.165,-0.193 -0.417,-0.289 -0.669,-0.256 z"/><path style="fill:url(#XMLID_10_)" id="path567" d="m 21.52,27.334 c 0.046,0.652 0.932,13.219 0.98,13.903 0.702,-0.041 18.087,-1.059 18.587,-1.088 0.141,-0.472 4.513,-15.044 4.82,-16.067 -1.083,0.145 -23.723,3.163 -24.387,3.252 z"/><path style="opacity:.5;fill:url(#XMLID_11_)" id="path574" d="m 21.121,27.948 c 0.066,0.941 0.886,12.556 0.955,13.544 1.025,-0.061 17.539,-1.027 18.271,-1.07 0.205,-0.684 4.257,-14.191 4.699,-15.663 -1.576,0.21 -22.955,3.059 -23.925,3.189 z"/><path style="fill:url(#XMLID_12_)" id="path581" d="m 36.839,12.841 c 0,0 -22.452,3.092 -24.175,3.329 C 12.655,16.106 12.635,15.959 12.635,15.959 12.383,14.126 10.761,12.83 9.02,13.07 L 3.437,13.839 C 2.624,13.95 1.896,14.38 1.388,15.05 c -0.444,0.586 -0.684,1.32 -0.684,2.069 0,0.159 0.011,0.318 0.033,0.477 l 0.325,2.357 c 0,0 0.008,0.048 0.013,0.071 0.004,0.032 2.814,20.443 2.814,20.443 0.019,0.135 0.066,0.265 0.14,0.38 1.105,1.717 2.423,3.259 3.918,4.582 0.205,0.182 0.479,0.264 0.75,0.227 L 40.75,41.242 c 0.246,-0.033 0.469,-0.164 0.619,-0.361 0.15,-0.198 0.216,-0.448 0.182,-0.694 L 37.897,13.643 c -0.034,-0.247 -0.164,-0.469 -0.362,-0.62 -0.2,-0.15 -0.45,-0.216 -0.696,-0.182 z"/><path style="opacity:.1" id="path582" d="m 39.396,14.767 c -0.034,-0.247 -0.164,-0.469 -0.362,-0.62 -0.198,-0.15 -0.448,-0.215 -0.694,-0.182 0,0 -13.947,1.92 -20.699,2.85 l -3.852,12.759 c -0.149,0.495 0.132,1.021 0.627,1.17 l 22.592,6.82 c 0.495,0.148 1.021,-0.132 1.17,-0.628 l 2.933,-9.715 -1.715,-12.454 z"/><path style="fill:url(#linearGradient4457);fill-opacity:1" id="path592" d="m 36.967,13.77 -25.104,3.457 -0.157,-1.14 C 11.524,14.764 10.378,13.829 9.147,13.999 L 3.564,14.768 C 2.333,14.937 1.482,16.147 1.665,17.47 L 1.99,19.827 C 1.993,19.846 1.997,19.864 2,19.883 L 4.817,40.34 c 1.046,1.626 2.312,3.114 3.751,4.388 L 40.621,40.315 36.967,13.77 Z"/><path style="fill:url(#XMLID_14_)" id="path603" d="M 3.642,15.324 C 2.72,15.451 2.084,16.379 2.223,17.392 l 0.325,2.357 c 0.14,1.013 1.003,1.734 1.925,1.607 l 5.583,-0.769 c 0.922,-0.126 1.558,-1.054 1.419,-2.068 L 11.15,16.162 C 11.01,15.149 10.147,14.428 9.225,14.554 l -5.583,0.77 z"/><path style="opacity:.8;fill:url(#XMLID_15_)" id="path610" d="m 2.459,19.088 c 0.11,0.798 2.076,15.077 2.957,21.48 0.192,0.256 0.39,0.506 0.593,0.752 0.054,-3.912 1.658,-7.941 4.879,-10.158 4.992,-3.606 11.109,-3.172 16.929,-4.885 4.777,-1.506 8.136,-5.882 8.846,-10.583 -0.098,-0.707 -0.16,-1.165 -0.178,-1.29 -1.061,0.146 -32.964,4.538 -34.026,4.684 z"/><path style="fill:#fff" id="path611" d="M 9.198,14.369 3.616,15.138 C 2.694,15.265 2.057,16.193 2.197,17.206 L 2.3,17.949 C 2.16,16.936 2.797,16.008 3.719,15.881 l 5.582,-0.769 c 0.922,-0.127 1.785,0.594 1.925,1.607 L 11.123,15.976 C 10.984,14.963 10.12,14.242 9.198,14.369 Z"/><path style="fill:#fff" id="path612" d="m 2.316,18.924 2.94,21.357 c 0.218,0.297 0.445,0.586 0.68,0.871 L 3.229,21.486 C 3.068,20.319 3.912,19.238 5.114,19.073 l 31.129,-4.286 c 0.117,-0.016 0.233,-0.02 0.349,-0.019 l -0.076,-0.553 -34.2,4.709 z"/><polygon style="fill:#00590e;fill-opacity:1" id="polygon613" points="38.731 32.001 31.636 42.053 41.243 40.73 39.828 30.447"/><polygon style="fill:url(#XMLID_16_)" id="polygon620" points="40.398 40.089 39.344 32.434 33.244 41.074"/><path style="fill:#fff" id="path621" d="m 39.13,34.537 c -0.04,-0.292 -0.078,-0.566 -0.111,-0.812 -1.105,1.579 -3.72,5.312 -4.738,6.767 0.226,-0.031 0.48,-0.066 0.753,-0.104 1.049,-1.5 2.987,-4.267 4.096,-5.851 z"/></g><polyline style="fill:none" id="_x3C_Slice_x3E_" points="0 48 0 0 48 0 48 48"/></svg>