<svg xmlns="http://www.w3.org/2000/svg" xmlns:svg="http://www.w3.org/2000/svg" xmlns:xlink="http://www.w3.org/1999/xlink" id="svg43586" width="128" height="128" version="1.0" viewBox="0 0 128 128"><metadata id="metadata170"/><defs id="defs43588"><filter id="filter3297"><feGaussianBlur id="feGaussianBlur3299" stdDeviation=".267"/></filter><filter id="filter3293"><feGaussianBlur id="feGaussianBlur3295" stdDeviation=".355"/></filter><linearGradient id="linearGradient44673-799" x1="83.281" x2="83.281" y1="123.098" y2="66.311" gradientTransform="matrix(0.93520883,0,0,0.97991754,2.9202182,-16.244621)" gradientUnits="userSpaceOnUse" xlink:href="#linearGradient3197-172"/><linearGradient id="linearGradient3197-172"><stop style="stop-color:#191919;stop-opacity:1" id="stop4445" offset="0"/><stop style="stop-color:#2f2f2f;stop-opacity:1" id="stop4447" offset="1"/></linearGradient><radialGradient id="radialGradient44670-496" cx="491.522" cy="670.925" r="36.427" fx="491.522" fy="670.925" gradientTransform="matrix(0,1.9831406,-1.8311893,0,1272.7482,-946.60612)" gradientUnits="userSpaceOnUse" xlink:href="#linearGradient3205-44"/><linearGradient id="linearGradient3205-44"><stop style="stop-color:#414141;stop-opacity:1" id="stop4451" offset="0"/><stop style="stop-color:#5c5c5c;stop-opacity:1" id="stop4453" offset=".25"/><stop style="stop-color:#fff;stop-opacity:1" id="stop4455" offset=".5"/><stop style="stop-color:#828282;stop-opacity:1" id="stop4457" offset="1"/></linearGradient><linearGradient id="linearGradient44667-286" x1="517.022" x2="517.022" y1="705.484" y2="745.301" gradientTransform="matrix(0.93520883,0,0,0.97991754,-415.63119,-640.38702)" gradientUnits="userSpaceOnUse" xlink:href="#linearGradient3219-254"/><linearGradient id="linearGradient3219-254"><stop style="stop-color:#3e3e3e;stop-opacity:1" id="stop4461" offset="0"/><stop style="stop-color:#878787;stop-opacity:1" id="stop4463" offset="1"/></linearGradient><linearGradient id="linearGradient44664-809" x1="517.022" x2="517.022" y1="705.484" y2="745.301" gradientTransform="matrix(-0.93520883,0,0,0.97991754,504.09636,-640.38702)" gradientUnits="userSpaceOnUse" xlink:href="#linearGradient3219-637"/><linearGradient id="linearGradient3219-637"><stop style="stop-color:#3e3e3e;stop-opacity:1" id="stop4467" offset="0"/><stop style="stop-color:#878787;stop-opacity:1" id="stop4469" offset="1"/></linearGradient><radialGradient id="radialGradient44658-589" cx="479.683" cy="709.658" r="5.006" fx="479.683" fy="709.658" gradientTransform="matrix(1.1540256,-0.14855863,0.17843476,1.5218046,-647.10928,-954.10956)" gradientUnits="userSpaceOnUse" xlink:href="#linearGradient3261-524"/><linearGradient id="linearGradient3261-524"><stop style="stop-color:#fff;stop-opacity:0" id="stop4473" offset="0"/><stop style="stop-color:#fff;stop-opacity:0" id="stop4475" offset=".5"/><stop style="stop-color:#fff;stop-opacity:1" id="stop4477" offset="1"/></linearGradient><radialGradient id="radialGradient44645-192" cx="53.602" cy="59.729" r="17.834" fx="53.602" fy="59.729" gradientTransform="matrix(0,2.4274692,-2.293406,0,173.46909,-111.15412)" gradientUnits="userSpaceOnUse" xlink:href="#linearGradient3327-3"/><linearGradient id="linearGradient3327-3"><stop style="stop-color:#fff;stop-opacity:1" id="stop4481" offset="0"/><stop style="stop-color:#cbcbcb;stop-opacity:1" id="stop4483" offset=".5"/><stop style="stop-color:#7e7e7e;stop-opacity:1" id="stop4485" offset="1"/></linearGradient><linearGradient id="linearGradient44647-180" x1="41.946" x2="41.946" y1="46.665" y2="82.333" gradientTransform="matrix(1.3991107,0,0,1.4659967,-39.405687,-62.888049)" gradientUnits="userSpaceOnUse" xlink:href="#linearGradient3319-513"/><linearGradient id="linearGradient3319-513"><stop style="stop-color:#4e4e4e;stop-opacity:1" id="stop4489" offset="0"/><stop style="stop-color:#4b4b4b;stop-opacity:1" id="stop4491" offset=".5"/><stop style="stop-color:#494949;stop-opacity:1" id="stop4493" offset="1"/></linearGradient><linearGradient id="linearGradient44076-919" x1="83.281" x2="83.281" y1="123.098" y2="66.311" gradientTransform="matrix(0.93520883,0,0,0.97991754,42.628531,1.281969)" gradientUnits="userSpaceOnUse" xlink:href="#linearGradient44699-208"/><linearGradient id="linearGradient44699-208"><stop style="stop-color:#393939;stop-opacity:.93333334" id="stop4497" offset="0"/><stop style="stop-color:#929292;stop-opacity:1" id="stop4499" offset="1"/></linearGradient><radialGradient id="radialGradient44073-712" cx="491.522" cy="670.925" r="36.427" fx="491.522" fy="670.925" gradientTransform="matrix(0,1.9831406,-1.8311893,0,1312.4565,-929.07953)" gradientUnits="userSpaceOnUse" xlink:href="#linearGradient44080-128"/><linearGradient id="linearGradient44080-128"><stop style="stop-color:#414141;stop-opacity:1" id="stop4503" offset="0"/><stop style="stop-color:#ababab;stop-opacity:1" id="stop4505" offset=".25"/><stop style="stop-color:#fff;stop-opacity:1" id="stop4507" offset=".5"/><stop style="stop-color:#acacac;stop-opacity:1" id="stop4509" offset="1"/></linearGradient><linearGradient id="linearGradient44070-925" x1="517.022" x2="517.022" y1="705.484" y2="745.301" gradientTransform="matrix(0.93520883,0,0,0.97991754,-375.92288,-622.86043)" gradientUnits="userSpaceOnUse" xlink:href="#linearGradient44090-829"/><linearGradient id="linearGradient44090-829"><stop style="stop-color:#626262;stop-opacity:1" id="stop4513" offset="0"/><stop style="stop-color:#b4b4b4;stop-opacity:1" id="stop4515" offset="1"/></linearGradient><linearGradient id="linearGradient44067-329" x1="517.022" x2="517.022" y1="705.484" y2="745.301" gradientTransform="matrix(-0.93520883,0,0,0.97991754,543.80467,-622.86043)" gradientUnits="userSpaceOnUse" xlink:href="#linearGradient44090-817"/><linearGradient id="linearGradient44090-817"><stop style="stop-color:#626262;stop-opacity:1" id="stop4519" offset="0"/><stop style="stop-color:#b4b4b4;stop-opacity:1" id="stop4521" offset="1"/></linearGradient><linearGradient id="linearGradient44613-490" x1="-246.577" x2="-248.777" y1="958.08" y2="964.617" gradientTransform="matrix(0.93520883,0,0,0.97991754,306.80027,-863.6841)" gradientUnits="userSpaceOnUse" xlink:href="#linearGradient44615-509"/><linearGradient id="linearGradient44615-509"><stop style="stop-color:#949494;stop-opacity:1" id="stop4525" offset="0"/><stop style="stop-color:#e1e1e1;stop-opacity:1" id="stop4527" offset="1"/></linearGradient><linearGradient id="linearGradient44691-264" x1="-35.567" x2="-35.567" y1="76.563" y2="84.91" gradientTransform="matrix(1.1020923,0,0,0.91290274,124.68758,5.3698224)" gradientUnits="userSpaceOnUse" xlink:href="#linearGradient44693-318"/><linearGradient id="linearGradient44693-318"><stop style="stop-color:#8e8e8e;stop-opacity:1" id="stop4531" offset="0"/><stop style="stop-color:#e7e7e7;stop-opacity:1" id="stop4533" offset="1"/></linearGradient><radialGradient id="radialGradient44061-718" cx="479.683" cy="709.658" r="5.006" fx="479.683" fy="709.658" gradientTransform="matrix(0.80064444,-0.06244662,0.10862245,1.5290164,-388.34707,-983.00738)" gradientUnits="userSpaceOnUse" xlink:href="#linearGradient44605-998"/><linearGradient id="linearGradient44605-998"><stop style="stop-color:#e7e7e7;stop-opacity:1" id="stop4537" offset="0"/><stop style="stop-color:#ebebeb;stop-opacity:1" id="stop4539" offset=".5"/><stop style="stop-color:#fff;stop-opacity:1" id="stop4541" offset="1"/></linearGradient><linearGradient id="linearGradient44625-368" x1="-246.577" x2="-248.777" y1="958.08" y2="964.617" gradientTransform="matrix(-0.93520883,0,0,0.97991754,-139.23284,-863.6841)" gradientUnits="userSpaceOnUse" xlink:href="#linearGradient44615-918"/><linearGradient id="linearGradient44615-918"><stop style="stop-color:#949494;stop-opacity:1" id="stop4545" offset="0"/><stop style="stop-color:#e1e1e1;stop-opacity:1" id="stop4547" offset="1"/></linearGradient><radialGradient id="radialGradient44048-663" cx="53.602" cy="59.729" r="17.834" fx="53.602" fy="59.729" gradientTransform="matrix(0,2.4274692,-2.293406,0,213.1774,-93.627533)" gradientUnits="userSpaceOnUse" xlink:href="#linearGradient44627-650"/><linearGradient id="linearGradient44627-650"><stop style="stop-color:#fdfdfd;stop-opacity:1" id="stop4551" offset="0"/><stop style="stop-color:#c4c4c4;stop-opacity:1" id="stop4553" offset="1"/></linearGradient><linearGradient id="linearGradient44677-949" x1="60.127" x2="60.127" y1="81.914" y2="47.543" gradientTransform="matrix(1.3991107,0,0,1.4659967,0.30262482,-45.361459)" gradientUnits="userSpaceOnUse" xlink:href="#linearGradient44681-421"/><linearGradient id="linearGradient44681-421"><stop style="stop-color:#9b9b9b;stop-opacity:1" id="stop4557" offset="0"/><stop style="stop-color:#b0b0b0;stop-opacity:.99607843" id="stop4559" offset=".304"/><stop style="stop-color:#666;stop-opacity:.98039216" id="stop4561" offset="1"/></linearGradient></defs><g id="g4421"><rect id="rect4419" width="128" height="128" x=".246" y="-.246" style="opacity:0;fill:#b3b3b3;fill-opacity:1;stroke:none;stroke-width:1.59239376;stroke-linecap:round;stroke-linejoin:round;stroke-miterlimit:4;stroke-dasharray:none;stroke-opacity:1"/><g id="g4395" transform="matrix(0.95307382,0,0,0.95307382,2.570274,1.3911568)"><path id="path3281" d="m -280.00587,888.25725 c -14.71669,0 -26.69498,11.97829 -26.69498,26.69498 0,14.71669 11.97829,26.69498 26.69498,26.69498 14.71668,0 26.69497,-11.97829 26.69497,-26.69498 0,-14.71669 -11.97829,-26.69498 -26.69497,-26.69498 z" transform="matrix(0.93520883,0,0,0.97991754,306.80027,-863.6841)" style="fill:#000;fill-opacity:.50196078;stroke:none;stroke-width:1.33686185;stroke-linecap:square;stroke-linejoin:miter;stroke-miterlimit:4;stroke-dasharray:none;stroke-dashoffset:0;stroke-opacity:1;filter:url(#filter3297)"/><path id="path3283" d="m -280.08908,925.52568 c -21.63445,0 -39.1875,17.34747 -39.1875,38.75 l 0,6.125 c 0,6.05287 6.27536,18.75 28.90625,18.75 l 20.53125,0 c 22.63038,0 28.9375,-12.07964 28.9375,-18.75 l 0,-6.125 c 0,-21.40254 -17.55305,-38.75 -39.1875,-38.75 z" transform="matrix(0.93520883,0,0,0.97991754,306.80027,-863.6841)" style="fill:#000;fill-opacity:.50196078;stroke:none;stroke-width:1.5;stroke-linecap:square;stroke-linejoin:miter;stroke-miterlimit:4;stroke-dashoffset:0;stroke-opacity:1;filter:url(#filter3293)"/><path id="path2214" d="m 44.157083,42.029851 c -20.232729,0 -36.6484965,16.99909 -36.6484965,37.971804 l 0,6.001995 c 0,5.931314 5.8687725,18.37345 27.0333805,18.37345 l 19.201006,0 c 21.164131,0 27.062606,-11.837047 27.062606,-18.37345 l 0,-6.001995 c 0,-20.972724 -16.415768,-37.971804 -36.648496,-37.971804 z" style="fill:url(#linearGradient44673-799);fill-opacity:1;stroke:none;stroke-width:1.5;stroke-linecap:square;stroke-linejoin:miter;stroke-miterlimit:4;stroke-dashoffset:0;stroke-opacity:1"/><path id="path3193" d="m 44.157083,44.147168 c -18.807256,0 -34.066478,15.587941 -34.066478,34.819626 l 0,5.503756 c 0,5.438924 5.455297,16.84821 25.12878,16.84821 l 17.848227,0 c 19.673044,0 25.155949,-10.854417 25.155949,-16.84821 l 0,-5.503756 c 0,-19.231685 -15.259223,-34.819626 -34.066478,-34.819626 z" style="fill:url(#radialGradient44670-496);fill-opacity:1;stroke:none;stroke-width:1.5;stroke-linecap:square;stroke-linejoin:miter;stroke-miterlimit:4;stroke-dashoffset:0;stroke-opacity:1"/><path id="path3217" d="m 60.510546,51.311522 c 7.915271,8.880111 13.948902,23.613572 15.716662,37.876429" style="fill:#000;fill-opacity:0;fill-rule:evenodd;stroke:url(#linearGradient44667-286);stroke-width:1.43595338;stroke-linecap:butt;stroke-linejoin:miter;stroke-miterlimit:4;stroke-dasharray:none;stroke-opacity:1"/><path id="path3227" d="M 27.954608,51.311522 C 20.039337,60.191633 14.005707,74.925094 12.237947,89.187951" style="fill:#000;fill-opacity:0;fill-rule:evenodd;stroke:url(#linearGradient44664-809);stroke-width:1.43595338;stroke-linecap:butt;stroke-linejoin:miter;stroke-miterlimit:4;stroke-dasharray:none;stroke-opacity:1"/><path id="path3249" d="m 37.898861,55.428528 c -2.153505,1.934533 -4.640721,3.459795 -3.480117,8.116373 -5.293965,-1.123594 -9.305057,-8.711575 -5.949874,-14.115438 l 9.429991,5.999065 z" style="fill:#dedede;fill-opacity:1;fill-rule:evenodd;stroke:#7e7e7e;stroke-width:.95730221px;stroke-linecap:butt;stroke-linejoin:miter;stroke-opacity:1"/><path id="path3245" d="m 44.23258,67.794746 -5.913623,-10.732358 11.827246,-10e-7 -5.913623,10.732359 z" style="fill:#7f7f7f;fill-opacity:1;stroke:#404040;stroke-width:.95730221;stroke-linecap:square;stroke-linejoin:miter;stroke-miterlimit:4;stroke-dasharray:none;stroke-dashoffset:0;stroke-opacity:1"/><path id="path3247" d="m 50.182465,55.428528 c 2.602555,1.464016 5.651074,3.342165 4.49047,7.998743 4.6204,-2.064617 8.294704,-8.593945 4.939521,-13.997808 l -9.429991,5.999065 z" style="fill:#b9b9b9;fill-opacity:1;fill-rule:evenodd;stroke:#848484;stroke-width:.95730221px;stroke-linecap:butt;stroke-linejoin:miter;stroke-opacity:1"/><path id="path3251" d="m 28.676047,50.118002 8.41688,5.358924 c -0.924136,0.798466 -1.883156,1.612689 -2.571825,2.725396 -0.700733,1.132196 -0.919693,2.686502 -0.613731,4.623985 -2.215668,-0.713899 -4.202379,-2.591568 -5.289774,-4.960832 -1.1253,-2.451852 -1.260952,-5.294612 0.05845,-7.747473 z" style="fill:url(#radialGradient44658-589);fill-opacity:1;fill-rule:evenodd;stroke:none;stroke-width:1px;stroke-linecap:butt;stroke-linejoin:miter;stroke-opacity:1"/><path id="path2309" d="m 68.249195,31.667542 a 24.016612,25.164753 0 1 1 -48.033223,0 24.016612,25.164753 0 1 1 48.033223,0 z" style="fill:url(#radialGradient44645-192);fill-opacity:1;stroke:url(#linearGradient44647-180);stroke-width:1.91460443;stroke-linecap:square;stroke-linejoin:miter;stroke-miterlimit:4;stroke-dasharray:none;stroke-dashoffset:0;stroke-opacity:1"/><path id="path44010" d="m -237.54657,906.14303 c -14.71669,0 -26.69498,11.97829 -26.69498,26.69498 0,14.71669 11.97829,26.69498 26.69498,26.69498 14.71668,0 26.69497,-11.97829 26.69497,-26.69498 0,-14.71669 -11.97829,-26.69498 -26.69497,-26.69498 z" transform="matrix(0.93520883,0,0,0.97991754,306.80027,-863.6841)" style="fill:#000;fill-opacity:.50196078;stroke:none;stroke-width:1.33686185;stroke-linecap:square;stroke-linejoin:miter;stroke-miterlimit:4;stroke-dasharray:none;stroke-dashoffset:0;stroke-opacity:1;filter:url(#filter3297)"/><path id="path44012" d="m -237.62978,943.41146 c -21.63445,0 -39.1875,17.34747 -39.1875,38.75 l 0,6.125 c 0,6.05287 6.27536,18.75004 28.90625,18.75004 l 20.53125,0 c 22.63038,0 28.9375,-12.07968 28.9375,-18.75004 l 0,-6.125 c 0,-21.40254 -17.55305,-38.75 -39.1875,-38.75 z" transform="matrix(0.93520883,0,0,0.97991754,306.80027,-863.6841)" style="fill:#000;fill-opacity:.50196078;stroke:none;stroke-width:1.5;stroke-linecap:square;stroke-linejoin:miter;stroke-miterlimit:4;stroke-dashoffset:0;stroke-opacity:1;filter:url(#filter3293)"/><path id="path44014" d="m 83.865395,59.55644 c -20.232729,0 -36.648496,16.99909 -36.648496,37.971805 l 0,6.001995 c 0,5.93131 5.868772,18.37349 27.03338,18.37349 l 19.201006,0 c 21.164135,0 27.062605,-11.83709 27.062605,-18.37349 l 0,-6.001995 c 0,-20.972725 -16.41577,-37.971805 -36.648495,-37.971805 z" style="fill:url(#linearGradient44076-919);fill-opacity:1;stroke:none;stroke-width:1.5;stroke-linecap:square;stroke-linejoin:miter;stroke-miterlimit:4;stroke-dashoffset:0;stroke-opacity:1"/><path id="path44016" d="m 83.865395,61.673758 c -18.807255,0 -34.066478,15.58794 -34.066478,34.819625 l 0,5.503757 c 0,5.43892 5.455297,16.84817 25.128781,16.84817 l 17.848226,0 c 19.673046,0 25.155946,-10.85438 25.155946,-16.84817 l 0,-5.503757 c 0,-19.231685 -15.25922,-34.819625 -34.066475,-34.819625 z" style="fill:url(#radialGradient44073-712);fill-opacity:1;stroke:none;stroke-width:1.5;stroke-linecap:square;stroke-linejoin:miter;stroke-miterlimit:4;stroke-dashoffset:0;stroke-opacity:1"/><path id="path44018" d="m 100.21886,68.838111 c 7.91527,8.880111 13.9489,23.613573 15.71666,37.876429" style="fill:#000;fill-opacity:0;fill-rule:evenodd;stroke:url(#linearGradient44070-925);stroke-width:1.43595338;stroke-linecap:butt;stroke-linejoin:miter;stroke-miterlimit:4;stroke-dasharray:none;stroke-opacity:1"/><path id="path44020" d="M 67.662921,68.838111 C 59.74765,77.718222 53.714019,92.451684 51.946259,106.71454" style="fill:#000;fill-opacity:0;fill-rule:evenodd;stroke:url(#linearGradient44067-329);stroke-width:1.43595338;stroke-linecap:butt;stroke-linejoin:miter;stroke-miterlimit:4;stroke-dasharray:none;stroke-opacity:1"/><path id="path44022" d="m 77.607174,72.955117 c -2.153506,1.934534 -4.640722,3.459795 -3.480118,8.116373 -5.293965,-1.123593 -9.305057,-8.711575 -5.949873,-14.115438 l 9.429991,5.999065 z" style="fill:#dedede;fill-opacity:1;fill-rule:evenodd;stroke:url(#linearGradient44613-490);stroke-width:.95730221px;stroke-linecap:butt;stroke-linejoin:miter;stroke-opacity:1"/><path id="path44024" d="m 83.940893,82.884839 -5.962063,-8.553891 11.924126,-1e-6 -5.962063,8.553892 z" style="fill:url(#linearGradient44691-264);fill-opacity:1;stroke:none;stroke-width:.85552669;stroke-linecap:square;stroke-linejoin:miter;stroke-miterlimit:4;stroke-dasharray:none;stroke-dashoffset:0;stroke-opacity:1"/><path id="path44028" d="m 68.384359,67.644591 8.41688,5.358924 c -0.924136,0.798467 -1.883155,1.61269 -2.571824,2.725396 -0.700734,1.132197 -0.919694,2.686503 -0.613731,4.623986 -2.215669,-0.713899 -4.20238,-2.591568 -5.289775,-4.960833 -1.1253,-2.451851 -1.260952,-5.294612 0.05845,-7.747473 z" style="fill:url(#radialGradient44061-718);fill-opacity:1;fill-rule:evenodd;stroke:none;stroke-width:1px;stroke-linecap:butt;stroke-linejoin:miter;stroke-opacity:1"/><path id="path44621" d="m 89.960254,72.955117 c 2.153505,1.934534 4.640721,3.459795 3.480117,8.116373 5.293965,-1.123593 9.305059,-8.711575 5.949874,-14.115438 l -9.429991,5.999065 z" style="fill:#cecece;fill-opacity:1;fill-rule:evenodd;stroke:url(#linearGradient44625-368);stroke-width:.95730221px;stroke-linecap:butt;stroke-linejoin:miter;stroke-opacity:1"/><path id="path44030" d="m 107.95751,49.194132 a 24.016614,25.164756 0 1 1 -48.033227,0 24.016614,25.164756 0 1 1 48.033227,0 z" style="fill:url(#radialGradient44048-663);fill-opacity:1;stroke:url(#linearGradient44677-949);stroke-width:1.91460443;stroke-linecap:square;stroke-linejoin:miter;stroke-miterlimit:4;stroke-dasharray:none;stroke-dashoffset:0;stroke-opacity:1"/></g></g></svg>