<svg xmlns="http://www.w3.org/2000/svg" xmlns:svg="http://www.w3.org/2000/svg" id="svg2" width="128" height="128" version="1.1" viewBox="0 0 128 128"><metadata id="metadata18"/><g id="g6336" transform="matrix(4.0666636,0,0,4.0666636,-809.70738,-2888.6661)"><circle id="path12971" cx="172.117" cy="283.75" r="11.914" transform="matrix(1.1988429,0,0,1.1785464,9.1857508,392.34011)" style="fill:#37abc8;fill-opacity:1;stroke:none"/><circle style="fill:#fff;fill-opacity:1;stroke:none" id="path12973" cx="172.117" cy="283.75" r="11.914" transform="matrix(0.97519653,0,0,0.95868629,47.679087,454.72549)"/><path style="fill:teal;fill-opacity:1;stroke:none" id="path12975" d="m 219.91559,713.26081 c -7.4334,-5.36412 -14.00386,0.10211 -15.97632,2.56164 l -2.20831,-2.2368 c -0.81523,-0.82568 -1.24495,-0.87122 -1.34902,0.73815 l -0.55255,8.54994 c -0.12347,0.91113 0.33931,1.72369 1.96052,1.85928 l 8.79042,-0.11067 c 0.85881,-0.011 1.12185,-0.48539 0.46761,-1.18942 l -2.56729,-2.76174 c 2.15096,-2.9927 6.53498,-7.88978 11.43524,-7.4103 z"/><rect id="rect12979" width="1.238" height="5.99" x="214.207" y="719.864" ry=".383" style="fill:teal;fill-opacity:1;stroke:none"/><rect style="fill:teal;fill-opacity:1;stroke:none" id="rect12981" width=".934" height="7.359" x="-516.377" y="564.407" ry=".471" transform="matrix(0.52293318,-0.85237368,0.86017378,0.51000104,0,0)"/><circle id="path12983" cx="258.42" cy="244.178" r=".459" transform="matrix(1.3517357,0,0,1.3288506,-134.58729,402.61071)" style="fill:#37abc8;fill-opacity:1;stroke:none"/><rect id="rect12985" width="1.192" height="1.332" x="214.435" y="716.418" ry="0" style="fill:#999;fill-opacity:1;stroke:none"/><rect style="fill:#999;fill-opacity:1;stroke:none" id="rect12987" width="1.192" height="1.332" x="221.489" y="719.221" ry="0"/><rect id="rect12989" width="1.192" height="1.332" x="224.421" y="726.043" ry="0" style="fill:#999;fill-opacity:1;stroke:none"/><rect style="fill:#999;fill-opacity:1;stroke:none" id="rect12991" width="1.192" height="1.332" x="221.495" y="732.792" ry="0"/><rect id="rect12993" width="1.192" height="1.332" x="214.607" y="735.419" ry="0" style="fill:#999;fill-opacity:1;stroke:none"/><rect style="fill:#999;fill-opacity:1;stroke:none" id="rect12995" width="1.192" height="1.332" x="207.732" y="732.665" ry="0"/><rect style="opacity:0;fill:#fff;fill-opacity:.99215686;stroke:none" id="rect14741" width="30" height="30" x="199.811" y="710.889"/></g></svg>