<svg xmlns="http://www.w3.org/2000/svg" xmlns:pdf="http://ns.adobe.com/pdf/1.3/" xmlns:svg="http://www.w3.org/2000/svg" xmlns:x="adobe:ns:meta/" xmlns:xap="http://ns.adobe.com/xap/1.0/" xmlns:xapGImg="http://ns.adobe.com/xap/1.0/g/img/" xmlns:xapMM="http://ns.adobe.com/xap/1.0/mm/" id="svg548" style="overflow:visible" width="128" height="128" version="1.1" viewBox="0 0 128 128" xml:space="preserve"><metadata id="metadata549"><xpacket>begin=&apos; &apos; id=&apos;W5M0MpCehiHzreSzNTczkc9d&apos;</xpacket><x:xmpmeta x:xmptk="XMP toolkit 3.0-29, framework 1.6"><metadata/></x:xmpmeta><xpacket>end=&apos;w&apos;</xpacket></metadata><g id="Layer_1" transform="matrix(2.6186046,0,0,2.6186046,0.4088792,0.4088792)"><path style="opacity:.2" id="path551" d="M 46.327,21.456 36.3,8.435 C 36.123,8.206 35.852,8.071 35.563,8.07 L 11.498,7.92 C 11.201,7.918 10.92,8.057 10.742,8.295 L 1.431,20.721 c -0.207,0.276 -0.246,0.645 -0.1,0.958 0.146,0.313 0.452,0.521 0.796,0.541 l 4.389,0.25 0,14.819 14.167,5.479 21.205,-5.334 0.131,-14.137 3.651,-0.336 c 0.341,-0.031 0.637,-0.246 0.773,-0.559 0.137,-0.313 0.092,-0.676 -0.116,-0.946 z M 17.674,19.377 12.143,19.052 c 1.158,-1.363 2.367,-2.785 2.916,-3.431 0.439,0.63 1.491,2.142 2.615,3.756 z"/><path style="opacity:.2" id="path552" d="M 45.952,21.081 35.925,8.06 C 35.748,7.831 35.477,7.696 35.188,7.695 L 11.123,7.545 C 10.826,7.543 10.545,7.682 10.367,7.92 L 1.056,20.346 c -0.207,0.276 -0.246,0.645 -0.1,0.958 0.146,0.313 0.452,0.521 0.796,0.541 l 4.389,0.25 0,14.819 14.167,5.479 21.205,-5.334 0.131,-14.137 3.651,-0.336 c 0.341,-0.031 0.637,-0.246 0.773,-0.559 0.137,-0.313 0.092,-0.676 -0.116,-0.946 z M 17.299,19.002 11.768,18.677 c 1.158,-1.363 2.367,-2.785 2.916,-3.431 0.439,0.63 1.491,2.142 2.615,3.756 z"/><linearGradient id="XMLID_22_" x1="23.53" x2="23.53" y1="37.426" y2="14.11" gradientUnits="userSpaceOnUse"><stop style="stop-color:#824f26" id="stop554" offset=".006"/><stop style="stop-color:#834f25" id="stop555" offset=".011"/><stop style="stop-color:#a15715" id="stop556" offset=".167"/><stop style="stop-color:#b65d09" id="stop557" offset=".321"/><stop style="stop-color:#c36102" id="stop558" offset=".471"/><stop style="stop-color:#c76200" id="stop559" offset=".612"/></linearGradient><polygon style="fill:url(#XMLID_22_)" id="polygon563" points="5.767 17.971 5.767 36.539 19.933 42.019 41.138 36.685 41.292 20.059"/><radialGradient id="XMLID_23_" cx="15.041" cy="-19.886" r="91.331" fx="15.041" fy="-19.886" gradientTransform="matrix(0.1875,0,0,0.1875,20.3125,19.5)" gradientUnits="userSpaceOnUse"><stop style="stop-color:#7c0000" id="stop565" offset="0"/><stop style="stop-color:#cf0000" id="stop566" offset=".646"/><stop style="stop-color:#900" id="stop567" offset=".994"/></radialGradient><path style="fill:url(#XMLID_23_)" id="path573" d="M 9.992,7.545 0.681,19.971 c -0.207,0.276 -0.246,0.645 -0.1,0.958 0.146,0.313 0.452,0.521 0.796,0.541 l 6.518,0.373 c 0.293,0.017 0.578,-0.105 0.768,-0.329 0,0 4.432,-5.213 5.646,-6.641 1.129,1.622 6.335,9.1 6.335,9.1 0.193,0.277 0.52,0.429 0.855,0.398 l 23.42,-2.158 c 0.341,-0.031 0.637,-0.246 0.773,-0.559 0.137,-0.313 0.092,-0.676 -0.116,-0.947 L 35.55,7.685 C 35.373,7.456 35.102,7.321 34.813,7.32 L 10.748,7.17 C 10.451,7.168 10.17,7.308 9.992,7.545 Z"/><linearGradient id="XMLID_24_" x1="23.527" x2="23.527" y1="34.369" y2="3.825" gradientUnits="userSpaceOnUse"><stop style="stop-color:#ffffde" id="stop575" offset="0"/><stop style="stop-color:#f93" id="stop576" offset="1"/></linearGradient><polygon style="fill:url(#XMLID_24_)" id="polygon580" points="40.537 20.608 19.981 14.135 19.981 19.417 12.819 10.042 6.517 18.227 6.517 34.15 19.981 39.358 40.394 34.224"/><linearGradient id="XMLID_25_" x1="1.432" x2="44.834" y1="15.771" y2="15.771" gradientUnits="userSpaceOnUse"><stop style="stop-color:#900" id="stop582" offset="0"/><stop style="stop-color:#f66" id="stop583" offset=".668"/><stop style="stop-color:#f99" id="stop584" offset="1"/></linearGradient><polygon style="fill:url(#XMLID_25_)" id="polygon590" points="34.807 8.257 10.742 8.108 1.432 20.533 7.949 20.906 14.383 13.337 21.414 23.436 44.834 21.277"/><linearGradient id="XMLID_26_" x1="33.537" x2="12.981" y1="27.685" y2="27.685" gradientTransform="matrix(-1,0,0,1,53.5195,0)" gradientUnits="userSpaceOnUse"><stop style="stop-color:#ffffde" id="stop592" offset="0"/><stop style="stop-color:#fc6" id="stop593" offset="1"/></linearGradient><polygon style="fill:url(#XMLID_26_)" id="polygon597" points="19.981 14.135 40.537 20.608 40.394 36.099 19.981 41.233"/><linearGradient id="XMLID_27_" x1="19.981" x2="40.524" y1="30.919" y2="30.919" gradientUnits="userSpaceOnUse"><stop style="stop-color:#f0cd87" id="stop599" offset="0"/><stop style="stop-color:#ffa700" id="stop600" offset="1"/></linearGradient><polygon style="fill:url(#XMLID_27_)" id="polygon604" points="40.394 36.099 40.35 20.608 40.524 20.604 40.394 34.786 19.981 39.921 19.981 41.233"/><linearGradient id="XMLID_28_" x1="26.126" x2="26.126" y1="34.525" y2="25.682" gradientUnits="userSpaceOnUse"><stop style="stop-color:#3e9ade" id="stop606" offset="0"/><stop style="stop-color:#06c" id="stop607" offset="1"/></linearGradient><polygon style="fill:url(#XMLID_28_)" id="polygon611" points="28.477 33.532 28.448 29.018 28.448 29.017 28.441 27.921 28.433 26.508 28.433 26.508 28.428 25.682 27.337 25.838 23.776 26.352 23.81 31.771 23.81 31.771 23.811 31.847 23.827 34.501 23.827 34.501 23.827 34.525"/><linearGradient id="XMLID_29_" x1="27.785" x2="24.27" y1="26.475" y2="33.86" gradientUnits="userSpaceOnUse"><stop style="stop-color:#428aff" id="stop613" offset="0"/><stop style="stop-color:#57adff" id="stop614" offset=".258"/><stop style="stop-color:#c9e6ff" id="stop615" offset="1"/></linearGradient><path style="fill:url(#XMLID_29_)" id="path621" d="m 27.428,26.326 0,0 c 0,0 -2.374,0.342 -3.086,0.444 0.004,0.718 0.039,6.407 0.043,7.126 0.894,-0.19 2.932,-0.625 3.526,-0.753 -0.004,-0.651 -0.041,-6.633 -0.041,-6.633 0,0 0.017,0.021 0.018,0.022 -0.009,-0.074 -0.015,-0.167 -0.017,-0.271 -0.214,0.032 -0.443,0.065 -0.443,0.065 z"/><linearGradient id="XMLID_30_" x1="9.561" x2="9.561" y1="12.994" y2="21.148" gradientUnits="userSpaceOnUse"><stop style="stop-color:#cf0000" id="stop623" offset="0"/><stop style="stop-color:red" id="stop624" offset="1"/></linearGradient><polygon style="fill:url(#XMLID_30_)" id="polygon628" points="17.689 9.447 10.742 8.108 1.432 20.533 7.949 20.906"/><linearGradient id="XMLID_31_" x1="1.432" x2="44.834" y1="15.995" y2="15.995" gradientUnits="userSpaceOnUse"><stop style="stop-color:#cf0000" id="stop630" offset="0"/><stop style="stop-color:#f99" id="stop631" offset="1"/></linearGradient><polygon style="fill:url(#XMLID_31_)" id="polygon635" points="10.742 8.108 1.432 20.533 7.949 20.906 20.67 23.883 44.411 21.527 44.834 21.277 34.807 8.257"/><linearGradient id="XMLID_32_" x1="8.722" x2="8.722" y1="20.094" y2="9.232" gradientUnits="userSpaceOnUse"><stop style="stop-color:red" id="stop637" offset="0"/><stop style="stop-color:#600000" id="stop638" offset="1"/></linearGradient><polygon style="opacity:.9;fill:url(#XMLID_32_)" id="polygon642" points="11.58 9.232 3.451 20.094 7.008 20.094 13.993 10.664"/><linearGradient id="XMLID_33_" x1="13.249" x2="13.249" y1="35.925" y2="3.427" gradientUnits="userSpaceOnUse"><stop style="stop-color:#ffffde" id="stop644" offset="0"/><stop style="stop-color:#f93" id="stop645" offset="1"/></linearGradient><polygon style="fill:url(#XMLID_33_)" id="polygon649" points="19.981 41.233 6.517 36.025 6.517 18.227 12.819 10.042 19.981 19.417"/><linearGradient id="XMLID_34_" x1="13.249" x2="13.249" y1="40.155" y2="33.557" gradientUnits="userSpaceOnUse"><stop style="stop-color:#ffee94" id="stop651" offset="0"/><stop style="stop-color:#f93" id="stop652" offset="1"/></linearGradient><polygon style="fill:url(#XMLID_34_)" id="polygon656" points="6.517 34.9 6.517 36.025 19.981 41.233 19.981 40.108"/><path style="opacity:.6;fill:#fff" id="path657" d="m 20.125,22.483 c 0,0 -0.179,13.859 1.056,18.449 l -1.199,0.302 0,-18.311 c 0.091,-0.283 0.143,-0.44 0.143,-0.44 z"/><linearGradient id="XMLID_35_" x1="26.238" x2="26.238" y1="25.15" y2="9.503" gradientUnits="userSpaceOnUse"><stop style="stop-color:#ff6d00" id="stop659" offset="0"/><stop style="stop-color:#fe6a00" id="stop660" offset=".015"/><stop style="stop-color:#ed4400" id="stop661" offset=".22"/><stop style="stop-color:#e02600" id="stop662" offset=".423"/><stop style="stop-color:#d71100" id="stop663" offset=".623"/><stop style="stop-color:#d10400" id="stop664" offset=".817"/><stop style="stop-color:#cf0000" id="stop665" offset="1"/></linearGradient><polygon style="opacity:.5;fill:url(#XMLID_35_)" id="polygon669" points="13.206 9.502 11.377 11.92 20.34 25.15 41.071 23.056 41.1 20.328 20.414 13.695 20.414 19.108"/><linearGradient id="XMLID_36_" x1="35.902" x2="35.902" y1="32.734" y2="24.713" gradientUnits="userSpaceOnUse"><stop style="stop-color:#3e9ade" id="stop671" offset="0"/><stop style="stop-color:#06c" id="stop672" offset="1"/></linearGradient><polygon style="fill:url(#XMLID_36_)" id="polygon676" points="33.648 32.734 38.156 31.907 38.073 25.925 38.057 24.712 36.987 24.851 33.75 25.271 33.679 30.525 33.679 30.525"/><linearGradient id="XMLID_37_" x1="37.496" x2="34.29" y1="25.281" y2="32.157" gradientUnits="userSpaceOnUse"><stop style="stop-color:#57adff" id="stop678" offset="0"/><stop style="stop-color:#c9e6ff" id="stop679" offset="1"/></linearGradient><path style="fill:url(#XMLID_37_)" id="path683" d="m 37.069,25.34 c 0,0 -2.071,0.27 -2.763,0.359 -0.01,0.713 -0.065,4.832 -0.065,4.832 0,0 -0.011,-0.015 -0.012,-0.016 0.005,0.059 0.009,0.119 0.009,0.192 0,0.052 -10e-4,0.108 -0.002,0.168 0,0 -0.014,1.008 -0.017,1.249 0.869,-0.16 2.76,-0.507 3.368,-0.619 -0.01,-0.706 -0.082,-5.9 -0.086,-6.222 -0.207,0.028 -0.432,0.057 -0.432,0.057 z"/><path style="fill:#b50c00" id="path684" d="M 44.411,21.527 44.834,21.277 34.325,8.261 10.801,8.114 c -0.206,0.194 -0.411,0.39 -0.58,0.619 l 10.45,15.15 23.74,-2.356 z"/><linearGradient id="XMLID_38_" x1="8.686" x2="42.777" y1="15.771" y2="15.771" gradientTransform="matrix(-1,0,0,1,53.5195,0)" gradientUnits="userSpaceOnUse"><stop style="stop-color:#900" id="stop686" offset="0"/><stop style="stop-color:#f66" id="stop687" offset=".668"/><stop style="stop-color:#f99" id="stop688" offset="1"/></linearGradient><polygon style="fill:url(#XMLID_38_)" id="polygon694" points="44.834 21.277 34.807 8.257 10.742 8.108 21.414 23.436"/><linearGradient id="XMLID_39_" x1="12.82" x2="12.82" y1="39.509" y2="26.641" gradientUnits="userSpaceOnUse"><stop style="stop-color:#093" id="stop696" offset="0"/><stop style="stop-color:#006a00" id="stop697" offset="1"/></linearGradient><polygon style="fill:url(#XMLID_39_)" id="polygon701" points="9.703 28.884 9.703 28.884 9.677 30.438 9.668 30.994 9.668 30.994 9.573 36.867 15.878 39.509 15.925 36.66 16.067 27.892 9.739 26.641 9.726 27.487"/><linearGradient id="XMLID_40_" x1="12.819" x2="12.819" y1="39.494" y2="26.923" gradientUnits="userSpaceOnUse"><stop style="stop-color:#3c3" id="stop703" offset="0"/><stop style="stop-color:#093" id="stop704" offset="1"/></linearGradient><path style="fill:url(#XMLID_40_)" id="path708" d="m 10.249,27.756 -0.056,3.426 c 0,-0.002 -0.071,4.373 -0.089,5.482 0.428,0.18 4.287,1.797 5.262,2.205 0.013,-0.748 0.16,-9.811 0.169,-10.407 -0.576,-0.114 -4.434,-0.877 -5.28,-1.044 -0.003,0.163 -0.006,0.338 -0.006,0.338 z"/><path style="opacity:.6;fill:#ccc" id="path709" d="m 6.517,35.215 0,-7.104 c 0.229,2.56 0.537,5.123 0.952,7.522 L 6.517,35.215 Z"/><path style="opacity:.5;fill:#fff" id="path710" d="m 40.504,23.657 -0.11,10.566 -0.515,0.13 c 0.133,-2.643 0.407,-7.17 0.625,-10.696 z"/><path style="opacity:.8;fill:#fff" id="path711" d="M 7.325,17.138"/><linearGradient id="XMLID_41_" x1="26.115" x2="26.115" y1="30.068" y2="26.328" gradientUnits="userSpaceOnUse"><stop style="stop-color:#57adff" id="stop713" offset="0"/><stop style="stop-color:#c9e6ff" id="stop714" offset="1"/></linearGradient><path style="fill:url(#XMLID_41_)" id="path718" d="m 27.683,26.456 c -0.112,0.017 -0.225,0.032 -0.225,0.032 0,0 0.009,-0.01 0.01,-0.011 -0.076,0.019 -0.181,0.036 -0.355,0.061 0,0 -2.521,0.363 -2.582,0.372 0,0.104 0.007,1.172 0.015,2.431 0.443,0.38 0.982,0.605 1.567,0.605 0.593,0 1.141,-0.233 1.588,-0.624 -0.01,-1.488 -0.018,-2.861 -0.018,-2.866 z"/><linearGradient id="XMLID_42_" x1="35.903" x2="35.903" y1="29.079" y2="25.346" gradientUnits="userSpaceOnUse"><stop style="stop-color:#57adff" id="stop720" offset="0"/><stop style="stop-color:#c9e6ff" id="stop721" offset="1"/></linearGradient><path style="fill:url(#XMLID_42_)" id="path725" d="m 37.316,25.475 c -0.109,0.014 -0.219,0.028 -0.219,0.028 0,0 -2.324,0.302 -2.605,0.339 -0.002,0.137 -0.019,1.401 -0.035,2.583 0.347,0.336 0.766,0.533 1.218,0.533 0.677,0 1.279,-0.441 1.675,-1.13 -0.017,-1.167 -0.032,-2.207 -0.034,-2.353 z"/><rect id="_x3C_Slice_x3E_" width="48" height="48" x="0" y="0" style="fill:none"/></g></svg>