<svg xmlns="http://www.w3.org/2000/svg" xmlns:svg="http://www.w3.org/2000/svg" xmlns:xlink="http://www.w3.org/1999/xlink" id="svg1962" width="128" height="128" version="1.1" viewBox="0 0 33.867 33.867"><defs id="defs1956"><linearGradient id="linearGradient44667" x1="517.022" x2="517.022" y1="705.484" y2="745.301" gradientTransform="matrix(0.30307422,0,0,0.30307422,-179.46149,58.965274)" gradientUnits="userSpaceOnUse" xlink:href="#linearGradient3219"/><linearGradient id="linearGradient3219"><stop style="stop-color:#0e7309;stop-opacity:1" id="stop3221" offset="0"/><stop style="stop-color:#70d13e;stop-opacity:1" id="stop3223" offset="1"/></linearGradient><linearGradient id="linearGradient44076" x1="83.281" x2="83.281" y1="123.098" y2="66.311" gradientTransform="matrix(0.30307422,0,0,0.30307422,-30.952722,257.42414)" gradientUnits="userSpaceOnUse" xlink:href="#linearGradient44699"/><linearGradient id="linearGradient44699"><stop style="stop-color:#000173;stop-opacity:.93333334" id="stop44701" offset="0"/><stop style="stop-color:#3575f0;stop-opacity:1" id="stop44703" offset="1"/></linearGradient><radialGradient id="radialGradient44073" cx="491.522" cy="670.925" r="36.427" fx="491.522" fy="670.925" gradientTransform="matrix(0,0.61335648,-0.59343566,0,380.56191,-30.323115)" gradientUnits="userSpaceOnUse" xlink:href="#linearGradient44080"/><linearGradient id="linearGradient44080"><stop style="stop-color:#2c8300;stop-opacity:1" id="stop44082" offset="0"/><stop style="stop-color:#57aeff;stop-opacity:1" id="stop44084" offset=".25"/><stop style="stop-color:#fff;stop-opacity:1" id="stop44086" offset=".5"/><stop style="stop-color:#5aafff;stop-opacity:1" id="stop44088" offset="1"/></linearGradient><linearGradient id="linearGradient44070" x1="517.022" x2="517.022" y1="705.484" y2="745.301" gradientTransform="matrix(0.30307422,0,0,0.30307422,-166.59317,64.385993)" gradientUnits="userSpaceOnUse" xlink:href="#linearGradient44090"/><linearGradient id="linearGradient44090"><stop style="stop-color:#0926bb;stop-opacity:1" id="stop44092" offset="0"/><stop style="stop-color:#6bb5fe;stop-opacity:1" id="stop44094" offset="1"/></linearGradient><linearGradient id="linearGradient44067" x1="517.022" x2="517.022" y1="705.484" y2="745.301" gradientTransform="matrix(-0.30307422,0,0,0.30307422,131.46401,64.385993)" gradientUnits="userSpaceOnUse" xlink:href="#linearGradient44090"/><linearGradient id="linearGradient44613" x1="-246.577" x2="-248.777" y1="958.08" y2="964.617" gradientTransform="matrix(0.30307422,0,0,0.30307422,54.657723,-10.09726)" gradientUnits="userSpaceOnUse" xlink:href="#linearGradient44615"/><linearGradient id="linearGradient44615"><stop style="stop-color:#2f68fa;stop-opacity:1" id="stop44617" offset="0"/><stop style="stop-color:#c7d5fb;stop-opacity:1" id="stop44619" offset="1"/></linearGradient><linearGradient id="linearGradient44691" x1="-35.567" x2="-35.567" y1="76.563" y2="84.91" gradientTransform="matrix(0.35715633,0,0,0.28234752,-4.359751,258.68846)" gradientUnits="userSpaceOnUse" xlink:href="#linearGradient44693"/><linearGradient id="linearGradient44693"><stop style="stop-color:#3690e6;stop-opacity:1" id="stop44695" offset="0"/><stop style="stop-color:#d0e9ff;stop-opacity:1" id="stop44697" offset="1"/></linearGradient><radialGradient id="radialGradient44061" cx="479.683" cy="709.658" r="5.006" fx="479.683" fy="709.658" gradientTransform="matrix(0.25946578,-0.01931383,0.0352014,0.4729025,-170.61949,-47.002214)" gradientUnits="userSpaceOnUse" xlink:href="#linearGradient44605"/><linearGradient id="linearGradient44605"><stop style="stop-color:#d0ecff;stop-opacity:1" id="stop44607" offset="0"/><stop style="stop-color:#d7f0ff;stop-opacity:1" id="stop44609" offset=".5"/><stop style="stop-color:#fff;stop-opacity:1" id="stop44611" offset="1"/></linearGradient><linearGradient id="linearGradient44625" x1="-246.577" x2="-248.777" y1="958.08" y2="964.617" gradientTransform="matrix(-0.30307422,0,0,0.30307422,-89.88875,-10.09726)" gradientUnits="userSpaceOnUse" xlink:href="#linearGradient44615"/><radialGradient id="radialGradient44048" cx="53.602" cy="59.729" r="17.834" fx="53.602" fy="59.729" gradientTransform="matrix(0,0.75078086,-0.74322676,0,24.317248,228.07002)" gradientUnits="userSpaceOnUse" xlink:href="#linearGradient44627"/><linearGradient id="linearGradient44627"><stop style="stop-color:#fffcfb;stop-opacity:1" id="stop44629" offset="0"/><stop style="stop-color:#f4ad94;stop-opacity:1" id="stop44633" offset="1"/></linearGradient><linearGradient id="linearGradient44677" x1="60.127" x2="60.127" y1="81.914" y2="47.543" gradientTransform="matrix(0.45341143,0,0,0.45341143,-44.669328,242.99801)" gradientUnits="userSpaceOnUse" xlink:href="#linearGradient44681"/><linearGradient id="linearGradient44681"><stop style="stop-color:#ff5c38;stop-opacity:1" id="stop44683" offset="0"/><stop style="stop-color:#fb7e65;stop-opacity:.99607843" id="stop44685" offset=".304"/><stop style="stop-color:#cd0000;stop-opacity:.98039216" id="stop44687" offset="1"/></linearGradient></defs><metadata id="metadata1959"/><g id="layer1" transform="translate(0,-263.13332)"><g id="g62229" transform="translate(-0.58453321,0.13588526)"><rect id="rect1841" width="33.867" height="33.867" x=".585" y="262.997" style="opacity:0;fill:#4fa6c2;fill-opacity:1;stroke:none;stroke-width:.56153017;stroke-linecap:round;stroke-linejoin:bevel;stroke-miterlimit:4;stroke-dasharray:none;stroke-dashoffset:0;stroke-opacity:1"/><g id="g62203" transform="translate(-0.52916667,-0.52916667)"><g id="g60388" transform="matrix(1.0440645,0,0,1.0519975,34.792048,-13.696059)"><path style="fill:#000;fill-opacity:0;fill-rule:evenodd;stroke:url(#linearGradient44667);stroke-width:.45461133;stroke-linecap:butt;stroke-linejoin:miter;stroke-miterlimit:4;stroke-dasharray:none;stroke-opacity:1" id="path3217" d="m -25.157676,272.89755 c 2.565111,2.74649 4.520437,7.30334 5.093317,11.71463"/><path style="fill:url(#linearGradient44076);fill-opacity:1;stroke:none;stroke-width:.45461133;stroke-linecap:square;stroke-linejoin:miter;stroke-miterlimit:4;stroke-dashoffset:0;stroke-opacity:1" id="path44014" d="m -17.589043,275.44759 c -6.556844,0 -11.876721,5.25757 -11.876721,11.74412 v 1.85633 c 0,1.83447 1.9019,5.68266 8.760739,5.68266 h 6.222493 c 6.858685,0 8.77021,-3.66104 8.77021,-5.68266 v -1.85633 c 0,-6.48655 -5.319877,-11.74412 -11.876721,-11.74412 z"/><path style="fill:url(#radialGradient44073);fill-opacity:1;stroke:none;stroke-width:.45461133;stroke-linecap:square;stroke-linejoin:miter;stroke-miterlimit:4;stroke-dashoffset:0;stroke-opacity:1" id="path44016" d="m -17.589043,276.10244 c -6.094889,0 -11.039964,4.82113 -11.039964,10.76921 v 1.70223 c 0,1.68218 1.767905,5.21089 8.143514,5.21089 h 5.784096 c 6.375466,0 8.152317,-3.3571 8.152317,-5.21089 v -1.70223 c 0,-5.94808 -4.945074,-10.76921 -11.039963,-10.76921 z"/><path style="fill:#000;fill-opacity:0;fill-rule:evenodd;stroke:url(#linearGradient44070);stroke-width:.45461133;stroke-linecap:butt;stroke-linejoin:miter;stroke-miterlimit:4;stroke-dasharray:none;stroke-opacity:1" id="path44018" d="m -12.289357,278.31827 c 2.565111,2.74649 4.520437,7.30334 5.093317,11.71463"/><path style="fill:#000;fill-opacity:0;fill-rule:evenodd;stroke:url(#linearGradient44067);stroke-width:.45461133;stroke-linecap:butt;stroke-linejoin:miter;stroke-miterlimit:4;stroke-dasharray:none;stroke-opacity:1" id="path44020" d="m -22.839798,278.31827 c -2.565112,2.74649 -4.520438,7.30334 -5.093317,11.71463"/><path style="fill:#c5ffbd;fill-opacity:1;fill-rule:evenodd;stroke:url(#linearGradient44613);stroke-width:.30307421px;stroke-linecap:butt;stroke-linejoin:miter;stroke-opacity:1" id="path44022" d="m -19.617152,279.5916 c -0.697889,0.59833 -1.503924,1.07007 -1.127806,2.51028 -1.715621,-0.34751 -3.0155,-2.69436 -1.928182,-4.3657 z"/><path style="fill:url(#linearGradient44691);fill-opacity:1;stroke:none;stroke-width:.27167815;stroke-linecap:square;stroke-linejoin:miter;stroke-miterlimit:4;stroke-dasharray:none;stroke-dashoffset:0;stroke-opacity:1" id="path44024" d="m -17.564576,282.66273 -1.932133,-2.6456 h 3.864265 z"/><path style="fill:url(#radialGradient44061);fill-opacity:1;fill-rule:evenodd;stroke:none;stroke-width:.30307421px;stroke-linecap:butt;stroke-linejoin:miter;stroke-opacity:1" id="path44028" d="m -22.606,277.94913 2.727668,1.65744 c -0.299486,0.24696 -0.610277,0.49878 -0.833454,0.84293 -0.227088,0.35017 -0.298047,0.83089 -0.198893,1.43013 -0.718034,-0.2208 -1.36187,-0.80154 -1.714263,-1.53431 -0.364677,-0.75833 -0.408638,-1.63755 0.01894,-2.39619 z"/><path style="fill:#9dcfff;fill-opacity:1;fill-rule:evenodd;stroke:url(#linearGradient44625);stroke-width:.30307421px;stroke-linecap:butt;stroke-linejoin:miter;stroke-opacity:1" id="path44621" d="m -15.613875,279.5916 c 0.697889,0.59833 1.503924,1.07007 1.127806,2.51028 1.715621,-0.34751 3.015501,-2.69436 1.928182,-4.3657 z"/><path style="fill:url(#radialGradient44048);fill-opacity:1;stroke:url(#linearGradient44677);stroke-width:.60614842;stroke-linecap:square;stroke-linejoin:miter;stroke-miterlimit:4;stroke-dasharray:none;stroke-dashoffset:0;stroke-opacity:1" id="path44030" d="m -9.781485,272.24268 a 7.7830918,7.7830918 0 1 1 -15.566183,0 7.7830917,7.7830917 0 1 1 15.566183,0 z"/></g><g id="g62177"><path id="path61477" d="M 31.372347,292.6117 H 19.533675 c -0.240074,0 -0.420129,-0.19505 -0.420129,-0.42013 v -8.29755 c 0,-0.24009 0.195062,-0.42013 0.420129,-0.42013 h 11.838672 c 0.240074,0 0.420129,0.19504 0.420129,0.42013 v 8.29755 c 0,0.22508 -0.180055,0.42013 -0.420129,0.42013 z" style="fill:#fff;stroke:#4c78db;stroke-width:.54739761;stroke-miterlimit:4;stroke-dasharray:none;stroke-opacity:.98823529"/><g id="g61489" transform="matrix(0.04351477,0,0,0.04351477,14.565615,277.10318)"><rect id="rect61483" width="218" height="11.2" x="135.2" y="211.2" style="fill:#e6e9ee"/><rect id="rect61485" width="218" height="11.2" x="135.2" y="234.4" style="fill:#e6e9ee"/><rect id="rect61487" width="160.4" height="11.2" x="164" y="258" style="fill:#e6e9ee"/></g><polygon id="polygon61491" points="280 316.8 298.8 326.4 318 336 271.2 429.6 259.2 406 233.2 410.4" transform="matrix(0.04351477,0,0,0.04351477,14.565615,277.10318)" style="fill:#2b3b4e;stroke:#0e304b;stroke-width:8.10708141;stroke-miterlimit:4;stroke-dasharray:none;stroke-opacity:1"/><polygon id="polygon61493" points="328.8 329.6 310 338.8 290.8 348.4 337.6 442 349.6 418.8 375.6 423.2" transform="matrix(0.04351477,0,0,0.04351477,14.565615,277.10318)" style="fill:#324a5e;stroke:#0e314e;stroke-width:8.10708141;stroke-miterlimit:4;stroke-dasharray:none;stroke-opacity:1"/><path id="path61495" d="m 30.996794,290.36648 v 0 c 0.191464,-0.19147 0.191464,-0.50477 0,-0.69623 v 0 c -0.139248,-0.13925 -0.191466,-0.34812 -0.104436,-0.53959 v 0 c 0.104436,-0.26109 -0.01741,-0.53958 -0.261088,-0.64402 v 0 c -0.191466,-0.0697 -0.313307,-0.26108 -0.313307,-0.45255 v 0 c 0,-0.2785 -0.226277,-0.50477 -0.504771,-0.50477 v 0 c -0.208871,0 -0.382931,-0.12184 -0.452554,-0.3133 v 0 c -0.104436,-0.2611 -0.400336,-0.36553 -0.644019,-0.2611 v 0 c -0.191464,0.0697 -0.400336,0.0348 -0.539583,-0.10443 v 0 c -0.191465,-0.19147 -0.504771,-0.19147 -0.696236,0 v 0 c -0.139247,0.13924 -0.348118,0.19146 -0.539583,0.10443 v 0 c -0.261089,-0.10443 -0.539584,0.0174 -0.644019,0.2611 v 0 c -0.06963,0.19146 -0.261089,0.3133 -0.452554,0.3133 v 0 c -0.278495,0 -0.504771,0.22627 -0.504771,0.50477 v 0 c 0,0.20887 -0.121842,0.38293 -0.313307,0.45255 v 0 c -0.261088,0.10444 -0.365523,0.40034 -0.261088,0.64402 v 0 c 0.06963,0.19147 0.03481,0.40034 -0.104435,0.53959 v 0 c -0.191466,0.19146 -0.191466,0.50476 0,0.69623 v 0 c 0.139247,0.13925 0.191464,0.34812 0.104435,0.53958 v 0 c -0.104435,0.2611 0.01741,0.53959 0.261088,0.64403 v 0 c 0.191465,0.0696 0.313307,0.26108 0.313307,0.45254 v 0 c 0,0.2785 0.226276,0.50478 0.504771,0.50478 v 0 c 0.208871,0 0.38293,0.12184 0.452554,0.31331 v 0 c 0.104435,0.26108 0.400336,0.36552 0.644019,0.26108 v 0 c 0.191465,-0.0696 0.400336,-0.0348 0.539583,0.10444 v 0 c 0.191465,0.19146 0.504771,0.19146 0.696236,0 v 0 c 0.139247,-0.13925 0.348119,-0.19146 0.539583,-0.10444 v 0 c 0.261089,0.10444 0.539583,-0.0174 0.644019,-0.26108 v 0 c 0.06962,-0.19147 0.261089,-0.31331 0.452554,-0.31331 v 0 c 0.278494,0 0.504771,-0.22628 0.504771,-0.50478 v 0 c 0,-0.20886 0.121841,-0.38293 0.313307,-0.45254 v 0 c 0.261088,-0.10444 0.365524,-0.40034 0.261088,-0.64403 v 0 c -0.08703,-0.17405 -0.03481,-0.40033 0.104436,-0.53958 z" style="fill:#ffa000;fill-opacity:1;stroke:#ff8b00;stroke-width:.35277778;stroke-miterlimit:4;stroke-dasharray:none;stroke-opacity:.98823529"/><circle id="circle61497" cx="27.812" cy="290.018" r="2.315" style="fill:#fff;stroke-width:.04351477"/><circle id="circle61499" cx="27.812" cy="290.018" r="2.036" style="fill:#ffa000;fill-opacity:1;stroke-width:.04351477"/></g></g></g></g></svg>