<svg xmlns="http://www.w3.org/2000/svg" xmlns:svg="http://www.w3.org/2000/svg" id="svg2" width="128" height="128" version="1.1" viewBox="0 0 128 128"><metadata id="metadata224"/><defs id="defs4"><radialGradient id="XMLID_21_" cx="66.706" cy="22.942" r="59.341" gradientUnits="userSpaceOnUse"><stop id="stop107" offset="0" stop-color="#06c"/><stop id="stop109" offset="1" stop-color="#039"/><midPointStop offset="0" stop-color="#06C"/><midPointStop offset=".5" stop-color="#06C"/><midPointStop offset="1" stop-color="#039"/></radialGradient><linearGradient id="XMLID_22_" x1="85.76" x2="85.76" y1="12.79" y2="44.682" gradientUnits="userSpaceOnUse"><stop id="stop112" offset="0" stop-color="#fff"/><stop id="stop114" offset="1" stop-color="#0d3692"/><midPointStop offset="0" stop-color="#FFF"/><midPointStop offset=".5" stop-color="#FFF"/><midPointStop offset="1" stop-color="#0D3692"/></linearGradient><radialGradient id="XMLID_21_-390" cx="66.706" cy="22.942" r="59.341" gradientUnits="userSpaceOnUse"><stop id="stop834" offset="0" stop-color="#666"/><stop id="stop836" offset="1" stop-color="#4c4c4c"/><midPointStop offset="0" stop-color="#666"/><midPointStop offset=".5" stop-color="#666"/><midPointStop offset="1" stop-color="#4c4c4c"/></radialGradient><linearGradient id="XMLID_22_-397" x1="85.76" x2="85.76" y1="12.79" y2="44.682" gradientUnits="userSpaceOnUse"><stop id="stop839" offset="0" stop-color="#fff"/><stop id="stop841" offset="1" stop-color="#4f4f4f"/><midPointStop offset="0" stop-color="#fff"/><midPointStop offset=".5" stop-color="#fff"/><midPointStop offset="1" stop-color="#4f4f4f"/></linearGradient><radialGradient id="XMLID_21_-390-555" cx="66.706" cy="22.942" r="59.341" gradientUnits="userSpaceOnUse"><stop id="stop846" offset="0" stop-color="#666"/><stop id="stop848" offset="1" stop-color="#4c4c4c"/><midPointStop offset="0" stop-color="#666"/><midPointStop offset=".5" stop-color="#666"/><midPointStop offset="1" stop-color="#4c4c4c"/></radialGradient><linearGradient id="XMLID_22_-397-134" x1="85.76" x2="85.76" y1="12.79" y2="44.682" gradientUnits="userSpaceOnUse"><stop id="stop851" offset="0" stop-color="#fff"/><stop id="stop853" offset="1" stop-color="#4f4f4f"/><midPointStop offset="0" stop-color="#fff"/><midPointStop offset=".5" stop-color="#fff"/><midPointStop offset="1" stop-color="#4f4f4f"/></linearGradient></defs><path id="path116" d="m 380,630.36218 -60,0 0,-60 60,0 0,60 z" style="fill:none"/><g id="g118" transform="matrix(0.46875,0,0,0.46875,-0.14578125,69.705312)"><g id="g4352" transform="matrix(3.2659458,0,0,3.2659458,-149.12678,-141.9094)"><path id="path210" d="m 50.789,40.843 c 0,21.287 17.318,38.606 38.604,38.606 C 110.68,79.449 128,62.13 128,40.843 128,19.556 110.68,2.238 89.394,2.238 68.107,2.238 50.789,19.556 50.789,40.843 Z" style="opacity:.36000001;fill:#999"/><path id="path212" d="m 47.123,38.605 c 0,21.287 17.318,38.605 38.605,38.605 21.288,0 38.605,-17.318 38.605,-38.605 C 124.333,17.318 107.023,0 85.734,0 64.447,0 47.129,17.318 47.129,38.605 Z" style="fill:#666;opacity:1"/><path id="path214" d="m 49.919,38.046 c 0,19.776 16.033,35.809 35.808,35.809 19.777,0 35.808,-16.033 35.808,-35.809 0,-19.776 -16.03,-35.808 -35.807,-35.808 -19.776,0 -35.809,16.032 -35.809,35.808 z" style="fill:url(#XMLID_21_-390-555);opacity:1"/><path id="path216" d="M 53.836,41.543 C 53.836,20.544 68.839,3.394 87.72,2.296 87.061,2.26 86.397,2.238 85.728,2.238 65.953,2.238 49.92,18.27 49.92,38.046 c 0,9.135 3.427,17.465 9.056,23.791 -3.261,-5.924 -5.14,-12.868 -5.14,-20.294 z" style="opacity:.36000001;fill:#fff"/><path id="path218" d="m 86.278,36.289 c 12.123,0 23.283,-1.762 32.145,-4.715 -2.83,-16.685 -16.38,-29.335 -32.69,-29.335 -16.191,0 -29.674,12.472 -32.633,28.981 9.019,3.166 20.578,5.069 33.181,5.069 z" style="opacity:.5;fill:url(#XMLID_22_-397-134)"/><path id="path220" d="m 91.36,57.105 c 0,4.489 0,7.102 4.407,7.102 l 0,1.469 -20.08,0 0,-1.469 c 4.49,0 4.49,-2.612 4.49,-7.102 l 0,-19.917 c 0,-4.326 0,-7.264 -4.49,-7.264 l 0,-1.469 15.673,0 0,28.65 z M 85.728,10.416 c 3.347,0 6.122,2.775 6.122,6.122 0,3.346 -2.775,6.122 -6.122,6.122 -3.346,0 -6.121,-2.775 -6.121,-6.122 -0.001,-3.347 2.775,-6.122 6.121,-6.122 z" style="fill:#fff;opacity:1"/></g></g></svg>