<svg xmlns="http://www.w3.org/2000/svg" xmlns:svg="http://www.w3.org/2000/svg" xmlns:xlink="http://www.w3.org/1999/xlink" id="svg5067" width="128" height="128" version="1.1" viewBox="0 0 128 128"><defs id="defs5069"><linearGradient id="linearGradient7204"><stop style="stop-color:red;stop-opacity:1" id="stop7206" offset="0"/><stop style="stop-color:#fff;stop-opacity:0" id="stop7208" offset="1"/></linearGradient><linearGradient id="linearGradient7161"><stop style="stop-color:#ececec;stop-opacity:1" id="stop7163" offset="0"/><stop style="stop-color:#fff;stop-opacity:1" id="stop7165" offset="1"/></linearGradient><linearGradient id="linearGradient7139"><stop style="stop-color:#7e7e7e;stop-opacity:1" id="stop7141" offset="0"/><stop style="stop-color:#fff;stop-opacity:1" id="stop7143" offset="1"/></linearGradient><linearGradient id="linearGradient7123"><stop style="stop-color:#fff;stop-opacity:1" id="stop7125" offset="0"/><stop id="stop7131" offset=".505" style="stop-color:#d8e5fb;stop-opacity:1"/><stop style="stop-color:#a0c1f7;stop-opacity:1" id="stop7127" offset="1"/></linearGradient><linearGradient id="linearGradient7109"><stop style="stop-color:#666;stop-opacity:1" id="stop7111" offset="0"/><stop id="stop7117" offset=".508" style="stop-color:#b3b3b3;stop-opacity:1"/><stop style="stop-color:#dedede;stop-opacity:.99607843" id="stop7119" offset=".734"/><stop style="stop-color:#fff;stop-opacity:1" id="stop7113" offset="1"/></linearGradient><linearGradient id="linearGradient7096"><stop style="stop-color:#003460;stop-opacity:1" id="stop7098" offset="0"/><stop style="stop-color:#003460;stop-opacity:0" id="stop7100" offset="1"/></linearGradient><linearGradient id="linearGradient7088"><stop style="stop-color:#fff;stop-opacity:1" id="stop7090" offset="0"/><stop style="stop-color:#fff;stop-opacity:0" id="stop7092" offset="1"/></linearGradient><linearGradient id="linearGradient7076"><stop style="stop-color:#7eadff;stop-opacity:1" id="stop7078" offset="0"/><stop style="stop-color:#2661b8;stop-opacity:1" id="stop7080" offset="1"/></linearGradient><linearGradient id="linearGradient7062"><stop style="stop-color:#a5e4ff;stop-opacity:1" id="stop7064" offset="0"/><stop style="stop-color:#d5ebff;stop-opacity:1" id="stop7066" offset="1"/></linearGradient><linearGradient id="linearGradient7068" x1="183.323" x2="213.298" y1="973.815" y2="997.503" gradientUnits="userSpaceOnUse" xlink:href="#linearGradient7062"/><linearGradient id="linearGradient7082" x1="280.311" x2="322.236" y1="976.59" y2="976.501" gradientTransform="translate(-114.27801,7.6121212)" gradientUnits="userSpaceOnUse" xlink:href="#linearGradient7076"/><linearGradient id="linearGradient7094" x1="179.004" x2="204.084" y1="973.647" y2="993.897" gradientUnits="userSpaceOnUse" xlink:href="#linearGradient7088"/><linearGradient id="linearGradient7102" x1="197.08" x2="225.563" y1="975.425" y2="1004.175" gradientUnits="userSpaceOnUse" xlink:href="#linearGradient7096"/><linearGradient id="linearGradient7115" x1="245.484" x2="299.232" y1="1033.777" y2="1032.451" gradientTransform="matrix(1.0072132,0,0,0.99994377,-9.2388339,14.37704)" gradientUnits="userSpaceOnUse" xlink:href="#linearGradient7109"/><linearGradient id="linearGradient7129" x1="293.096" x2="325.092" y1="1021.249" y2="1033.624" gradientTransform="matrix(1.0120192,0,0,1,-53.950808,6.0585047)" gradientUnits="userSpaceOnUse" xlink:href="#linearGradient7123"/><linearGradient id="linearGradient7135" x1="245.484" x2="283.129" y1="1033.777" y2="1033.07" gradientTransform="matrix(1,0,0,-1,-7.4688163,2067.2563)" gradientUnits="userSpaceOnUse" xlink:href="#linearGradient7109"/><linearGradient id="linearGradient7145" x1="288.197" x2="328.153" y1="993.146" y2="992.208" gradientTransform="matrix(1.0332947,0,0,1,-58.80684,36.758829)" gradientUnits="userSpaceOnUse" xlink:href="#linearGradient7139"/><linearGradient id="linearGradient7167" x1="278.861" x2="207.706" y1="1027.854" y2="1041.289" gradientTransform="matrix(1,0,0,0.97323885,0,27.888634)" gradientUnits="userSpaceOnUse" xlink:href="#linearGradient7161"/><linearGradient id="linearGradient7210" x1="205.326" x2="191.692" y1="998.589" y2="1006.698" gradientUnits="userSpaceOnUse" xlink:href="#linearGradient7204"/><filter style="color-interpolation-filters:sRGB" id="filter7280" width="1.081" height="1.228" x="-.041" y="-.114"><feGaussianBlur id="feGaussianBlur7282" stdDeviation=".46"/></filter><filter style="color-interpolation-filters:sRGB" id="filter7296" width="1.024" height="1.024" x="-.012" y="-.012"><feGaussianBlur id="feGaussianBlur7298" stdDeviation=".071"/></filter><filter style="color-interpolation-filters:sRGB" id="filter7724" width="1.067" height="1.078" x="-.033" y="-.039"><feGaussianBlur id="feGaussianBlur7726" stdDeviation="1.065"/></filter></defs><metadata id="metadata5072"/><g id="layer1" transform="translate(0,-924.36216)"><rect style="opacity:0;fill:#fff;fill-opacity:1;stroke:none;stroke-width:.30000001;stroke-linecap:square;stroke-linejoin:bevel;stroke-miterlimit:4;stroke-dasharray:none;stroke-dashoffset:0;stroke-opacity:.46842107" id="rect7758" width="128" height="128" x="-.957" y="924.362"/><g id="g7728" transform="matrix(1.5380386,0,0,1.5380386,-242.2188,-539.54291)"><path id="path7554" d="m 207.39055,961.9334 c -0.30113,-0.0169 -0.64166,0.0643 -0.9375,0.26368 a 0.62164127,0.62164127 0 0 0 -0.0859,0.0703 l -7.17969,6.99609 -18.76758,1.44336 a 0.62164127,0.62164127 0 0 0 -0.0488,0.01 c -0.28124,0.044 -0.55598,0.0831 -0.82226,0.30859 -0.26628,0.2261 -0.35395,0.5385 -0.4043,0.80859 a 0.62164127,0.62164127 0 0 0 -0.004,0.0234 l -1.23828,8.49219 -16.42579,1.31641 a 0.62164127,0.62164127 0 0 0 -0.0625,0.01 c -0.56465,0.1035 -0.88554,0.52528 -1.07421,0.92578 -0.18869,0.4005 -0.28804,0.82687 -0.15626,1.29297 a 0.62164127,0.62164127 0 0 0 0.15235,0.26367 l 14.48047,14.85743 a 21.883086,12.23463 0 0 0 -1.78321,4.80074 21.883086,12.23463 0 0 0 0.0879,0.9824 l 0,11.0274 a 21.725401,11.261568 0 0 0 -0.01,0.1015 21.725401,11.261568 0 0 0 21.72656,11.2618 21.725401,11.261568 0 0 0 21.72461,-11.2618 21.725401,11.261568 0 0 0 -0.008,-0.1171 l 0,-10.2579 a 21.883086,12.23463 0 0 0 0.24414,-1.7363 21.883086,12.23463 0 0 0 -0.57227,-2.7246 l 12.09766,-0.4902 a 0.62164127,0.62164127 0 0 0 0.0254,0 c 0.23774,-0.02 0.48923,-0.047 0.75195,-0.166 0.26271,-0.1186 0.49724,-0.3316 0.67579,-0.59182 l -0.043,0.0566 6.74023,-7.72265 a 0.62164127,0.62164127 0 0 0 0.0332,-0.041 c 0.37455,-0.5133 0.39519,-1.16935 0.1836,-1.59375 -0.21003,-0.4213 -0.52087,-0.66882 -0.71289,-0.85352 l -0.006,-0.01 -27.57813,-27.23047 c -0.14316,-0.1514 -0.36834,-0.35659 -0.71875,-0.46289 l 0,-0.004 c -0.0884,-0.0268 -0.18478,-0.0432 -0.28515,-0.0488 z" transform="matrix(0.99958063,0,0,1.0130611,0.0832354,-14.139109)" style="opacity:.45;fill:#666;fill-opacity:1;fill-rule:evenodd;stroke:none;stroke-width:.5;stroke-linecap:butt;stroke-linejoin:miter;stroke-miterlimit:4;stroke-dasharray:none;stroke-opacity:1;filter:url(#filter7724)"/><g id="g7303"><path style="fill:#ccc;fill-opacity:1;fill-rule:evenodd;stroke:none;stroke-width:.5;stroke-linecap:butt;stroke-linejoin:miter;stroke-miterlimit:4;stroke-dasharray:none;stroke-opacity:1" id="path7300" d="m 207.32227,960.56836 c -0.35343,-0.10713 -0.8282,-0.0506 -1.22266,0.21484 a 0.62164127,0.62164127 0 0 0 -0.0859,0.0703 l -7.17969,6.99609 -18.76757,1.44336 a 0.62164127,0.62164127 0 0 0 -0.0488,0.006 c -0.28125,0.0437 -0.55599,0.0826 -0.82227,0.30859 -0.26628,0.22603 -0.35394,0.53844 -0.40429,0.8086 a 0.62164127,0.62164127 0 0 0 -0.004,0.0234 l -1.23828,8.49219 -16.42578,1.31641 a 0.62164127,0.62164127 0 0 0 -0.0625,0.008 c -0.56465,0.10346 -0.88555,0.5253 -1.07422,0.92578 -0.18868,0.40048 -0.28804,0.82692 -0.15625,1.29297 a 0.62164127,0.62164127 0 0 0 0.15234,0.26367 l 27.17774,27.88284 c 0.19823,0.223 0.45162,0.4573 0.80664,0.5879 0.35501,0.1306 0.79057,0.1242 1.20898,-0.029 l 17.46094,-4.6719 a 0.62164127,0.62164127 0 0 0 0.0508,-0.016 c 0.36689,-0.1323 0.86629,-0.3292 1.17383,-0.836 l -0.0312,0.045 4.32031,-5.87895 15.82031,-0.64063 a 0.62164127,0.62164127 0 0 0 0.0254,-0.002 c 0.23774,-0.0197 0.48924,-0.0474 0.75196,-0.16602 0.26271,-0.1186 0.49723,-0.33157 0.67578,-0.59179 l -0.043,0.0566 6.74023,-7.72266 a 0.62164127,0.62164127 0 0 0 0.0332,-0.041 c 0.37455,-0.51326 0.39518,-1.16935 0.18359,-1.59375 -0.21003,-0.42127 -0.52087,-0.66881 -0.71289,-0.85351 l -0.006,-0.006 -27.57812,-27.23047 c -0.14316,-0.15142 -0.36834,-0.35665 -0.71875,-0.46289 z"/><path style="fill:#fff;fill-opacity:1;fill-rule:evenodd;stroke:none;stroke-width:.5;stroke-linecap:butt;stroke-linejoin:miter;stroke-miterlimit:4;stroke-dasharray:none;stroke-opacity:1" id="path7056" d="m 161.69775,981.55068 17.04237,-1.38971 1.47631,-9.47649 19.36615,-1.34386 7.01215,-7.14177 c 0.2998,-0.28932 0.48127,-0.0523 0.62912,0.0736 l 26.88511,26.81103 c 0.30516,0.31127 0.43205,0.71579 0.0798,1.16803 l -6.28634,7.32139 -16.69582,0.58914 -4.87365,6.83246 -17.29074,4.4767 c -0.39848,0.2305 -0.67273,0.026 -0.81962,-0.1231 L 161.3902,982.2 c -0.19664,-0.22208 -0.049,-0.58721 0.30757,-0.64933 z"/><path id="path7072" d="m 206.7832,964.27734 c -0.35215,-0.13289 -0.92304,0.018 -1.19922,0.28125 a 0.8317454,0.8317454 0 0 0 -0.0176,0.0176 l -5.68555,5.76953 -17.91797,1.31446 a 0.8317454,0.8317454 0 0 0 -0.76172,0.71289 l -1.18555,8.25 -14.60937,1.07031 a 0.8317454,0.8317454 0 0 0 -0.0801,0.01 c -0.40748,0.0701 -0.76814,0.33592 -0.9375,0.70899 -0.16935,0.37307 -0.12142,0.89387 0.18555,1.23633 a 0.8317454,0.8317454 0 0 0 0.0352,0.0391 l 24.08398,23.6934 -0.004,-0.01 c 0.11386,0.1135 0.31251,0.2938 0.63477,0.3887 0.32226,0.095 0.75492,0.048 1.0957,-0.1465 l -0.20898,0.084 14.76562,-3.7266 a 0.8317454,0.8317454 0 0 0 0.45703,-0.3027 l 4.82618,-6.32229 15.0664,-0.64063 a 0.8317454,0.8317454 0 0 0 0.57227,-0.26367 l 5.31836,-5.70312 a 0.8317454,0.8317454 0 0 0 0.0449,-0.0508 c 0.26137,-0.33141 0.41133,-0.77748 0.35742,-1.18555 -0.0539,-0.40807 -0.26796,-0.71939 -0.49023,-0.94336 l -23.82032,-23.92383 a 0.8317454,0.8317454 0 0 0 -0.0547,-0.0508 c 0.002,0.002 -0.11855,-0.17766 -0.47071,-0.31055 z" style="fill:#5485c2;fill-opacity:1;fill-rule:evenodd;stroke:none;stroke-width:.5;stroke-linecap:butt;stroke-linejoin:miter;stroke-miterlimit:4;stroke-dasharray:none;stroke-opacity:1"/><path id="path7060" d="m 165.4671,982.52311 15.27743,-1.11978 1.27957,-8.91212 18.23036,-1.33851 5.90417,-5.99208 c 0.26706,-0.25459 0.42873,-0.0461 0.56042,0.0648 l 23.81959,23.92221 c 0.27183,0.2739 0.38487,0.62986 0.071,1.02782 l -5.31868,5.70367 -15.4546,0.65598 -5.06342,6.6328 -14.76565,3.7273 c -0.35497,0.2027 -0.59928,0.022 -0.73013,-0.1085 l -24.08408,-23.69222 c -0.17517,-0.19542 -0.0438,-0.51673 0.27399,-0.5714 z" style="fill:url(#linearGradient7068);fill-opacity:1;fill-rule:evenodd;stroke:none;stroke-width:.5;stroke-linecap:butt;stroke-linejoin:miter;stroke-miterlimit:4;stroke-dasharray:none;stroke-opacity:1"/><path style="fill:url(#linearGradient7082);fill-opacity:1;fill-rule:evenodd;stroke:none;stroke-width:.40000001;stroke-linecap:butt;stroke-linejoin:miter;stroke-miterlimit:4;stroke-dasharray:none;stroke-opacity:1" id="path7074" d="m 165.37824,982.51334 c -0.20969,0.068 -0.38582,0.26217 -0.21966,0.57279 l 16.03178,15.75373 3.03163,-11.86558 c 0.2087,-1.26601 1.45565,-1.71057 2.25,-0.875 l 2.36807,2.26451 c 1.67479,1.64514 5.00667,1.24087 5.12186,-1.0196 0.12437,-2.44078 -1.45375,-5.57538 -0.19886,-7.20072 1.10597,-1.34867 2.74565,-1.19633 4.01831,0.12814 1.10111,1.14595 1.33858,3.97713 1.00314,6.70267 0.12701,1.66496 1.86125,2.57282 3.44721,2.2868 1.38556,-0.24989 2.72841,-1.4797 2.64654,-3.0368 -0.0694,-1.31924 -0.73578,-2.86754 -1.71875,-4.625 -0.015,-0.77883 0.8323,-1.22286 1.625,-0.75 l 2.78125,1.53125 c 4.20522,0.78744 5.08313,-2.89411 1.03125,-4.6875 -2.34442,-1.03766 -3.63157,-1.22624 -5.9375,-3.28125 -1.05652,-0.94156 -1.99258,-1.8192 -2.51647,-3.3516 l -18.17482,1.392 -1.21306,8.87121 z"/><path style="opacity:.30800003;fill:url(#linearGradient7102);fill-opacity:1;fill-rule:evenodd;stroke:none;stroke-width:1px;stroke-linecap:butt;stroke-linejoin:miter;stroke-opacity:1" id="path7084" d="M 181.95548,972.43192 200,971.04966 l 25.3125,24.8125 -15.5625,0.6875 z"/><path style="opacity:.769;fill:url(#linearGradient7094);fill-opacity:1;fill-rule:evenodd;stroke:none;stroke-width:1px;stroke-linecap:butt;stroke-linejoin:miter;stroke-opacity:1" id="path7086" d="m 204.7958,1003.2624 5.03814,-6.76168 -27.66556,-24.2184 -1.47671,9.08347 z"/><g id="g7183" transform="matrix(1.0003391,0,0,0.9100769,-65.338105,60.365852)"><path style="opacity:1;fill:url(#linearGradient7135);fill-opacity:1;stroke:none;stroke-width:.40000001;stroke-linecap:round;stroke-linejoin:round;stroke-miterlimit:4;stroke-dasharray:none;stroke-dashoffset:0;stroke-opacity:1" id="path7133" d="m 238.02485,1046.1842 c -0.0108,-4.3415 0.25411,-8.5465 0.22437,-12.879 0.66292,-4.8899 9.84768,-11.9462 21.70757,-11.4049 12.61538,0.5758 21.18306,4.4142 21.18306,11.2487 -0.002,0.043 -0.005,0.086 -0.008,0.1289 l 0,12.9063 -43.10742,0 z"/><path id="path7104" d="m 238.02564,1035.3917 0,12.9212 a 21.718036,12.374304 0 0 0 -0.0101,0.1132 21.718036,12.374304 0 0 0 21.71804,12.3743 21.718036,12.374304 0 0 0 21.71804,-12.3743 21.718036,12.374304 0 0 0 -0.008,-0.1289 l 0,-12.9055 -43.41837,0 z" style="opacity:1;fill:url(#linearGradient7115);fill-opacity:1;stroke:#acacac;stroke-width:.40142879;stroke-linecap:round;stroke-linejoin:round;stroke-miterlimit:4;stroke-dasharray:none;stroke-dashoffset:0;stroke-opacity:.46842107"/><path id="path7137" d="m 239.16952,1037.4335 40.68598,-1.25 c 0.52094,-9.0523 -10.2768,-13.8336 -19.05138,-13.8125 -17.97268,0.043 -22.05932,9.7806 -21.6346,15.0625 z" style="fill:url(#linearGradient7145);fill-opacity:1;fill-rule:evenodd;stroke:none;stroke-width:.30000001;stroke-linecap:butt;stroke-linejoin:miter;stroke-miterlimit:4;stroke-dasharray:none;stroke-opacity:1"/><ellipse id="path7121" cx="259.037" cy="1036.323" rx="18.606" ry="10.607" style="opacity:1;fill:url(#linearGradient7129);fill-opacity:1;stroke:none;stroke-width:.40000001;stroke-linecap:round;stroke-linejoin:round;stroke-miterlimit:4;stroke-dasharray:none;stroke-dashoffset:0;stroke-opacity:1"/><path id="path7147" d="m 259.8125,1021.6747 a 21.875668,13.443512 0 0 0 -21.875,13.4428 21.875668,13.443512 0 0 0 21.875,13.4429 21.875668,13.443512 0 0 0 21.875,-13.4429 21.875668,13.443512 0 0 0 -21.875,-13.4428 z m 0,1.5207 a 19.892792,11.587543 0 0 1 19.89258,11.5876 19.892792,11.587543 0 0 1 -19.89258,11.5876 19.892792,11.587543 0 0 1 -19.89258,-11.5876 19.892792,11.587543 0 0 1 19.89258,-11.5876 z" style="opacity:1;fill:url(#linearGradient7167);fill-opacity:1;stroke:#acacac;stroke-width:.29866347;stroke-linecap:round;stroke-linejoin:round;stroke-miterlimit:4;stroke-dasharray:none;stroke-dashoffset:0;stroke-opacity:.2157895"/><path id="path7177" d="m 238.22506,1039.741 0.0214,2.811 c 4.63643,7.0008 13.37658,10.0352 21.81796,9.8738 5.20588,-0.1 10.29756,-1.3603 14.25586,-3.3008 3.30766,-1.6215 5.88836,-3.6932 6.98019,-6.0776 l -0.0509,-3.4267 -0.4603,1.7959 c -0.48458,2.466 -3.07418,4.9679 -6.88086,6.834 -3.80668,1.8661 -8.8071,3.0785 -13.86356,3.1752 -8.53058,0.1631 -17.26608,-3.0413 -21.49414,-10.2754 -0.16074,-0.4263 -0.25269,-0.91 -0.32572,-1.4094 z" style="color:#000;font-style:normal;font-variant:normal;font-weight:400;font-stretch:normal;font-size:medium;line-height:normal;font-family:sans-serif;text-indent:0;text-align:start;text-decoration:none;text-decoration-line:none;text-decoration-style:solid;text-decoration-color:#000;letter-spacing:normal;word-spacing:normal;text-transform:none;direction:ltr;block-progression:tb;writing-mode:lr-tb;baseline-shift:baseline;text-anchor:start;white-space:normal;clip-rule:nonzero;display:inline;overflow:visible;visibility:visible;opacity:1;isolation:auto;mix-blend-mode:normal;color-interpolation:sRGB;color-interpolation-filters:linearRGB;solid-color:#000;solid-opacity:1;fill:#6c6c6c;fill-opacity:1;fill-rule:evenodd;stroke:none;stroke-width:1px;stroke-linecap:square;stroke-linejoin:bevel;stroke-miterlimit:4;stroke-dasharray:none;stroke-dashoffset:0;stroke-opacity:1;color-rendering:auto;image-rendering:auto;shape-rendering:auto;text-rendering:auto;enable-background:accumulate"/><path style="color:#000;font-style:normal;font-variant:normal;font-weight:400;font-stretch:normal;font-size:medium;line-height:normal;font-family:sans-serif;text-indent:0;text-align:start;text-decoration:none;text-decoration-line:none;text-decoration-style:solid;text-decoration-color:#000;letter-spacing:normal;word-spacing:normal;text-transform:none;direction:ltr;block-progression:tb;writing-mode:lr-tb;baseline-shift:baseline;text-anchor:start;white-space:normal;clip-rule:nonzero;display:inline;overflow:visible;visibility:visible;opacity:.147;isolation:auto;mix-blend-mode:normal;color-interpolation:sRGB;color-interpolation-filters:linearRGB;solid-color:#000;solid-opacity:1;fill:#fff;fill-opacity:1;fill-rule:evenodd;stroke:none;stroke-width:1px;stroke-linecap:square;stroke-linejoin:bevel;stroke-miterlimit:4;stroke-dasharray:none;stroke-dashoffset:0;stroke-opacity:1;color-rendering:auto;image-rendering:auto;shape-rendering:auto;text-rendering:auto;enable-background:accumulate" id="path7181" d="m 238.22506,1039.7385 0.0214,2.7528 c 4.63643,6.8559 13.37658,9.8275 21.81796,9.6695 5.20588,-0.098 10.29756,-1.3322 14.25586,-3.2325 3.30766,-1.588 5.88836,-3.6168 6.98019,-5.9518 l -0.0509,-3.3558 -0.4603,1.7587 c -0.48458,2.415 -3.07418,4.8651 -6.88086,6.6926 -3.80668,1.8275 -8.8071,3.0148 -13.86356,3.1095 -8.53058,0.1597 -17.26608,-2.9784 -21.49414,-10.0628 -0.16074,-0.4174 -0.25269,-0.8911 -0.32572,-1.3802 z"/></g><path style="opacity:1;fill:gray;fill-opacity:1;stroke:none;stroke-width:.30000001;stroke-linecap:square;stroke-linejoin:bevel;stroke-miterlimit:4;stroke-dasharray:none;stroke-dashoffset:0;stroke-opacity:.46842107;filter:url(#filter7296)" id="path7218" d="m 198.76287,1012.3787 -3.11391,-5.6088 -2.72644,5.8071 1.76417,-6.1679 -6.0341,2.1783 5.60884,-3.1139 -5.80707,-2.7265 6.16792,1.7642 -2.17833,-6.0341 3.11391,5.6088 2.72644,-5.80703 -1.76417,6.16793 6.0341,-2.1783 -5.60884,3.1139 5.80707,2.7264 -6.16792,-1.7642 z" transform="matrix(1.1376079,0,0,0.98722203,-27.041272,11.355595)"/><g id="g7252" transform="matrix(1.0003391,0,0,0.9100769,0.18410634,89.203914)" style="fill:#4d4d4d;filter:url(#filter7280)"><g id="g7254" transform="translate(-112.5,4.75)" style="fill:#4d4d4d"><path id="path7256" d="m 293.875,1004.0497 14.5,-2.0625 12.625,-7.62504 -15,2.4375 z" style="fill:#4d4d4d;fill-rule:evenodd;stroke:none;stroke-width:1px;stroke-linecap:butt;stroke-linejoin:miter;stroke-opacity:1"/><path id="path7258" d="m 293.86916,1004.0689 13.34664,-5.1596 13.78479,-4.54307 -14.95594,2.39966 z" style="fill:#4d4d4d;fill-rule:evenodd;stroke:none;stroke-width:1px;stroke-linecap:butt;stroke-linejoin:miter;stroke-opacity:1"/></g><path style="fill:#4d4d4d;fill-opacity:1;fill-rule:evenodd;stroke:none;stroke-width:1px;stroke-linecap:butt;stroke-linejoin:miter;stroke-opacity:1" id="path7260" d="m 193.54838,1001.5389 2.12132,1.8561 0.13259,3.3588 12.66163,-7.62352 z"/></g><g id="g7212" transform="matrix(1.0003391,0,0,0.9100769,-0.06597843,89.033274)"><g id="g7196" transform="translate(-112.5,4.75)"><path style="fill:red;fill-rule:evenodd;stroke:none;stroke-width:1px;stroke-linecap:butt;stroke-linejoin:miter;stroke-opacity:1" id="path7192" d="m 293.875,1004.0497 14.5,-2.0625 12.625,-7.62504 -15,2.4375 z"/><path style="fill:#f55;fill-rule:evenodd;stroke:none;stroke-width:1px;stroke-linecap:butt;stroke-linejoin:miter;stroke-opacity:1" id="path7194" d="m 293.86916,1004.0689 13.34664,-5.1596 13.78479,-4.54307 -14.95594,2.39966 z"/></g><path id="path7202" d="m 193.54838,1001.5389 2.12132,1.8561 0.13259,3.3588 12.66163,-7.62352 z" style="fill:url(#linearGradient7210);fill-opacity:1;fill-rule:evenodd;stroke:none;stroke-width:1px;stroke-linecap:butt;stroke-linejoin:miter;stroke-opacity:1"/></g></g></g></g></svg>