<svg xmlns="http://www.w3.org/2000/svg" xmlns:svg="http://www.w3.org/2000/svg" id="svg2" width="128" height="128" version="1.1" viewBox="0 0 128 128"><metadata id="metadata224"/><defs id="defs4"><linearGradient id="XMLID_1_" x1="217.34" x2="217.34" y1="214.33" y2="149.08" gradientTransform="translate(-196.1279,-102.2637)" gradientUnits="userSpaceOnUse"><stop id="stop7" offset="0" stop-color="#949494"/><stop id="stop9" offset="1" stop-color="#828282"/><midPointStop offset="0" stop-color="#949494"/><midPointStop offset=".5" stop-color="#949494"/><midPointStop offset="1" stop-color="#828282"/></linearGradient><linearGradient id="XMLID_2_" x1="217.34" x2="217.34" y1="214.33" y2="149.07" gradientTransform="translate(-196.1279,-102.2637)" gradientUnits="userSpaceOnUse"><stop id="stop12" offset="0" stop-color="#cecedb"/><stop id="stop14" offset="1" stop-color="#fff"/><midPointStop offset="0" stop-color="#CECEDB"/><midPointStop offset=".5" stop-color="#CECEDB"/><midPointStop offset="1" stop-color="#FFF"/></linearGradient><linearGradient id="XMLID_3_" x1="234.54" x2="302.78" y1="159.76" y2="201.69" gradientTransform="translate(-196.1279,-102.2637)" gradientUnits="userSpaceOnUse"><stop id="stop17" offset="0" stop-color="#828282"/><stop id="stop19" offset="1" stop-color="#616161"/><midPointStop offset="0" stop-color="#828282"/><midPointStop offset=".5" stop-color="#828282"/><midPointStop offset="1" stop-color="#616161"/></linearGradient><linearGradient id="XMLID_4_" x1="234.54" x2="302.78" y1="159.77" y2="201.69" gradientTransform="translate(-196.1279,-102.2637)" gradientUnits="userSpaceOnUse"><stop id="stop22" offset="0" stop-color="#616161"/><stop id="stop24" offset="1" stop-color="#494949"/><midPointStop offset="0" stop-color="#616161"/><midPointStop offset=".5" stop-color="#616161"/><midPointStop offset="1" stop-color="#494949"/></linearGradient><linearGradient id="XMLID_5_" x1="218.57" x2="268.31" y1="209.45" y2="209.45" gradientTransform="translate(-196.1279,-102.2637)" gradientUnits="userSpaceOnUse"><stop id="stop27" offset="0" stop-color="#fff030"/><stop id="stop29" offset="1" stop-color="#ffae00"/><midPointStop offset="0" stop-color="#FFF030"/><midPointStop offset=".5" stop-color="#FFF030"/><midPointStop offset="1" stop-color="#FFAE00"/></linearGradient><linearGradient id="XMLID_6_" x1="218.57" x2="268.31" y1="209.45" y2="209.45" gradientTransform="translate(-196.1279,-102.2637)" gradientUnits="userSpaceOnUse"><stop id="stop32" offset="0" stop-color="#fff030"/><stop id="stop34" offset="1" stop-color="#ff9"/><midPointStop offset="0" stop-color="#FFF030"/><midPointStop offset=".5" stop-color="#FFF030"/><midPointStop offset="1" stop-color="#FF9"/></linearGradient><linearGradient id="XMLID_7_" x1="236.28" x2="304.52" y1="156.93" y2="198.86" gradientTransform="translate(-196.1279,-102.2637)" gradientUnits="userSpaceOnUse"><stop id="stop37" offset="0" stop-color="#cdcabd"/><stop id="stop39" offset="1" stop-color="#ab9366"/><midPointStop offset="0" stop-color="#CDCABD"/><midPointStop offset=".5" stop-color="#CDCABD"/><midPointStop offset="1" stop-color="#AB9366"/></linearGradient><linearGradient id="XMLID_8_" x1="236.28" x2="304.52" y1="156.93" y2="198.86" gradientTransform="translate(-196.1279,-102.2637)" gradientUnits="userSpaceOnUse"><stop id="stop42" offset="0" stop-color="#ffe091"/><stop id="stop44" offset="1" stop-color="#d6a84a"/><midPointStop offset="0" stop-color="#FFE091"/><midPointStop offset=".5" stop-color="#FFE091"/><midPointStop offset="1" stop-color="#D6A84A"/></linearGradient><linearGradient id="XMLID_9_" x1="267.9" x2="267.9" y1="140.18" y2="183.76" gradientTransform="translate(-196.1279,-102.2637)" gradientUnits="userSpaceOnUse"><stop id="stop47" offset="0" stop-color="#fff"/><stop id="stop49" offset="1" stop-color="#ffe091"/><midPointStop offset="0" stop-color="#FFF"/><midPointStop offset=".5" stop-color="#FFF"/><midPointStop offset="1" stop-color="#FFE091"/></linearGradient><radialGradient id="XMLID_10_" cx="240.05" cy="155.55" r="9.437" gradientTransform="translate(-196.1279,-102.2637)" gradientUnits="userSpaceOnUse"><stop id="stop52" offset="0" stop-color="#ccc"/><stop id="stop54" offset="1" stop-color="#494949"/><midPointStop offset="0" stop-color="#CCC"/><midPointStop offset=".5" stop-color="#CCC"/><midPointStop offset="1" stop-color="#494949"/></radialGradient><radialGradient id="XMLID_11_" cx="234.96" cy="-138.84" r="9.436" gradientTransform="matrix(0,-2.404,0.649,0,116.6299,663.6741)" gradientUnits="userSpaceOnUse"><stop id="stop57" offset="0" stop-color="#ccc"/><stop id="stop59" offset="1" stop-color="#616161"/><midPointStop offset="0" stop-color="#CCC"/><midPointStop offset=".5" stop-color="#CCC"/><midPointStop offset="1" stop-color="#616161"/></radialGradient><radialGradient id="XMLID_12_" cx="389.18" cy="323.53" r="9.436" gradientTransform="matrix(2.404,0,0,0.649,-871.0667,-155.8388)" gradientUnits="userSpaceOnUse"><stop id="stop62" offset="0" stop-color="#ccc"/><stop id="stop64" offset="1" stop-color="#616161"/><midPointStop offset="0" stop-color="#CCC"/><midPointStop offset=".5" stop-color="#CCC"/><midPointStop offset="1" stop-color="#616161"/></radialGradient><radialGradient id="XMLID_13_" cx="291.11" cy="266.43" r="23.338" gradientTransform="matrix(1,0,0,0.6286,-196.1279,-113.8702)" gradientUnits="userSpaceOnUse"><stop id="stop67" offset="0" stop-color="#ccc"/><stop id="stop69" offset="1" stop-color="#494949"/><midPointStop offset="0" stop-color="#CCC"/><midPointStop offset=".5" stop-color="#CCC"/><midPointStop offset="1" stop-color="#494949"/></radialGradient><radialGradient id="XMLID_14_" cx="271.71" cy="195.03" r="9.436" gradientTransform="translate(-196.1279,-102.2637)" gradientUnits="userSpaceOnUse"><stop id="stop72" offset="0" stop-color="#57adff"/><stop id="stop74" offset="1" stop-color="#0053bd"/><midPointStop offset="0" stop-color="#57ADFF"/><midPointStop offset=".5" stop-color="#57ADFF"/><midPointStop offset="1" stop-color="#0053BD"/></radialGradient><radialGradient id="XMLID_15_" cx="293.09" cy="181.06" r="16.562" gradientTransform="translate(-196.1279,-102.2637)" gradientUnits="userSpaceOnUse"><stop id="stop77" offset="0" stop-color="#ccc"/><stop id="stop79" offset="1" stop-color="#494949"/><midPointStop offset="0" stop-color="#CCC"/><midPointStop offset=".5" stop-color="#CCC"/><midPointStop offset="1" stop-color="#494949"/></radialGradient><radialGradient id="XMLID_16_" cx="241.06" cy="335.48" r="16.562" gradientTransform="matrix(1,0,0,0.5143,-196.1279,-102.45)" gradientUnits="userSpaceOnUse"><stop id="stop82" offset="0" stop-color="#ccc"/><stop id="stop84" offset="1" stop-color="#494949"/><midPointStop offset="0" stop-color="#CCC"/><midPointStop offset=".5" stop-color="#CCC"/><midPointStop offset="1" stop-color="#494949"/></radialGradient><linearGradient id="XMLID_17_" x1="18.509" x2="18.509" y1="234.45" y2="149.36" gradientTransform="matrix(0.7071,-0.7071,0.7071,0.7071,-28.2853,64.5449)" gradientUnits="userSpaceOnUse"><stop id="stop87" offset="0" stop-color="#828282"/><stop id="stop89" offset="1" stop-color="#616161"/><midPointStop offset="0" stop-color="#828282"/><midPointStop offset=".5" stop-color="#828282"/><midPointStop offset="1" stop-color="#616161"/></linearGradient><linearGradient id="XMLID_18_" x1="204.8" x2="204.8" y1="222.81" y2="137.72" gradientTransform="translate(-196.1279,-102.2637)" gradientUnits="userSpaceOnUse"><stop id="stop92" offset="0" stop-color="#828282"/><stop id="stop94" offset="1" stop-color="#616161"/><midPointStop offset="0" stop-color="#828282"/><midPointStop offset=".5" stop-color="#828282"/><midPointStop offset="1" stop-color="#616161"/></linearGradient><linearGradient id="XMLID_19_" x1="204.8" x2="204.8" y1="221.58" y2="138.95" gradientTransform="translate(-196.1279,-102.2637)" gradientUnits="userSpaceOnUse"><stop id="stop97" offset="0" stop-color="#cecedb"/><stop id="stop99" offset="1" stop-color="#bdbdcf"/><midPointStop offset="0" stop-color="#CECEDB"/><midPointStop offset=".5" stop-color="#CECEDB"/><midPointStop offset="1" stop-color="#BDBDCF"/></linearGradient><linearGradient id="XMLID_20_" x1="204.8" x2="204.8" y1="221.58" y2="138.95" gradientTransform="translate(-196.1279,-102.2637)" gradientUnits="userSpaceOnUse"><stop id="stop102" offset="0" stop-color="#cecedb"/><stop id="stop104" offset="1" stop-color="#fff"/><midPointStop offset="0" stop-color="#CECEDB"/><midPointStop offset=".5" stop-color="#CECEDB"/><midPointStop offset="1" stop-color="#FFF"/></linearGradient><radialGradient id="XMLID_21_" cx="66.706" cy="22.942" r="59.341" gradientUnits="userSpaceOnUse"><stop id="stop107" offset="0" stop-color="#06c"/><stop id="stop109" offset="1" stop-color="#039"/><midPointStop offset="0" stop-color="#06C"/><midPointStop offset=".5" stop-color="#06C"/><midPointStop offset="1" stop-color="#039"/></radialGradient><linearGradient id="XMLID_22_" x1="85.76" x2="85.76" y1="12.79" y2="44.682" gradientUnits="userSpaceOnUse"><stop id="stop112" offset="0" stop-color="#fff"/><stop id="stop114" offset="1" stop-color="#0d3692"/><midPointStop offset="0" stop-color="#FFF"/><midPointStop offset=".5" stop-color="#FFF"/><midPointStop offset="1" stop-color="#0D3692"/></linearGradient></defs><path id="path116" d="m 380,630.36218 -60,0 0,-60 60,0 0,60 z" style="fill:none"/><g id="g118" transform="matrix(0.46875,0,0,0.46875,-0.14578125,69.705312)"><g id="g4352" transform="matrix(3.2659458,0,0,3.2659458,-149.12678,-141.9094)"><path id="path210" d="m 50.789,40.843 c 0,21.287 17.318,38.606 38.604,38.606 C 110.68,79.449 128,62.13 128,40.843 128,19.556 110.68,2.238 89.394,2.238 68.107,2.238 50.789,19.556 50.789,40.843 Z" style="opacity:.36000001;fill:#999"/><path id="path212" d="m 47.123,38.605 c 0,21.287 17.318,38.605 38.605,38.605 21.288,0 38.605,-17.318 38.605,-38.605 C 124.333,17.318 107.023,0 85.734,0 64.447,0 47.129,17.318 47.129,38.605 Z" style="fill:#06c"/><path id="path214" d="m 49.919,38.046 c 0,19.776 16.033,35.809 35.808,35.809 19.777,0 35.808,-16.033 35.808,-35.809 0,-19.776 -16.03,-35.808 -35.807,-35.808 -19.776,0 -35.809,16.032 -35.809,35.808 z" style="fill:url(#XMLID_21_)"/><path id="path216" d="M 53.836,41.543 C 53.836,20.544 68.839,3.394 87.72,2.296 87.061,2.26 86.397,2.238 85.728,2.238 65.953,2.238 49.92,18.27 49.92,38.046 c 0,9.135 3.427,17.465 9.056,23.791 -3.261,-5.924 -5.14,-12.868 -5.14,-20.294 z" style="opacity:.36000001;fill:#fff"/><path id="path218" d="m 86.278,36.289 c 12.123,0 23.283,-1.762 32.145,-4.715 -2.83,-16.685 -16.38,-29.335 -32.69,-29.335 -16.191,0 -29.674,12.472 -32.633,28.981 9.019,3.166 20.578,5.069 33.181,5.069 z" style="opacity:.5;fill:url(#XMLID_22_)"/><path id="path220" d="m 91.36,57.105 c 0,4.489 0,7.102 4.407,7.102 l 0,1.469 -20.08,0 0,-1.469 c 4.49,0 4.49,-2.612 4.49,-7.102 l 0,-19.917 c 0,-4.326 0,-7.264 -4.49,-7.264 l 0,-1.469 15.673,0 0,28.65 z M 85.728,10.416 c 3.347,0 6.122,2.775 6.122,6.122 0,3.346 -2.775,6.122 -6.122,6.122 -3.346,0 -6.121,-2.775 -6.121,-6.122 -0.001,-3.347 2.775,-6.122 6.121,-6.122 z" style="fill:#fff"/></g></g></svg>