<svg xmlns="http://www.w3.org/2000/svg" xmlns:svg="http://www.w3.org/2000/svg" id="svg2" width="128" height="128" version="1.1" viewBox="0 0 128 128"><metadata id="metadata18"/><g id="g14444" transform="matrix(4.0000015,0,0,4.0000015,-737.96718,-2324.9226)"><path style="fill:#045;fill-opacity:1;stroke:none" id="path14366" d="m 190.19983,591.11776 20.61106,-0.0442 -1.04409,2.03293 -18.60022,0.0221 z"/><rect id="rect14354" width="30" height="30" x="185.533" y="582.576" style="opacity:0;fill:#fff;fill-opacity:.99215686;stroke:none"/><path style="fill:#93a7ac;fill-opacity:1;stroke:none" id="path14358" d="m 190.2164,592.97394 20.24093,0 4.56747,11.19186 -6.34869,5.49949 -15.67543,0.2113 -6.70348,-5.76259 z"/><path style="fill:#afdde9;stroke:none" id="path14360" d="m 192.09361,594.28437 17.0625,0.0625 4.375,10.5 -5.15152,4.09165 -14.59876,-0.78431 -5.99972,-3.43234 z"/><g id="g14427" transform="translate(0.08838835,-3.8890873)"><path style="fill:#5fbcd3;fill-opacity:1;stroke:none" id="rect14400" d="m 191.53755,587.2627 14.45149,0 3.75651,3.66811 0,17.98703 -18.208,0 z"/><path id="path14405" d="m 192.37837,588.2627 12.72679,0 0.15399,3.2757 0.23601,-3.2757 3.40957,3.32934 -3.09359,0.0901 3.09359,0.46403 0,15.77169 -16.52636,0 z" style="fill:#fff;fill-opacity:1;stroke:none"/><g id="g14419" style="fill:#5fbcd3;fill-opacity:1"><rect id="rect14407" width="12.313" height=".875" x="194.313" y="592.612" style="fill:#5fbcd3;fill-opacity:1;stroke:none"/><rect style="fill:#5fbcd3;fill-opacity:1;stroke:none" id="rect14409" width="12.313" height=".875" x="194.313" y="595.3"/><rect id="rect14411" width="12.313" height=".875" x="194.313" y="597.487" style="fill:#5fbcd3;fill-opacity:1;stroke:none"/><rect style="fill:#5fbcd3;fill-opacity:1;stroke:none" id="rect14413" width="12.313" height=".875" x="194.313" y="599.675"/><rect id="rect14415" width="12.313" height=".875" x="194.313" y="602.05" style="fill:#5fbcd3;fill-opacity:1;stroke:none"/><rect style="fill:#5fbcd3;fill-opacity:1;stroke:none" id="rect14417" width="12.313" height=".875" x="194.313" y="604.55"/></g></g><path style="fill:#045;fill-opacity:1;stroke:none" id="path14362" d="m 187.21861,599.59687 6.6875,0 c -0.76811,8.23393 12.417,11.65619 13.3125,0 l 7,0 0,11 -27,0 z"/><path style="fill:#006680;fill-opacity:1" id="path14364" d="m 210.7988,591.08829 -1.01024,1.87571 3.60121,7.49929 -5.40347,0 c 0,4.14187 -3.31128,7.52343 -7.45313,7.52343 -4.14184,0 -7.5,-3.35815 -7.5,-7.49999 l -5.40346,0 3.76138,-7.52275 -1.17042,-1.85225 -4.6875,9.375 0,11.25 30,0 -0.0469,-11.27344 z"/></g></svg>