<svg xmlns="http://www.w3.org/2000/svg" xmlns:svg="http://www.w3.org/2000/svg" id="Layer_1" width="128" height="128" x="0" y="0" version="1.1" viewBox="0 0 128 128" xml:space="preserve"><metadata id="metadata45"/><g id="g877" transform="matrix(0.45704166,0,0,0.45708572,0,-0.0063988)"><path style="fill:#ffbe00;fill-opacity:1" id="path2" d="m 262.797,219.065 c -1.636,-1.505 -17.773,-0.464 -17.773,-0.464 l -0.184,-17.073 -7.893,-9.022 -18.709,-0.306 -0.018,-0.026 v 0 c -0.079,0.254 -0.009,-18.779 -0.009,-18.779 l -8.733,-6.327 c 0,0 -16.985,-0.499 -17.125,-0.63 l -1.365,-17.449 -15.725,-18.613 C 180.697,118.65 183.83,105.62 183.83,91.837 183.83,41.126 142.683,0.014 91.929,0.014 41.147,0.004 0,41.116 0,91.827 c 0,50.72 41.147,91.84 91.91,91.84 14.08,0 27.373,-3.264 39.3,-8.926 L 235.739,279.9 c 0,0 44.253,0.122 44.253,0.105 l 0.07,-44.664 c 0,0 -6.948,-6.773 -17.265,-16.276 z M 74.374,96.378 c -12.032,0 -21.781,-9.81 -21.781,-21.912 0,-12.102 9.748,-21.921 21.781,-21.921 12.033,0 21.79,9.818 21.79,21.921 0,12.103 -9.758,21.912 -21.79,21.912 z"/><path style="fill:#d88b00;fill-opacity:1" id="path4" d="m 74.391,43.767 c -16.915,0 -30.628,13.713 -30.628,30.628 0,16.915 13.713,30.628 30.628,30.628 16.924,0 30.628,-13.713 30.628,-30.628 0,-16.915 -13.704,-30.628 -30.628,-30.628 z m 0,43.755 c -7.246,0 -13.126,-5.881 -13.126,-13.126 0,-7.254 5.881,-13.126 13.126,-13.126 7.246,0 13.126,5.872 13.126,13.126 0,7.245 -5.88,13.126 -13.126,13.126 z"/><path style="fill:#d88b00;fill-opacity:1" id="path6" d="m 152.239,161.011 c -8.357,7.281 -18.027,13.03 -28.624,16.942 l 103.916,102.096 h 43.754 z"/></g></svg>