<svg xmlns="http://www.w3.org/2000/svg" xmlns:svg="http://www.w3.org/2000/svg" xmlns:xlink="http://www.w3.org/1999/xlink" id="svg11110" width="128" height="128" version="1.1" viewBox="0 0 127.008 128"><defs id="defs11112"><linearGradient id="linearGradient6945-19" x1="-138.877" x2="-183.578" y1="941.098" y2="867.681" gradientTransform="matrix(1.0615588,0,0,1.0615588,234.84607,21.116196)" gradientUnits="userSpaceOnUse" xlink:href="#linearGradient6939-952"/><linearGradient id="linearGradient6939-952"><stop id="stop4257" offset="0" style="stop-color:#7f7f7f;stop-opacity:1"/><stop id="stop4259" offset="1" style="stop-color:#e5e5e5;stop-opacity:1"/></linearGradient><linearGradient id="linearGradient6953-688" x1="-201.604" x2="-197.517" y1="922.025" y2="876.941" gradientTransform="matrix(1.0615588,0,0,1.0615588,234.84607,21.116196)" gradientUnits="userSpaceOnUse" xlink:href="#linearGradient6947-784"/><linearGradient id="linearGradient6947-784"><stop id="stop4263" offset="0" style="stop-color:#a0a0a0;stop-opacity:1"/><stop id="stop4265" offset="1" style="stop-color:#bfbfbf;stop-opacity:1"/></linearGradient><linearGradient id="linearGradient6895-347" x1="-179.973" x2="-142.282" y1="970.853" y2="1035.005" gradientTransform="matrix(1.0615588,0,0,1.0615588,247.86586,-66.64693)" gradientUnits="userSpaceOnUse" xlink:href="#linearGradient6889-205"/><linearGradient id="linearGradient6889-205"><stop id="stop4269" offset="0" style="stop-color:#e0e0e0;stop-opacity:1"/><stop id="stop4271" offset="1" style="stop-color:#868686;stop-opacity:1"/></linearGradient><linearGradient id="linearGradient6903-193" x1="-189.727" x2="-199.141" y1="1000.165" y2="1000.099" gradientTransform="matrix(1.0615588,0,0,1.0615588,247.86586,-66.64693)" gradientUnits="userSpaceOnUse" xlink:href="#linearGradient6897-104"/><linearGradient id="linearGradient6897-104"><stop id="stop4275" offset="0" style="stop-color:#9b9b9b;stop-opacity:1"/><stop id="stop4277" offset="1" style="stop-color:#6f6f6f;stop-opacity:1"/></linearGradient></defs><metadata id="metadata11115"/><g id="layer1" transform="translate(0,-924.36216)"><g id="g4264" transform="translate(-1.7674224,-0.6423566)"><rect style="opacity:0;fill:#4b4b4b;fill-opacity:1;stroke:none;stroke-width:2;stroke-linecap:round;stroke-linejoin:round;stroke-miterlimit:4;stroke-dasharray:2,2;stroke-dashoffset:0;stroke-opacity:1" id="rect4214" width="128" height="128" x="1.271" y="925.005"/><rect style="opacity:0;fill:#fff;fill-opacity:1;stroke:none;stroke-width:1.10000002;stroke-linecap:round;stroke-linejoin:round;stroke-miterlimit:4;stroke-dasharray:none;stroke-dashoffset:0;stroke-opacity:1" id="rect12723" width="128" height="128" x="1.271" y="925.005" ry="0"/><g id="g4244"><rect id="rect5619" width="72.54" height="89.917" x="14.74" y="938.981" ry="8.092" style="opacity:1;fill:#fff;fill-opacity:1;stroke:#6b6b6b;stroke-width:1.0716325;stroke-linecap:square;stroke-linejoin:round;stroke-miterlimit:20;stroke-dasharray:none;stroke-dashoffset:0;stroke-opacity:1"/><rect style="opacity:1;fill:url(#linearGradient6945-19);fill-opacity:1;stroke:#5b5b5b;stroke-width:1.06155884;stroke-linecap:square;stroke-linejoin:round;stroke-miterlimit:20;stroke-dasharray:none;stroke-dashoffset:0;stroke-opacity:1" id="rect6921" width="72.55" height="88.222" x="17.94" y="937.159" ry="4.929"/><path style="opacity:1;fill:url(#linearGradient6953-688);fill-opacity:1;stroke:none;stroke-width:2.02163982;stroke-linecap:square;stroke-linejoin:round;stroke-miterlimit:20;stroke-dasharray:none;stroke-dashoffset:0;stroke-opacity:.98823529" id="path6923" d="m 22.868839,937.15945 c -2.730457,0 -4.928372,2.19791 -4.928372,4.92837 l 0,78.36458 c 0,2.7304 2.197915,4.9283 4.928372,4.9283 l 10.01016,0 0,-88.22125 z"/><rect id="rect6927" width="72.55" height="88.222" x="17.94" y="937.159" ry="4.929" style="opacity:1;fill:none;fill-opacity:1;stroke:#6b6b6b;stroke-width:1.06155884;stroke-linecap:square;stroke-linejoin:round;stroke-miterlimit:20;stroke-dasharray:none;stroke-dashoffset:0;stroke-opacity:1"/><rect style="opacity:1;fill:#fff;fill-opacity:1;stroke:#3c3c3c;stroke-width:1.08519006;stroke-linecap:square;stroke-linejoin:round;stroke-miterlimit:20;stroke-dasharray:none;stroke-dashoffset:0;stroke-opacity:1" id="rect5605" width="74.323" height="89.995" x="28.661" y="950.843" ry="4.336"/><g id="g6310" transform="matrix(1.0466885,0,0,1.0466885,-41.43282,-48.481634)"><path id="path21630" d="m 133.97624,964.46093 11.87262,-0.13069 c 1.13073,-0.0124 1.95633,0.31836 2.12685,2.01594 l 0.53846,13.24982 c 0.007,2.03925 -0.78018,2.72772 -2.29958,2.74445 l -13.71005,0.15091 1.4717,-18.03043 z" style="color:#000;display:inline;overflow:visible;visibility:visible;opacity:1;fill:#a5a5a5;fill-opacity:1;fill-rule:evenodd;stroke:none;stroke-width:2;stroke-linecap:round;stroke-linejoin:round;stroke-miterlimit:4;stroke-dasharray:none;stroke-dashoffset:0;stroke-opacity:1;marker:none;marker-start:none;marker-mid:none;marker-end:none"/><g id="g6254" transform="matrix(0.78920476,-0.00868746,-0.05232016,0.79324925,113.07304,218.40778)"><path style="color:#000;display:inline;overflow:visible;visibility:visible;opacity:1;fill:#6a6a6a;fill-opacity:1;fill-rule:evenodd;stroke:none;stroke-width:2;stroke-linecap:round;stroke-linejoin:round;stroke-miterlimit:4;stroke-dasharray:none;stroke-dashoffset:0;stroke-opacity:1;marker:none;marker-start:none;marker-mid:none;marker-end:none" id="path21634" d="m 88.94849,960.27491 17.02141,0 c 1.6211,0 2.83691,0.42879 3.24218,2.57274 l 2.02636,16.72284 c 0.20264,2.57275 -0.86121,3.43033 -3.03954,3.43033 l -19.655682,0 0.405272,-22.72591 z"/><path style="color:#000;display:inline;overflow:visible;visibility:visible;opacity:1;fill:none;fill-opacity:1;fill-rule:evenodd;stroke:#888;stroke-width:1.7499392;stroke-linecap:round;stroke-linejoin:round;stroke-miterlimit:4;stroke-dasharray:none;stroke-dashoffset:0;stroke-opacity:.98823529;marker:none;marker-start:none;marker-mid:none;marker-end:none" id="path21636" d="m 91.255942,962.66863 14.581978,0 c 0.70645,0 1.093,0.0732 1.19798,0.78007 l 1.81442,15.48502 c 0.15994,1.04536 0.41818,1.63814 -0.3216,1.6734 l -17.592677,0 0.319899,-17.93849 z"/></g><g id="g6250" transform="matrix(0.78988252,-0.02022906,-0.04083095,0.79303886,100.61478,219.72996)"><path style="color:#000;display:inline;overflow:visible;visibility:visible;opacity:1;fill:#4b4b4b;fill-opacity:1;fill-rule:evenodd;stroke:none;stroke-width:2;stroke-linecap:round;stroke-linejoin:round;stroke-miterlimit:4;stroke-dasharray:none;stroke-dashoffset:0;stroke-opacity:1;marker:none;marker-start:none;marker-mid:none;marker-end:none" id="path21638" d="m 90.021534,980.5881 19.361636,0 c 1.84397,0 3.22694,0.53217 3.68793,3.19303 l 2.30496,20.75467 c 0.23049,3.1931 -0.97961,4.2574 -3.45744,4.2574 l -22.358079,0 0.460993,-28.2051 z"/><path style="color:#000;display:inline;overflow:visible;visibility:visible;opacity:1;fill:none;fill-opacity:1;fill-rule:evenodd;stroke:#7b7b7b;stroke-width:1.7499392;stroke-linecap:round;stroke-linejoin:round;stroke-miterlimit:4;stroke-dasharray:none;stroke-dashoffset:0;stroke-opacity:1;marker:none;marker-start:none;marker-mid:none;marker-end:none" id="path21640" d="m 92.64623,982.98236 16.58681,0 c 0.80358,0 1.24327,0.093 1.36268,0.99192 l 2.06387,19.69052 c 0.18194,1.3292 0.47568,2.083 -0.36581,2.1278 l -20.011432,0 0.363882,-22.81024 z"/></g></g><rect id="rect6867" width="72.55" height="88.222" x="33.006" y="948.279" ry="4.929" style="opacity:1;fill:url(#linearGradient6895-347);fill-opacity:1;stroke:#555;stroke-width:1.06155884;stroke-linecap:square;stroke-linejoin:round;stroke-miterlimit:20;stroke-dasharray:none;stroke-dashoffset:0;stroke-opacity:1"/><path id="rect6869" d="m 37.934499,948.27979 c -2.730456,0 -4.928371,2.19792 -4.928371,4.92837 l 0,78.36454 c 0,2.7304 2.197915,4.9284 4.928371,4.9284 l 10.01016,0 0,-88.22131 z" style="opacity:.94699994;fill:url(#linearGradient6903-193);fill-opacity:1;stroke:none;stroke-width:2.02163982;stroke-linecap:square;stroke-linejoin:round;stroke-miterlimit:20;stroke-dasharray:none;stroke-dashoffset:0;stroke-opacity:.98823529"/><rect style="opacity:1;fill:none;fill-opacity:1;stroke:#555;stroke-width:1.06155884;stroke-linecap:square;stroke-linejoin:round;stroke-miterlimit:20;stroke-dasharray:none;stroke-dashoffset:0;stroke-opacity:1" id="rect6887" width="72.55" height="88.222" x="33.006" y="948.279" ry="4.758"/><rect id="rect5603" width="72.55" height="88.222" x="33.006" y="948.279" ry="4.758" style="opacity:1;fill:none;fill-opacity:1;stroke:#3c3c3c;stroke-width:1.06155884;stroke-linecap:square;stroke-linejoin:round;stroke-miterlimit:20;stroke-dasharray:none;stroke-dashoffset:0;stroke-opacity:1"/><rect id="rect6437" width="2.044" height="86.989" x="46.746" y="948.793" ry="1.022" style="opacity:.94699994;fill:#8e8e8e;fill-opacity:1;stroke:none;stroke-width:1;stroke-linecap:square;stroke-linejoin:round;stroke-miterlimit:20;stroke-dasharray:none;stroke-dashoffset:0;stroke-opacity:1"/></g></g></g></svg>