<svg xmlns="http://www.w3.org/2000/svg" xmlns:svg="http://www.w3.org/2000/svg" xmlns:xlink="http://www.w3.org/1999/xlink" id="svg2" width="128" height="128" version="1.1" viewBox="0 0 128 128"><metadata id="metadata18"/><defs id="defs16"><linearGradient id="linearGradient2573"><stop style="stop-color:#fff;stop-opacity:1" id="stop2575" offset="0"/><stop style="stop-color:#fff;stop-opacity:0" id="stop2577" offset="1"/></linearGradient><linearGradient id="linearGradient9749"><stop style="stop-color:#fff;stop-opacity:1" id="stop9751" offset="0"/><stop style="stop-color:#ededed;stop-opacity:1" id="stop9753" offset="1"/></linearGradient><linearGradient id="linearGradient15107"><stop style="stop-color:#fff;stop-opacity:1" id="stop15109" offset="0"/><stop style="stop-color:#e2e2e2;stop-opacity:1" id="stop15111" offset="1"/></linearGradient><linearGradient id="linearGradient1483" x1="11.573" x2="18.475" y1="4.746" y2="26.023" gradientTransform="matrix(4.3864156,0,0,4.9227863,-7.2583544,-54.447237)" gradientUnits="userSpaceOnUse" xlink:href="#linearGradient15107"/><linearGradient id="linearGradient1501" x1="10.027" x2="17.178" y1="20.22" y2="-7.527" gradientTransform="matrix(5.1279965,0,0,-4.0259532,-6.9516914,61.936155)" gradientUnits="userSpaceOnUse" xlink:href="#linearGradient15107"/><linearGradient id="linearGradient1503" x1="11.842" x2="40.024" y1="4.251" y2="7.412" gradientTransform="matrix(4.4760491,0,0,-4.7878176,-8.4156387,63.171358)" gradientUnits="userSpaceOnUse" xlink:href="#linearGradient9749"/><linearGradient id="linearGradient1505" x1="17.397" x2="22.178" y1="33.357" y2="31.027" gradientTransform="matrix(3.2649775,0,0,3.2691167,-16.659893,-47.03936)" gradientUnits="userSpaceOnUse" xlink:href="#linearGradient2573"/><linearGradient id="linearGradient4619" x1="62.342" x2="62.342" y1="8.826" y2="61.277" gradientUnits="userSpaceOnUse"><stop style="stop-color:#fff;stop-opacity:1" id="stop4621" offset="0"/><stop style="stop-color:#74aeff;stop-opacity:1" id="stop4623" offset="1"/><midPointStop id="midPointStop157" offset="0" style="stop-color:#fff"/><midPointStop id="midPointStop159" offset=".5" style="stop-color:#fff"/><midPointStop id="midPointStop161" offset="1" style="stop-color:#74aeff"/></linearGradient><radialGradient id="radialGradient4602" cx="27.576" cy="107.817" r="115.483" fx="27.576" fy="107.817" gradientTransform="matrix(1,0,0,1.0565,0,-0.544571)" gradientUnits="userSpaceOnUse"><stop style="stop-color:#fff;stop-opacity:1" id="stop4604" offset="0"/><stop style="stop-color:#def;stop-opacity:1" id="stop4606" offset=".057"/><stop style="stop-color:#b5daff;stop-opacity:1" id="stop4608" offset=".133"/><stop style="stop-color:#9dceff;stop-opacity:1" id="stop4610" offset=".193"/><stop style="stop-color:#94caff;stop-opacity:1" id="stop4612" offset=".23"/><stop style="stop-color:#0b74ff;stop-opacity:1" id="stop4614" offset=".596"/><stop style="stop-color:#0035ed;stop-opacity:1" id="stop4616" offset=".815"/><midPointStop id="midPointStop134" offset="0" style="stop-color:#fff"/><midPointStop id="midPointStop136" offset=".4" style="stop-color:#fff"/><midPointStop id="midPointStop138" offset=".23" style="stop-color:#94caff"/><midPointStop id="midPointStop140" offset=".5" style="stop-color:#94caff"/><midPointStop id="midPointStop142" offset=".596" style="stop-color:#0b74ff"/><midPointStop id="midPointStop144" offset=".5" style="stop-color:#0b74ff"/><midPointStop id="midPointStop146" offset=".815" style="stop-color:#0035ed"/></radialGradient><linearGradient id="XMLID_4_" x1="64" x2="64" y1="-1.178" y2="99.458" gradientTransform="matrix(-1,0,0,-1,128,128)" gradientUnits="userSpaceOnUse"><stop style="stop-color:#0053bd;stop-opacity:1" id="stop105" offset="0"/><stop style="stop-color:#00008d;stop-opacity:1" id="stop107" offset="1"/><midPointStop id="midPointStop109" offset="0" style="stop-color:#00008d"/><midPointStop id="midPointStop111" offset=".5" style="stop-color:#00008d"/><midPointStop id="midPointStop113" offset="1" style="stop-color:#0053bd"/></linearGradient><linearGradient id="linearGradient5598" x1="62.342" x2="62.342" y1="16.279" y2="63.596" gradientTransform="matrix(0.67884381,0,0,-0.67884381,51.388654,178.81449)" gradientUnits="userSpaceOnUse" xlink:href="#linearGradient4619"/><linearGradient id="linearGradient5604" x1="64" x2="64" y1="-1.178" y2="99.458" gradientTransform="matrix(0.67884381,0,0,0.67884381,49.137994,91.922468)" gradientUnits="userSpaceOnUse" xlink:href="#XMLID_4_"/><radialGradient id="radialGradient5615" cx="323.325" cy="388.165" r="49.622" fx="323.325" fy="388.165" gradientTransform="matrix(-1.4242589,0.93150743,-0.72110744,-1.1025615,816.51303,233.85718)" gradientUnits="userSpaceOnUse" xlink:href="#radialGradient4602"/></defs><path style="fill:url(#linearGradient1483);fill-opacity:1;fill-rule:evenodd;stroke:#618ecd;stroke-width:4.45;stroke-linecap:butt;stroke-linejoin:round;stroke-miterlimit:4;stroke-dasharray:none;stroke-opacity:1" id="path12723" d="m 4.052308,3.484443 0,84.955454 120.702132,0 -0.20406,-84.6299546 c -4e-5,-0.018634 10e-4,-0.08856 0,-0.1085019 -0.002,-0.021249 0.004,-0.086076 0,-0.108502 -0.005,-0.023538 -0.0962,-0.083624 -0.10203,-0.108502 l -120.396042,0 z"/><path style="fill:#608dcc;fill-opacity:.99215686;fill-rule:evenodd;stroke:none;stroke-width:1;stroke-linecap:butt;stroke-linejoin:miter;stroke-miterlimit:4;stroke-opacity:1" id="path1634" d="M 50.241697,47.956961 6.5041755,83.82567 51.916232,52.428073 l 29.444083,0 40.547905,30.998395 -38.733812,-35.469507 -32.932711,0 z"/><path style="fill:none;fill-opacity:.75;fill-rule:evenodd;stroke:#fff;stroke-width:3.24961615;stroke-linecap:butt;stroke-linejoin:miter;stroke-miterlimit:4;stroke-dasharray:none;stroke-opacity:1" id="path15103" d="m 7.3172855,7.6655877 c -0.021875,0.04361 0.017598,0.064205 0,0.1032714 -0.00774,0.018307 -0.095383,0.086043 -0.1020305,0.1032714 -0.00555,0.016019 0.00447,0.088397 0,0.1032714 -0.00336,0.01373 0.00224,0.090783 0,0.1032714 l 0.1020305,76.7373427 114.0701545,0 -0.20406,-76.3242211 c -0.002,-0.012096 0.003,-0.089933 0,-0.1032714 -0.0479,-0.1571792 -0.13658,-0.4320334 -0.3061,-0.7229619 l -113.5599945,0 z"/><path style="fill:#70abf5;fill-opacity:1;fill-rule:evenodd;stroke:none;stroke-width:.85660434;stroke-linecap:butt;stroke-linejoin:round;stroke-miterlimit:4;stroke-opacity:1" id="path2563" d="M 52.468837,58.218824 C 44.658655,56.759667 9.1346934,14.325638 4.8778768,6.4826905 4.8290445,6.3892788 4.7452032,6.2100004 4.7083713,6.1282464 l 112.6845387,0 C 116.48825,14.310205 89.802996,56.987995 78.253698,58.132816 Z"/><path style="fill:#6c96d0;fill-opacity:1;fill-rule:evenodd;stroke:#618ecd;stroke-width:5;stroke-linecap:butt;stroke-linejoin:round;stroke-miterlimit:4;stroke-opacity:1;stroke-dasharray:none" id="path1613" d="M 51.169198,54.582421 C 43.439557,53.303748 9.2812315,13.829746 6.5821239,6.9569315 6.5518997,6.8750761 6.5040678,6.7179721 6.4836976,6.6463327 l 116.0445024,0 C 119.83912,13.816225 85.639019,53.931049 78.630114,54.582421 c -0.02775,0.0013 -0.07154,0 -0.09844,0 l -26.968782,0 c -0.113067,0 -0.265933,0.02125 -0.393704,0 z"/><path style="fill:url(#linearGradient1501);fill-opacity:1;fill-rule:evenodd;stroke:none;stroke-width:.25pt;stroke-linecap:butt;stroke-linejoin:miter;stroke-opacity:1" id="path18153" d="M 50.680836,52.637574 C 43.804914,51.033906 8.5538314,11.764566 6.2975491,6.791148 c -0.00829,-0.019615 0.00712,-0.087253 0,-0.1056251 -0.017794,-0.051521 -0.094998,-0.1709748 -0.1020305,-0.211283 9.37e-5,-0.010788 -0.00133,-0.096047 0,-0.1056252 0.00382,-0.00687 0.096954,0.00556 0.1020305,0 l 0.3060917,-0.3169082 115.8046692,0 c -0.009,0.079538 -0.074,0.2186059 -0.10203,0.3169082 -0.0245,0.077151 -0.0672,0.2295901 -0.10203,0.3169082 -3.01063,7.1297371 -37.573322,45.0041281 -43.567044,45.9520641 -0.04875,0.0052 -0.159494,0 -0.204061,0 l -27.344187,0 c -0.0989,-0.0056 -0.293031,0.02681 -0.408122,0 z"/><path style="fill:none;fill-opacity:.75;fill-rule:evenodd;stroke:url(#linearGradient1503);stroke-width:2.78363371;stroke-linecap:butt;stroke-linejoin:miter;stroke-miterlimit:4;stroke-opacity:1" id="path1616" d="M 51.49708,51.201327 C 43.504549,49.405045 11.758472,13.223204 7.9300379,6.7432489 l 112.9478121,0 C 116.01242,14.370657 84.810717,50.587959 77.922992,51.201327 c -0.0284,0.0013 -0.07438,0 -0.10203,0 l -25.813729,0 c -0.08616,0 -0.211832,0.01177 -0.306091,0 -0.06461,-0.01013 -0.135987,0.01537 -0.204062,0 z"/><path style="fill:url(#linearGradient1505);fill-opacity:1;fill-rule:evenodd;stroke:none;stroke-width:1;stroke-linecap:butt;stroke-linejoin:miter;stroke-miterlimit:4;stroke-opacity:1" id="path1636" d="m 51.772439,52.495806 -38.988726,27.038393 7.246399,0.01994 32.643653,-22.455367 28.803331,-4.651423 -29.704657,0.04845 z"/><g id="g4253" transform="matrix(0.91773219,0,0,0.91773219,-0.6987093,-31.161768)"><path id="path116" d="m 53.584944,134.13608 c 0.45809,1.35173 1.66927,2.25398 3.0263,2.25398 l 11.31693,0 0,28.47498 c 0,4.19239 3.21126,7.59125 7.17361,7.59125 l 37.215756,0 c 3.96235,0 7.1736,-3.39886 7.1736,-7.59125 l 0,-28.47498 9.06429,0 c 1.35768,0 2.56952,-0.90225 3.02761,-2.25398 0.45808,-1.35239 0.0643,-2.86453 -0.98446,-3.7754 L 94.627824,99.055641 c -1.18731,-1.033513 -2.89901,-1.032193 -4.08632,0 l -35.97209,31.305039 c -1.04877,0.91219 -1.44255,2.42301 -0.98447,3.7754 z" style="fill:url(#linearGradient5604)"/><path id="path149" d="m 71.143404,132.98788 c 0,10.73057 0,31.87716 0,31.87716 0,2.30967 1.77666,4.18874 3.95838,4.18874 l 37.215756,0 c 2.18303,0 3.95836,-1.87907 3.95836,-4.18874 0,0 0,-22.49301 0,-31.87716 l 12.27953,0 -35.970766,-31.30503 -35.97342,31.30503 14.53216,0 z" style="fill:url(#radialGradient5615);fill-opacity:1"/><path id="path164" d="m 86.287454,137.16701 c 9.77429,5.14868 18.580036,10.86881 28.767326,12.76546 l 0,15.38568 c 0,1.34841 -1.22841,2.44557 -2.73791,2.44557 l -37.215756,0 c -1.5095,0 -2.73725,-1.09716 -2.73725,-2.44557 l 0,-27.80309 c 4.49734,-2.05543 9.38316,-2.66068 13.92359,-0.34805 z" style="fill:url(#linearGradient5598);fill-opacity:1"/></g></svg>