<svg xmlns="http://www.w3.org/2000/svg" xmlns:svg="http://www.w3.org/2000/svg" xmlns:xlink="http://www.w3.org/1999/xlink" id="svg7613" width="124" height="124" version="1.1" viewBox="0 0 124 124"><defs id="defs7615"><radialGradient id="radialGradient7503" cx="55.218" cy="458.465" r="15.213" fx="55.218" fy="458.465" gradientTransform="matrix(1.0803234,0,0,1.1058083,-31.65926,522.33259)" gradientUnits="userSpaceOnUse" xlink:href="#linearGradient4799-2"/><linearGradient id="linearGradient4799-2"><stop style="stop-color:#ffde00;stop-opacity:1" id="stop4801-4" offset="0"/><stop style="stop-color:#ffa700;stop-opacity:1" id="stop4803-8" offset="1"/></linearGradient></defs><metadata id="metadata7618"/><g id="layer1" transform="translate(0,-928.36218)"><g id="g8975"><rect style="opacity:0;fill:#fff;fill-opacity:1;stroke:none" id="rect4392" width="124" height="124" x=".212" y="927.727"/><rect style="fill:#2d404e;fill-opacity:1;stroke:none" id="rect4394" width="83.097" height="103.313" x="22.629" y="939.178" ry="6.273"/><rect id="rect4396" width="83.097" height="103.313" x="20.146" y="936.695" ry="6.273" style="fill:#fff;fill-opacity:1;stroke:#70acc7;stroke-width:1.93749976;stroke-opacity:1"/><path style="fill:url(#radialGradient7503);fill-opacity:1;stroke:#ff4100;stroke-width:1.62048495;stroke-linecap:round;stroke-linejoin:round;stroke-miterlimit:4;stroke-dasharray:none;stroke-opacity:1" id="path5144" d="m 26.406621,1024.4375 -0.05503,-9.8332 c 0.06297,-2.1592 3.965636,-2.0354 4.229969,-0.055 l 0,9.7234 6.537221,-6.5921 c 1.604153,-1.505 3.93762,1.1364 2.526984,2.6368 l -6.097738,6.8669 8.569794,0.055 c 2.499859,0.3246 2.184783,4.4543 0.109856,4.6145 l -8.295114,-0.055 6.262541,6.0428 c 1.478545,1.6553 -0.493965,4.523 -2.691787,3.0763 l -7.031633,-6.7569 -0.05503,9.7234 c 0.248601,2.0648 -3.98317,2.455 -4.394772,0.055 l 0.05503,-9.2291 -6.207614,6.2077 c -2.185306,0.5379 -3.979237,-1.0158 -3.131271,-2.9116 l 6.592149,-6.3174 -9.503688,0.11 c -2.341042,-0.4546 -2.284235,-4.3097 0.05503,-4.6145 l 9.72342,-0.055 -6.811881,-6.702 c -1.325328,-2.1093 0.948697,-4.2446 2.746735,-2.9665 z"/><g id="g8843"><rect style="fill:#2f7ea6;fill-opacity:1;stroke:#2f7ea6;stroke-width:3.27470207;stroke-linecap:round;stroke-linejoin:round;stroke-miterlimit:4;stroke-dasharray:none;stroke-dashoffset:0;stroke-opacity:1" id="rect5030" width="16.043" height="60.976" x="32.329" y="949.679" ry="2.853"/><g id="g8835" transform="translate(0.35355091,0.97222086)"><text style="font-style:normal;font-variant:normal;font-weight:700;font-stretch:normal;font-size:15.49999809px;line-height:125%;font-family:Arial;-inkscape-font-specification:'Arial Bold';text-align:start;letter-spacing:0;word-spacing:0;writing-mode:lr-tb;text-anchor:start;fill:#fff;fill-opacity:1;stroke:none" id="text4454" x="35.411" y="961.602" xml:space="preserve"><tspan id="tspan4456" x="35.411" y="961.602">a</tspan></text><text id="text4458" x="35.071" y="984.424" xml:space="preserve" style="font-style:normal;font-variant:normal;font-weight:700;font-stretch:normal;font-size:15.49999809px;line-height:125%;font-family:Arial;-inkscape-font-specification:'Arial Bold';text-align:start;letter-spacing:0;word-spacing:0;writing-mode:lr-tb;text-anchor:start;fill:#fff;fill-opacity:1;stroke:none"><tspan id="tspan4460" x="35.071" y="984.424">b</tspan></text><text style="font-style:normal;font-variant:normal;font-weight:700;font-stretch:normal;font-size:13.75px;line-height:125%;font-family:Arial;-inkscape-font-specification:'Arial, Bold';text-align:start;letter-spacing:0;word-spacing:0;writing-mode:lr-tb;text-anchor:start;fill:#fff;fill-opacity:1;stroke:none" id="text7988" x="34.939" y="1004.993" xml:space="preserve"><tspan id="tspan7990" x="34.939" y="1004.993">C</tspan></text></g></g><g id="g8946"><g id="g8924" transform="translate(-0.10450745,0)"><path id="rect8010" d="m 90.98199,1010.8626 0,14.9481 c 0,1.5636 -1.273429,2.8223 -2.855221,2.8223 l -18.190682,0 c -1.581793,0 -2.855222,-1.2587 -2.855222,-2.8223 l 0,-14.9481 z" style="opacity:1;fill:#fff;fill-opacity:1;stroke:#2f7ea6;stroke-width:.90827322;stroke-linecap:round;stroke-linejoin:round;stroke-miterlimit:4;stroke-dasharray:none;stroke-dashoffset:0;stroke-opacity:1"/><rect id="rect8000" width="23.945" height="14.008" x="67.058" y="999.265" ry="3.23" style="fill:#70acc7;fill-opacity:1;stroke:#2f7ea6;stroke-width:.99169606;stroke-miterlimit:4;stroke-dasharray:none;stroke-opacity:1"/><path style="opacity:1;fill:#2f7ea6;fill-opacity:1;stroke:none" id="path8006" d="m 81.746646,998.77046 6.166613,0.0326 c 2.023828,0.0107 3.646961,1.91764 3.635983,3.80824 l -0.04419,7.6108 c -0.0084,1.4466 -1.425606,3.5518 -3.470255,3.5483 l -6.288147,-0.011 z"/><path style="fill:#fff;stroke:none" id="path8008" d="m 82.97023,1004.8286 3.227255,3.8024 3.192599,-3.8031 z"/><text style="font-style:normal;font-variant:normal;font-weight:700;font-stretch:normal;font-size:15.49999809px;line-height:125%;font-family:Arial;-inkscape-font-specification:'Arial Bold';text-align:start;letter-spacing:0;word-spacing:0;writing-mode:lr-tb;text-anchor:start;fill:#1a1a1a;fill-opacity:1;stroke:none" id="text8002" x="74.054" y="1026.041" xml:space="preserve"><tspan id="tspan8004" x="74.054" y="1026.041">b</tspan></text></g><g id="g8932" transform="translate(-0.10450745,0)"><rect style="fill:#fff;fill-opacity:1;stroke:#2f7ea6;stroke-width:.99169606;stroke-miterlimit:4;stroke-dasharray:none;stroke-opacity:1" id="rect4438" width="23.945" height="14.008" x="67.058" y="975.265" ry="3.23"/><text id="text4478" x="70.705" y="986.163" xml:space="preserve" style="font-style:normal;font-variant:normal;font-weight:700;font-stretch:normal;font-size:15.49999809px;line-height:125%;font-family:Arial;-inkscape-font-specification:'Arial Bold';text-align:start;letter-spacing:0;word-spacing:0;writing-mode:lr-tb;text-anchor:start;fill:#1a1a1a;fill-opacity:1;stroke:none"><tspan id="tspan4480" x="70.705" y="986.163">a</tspan></text><path id="path8819" d="m 81.746646,974.7704 6.166613,0.0326 c 2.023828,0.0107 3.646961,1.91768 3.635983,3.80827 l -0.04419,7.61089 c -0.0084,1.44661 -1.425606,3.55181 -3.470255,3.54828 l -6.288147,-0.0108 z" style="opacity:1;fill:#2f7ea6;fill-opacity:1;stroke:none"/><path id="path8821" d="m 82.97023,980.8286 3.227255,3.80236 3.192599,-3.80305 z" style="fill:#fff;stroke:none"/></g><g id="g8939" transform="translate(0.046875,0)"><rect id="rect4440" width="23.945" height="14.008" x="66.849" y="950.79" ry="3.23" style="fill:#fff;fill-opacity:1;stroke:#2f7ea6;stroke-width:.99169606;stroke-miterlimit:4;stroke-dasharray:none;stroke-opacity:1"/><text style="font-style:normal;font-variant:normal;font-weight:700;font-stretch:normal;font-size:12.6751709px;line-height:125%;font-family:Arial;-inkscape-font-specification:'Arial Bold';text-align:start;letter-spacing:0;word-spacing:0;writing-mode:lr-tb;text-anchor:start;fill:#1a1a1a;fill-opacity:1;stroke:none" id="text4498" x="70.158" y="962.033" xml:space="preserve"><tspan id="tspan4500" x="70.158" y="962.033">C</tspan></text><path style="opacity:1;fill:#2f7ea6;fill-opacity:1;stroke:none" id="path8825" d="m 81.652896,950.30165 6.166613,0.0326 c 2.023828,0.0107 3.646961,1.91768 3.635983,3.80827 l -0.04419,7.61089 c -0.0084,1.44661 -1.425606,3.55181 -3.470255,3.54828 l -6.288147,-0.0108 z"/><path style="fill:#fff;stroke:none" id="path8827" d="m 82.87648,956.35985 3.227255,3.80236 3.192599,-3.80305 z"/></g></g></g></g></svg>