<svg xmlns="http://www.w3.org/2000/svg" xmlns:svg="http://www.w3.org/2000/svg" xmlns:xlink="http://www.w3.org/1999/xlink" id="svg7613" width="124" height="124" version="1.1" viewBox="0 0 124 124"><defs id="defs7615"><radialGradient id="radialGradient7503" cx="55.218" cy="458.465" r="15.213" fx="55.218" fy="458.465" gradientTransform="matrix(0.55758631,0,0,0.57073983,246.94993,180.81737)" gradientUnits="userSpaceOnUse" xlink:href="#linearGradient4799-2"/><linearGradient id="linearGradient4799-2"><stop id="stop4801-4" offset="0" style="stop-color:#ffde00;stop-opacity:1"/><stop id="stop4803-8" offset="1" style="stop-color:#ffa700;stop-opacity:1"/></linearGradient><linearGradient id="linearGradient4799-2-255"><stop id="stop842" offset="0" style="stop-color:#7f7f7f;stop-opacity:1;opacity:1"/><stop id="stop844" offset="1" style="stop-color:#7f7f7f;stop-opacity:1;opacity:1"/></linearGradient></defs><metadata id="metadata7618"/><g id="layer1" transform="translate(0,-928.36218)"><g id="matching" transform="matrix(1.9374998,0,0,1.9374998,-510.30104,172.66905)"><rect id="rect4392" width="64" height="64" x="263.399" y="390.053" style="opacity:0;fill:#fff;fill-opacity:1;stroke:none"/><rect id="rect4394" width="42.889" height="53.323" x="274.97" y="395.963" ry="3.237" style="fill:#3d3d3d;fill-opacity:1;stroke:none;opacity:1"/><rect style="fill:#fff;fill-opacity:1;stroke:#9b9b9b;stroke-opacity:1;opacity:1" id="rect4396" width="42.889" height="53.323" x="273.688" y="394.682" ry="3.237"/><rect id="rect4438" width="12.354" height="7.354" x="299.968" y="417.559" ry="1.696" style="fill:#fff;fill-opacity:1;stroke:#494949;stroke-width:.64576805;stroke-miterlimit:4;stroke-dasharray:none;stroke-opacity:1;opacity:1"/><rect style="fill:#fff;fill-opacity:1;stroke:#494949;stroke-width:.64576805;stroke-miterlimit:4;stroke-dasharray:none;stroke-opacity:1;opacity:1" id="rect4440" width="12.354" height="7.354" x="299.86" y="403.895" ry="1.696"/><rect style="fill:#6a6a6a;fill-opacity:1;stroke:#6a6a6a;stroke-width:1.26269329;stroke-linecap:round;stroke-linejoin:round;stroke-miterlimit:4;stroke-dasharray:none;stroke-dashoffset:0;stroke-opacity:1;opacity:1" id="rect5030" width="7.066" height="20.585" x="279.46" y="403.844" ry=".963"/><text id="text4454" x="280.703" y="409.982" xml:space="preserve" style="font-style:normal;font-variant:normal;font-weight:700;font-stretch:normal;line-height:0%;font-family:Arial;-inkscape-font-specification:'Arial Bold';text-align:start;letter-spacing:0;word-spacing:0;writing-mode:lr-tb;text-anchor:start;fill:#fff;fill-opacity:1;stroke:none;opacity:1"><tspan style="font-size:8px;line-height:1.25;opacity:1" id="tspan4456" x="280.703" y="409.982">a</tspan></text><text style="font-style:normal;font-variant:normal;font-weight:700;font-stretch:normal;line-height:0%;font-family:Arial;-inkscape-font-specification:'Arial Bold';text-align:start;letter-spacing:0;word-spacing:0;writing-mode:lr-tb;text-anchor:start;fill:#fff;fill-opacity:1;stroke:none;opacity:1" id="text4458" x="280.754" y="422.796" xml:space="preserve"><tspan style="font-size:8px;line-height:1.25;opacity:1" id="tspan4460" x="280.754" y="422.796">b</tspan></text><text style="font-style:normal;font-variant:normal;font-weight:700;font-stretch:normal;line-height:0%;font-family:Arial;-inkscape-font-specification:'Arial Bold';text-align:start;letter-spacing:0;word-spacing:0;writing-mode:lr-tb;text-anchor:start;fill:#1a1a1a;fill-opacity:1;stroke:none;opacity:1" id="text4478" x="303.912" y="423.311" xml:space="preserve"><tspan style="font-size:8px;line-height:1.25;opacity:1" id="tspan4480" x="303.912" y="423.311">a</tspan></text><text id="text4498" x="303.484" y="410.389" xml:space="preserve" style="font-style:normal;font-variant:normal;font-weight:700;font-stretch:normal;line-height:0%;font-family:Arial;-inkscape-font-specification:'Arial Bold';text-align:start;letter-spacing:0;word-spacing:0;writing-mode:lr-tb;text-anchor:start;fill:#1a1a1a;fill-opacity:1;stroke:none;opacity:1"><tspan style="font-size:8px;line-height:1.25;opacity:1" id="tspan4500" x="303.484" y="410.389">b</tspan></text><path id="path5144" d="m 276.91942,439.96834 -0.0284,-5.07522 c 0.0325,-1.11444 2.04678,-1.05051 2.18321,-0.0285 l 0,5.01854 3.37405,-3.4024 c 0.82795,-0.77673 2.03232,0.58656 1.30425,1.36097 l -3.14722,3.54417 4.42312,0.0284 c 1.29025,0.16752 1.12763,2.29901 0.0567,2.38169 l -4.28135,-0.0284 3.23228,3.11887 c 0.76312,0.85437 -0.25495,2.33446 -1.38931,1.58778 l -3.62923,-3.48746 -0.0284,5.01853 c 0.12831,1.06573 -2.05583,1.26709 -2.26827,0.0284 l 0.0284,-4.76338 -3.20393,3.20394 c -1.1279,0.27764 -2.0538,-0.52426 -1.61614,-1.50274 l 3.4024,-3.26063 -4.90513,0.0568 c -1.20828,-0.23463 -1.17896,-2.22438 0.0284,-2.38168 l 5.01854,-0.0284 -3.51581,-3.4591 c -0.68404,-1.08866 0.48965,-2.19074 1.41767,-1.53108 z" style="fill:#ccc;fill-opacity:1;stroke:#7f7f7f;stroke-width:.83637941;stroke-linecap:round;stroke-linejoin:round;stroke-miterlimit:4;stroke-dasharray:none;stroke-opacity:1;opacity:1"/><path style="fill:none;stroke:#7f7f7f;stroke-width:1.39999998;stroke-linecap:round;stroke-linejoin:round;stroke-miterlimit:4;stroke-dasharray:none;stroke-opacity:1;opacity:1" id="path6776" d="m 285.78215,99.682329 4.17096,0 8.41382,13.088161 3.95521,0.0719" transform="translate(0,308.2677)"/><path id="path6779" d="m 286.75739,421.11009 3.19572,0 8.41382,-13.08816 3.95521,-0.0719" style="fill:none;stroke:#6a6a6a;stroke-width:1.39999998;stroke-linecap:round;stroke-linejoin:round;stroke-miterlimit:4;stroke-dasharray:none;stroke-opacity:1;opacity:1"/></g></g></svg>