<svg xmlns="http://www.w3.org/2000/svg" xmlns:svg="http://www.w3.org/2000/svg" xmlns:xlink="http://www.w3.org/1999/xlink" id="svg7613" width="124" height="124" version="1.1" viewBox="0 0 124 124"><defs id="defs7615"><radialGradient id="radialGradient7559" cx="55.218" cy="458.465" r="15.213" fx="55.218" fy="458.465" gradientTransform="matrix(0.55758631,0,0,0.57073983,33.783815,180.81737)" gradientUnits="userSpaceOnUse" xlink:href="#linearGradient4799"/><linearGradient id="linearGradient4799"><stop style="stop-color:#ffde00;stop-opacity:1" id="stop4801" offset="0"/><stop style="stop-color:#ffa700;stop-opacity:1" id="stop4803" offset="1"/></linearGradient><radialGradient id="radialGradient7646" cx="55.218" cy="458.465" r="15.213" fx="55.218" fy="458.465" gradientTransform="matrix(0.55758631,0,0,0.57073983,33.783815,180.81737)" gradientUnits="userSpaceOnUse" xlink:href="#linearGradient4799"/><radialGradient id="radialGradient7557" cx="55.218" cy="458.465" r="15.213" fx="55.218" fy="458.465" gradientTransform="matrix(0.55758631,0,0,0.57073983,104.95785,180.81737)" gradientUnits="userSpaceOnUse" xlink:href="#linearGradient4799-9"/><linearGradient id="linearGradient4799-9"><stop style="stop-color:#ffde00;stop-opacity:1" id="stop4801-0" offset="0"/><stop style="stop-color:#ffa700;stop-opacity:1" id="stop4803-9" offset="1"/></linearGradient><radialGradient id="radialGradient7869" cx="55.218" cy="458.465" r="15.213" fx="55.218" fy="458.465" gradientTransform="matrix(0.55758631,0,0,0.57073983,104.95785,180.81737)" gradientUnits="userSpaceOnUse" xlink:href="#linearGradient4799-9"/></defs><metadata id="metadata7618"/><g id="layer1" transform="translate(0,-928.36218)"><g id="mcma" transform="matrix(1.9374998,0,0,1.9374998,-235.32546,173.057)"><rect style="opacity:0;fill:#fff;fill-opacity:1;stroke:none" id="rect4141" width="64" height="64" x="121.531" y="390.053"/><rect style="fill:#2d404e;fill-opacity:1;stroke:none" id="rect4143" width="42.889" height="53.323" x="133.101" y="395.963" ry="3.237"/><rect id="rect4145" width="42.889" height="53.323" x="131.82" y="394.682" ry="3.237" style="fill:#fff;fill-opacity:1;stroke:#70acc7;stroke-opacity:1"/><rect style="fill:#1f749f;fill-opacity:1;stroke:none" id="rect4191" width="22" height="3" x="147.704" y="406.776" ry="1.5"/><rect id="rect4193" width="22" height="3" x="147.704" y="420.49" ry="1.5" style="fill:#006192;fill-opacity:1;stroke:none"/><rect id="rect4255" width="7.938" height="7.938" x="136.229" y="404.322" ry="1.831" style="fill:#007fa4;fill-opacity:1;stroke:#006192;stroke-width:1.06174004;stroke-miterlimit:4;stroke-opacity:1;stroke-dasharray:none"/><path style="font-size:medium;font-style:normal;font-variant:normal;font-weight:400;font-stretch:normal;text-indent:0;text-align:start;text-decoration:none;line-height:normal;letter-spacing:normal;word-spacing:normal;text-transform:none;direction:ltr;block-progression:tb;writing-mode:lr-tb;text-anchor:start;baseline-shift:baseline;color:#000;fill:#fff;fill-opacity:1;stroke:none;stroke-width:1.79999995;marker:none;visibility:visible;display:inline;overflow:visible;enable-background:accumulate;font-family:Sans;-inkscape-font-specification:Sans" id="path4268" d="m 142.00612,405.6125 -2.81245,3.52638 -1.08171,-1.08171 -0.887,0.86537 1.5793,1.60093 a 0.62312763,0.6231272 0 0 0 0.93027,-0.0649 l 3.24513,-4.06722 -0.97354,-0.77884 z"/><rect style="fill:#08a;fill-opacity:1;stroke:#006192;stroke-width:1.06174004;stroke-miterlimit:4;stroke-opacity:1;stroke-dasharray:none" id="rect4272" width="7.938" height="7.938" x="136.229" y="418.656" ry="1.831"/><path id="path4274" d="m 142.00612,419.94692 -2.81245,3.52638 -1.08171,-1.08171 -0.887,0.86537 1.5793,1.60093 a 0.62312763,0.6231272 0 0 0 0.93027,-0.0649 l 3.24513,-4.06722 -0.97354,-0.77884 z" style="font-size:medium;font-style:normal;font-variant:normal;font-weight:400;font-stretch:normal;text-indent:0;text-align:start;text-decoration:none;line-height:normal;letter-spacing:normal;word-spacing:normal;text-transform:none;direction:ltr;block-progression:tb;writing-mode:lr-tb;text-anchor:start;baseline-shift:baseline;color:#000;fill:#fff;fill-opacity:1;stroke:none;stroke-width:1.79999995;marker:none;visibility:visible;display:inline;overflow:visible;enable-background:accumulate;font-family:Sans;-inkscape-font-specification:Sans"/><path style="fill:url(#radialGradient7869);fill-opacity:1;stroke:#ff4100;stroke-width:.83637941;stroke-linecap:round;stroke-linejoin:round;stroke-miterlimit:4;stroke-opacity:1;stroke-dasharray:none" id="path5136" d="m 134.92734,439.96834 -0.0284,-5.07522 c 0.0325,-1.11444 2.04678,-1.05051 2.18321,-0.0285 l 0,5.01854 3.37405,-3.4024 c 0.82795,-0.77673 2.03232,0.58656 1.30425,1.36097 l -3.14722,3.54417 4.42312,0.0284 c 1.29025,0.16752 1.12763,2.29901 0.0567,2.38169 l -4.28135,-0.0284 3.23228,3.11887 c 0.76312,0.85437 -0.25495,2.33446 -1.38931,1.58778 l -3.62923,-3.48746 -0.0284,5.01853 c 0.12831,1.06573 -2.05583,1.26709 -2.26827,0.0284 l 0.0284,-4.76338 -3.20393,3.20394 c -1.1279,0.27764 -2.0538,-0.52426 -1.61614,-1.50274 l 3.4024,-3.26063 -4.90513,0.0568 c -1.20828,-0.23463 -1.17896,-2.22438 0.0284,-2.38168 l 5.01854,-0.0284 -3.51581,-3.4591 c -0.68404,-1.08866 0.48965,-2.19074 1.41767,-1.53108 z"/></g></g></svg>