<svg xmlns="http://www.w3.org/2000/svg" xmlns:svg="http://www.w3.org/2000/svg" xmlns:xlink="http://www.w3.org/1999/xlink" id="svg7613" width="124" height="124" version="1.1" viewBox="0 0 124 124"><defs id="defs7615"><radialGradient id="radialGradient7559" cx="55.218" cy="458.465" r="15.213" fx="55.218" fy="458.465" gradientTransform="matrix(0.55758631,0,0,0.57073983,33.783815,180.81737)" gradientUnits="userSpaceOnUse" xlink:href="#linearGradient4799"/><linearGradient id="linearGradient4799"><stop style="stop-color:#ffde00;stop-opacity:1" id="stop4801" offset="0"/><stop style="stop-color:#ffa700;stop-opacity:1" id="stop4803" offset="1"/></linearGradient><radialGradient id="radialGradient7646" cx="55.218" cy="458.465" r="15.213" fx="55.218" fy="458.465" gradientTransform="matrix(0.55758631,0,0,0.57073983,33.783815,180.81737)" gradientUnits="userSpaceOnUse" xlink:href="#linearGradient4799"/></defs><metadata id="metadata7618"/><g id="layer1" transform="translate(0,-928.36218)"><g id="mcua" transform="matrix(1.9374998,0,0,1.9374998,-97.656481,172.51481)"><rect id="rect3029" width="64" height="64" x="50.597" y="390.053" style="opacity:0;fill:#ccc;fill-opacity:1;stroke:none"/><rect id="rect3031" width="42.889" height="53.323" x="62.167" y="395.964" ry="3.237" style="fill:#2d404e;fill-opacity:1;stroke:none"/><rect style="fill:#fff;fill-opacity:1;stroke:#70acc7;stroke-width:1;stroke-miterlimit:4;stroke-opacity:1;stroke-dasharray:none" id="rect3044" width="42.889" height="53.323" x="60.886" y="394.682" ry="3.237"/><path style="fill:#fff;fill-opacity:1;stroke:#006192;stroke-width:2.58886695;stroke-miterlimit:4;stroke-opacity:1;stroke-dasharray:none" id="path3945" d="m 155.90733,412.62436 c 0,4.44824 -3.60602,8.05425 -8.05426,8.05425 -4.44824,0 -8.05425,-3.60601 -8.05425,-8.05425 0,-4.44824 3.60601,-8.05425 8.05425,-8.05425 4.44824,0 8.05426,3.60601 8.05426,8.05425 z" transform="matrix(0.48135106,0,0,0.48135106,-2.052564,223.39784)"/><g id="g3951" transform="matrix(0.55384615,0,0,0.55384615,-11.511376,181.33218)"><path style="fill:#08a;fill-opacity:1;stroke:#006192;stroke-width:2.58886695;stroke-miterlimit:4;stroke-opacity:1;stroke-dasharray:none" id="path3943" d="m 155.90733,412.62436 c 0,4.44824 -3.60602,8.05425 -8.05426,8.05425 -4.44824,0 -8.05425,-3.60601 -8.05425,-8.05425 0,-4.44824 3.60601,-8.05425 8.05425,-8.05425 4.44824,0 8.05426,3.60601 8.05426,8.05425 z" transform="matrix(0.86910609,0,0,0.86910609,17.078411,52.826863)"/><path style="fill:#fff;fill-opacity:1;stroke:#006192;stroke-opacity:1" id="path3949" d="m 155.90733,412.62436 c 0,4.44824 -3.60602,8.05425 -8.05426,8.05425 -4.44824,0 -8.05425,-3.60601 -8.05425,-8.05425 0,-4.44824 3.60601,-8.05425 8.05425,-8.05425 4.44824,0 8.05426,3.60601 8.05426,8.05425 z" transform="matrix(0.40150241,0,0,0.40150241,86.162705,245.83381)"/></g><rect id="rect3962" width="22" height="3" x="76.051" y="407.783" ry="1.5" style="fill:#006192;fill-opacity:1;stroke:none"/><rect style="fill:#006192;fill-opacity:1;stroke:none" id="rect3964" width="22" height="3" x="76.051" y="420.216" ry="1.5"/><path id="path4797" d="m 63.753306,439.96834 -0.02837,-5.07522 c 0.03252,-1.11444 2.046782,-1.05051 2.183209,-0.0285 l 0,5.01854 3.374048,-3.4024 c 0.82795,-0.77673 2.032319,0.58656 1.304254,1.36097 l -3.147222,3.54417 4.423124,0.0284 c 1.29025,0.16752 1.127626,2.29901 0.05669,2.38169 l -4.281356,-0.0284 3.23228,3.11887 c 0.763126,0.85437 -0.254947,2.33446 -1.389312,1.58778 l -3.629229,-3.48746 -0.02836,5.01853 c 0.128311,1.06573 -2.055826,1.26709 -2.268268,0.0284 l 0.02836,-4.76338 -3.20393,3.20394 c -1.127903,0.27764 -2.053803,-0.52426 -1.616141,-1.50274 l 3.402402,-3.26063 -4.905129,0.0568 c -1.20828,-0.23463 -1.178963,-2.22438 0.02837,-2.38168 l 5.018541,-0.0284 -3.515814,-3.4591 c -0.684036,-1.08866 0.489656,-2.19074 1.417667,-1.53108 z" style="fill:url(#radialGradient7646);fill-opacity:1;stroke:#ff4100;stroke-width:.83637941;stroke-linecap:round;stroke-linejoin:round;stroke-miterlimit:4;stroke-opacity:1;stroke-dasharray:none"/></g></g></svg>