<svg xmlns="http://www.w3.org/2000/svg" xmlns:svg="http://www.w3.org/2000/svg" xmlns:xlink="http://www.w3.org/1999/xlink" id="svg7613" width="124" height="124" version="1.1" viewBox="0 0 124 124"><defs id="defs7615"><radialGradient id="radialGradient7559" cx="55.218" cy="458.465" r="15.213" fx="55.218" fy="458.465" gradientTransform="matrix(0.55758631,0,0,0.57073983,33.783815,180.81737)" gradientUnits="userSpaceOnUse" xlink:href="#linearGradient4799"/><linearGradient id="linearGradient4799"><stop id="stop4801" offset="0" style="stop-color:#ffde00;stop-opacity:1"/><stop id="stop4803" offset="1" style="stop-color:#ffa700;stop-opacity:1"/></linearGradient><radialGradient id="radialGradient7557" cx="55.218" cy="458.465" r="15.213" fx="55.218" fy="458.465" gradientTransform="matrix(0.55758631,0,0,0.57073983,104.95785,180.81737)" gradientUnits="userSpaceOnUse" xlink:href="#linearGradient4799-9"/><linearGradient id="linearGradient4799-9"><stop id="stop4801-0" offset="0" style="stop-color:#ffde00;stop-opacity:1"/><stop id="stop4803-9" offset="1" style="stop-color:#ffa700;stop-opacity:1"/></linearGradient><linearGradient id="linearGradient4799-6"><stop id="stop4801-8" offset="0" style="stop-color:#ffde00;stop-opacity:1"/><stop id="stop4803-96" offset="1" style="stop-color:#ffa700;stop-opacity:1"/></linearGradient><linearGradient id="linearGradient4799-2"><stop id="stop4801-4" offset="0" style="stop-color:#ffde00;stop-opacity:1"/><stop id="stop4803-8" offset="1" style="stop-color:#ffa700;stop-opacity:1"/></linearGradient><linearGradient id="linearGradient4799-1"><stop id="stop4801-49" offset="0" style="stop-color:#ffde00;stop-opacity:1"/><stop id="stop4803-98" offset="1" style="stop-color:#ffa700;stop-opacity:1"/></linearGradient><linearGradient id="linearGradient3609"><stop id="stop3611" offset="0" style="stop-color:#000;stop-opacity:1"/><stop id="stop3613" offset="1" style="stop-color:#000;stop-opacity:0"/></linearGradient><linearGradient id="linearGradient4068"><stop id="stop4070" offset="0" style="stop-color:#eaeae9;stop-opacity:1"/><stop id="stop4072" offset="1" style="stop-color:#a5a7a2;stop-opacity:1"/></linearGradient><linearGradient id="linearGradient8239"><stop id="stop8241" offset="0" style="stop-color:#eaeae9;stop-opacity:1"/><stop id="stop8243" offset="1" style="stop-color:#a5a7a2;stop-opacity:1"/></linearGradient><linearGradient id="linearGradient3281"><stop id="stop3283" offset="0" style="stop-color:#fff;stop-opacity:1"/><stop id="stop3285" offset="1" style="stop-color:#fff;stop-opacity:0"/></linearGradient><linearGradient id="linearGradient4608"><stop id="stop4610" offset="0" style="stop-color:#eeeeec"/><stop id="stop4612" offset="1" style="stop-color:#8a8c87;stop-opacity:1"/></linearGradient><linearGradient id="linearGradient4099"><stop id="stop4101" offset="0" style="stop-color:#6f726f;stop-opacity:1"/><stop id="stop4103" offset="1" style="stop-color:#6f726f;stop-opacity:0"/></linearGradient><linearGradient id="linearGradient3510"><stop id="stop3512" offset="0" style="stop-color:#fff;stop-opacity:1"/><stop id="stop3514" offset="1" style="stop-color:#fff;stop-opacity:0"/></linearGradient><linearGradient id="linearGradient3674"><stop id="stop3676" offset="0" style="stop-color:#fff;stop-opacity:0"/><stop id="stop3678" offset="1" style="stop-color:#fff;stop-opacity:1"/></linearGradient><linearGradient id="linearGradient3676"><stop id="stop4022" offset="0" style="stop-color:#eeeeec"/><stop id="stop3680" offset="1" style="stop-color:#555753"/></linearGradient><linearGradient id="linearGradient1557"><stop id="stop1559" offset="0" style="stop-color:#2e3436;stop-opacity:1"/><stop id="stop1561" offset="1" style="stop-color:#888a85"/></linearGradient><linearGradient id="linearGradient3730"><stop id="stop3732" offset="0" style="stop-color:#eeeeec"/><stop id="stop3734" offset="1" style="stop-color:#888a85"/></linearGradient><linearGradient id="linearGradient3628"><stop id="stop3630" offset="0" style="stop-color:#d3d7cf"/><stop id="stop3632" offset="1" style="stop-color:#555753"/></linearGradient><linearGradient id="linearGradient3692"><stop id="stop3694" offset="0" style="stop-color:#2e3436;stop-opacity:1"/><stop id="stop3696" offset="1" style="stop-color:#babdb6"/></linearGradient><linearGradient id="linearGradient3670"><stop id="stop3672" offset="0" style="stop-color:#d3d7cf"/><stop id="stop3674" offset="1" style="stop-color:#555753"/></linearGradient><linearGradient id="linearGradient3498"><stop id="stop3500" offset="0" style="stop-color:#3465a4;stop-opacity:1"/><stop id="stop3502" offset="1" style="stop-color:#3465a4;stop-opacity:0"/></linearGradient><linearGradient id="linearGradient8294"><stop id="stop8296" offset="0" style="stop-color:#3465a4;stop-opacity:1"/><stop id="stop8298" offset="1" style="stop-color:#3465a4;stop-opacity:0"/></linearGradient><linearGradient id="linearGradient8301"><stop id="stop8303" offset="0" style="stop-color:#3465a4;stop-opacity:1"/><stop id="stop8305" offset="1" style="stop-color:#3465a4;stop-opacity:0"/></linearGradient><radialGradient id="radialGradient7555" cx="55.218" cy="458.465" r="15.213" fx="55.218" fy="458.465" gradientTransform="matrix(0.55758631,0,0,0.57073983,388.7386,180.81737)" gradientUnits="userSpaceOnUse" xlink:href="#linearGradient4799-0"/><linearGradient id="linearGradient4799-0"><stop id="stop4801-3" offset="0" style="stop-color:#ffde00;stop-opacity:1"/><stop id="stop4803-97" offset="1" style="stop-color:#ffa700;stop-opacity:1"/></linearGradient><linearGradient id="linearGradient4799-20"><stop id="stop4801-43" offset="0" style="stop-color:#ffde00;stop-opacity:1"/><stop id="stop4803-95" offset="1" style="stop-color:#ffa700;stop-opacity:1"/></linearGradient><radialGradient id="radialGradient7519" cx="55.218" cy="458.465" r="15.213" fx="55.218" fy="458.465" gradientTransform="matrix(0.55758631,0,0,0.57073983,530.50531,180.81737)" gradientUnits="userSpaceOnUse" xlink:href="#linearGradient4799-4"/><linearGradient id="linearGradient4799-4"><stop id="stop4801-2" offset="0" style="stop-color:#ffde00;stop-opacity:1"/><stop id="stop4803-5" offset="1" style="stop-color:#ffa700;stop-opacity:1"/></linearGradient><radialGradient id="radialGradient8703" cx="55.218" cy="458.465" r="15.213" fx="55.218" fy="458.465" gradientTransform="matrix(0.55758631,0,0,0.57073983,530.50531,180.81737)" gradientUnits="userSpaceOnUse" xlink:href="#linearGradient4799-4"/><radialGradient id="radialGradient7517" cx="55.218" cy="458.465" r="15.213" fx="55.218" fy="458.465" gradientTransform="matrix(0.55758631,0,0,0.57073983,601.39167,180.81737)" gradientUnits="userSpaceOnUse" xlink:href="#linearGradient4799-98"/><linearGradient id="linearGradient4799-98"><stop id="stop4801-1" offset="0" style="stop-color:#ffde00;stop-opacity:1"/><stop id="stop4803-0" offset="1" style="stop-color:#ffa700;stop-opacity:1"/></linearGradient><radialGradient id="radialGradient8789" cx="55.218" cy="458.465" r="15.213" fx="55.218" fy="458.465" gradientTransform="matrix(0.55758631,0,0,0.57073983,601.39167,180.81737)" gradientUnits="userSpaceOnUse" xlink:href="#linearGradient4799-98"/><linearGradient id="linearGradient4799-98-500"><stop id="stop993" offset="0" style="stop-color:#7f7f7f;stop-opacity:1;opacity:1"/><stop id="stop995" offset="1" style="stop-color:#7f7f7f;stop-opacity:1;opacity:1"/></linearGradient></defs><metadata id="metadata7618"/><g id="layer1" transform="translate(0,-928.36218)"><g id="mcuao" transform="matrix(1.9374998,0,0,1.9374998,-1197.3696,173.19807)"><rect id="rect5641" width="64" height="64" x="618.07" y="390.053" style="opacity:0;fill:#fff;fill-opacity:1;stroke:none"/><rect id="rect5643" width="42.889" height="53.323" x="629.64" y="395.964" ry="3.237" style="fill:#3d3d3d;fill-opacity:1;stroke:none;opacity:1"/><rect style="fill:#fff;fill-opacity:1;stroke:#9b9b9b;stroke-opacity:1;opacity:1" id="rect5645" width="42.889" height="53.323" x="628.359" y="394.682" ry="3.237"/><path style="fill:#fff;fill-opacity:1;stroke:#494949;stroke-width:2.58886695;stroke-miterlimit:4;stroke-opacity:1;stroke-dasharray:none;opacity:1" id="path5651" d="m 155.90733,412.62436 a 8.0542526,8.0542526 0 0 1 -8.05426,8.05425 8.0542526,8.0542526 0 0 1 -8.05425,-8.05425 8.0542526,8.0542526 0 0 1 8.05425,-8.05425 8.0542526,8.0542526 0 0 1 8.05426,8.05425 z" transform="matrix(0.48135106,0,0,0.48135106,577.82802,208.59016)"/><path id="path5653" d="m 155.90733,412.62436 a 8.0542526,8.0542526 0 0 1 -8.05426,8.05425 8.0542526,8.0542526 0 0 1 -8.05425,-8.05425 8.0542526,8.0542526 0 0 1 8.05425,-8.05425 8.0542526,8.0542526 0 0 1 8.05426,8.05425 z" transform="matrix(0.48135106,0,0,0.48135106,590.23543,208.59016)" style="fill:#fff;fill-opacity:1;stroke:#494949;stroke-width:2.58886695;stroke-miterlimit:4;stroke-opacity:1;stroke-dasharray:none;opacity:1"/><g id="g5655" transform="matrix(0.55384615,0,0,0.55384615,555.9618,179.3322)"><path style="fill:#555;fill-opacity:1;stroke:#494949;stroke-width:2.58886695;stroke-miterlimit:4;stroke-opacity:1;stroke-dasharray:none;opacity:1" id="path5657" d="m 155.90733,412.62436 a 8.0542526,8.0542526 0 0 1 -8.05426,8.05425 8.0542526,8.0542526 0 0 1 -8.05425,-8.05425 8.0542526,8.0542526 0 0 1 8.05425,-8.05425 8.0542526,8.0542526 0 0 1 8.05426,8.05425 z" transform="matrix(0.86910609,0,0,0.86910609,17.078411,52.826863)"/><path style="fill:#fff;fill-opacity:1;stroke:#494949;stroke-opacity:1;opacity:1" id="path5659" d="m 155.90733,412.62436 a 8.0542526,8.0542526 0 0 1 -8.05426,8.05425 8.0542526,8.0542526 0 0 1 -8.05425,-8.05425 8.0542526,8.0542526 0 0 1 8.05425,-8.05425 8.0542526,8.0542526 0 0 1 8.05426,8.05425 z" transform="matrix(0.40150241,0,0,0.40150241,86.162705,245.83381)"/></g><path style="fill:#ccc;fill-opacity:1;stroke:#7f7f7f;stroke-width:.83637941;stroke-linecap:round;stroke-linejoin:round;stroke-miterlimit:4;stroke-opacity:1;stroke-dasharray:none;opacity:1" id="path6064" d="m 631.36116,439.96834 -0.0284,-5.07522 c 0.0325,-1.11444 2.04678,-1.05051 2.18321,-0.0285 l 0,5.01854 3.37405,-3.4024 c 0.82795,-0.77673 2.03232,0.58656 1.30425,1.36097 l -3.14722,3.54417 4.42312,0.0284 c 1.29025,0.16752 1.12763,2.29901 0.0567,2.38169 l -4.28135,-0.0284 3.23228,3.11887 c 0.76312,0.85437 -0.25495,2.33446 -1.38931,1.58778 l -3.62923,-3.48746 -0.0284,5.01853 c 0.12831,1.06573 -2.05583,1.26709 -2.26827,0.0284 l 0.0284,-4.76338 -3.20393,3.20394 c -1.1279,0.27764 -2.0538,-0.52426 -1.61614,-1.50274 l 3.4024,-3.26063 -4.90513,0.0568 c -1.20828,-0.23463 -1.17896,-2.22438 0.0284,-2.38168 l 5.01854,-0.0284 -3.51581,-3.4591 c -0.68404,-1.08866 0.48965,-2.19074 1.41767,-1.53108 z"/></g></g></svg>