<svg xmlns="http://www.w3.org/2000/svg" xmlns:svg="http://www.w3.org/2000/svg" xmlns:xlink="http://www.w3.org/1999/xlink" id="svg2" width="128" height="128" version="1.1" viewBox="0 0 128 128"><metadata id="metadata18"/><defs id="defs16"><radialGradient id="radialGradient5031" cx="605.714" cy="486.648" r="117.143" fx="605.714" fy="486.648" gradientTransform="matrix(-2.774389,0,0,1.969706,112.7623,-872.8854)" gradientUnits="userSpaceOnUse" xlink:href="#linearGradient5060"/><linearGradient id="linearGradient5060"><stop style="stop-color:black;stop-opacity:1" id="stop5062" offset="0"/><stop style="stop-color:black;stop-opacity:0" id="stop5064" offset="1"/></linearGradient><radialGradient id="radialGradient5029" cx="605.714" cy="486.648" r="117.143" fx="605.714" fy="486.648" gradientTransform="matrix(2.774389,0,0,1.969706,-1891.633,-872.8854)" gradientUnits="userSpaceOnUse" xlink:href="#linearGradient5060"/><linearGradient id="linearGradient5048"><stop style="stop-color:black;stop-opacity:0" id="stop5050" offset="0"/><stop style="stop-color:black;stop-opacity:1" id="stop5056" offset=".5"/><stop style="stop-color:black;stop-opacity:0" id="stop5052" offset="1"/></linearGradient><linearGradient id="linearGradient5027" x1="302.857" x2="302.857" y1="366.648" y2="609.505" gradientTransform="matrix(2.774389,0,0,1.969706,-1892.179,-872.8854)" gradientUnits="userSpaceOnUse" xlink:href="#linearGradient5048"/><linearGradient id="linearGradient2624"><stop style="stop-color:#dfe0df;stop-opacity:1" id="stop2626" offset="0"/><stop style="stop-color:#a6b0a6;stop-opacity:1" id="stop2630" offset=".238"/><stop style="stop-color:#b5beb5;stop-opacity:1" id="stop2628" offset="1"/></linearGradient><linearGradient id="linearGradient2573"><stop style="stop-color:#fff;stop-opacity:1" id="stop2575" offset="0"/><stop style="stop-color:#fff;stop-opacity:0" id="stop2577" offset="1"/></linearGradient><linearGradient id="linearGradient9749"><stop style="stop-color:#fff;stop-opacity:1" id="stop9751" offset="0"/><stop style="stop-color:#ededed;stop-opacity:1" id="stop9753" offset="1"/></linearGradient><linearGradient id="linearGradient15107"><stop style="stop-color:#fff;stop-opacity:1" id="stop15109" offset="0"/><stop style="stop-color:#e2e2e2;stop-opacity:1" id="stop15111" offset="1"/></linearGradient><linearGradient id="linearGradient6901"><stop style="stop-color:#3465a4;stop-opacity:1" id="stop6903" offset="0"/><stop style="stop-color:#3465a4;stop-opacity:0" id="stop6905" offset="1"/></linearGradient><linearGradient id="linearGradient6925"><stop style="stop-color:#250;stop-opacity:1" id="stop6927" offset="0"/><stop style="stop-color:#edffcb;stop-opacity:0" id="stop6929" offset="1"/></linearGradient><linearGradient id="linearGradient2562" x1="14.752" x2="12.252" y1="15.868" y2="30.558" gradientTransform="matrix(-1,0,0,-1,-28.589928,85.584197)" gradientUnits="userSpaceOnUse" xlink:href="#linearGradient6901"/><linearGradient id="linearGradient2564" x1="12.25" x2="9.582" y1="18.25" y2="27.057" gradientTransform="matrix(-3.2496156,0,0,-3.2496156,146.14407,127.78789)" gradientUnits="userSpaceOnUse" xlink:href="#linearGradient6925"/><linearGradient id="linearGradient2566" x1="33.06" x2="12.624" y1="27.394" y2="12.584" gradientTransform="matrix(-2.9705189,0,0,-2.9705189,158.71586,136.58426)" gradientUnits="userSpaceOnUse" xlink:href="#linearGradient2573"/><linearGradient id="linearGradient2365" x1="32.058" x2="27.909" y1="8.669" y2="18.069" gradientTransform="matrix(0,3.2496161,-3.2496161,0,103.64401,-36.511219)" gradientUnits="userSpaceOnUse" xlink:href="#linearGradient2573"/><radialGradient id="radialGradient1481" cx="6.703" cy="73.616" r="7.228" fx="6.703" fy="73.616" gradientTransform="matrix(6.1364554,0,0,2.6070253,32.030942,-94.39681)" gradientUnits="userSpaceOnUse" xlink:href="#linearGradient5060"/><linearGradient id="linearGradient1483" x1="11.573" x2="18.475" y1="4.746" y2="26.023" gradientTransform="matrix(4.3864156,0,0,4.9227863,-7.2583544,-54.447237)" gradientUnits="userSpaceOnUse" xlink:href="#linearGradient15107"/><linearGradient id="linearGradient1487" x1="9.164" x2="9.886" y1="38.071" y2="52.091" gradientTransform="matrix(8.0148047,0,0,2.49108,-7.2510441,-45.936406)" gradientUnits="userSpaceOnUse" xlink:href="#linearGradient2624"/><radialGradient id="radialGradient1491" cx="27.741" cy="38.712" r="17.978" fx="27.741" fy="38.712" gradientTransform="matrix(2.056704,1.5017439,-0.48215555,0.81241473,37.268524,-17.441637)" gradientUnits="userSpaceOnUse" xlink:href="#linearGradient5060"/><linearGradient id="linearGradient1493" x1="11.742" x2="13.847" y1="11.485" y2="11.982" gradientTransform="matrix(1.276531,0,0,-1.406115,24.24763,33.3374)" gradientUnits="userSpaceOnUse" xlink:href="#linearGradient15107"/><linearGradient id="linearGradient1497" x1="11.742" x2="13.847" y1="11.485" y2="11.982" gradientTransform="matrix(4.2314598,0,0,-4.6974592,-4.4274067,61.512183)" gradientUnits="userSpaceOnUse" xlink:href="#linearGradient15107"/><linearGradient id="linearGradient1501" x1="10.027" x2="17.178" y1="20.22" y2="-7.527" gradientTransform="matrix(5.1279965,0,0,-4.0259532,-6.9516914,61.936155)" gradientUnits="userSpaceOnUse" xlink:href="#linearGradient15107"/><linearGradient id="linearGradient1503" x1="11.842" x2="40.024" y1="4.251" y2="7.412" gradientTransform="matrix(4.4760491,0,0,-4.7878176,-8.4156387,63.171358)" gradientUnits="userSpaceOnUse" xlink:href="#linearGradient9749"/><linearGradient id="linearGradient1505" x1="17.397" x2="22.178" y1="33.357" y2="31.027" gradientTransform="matrix(3.2649775,0,0,3.2691167,-16.659893,-47.03936)" gradientUnits="userSpaceOnUse" xlink:href="#linearGradient2573"/></defs><path style="fill:url(#linearGradient1483);fill-opacity:1;fill-rule:evenodd;stroke:#618ecd;stroke-width:4.45;stroke-linecap:butt;stroke-linejoin:round;stroke-miterlimit:4;stroke-dasharray:none;stroke-opacity:1" id="path12723" d="m 4.052308,3.484443 0,84.955454 120.702132,0 -0.20406,-84.6299546 c -4e-5,-0.018634 10e-4,-0.08856 0,-0.1085019 -0.002,-0.021249 0.004,-0.086076 0,-0.108502 -0.005,-0.023538 -0.0962,-0.083624 -0.10203,-0.108502 l -120.396042,0 z"/><path style="fill:#608dcc;fill-opacity:.99215686;fill-rule:evenodd;stroke:none;stroke-width:1;stroke-linecap:butt;stroke-linejoin:miter;stroke-miterlimit:4;stroke-opacity:1" id="path1634" d="M 50.241697,47.956961 6.5041755,83.82567 51.916232,52.428073 l 29.444083,0 40.547905,30.998395 -38.733812,-35.469507 -32.932711,0 z"/><path style="fill:none;fill-opacity:.75;fill-rule:evenodd;stroke:#fff;stroke-width:3.24961615;stroke-linecap:butt;stroke-linejoin:miter;stroke-miterlimit:4;stroke-dasharray:none;stroke-opacity:1" id="path15103" d="m 7.3172855,7.6655877 c -0.021875,0.04361 0.017598,0.064205 0,0.1032714 -0.00774,0.018307 -0.095383,0.086043 -0.1020305,0.1032714 -0.00555,0.016019 0.00447,0.088397 0,0.1032714 -0.00336,0.01373 0.00224,0.090783 0,0.1032714 l 0.1020305,76.7373427 114.0701545,0 -0.20406,-76.3242211 c -0.002,-0.012096 0.003,-0.089933 0,-0.1032714 -0.0479,-0.1571792 -0.13658,-0.4320334 -0.3061,-0.7229619 l -113.5599945,0 z"/><path style="fill:#ddebfd;fill-opacity:1;fill-rule:evenodd;stroke:none;stroke-width:.85660434;stroke-linecap:butt;stroke-linejoin:round;stroke-miterlimit:4;stroke-opacity:1" id="path2563" d="M 59.50974,60.830772 C 51.699558,59.371615 9.1346934,14.325638 4.8778768,6.4826905 4.8290445,6.3892788 4.7452032,6.2100004 4.7083713,6.1282464 l 112.6845387,0 C 116.48825,14.310205 92.826478,60.087456 86.175549,60.830772 c -0.02677,0.0015 -0.06948,0 -0.09557,0 l -26.187924,0 c -0.109801,0 -0.253199,0.02419 -0.382309,0 z"/><path style="fill:#6c96d0;fill-opacity:1;fill-rule:evenodd;stroke:#618ecd;stroke-width:5;stroke-linecap:butt;stroke-linejoin:round;stroke-miterlimit:4;stroke-opacity:1;stroke-dasharray:none" id="path1613" d="M 51.169198,54.582421 C 43.439557,53.303748 9.2812315,13.829746 6.5821239,6.9569315 6.5518997,6.8750761 6.5040678,6.7179721 6.4836976,6.6463327 l 116.0445024,0 C 119.83912,13.816225 85.639019,53.931049 78.630114,54.582421 c -0.02775,0.0013 -0.07154,0 -0.09844,0 l -26.968782,0 c -0.113067,0 -0.265933,0.02125 -0.393704,0 z"/><path style="fill:url(#linearGradient1501);fill-opacity:1;fill-rule:evenodd;stroke:none;stroke-width:.25pt;stroke-linecap:butt;stroke-linejoin:miter;stroke-opacity:1" id="path18153" d="M 50.680836,52.637574 C 43.804914,51.033906 8.5538314,11.764566 6.2975491,6.791148 c -0.00829,-0.019615 0.00712,-0.087253 0,-0.1056251 -0.017794,-0.051521 -0.094998,-0.1709748 -0.1020305,-0.211283 9.37e-5,-0.010788 -0.00133,-0.096047 0,-0.1056252 0.00382,-0.00687 0.096954,0.00556 0.1020305,0 l 0.3060917,-0.3169082 115.8046692,0 c -0.009,0.079538 -0.074,0.2186059 -0.10203,0.3169082 -0.0245,0.077151 -0.0672,0.2295901 -0.10203,0.3169082 -3.01063,7.1297371 -37.573322,45.0041281 -43.567044,45.9520641 -0.04875,0.0052 -0.159494,0 -0.204061,0 l -27.344187,0 c -0.0989,-0.0056 -0.293031,0.02681 -0.408122,0 z"/><path style="fill:none;fill-opacity:.75;fill-rule:evenodd;stroke:url(#linearGradient1503);stroke-width:2.78363371;stroke-linecap:butt;stroke-linejoin:miter;stroke-miterlimit:4;stroke-opacity:1" id="path1616" d="M 51.49708,51.201327 C 43.504549,49.405045 11.758472,13.223204 7.9300379,6.7432489 l 112.9478121,0 C 116.01242,14.370657 84.810717,50.587959 77.922992,51.201327 c -0.0284,0.0013 -0.07438,0 -0.10203,0 l -25.813729,0 c -0.08616,0 -0.211832,0.01177 -0.306091,0 -0.06461,-0.01013 -0.135987,0.01537 -0.204062,0 z"/><path style="fill:url(#linearGradient1505);fill-opacity:1;fill-rule:evenodd;stroke:none;stroke-width:1;stroke-linecap:butt;stroke-linejoin:miter;stroke-miterlimit:4;stroke-opacity:1" id="path1636" d="m 51.772439,52.495806 -38.988726,27.038393 7.246399,0.01994 32.643653,-22.455367 28.803331,-4.651423 -29.704657,0.04845 z"/><g id="g8485"><path style="color:#000;display:inline;overflow:visible;visibility:visible;opacity:.3;fill:url(#radialGradient1481);fill-opacity:1;fill-rule:nonzero;stroke:none;stroke-width:.80000001;stroke-linecap:butt;stroke-linejoin:miter;stroke-miterlimit:4;stroke-dashoffset:0;stroke-opacity:1;marker:none;marker-start:none;marker-mid:none;marker-end:none" id="path10699" d="m 117.51867,97.521223 a 44.356844,18.844662 0 0 1 -88.713683,0 44.356844,18.844662 0 1 1 88.713683,0 z"/><path id="path1432" d="M 43.084022,17.716635 C 144.53876,14.367897 128.50449,100.70588 75.731309,100.18854 l 0,23.76417 L 33.531854,86.979611 75.731309,48.204457 c 0,0 0,24.506761 0,24.506761 35.646211,1.485273 46.075231,-54.325867 -32.647287,-54.994583 z" style="color:#000;display:block;overflow:visible;visibility:visible;fill:#aad400;fill-opacity:1;fill-rule:nonzero;stroke:url(#linearGradient2564);stroke-width:3.24961638;stroke-linecap:butt;stroke-linejoin:miter;stroke-miterlimit:4;stroke-dasharray:none;stroke-dashoffset:0;stroke-opacity:1;marker:none;marker-start:none;marker-mid:none;marker-end:none"/><path style="color:#000;display:block;overflow:visible;visibility:visible;opacity:.47159089;fill:none;fill-opacity:1;fill-rule:nonzero;stroke:url(#linearGradient2566);stroke-width:3.24961495;stroke-linecap:butt;stroke-linejoin:miter;stroke-miterlimit:10;stroke-dasharray:none;stroke-dashoffset:0;stroke-opacity:1;marker:none;marker-start:none;marker-mid:none;marker-end:none" id="path2177" d="m 97.453643,32.212392 c 29.714967,15.410235 20.753847,66.481053 -24.291817,65.30882 l 0,20.529048 c 0,0 -35.607267,-31.085278 -35.607267,-31.085278 L 73.161826,54.155326 c 0,0 0,20.981603 0,20.981603 37.615024,0.882772 35.891624,-32.33711 24.291817,-42.924537 z"/><path id="path2362" d="m 45.413251,17.629314 c -0.178635,0.004 -0.328375,0.09745 -0.507751,0.101587 76.72919,1.511547 66.23914,56.412492 30.87135,54.938819 0,0 -0.04548,-24.465235 -0.04548,-24.465235 l -42.199485,38.78386 0.406203,0.406202 C 61.411614,79.807856 95.569246,88.314715 117.00638,66.779765 120.54545,43.419839 101.45171,16.527853 45.413251,17.629314 Z" style="color:#000;display:block;overflow:visible;visibility:visible;opacity:.5;fill:url(#linearGradient2365);fill-opacity:1;fill-rule:nonzero;stroke:none;stroke-width:.99999982;stroke-linecap:butt;stroke-linejoin:miter;stroke-miterlimit:4;stroke-dasharray:none;stroke-dashoffset:0;stroke-opacity:1;marker:none;marker-start:none;marker-mid:none;marker-end:none"/></g></svg>