<svg xmlns="http://www.w3.org/2000/svg" xmlns:svg="http://www.w3.org/2000/svg" xmlns:xlink="http://www.w3.org/1999/xlink" id="svg5550" width="128" height="128" version="1.0" viewBox="0 0 128 128"><metadata id="metadata37"/><defs id="defs5552"><linearGradient id="linearGradient4619" x1="62.342" x2="62.342" y1="8.826" y2="61.277" gradientUnits="userSpaceOnUse"><stop id="stop4621" offset="0" style="stop-color:#fff;stop-opacity:1"/><stop id="stop4623" offset="1" style="stop-color:#74aeff;stop-opacity:1"/><midPointStop style="stop-color:#fff" id="midPointStop157" offset="0"/><midPointStop style="stop-color:#fff" id="midPointStop159" offset=".5"/><midPointStop style="stop-color:#74aeff" id="midPointStop161" offset="1"/></linearGradient><linearGradient id="linearGradient5371" x1="62.342" x2="62.342" y1="16.279" y2="63.596" gradientTransform="matrix(0,-1,1,0,228.41483,453.78825)" gradientUnits="userSpaceOnUse" xlink:href="#linearGradient4619"/><radialGradient id="radialGradient4602" cx="27.576" cy="107.817" r="115.483" fx="27.576" fy="107.817" gradientTransform="matrix(1,0,0,1.0565,0,-0.544571)" gradientUnits="userSpaceOnUse"><stop id="stop4604" offset="0" style="stop-color:#fff;stop-opacity:1"/><stop id="stop4606" offset=".057" style="stop-color:#def;stop-opacity:1"/><stop id="stop4608" offset=".133" style="stop-color:#b5daff;stop-opacity:1"/><stop id="stop4610" offset=".193" style="stop-color:#9dceff;stop-opacity:1"/><stop id="stop4612" offset=".23" style="stop-color:#94caff;stop-opacity:1"/><stop id="stop4614" offset=".596" style="stop-color:#0b74ff;stop-opacity:1"/><stop id="stop4616" offset=".815" style="stop-color:#0035ed;stop-opacity:1"/><midPointStop style="stop-color:#fff" id="midPointStop134" offset="0"/><midPointStop style="stop-color:#fff" id="midPointStop136" offset=".4"/><midPointStop style="stop-color:#94caff" id="midPointStop138" offset=".23"/><midPointStop style="stop-color:#94caff" id="midPointStop140" offset=".5"/><midPointStop style="stop-color:#0b74ff" id="midPointStop142" offset=".596"/><midPointStop style="stop-color:#0b74ff" id="midPointStop144" offset=".5"/><midPointStop style="stop-color:#0035ed" id="midPointStop146" offset=".815"/></radialGradient><radialGradient id="radialGradient5369" cx="323.325" cy="388.165" r="49.622" fx="323.325" fy="388.165" gradientTransform="matrix(-1.372197,2.0980656,1.6241756,1.0622582,147.33183,-673.31104)" gradientUnits="userSpaceOnUse" xlink:href="#radialGradient4602"/><linearGradient id="XMLID_4_" x1="64" x2="64" y1="-1.178" y2="99.458" gradientTransform="matrix(-1,0,0,-1,128,128)" gradientUnits="userSpaceOnUse"><stop id="stop105" offset="0" style="stop-color:#0053bd;stop-opacity:1"/><stop id="stop107" offset="1" style="stop-color:#00008d;stop-opacity:1"/><midPointStop style="stop-color:#00008d" id="midPointStop109" offset="0"/><midPointStop style="stop-color:#00008d" id="midPointStop111" offset=".5"/><midPointStop style="stop-color:#0053bd" id="midPointStop113" offset="1"/></linearGradient><linearGradient id="linearGradient5367" x1="64" x2="64" y1="-1.178" y2="99.458" gradientTransform="matrix(0,-1,-1,0,356.41483,457.10368)" gradientUnits="userSpaceOnUse" xlink:href="#XMLID_4_"/><filter id="filter5198"><feGaussianBlur id="feGaussianBlur5200" stdDeviation="1.124"/></filter><linearGradient id="linearGradient5598" x1="62.342" x2="62.342" y1="16.279" y2="63.596" gradientTransform="matrix(0,0.5603033,0.5603033,0,278.07652,319.13948)" gradientUnits="userSpaceOnUse" xlink:href="#linearGradient4619"/><radialGradient id="radialGradient5601" cx="323.325" cy="388.165" r="49.622" fx="323.325" fy="388.165" gradientTransform="matrix(-0.7688465,-1.1755531,0.9100309,-0.5951868,232.64545,950.65693)" gradientUnits="userSpaceOnUse" xlink:href="#radialGradient4602"/><linearGradient id="linearGradient5604" x1="64" x2="64" y1="-1.178" y2="99.458" gradientTransform="matrix(0,0.5603033,-0.5603033,0,349.79535,317.28183)" gradientUnits="userSpaceOnUse" xlink:href="#XMLID_4_"/><linearGradient id="linearGradient5613" x1="64" x2="64" y1="-1.178" y2="99.458" gradientTransform="matrix(0,0.5603033,-0.5603033,0,349.79535,317.28183)" gradientUnits="userSpaceOnUse" xlink:href="#XMLID_4_"/><radialGradient id="radialGradient5615" cx="323.325" cy="388.165" r="49.622" fx="323.325" fy="388.165" gradientTransform="matrix(-0.7688465,-1.1755531,0.9100309,-0.5951868,232.64545,950.65693)" gradientUnits="userSpaceOnUse" xlink:href="#radialGradient4602"/><linearGradient id="linearGradient5617" x1="62.342" x2="62.342" y1="16.279" y2="63.596" gradientTransform="matrix(0,0.5603033,0.5603033,0,278.07652,319.13948)" gradientUnits="userSpaceOnUse" xlink:href="#linearGradient4619"/></defs><g id="g5607" transform="matrix(1.79499,0,0,1.79499,-499.71405,-572.60153)"><path style="fill:#000;fill-opacity:.50196078;filter:url(#filter5198)" id="path4685" d="m 296.23026,337.65446 c -1.99121,0.67481 -3.32031,2.45899 -3.32031,4.45801 l 0,16.6709 -41.94629,0 c -6.17578,0 -11.18262,4.73047 -11.18262,10.56738 l 0,54.82227 c 0,5.83691 5.00684,10.56738 11.18262,10.56738 l 41.94629,0 0,13.35254 c 0,2 1.3291,3.78515 3.32031,4.45996 1.99219,0.6748 4.21973,0.0947 5.56152,-1.4502 l 46.11524,-52.98828 c 1.52246,-1.74902 1.52051,-4.27051 0,-6.01953 l -46.11524,-52.99023 c -1.34375,-1.54493 -3.56933,-2.125 -5.56152,-1.4502 z" transform="matrix(0.5603033,0,0,0.5603033,150.09494,132.88395)"/><path style="fill:url(#linearGradient5613)" id="path116" d="m 314.95313,320.95225 c -1.11569,0.3781 -1.86039,1.37778 -1.86039,2.49784 l 0,9.34076 -23.50264,0 c -3.46031,0 -6.26566,2.6505 -6.26566,5.92094 l 0,30.7171 c 0,3.27044 2.80535,5.92094 6.26566,5.92094 l 23.50264,0 0,7.48147 c 0,1.1206 0.7447,2.12083 1.86039,2.49893 1.11623,0.37809 2.36432,0.0531 3.11613,-0.81255 l 25.83852,-29.68951 c 0.85304,-0.97998 0.85195,-2.39278 0,-3.37276 l -25.83852,-29.6906 c -0.7529,-0.86563 -1.9999,-1.19065 -3.11613,-0.81256 z"/><path style="fill:url(#radialGradient5615);fill-opacity:1" id="path149" d="m 315.90083,335.44463 c -8.85679,0 -26.31073,0 -26.31073,0 -1.90635,0 -3.4573,1.46642 -3.4573,3.26716 l 0,30.7171 c 0,1.80183 1.55095,3.26715 3.4573,3.26715 0,0 18.56525,0 26.31073,0 l 0,10.13526 25.83851,-29.68951 -25.83851,-29.6917 0,11.99454 z"/><path style="fill:url(#linearGradient5617);fill-opacity:1" id="path164" d="m 312.45146,347.94421 c -4.24961,8.06749 -8.97088,15.33557 -10.53633,23.74394 l -12.69902,0 c -1.11295,0 -2.01852,-1.0139 -2.01852,-2.25981 l 0,-30.7171 c 0,-1.24591 0.90557,-2.25927 2.01852,-2.25927 l 22.94808,0 c 1.69651,3.71201 2.19607,7.74466 0.28727,11.49224 z"/></g></svg>