<svg xmlns="http://www.w3.org/2000/svg" xmlns:svg="http://www.w3.org/2000/svg" xmlns:xlink="http://www.w3.org/1999/xlink" id="svg2" width="128" height="128" version="1.1" viewBox="0 0 128 128"><metadata id="metadata18"/><defs id="defs16"><linearGradient id="linearGradient8052" x1="246.626" x2="246.817" y1="176.185" y2="160.306" gradientUnits="userSpaceOnUse" xlink:href="#linearGradient11424"/><linearGradient id="linearGradient11424"><stop style="stop-color:#d4e6fd;stop-opacity:1" id="stop11426" offset="0"/><stop style="stop-color:#fafcff;stop-opacity:1" id="stop11428" offset="1"/></linearGradient><linearGradient id="linearGradient8054" x1="207.379" x2="212.867" y1="458.023" y2="464.74" gradientUnits="userSpaceOnUse" xlink:href="#linearGradient14084"/><linearGradient id="linearGradient14084"><stop style="stop-color:#fc0;stop-opacity:1" id="stop14086" offset="0"/><stop style="stop-color:#d45500;stop-opacity:1" id="stop14088" offset="1"/></linearGradient></defs><g id="g11342" transform="matrix(4.0666682,0,0,4.0666682,-809.73728,-2043.1457)"><g id="g14117" transform="translate(16.410865,328.68027)"><rect id="rect14119" width="30" height="30" x="183.407" y="174.718" style="opacity:0;fill:#fff;fill-opacity:.99215686;stroke:none"/><g id="g14121" transform="matrix(1.1469033,0,0,1.2102309,-85.775442,-14.264744)"><rect style="fill:#608dcb;fill-opacity:.99215758;stroke:none" id="rect14123" width="26.157" height="18.178" x="234.704" y="159.459"/><rect id="rect14125" width="22.92" height="15.414" x="236.323" y="160.842" style="fill:url(#linearGradient8052);fill-opacity:1;stroke:none"/><g id="g14127" transform="matrix(1,0,0,-1.1994919,0,369.19015)"><path id="path14129" d="m 236.27822,160.83371 0.005,0.76995 11.28421,8.30523 11.69778,-8.19588 0.007,-0.8897 z" style="fill:#608dcb;fill-opacity:.99215686;stroke:none"/><path style="fill:#dceafd;fill-opacity:1;stroke:none" id="path14131" d="m 236.30557,160.83314 11.098,8.11192 11.86863,-8.12175 z"/></g><g id="g14133" transform="matrix(1,0,0,1.1169436,0,-18.807249)"><path style="fill:#608dcb;fill-opacity:.99215686;stroke:none" id="path14135" d="m 236.27822,160.83371 0.005,0.76995 11.28421,8.30523 11.69778,-8.19588 0.007,-0.8897 z"/><path id="path14137" d="m 236.30557,160.83314 11.098,8.11192 11.86863,-8.12175 z" style="fill:#dceafd;fill-opacity:1;stroke:none"/></g></g></g><g id="g14191" transform="matrix(1.209521,0,0,1.209521,-31.682464,-100.77155)"><path style="fill:#ff2a2a;stroke:none" id="path14189" d="m 211.48438,501.98718 0.85937,-0.82812 c 1.20518,-1.12706 4.38727,1.90961 3.10938,3.125 l -0.78125,0.82812 z"/><g id="g14159" transform="matrix(1.3032623,0,0,1.3032623,-62.216289,-94.286548)"><path style="fill:url(#linearGradient8054);fill-opacity:1" id="path14161" d="m 212.51319,459.86121 -4.03766,4.06785 -2.42259,-2.44152 4.03765,-4.06787 2.4226,2.44154 z"/><path style="fill:#fff;fill-opacity:1" id="path14163" d="m 208.40628,464.00436 -2.44213,0.004 0,-2.44073 0.16755,-0.15227 0.18321,0.30295 0.19709,0.0736 0.0976,0.26697 0.25493,0.0821 0.12243,0.23652 0.20782,0.0905 0.13096,0.25592 0.2438,0.11516 0.13085,0.27807 0.33823,0.18639 0.17242,0.27509 0.35798,0.2501 z"/><path style="fill:#000;stroke:none" id="path14165" d="m 205.96093,463.17859 0.85157,0.83203 -0.85156,0.004 z"/></g><path style="fill:#a00;stroke:none" id="path14187" d="m 211.45313,501.73718 3.39062,3.40625 0.26563,-0.27344 -3.39844,-3.39844 z"/></g></g></svg>