<svg xmlns="http://www.w3.org/2000/svg" xmlns:svg="http://www.w3.org/2000/svg" xmlns:xlink="http://www.w3.org/1999/xlink" id="svg2" width="128" height="128" x="0" y="0" enable-background="new 0 0 48 48" version="1.1" viewBox="0 0 128 128" xml:space="preserve"><metadata id="metadata66"/><defs id="defs64"><radialGradient id="radialGradient5866" cx="55.218" cy="458.465" r="15.213" fx="55.218" fy="458.465" gradientTransform="matrix(2.0664755,0,0,2.1152237,-79.309476,-875.71917)" gradientUnits="userSpaceOnUse" xlink:href="#linearGradient4799"/><linearGradient id="linearGradient4799"><stop style="stop-color:#ffde00;stop-opacity:1" id="stop4801" offset="0"/><stop style="stop-color:#ffa700;stop-opacity:1" id="stop4803" offset="1"/></linearGradient></defs><radialGradient id="SVGID_1_" cx="24.223" cy="24.329" r="20.473" gradientTransform="translate(0,80)" gradientUnits="userSpaceOnUse"><stop style="stop-color:#000;stop-opacity:.4" id="stop5" offset=".948"/><stop style="stop-color:#000;stop-opacity:0" id="stop7" offset="1"/></radialGradient><linearGradient id="SVGID_2_" x1="625.57" x2="755.563" y1="1036.848" y2="1036.848" gradientTransform="matrix(0.315,0,0,0.315,-193.9387,-223.1233)" gradientUnits="userSpaceOnUse"><stop style="stop-color:#0053bd" id="stop12" offset="0"/><stop style="stop-color:#0032a4" id="stop14" offset=".994"/></linearGradient><linearGradient id="SVGID_7_" x1="690.941" x2="690.941" y1="977.157" y2="1069.141" gradientTransform="matrix(0.315,0,0,0.315,-193.9387,-223.1233)" gradientUnits="userSpaceOnUse"><stop style="stop-color:#fff" id="stop47" offset="0"/><stop style="stop-color:#94caff" id="stop49" offset="1"/></linearGradient><linearGradient id="SVGID_8_" x1="25.306" x2="19.853" y1="5.161" y2="32.295" gradientTransform="translate(0,80)" gradientUnits="userSpaceOnUse"><stop style="stop-color:#fff" id="stop54" offset="0"/><stop style="stop-color:#00a100" id="stop56" offset=".497"/><stop style="stop-color:#000" id="stop58" offset=".994"/></linearGradient><g id="g4194" transform="matrix(2.9661481,0,0,2.9661481,-6.9117026,-244.20207)"><path style="fill:url(#SVGID_1_)" id="path9" d="m 9.776,89.864 c -3.887,3.876 -6.027,9.001 -6.027,14.432 0,11.306 9.184,20.504 20.473,20.504 11.29,0 20.476,-9.198 20.476,-20.504 0,-11.27 -9.186,-20.438 -20.476,-20.438 -5.433,0 -10.564,2.133 -14.446,6.006 z" enable-background="new"/><path style="fill:url(#SVGID_2_)" id="path16" d="m 9.142,89.02 c -3.886,3.876 -6.026,9.001 -6.026,14.432 0,11.306 9.184,20.503 20.473,20.503 11.29,0 20.475,-9.197 20.475,-20.503 0,-11.27 -9.185,-20.439 -20.475,-20.439 -5.433,0 -10.564,2.133 -14.447,6.007 z"/><path style="fill:#b0d9ff" id="path18" d="m 9.738,89.618 c -3.726,3.717 -5.779,8.63 -5.779,13.834 0,10.84 8.806,19.66 19.629,19.66 10.824,0 19.631,-8.819 19.631,-19.66 0,-10.804 -8.807,-19.594 -19.631,-19.594 -5.207,0 -10.126,2.045 -13.85,5.76 z"/><g id="g20" transform="translate(0,80)"><defs id="defs22"><path id="SVGID_3_" d="m 23.589,42.098 c 10.277,0 18.616,-8.373 18.616,-18.645 0,-10.207 -8.338,-18.581 -18.616,-18.581 -10.206,0 -18.615,8.374 -18.615,18.581 0,10.272 8.41,18.645 18.615,18.645 z"/></defs><clipPath id="SVGID_4_"><use style="overflow:visible" id="use26" width="100%" height="100%" x="0" y="0" overflow="visible" xlink:href="#SVGID_3_"/></clipPath><radialGradient id="SVGID_5_" cx="685.649" cy="995.407" r="96.023" gradientTransform="matrix(0.315,0,0,0.315,-193.9387,-303.1233)" gradientUnits="userSpaceOnUse"><stop id="stop29" offset="0" style="stop-color:#fff"/><stop id="stop31" offset=".596" style="stop-color:#57adff"/><stop id="stop33" offset=".994" style="stop-color:#c9e6ff"/></radialGradient><path style="fill:url(#SVGID_5_)" id="path35" d="m 23.589,42.098 c 10.277,0 18.616,-8.373 18.616,-18.645 0,-10.207 -8.338,-18.581 -18.616,-18.581 -10.206,0 -18.615,8.374 -18.615,18.581 0,10.272 8.41,18.645 18.615,18.645 z" clip-path="url(#SVGID_4_)"/><linearGradient id="SVGID_6_" x1="868.996" x2="868.996" y1="-1149.405" y2="-1269.558" gradientTransform="matrix(0.315,0,0,-0.315,-250.1662,-358.4061)" gradientUnits="userSpaceOnUse"><stop id="stop38" offset="0" style="stop-color:#006a00"/><stop id="stop40" offset=".2" style="stop-color:#004000"/><stop id="stop42" offset="1" style="stop-color:#00bd00"/></linearGradient><path style="fill:url(#SVGID_6_)" id="path44" d="m 17.279,6.581 c -0.094,0 -0.197,0.039 -0.302,0.098 0.247,-0.073 0.363,-0.098 0.302,-0.098 m 6.117,1.192 0.061,-0.895 -0.944,0.059 0.125,0.835 0.758,0 M 12.739,23.237 c -0.19,-0.179 -0.063,-0.956 -0.063,-0.956 0,0 -2.838,-1.491 -5.927,-2.388 -0.381,-0.11 -0.188,-0.895 0.188,-1.192 L 6.812,17.863 c -0.063,-0.417 0.631,-2.447 1.325,-2.625 0.694,-0.18 -0.063,1.193 -0.063,1.193 l -0.693,0.418 c 0,0 0.819,0.955 1.009,0.955 0.188,0 0.504,-0.479 0.504,-0.479 L 8.012,16.73 8.831,16.371 8.883,16.057 9.021,16.013 10.378,13.957 c 0.938,-0.384 2.091,-0.859 2.237,-0.929 0.253,-0.119 2.018,-1.133 2.333,-1.371 0.316,-0.24 1.008,-0.179 1.26,-0.179 0.253,0 0.631,-0.12 0.694,-0.778 0.063,-0.656 0.315,-0.776 0.505,-0.596 0.189,0.177 -0.19,0.477 0.252,0.596 0.441,0.12 0.819,0.418 1.135,0.12 0.23,-0.218 -0.078,-0.467 -0.286,-0.655 l 3.501,0 0.379,-1.077 -0.82,-0.119 -3.026,-0.299 0,-0.358 L 18.3,8.353 C 18.628,6.552 20.574,6.849 19.109,5.806 19.02,5.742 17.738,7.827 17.411,7.786 16.82,7.708 16.057,7.702 15.894,7.894 15.678,8.148 16.377,7.021 16.979,6.679 16.261,6.89 14.975,6.237 12.656,7.875 c -0.784,0.554 -2.752,2.8 -3.563,3.663 -3.422,4.04 -3.698,7.496 -3.698,7.649 0,0.298 0.725,0.467 0.787,0.826 0.063,0.356 -1.198,1.552 -1.198,2.148 0,0.274 -0.631,3.255 0.755,6.984 1.23,3.538 3.61,6.658 3.916,6.854 l 0.876,-0.465 c 0,0 -1.45,-2.567 -1.513,-2.807 -0.063,-0.238 1.639,-3.701 2.46,-3.58 0.819,0.116 0.63,0.357 1.135,0.059 0.505,-0.297 0.82,-2.747 1.387,-2.984 0.568,-0.24 1.198,-0.538 1.135,-1.135 -0.064,-0.598 -2.207,-1.671 -2.396,-1.85 M 26.422,5.685 24.72,5.087 25.035,6.043 26.422,5.685 m -6.369,2.209 c 0.19,0 3.972,-2.506 3.594,-2.567 -0.377,-0.059 -0.44,0 -1.451,-0.12 -1.007,-0.119 -2.081,1.433 -2.332,1.673 -0.252,0.239 -0.167,1.014 0.189,1.014 m 17.361,18.001 0.488,-0.634 -0.488,-0.172 -0.366,0.46 -0.427,0.633 0.365,0.172 0.428,-0.459 m 2.135,2.072 -0.122,-0.922 -0.792,0 -0.062,0.69 -0.733,-0.114 -0.182,-0.748 -0.366,-0.23 -0.428,0.518 -0.427,-0.114 -0.123,0.401 0.489,0.117 0,3.738 1.727,0.416 c -0.04,0.068 -0.069,0.127 -0.079,0.158 -0.123,0.403 0.487,0.578 0.914,0.403 0.158,-0.063 1.153,-0.446 1.469,-1.197 0.439,-1.046 0.724,-2.552 0.8,-3.039 l -0.193,-0.423 -1.221,0.461 -0.673,-0.115 0.002,0 M 38.938,12.656 c -2.792,-4.233 -9.5,-7 -9.5,-7 L 27.71,6.561 27.465,6.16 26.856,5.929 l 0,0.519 0.549,0.461 -0.365,0.172 -1.404,0.114 -3.173,1.727 0.305,1.381 -0.367,0.116 -0.182,0.287 1.038,1.552 0.061,0.519 -0.854,0.172 0,1.035 -0.488,0.115 0.061,0.806 -4.151,2.878 0.122,1.609 c 0.305,0.403 2.686,2.82 2.686,2.82 0,0 2.746,0.114 3.356,-0.23 0.611,-0.345 0.183,0.345 0.367,0.518 0.182,0.173 0.244,1.381 0.426,1.496 0.184,0.115 0,0.804 0.244,1.037 0.244,0.229 0.244,2.991 0.244,2.991 0,0 1.465,2.474 1.465,3.106 0,0.632 -0.062,0.575 1.099,0.518 1.159,-0.057 1.403,-0.518 1.647,-0.689 0.244,-0.171 0.244,-0.575 0.488,-0.922 0.246,-0.346 0.672,-1.667 1.222,-2.127 0.548,-0.462 2.014,-0.808 2.135,-1.611 0.122,-0.807 0.671,-1.439 0.671,-1.439 l 2.639,-2.791 -0.074,0.375 -0.061,1.438 0.794,-0.287 -0.061,-1.555 -0.284,-0.301 0.04,-0.044 c 0,0 -0.184,-0.345 -0.427,-0.345 -0.244,0 -1.71,0.345 -1.953,0.288 -0.244,-0.058 -1.282,-2.82 -1.465,-2.934 -0.184,-0.115 -1.342,-2.015 -1.342,-2.015 0,0 2.684,3.222 3.111,4.488 0.248,0.737 1.18,0.051 1.938,-0.718 l 0.2,0.489 0.487,-0.116 -0.061,-0.575 0.549,0 0,0.863 -0.183,0.461 -0.063,0.747 0.489,0.461 0.244,-0.402 0.791,-0.749 0.916,-0.46 0.245,0.46 0.122,0.633 -0.244,0.69 -0.488,0.403 -0.244,1.036 0,0.518 -0.549,-0.346 -0.061,-1.092 -0.793,0.059 -0.365,0.977 0.549,0.807 1.281,0.173 1.037,-0.979 0.122,-1.896 0.462,-0.61 c 0.301,0.773 0.516,1.582 0.516,2.335 0,0.826 0.654,-0.417 0.334,-2.937 -0.001,-0.003 -0.503,-5.987 -3.268,-8.753 z m -12.206,2.479 -3.295,-0.117 1.402,-1.15 0.732,0 1.16,0.805 0,0.462 m 4.031,-0.403 0,0.518 -1.403,0 0.122,0.346 -0.855,0.116 -0.06,0.286 -0.61,-0.113 -1.1,-0.231 0.184,-0.287 0.184,-0.347 0.61,-0.633 0.245,0.461 0.914,-0.058 0.488,-0.519 1.893,0.346 -0.612,0.115 m 0.121,-0.748 -0.732,0.115 -0.121,-0.519 0.914,-0.114 0.123,-0.518 0.672,0.691 -0.856,0.345 0,0 m 3.541,17.893 -0.428,0.346 0.061,0.863 0.549,0 0,-0.746 0.49,-0.635 0,-1.322 -0.307,-0.06 -0.365,1.554 0,0 m -4.089,-1.725 c 0,0 -0.428,0.111 0.06,0.287 0.488,0.174 2.441,-2.818 2.441,-2.818 l -1.648,1.035 -0.853,1.496 0,0 m -3.322,11.028 -0.365,-0.348 -0.732,-0.116 -0.121,0.349 -0.977,-0.115 -0.062,-0.463 -0.732,0 -0.793,0.463 -1.402,0 -0.122,-0.348 -2.257,-0.233 -0.366,0.349 -0.914,-0.23 -0.123,-0.813 -0.427,-0.06 -0.488,0.872 -1.647,-0.059 c 0.295,0.139 2.753,1.606 6.525,1.912 5.002,0.404 7.381,-0.811 7.381,-0.811 l -0.183,-0.176 -2.195,-0.173 0,0 0,0 z" clip-path="url(#SVGID_4_)"/></g><path style="fill:url(#SVGID_7_)" id="path51" d="m 9.561,95.2 c 2.064,1.784 4.999,3.157 8.418,3.879 0,0 3.893,-0.391 5.833,-0.391 3.369,0 8.877,-0.682 8.877,-0.682 0.057,-0.022 0.112,-0.044 0.168,-0.067 0,0 1.848,-1.451 2.799,-2.079 0.991,-0.655 2.947,-1.76 2.947,-1.76 -2.932,-5.598 -8.599,-9.418 -15.107,-9.418 -4.159,0 -7.996,1.583 -10.987,4.204 -1.648,1.444 -2.648,3.038 -3.697,5.021 0.343,0.391 0.333,0.932 0.749,1.293 z"/><path style="fill:url(#SVGID_8_)" id="path60" d="m 34.854,89.195 c -2.76,-2.367 -5.568,-3.459 -5.568,-3.459 l -1.576,0.825 -0.245,-0.401 -0.609,-0.231 0,0.519 0.549,0.461 -0.365,0.172 -1.404,0.114 -3.173,1.727 0.305,1.381 -0.367,0.116 -0.181,0.287 1.037,1.552 0.061,0.519 -0.854,0.172 0,1.035 -0.488,0.115 0.061,0.806 -4.151,2.879 0.098,1.292 c 1.74,0.368 3.602,0.571 5.543,0.571 3.372,0 6.51,-0.606 9.163,-1.646 -0.382,-0.583 -0.827,-1.313 -0.827,-1.313 0,0 0.441,0.53 0.995,1.245 2.392,-0.962 4.377,-2.277 5.748,-3.833 -0.974,-1.856 -2.249,-3.515 -3.752,-4.905 z m -8.122,5.94 -3.295,-0.117 1.402,-1.149 0.732,0 1.16,0.805 0,0.461 z m 4.03,-0.403 0,0.518 -1.403,0 0.122,0.346 -0.855,0.116 -0.06,0.286 -0.61,-0.113 -1.1,-0.231 0.184,-0.287 0.184,-0.347 0.61,-0.633 0.245,0.461 0.914,-0.058 0.488,-0.519 1.893,0.346 -0.612,0.115 z m 0.121,-0.749 0,0 -0.732,0.116 -0.121,-0.519 0.914,-0.114 0.123,-0.518 0.672,0.691 -0.856,0.344 z M 18.794,90.819 c 0.23,-0.218 -0.078,-0.467 -0.286,-0.655 l 3.501,0 0.379,-1.077 -0.82,-0.119 -3.028,-0.298 0,-0.358 -0.241,0.041 c 0.328,-1.801 2.275,-1.504 0.809,-2.546 -0.089,-0.064 -1.372,2.02 -1.698,1.98 -0.591,-0.078 -1.355,-0.084 -1.518,0.108 -0.215,0.254 0.483,-0.873 1.085,-1.215 -0.381,0.112 -0.48,-0.402 -1.396,0.05 -2.186,1.209 -3.72,2.753 -3.72,2.753 -1.367,1.322 -2.534,2.871 -3.442,4.589 0.341,0.39 0.725,0.765 1.14,1.124 l 0.817,-1.238 c 0.938,-0.383 2.091,-0.859 2.238,-0.929 0.252,-0.119 2.017,-1.133 2.333,-1.372 0.316,-0.24 1.009,-0.179 1.26,-0.179 0.253,0 0.631,-0.12 0.694,-0.778 0.063,-0.656 0.316,-0.776 0.505,-0.596 0.189,0.177 -0.189,0.477 0.252,0.596 0.442,0.119 0.82,0.418 1.136,0.119 z m 1.259,-2.925 c 0.19,0 3.973,-2.506 3.594,-2.567 -0.377,-0.059 -0.44,0 -1.451,-0.12 -1.008,-0.12 -2.081,1.433 -2.333,1.672 -0.251,0.24 -0.166,1.015 0.19,1.015 z m 3.343,-0.121 0.061,-0.895 -0.944,0.059 0.125,0.836 0.758,0 z m 3.026,-2.088 -1.702,-0.598 0.315,0.957 1.387,-0.359 z"/></g><path id="path4797" d="M 31.760718,84.722486 31.655556,65.913051 c 0.120549,-4.130185 7.585595,-3.89318 8.091212,-0.105194 l 0,18.599213 12.504584,-12.609568 c 3.068476,-2.878621 7.531996,2.173928 4.833707,5.043939 L 45.42111,89.976464 61.813691,90.081722 c 4.781805,0.62091 4.179103,8.520514 0.210076,8.826954 l -15.867171,-0.10524 11.979181,11.558854 c 2.828231,3.1665 -0.944863,8.65192 -5.148939,5.88463 l -13.450316,-12.925 -0.10512,18.59922 c 0.475533,3.9498 -7.619114,4.69599 -8.406444,0.10524 l 0.105088,-17.6535 -11.87411,11.87407 c -4.180119,1.02891 -7.611606,-1.94286 -5.989584,-5.56921 L 25.876027,98.593446 7.6970871,98.803836 C 3.2190708,97.93428 3.3277217,90.560125 7.8022456,89.977091 L 26.4015,89.871837 13.371511,77.052042 c -2.535111,-4.03473 1.814722,-8.119196 5.254029,-5.67441 z" style="overflow:visible;fill:url(#radialGradient5866);fill-opacity:1;stroke:#ff4100;stroke-width:3.09971261;stroke-linecap:round;stroke-linejoin:round;stroke-miterlimit:4;stroke-dasharray:none;stroke-opacity:1"/></svg>