<svg xmlns="http://www.w3.org/2000/svg" xmlns:pdf="http://ns.adobe.com/pdf/1.3/" xmlns:svg="http://www.w3.org/2000/svg" xmlns:x="adobe:ns:meta/" xmlns:xap="http://ns.adobe.com/xap/1.0/" xmlns:xapGImg="http://ns.adobe.com/xap/1.0/g/img/" xmlns:xapMM="http://ns.adobe.com/xap/1.0/mm/" xmlns:xlink="http://www.w3.org/1999/xlink" style="overflow:visible" id="svg548" width="128" height="128" version="1.1" viewBox="0 0 128 128" xml:space="preserve"><defs id="defs664"><linearGradient id="linearGradient2890" x1="16.371" x2="43.507" y1="14.877" y2="33.664" gradientUnits="userSpaceOnUse" xlink:href="#XMLID_25_"/><linearGradient id="linearGradient2892" x1="16.371" x2="43.507" y1="14.877" y2="33.664" gradientUnits="userSpaceOnUse" xlink:href="#XMLID_25_"/><radialGradient id="XMLID_15_" cx="49.904" cy="47.092" r="30.084" fx="49.904" fy="47.092" gradientTransform="matrix(0.3749,0,0,0.375,14.9959,15)" gradientUnits="userSpaceOnUse"><stop id="stop555" offset="0" style="stop-color:#fbfd4a;stop-opacity:1"/><stop id="stop556" offset="1" style="stop-color:#ff3600;stop-opacity:1"/></radialGradient><linearGradient id="XMLID_16_" x1="33.705" x2="33.705" y1="29.923" y2="40.927" gradientUnits="userSpaceOnUse"><stop id="stop562" offset="0" style="stop-color:#ffc842;stop-opacity:1"/><stop id="stop563" offset="1" style="stop-color:#ffc842;stop-opacity:1"/></linearGradient><linearGradient id="XMLID_17_" x1="43.617" x2="36.869" y1="24.517" y2="29.578" gradientUnits="userSpaceOnUse"><stop id="stop569" offset="0" style="stop-color:#ffc842;stop-opacity:1"/><stop id="stop570" offset="1" style="stop-color:#000"/></linearGradient><linearGradient id="XMLID_18_" x1="-12.502" x2="15.653" y1="-47.087" y2="-47.087" gradientTransform="matrix(0.9573,0.289,-0.289,0.9573,14.7332,63.9165)" gradientUnits="userSpaceOnUse"><stop id="stop578" offset="0" style="stop-color:#888"/><stop id="stop579" offset="1" style="stop-color:#555"/></linearGradient><linearGradient id="XMLID_19_" x1="-4.256" x2="27.521" y1="-52.919" y2="-21.141" gradientTransform="matrix(0.9573,0.289,-0.289,0.9573,14.7332,63.9165)" gradientUnits="userSpaceOnUse"><stop id="stop586" offset="0" style="stop-color:#fff"/><stop id="stop587" offset="1" style="stop-color:#fbf885;stop-opacity:1"/></linearGradient><radialGradient id="XMLID_20_" cx="16.352" cy="37.996" r="49.415" fx="16.352" fy="37.996" gradientTransform="matrix(0.3749,0,0,0.375,14.9959,15)" gradientUnits="userSpaceOnUse"><stop id="stop594" offset="0" style="stop-color:#fbfd4a;stop-opacity:1"/><stop id="stop595" offset="1" style="stop-color:#ff3600;stop-opacity:1"/></radialGradient><radialGradient id="XMLID_21_" cx="38.168" cy="18.062" r="90.268" fx="38.168" fy="18.062" gradientTransform="matrix(0.3714,-0.0512,0.0511,0.3715,13.2666,17.0873)" gradientUnits="userSpaceOnUse"><stop id="stop602" offset="0" style="stop-color:#fbf885;stop-opacity:1"/><stop id="stop603" offset=".5" style="stop-color:#ffc842;stop-opacity:1"/><stop id="stop604" offset="1" style="stop-color:#ff8119;stop-opacity:1"/></radialGradient><linearGradient id="XMLID_22_" x1="9.663" x2="9.663" y1="14.929" y2="11.929" gradientTransform="matrix(0.9907,-0.1364,0.1364,0.9907,-4.6134,5.5667)" gradientUnits="userSpaceOnUse"><stop id="stop612" offset="0" style="stop-color:#ffc842;stop-opacity:1"/><stop id="stop613" offset=".055" style="stop-color:#ffdd57;stop-opacity:1"/><stop id="stop614" offset=".344" style="stop-color:#fde059;stop-opacity:1"/><stop id="stop615" offset=".608" style="stop-color:#fbe865;stop-opacity:1"/><stop id="stop616" offset=".835" style="stop-color:#faea66;stop-opacity:1"/><stop id="stop617" offset="1" style="stop-color:#fbf885;stop-opacity:1"/></linearGradient><linearGradient id="XMLID_23_" x1="13.461" x2="29.054" y1="13.736" y2="34.062" gradientTransform="matrix(0.9907,-0.1364,0.1364,0.9907,-4.6134,5.5667)" gradientUnits="userSpaceOnUse"><stop id="stop623" offset="0" style="stop-color:#fff"/><stop id="stop624" offset="1" style="stop-color:#f8ff51;stop-opacity:1"/></linearGradient><linearGradient id="XMLID_24_" x1="24.747" x2="49.274" y1="19.907" y2="44.434" gradientUnits="userSpaceOnUse"><stop id="stop632" offset="0" style="stop-color:#fff"/><stop id="stop633" offset="1" style="stop-color:#f9ff4d;stop-opacity:1"/></linearGradient><linearGradient id="XMLID_25_" x1="16.371" x2="43.507" y1="14.877" y2="33.664" gradientUnits="userSpaceOnUse"><stop id="stop639" offset="0" style="stop-color:#ffc842;stop-opacity:1"/><stop id="stop640" offset="1" style="stop-color:#d34900;stop-opacity:1"/></linearGradient><linearGradient id="XMLID_27_" x1="12.403" x2="40.508" y1="26.704" y2="26.704" gradientUnits="userSpaceOnUse"><stop id="stop647" offset="0" style="stop-color:#888"/><stop id="stop648" offset="1" style="stop-color:#555"/></linearGradient><linearGradient id="XMLID_28_" x1="41.545" x2="36.144" y1="40.628" y2="36.65" gradientUnits="userSpaceOnUse"><stop id="stop655" offset="0" style="stop-color:#ffff7e;stop-opacity:1"/><stop id="stop656" offset="1" style="stop-color:#ff9e00;stop-opacity:1"/></linearGradient><linearGradient id="linearGradient2957" x1="13.461" x2="29.054" y1="13.736" y2="34.062" gradientTransform="matrix(0.9907,-0.1364,0.1364,0.9907,-4.6134,5.5667)" gradientUnits="userSpaceOnUse" xlink:href="#XMLID_23_"/><linearGradient id="linearGradient2960" x1="9.663" x2="9.663" y1="14.929" y2="11.929" gradientTransform="matrix(0.9907,-0.1364,0.1364,0.9907,-4.6134,5.5667)" gradientUnits="userSpaceOnUse" xlink:href="#XMLID_22_"/><radialGradient id="radialGradient2963" cx="38.168" cy="18.062" r="90.268" fx="38.168" fy="18.062" gradientTransform="matrix(0.3714,-0.0512,0.0511,0.3715,13.2666,17.0873)" gradientUnits="userSpaceOnUse" xlink:href="#XMLID_21_"/><radialGradient id="radialGradient2967" cx="16.352" cy="37.996" r="49.415" fx="16.352" fy="37.996" gradientTransform="matrix(0.3749,0,0,0.375,14.9959,15)" gradientUnits="userSpaceOnUse" xlink:href="#XMLID_20_"/><linearGradient id="linearGradient2980" x1="43.617" x2="36.869" y1="24.517" y2="29.578" gradientUnits="userSpaceOnUse" xlink:href="#XMLID_17_"/><linearGradient id="linearGradient2983" x1="33.705" x2="33.705" y1="29.923" y2="40.927" gradientUnits="userSpaceOnUse" xlink:href="#XMLID_16_"/><radialGradient id="radialGradient2986" cx="49.904" cy="47.092" r="30.084" fx="49.904" fy="47.092" gradientTransform="matrix(0.3749,0,0,0.375,14.9959,15)" gradientUnits="userSpaceOnUse" xlink:href="#XMLID_15_"/><radialGradient id="radialGradient5866" cx="55.218" cy="458.465" r="15.213" fx="55.218" fy="458.465" gradientTransform="matrix(0.69487464,0,0,0.71126677,-27.370593,-289.35908)" gradientUnits="userSpaceOnUse" xlink:href="#linearGradient4799"/><linearGradient id="linearGradient4799"><stop style="stop-color:#ffde00;stop-opacity:1" id="stop4801" offset="0"/><stop style="stop-color:#ffa700;stop-opacity:1" id="stop4803" offset="1"/></linearGradient></defs><metadata id="metadata549"><xpacket id="xpacket6">begin=&apos; &apos; id=&apos;W5M0MpCehiHzreSzNTczkc9d&apos;</xpacket><x:xmpmeta x:xmptk="XMP toolkit 3.0-29, framework 1.6"><metadata id="metadata82"/></x:xmpmeta><xpacket id="xpacket8">end=&apos;w&apos;</xpacket></metadata><g id="g4218" transform="matrix(2.5122788,0,0,2.5122788,7.6942356,-1.0676923)"><g id="g4219" transform="matrix(0.92294408,0,0,0.92294408,1.7876085,-1.3132)"><path id="path551" d="M 47.465,24.783 C 47.3,24.59 47.048,24.492 46.795,24.526 L 40.338,25.387 38.885,14.83 c -0.034,-0.247 -0.165,-0.469 -0.363,-0.619 -0.198,-0.15 -0.447,-0.216 -0.693,-0.182 0,0 -22.446,3.091 -24.169,3.328 -0.009,-0.064 -0.029,-0.211 -0.029,-0.211 -0.252,-1.833 -1.874,-3.128 -3.615,-2.889 l -5.581,0.769 c -0.813,0.112 -1.541,0.542 -2.049,1.212 -0.444,0.586 -0.683,1.321 -0.683,2.069 0,0.159 0.011,0.318 0.032,0.477 l 0.325,2.357 c 0,0 0.008,0.048 0.013,0.072 0.004,0.032 2.813,20.443 2.813,20.443 0.019,0.136 0.066,0.265 0.14,0.379 1.104,1.719 2.422,3.261 3.917,4.583 0.205,0.181 0.479,0.264 0.749,0.227 l 32.045,-4.413 c 0.246,-0.034 0.469,-0.164 0.618,-0.362 0.015,-0.019 0.023,-0.039 0.036,-0.059 0.188,-0.089 0.34,-0.249 0.402,-0.457 l 4.818,-16.067 c 0.075,-0.246 0.019,-0.51 -0.146,-0.704 z" style="opacity:.2"/><path id="path552" d="m 47.216,24.408 c -0.165,-0.194 -0.417,-0.291 -0.67,-0.257 l -6.458,0.861 -1.453,-10.557 c -0.033,-0.247 -0.164,-0.469 -0.362,-0.619 -0.198,-0.15 -0.447,-0.216 -0.693,-0.182 0,0 -22.446,3.091 -24.169,3.328 C 13.402,16.918 13.382,16.771 13.382,16.771 13.13,14.938 11.508,13.643 9.768,13.882 L 4.186,14.65 c -0.813,0.112 -1.541,0.542 -2.049,1.212 -0.444,0.586 -0.683,1.321 -0.683,2.069 0,0.159 0.011,0.318 0.033,0.477 l 0.324,2.357 c 0,0 0.008,0.048 0.013,0.072 0.004,0.032 2.813,20.443 2.813,20.443 0.019,0.136 0.066,0.265 0.14,0.379 1.104,1.719 2.423,3.261 3.917,4.583 0.205,0.181 0.479,0.264 0.749,0.227 l 32.045,-4.413 c 0.246,-0.034 0.469,-0.164 0.619,-0.362 0.014,-0.019 0.022,-0.039 0.035,-0.059 0.188,-0.089 0.34,-0.249 0.402,-0.457 l 4.818,-16.067 c 0.075,-0.245 0.019,-0.509 -0.146,-0.703 z" style="opacity:.2"/><path id="path553" d="M 46.841,23.971 C 46.676,23.777 46.424,23.68 46.171,23.714 L 39.713,24.576 38.26,14.017 c -0.033,-0.247 -0.164,-0.469 -0.362,-0.62 -0.197,-0.15 -0.447,-0.215 -0.693,-0.182 0,0 -22.446,3.092 -24.168,3.329 C 13.028,16.48 13.008,16.333 13.008,16.333 12.756,14.5 11.134,13.204 9.394,13.444 L 3.813,14.213 C 3,14.325 2.272,14.755 1.764,15.425 c -0.444,0.586 -0.683,1.32 -0.683,2.069 0,0.159 0.011,0.318 0.033,0.477 l 0.325,2.357 c 0,0 0.008,0.048 0.012,0.071 0.004,0.032 2.814,20.443 2.814,20.443 0.019,0.135 0.066,0.265 0.14,0.38 1.105,1.717 2.423,3.259 3.917,4.582 0.205,0.182 0.478,0.264 0.749,0.227 l 32.044,-4.414 c 0.246,-0.033 0.469,-0.164 0.619,-0.361 0.014,-0.019 0.023,-0.039 0.035,-0.059 0.188,-0.089 0.34,-0.249 0.402,-0.457 l 4.818,-16.068 c 0.073,-0.243 0.018,-0.508 -0.148,-0.701 z" style="opacity:.2"/><path id="path560" d="M 45.797,23.338 21.415,26.59 c -0.393,0.052 -0.676,0.4 -0.648,0.796 l 0.98,13.903 c 0.029,0.409 0.382,0.72 0.792,0.696 l 18.582,-1.088 c 0.314,-0.02 0.584,-0.231 0.675,-0.533 l 4.818,-16.068 c 0.073,-0.244 0.019,-0.508 -0.147,-0.702 -0.166,-0.193 -0.418,-0.289 -0.67,-0.256 z" style="fill:url(#radialGradient2986)"/><path id="path567" d="m 21.515,27.334 c 0.046,0.652 0.932,13.219 0.98,13.903 0.702,-0.041 18.083,-1.059 18.582,-1.088 0.142,-0.472 4.513,-15.044 4.819,-16.067 -1.084,0.145 -23.718,3.163 -24.381,3.252 z" style="fill:url(#linearGradient2983)"/><path id="path574" d="m 21.116,27.948 c 0.066,0.941 0.885,12.556 0.955,13.544 1.024,-0.061 17.535,-1.027 18.267,-1.07 0.204,-0.684 4.256,-14.191 4.697,-15.663 -1.577,0.21 -22.95,3.059 -23.919,3.189 z" style="opacity:.5;fill:url(#linearGradient2980)"/><path id="path599" d="m 36.829,12.841 c 0,0 -22.446,3.092 -24.168,3.329 C 12.652,16.106 12.632,15.959 12.632,15.959 12.38,14.126 10.758,12.83 9.018,13.07 L 3.437,13.839 C 2.623,13.95 1.896,14.38 1.388,15.05 c -0.444,0.586 -0.684,1.32 -0.684,2.069 0,0.159 0.011,0.318 0.033,0.477 l 0.325,2.357 c 0,0 0.008,0.048 0.012,0.071 0.004,0.032 2.814,20.443 2.814,20.443 0.019,0.135 0.066,0.265 0.14,0.38 1.105,1.717 2.423,3.259 3.917,4.582 0.205,0.182 0.478,0.264 0.749,0.227 l 32.044,-4.414 c 0.246,-0.033 0.469,-0.164 0.619,-0.361 0.15,-0.198 0.216,-0.448 0.182,-0.694 L 37.885,13.643 c -0.033,-0.247 -0.164,-0.469 -0.361,-0.62 -0.199,-0.15 -0.449,-0.216 -0.695,-0.182 z" style="fill:url(#radialGradient2967)"/><path id="path600" d="m 39.385,14.767 c -0.034,-0.247 -0.164,-0.469 -0.362,-0.62 -0.198,-0.15 -0.447,-0.215 -0.693,-0.182 0,0 -13.944,1.92 -20.694,2.85 l -3.85,12.759 c -0.15,0.495 0.132,1.021 0.627,1.17 l 22.586,6.82 c 0.495,0.148 1.02,-0.132 1.169,-0.628 l 2.933,-9.715 -1.716,-12.454 z" style="opacity:.1"/><path id="path610" d="M 36.957,13.77 11.86,17.226 11.703,16.086 C 11.521,14.763 10.375,13.828 9.145,13.998 l -5.581,0.769 c -1.23,0.169 -2.081,1.379 -1.898,2.702 L 1.99,19.826 C 1.992,19.845 1.997,19.863 2,19.882 L 4.816,40.34 c 1.045,1.626 2.311,3.114 3.75,4.388 L 40.61,40.315 36.957,13.77 Z" style="fill:url(#radialGradient2963)"/><path id="path621" d="M 3.641,15.324 C 2.72,15.451 2.083,16.379 2.223,17.392 l 0.325,2.357 c 0.139,1.013 1.002,1.734 1.924,1.607 l 5.581,-0.769 c 0.922,-0.126 1.558,-1.054 1.418,-2.068 l -0.324,-2.357 c -0.14,-1.013 -1.003,-1.734 -1.924,-1.608 l -5.582,0.77 z" style="fill:url(#linearGradient2960)"/><path id="path628" d="m 2.458,19.088 c 0.11,0.798 2.075,15.077 2.957,21.48 0.192,0.256 0.39,0.506 0.593,0.752 0.054,-3.912 1.658,-7.941 4.878,-10.158 4.991,-3.606 11.106,-3.172 16.925,-4.885 4.775,-1.506 8.133,-5.882 8.843,-10.583 -0.098,-0.707 -0.16,-1.165 -0.178,-1.29 -1.061,0.146 -32.955,4.538 -34.018,4.684 z" style="opacity:.8;fill:url(#linearGradient2957)"/><path id="path629" d="M 9.196,14.369 3.615,15.138 C 2.693,15.265 2.057,16.193 2.197,17.206 L 2.3,17.949 C 2.16,16.936 2.797,16.008 3.718,15.881 l 5.581,-0.769 c 0.921,-0.127 1.785,0.594 1.924,1.607 L 11.12,15.976 C 10.981,14.963 10.118,14.242 9.196,14.369 Z" style="fill:#fff"/><path id="path630" d="m 2.316,18.924 2.939,21.357 c 0.218,0.297 0.445,0.586 0.68,0.871 L 3.229,21.486 C 3.068,20.319 3.912,19.238 5.114,19.073 l 31.121,-4.286 c 0.117,-0.016 0.233,-0.02 0.349,-0.019 L 36.508,14.215 2.316,18.924 Z" style="fill:#fff"/><polygon id="polygon653" points="41.232 40.73 39.817 30.447 38.722 32.001 31.627 42.053" style="fill:#ff3600;fill-opacity:1"/><polygon id="polygon660" points="33.236 41.074 40.388 40.089 39.334 32.434" style="fill:url(#XMLID_28_)"/><path id="path661" d="m 39.119,34.537 c -0.04,-0.292 -0.077,-0.566 -0.111,-0.812 -1.105,1.579 -3.719,5.312 -4.736,6.767 0.226,-0.031 0.48,-0.066 0.752,-0.104 1.049,-1.5 2.987,-4.267 4.095,-5.851 z" style="fill:#fff"/></g><polyline id="_x3C_Slice_x3E_" points="0 48 0 0 47.987 0 47.987 48" transform="matrix(1.0669744,0,0,1.0669744,-3.2138996,0)" style="fill:none"/><path style="fill:url(#radialGradient5866);fill-opacity:1;stroke:#ff4100;stroke-width:1.04231179;stroke-linecap:round;stroke-linejoin:round;stroke-miterlimit:4;stroke-dasharray:none;stroke-opacity:1" id="path4797" d="m 9.977954,33.599768 -0.03536,-6.324876 c 0.040534,-1.388819 2.550738,-1.309124 2.720757,-0.03537 l 0,6.254186 4.204801,-4.240103 c 1.031808,-0.967967 2.532715,0.731007 1.625386,1.696079 l -3.922128,4.416794 5.512182,0.03538 c 1.607933,0.208785 1.405268,2.865113 0.07064,2.968155 l -5.335507,-0.03538 4.028128,3.886789 c 0.951024,1.064769 -0.31772,2.909302 -1.731386,1.978771 l -4.522814,-4.346169 -0.03535,6.254187 c 0.159904,1.328163 -2.5620087,1.579079 -2.826757,0.03538 L 9.765884,40.207408 5.773086,44.200197 C 4.3674777,44.546179 3.2136036,43.546888 3.759026,42.327491 l 4.2401376,-4.063478 -6.1128644,0.07075 c -1.50578145,-0.292402 -1.46924611,-2.77204 0.035359,-2.968091 l 6.2542001,-0.03538 -4.3814744,-4.310793 c -0.8524581,-1.356722 0.6102198,-2.730167 1.766724,-1.908082 z"/></g></svg>