<svg xmlns="http://www.w3.org/2000/svg" xmlns:svg="http://www.w3.org/2000/svg" xmlns:xlink="http://www.w3.org/1999/xlink" id="svg11110" width="129" height="128" version="1.1" viewBox="0 0 128 128"><defs id="defs11112"><linearGradient id="linearGradient4069"><stop style="stop-color:#f32401;stop-opacity:1" id="stop4071" offset="0"/><stop style="stop-color:#af1a01;stop-opacity:1" id="stop4073" offset="1"/></linearGradient><linearGradient id="linearGradient3976"><stop style="stop-color:#d2d1cf;stop-opacity:1" id="stop3978" offset="0"/><stop style="stop-color:#d2d1cf;stop-opacity:.3539823" id="stop3980" offset="1"/></linearGradient><linearGradient id="linearGradient3889"><stop id="stop3891" offset="0" style="stop-color:#0c5fbd;stop-opacity:1"/><stop id="stop3893" offset="1" style="stop-color:#124aab;stop-opacity:1"/></linearGradient><linearGradient id="linearGradient3883"><stop style="stop-color:#bce6fd;stop-opacity:1" id="stop3885" offset="0"/><stop style="stop-color:#abe0fb;stop-opacity:1" id="stop3887" offset="1"/></linearGradient><linearGradient id="linearGradient3835"><stop id="stop3837" offset="0" style="stop-color:#6db0ee;stop-opacity:1"/><stop id="stop3839" offset="1" style="stop-color:#3a9bed;stop-opacity:1"/></linearGradient><linearGradient id="linearGradient3825"><stop id="stop3827" offset="0" style="stop-color:#fdfdff;stop-opacity:1"/><stop id="stop3829" offset="1" style="stop-color:#fdfdff;stop-opacity:0"/></linearGradient><linearGradient id="linearGradient3767"><stop id="stop3769" offset="0" style="stop-color:#34aeff;stop-opacity:1"/><stop id="stop3771" offset="1" style="stop-color:#b2e2ff;stop-opacity:1"/></linearGradient><linearGradient id="linearGradient3773" x1="82.517" x2="30.028" y1="94.352" y2="31.181" gradientTransform="translate(0.56942624,-0.09588402)" gradientUnits="userSpaceOnUse" xlink:href="#linearGradient3767"/><linearGradient id="linearGradient3831" x1="150.671" x2="123.44" y1="8.642" y2="25.328" gradientTransform="translate(-75.306512,-2.0205668)" gradientUnits="userSpaceOnUse" xlink:href="#linearGradient3825"/><linearGradient id="linearGradient3847-8" x1="105.277" x2="117.408" y1="37.416" y2="104.361" gradientUnits="userSpaceOnUse" xlink:href="#linearGradient3835"/><linearGradient id="linearGradient3895" x1="100.857" x2="167.994" y1="19.203" y2="102.92" gradientTransform="translate(-75.679709,-0.99324207)" gradientUnits="userSpaceOnUse" xlink:href="#linearGradient3889"/><linearGradient id="linearGradient3903" x1="105.277" x2="117.408" y1="37.416" y2="104.361" gradientTransform="translate(-1.5786031,0.84279384)" gradientUnits="userSpaceOnUse" xlink:href="#linearGradient3883"/><linearGradient id="linearGradient3995" x1="85.37" x2="98.903" y1="19.299" y2="102.053" gradientTransform="matrix(0.99517934,0,0,1.0030062,0.15365893,-0.33879519)" gradientUnits="userSpaceOnUse" xlink:href="#linearGradient3889"/><linearGradient id="linearGradient3889-1"><stop id="stop3891-6" offset="0" style="stop-color:#1f81f0;stop-opacity:1"/><stop id="stop3893-7" offset="1" style="stop-color:#3375ea;stop-opacity:1"/></linearGradient><linearGradient id="linearGradient4033" x1="85.37" x2="98.903" y1="19.299" y2="102.053" gradientTransform="matrix(0.99371873,0,0,1.0020862,0.19289863,-0.22134891)" gradientUnits="userSpaceOnUse" xlink:href="#linearGradient3889-1"/><linearGradient id="linearGradient4051" x1="53.541" x2="65.951" y1="109.009" y2="111.029" gradientUnits="userSpaceOnUse" xlink:href="#linearGradient4069"/><linearGradient id="linearGradient4067" x1="66.401" x2="53.826" y1="104.232" y2="105.273" gradientUnits="userSpaceOnUse" xlink:href="#linearGradient4069"/><linearGradient id="linearGradient4089" x1="91.365" x2="82.663" y1="88.093" y2="25.586" gradientUnits="userSpaceOnUse" xlink:href="#linearGradient3976"/><linearGradient id="linearGradient3976-7"><stop style="stop-color:#85817c;stop-opacity:1" id="stop3978-0" offset="0"/><stop style="stop-color:#7e7b76;stop-opacity:1" id="stop3980-1" offset="1"/></linearGradient><linearGradient id="linearGradient4130" x1="91.365" x2="82.663" y1="88.093" y2="25.586" gradientTransform="translate(0.8660352,-0.34641108)" gradientUnits="userSpaceOnUse" xlink:href="#linearGradient3976-7"/><linearGradient id="linearGradient11918" x1="91.365" x2="82.663" y1="88.093" y2="25.586" gradientUnits="userSpaceOnUse" xlink:href="#linearGradient3976"/><linearGradient id="linearGradient11920" x1="91.365" x2="82.663" y1="88.093" y2="25.586" gradientUnits="userSpaceOnUse" xlink:href="#linearGradient3976"/><radialGradient id="radialGradient5866" cx="55.218" cy="458.465" r="15.213" fx="55.218" fy="458.465" gradientTransform="matrix(1.940074,0,0,1.9858405,-71.712733,105.55666)" gradientUnits="userSpaceOnUse" xlink:href="#linearGradient4799"/><linearGradient id="linearGradient4799"><stop style="stop-color:#ffde00;stop-opacity:1" id="stop4801" offset="0"/><stop style="stop-color:#ffa700;stop-opacity:1" id="stop4803" offset="1"/></linearGradient></defs><metadata id="metadata11115"/><g id="layer1" transform="translate(0,-924.36216)"><rect style="opacity:0;fill:#fff;fill-opacity:1;stroke:none;stroke-width:1.10000002;stroke-linecap:round;stroke-linejoin:round;stroke-miterlimit:4;stroke-dasharray:none;stroke-dashoffset:0;stroke-opacity:1" id="rect12723" width="128" height="128" x="0" y="924.362" ry="0"/><g style="display:inline" id="layer2" transform="matrix(1.0334158,0,0,1.0334158,4.7805274,921.94339)"><path id="path3982" d="m 40.700448,111.41824 6.28236,3.10252 L 103.59715,100.1502 87.661263,18.294319 33.003957,37.595964 Z" style="fill:none;stroke:url(#linearGradient3995);stroke-width:2.0168519;stroke-linecap:round;stroke-linejoin:round;stroke-miterlimit:4;stroke-dasharray:none;stroke-opacity:1"/><path id="path3982-6" d="m 35.167085,39.035517 7.382442,71.115773 4.507652,2.78888 L 101.13784,98.703386 86.027397,21.091003 Z" style="fill:none;stroke:url(#linearGradient4033);stroke-width:3.02166986;stroke-linecap:round;stroke-linejoin:miter;stroke-miterlimit:4;stroke-dasharray:none;stroke-opacity:1"/><path style="display:inline;fill:#fff;fill-opacity:1;stroke:url(#linearGradient4130);stroke-width:1px;stroke-linecap:butt;stroke-linejoin:miter;stroke-opacity:1" id="path3912-7" d="M 48.127078,110.96066 100.58754,98.882438 85.426353,21.742496 32.892204,41.407686 Z"/><path id="path4087" d="m 42.496959,109.52811 c 4.034498,2.21582 4.034498,2.21582 4.034498,2.21582" style="opacity:.78475336;fill:none;stroke:#525252;stroke-width:2.77605724;stroke-linecap:round;stroke-linejoin:miter;stroke-miterlimit:4;stroke-dasharray:none;stroke-opacity:1"/><g id="g3984"><path style="fill:#fff;fill-opacity:1;stroke:url(#linearGradient11918);stroke-width:1px;stroke-linecap:butt;stroke-linejoin:miter;stroke-opacity:1" id="path3912" d="M 47.26104,111.30708 99.721503,98.00409 84.560315,22.088907 32.026166,41.754097 Z"/><path style="fill:#fff;fill-opacity:1;stroke:url(#linearGradient11920);stroke-width:1px;stroke-linecap:butt;stroke-linejoin:miter;stroke-opacity:1" id="path3912-3" d="M 46.665697,111.20337 98.1429,96.846887 83.824506,21.914963 30.026166,39.7541 45.614542,110.50325 Z"/><path style="fill:#fff;fill-opacity:1;stroke:url(#linearGradient4089);stroke-width:1px;stroke-linecap:butt;stroke-linejoin:miter;stroke-opacity:1" id="path3912-3-2" d="M 44.909876,110.07965 96.597778,95.723159 82.700781,21.774494 30.026166,39.754097 43.701367,109.21221 Z"/></g><path id="path4035" d="m 55.303776,123.47741 -1.263181,-31.331267 8.140731,-3.117726 3.637348,32.043303 z" style="fill:url(#linearGradient4051);fill-opacity:1;stroke:url(#linearGradient4067);stroke-width:1px;stroke-linecap:butt;stroke-linejoin:round;stroke-opacity:1"/><g id="g3905"><path style="fill:url(#linearGradient3773);fill-opacity:1;stroke:url(#linearGradient3895);stroke-width:2;stroke-linecap:butt;stroke-linejoin:round;stroke-miterlimit:4;stroke-dasharray:none;stroke-opacity:1" id="path3765" d="M 39.887421,110.92982 24.991621,32.467039 75.914491,5.2735341 93.061981,92.050259 Z"/><path style="fill:none;stroke:url(#linearGradient3831);stroke-width:2;stroke-linecap:butt;stroke-linejoin:miter;stroke-miterlimit:4;stroke-dasharray:none;stroke-opacity:1" id="path3765-9" d="m 27.599731,32.510684 c 4.72917,24.916667 9.45833,49.833333 14.1875,74.749996 16.44792,-5.84375 32.89583,-11.687496 49.34375,-17.531246 -5.42708,-27.479167 -10.85417,-54.958333 -16.28125,-82.4375008 -15.75,8.4062508 -31.5,16.8125008 -47.25,25.2187508 z"/><g id="g3897" transform="translate(-75.679709,-0.99324207)"><path id="path3833" d="m 104.73518,31.284755 -1.56548,0.925546 15.13014,78.238409 1.83789,-0.73482 z" style="color:#000;font-style:normal;font-variant:normal;font-weight:400;font-stretch:normal;font-size:medium;line-height:normal;font-family:Sans;-inkscape-font-specification:Sans;text-indent:0;text-align:start;text-decoration:none;text-decoration-line:none;letter-spacing:normal;word-spacing:normal;text-transform:none;direction:ltr;block-progression:tb;writing-mode:lr-tb;baseline-shift:baseline;text-anchor:start;display:inline;overflow:visible;visibility:visible;fill:url(#linearGradient3847-8);fill-opacity:1;fill-rule:nonzero;stroke:none;stroke-width:2;marker:none;enable-background:accumulate"/><path id="path3833-7" d="m 103.1697,32.210301 -1.56547,0.855314 14.85773,78.117905 1.83788,-0.73481 z" style="color:#000;font-style:normal;font-variant:normal;font-weight:400;font-stretch:normal;font-size:medium;line-height:normal;font-family:Sans;-inkscape-font-specification:Sans;text-indent:0;text-align:start;text-decoration:none;text-decoration-line:none;letter-spacing:normal;word-spacing:normal;text-transform:none;direction:ltr;block-progression:tb;writing-mode:lr-tb;baseline-shift:baseline;text-anchor:start;display:inline;overflow:visible;visibility:visible;fill:url(#linearGradient3903);fill-opacity:1;fill-rule:nonzero;stroke:none;stroke-width:2;marker:none;enable-background:accumulate"/></g></g></g><path id="path4797" d="m 32.563553,1007.2502 -0.09874,-17.65893 c 0.113178,-3.87745 7.121606,-3.65494 7.596294,-0.0986 l 0,17.46113 11.739708,-11.8379 c 2.880783,-2.70233 7.071281,2.04099 4.538039,4.73558 l -10.950491,12.33142 15.389884,0.099 c 4.489313,0.583 3.923478,7.9994 0.197226,8.2871 l -14.896612,-0.099 11.246442,10.8518 c 2.655234,2.9729 -0.887067,8.1228 -4.83399,5.5247 l -12.627594,-12.1344 -0.09866,17.4616 c 0.446448,3.7082 -7.153068,4.4087 -7.892241,0.099 l 0.0987,-16.5736 -11.1478,11.1478 c -3.924428,0.966 -7.146019,-1.824 -5.623214,-5.2286 l 11.838367,-11.345 -17.0669755,0.1974 c -4.2041065,-0.8164 -4.1021015,-7.7394 0.098679,-8.2869 l 17.461577,-0.099 -12.232977,-12.0356 c -2.380042,-3.78799 1.70372,-7.62251 4.932653,-5.32734 z" style="overflow:visible;fill:url(#radialGradient5866);fill-opacity:1;stroke:#ff4100;stroke-width:2.91011071;stroke-linecap:round;stroke-linejoin:round;stroke-miterlimit:4;stroke-dasharray:none;stroke-opacity:1"/></g></svg>