<svg xmlns="http://www.w3.org/2000/svg" xmlns:svg="http://www.w3.org/2000/svg" xmlns:xlink="http://www.w3.org/1999/xlink" id="svg2" width="128" height="128" version="1.0" viewBox="0 0 128 128"><metadata id="metadata116"/><defs id="defs4"><linearGradient id="linearGradient3579"><stop id="stop3581" offset="0" stop-color="#672b27"/><stop id="stop3583" offset=".5" stop-color="#712913"/><stop id="stop3585" offset="1" stop-color="#965e26"/></linearGradient><linearGradient id="linearGradient3551"><stop id="stop3553" offset="0"/><stop id="stop3557" offset="1" stop-color="#6f382e" stop-opacity="0"/></linearGradient><linearGradient id="linearGradient3511"><stop id="stop3513" offset="0" stop-color="#813d20"/><stop id="stop3515" offset="1" stop-color="#7f4621"/></linearGradient><linearGradient id="linearGradient3439"><stop id="stop3441" offset="0" stop-color="#824623"/><stop id="stop3443" offset=".5" stop-color="#672412"/><stop id="stop3445" offset="1" stop-color="#420804" stop-opacity=".996"/></linearGradient><linearGradient id="linearGradient3431"><stop id="stop3433" offset="0" stop-color="#c96905"/><stop id="stop3435" offset="1" stop-color="#d6902a"/></linearGradient><linearGradient id="linearGradient3405"><stop id="stop3407" offset="0" stop-color="#672b27"/><stop id="stop3413" offset=".5" stop-color="#712913"/><stop id="stop3409" offset="1" stop-color="#620000" stop-opacity=".984"/></linearGradient><linearGradient id="linearGradient3356" x1="575.89" x2="661.55" y1="212.51" y2="278.1" gradientUnits="userSpaceOnUse"><stop id="stop3360" offset="0" stop-color="#029831"/><stop id="stop3372" offset=".5" stop-color="#006c02"/><stop id="stop3362" offset="1" stop-color="#003b2d"/></linearGradient><linearGradient id="linearGradient3370" x1="572.87" x2="663.65" y1="279.27" y2="279.27" gradientUnits="userSpaceOnUse"><stop id="stop3366" offset="0" stop-color="#2e6b01"/><stop id="stop3368" offset="1" stop-color="#152c28"/></linearGradient><linearGradient id="linearGradient3376" x1="570.7" x2="668.25" y1="284.79" y2="284.79" gradientUnits="userSpaceOnUse"><stop id="stop3380" offset="0" stop-color="#d68c23"/><stop id="stop3392" offset=".5" stop-color="#c66100"/><stop id="stop3382" offset="1" stop-color="#6f382e"/></linearGradient><linearGradient id="linearGradient3390" x1="568.19" x2="668.93" y1="280.44" y2="280.44" gradientUnits="userSpaceOnUse"><stop id="stop3386" offset="0" stop-color="#d5801f"/><stop id="stop3394" offset=".5" stop-color="#993a1b"/><stop id="stop3388" offset="1" stop-color="#78413e"/></linearGradient><linearGradient id="linearGradient3613" x1="568.29" x2="669.91" y1="285.4" y2="285.4" gradientUnits="userSpaceOnUse"><stop id="stop3609" offset="0" stop-color="#fff" stop-opacity=".502"/><stop id="stop3611" offset="1" stop-color="#fff" stop-opacity=".361"/></linearGradient><linearGradient id="linearGradient3617" x1="66.259" x2="66.259" y1="7.864" y2="88.929" gradientUnits="userSpaceOnUse"><stop id="stop3307" offset="0" stop-color="#010000"/><stop id="stop3352" offset=".736" stop-color="#411000"/><stop id="stop3309" offset="1" stop-color="#822000"/></linearGradient><linearGradient id="linearGradient3654" x1="568.67" x2="668" y1="289.29" y2="289.29" gradientUnits="userSpaceOnUse"><stop id="stop3625" offset="0" stop-color="#811f00"/><stop id="stop3631" offset=".5" stop-color="#5d0003"/><stop id="stop3627" offset="1" stop-color="#811f00"/></linearGradient><filter id="filter3772" width="1.763" height="1.062" x="-.382" y="-.031"><feGaussianBlur id="feGaussianBlur3774" stdDeviation=".581"/></filter><linearGradient id="linearGradient3810" x1="45.798" x2="45.798" y1="113.08" y2="64.41" gradientTransform="matrix(.51766 .85559 -.85559 .51766 635.73 176.83)" gradientUnits="userSpaceOnUse"><stop id="stop3685" offset="0" stop-color="#5a5a6b"/><stop id="stop3691" offset=".5" stop-color="#837e97"/><stop id="stop3693" offset=".75" stop-color="#9192a7"/><stop id="stop3687" offset="1" stop-color="#8780a4"/></linearGradient><linearGradient id="linearGradient3814" x1="41.167" x2="41.167" y1="113.08" y2="71.687" gradientTransform="matrix(.51766 .85559 -.85559 .51766 635.73 176.83)" gradientUnits="userSpaceOnUse"><stop id="stop3697" offset="0" stop-color="#c8c8d8"/><stop id="stop3699" offset="1" stop-color="#fbfbfc"/></linearGradient><filter id="filter3834"><feGaussianBlur id="feGaussianBlur3836" stdDeviation=".384"/></filter><linearGradient id="linearGradient3845" x1="599.37" x2="599.37" y1="285.4" y2="297.6" gradientTransform="matrix(-1 0 0 1 1236.4 0)" gradientUnits="userSpaceOnUse" xlink:href="#linearGradient3551"/><linearGradient id="linearGradient3847" x1="597.52" x2="597.52" y1="290.62" y2="318.35" gradientTransform="matrix(-1 0 0 1 1236.3 0)" gradientUnits="userSpaceOnUse" xlink:href="#linearGradient3579"/><linearGradient id="linearGradient3850" x1="599.37" x2="599.37" y1="285.4" y2="297.6" gradientTransform="translate(-.004465)" gradientUnits="userSpaceOnUse" xlink:href="#linearGradient3551"/><linearGradient id="linearGradient3852" x1="597.52" x2="597.52" y1="290.62" y2="318.35" gradientTransform="translate(.10252)" gradientUnits="userSpaceOnUse" xlink:href="#linearGradient3579"/><linearGradient id="linearGradient3855" x1="583.48" x2="583.48" y1="315.81" y2="297.05" gradientTransform="matrix(-1 0 0 1 1236.7 0)" gradientUnits="userSpaceOnUse" xlink:href="#linearGradient3431"/><linearGradient id="linearGradient3857" x1="597.52" x2="597.52" y1="290.62" y2="318.35" gradientTransform="matrix(-1 0 0 1 1236.6 0)" gradientUnits="userSpaceOnUse" xlink:href="#linearGradient3405"/><linearGradient id="linearGradient3860" x1="583.48" x2="583.48" y1="315.81" y2="297.05" gradientTransform="translate(-.004465)" gradientUnits="userSpaceOnUse" xlink:href="#linearGradient3431"/><linearGradient id="linearGradient3862" x1="597.52" x2="597.52" y1="290.62" y2="318.35" gradientTransform="translate(.10252)" gradientUnits="userSpaceOnUse" xlink:href="#linearGradient3405"/><linearGradient id="linearGradient3865" x1="622.05" x2="622.05" y1="295.55" y2="299.34" gradientTransform="translate(0 .99999)" gradientUnits="userSpaceOnUse" xlink:href="#linearGradient3551"/><linearGradient id="linearGradient3867" x1="617.44" x2="617.44" y1="302.66" y2="299.45" gradientUnits="userSpaceOnUse" xlink:href="#linearGradient3511"/><linearGradient id="linearGradient3870" x1="622.05" x2="622.05" y1="301.88" y2="299.04" gradientTransform="translate(0 .99999)" gradientUnits="userSpaceOnUse" xlink:href="#linearGradient3431"/><linearGradient id="linearGradient3875" x1="598.18" x2="598.18" y1="290.65" y2="319.61" gradientTransform="matrix(-1 0 0 1 1236.7 0)" gradientUnits="userSpaceOnUse" xlink:href="#linearGradient3439"/><linearGradient id="linearGradient3878" x1="612.31" x2="612.31" y1="303.4" y2="299.61" gradientUnits="userSpaceOnUse"><stop id="stop3505" offset="0" stop-color="#712717"/><stop id="stop3507" offset="1" stop-color="#76351b"/></linearGradient><linearGradient id="linearGradient3881" x1="598.18" x2="598.18" y1="290.65" y2="319.61" gradientTransform="translate(-.004465)" gradientUnits="userSpaceOnUse" xlink:href="#linearGradient3439"/><filter id="filter3955"><feGaussianBlur id="feGaussianBlur3957" stdDeviation="1.299"/></filter><linearGradient id="linearGradient3980" x1="27.965" x2="27.965" y1="10.75" y2="55.843" gradientUnits="userSpaceOnUse"><stop id="stop3976" offset="0" stop-color="#fff" stop-opacity=".361"/><stop id="stop3978" offset="1" stop-color="#fff" stop-opacity="0"/></linearGradient><linearGradient id="linearGradient3990" x1="111.23" x2="111.23" y1="13.656" y2="80.617" gradientUnits="userSpaceOnUse"><stop id="stop3986" offset="0" stop-color="#fff" stop-opacity=".361"/><stop id="stop3988" offset="1" stop-color="#fff" stop-opacity=".086"/></linearGradient><radialGradient id="radialGradient5866" cx="55.218" cy="458.465" r="15.213" fx="55.218" fy="458.465" gradientTransform="matrix(1.0803234,0,0,1.1058083,-34.703678,-424.53424)" gradientUnits="userSpaceOnUse" xlink:href="#linearGradient4799"/><linearGradient id="linearGradient4799"><stop style="stop-color:#ffde00;stop-opacity:1" id="stop4801" offset="0"/><stop style="stop-color:#ffa700;stop-opacity:1" id="stop4803" offset="1"/></linearGradient></defs><g id="layer1" transform="translate(-550.29 -199.79)"><path id="path3970" fill="#fff" fill-rule="evenodd" d="m112.34 80.583l1-0.031-1.53-70.458v-0.032s0.71-0.7539 0.71-0.7539c0 0.0001-1.29 0.2825-1.29 0.2729l-86.949 0.169c-0.011-0.0011-0.028-0.0034-0.062 0-0.018 0.0017-0.066-0.0105-0.094 0-0.014 0.0052-0.015 0.0214-0.031 0.0312-0.016 0.0099-0.062 0.0308-0.063 0.0313 0 0.0005-0.021 0.0464-0.031 0.0625s-0.026 0.0171-0.031 0.0312c-0.011 0.0283 0.001 0.0765 0 0.0938-0.004 0.035-0.001 0.051 0 0.062v0.032l-1.219 70.458 1 0.031 1.219-69.833h85.841l1.53 69.833zm-0.53-70.521c0-0.002 0.01 0.016 0-0.062v-0.0938c0-0.0008-0.06-0.0618-0.06-0.0624 0-0.0007-0.04-0.0515-0.06-0.0626-0.02-0.011-0.05-0.0274-0.07-0.0312-0.05-0.0151-0.07 0-0.09 0h-0.03c0.16 0.1508 0.31 0.312 0.31 0.312z" transform="translate(550.29 199.79)"/><path id="path3918" fill-opacity=".502" fill-rule="evenodd" d="m576.17 207.75c-1.53 0-2.81 1.29-2.81 2.82l-1.22 68.43v0.03c-0.01 0.04-0.02 0.07-0.03 0.1-0.04 0.06-0.09 0.1-0.16 0.12-0.02 0.01-0.04 0.01-0.06 0h-2.72c-0.66 0-1.22 0.54-1.22 1.19v9.34c0 0.66 0.57 1.22 1.22 1.22h26.37l-18.71 24.19c-0.95 1.22-1.29 2.51-0.79 3.56 0.51 1.05 1.74 1.57 3.29 1.57h2.25 1.9 5.13c0.62 0 1.13-0.25 1.53-0.75v-0.04l10-13.84c0.04 0 0.05 0.03 0.09 0.03h39.47l10.03 13.81v0.04c0.39 0.5 0.91 0.75 1.53 0.75h5.13 1.9 2.25c1.55 0 2.78-0.52 3.29-1.57 0.5-1.05 0.16-2.34-0.79-3.56l-18.71-24.19h26.37c0.65 0 1.22-0.56 1.22-1.22v-9.34c0-0.65-0.56-1.19-1.22-1.19h-2.75c-0.06 0-0.11-0.02-0.16-0.06-0.05-0.05-0.09-0.11-0.09-0.19l-1.5-68.47c0-1.53-1.25-2.78-2.78-2.78h-87.25zm34.62 83.25h18.29l4.56 6.32h-27.41l4.56-6.32z" filter="url(#filter3955)"/><path id="rect3354" fill="url(#linearGradient3356)" fill-rule="evenodd" stroke="url(#linearGradient3370)" stroke-linecap="square" stroke-linejoin="round" d="m573.51 208.29h89.38c0.26 0 0.47 0.21 0.47 0.47l1.21 70.06c0 0.26-0.21 0.47-0.47 0.47h-90.59c-0.26 0-0.47-0.21-0.47-0.47v-70.06c0-0.26 0.21-0.47 0.47-0.47z"/><path id="path3635" fill="url(#linearGradient3617)" fill-rule="evenodd" d="m16.062 89.281c0 0.654 0.565 1.219 1.219 1.219h101.53c0.66 0 1.22-0.565 1.22-1.219h-103.97z" transform="translate(550.29 199.79)"/><path id="rect3396" fill="none" stroke="url(#linearGradient3881)" stroke-linecap="square" stroke-linejoin="round" stroke-width="1.4" d="m598.2 286.65c-0.33 0-0.74 0.21-0.94 0.47l-21.47 27.75c-1.71 2.21-0.86 4 1.94 4h2.23 1.91 5.14c0.32 0 0.77-0.21 0.97-0.47l22.65-31.28c0.18-0.27 0.1-0.47-0.22-0.47h-3.64-4.81-3.76z"/><rect id="rect3489" width="40.901" height="7" x="598.03" y="297.29" fill="none" stroke="url(#linearGradient3878)" stroke-linecap="square" stroke-linejoin="round" ry=".59"/><path id="path3453" fill="none" stroke="url(#linearGradient3875)" stroke-linecap="square" stroke-linejoin="round" stroke-width="1.4" d="m638.47 286.65c0.33 0 0.74 0.21 0.94 0.47l21.47 27.75c1.71 2.21 0.85 4-1.94 4h-2.23-1.91-5.14c-0.33 0-0.77-0.21-0.97-0.47l-22.65-31.28c-0.18-0.27-0.11-0.47 0.22-0.47h3.63 4.82 3.76z"/><rect id="rect3499" width="40.901" height="5" x="598.03" y="298.29" fill="url(#linearGradient3870)" fill-rule="evenodd" stroke="url(#linearGradient3867)" stroke-linecap="square" stroke-linejoin="round" ry=".59"/><rect id="rect3565" width="40.901" height="5" x="598.03" y="298.29" fill="url(#linearGradient3865)" fill-rule="evenodd" stroke="url(#linearGradient3867)" stroke-linecap="square" stroke-linejoin="round" ry=".59"/><path id="path3403" fill="url(#linearGradient3860)" fill-rule="evenodd" stroke="url(#linearGradient3862)" stroke-linecap="square" stroke-linejoin="round" stroke-width="1.336" d="m599.04 287.59c-0.31 0-0.7 0.2-0.89 0.45l-2.6 3.37-19.04 23.11c-1.63 2.11-0.82 3.82 1.85 3.82h2.13 1.82 4.03c0.31 0 0.73-0.21 0.92-0.45l21.54-29.85c0.19-0.25 0.11-0.45-0.2-0.45h-2.53-4.59-2.44z"/><path id="path3455" fill="url(#linearGradient3855)" fill-rule="evenodd" stroke="url(#linearGradient3857)" stroke-linecap="square" stroke-linejoin="round" stroke-width="1.336" d="m637.62 287.59c0.31 0 0.71 0.2 0.9 0.45l2.59 3.37 19.05 23.11c1.63 2.11 0.82 3.82-1.85 3.82h-2.13-1.82-4.03c-0.31 0-0.74-0.21-0.93-0.45l-21.54-29.85c-0.19-0.25-0.1-0.45 0.21-0.45h2.52 4.59 2.44z"/><path id="path3547" fill="url(#linearGradient3850)" fill-rule="evenodd" stroke="url(#linearGradient3852)" stroke-linecap="square" stroke-linejoin="round" stroke-width=".8" d="m599.04 287.59c-0.31 0-0.7 0.2-0.89 0.45l-2.6 3.37-18.09 22.73c-1.63 2.11-1.15 3.74 1.52 3.74h1.09 1.82 4.03c0.31 0 0.73-0.16 0.93-0.41l21.95-29.43c0.19-0.25 0.11-0.45-0.2-0.45h-2.53-4.59-2.44z"/><path id="path3589" fill="url(#linearGradient3845)" fill-rule="evenodd" stroke="url(#linearGradient3847)" stroke-linecap="square" stroke-linejoin="round" stroke-width=".8" d="m637.35 287.59c0.32 0 0.71 0.2 0.9 0.45l2.59 3.37 18.09 22.73c1.64 2.11 1.15 3.74-1.51 3.74h-1.09-1.82-4.03c-0.32 0-0.74-0.16-0.93-0.41l-21.96-29.43c-0.19-0.25-0.1-0.45 0.21-0.45h2.52 4.6 2.43z"/><path id="path3961" fill="url(#linearGradient3990)" fill-rule="evenodd" d="m112.34 80.583l1-0.031-1.53-70.458v-0.032s0.71-0.7539 0.71-0.7539c0 0.0001-1.29 0.2825-1.29 0.2729l-86.949 0.169c-0.011-0.0011-0.028-0.0034-0.062 0-0.018 0.0017-0.066-0.0105-0.094 0-0.014 0.0052-0.015 0.0214-0.031 0.0312-0.016 0.0099-0.062 0.0308-0.063 0.0313 0 0.0005-0.021 0.0464-0.031 0.0625s-0.026 0.0171-0.031 0.0312c-0.011 0.0283 0.001 0.0765 0 0.0938-0.004 0.035-0.001 0.051 0 0.062v1.224h1 85.841l1.53 69.297zm-0.53-70.521c0-0.002 0.01 0.016 0-0.062v-0.0938c0-0.0008-0.06-0.0618-0.06-0.0624 0-0.0007-0.04-0.0515-0.06-0.0626-0.02-0.011-0.05-0.0274-0.07-0.0312-0.05-0.0151-0.07 0-0.09 0h-0.03c0.16 0.1508 0.31 0.312 0.31 0.312z" transform="translate(550.29 199.79)"/><rect id="rect3374" width="102.07" height="8.845" x="567.35" y="280.29" fill="url(#linearGradient3376)" fill-rule="evenodd" stroke="url(#linearGradient3390)" stroke-linecap="square" stroke-linejoin="round" ry=".467"/><rect id="rect3595" width="100.63" height="7.991" x="568.79" y="281.29" fill="none" stroke="url(#linearGradient3613)" stroke-linecap="square"/><path id="rect2521" fill="url(#linearGradient3617)" fill-rule="evenodd" d="m94.059 90.5l-0.71-1.5h24.931c0.02 0.003 0.04 0.003 0.06 0 0.07-0.018 0.13-0.063 0.16-0.125 0.02-0.029 0.03-0.061 0.03-0.094v-0.031-8.25-0.062c-0.02-0.068-0.06-0.124-0.12-0.157-0.03-0.016-0.06-0.027-0.1-0.031-0.01-0.001-0.02-0.001-0.03 0h-2.16-2.74l-0.04-1.75-1.53-68.406v-0.032c0-0.002 0.01 0.016 0-0.062v-0.0938c0-0.0008-0.06-0.0618-0.06-0.0624 0-0.0007-0.04-0.0515-0.06-0.0626-0.02-0.011-0.05-0.0274-0.07-0.0312-0.05-0.0151-0.07 0-0.09 0h-87.249c-0.011-0.0011-0.028-0.0034-0.062 0-0.018 0.0017-0.066-0.0105-0.094 0-0.014 0.0052-0.015 0.0214-0.031 0.0312-0.016 0.0099-0.062 0.0308-0.063 0.0313 0 0.0005-0.021 0.0464-0.031 0.0625s-0.026 0.0171-0.031 0.0312c-0.011 0.0283 0.001 0.0765 0 0.0938-0.004 0.035-0.001 0.051 0 0.062v0.032l-1.219 68.406-0.031 1.75h-2.75-2.157c-0.02-0.003-0.041-0.003-0.062 0-0.067 0.018-0.124 0.063-0.156 0.125-0.017 0.029-0.027 0.061-0.032 0.094v0.031 8.25c-0.002 0.021-0.002 0.042 0 0.062 0.019 0.068 0.064 0.124 0.126 0.157 0.028 0.016 0.06 0.027 0.093 0.031 0.011 0.001 0.021 0.001 0.031 0h24.544l-1.183 1.5h-23.892c-0.654 0-1.219-0.565-1.219-1.219v-9.343c0-0.655 0.559-1.188 1.219-1.188h2.719c0.021 0.003 0.042 0.003 0.062 0 0.068-0.018 0.124-0.063 0.157-0.125 0.016-0.029 0.027-0.061 0.031-0.094 0.001-0.01 0.001-0.021 0-0.031l1.219-68.438c0-1.5266 1.285-2.812 2.812-2.812h87.249c1.53 0 2.78 1.251 2.78 2.781l1.5 68.469c0 0.073 0.04 0.142 0.1 0.188 0.04 0.038 0.09 0.06 0.15 0.062h2.75c0.66 0 1.22 0.533 1.22 1.188v9.343c0 0.654-0.56 1.219-1.22 1.219h-24.751z" transform="translate(550.29 199.79)"/><path id="path3621" fill="none" stroke="url(#linearGradient3654)" d="m569.17 289.29h98.33"/><path id="text3658" fill="#fff" stroke="#fff" stroke-width=".2" d="m597.9 241.08c-0.15 0-0.43-0.18-0.84-0.53-0.36-0.34-0.64-0.63-0.81-0.89-0.78 0.42-1.47 0.74-2.06 0.95-0.59 0.22-1.09 0.33-1.48 0.33-1.9 0-3.28-0.54-4.15-1.61-0.82-1.01-1.23-2.55-1.23-4.62 0-1.97 0.67-3.64 2.02-5.04 1.36-1.39 2.97-2.09 4.84-2.09 0.71 0 1.5 0.18 2.37 0.55 1.11 0.45 1.66 1 1.66 1.64 0 0.22-0.08 0.41-0.25 0.58-0.08 0.31-0.14 0.82-0.19 1.52-0.04 0.71-0.07 1.61-0.07 2.72-0.01 1 0.06 1.8 0.2 2.38 0.08 0.36 0.34 1.07 0.77 2.14 0.06 0.15 0.15 0.36 0.28 0.65l0.07 0.2c0 0.33-0.11 0.59-0.34 0.81-0.23 0.21-0.49 0.31-0.79 0.31zm-2.53-8.45c0-0.35 0.02-0.73 0.07-1.14 0.04-0.41 0.11-0.85 0.2-1.31-0.3-0.15-0.56-0.27-0.77-0.34-0.22-0.07-0.39-0.11-0.52-0.11-1.26 0-2.34 0.51-3.26 1.54-0.91 1.03-1.36 2.21-1.36 3.55 0 1.33 0.23 2.32 0.7 2.99 0.47 0.66 1.18 1 2.12 1 0.78 0 1.44-0.15 1.98-0.43 0.29-0.15 0.7-0.46 1.23-0.92-0.26-2.15-0.39-3.76-0.39-4.83z"/><path id="text3662" fill="#fff" stroke="#fff" stroke-width=".2" d="m618.96 244.06c-1.5 0-2.87-0.3-4.1-0.89-0.31 0.47-0.7 0.71-1.15 0.71-0.37 0-0.69-0.13-0.95-0.39s-0.39-0.59-0.39-0.98c0-0.26 0.01-0.64 0.03-1.14 0.03-0.5 0.04-0.88 0.04-1.14 0-1.04-0.03-2.6-0.08-4.68-0.06-2.09-0.08-3.65-0.08-4.69 0-0.72 0-2.08 0.01-4.08 0.01-2.01 0.02-3.37 0.02-4.1 0-0.59 0.12-1.12 0.37-1.59 0.32-0.6 0.77-0.9 1.34-0.9 0.74 0 1.11 0.42 1.11 1.28 0 0.14-0.03 0.34-0.08 0.61-0.05 0.26-0.07 0.46-0.07 0.6l-0.05 3.23-0.02 3.77c0.85-0.58 1.67-1.02 2.44-1.31s1.5-0.43 2.18-0.43c2.11 0 3.83 0.81 5.15 2.43 1.24 1.53 1.86 3.4 1.86 5.63 0 2.24-0.73 4.14-2.17 5.71-1.45 1.56-3.25 2.35-5.41 2.35zm0.57-13.33c-0.81 0-1.64 0.22-2.48 0.67-0.42 0.23-1.13 0.72-2.13 1.47l-0.03 2.55 0.02 2.3 0.01 2.42c0.47 0.22 1.14 0.5 1.99 0.83 0.61 0.19 1.3 0.28 2.05 0.28 1.43 0 2.6-0.5 3.52-1.5 0.91-1.01 1.37-2.26 1.37-3.75 0-1.47-0.37-2.7-1.11-3.68-0.79-1.06-1.87-1.59-3.21-1.59z"/><path id="text3666" fill="#fff" stroke="#fff" stroke-width=".2" d="m646.96 250.59c-2.38 0-4.36-0.72-5.95-2.16-1.67-1.51-2.5-3.49-2.5-5.96 0-2.36 0.78-4.78 2.34-7.29 1.74-2.78 3.7-4.17 5.88-4.17 1.14 0 2.41 0.27 3.81 0.8 1.77 0.68 2.66 1.52 2.66 2.5 0 0.44-0.15 0.84-0.44 1.18s-0.65 0.51-1.07 0.51c-0.34 0-0.63-0.1-0.88-0.3-0.25-0.21-0.49-0.41-0.72-0.6-0.69-0.55-1.81-0.82-3.36-0.82-1.18 0-2.35 1.05-3.51 3.16-1.06 1.94-1.58 3.61-1.58 5.03 0 1.53 0.52 2.73 1.56 3.61 0.97 0.83 2.23 1.24 3.76 1.24 0.69 0 1.43-0.19 2.22-0.56l2.02-1.08c0.35-0.18 0.6-0.27 0.75-0.27 0.43 0 0.8 0.17 1.11 0.51s0.47 0.73 0.47 1.17c0 0.85-0.89 1.67-2.68 2.45-1.56 0.7-2.86 1.05-3.89 1.05z"/><path id="path3826" fill-opacity=".502" fill-rule="evenodd" d="m602.21 244.8l-12.88 1.41c-0.1 0.02-0.2 0.06-0.28 0.12l-31.41 18.97c-0.2 0.12-0.33 0.33-0.34 0.56-0.37 4.6 2.11 7.85 6.03 10 0.22 0.11 0.48 0.1 0.69-0.03l31.37-18.97c0.09-0.05 0.17-0.13 0.22-0.22l7.25-10.75c0.16-0.22 0.17-0.52 0.03-0.76-0.14-0.23-0.41-0.36-0.68-0.33z" filter="url(#filter3834)"/><path id="rect3680" fill="url(#linearGradient3814)" fill-rule="evenodd" d="m588.44 245.96l12.89-1.42-7.24 10.76-31.39 18.98c-3.77-2.07-5.99-5-5.64-9.33l31.38-18.99z"/><path id="rect3705" fill="#fbfbfc" fill-rule="evenodd" d="m40.125 66.125l-3.656 7.906v34.849c0 1.22 0.825 2.21 1.843 2.21 1.019 0 1.813-0.99 1.813-2.21v-42.755z" filter="url(#filter3772)" transform="matrix(.51766 .85559 -.85559 .51766 635.73 176.83)"/><path id="path3776" fill="none" stroke="url(#linearGradient3810)" stroke-linecap="square" stroke-linejoin="round" stroke-width="1.4" d="m588.44 245.96l12.89-1.42-7.24 10.76-31.39 18.98c-3.77-2.07-5.99-5-5.64-9.33l31.38-18.99z"/><path id="path3972" fill="url(#linearGradient3980)" fill-rule="evenodd" d="m23.969 11.281l-1.219 69.281 1 0.032 1.219-69.313h-1z" transform="translate(550.29 199.79)"/></g><path id="path4797" d="m 23.362205,77.570733 -0.05497,-9.8333 c 0.06301,-2.1592 3.965639,-2.0353 4.229967,-0.055 l 0,9.7234 6.537217,-6.5921 c 1.604153,-1.5049 3.937618,1.1365 2.526992,2.6369 l -6.097742,6.8668 8.569802,0.055 c 2.499859,0.3246 2.184775,4.4544 0.109837,4.6146 l -8.295127,-0.055 6.262542,6.0428 c 1.478557,1.6554 -0.49396,4.5231 -2.691792,3.0764 l -7.03163,-6.757 -0.05495,9.7234 c 0.248603,2.0649 -3.983162,2.455 -4.394768,0.055 l 0.05495,-9.229 -6.207614,6.2076 c -2.185311,0.5379 -3.979242,-1.0157 -3.131272,-2.9115 l 6.592153,-6.3175 -9.503687,0.11 c -2.3410419,-0.4546 -2.2842399,-4.3097 0.05497,-4.6145 l 9.723422,-0.055 -6.811889,-6.702 c -1.325319,-2.1093 0.948709,-4.2446 2.74673,-2.9665 z" style="fill:url(#radialGradient5866);fill-opacity:1;stroke:#ff4100;stroke-width:1.62048495;stroke-linecap:round;stroke-linejoin:round;stroke-miterlimit:4;stroke-dasharray:none;stroke-opacity:1"/></svg>