<svg xmlns="http://www.w3.org/2000/svg" xmlns:svg="http://www.w3.org/2000/svg" xmlns:xlink="http://www.w3.org/1999/xlink" id="svg2" width="128" height="128" version="1.0" viewBox="0 0 128 128"><metadata id="metadata170"/><defs id="defs4"><linearGradient id="linearGradient3377"><stop id="stop3379" offset="0" stop-color="#00339e"/><stop id="stop3387" offset=".324" stop-color="#0062c8"/><stop id="stop3381" offset="1" stop-color="#4fb0ec"/></linearGradient><filter id="filter3210"><feGaussianBlur id="feGaussianBlur3212" stdDeviation=".49"/></filter><filter id="filter3283"><feGaussianBlur id="feGaussianBlur3285" stdDeviation=".299"/></filter><filter id="filter3425"><feGaussianBlur id="feGaussianBlur3427" stdDeviation=".302"/></filter><filter id="filter3437"><feGaussianBlur id="feGaussianBlur3439" stdDeviation=".901"/></filter><linearGradient id="linearGradient3947" x1="127.95" x2="127.95" y1="77.207" y2="307.61" gradientTransform="matrix(0.31443723,0,0,0.31443723,52.976492,6.7280564)" gradientUnits="userSpaceOnUse"><stop id="stop563" offset="0" stop-color="#3c3"/><stop id="stop564" offset="1" stop-color="#366"/></linearGradient><linearGradient id="linearGradient3949" x1="127.95" x2="127.95" y1="77.367" y2="307.36" gradientTransform="matrix(0.38177,0,0,0.38177,445.32,231.28)" gradientUnits="userSpaceOnUse"><stop id="stop570" offset=".006" stop-color="#cf6"/><stop id="stop571" offset="1" stop-color="#090"/></linearGradient><radialGradient id="radialGradient2330" cx="36.255" cy="19.631" r="7.353" gradientTransform="matrix(1.0733,-6.0093e-8,6.8393e-8,1.2215,-0.7384223,-6.6444933)" gradientUnits="userSpaceOnUse"><stop id="stop3255" offset="0" stop-color="#fff"/><stop id="stop3257" offset="1" stop-color="#fff" stop-opacity=".5"/></radialGradient><linearGradient id="linearGradient2333" x1="351.29" x2="352.78" y1="258.97" y2="244.68" gradientTransform="translate(-302.65242,-236.38109)" gradientUnits="userSpaceOnUse"><stop id="stop3240" offset="0" stop-color="#21b933"/><stop id="stop3246" offset=".151" stop-color="#35cd35"/><stop id="stop3242" offset="1" stop-color="#d2ffd1"/></linearGradient><linearGradient id="linearGradient2336" x1="350.66" x2="350.66" y1="264.18" y2="249.71" gradientTransform="translate(-302.65242,-236.38109)" gradientUnits="userSpaceOnUse"><stop id="stop3230" offset="0" stop-color="#037806"/><stop id="stop3232" offset="1" stop-color="#39b71d"/></linearGradient><linearGradient id="linearGradient2339" x1="30.422" x2="63.776" y1="16.662" y2="16.662" gradientTransform="translate(1.9175777,-2.3010933)" gradientUnits="userSpaceOnUse"><stop id="stop3218" offset="0" stop-color="#306266"/><stop id="stop3224" offset=".5" stop-color="#026404"/><stop id="stop3220" offset="1" stop-color="#002931"/></linearGradient><linearGradient id="linearGradient2343" x1="409.9" x2="405.43" y1="317.2" y2="305.46" gradientTransform="matrix(1.1788,0,0,1.1788,-374.99242,-291.37109)" gradientUnits="userSpaceOnUse"><stop id="stop3348" offset="0" stop-color="#fff"/><stop id="stop3350" offset="1" stop-color="#b5daff"/></linearGradient><linearGradient id="linearGradient2346" x1="350.34" x2="385.93" y1="339.33" y2="257.7" gradientTransform="translate(-302.65242,-236.38109)" gradientUnits="userSpaceOnUse" xlink:href="#linearGradient3377"/><linearGradient id="linearGradient2352" x1="105.23" x2="100.08" y1="85.691" y2="70.443" gradientTransform="translate(1.9175777,-2.3010933)" gradientUnits="userSpaceOnUse"><stop id="stop3340" offset="0" stop-color="#fff"/><stop id="stop3342" offset="1" stop-color="#d0e9ff"/></linearGradient><linearGradient id="linearGradient2355" x1="55.679" x2="55.679" y1="94.561" y2="28.459" gradientTransform="translate(1.9175777,-2.3010933)" gradientUnits="userSpaceOnUse"><stop id="stop3610" offset="0" stop-color="#a166d7"/><stop id="stop3612" offset="1" stop-color="#fc76fd"/></linearGradient><linearGradient id="linearGradient2360" x1="354.4" x2="366.64" y1="332.65" y2="264.79" gradientTransform="translate(-302.65242,-236.38109)" gradientUnits="userSpaceOnUse"><stop id="stop3332" offset="0" stop-color="#badeff"/><stop id="stop3334" offset="1" stop-color="#fff"/></linearGradient><linearGradient id="linearGradient2363" x1="47.893" x2="47.893" y1="101.58" y2="28.659" gradientTransform="translate(1.9175777,-2.3010933)" gradientUnits="userSpaceOnUse"><stop id="stop3326" offset="0" stop-color="#e3effa"/><stop id="stop3328" offset="1" stop-color="#fff"/></linearGradient><linearGradient id="linearGradient2367" x1="80.626" x2="62.709" y1="95.051" y2="25.053" gradientTransform="translate(1.9175777,-2.3010933)" gradientUnits="userSpaceOnUse"><stop id="stop3642" offset="0" stop-color="#ffdc8b"/><stop id="stop3644" offset="1" stop-color="#ffecb8"/></linearGradient><linearGradient id="linearGradient2370" x1="42.926" x2="12.753" y1="107.47" y2="22.031" gradientTransform="translate(1.9175777,-2.3010933)" gradientUnits="userSpaceOnUse"><stop id="stop3204" offset="0" stop-color="#fff"/><stop id="stop3206" offset="1" stop-color="#fff" stop-opacity=".5"/></linearGradient><linearGradient id="linearGradient2373" x1="399.44" x2="365.23" y1="319.77" y2="245.74" gradientTransform="translate(-302.65242,-236.38109)" gradientUnits="userSpaceOnUse"><stop id="stop3196" offset="0" stop-color="#febf2d"/><stop id="stop3198" offset="1" stop-color="#fff0c3"/></linearGradient><linearGradient id="linearGradient2376" x1="342.52" x2="362.7" y1="347.77" y2="291.78" gradientTransform="translate(-302.65242,-236.38109)" gradientUnits="userSpaceOnUse"><stop id="stop3188" offset="0" stop-color="#ffec2d"/><stop id="stop3190" offset="1" stop-color="#ff6d00"/></linearGradient><linearGradient id="linearGradient2379" x1="40.437" x2="77.453" y1="117.11" y2="17.886" gradientTransform="translate(1.9175777,-2.3010933)" gradientUnits="userSpaceOnUse"><stop id="stop3172" offset="0" stop-color="#820000"/><stop id="stop3174" offset="1" stop-color="#fe3200"/></linearGradient><radialGradient id="radialGradient3362" cx="515.44" cy="258.95" r="30.028" gradientTransform="matrix(-0.68912,0,1.2875e-6,-0.66403,465.92758,205.22891)" gradientUnits="userSpaceOnUse"><stop id="stop3931" offset="0" stop-color="#ceff67"/><stop id="stop3933" offset="1" stop-color="#ceff67" stop-opacity="0"/></radialGradient><radialGradient id="radialGradient3365" cx="57.085" cy="101.16" r="120.81" gradientTransform="matrix(0.32762,0,0,0.24565,52.224578,13.685907)" gradientUnits="userSpaceOnUse"><stop id="stop3917" offset="0" stop-color="#fff"/><stop id="stop3919" offset="1" stop-color="#82d655"/></radialGradient><linearGradient id="linearGradient3370" x1="127.95" x2="127.95" y1="47.327" y2="212.99" gradientTransform="matrix(0.31444,0,0,0.31444,52.977578,6.7274067)" gradientUnits="userSpaceOnUse"><stop id="stop556" offset="0" stop-color="#090"/><stop id="stop557" offset="1" stop-color="#334966"/></linearGradient><filter id="filter3315"><feGaussianBlur id="feGaussianBlur3317" stdDeviation=".324"/></filter><filter id="filter5261"><feGaussianBlur id="feGaussianBlur5263" stdDeviation=".3"/></filter><filter id="filter6238"><feGaussianBlur id="feGaussianBlur6240" stdDeviation="1.909"/></filter><radialGradient id="radialGradient5866" cx="55.218" cy="458.465" r="15.213" fx="55.218" fy="458.465" gradientTransform="matrix(2.1296766,0,0,2.1799157,-82.742712,-907.03594)" gradientUnits="userSpaceOnUse" xlink:href="#linearGradient4799"/><linearGradient id="linearGradient4799"><stop style="stop-color:#ffde00;stop-opacity:1" id="stop4801" offset="0"/><stop style="stop-color:#ffa700;stop-opacity:1" id="stop4803" offset="1"/></linearGradient><linearGradient id="linearGradient6122" x1="350.34" x2="385.93" y1="339.33" y2="257.7" gradientTransform="translate(-302.65242,-236.38109)" gradientUnits="userSpaceOnUse" xlink:href="#linearGradient3377"/></defs><g id="g6152" transform="matrix(0.95029595,0,0,1.0010228,0.04002031,-0.06215879)"><path id="path3441" d="M 6.7167777,35.678907 33.330778,110.31891 c 1.789,5.02 6.689,7.86 13.687,6.69 l 68.430002,-11.38 c 7.66,-1.27 11.04,-14.323003 8.44,-19.723003 l -30.211002,-62.678 c -3.436,-7.128 -9.801,-11.791 -20.841,-10.732 l -55.913,5.366 c -2.554,0.245 -6.6322,2.155 -8.0249003,6.029 l -1.621,4.508 c -1.0641,2.959 -1.5053,4.628 -0.5599,7.28 z" style="opacity:.5;fill-rule:evenodd"/><path id="path2396" d="M 5.7868777,33.945907 32.401878,108.58891 c 1.788,5.02 6.688,7.85 13.686,6.69 l 68.430002,-11.38 c 7.66,-1.27 11.04,-14.326003 8.44,-19.726003 l -30.211002,-62.678 c -3.436,-7.128 -9.801,-11.7910003 -20.841,-10.732 l -55.913,5.366 c -2.554,0.245 -6.6321003,2.155 -8.0248003,6.029 l -1.621,4.508 c -1.0641,2.96 -1.5053,4.628 -0.5599,7.28 z" style="fill:url(#linearGradient2379);fill-rule:evenodd"/><path id="path3168" d="M 9.4825777,35.777907 34.578578,106.96891 c 1.659,4.71 4.483,6.14 11.037,5.03 l 68.252002,-11.6 c 6.4,-1.090003 7.73,-11.998003 6.35,-14.831003 l -31.422002,-64.646 c -2.116,-4.354 -6.475,-8.535 -16.822,-7.555 l -53.367,5.055 c -2.515,0.238 -6.7731,0.614 -8.2625,4.66 l -1.8489003,5.022 c -1.0182,2.766 0.1104,5.186 0.9874,7.674 z" style="fill:url(#linearGradient2376);fill-rule:evenodd"/><path id="path3178" d="m 36.778578,98.838907 c 1.878,6.680003 6.412,7.240003 14.886,5.790003 L 115.62758,93.689907 c 6.39,-1.094 5.97,-5.289 4.59,-8.122 l -31.422002,-64.646 c -1.933,-3.348 -6.475,-8.535 -16.822,-7.555 l -53.367,5.055 c -1.86,0.176 -4.675,0.428 -6.617,2.185 -0.6828,0.618 -1.8391,2.693 -0.9856,5.114 l 25.775,73.118 z" style="fill:url(#linearGradient2373);fill-rule:evenodd"/><path id="path3182" d="m 13.229578,19.729907 c -0.438,0.241 -0.865,0.528 -1.25,0.875 -0.6826,0.618 -1.8217,2.704 -0.9682,5.125 l 25.781,73.089 c 1.879,6.690003 6.401,7.270003 14.875,5.820003 L 115.63738,93.698907 c 4.38,-0.749 5.54,-2.965 5.4,-5.188 -0.8,1.001 -2.21,1.822 -4.53,2.219 L 52.542378,101.66891 c -8.473,1.45 -12.996,0.87 -14.875,-5.814003 l -25.125,-71.344 c -0.7363,-2.092 0.026,-3.922 0.687,-4.781 z" style="fill:url(#linearGradient2370);fill-rule:evenodd;filter:url(#filter3210)"/><path id="path3630" d="m 115.33758,87.586907 -35.527002,-69.086 -61.95,5.314 24.902,75.614 72.575002,-11.842 z" style="fill:url(#linearGradient2367);fill-rule:evenodd"/><path id="path3433" d="m 84.034578,21.431907 -62.343,2.375 c -0.473,0.016 -0.917,0.237 -1.188,0.625 -0.27,0.387 -0.335,0.895 -0.187,1.344 l 25.687,77.123003 c 0.765,2.3 3.092,3.73 5.25,3.13 L 110.18758,89.556907 c 0.53,-0.159 0.92,-0.59 1.03,-1.125 l 4.5,-20.875 c 0.1,-0.423 0.01,-0.868 -0.25,-1.219 -10.33,-14.33 -20.027002,-29.655 -30.120002,-44.281 -0.301,-0.421 -0.797,-0.657 -1.313,-0.625 z" style="opacity:.5;fill-rule:evenodd;filter:url(#filter3437)"/><path id="path3287" d="m 22.291578,23.982907 60.345,-2.799 c 10.071,14.593 19.781002,29.186 29.511002,43.779 l -4.7,20.136 -58.716002,15.720003 -26.44,-76.836003 z" style="fill:url(#linearGradient2363);fill-rule:evenodd"/><path id="path3312" d="m 24.573578,24.260907 57.502,-2.165 c 9.466,13.717 18.750002,28.679 27.902002,42.396 l -3.8,18.15 -55.195002,14.773 -26.409,-73.154 z" style="fill:url(#linearGradient2360);fill-rule:evenodd"/><path id="path3557" d="m 26.985578,30.899907 58.418,-3.612 m -56.006,9.94 59.333,-5.06 m -57.076,11.388 60.249,-6.507 m -57.838,13.302 61.165,-7.955 m -56.185,21.7 62.992002,-10.85 m -60.114002,18.423 63.914002,-12.298 m -58.547002,20.492 56.117002,-11.897 m -53.004002,21.287 57.554002,-14.367 m -71.324002,-17.896 62.081,-9.402" style="fill:none;stroke:#3769e6;stroke-width:.5"/><path id="path3398" d="m 111.35758,63.237907 -16.470002,3.219 c -0.176,0.031 -0.332,0.119 -0.406,0.281 -0.075,0.162 -0.059,0.377 0.031,0.531 l 11.435002,19.156 0.94,-0.531 4.69,-21.562 -0.22,-1.094 z" style="opacity:.25;fill-rule:evenodd;filter:url(#filter3425)"/><path id="path3598" d="m 32.792578,25.823907 -2.031,0.063 -0.063,0.031 26.938,68.062 1.906,-0.531 -26.75,-67.625 z" style="fill:url(#linearGradient2355);fill-rule:evenodd"/><path id="path3293" d="m 96.789578,67.841907 15.358002,-2.879 -4.88,20.853 -10.478002,-17.974 z" style="fill:url(#linearGradient2352);fill-rule:evenodd"/><path id="path3375" d="m 83.105578,19.698907 -62.344,2.375 c -0.473,0.016 -0.917,0.238 -1.188,0.625 -0.27,0.387 -0.335,0.895 -0.187,1.344 l 25.687,77.126003 c 0.765,2.3 3.092,3.73 5.25,3.12 L 109.25758,87.823907 c 0.53,-0.159 0.92,-0.59 1.04,-1.125 l 4.5,-20.875 c 0.09,-0.423 0,-0.868 -0.26,-1.219 -10.33,-14.33 -20.026002,-29.655 -30.120002,-44.281 -0.301,-0.421 -0.797,-0.657 -1.312,-0.625 z m -0.469,1.5 c 10.07,14.593 19.801002,29.157 29.531002,43.75 l -4.72,20.156 -0.03,0 -0.16,0.719 -0.34,-0.594 -58.188002,15.589003 -26.437,-76.839003 60.344,-2.781 z" style="fill:url(#linearGradient6122);fill-rule:evenodd"/><path id="path3393" d="m 112.29758,63.698907 -16.474002,3.219 c -0.175,0.031 -0.331,0.119 -0.406,0.281 -0.075,0.162 -0.059,0.377 0.031,0.531 l 11.439002,19.157 0.94,-0.532 -11.035002,-18.531 15.715002,-3.031 -0.21,-1.094 z" style="fill:url(#linearGradient2346);fill-rule:evenodd"/><path id="path3299" d="m 111.86758,66.163907 -13.044002,2.504 8.964002,14.965 4.08,-17.469 z" style="fill:url(#linearGradient2343);fill-rule:evenodd"/><path id="path3279" d="m 32.047578,14.659907 c 7.052,-8.4096003 17.965,-9.9958003 25.103,-5.5470003 1.557,0.9590003 13.561,8.6200003 9.665,15.7830003 -2.266,4.166 -8.884,4.801 -15.362,5.608 -8.868,1.105 -10.209,-0.445 -11.753,-1.703 -3.391,-2.766 -6.435,-9.472 -7.653,-14.141 z" style="opacity:.5;fill-rule:evenodd;filter:url(#filter3283)"/><path id="path3214" d="m 31.424578,13.903907 c 7.052,-8.4099003 17.965,-9.9960003 25.104,-5.5470003 1.557,0.959 13.561,8.6190003 9.664,15.7830003 -2.266,4.166 -8.884,4.801 -15.361,5.608 -8.869,1.105 -10.21,-0.445 -11.753,-1.704 -3.392,-2.765 -6.436,-9.471 -7.654,-14.14 z" style="fill:url(#linearGradient2339);fill-rule:evenodd"/><path id="path3226" d="m 33.040578,13.645907 c 6.267,-7.4733003 16.365,-8.5397003 22.708,-4.5860003 1.384,0.852 11.546,8.0340003 8.588,14.0250003 -2.296,4.652 -20.155,6.693 -24.007,3.773 -4.57,-3.464 -6.207,-9.063 -7.289,-13.212 z" style="fill:url(#linearGradient2336);fill-rule:evenodd"/><path id="path3236" d="m 35.456578,12.593907 c 4.474,-4.7120003 12.393,-6.9233003 20.007,-3.2480003 1.383,0.8520003 10.402,8.1870003 5.099,12.2520003 -3.382,2.594 -14.836,4.496 -18.357,2.449 -4.199,-2.441 -6.932,-7.661 -6.749,-11.453 z" style="fill:url(#linearGradient2333);fill-rule:evenodd"/><path id="path3248" d="m 36.855578,11.292907 c -0.285,0.234 -0.579,0.468 -0.844,0.718 -0.19,0.231 -0.372,0.455 -0.563,0.594 -0.034,0.711 0.027,1.467 0.188,2.25 0.215,1.045 0.602,2.129 1.125,3.188 0.392,0.794 0.863,1.575 1.406,2.312 0.905,1.227 1.997,2.322 3.25,3.188 0.007,0.005 0.024,-0.005 0.031,0 0.244,0.167 0.495,0.352 0.75,0.5 0.203,0.117 0.436,0.22 0.688,0.312 0.135,0.05 0.289,0.083 0.437,0.125 0.405,0.115 0.825,0.217 1.313,0.281 0.095,0.014 0.183,0.021 0.281,0.032 0.251,0.028 0.514,0.046 0.781,0.062 0.728,0.045 1.497,0.066 2.313,0.032 0.816,-0.035 1.677,-0.116 2.531,-0.219 -1.768,-0.277 -3.709,-0.268 -4.781,-0.657 -8.722,-4.056 -8.625,-9.863 -8.906,-12.718 z" style="fill:url(#radialGradient2330);fill-rule:evenodd"/><path id="path554" d="m 758.49,359.91 c 0,0 -130.56,89.47 -132.58,90.86 -1.69,-1.68 -41.78,-41.6 -41.78,-41.6 -2.98,-2.96 -6.89,-4.06 -10.47,-2.94 -3.89,1.23 -6.4,4.01 -7.08,7.81 l -0.42,2.36 c -0.13,0.77 -0.12,1.53 0.04,2.29 l 0.59,2.8 0.41,1.25 46.25,101.69 c 1.45,3.18 4.38,5.43 7.83,6 3.44,0.58 6.94,-0.6 9.35,-3.14 L 771.86,378 c 2.07,-2.17 3.26,-5.27 3.26,-8.49 l -0.13,-1.23 -0.57,-2.72 c -0.7,-3.33 -2.86,-5.81 -6.23,-7.16 -2.16,-0.87 -5.59,-1.31 -9.7,1.51 z" transform="matrix(0.31444,0,0,0.31444,-117.19242,-92.226093)" style="opacity:.5;filter:url(#filter6238)"/><path id="path561" d="m 120.84758,20.502907 c 0,0 -41.052002,28.133 -41.687002,28.569 -0.531,-0.53 -13.137,-13.079 -13.137,-13.079 -0.936,-0.934 -2.166,-1.28 -3.291,-0.926 -1.223,0.388 -2.013,1.26 -2.226,2.456 l -0.132,0.743 c -0.043,0.24 -0.038,0.481 0.012,0.718 l 0.185,0.881 0.128,0.392 14.544,31.977 c 0.456,1.001 1.376,1.706 2.462,1.887 1.082,0.182 2.181,-0.188 2.94,-0.989 l 44.412002,-46.943 c 0.65,-0.682 1.02,-1.655 1.02,-2.667 l -0.04,-0.388 -0.18,-0.857 c -0.22,-1.047 -0.9,-1.825 -1.96,-2.25 -0.68,-0.272 -1.76,-0.41 -3.05,0.476 z" style="fill:url(#linearGradient3370);filter:url(#filter5261)"/><path id="path568" d="m 121.90609,22.064047 c 0,0 -42.589911,29.189447 -42.977017,29.453009 C 77.322994,49.919214 64.68851,37.334147 64.68851,37.334147 c -0.370633,-0.370633 -0.88952,-0.625959 -1.391935,-0.461233 -0.502414,0.15649 -0.848338,0.461233 -0.938938,0.98012 l -0.131781,0.741267 0.189435,0.881284 c 0,0.0082 14.53707,31.981553 14.53707,31.981553 0.197671,0.428288 0.593013,0.724794 1.054246,0.807158 0.469469,0.07413 0.938938,-0.08236 1.260154,-0.428288 L 123.67689,24.897334 c 0.32122,-0.337688 0.51065,-0.840102 0.51065,-1.375462 l -0.1812,-0.856575 c -0.0988,-0.461233 -0.37887,-0.708322 -0.81539,-0.881284 -0.43652,-0.181199 -0.88952,0.0082 -1.28486,0.280034 z" style="fill:url(#linearGradient3947)"/><path id="path575" d="m 477.57,287.23 c -0.55,0.38 -1.28,0.31 -1.74,-0.15 0,0 -17.15,-17.08 -17.5,-17.43 -0.04,0.1 -0.06,0.21 -0.06,0.32 0,0.13 0.02,0.26 0.07,0.37 0,0 17.6,38.69 17.66,38.81 0.33,-0.35 53.91,-56.99 53.91,-56.99 0.09,-0.1 0.15,-0.29 0.15,-0.49 0,-0.12 -0.03,-0.24 -0.08,-0.35 -0.39,0.26 -52.41,35.91 -52.41,35.91 z" transform="matrix(0.82363,0,0,0.82363,-313.80242,-183.76109)" style="fill:url(#linearGradient3949);filter:url(#filter3315)"/><path id="path582" d="m 80.181578,53.743907 0,10e-4 c -0.896,0.612 -2.104,0.502 -2.872,-0.263 0,0 -6.305,-6.278 -10.466,-10.421 3.329,7.321 9.646,21.209 11.737,25.805 1.911,-2.019 29.507002,-31.185 37.727002,-39.878 -9.87,6.761 -36.126002,24.756 -36.126002,24.756 z" style="fill:url(#radialGradient3365)"/><path id="path3927" d="m 80.181578,53.743907 0,10e-4 c -0.896,0.612 -2.104,0.502 -2.872,-0.263 0,0 -6.305,-6.278 -10.466,-10.421 3.329,7.321 9.646,21.209 11.737,25.805 1.911,-2.019 29.507002,-31.185 37.727002,-39.878 -9.87,6.761 -36.126002,24.756 -36.126002,24.756 z" style="fill:url(#radialGradient3362)"/></g><path id="path4797" d="M 31.724453,82.77986 31.616075,63.395156 c 0.124236,-4.256503 7.817593,-4.012249 8.338674,-0.108411 l 0,19.168052 12.887024,-12.995219 c 3.162323,-2.966662 7.762355,2.240415 4.981541,5.198203 l -12.020679,13.536745 16.893932,0.108477 c 4.928052,0.6399 4.306917,8.781105 0.216501,9.096918 L 46.560615,97.291462 58.906168,109.20384 c 2.914729,3.26334 -0.973761,8.91653 -5.306415,6.0646 l -13.86168,-13.3203 -0.108335,19.16806 c 0.490076,4.0706 -7.852137,4.83961 -8.663547,0.10846 l 0.108302,-18.19341 -12.237268,12.23722 c -4.307964,1.06038 -7.8444,-2.00228 -6.17277,-5.73954 L 25.659785,97.07505 6.9248597,97.291874 C 2.309888,96.395724 2.421862,88.796037 7.0332349,88.195172 L 26.201329,88.086699 12.772831,74.874823 c -2.612645,-4.158128 1.870223,-8.367515 5.414718,-5.847956 z" style="overflow:visible;fill:url(#radialGradient5866);fill-opacity:1;stroke:#ff4100;stroke-width:3.19451427;stroke-linecap:round;stroke-linejoin:round;stroke-miterlimit:4;stroke-dasharray:none;stroke-opacity:1"/></svg>