<svg xmlns="http://www.w3.org/2000/svg" xmlns:svg="http://www.w3.org/2000/svg" xmlns:xlink="http://www.w3.org/1999/xlink" id="svg2" width="128" height="128" version="1.1" viewBox="0 0 128 128"><defs id="defs4"><linearGradient id="linearGradient4217"><stop style="stop-color:#fff;stop-opacity:1" id="stop4219" offset="0"/><stop style="stop-color:#fff;stop-opacity:0" id="stop4221" offset="1"/></linearGradient><linearGradient id="linearGradient4071"><stop style="stop-color:#224fda;stop-opacity:1" id="stop4073" offset="0"/><stop style="stop-color:#b7dcff;stop-opacity:1" id="stop4075" offset="1"/></linearGradient><linearGradient id="linearGradient4039"><stop style="stop-color:#d01509;stop-opacity:1" id="stop4041" offset="0"/><stop id="stop4047" offset=".606" style="stop-color:#ff8100;stop-opacity:1"/><stop style="stop-color:#de7524;stop-opacity:1" id="stop4043" offset="1"/></linearGradient><linearGradient id="linearGradient4031"><stop id="stop4033" offset="0" style="stop-color:#f06a00;stop-opacity:0"/><stop style="stop-color:#ffa700;stop-opacity:1" id="stop4035" offset=".5"/><stop id="stop4037" offset="1" style="stop-color:#fffbf2;stop-opacity:1"/></linearGradient><linearGradient id="linearGradient4006"><stop id="stop4008" offset="0" style="stop-color:#7e84a2;stop-opacity:1"/><stop style="stop-color:#a0a0b6;stop-opacity:1" id="stop4018" offset=".597"/><stop style="stop-color:#e5e5eb;stop-opacity:1" id="stop4016" offset=".721"/><stop style="stop-color:#fcfcfd;stop-opacity:1" id="stop4014" offset=".797"/><stop style="stop-color:#dfdfe6;stop-opacity:1" id="stop4010" offset=".862"/><stop id="stop4012" offset="1" style="stop-color:#c6c6d2;stop-opacity:1"/></linearGradient><linearGradient id="linearGradient3819"><stop style="stop-color:#99a1ff;stop-opacity:1" id="stop3821" offset="0"/><stop style="stop-color:#eef3ff;stop-opacity:1" id="stop3823" offset="1"/></linearGradient><linearGradient id="linearGradient3768"><stop style="stop-color:#f06a00;stop-opacity:1" id="stop3770" offset="0"/><stop id="stop3776" offset=".5" style="stop-color:#ffa700;stop-opacity:1"/><stop style="stop-color:#fffbf2;stop-opacity:1" id="stop3772" offset="1"/></linearGradient><linearGradient id="linearGradient3774" x1="43.132" x2="14.742" y1="59.241" y2="43.909" gradientUnits="userSpaceOnUse" xlink:href="#linearGradient3768"/><linearGradient id="linearGradient3825" x1="73.72" x2="73.897" y1="72.384" y2="15.011" gradientUnits="userSpaceOnUse" xlink:href="#linearGradient3819"/><filter id="filter3937" width="1.217" height="1.268" x="-.109" y="-.134" color-interpolation-filters="sRGB"><feGaussianBlur id="feGaussianBlur3939" stdDeviation=".531"/></filter><linearGradient id="linearGradient3774-1" x1="43.132" x2="14.742" y1="59.241" y2="43.909" gradientUnits="userSpaceOnUse" xlink:href="#linearGradient3768-0"/><linearGradient id="linearGradient3768-0"><stop style="stop-color:#f06a00;stop-opacity:1" id="stop3770-1" offset="0"/><stop id="stop3776-3" offset=".5" style="stop-color:#ffa700;stop-opacity:1"/><stop style="stop-color:#fffbf2;stop-opacity:1" id="stop3772-6" offset="1"/></linearGradient><linearGradient id="linearGradient3985" x1="62.94" x2="30.114" y1="32.194" y2="14.002" gradientTransform="matrix(0.94396567,0.0483695,0.04164982,0.88893495,1.8256767,-0.59713569)" gradientUnits="userSpaceOnUse" xlink:href="#linearGradient4006"/><linearGradient id="linearGradient4045" x1="10.897" x2="-11.052" y1="107.743" y2="97.579" gradientUnits="userSpaceOnUse" xlink:href="#linearGradient4039"/><filter id="filter4059" color-interpolation-filters="sRGB"><feGaussianBlur id="feGaussianBlur4061" stdDeviation=".342"/></filter><linearGradient id="linearGradient4077" x1="-12.798" x2="-9.028" y1="121.352" y2="114.594" gradientUnits="userSpaceOnUse" xlink:href="#linearGradient4071"/><filter id="filter4209" width="2.277" height="1.21" x="-.639" y="-.105" color-interpolation-filters="sRGB"><feGaussianBlur id="feGaussianBlur4211" stdDeviation=".525"/></filter><linearGradient id="linearGradient4223" x1="45.662" x2="47.763" y1="6.519" y2="7.875" gradientUnits="userSpaceOnUse" xlink:href="#linearGradient4217"/><filter id="filter4265" width="1.202" height="1.183" x="-.101" y="-.092" color-interpolation-filters="sRGB"><feGaussianBlur id="feGaussianBlur4267" stdDeviation=".235"/></filter><filter id="filter4293" width="1.261" height="1.099" x="-.131" y="-.05" color-interpolation-filters="sRGB"><feGaussianBlur id="feGaussianBlur4295" stdDeviation=".576"/></filter><linearGradient id="linearGradient4329" x1="10.897" x2="-11.052" y1="107.743" y2="97.579" gradientTransform="matrix(1.0246281,0,0,1.0353085,40.519616,-0.22424324)" gradientUnits="userSpaceOnUse" xlink:href="#linearGradient4039"/><linearGradient id="linearGradient4331" x1="43.132" x2="14.742" y1="59.241" y2="43.909" gradientTransform="matrix(1.0246281,0,0,1.0353085,40.519616,-0.22424324)" gradientUnits="userSpaceOnUse" xlink:href="#linearGradient3768"/><linearGradient id="linearGradient4333" x1="62.94" x2="30.114" y1="32.194" y2="14.002" gradientTransform="matrix(0.96721377,0.05007735,0.04267558,0.92032192,42.390256,-0.8424629)" gradientUnits="userSpaceOnUse" xlink:href="#linearGradient4006"/><linearGradient id="linearGradient4335" x1="73.72" x2="73.897" y1="72.384" y2="15.011" gradientUnits="userSpaceOnUse" xlink:href="#linearGradient3819"/><linearGradient id="linearGradient4337" x1="45.662" x2="47.763" y1="6.519" y2="7.875" gradientTransform="translate(42.069153,-0.17825912)" gradientUnits="userSpaceOnUse" xlink:href="#linearGradient4217"/><linearGradient id="linearGradient4339" x1="-12.798" x2="-9.028" y1="121.352" y2="114.594" gradientTransform="matrix(1.0246281,0,0,1.0353085,40.519616,-0.22424324)" gradientUnits="userSpaceOnUse" xlink:href="#linearGradient4071"/><linearGradient id="linearGradient4341" x1="-12.798" x2="-9.028" y1="121.352" y2="114.594" gradientTransform="matrix(1.0246281,0,0,1.0353085,40.519616,-0.22424324)" gradientUnits="userSpaceOnUse" xlink:href="#linearGradient4071"/><radialGradient id="radialGradient5866" cx="55.218" cy="458.465" r="15.213" fx="55.218" fy="458.465" gradientTransform="matrix(1.876872,0,0,1.9211475,-73.400954,-783.11574)" gradientUnits="userSpaceOnUse" xlink:href="#linearGradient4799"/><linearGradient id="linearGradient4799"><stop style="stop-color:#ffde00;stop-opacity:1" id="stop4801" offset="0"/><stop style="stop-color:#ffa700;stop-opacity:1" id="stop4803" offset="1"/></linearGradient></defs><metadata id="metadata7"/><g id="layer2" style="display:inline"><g id="g16810" transform="matrix(0.96737856,0,0,0.96737856,2.1006348,2.0806704)"><path id="rect4020" d="m 61.55478,99.620729 c 0,0 -13.381069,19.907321 -16.916128,21.034561 -14.217558,1.55684 -16.042689,2.44593 -19.339986,-11.55596 -0.01371,-4.55558 9.273616,-24.122002 9.273616,-24.122002 5.346699,-5.292612 29.278706,10.399614 26.982498,14.643401 z" style="fill:url(#linearGradient4329);fill-opacity:1;stroke:#740000;stroke-width:2.05990887;stroke-miterlimit:4;stroke-dasharray:none;stroke-opacity:1"/><rect id="rect3839" width="19.847" height="18.365" x="76.526" y="-44.031" ry="5.719" transform="matrix(0.85917245,0.51168614,-0.50387058,0.86377916,0,0)" style="fill:#fd7347;fill-opacity:1;stroke:#740000;stroke-width:1.54496348;stroke-linecap:round;stroke-miterlimit:4;stroke-dasharray:none;stroke-opacity:1"/><path id="path3859" d="m 102.13638,13.44454 c 0.0929,-1.633746 -0.82519,-3.227243 -2.175251,-4.3749744 L 92.270983,4.6284869 C 91.855361,4.42953 90.960906,4.141788 90.960906,4.141788 c 0,0 -0.202747,0.2745373 -0.343409,0.563876 4.199596,2.5399872 9.427013,5.1089 11.518883,8.738876 z" style="fill:#ffddd2;fill-opacity:.53881273;stroke:#000;stroke-width:0;stroke-linecap:butt;stroke-linejoin:miter;stroke-miterlimit:4;stroke-dasharray:none;stroke-opacity:1"/><path id="rect2997" d="m 85.187995,10.047208 13.611422,7.862272 c 4.489163,2.593043 6.006923,8.314933 3.470883,12.868228 L 64.506902,98.579726 C 61.970911,103.13305 59.57107,98.974725 55.693414,95.518214 51.13193,91.452143 47.802933,90.007253 42.081993,87.655942 37.292162,85.687318 32.153086,85.909581 34.689117,81.356284 L 72.45252,13.554268 c 2.536034,-4.5532954 8.246315,-6.1001022 12.735475,-3.50706 z" style="fill:url(#linearGradient4331);fill-opacity:1;stroke:#740000;stroke-width:2.05990887;stroke-miterlimit:4;stroke-opacity:1"/><path id="path3778" d="m 36.426257,84.157503 c 7.74445,2.004055 16.232897,5.420808 25.232309,14.34351" style="fill:none;stroke:#eec600;stroke-width:3.08986354;stroke-linecap:round;stroke-linejoin:miter;stroke-miterlimit:4;stroke-dasharray:none;stroke-opacity:1"/><path id="path4343" d="M 71.32859,17.834074 C 73.100409,17.02795 99.388044,31.287246 99.341798,33.241473" style="fill:none;stroke:#8489a6;stroke-width:1px;stroke-linecap:round;stroke-linejoin:miter;stroke-opacity:1"/><path id="rect2997-8" d="m 84.626029,10.828012 13.1728,7.654289 c 3.145631,1.82783 6.502551,6.445207 3.863631,11.217784 l -2.038248,3.686234 C 99.344883,31.088071 73.182696,16.826871 70.997975,17.515756 l 2.58734,-3.887143 c 2.493991,-3.7468975 6.696211,-5.3250519 11.040714,-2.800601 z" style="fill:url(#linearGradient4333);fill-opacity:1;stroke:none"/><ellipse id="path3780" cx="73.992" cy="44.188" rx="7.965" ry="29.367" transform="matrix(0.88775881,0.51694512,-0.51161224,0.89701252,32.514528,-33.611428)" style="fill:url(#linearGradient4335);fill-opacity:1;stroke:#323262;stroke-width:1.1651001;stroke-linecap:round;stroke-miterlimit:4;stroke-dasharray:none;stroke-opacity:1"/><path id="path3829" d="m 88.99281,18.527704 c 2.815821,3.456414 0.629146,13.298668 -6.066491,27.2507 C 91.013299,31.42609 93.940053,21.098102 90.081477,18.851237 89.75873,18.663303 89.39306,18.552946 88.99281,18.527704 Z" style="fill:#fff;fill-opacity:1;stroke:#323262;stroke-width:0;stroke-linecap:round;stroke-miterlimit:4;stroke-dasharray:none;stroke-opacity:1"/><path id="path3780-3" d="m 69.515059,40.484906 c -8.077002,14.34292 -12.064982,27.132579 -8.208615,29.378153 0.31363,0.182628 0.359545,-0.0091 0.746486,0.01977 -2.767651,-3.505482 0.798224,-15.502882 7.462129,-29.397927 z" style="fill:#fff;fill-opacity:1;stroke:#323262;stroke-width:0;stroke-linecap:round;stroke-miterlimit:4;stroke-dasharray:none;stroke-opacity:1"/><path id="path3857" d="M 91.269872,4.0152495 C 89.954225,3.5593462 88.235758,4.4779631 85.766516,8.405722 l 2.552273,1.672439 z" transform="matrix(1.0246281,0,0,1.0353085,-2.5856208,-0.03969006)" style="fill:url(#linearGradient4337);fill-opacity:1;stroke:#000;stroke-width:0;stroke-linecap:butt;stroke-linejoin:miter;stroke-miterlimit:4;stroke-dasharray:none;stroke-opacity:1;filter:url(#filter4265)"/><path id="path3891" d="m 91.342894,5.004722 -1.129071,2.3087209 c 4.628669,1.3173666 6.377738,2.679672 11.290697,7.8242961 0.21376,-0.481885 0.67747,-1.796448 0.70212,-2.152257 C 100.509,9.5774964 92.976773,5.9259487 91.342894,5.004722 Z" transform="matrix(1.0246281,0,0,1.0353085,-2.5856208,-0.03969006)" style="fill:#d7120a;fill-opacity:1;stroke:#000;stroke-width:0;stroke-linecap:butt;stroke-linejoin:miter;stroke-miterlimit:4;stroke-dasharray:none;stroke-opacity:1;filter:url(#filter3937)"/><path id="path4049" d="M 40.074867,84.723001 C 34.831163,94.669636 28.317353,105.55668 28.995499,113.52936 l 2.769842,2.99142 c 0.487896,-4.8461 5.493327,-17.574056 12.96286,-29.6927 z" transform="matrix(1.0246281,0,0,1.0353085,-2.5856208,-0.03969006)" style="opacity:.75486378;fill:#ffeee1;fill-opacity:1;stroke:none;filter:url(#filter4059)"/><path id="path4063" d="M 39.964073,85.387762 C 34.726162,95.109418 28.756774,105.16669 29.438674,113.19697" transform="matrix(1.0246281,0,0,1.0353085,-2.5856208,-0.03969006)" style="fill:none;stroke:#fff;stroke-width:1.5;stroke-linecap:round;stroke-linejoin:miter;stroke-miterlimit:4;stroke-dasharray:none;stroke-opacity:1;filter:url(#filter4293)"/><path id="path4215" d="m 24.822151,109.7259 c 2.95315,18.86142 3.512355,16.18009 19.672511,11.21937" style="fill:url(#linearGradient4339);fill-opacity:1;stroke:#1b2eb2;stroke-width:1.02995443px;stroke-linecap:round;stroke-linejoin:round;stroke-opacity:1"/><path id="path4069" d="M 44.494662,121.01668 C 45.289319,118.95197 28.795432,109.6112 24.822151,109.7259" style="fill:url(#linearGradient4341);fill-opacity:1;stroke:#740000;stroke-width:1.02995443px;stroke-linecap:round;stroke-linejoin:round;stroke-opacity:1"/><path id="path4079" d="m 30.022911,107.95738 c -0.524422,0.0469 -1.163278,-0.57592 -1.111882,-0.0519 0.276522,3.82947 0.176857,6.18501 2.343025,10.9306 0.261576,-5.07057 -0.628776,-6.11393 -0.372401,-10.26432 -0.03112,-0.53521 -0.325065,-0.66547 -0.858742,-0.61436 z" transform="matrix(1.0246281,0,0,1.0353085,-2.5856208,-0.03969006)" style="color:#000;font-style:normal;font-variant:normal;font-weight:400;font-stretch:normal;font-size:medium;line-height:normal;font-family:Sans;-inkscape-font-specification:Sans;text-indent:0;text-align:start;text-decoration:none;text-decoration-line:none;letter-spacing:normal;word-spacing:normal;text-transform:none;direction:ltr;block-progression:tb;writing-mode:lr-tb;baseline-shift:baseline;text-anchor:start;display:inline;overflow:visible;visibility:visible;fill:#fff;fill-opacity:1;stroke:none;stroke-width:2;marker:none;filter:url(#filter4209);enable-background:accumulate"/></g><path id="path4797" d="m 27.478309,89.203369 -0.0955,-17.083633 c 0.10949,-3.751231 6.8896,-3.535973 7.34883,-0.09554 l 0,16.892696 11.35726,-11.452612 c 2.78693,-2.614501 6.84092,1.974466 4.3902,4.581147 l -10.59375,11.92986 14.88852,0.09556 c 4.34307,0.563934 3.79566,7.738733 0.1908,8.017053 l -14.41132,-0.0956 10.88006,10.4983 c 2.56874,2.87597 -0.85816,7.85809 -4.67651,5.34471 l -12.21622,-11.7391 -0.0955,16.8927 c 0.4319,3.5874 -6.92004,4.26513 -7.63514,0.0956 l 0.0955,-16.03376 -10.78464,10.78461 c -3.79658,0.93451 -6.9132191,-1.7646 -5.44002,-5.05822 l 11.4527,-10.97555 -16.5109781,0.1911 c -4.067151,-0.78978 -3.968468,-7.487339 0.09551,-8.016876 L 22.610809,93.880254 10.776349,82.236705 c -2.3025071,-3.664536 1.64822,-7.374242 4.77196,-5.153772 z" style="overflow:visible;fill:url(#radialGradient5866);fill-opacity:1;stroke:#ff4100;stroke-width:2.81530762;stroke-linecap:round;stroke-linejoin:round;stroke-miterlimit:4;stroke-dasharray:none;stroke-opacity:1"/></g></svg>