<svg xmlns="http://www.w3.org/2000/svg" xmlns:svg="http://www.w3.org/2000/svg" xmlns:xlink="http://www.w3.org/1999/xlink" id="svg2" width="128" height="128" version="1.1" viewBox="0 0 128 128"><metadata id="metadata20"/><defs id="defs18"><linearGradient id="XMLID_8_" x1="74.5" x2="74.5" y1="5.048" y2="124.24" gradientUnits="userSpaceOnUse"><stop id="stop4539" offset="0" style="stop-color:#fff"/><stop id="stop4541" offset="1" style="stop-color:#e1e1df"/></linearGradient><linearGradient id="XMLID_9_" x1="74.5" x2="74.5" y1="11.081" y2="121.467" gradientUnits="userSpaceOnUse"><stop id="stop4546" offset="0" style="stop-color:#fdfdfd"/><stop id="stop4548" offset=".298" style="stop-color:#f3f2f2"/><stop id="stop4550" offset=".817" style="stop-color:#d7d6d6"/><stop id="stop4552" offset="1" style="stop-color:#cccbca"/></linearGradient><radialGradient id="XMLID_10_" cx="110" cy="32.869" r="15.596" gradientUnits="userSpaceOnUse"><stop id="stop4557" offset=".213" style="stop-color:#8e8e8f"/><stop id="stop4559" offset=".927" style="stop-color:#eee"/></radialGradient><linearGradient id="XMLID_11_" x1="92.023" x2="104.273" y1="9.947" y2="32.947" gradientUnits="userSpaceOnUse"><stop id="stop4566" offset="0" style="stop-color:#fffefe"/><stop id="stop4568" offset="1" style="stop-color:#cfd0d0"/></linearGradient><linearGradient id="XMLID_12_" x1="99.53" x2="105.905" y1="5.181" y2="31.931" gradientUnits="userSpaceOnUse"><stop id="stop4573" offset="0" style="stop-color:#fcfdfd"/><stop id="stop4575" offset="1" style="stop-color:#eee"/></linearGradient><style id="style4989"/><radialGradient id="radialGradient5866" cx="55.218" cy="458.465" r="15.213" fx="55.218" fy="458.465" gradientTransform="matrix(1.876872,0,0,1.9211475,-73.952882,-782.53778)" gradientUnits="userSpaceOnUse" xlink:href="#linearGradient4799"/><linearGradient id="linearGradient4799"><stop id="stop4801" offset="0" style="stop-color:#ffde00;stop-opacity:1"/><stop id="stop4803" offset="1" style="stop-color:#ffa700;stop-opacity:1"/></linearGradient></defs><g id="g5149" transform="matrix(1.0333334,0,0,1.0333334,-11.977454,-4.6306154)"><path id="path4532" d="M 30.666,7 C 28.816,7 27,8.83 27,10.694 c 0,106.39 0,106.39 0,109.807 0,3.917 4,4.499 4,4.499 l 87,0 c 0,0 4,-0.268 4,-4.018 0,-3.75 0,-78.479 0,-78.479 C 122,37.306 94.325,7 87.135,7 L 30.666,7 Z" style="opacity:.2"/><path id="path4534" d="M 30.666,8 C 28.816,8 27,9.83 27,11.694 c 0,106.39 0,106.39 0,109.807 0,3.917 5,4.499 5,4.499 l 85,0 c 0,0 5,-0.268 5,-4.018 0,-3.75 0,-78.479 0,-78.479 C 122,38.306 94.325,8 87.135,8 L 30.666,8 Z" style="opacity:.2"/><path id="path4536" d="M 30.666,6 C 28.816,6 27,7.83 27,9.694 c 0,106.39 0,106.39 0,109.807 0,3.917 3,4.499 3,4.499 l 89,0 c 0,0 3,-0.268 3,-4.018 0,-3.75 0,-78.479 0,-78.479 C 122,36.306 94.325,6 87.135,6 L 30.666,6 Z" style="opacity:.6;fill:#262626"/><path id="path4543" d="m 121,120.113 c 0,2.584 -2.398,2.887 -2.398,2.887 l -88.104,0 C 30.498,123 28,122.525 28,119.917 28,100.1 28,10.861 28,9.694 28,8.374 29.359,7 30.666,7 31.66,7 79.135,7 87.135,7 94.167,7 121,37.326 121,41.504 c 0,4.619 0,63.145 0,78.609 z" style="fill:url(#XMLID_8_)"/><path id="path4554" d="m 120,119.282 c 0,2.481 -2,2.718 -2,2.718 l -87,0 c 0,0 -2,-0.163 -2,-2.249 C 29,101.736 29,10.877 29,9.694 29,8.374 30.317,7 31.583,7 32.547,7 79.442,7 87.193,7 94.006,7 120,37.326 120,41.504 c 0,4.63 0,62.674 0,77.778 z" style="fill:url(#XMLID_9_)"/><path id="path4561" d="m 120,39 c 0,7.18 -2.82,13 -10,13 -7.18,0 -16,-5.82 -16,-13 0,-7.18 2.82,-9 10,-9 7.18,0 11,4 16,9 z" style="fill:url(#XMLID_10_)"/><path id="path4563" d="m 84.415,6.963 c 0.547,0 0.947,0.002 3.616,1.193 4.182,1.891 4.103,22.225 4.103,26.673 l -0.001,0.128 c 0,0.521 0.399,0.959 0.918,1.002 5.973,0.496 23.318,-0.848 26.406,4.026 1.199,1.608 1.365,2.858 1.918,2.858 0.553,0 0.625,-0.786 0.625,-1.339 0,-0.797 -0.257,-1.574 -0.766,-2.428 -0.004,-0.009 -0.002,-0.018 -0.006,-0.026 -0.014,-0.028 -0.038,-0.065 -0.053,-0.094 l 0,-0.001 C 118.87,34.256 95.385,8.574 88.821,6.365 88.815,6.363 88.814,6.357 88.809,6.355 88.802,6.352 88.794,6.353 88.788,6.351 88.767,6.343 88.739,6.328 88.718,6.32 88.624,6.291 88.531,6.279 88.439,6.277 88.01,6.133 87.578,6 87.135,6 86.627,6 84.473,6.457 84.415,6.963 Z" style="opacity:.5;fill:#343434"/><path id="path4570" d="M 121,41.504 C 117.625,32.875 93.133,34.962 93.133,34.962 93.003,37.629 94.632,7 87.135,7 94.168,7 121,38.814 121,41.504 Z" style="fill:url(#XMLID_11_)"/><path id="path4577" d="M 121,41.504 C 119.5,33.563 94.25,33.438 94.25,33.438 94.225,36.104 94.524,7 87.135,7 94.168,7 121,38.814 121,41.504 Z" style="fill:url(#XMLID_12_)"/></g><path style="overflow:visible;fill:url(#radialGradient5866);fill-opacity:1;stroke:#ff4100;stroke-width:2.81530762;stroke-linecap:round;stroke-linejoin:round;stroke-miterlimit:4;stroke-dasharray:none;stroke-opacity:1" id="path4797" d="m 26.926383,89.781336 -0.0955,-17.083633 c 0.10949,-3.751231 6.8896,-3.535973 7.34883,-0.09554 l 0,16.892696 11.35726,-11.452612 c 2.78693,-2.614501 6.84092,1.974466 4.3902,4.581147 l -10.59375,11.92986 14.88852,0.09556 c 4.34307,0.563934 3.79566,7.738736 0.1908,8.017056 l -14.41132,-0.0956 10.88006,10.4983 c 2.56874,2.87597 -0.85816,7.85809 -4.67651,5.34471 l -12.21622,-11.7391 -0.0955,16.8927 c 0.4319,3.5874 -6.92004,4.26513 -7.63514,0.0956 l 0.0955,-16.03376 -10.78464,10.78461 c -3.79658,0.93451 -6.9132198,-1.7646 -5.44002,-5.05822 l 11.4527,-10.97555 -16.5109788,0.1911 c -4.06715,-0.78978 -3.968467,-7.487342 0.09551,-8.016879 L 22.058883,94.458221 10.224423,82.814672 c -2.3025078,-3.664536 1.64822,-7.374242 4.77196,-5.153772 z"/></svg>