<svg xmlns="http://www.w3.org/2000/svg" xmlns:svg="http://www.w3.org/2000/svg" xmlns:xlink="http://www.w3.org/1999/xlink" id="svg2" width="128" height="128" version="1.1" viewBox="0 0 128 128"><defs id="defs4"><linearGradient id="linearGradient4590"><stop id="stop4592" offset="0" style="stop-color:#c61111;stop-opacity:1"/><stop id="stop4594" offset="1" style="stop-color:#ff4948;stop-opacity:1"/></linearGradient><linearGradient id="linearGradient4578"><stop style="stop-color:#c61111;stop-opacity:1" id="stop4580" offset="0"/><stop style="stop-color:#f92929;stop-opacity:1" id="stop4582" offset="1"/></linearGradient><linearGradient id="linearGradient4560"><stop style="stop-color:#cf0000;stop-opacity:1" id="stop4562" offset="0"/><stop style="stop-color:#fa6262;stop-opacity:1" id="stop4564" offset="1"/></linearGradient><linearGradient id="linearGradient4552"><stop style="stop-color:#6d0000;stop-opacity:.95686275" id="stop4554" offset="0"/><stop style="stop-color:#ab1815;stop-opacity:1" id="stop4556" offset="1"/></linearGradient><linearGradient id="linearGradient4403"><stop style="stop-color:#fbb037;stop-opacity:1" id="stop4405" offset="0"/><stop style="stop-color:#f25400;stop-opacity:1" id="stop4407" offset="1"/></linearGradient><linearGradient id="linearGradient4387"><stop style="stop-color:#ee5200;stop-opacity:.7764706" id="stop4389" offset="0"/><stop style="stop-color:#cf1105;stop-opacity:.99215686" id="stop4391" offset="1"/></linearGradient><linearGradient id="linearGradient4379"><stop style="stop-color:#fef219;stop-opacity:1" id="stop4381" offset="0"/><stop style="stop-color:#fefdad;stop-opacity:1" id="stop4383" offset="1"/></linearGradient><linearGradient id="linearGradient4371"><stop style="stop-color:#ffdc10;stop-opacity:1" id="stop4373" offset="0"/><stop style="stop-color:#ffffea;stop-opacity:1" id="stop4375" offset="1"/></linearGradient><linearGradient id="linearGradient4377" x1="366.686" x2="299.528" y1="855.866" y2="773.577" gradientTransform="translate(-5.7032392,6.2464048)" gradientUnits="userSpaceOnUse" xlink:href="#linearGradient4371"/><linearGradient id="linearGradient4385" x1="370.008" x2="277.739" y1="855.595" y2="757.282" gradientTransform="translate(-5.7032392,6.2464048)" gradientUnits="userSpaceOnUse" xlink:href="#linearGradient4379"/><linearGradient id="linearGradient4393" x1="150.217" x2="259.348" y1="771.948" y2="866.458" gradientTransform="translate(118.13853,-6.7895702)" gradientUnits="userSpaceOnUse" xlink:href="#linearGradient4387"/><linearGradient id="linearGradient4409" x1="183.029" x2="214.873" y1="842.146" y2="850.788" gradientTransform="translate(174.75463,7.297446)" gradientUnits="userSpaceOnUse" xlink:href="#linearGradient4403"/><filter style="color-interpolation-filters:sRGB" id="filter4491" width="1.13" height="1.162" x="-.065" y="-.081"><feGaussianBlur id="feGaussianBlur4493" stdDeviation=".868"/></filter><filter style="color-interpolation-filters:sRGB" id="filter4544" width="1.045" height="1.052" x="-.022" y="-.026"><feGaussianBlur id="feGaussianBlur4546" stdDeviation="1.259"/></filter><linearGradient id="linearGradient4558" x1="50.465" x2="67.809" y1="765.503" y2="792.39" gradientUnits="userSpaceOnUse" xlink:href="#linearGradient4552"/><linearGradient id="linearGradient4566" x1="62.106" x2="47.885" y1="787.501" y2="767.268" gradientUnits="userSpaceOnUse" xlink:href="#linearGradient4560"/><linearGradient id="linearGradient4570" x1="50.465" x2="67.809" y1="765.503" y2="792.39" gradientTransform="matrix(0.6616683,0,0,0.6616683,13.808087,259.51647)" gradientUnits="userSpaceOnUse" xlink:href="#linearGradient4552"/><linearGradient id="linearGradient4584" x1="41.314" x2="57.668" y1="764.929" y2="777.028" gradientTransform="matrix(1.0084823,0,0,0.99562064,-0.52743217,3.2523784)" gradientUnits="userSpaceOnUse" xlink:href="#linearGradient4590"/><linearGradient id="linearGradient4588" x1="41.314" x2="57.668" y1="764.929" y2="777.028" gradientTransform="matrix(0.9340435,0,0,0.94433992,2.7617583,42.204021)" gradientUnits="userSpaceOnUse" xlink:href="#linearGradient4578"/><filter style="color-interpolation-filters:sRGB" id="filter4620" width="1.096" height="1.097" x="-.048" y="-.048"><feGaussianBlur id="feGaussianBlur4622" stdDeviation=".823"/></filter></defs><metadata id="metadata7"/><g id="layer1" transform="translate(0,-924.3622)"><g id="g4692"><rect id="rect4652" width="128" height="128" x="0" y="924.362" style="opacity:0;fill:#fff;fill-opacity:.95686275;stroke:none;stroke-width:.40000001;stroke-linecap:round;stroke-linejoin:round;stroke-miterlimit:4;stroke-dasharray:none;stroke-dashoffset:0;stroke-opacity:1"/><g id="g4634" transform="matrix(0.87072942,0,0,0.9615108,-221.96364,203.09147)"><path id="path4497" d="m 275.63578,760.15029 c -3.28262,-0.0118 -6.33152,2.79051 -6.59571,6.0625 l -7.875,97.74806 c -0.28021,3.4752 2.66724,6.8822 6.14649,7.1074 l 85.80664,5.5352 c 1.46545,0.094 2.95928,-0.3184 4.16797,-1.1524 L 385.335,856.09951 c 1.54159,-1.06322 2.59013,-2.81153 2.80468,-4.67188 l 8.28125,-72.02344 c 0.39743,-3.45265 -2.40849,-6.95036 -5.86523,-7.31054 L 276.29398,760.18544 c -0.21862,-0.0227 -0.4384,-0.0344 -0.6582,-0.0351 z" transform="matrix(0.9944442,0,0,1.0001407,1.4426868,-0.1151371)" style="opacity:.88999999;fill:#666;fill-opacity:1;fill-rule:evenodd;stroke:none;stroke-width:1px;stroke-linecap:butt;stroke-linejoin:miter;stroke-opacity:1;filter:url(#filter4544)"/><g id="g4396"><path id="path4369" d="m 274.09947,758.79637 c -3.28262,-0.0118 -6.33152,2.79051 -6.59571,6.0625 l -7.875,97.74804 c -0.28021,3.47526 2.66724,6.88223 6.14649,7.10743 l 85.80664,5.53515 c 1.46545,0.0944 2.95928,-0.31838 4.16797,-1.15234 l 28.04883,-19.35156 c 1.54159,-1.06322 2.59013,-2.81153 2.80468,-4.67188 l 8.28125,-72.02344 c 0.39743,-3.45265 -2.40849,-6.95036 -5.86523,-7.31054 L 274.75767,758.83152 c -0.21862,-0.0227 -0.4384,-0.0344 -0.6582,-0.0351 z" style="fill:url(#linearGradient4393);fill-opacity:1;fill-rule:evenodd;stroke:none;stroke-width:1px;stroke-linecap:butt;stroke-linejoin:miter;stroke-opacity:1"/><path id="path4364" d="m 274.0897,761.3784 a 4.0102725,4.0102725 0 0 0 -4.01172,3.6875 l -7.875,97.74805 a 4.0102725,4.0102725 0 0 0 3.73828,4.32421 l 85.80665,5.53516 a 4.0102725,4.0102725 0 0 0 2.53515,-0.70117 l 28.04883,-19.35156 a 4.0102725,4.0102725 0 0 0 1.70703,-2.8418 l 8.28125,-72.02344 a 4.0102725,4.0102725 0 0 0 -3.56836,-4.44726 L 274.49009,761.39988 a 4.0102725,4.0102725 0 0 0 -0.40039,-0.0215 z" style="fill:url(#linearGradient4385);fill-opacity:1;fill-rule:evenodd;stroke:none;stroke-width:1px;stroke-linecap:butt;stroke-linejoin:miter;stroke-opacity:1"/><path id="path4358" d="m 388.33607,777.29547 -8.28093,72.02392 -28.04921,19.35125 -85.80606,-5.53416 7.87356,-97.74737 z" style="fill:url(#linearGradient4377);fill-opacity:1;fill-rule:evenodd;stroke:none;stroke-width:1px;stroke-linecap:butt;stroke-linejoin:miter;stroke-opacity:1"/></g><path id="path4411" d="m 351.03574,872.90846 4.56531,-25.70979 27.56811,4.08422 -0.69153,1.21045 -29.26283,20.16392 c -0.7369,0.36343 -1.48155,0.31344 -2.17906,0.2512 z" style="opacity:.81000001;fill:#999;fill-opacity:1;fill-rule:evenodd;stroke:none;stroke-width:1px;stroke-linecap:butt;stroke-linejoin:miter;stroke-opacity:1;filter:url(#filter4491)"/><path style="fill:url(#linearGradient4409);fill-opacity:1;fill-rule:evenodd;stroke:none;stroke-width:1px;stroke-linecap:butt;stroke-linejoin:miter;stroke-opacity:1" id="path4401" d="m 352.29181,872.70478 4.80295,-26.01532 26.88915,4.18606 -0.69153,1.21045 -29.26283,20.16392 c -1.00848,0.46527 -1.31181,0.41528 -1.73774,0.45489 z"/><g id="g4624" transform="translate(226.98898,-4.2248372)"><ellipse style="opacity:1;fill:#333;fill-opacity:1;stroke:none;stroke-width:.40000001;stroke-linecap:round;stroke-linejoin:round;stroke-miterlimit:4;stroke-dasharray:none;stroke-dashoffset:0;stroke-opacity:1;filter:url(#filter4620)" id="ellipse4600" cx="55.539" cy="780.44" rx="20.69" ry="20.476"/><ellipse style="opacity:1;fill:#6d0000;fill-opacity:.95686275;stroke:none;stroke-width:.40000001;stroke-linecap:round;stroke-linejoin:round;stroke-miterlimit:4;stroke-dasharray:none;stroke-dashoffset:0;stroke-opacity:1" id="ellipse4596" cx="48.923" cy="773.182" rx="14.19" ry="13.751"/><ellipse id="path4548" cx="54.86" cy="779.489" rx="20.69" ry="20.476" style="opacity:1;fill:url(#linearGradient4558);fill-opacity:1;stroke:none;stroke-width:.40000001;stroke-linecap:round;stroke-linejoin:round;stroke-miterlimit:4;stroke-dasharray:none;stroke-dashoffset:0;stroke-opacity:1"/><ellipse style="opacity:1;fill:url(#linearGradient4566);fill-opacity:1;stroke:none;stroke-width:.40000001;stroke-linecap:round;stroke-linejoin:round;stroke-miterlimit:4;stroke-dasharray:none;stroke-dashoffset:0;stroke-opacity:1" id="ellipse4550" cx="54.045" cy="778.946" rx="18.69" ry="18.496"/><ellipse style="opacity:1;fill:url(#linearGradient4570);fill-opacity:1;stroke:none;stroke-width:.40000001;stroke-linecap:round;stroke-linejoin:round;stroke-miterlimit:4;stroke-dasharray:none;stroke-dashoffset:0;stroke-opacity:1" id="ellipse4568" cx="50.107" cy="775.28" rx="13.69" ry="13.548"/><ellipse id="ellipse4572" cx="49.491" cy="774.051" rx="12.978" ry="12.844" style="opacity:1;fill:#fababa;fill-opacity:1;stroke:none;stroke-width:.40000001;stroke-linecap:round;stroke-linejoin:round;stroke-miterlimit:4;stroke-dasharray:none;stroke-dashoffset:0;stroke-opacity:1"/><ellipse style="opacity:1;fill:url(#linearGradient4584);fill-opacity:1;stroke:none;stroke-width:.40000001;stroke-linecap:round;stroke-linejoin:round;stroke-miterlimit:4;stroke-dasharray:none;stroke-dashoffset:0;stroke-opacity:1" id="ellipse4576" cx="49.093" cy="773.531" rx="13.088" ry="12.787"/><ellipse id="ellipse4586" cx="48.72" cy="772.809" rx="12.122" ry="12.129" style="opacity:1;fill:url(#linearGradient4588);fill-opacity:1;stroke:none;stroke-width:.40000001;stroke-linecap:round;stroke-linejoin:round;stroke-miterlimit:4;stroke-dasharray:none;stroke-dashoffset:0;stroke-opacity:1"/></g></g></g></g></svg>