<svg xmlns="http://www.w3.org/2000/svg" xmlns:svg="http://www.w3.org/2000/svg" id="svg2" width="128" height="128" version="1.1" viewBox="0 0 128 128"><metadata id="metadata32"/><defs id="defs30"><linearGradient id="XMLID_139_" x1="-978.259" x2="-958.248" y1="-97.729" y2="-109.229" gradientTransform="matrix(-0.32629236,2.746785,2.746785,0.32629236,161.36589,2790.6919)" gradientUnits="userSpaceOnUse"><stop style="stop-color:#900" id="stop1054" offset="0"/><stop style="stop-color:#7c0000" id="stop1055" offset="1"/></linearGradient><linearGradient id="XMLID_140_" x1="-1759.684" x2="-1756.235" y1="572.477" y2="575.927" gradientTransform="matrix(2.7638383,-0.10687354,0.10687354,2.7638383,4998.3745,-1676.3753)" gradientUnits="userSpaceOnUse"><stop style="stop-color:#f8f1dc" id="stop1061" offset="0"/><stop style="stop-color:#d6a84a" id="stop1062" offset="1"/></linearGradient><linearGradient id="XMLID_141_" x1="-77.475" x2="-65.559" y1="-9.648" y2="16.807" gradientTransform="matrix(-2.7567306,0.22697349,0.22697349,2.7567306,8.1354242,77.197855)" gradientUnits="userSpaceOnUse"><stop style="stop-color:#ffa700" id="stop1068" offset="0"/><stop style="stop-color:gold" id="stop1069" offset=".775"/><stop style="stop-color:#ff794b" id="stop1070" offset="1"/></linearGradient><linearGradient id="XMLID_142_" x1="-1753.172" x2="-1751.339" y1="564.308" y2="562.123" gradientTransform="matrix(2.7638383,-0.10687354,0.10687354,2.7638383,4998.3745,-1676.3753)" gradientUnits="userSpaceOnUse"><stop style="stop-color:#ffc957" id="stop1081" offset="0"/><stop style="stop-color:#ff6d00" id="stop1082" offset="1"/></linearGradient><linearGradient id="XMLID_143_" x1="-1763.878" x2="-1756.183" y1="557.699" y2="574.784" gradientTransform="matrix(2.7638383,-0.10687354,0.10687354,2.7638383,4998.3745,-1676.3753)" gradientUnits="userSpaceOnUse"><stop style="stop-color:#ffa700" id="stop1088" offset="0"/><stop style="stop-color:gold" id="stop1089" offset=".775"/><stop style="stop-color:#ff9200" id="stop1090" offset="1"/></linearGradient><linearGradient id="XMLID_144_" x1="-77.033" x2="-64.39" y1="9.494" y2="9.494" gradientTransform="matrix(-2.7567306,0.22697349,0.22697349,2.7567306,8.1354242,77.197855)" gradientUnits="userSpaceOnUse"><stop style="stop-color:#7d7d99" id="stop1098" offset="0"/><stop style="stop-color:#b1b1c5" id="stop1099" offset=".18"/><stop style="stop-color:#bcbcc8" id="stop1100" offset=".373"/><stop style="stop-color:#c8c8cb" id="stop1101" offset=".682"/><stop style="stop-color:#ccc" id="stop1102" offset="1"/></linearGradient></defs><path style="fill:#bdc3c7" id="path6" d="m 20.456013,18.739639 c -6.634277,0 -12.0120909,5.405441 -12.0120909,12.012092 l 0,84.084639 c 0,6.60666 5.3778139,12.01209 12.0120909,12.01209 l 36.036277,0 12.012092,0 36.036278,0 c 6.63668,0 12.01209,-5.40543 12.01209,-12.01209 l 0,-84.084639 c 0,-6.606651 -5.37541,-12.012092 -12.01209,-12.012092 l -36.036278,0 -12.012092,0 -36.036277,0 z"/><path style="fill:#ecf0f1" id="path8" d="m 20.456013,12.733592 c -6.634277,0 -12.0120909,5.377814 -12.0120909,12.012092 l 0,84.084646 c 0,6.63667 5.3778139,12.01208 12.0120909,12.01208 l 36.036277,0 12.012092,0 36.036278,0 c 6.63668,0 12.01209,-5.37541 12.01209,-12.01208 l 0,-84.084646 c 0,-6.634278 -5.37541,-12.012092 -12.01209,-12.012092 l -36.036278,0 -12.012092,0 -36.036277,0 z"/><path style="fill:teal" id="path10" d="m 20.456013,12.733592 c -6.634277,0 -12.0120909,5.377814 -12.0120909,12.012092 l 0,18.018138 0,6.006047 108.1088279,0 0,-6.006047 0,-18.018138 c 0,-6.634278 -5.37541,-12.012092 -12.01209,-12.012092 l -36.036278,0 -12.012092,0 -36.036277,0 z"/><path style="fill:#002b22" id="path12" d="m 35.47113,27.748708 a 9.0090694,9.0090694 0 0 1 -18.018139,0 9.0090694,9.0090694 0 1 1 18.018139,0 z"/><path style="fill:#bdc3c7" id="path14" d="m 26.462059,0.72150062 c -3.317138,0 -6.006046,2.68890678 -6.006046,6.00604598 l 0,18.0181374 c 0,3.31714 2.688908,6.006047 6.006046,6.006047 3.31714,0 6.006046,-2.688907 6.006046,-6.006047 l 0,-18.0181374 c 0,-3.3171392 -2.688906,-6.00604598 -6.006046,-6.00604598 z"/><path style="fill:#002b22" id="path16" d="m 107.54367,27.748708 a 9.0090689,9.0090689 0 0 1 -18.018127,0 9.0090689,9.0090689 0 1 1 18.018127,0 z"/><path style="fill:#bdc3c7" id="path20" d="m 98.534611,0.72150062 c -3.315337,0 -6.006045,2.40241838 -6.006045,6.00604598 l 0,18.0181374 c 0,3.003024 2.690708,6.006047 6.006045,6.006047 3.315329,0 6.006049,-3.003023 6.006049,-6.006047 l 0,-18.0181374 c 0,-3.6036276 -2.69072,-6.00604598 -6.006049,-6.00604598 z"/><g id="g22806"><path id="rect7608" d="m 18.026977,55.556891 89.709263,0 0,15.474324 -89.709263,0 z" style="opacity:1;fill:#fff;fill-opacity:1;stroke:#bdc3c7;stroke-width:2.05627275;stroke-linecap:round;stroke-linejoin:round;stroke-miterlimit:4;stroke-dasharray:none;stroke-dashoffset:0;stroke-opacity:1"/><path id="rect7610" d="m 18.026977,76.119623 89.709263,0 0,15.474329 -89.709263,0 z" style="opacity:1;fill:#fff;fill-opacity:1;stroke:#bdc3c7;stroke-width:2.05627275;stroke-linecap:round;stroke-linejoin:round;stroke-miterlimit:4;stroke-dasharray:none;stroke-dashoffset:0;stroke-opacity:1"/><path id="rect7612" d="m 18.026977,96.682352 89.709263,0 0,15.474318 -89.709263,0 z" style="opacity:1;fill:#fff;fill-opacity:1;stroke:#bdc3c7;stroke-width:2.05627275;stroke-linecap:round;stroke-linejoin:round;stroke-miterlimit:4;stroke-dasharray:none;stroke-dashoffset:0;stroke-opacity:1"/></g><g id="g23938" transform="translate(-97.934289,-21.213203)"><path style="fill:#fff" id="path1052" d="m 171.55138,123.84929 c 3.9236,-16.84363 4.63225,-19.89451 5.10409,-20.5682 -0.0522,0.0383 -0.12788,0.095 -0.12788,0.095 l 32.40268,-42.661879 c 1.7348,-2.269867 6.38074,-0.361333 9.96447,2.370168 3.55165,2.700528 6.63976,6.665904 5.02458,8.99018 l -32.5787,42.710371 -0.23975,0.0671 -16.49691,9.40576 -3.40038,1.36143 0.3478,-1.7699 z"/><path style="fill:url(#XMLID_139_)" id="path1059" d="m 171.55138,123.84929 c 3.9236,-16.84363 4.63225,-19.89451 5.10409,-20.5682 -0.0522,0.0383 -0.12788,0.095 -0.12788,0.095 l 32.40268,-42.661879 c 1.7348,-2.269867 6.38074,-0.361333 9.96447,2.370168 3.55165,2.700528 6.63976,6.665904 5.02458,8.99018 l -32.5787,42.710371 -0.23975,0.0671 -16.49691,9.40576 -3.40038,1.36143 0.3478,-1.7699 z"/><path style="fill:url(#XMLID_140_)" id="path1066" d="m 178.83422,104.22991 -4.80553,17.83009 15.84709,-9.48983 -0.079,-0.0634 c 0.11108,-0.0439 0.21905,-0.0985 0.30832,-0.1678 l 0.0603,0.0487 31.07529,-40.773148 -0.0614,-0.04258 c 0.9247,-1.21505 -0.80837,-4.092013 -3.87045,-6.428307 -3.06397,-2.332863 -6.29114,-3.240736 -7.21927,-2.027566 L 179.0188,103.885 l -0.18458,0.34491 z"/><path style="fill:url(#XMLID_141_)" id="path1076" d="m 187.9897,113.69991 c -0.95419,-0.0903 -2.15983,-0.49907 -3.40868,-1.15456 -0.77436,-0.40212 -1.57519,-0.91466 -2.36552,-1.51958 -0.70978,-0.53624 -1.34377,-1.109 -1.89224,-1.67503 -1.0396,-1.07388 -1.7036,-2.24299 -1.99459,-3.22996 l 0.50898,-1.88899 0.18458,-0.34491 30.86557,-40.504466 c -0.19427,1.042177 0.65847,2.660454 2.20991,4.273598 0.56872,0.586053 1.21345,1.175851 1.94613,1.731331 0.76743,0.585677 1.55033,1.086157 2.30035,1.483858 2.1498,1.135924 4.06585,1.461228 4.88543,0.735015 l 0.0111,0.0083 -31.07529,40.773144 -0.0603,-0.0487 c -0.0885,0.0719 -0.19724,0.12385 -0.30832,0.1678 l 0.079,0.0634 -1.88608,1.12974 z"/><path style="fill:#fff" id="path1077" d="m 221.33998,71.303144 c -0.71998,0.870025 -2.69245,0.578479 -4.91772,-0.598808 -0.73817,-0.38675 -1.50392,-0.877829 -2.25686,-1.45333 -0.72161,-0.547185 -1.35372,-1.123377 -1.91138,-1.701135 -1.79336,-1.859488 -2.63465,-3.734678 -1.97588,-4.676163 l -0.0118,-0.01095 -31.285,41.041832 c -0.206,1.05136 0.50916,2.92879 2.09225,4.56151 0.54083,0.55962 1.16221,1.11878 1.86092,1.64671 0.77429,0.58944 1.56139,1.09446 2.31938,1.48983 2.26598,1.18845 4.37987,1.55974 5.08888,0.63241 0.1595,-0.21369 0.86585,-1.14025 0.88277,-1.17112 l 30.23277,-39.671413 -0.11829,-0.08937 z"/><path style="fill:#fff" id="path1078" d="m 217.30959,65.146277 c -3.06396,-2.332864 -6.29114,-3.240737 -7.21926,-2.027567 l -7.00014,9.186582 0.46759,12.075217 8.19184,-0.316593 9.49184,-12.446749 -0.0614,-0.04258 c 0.92657,-1.218481 -0.80915,-4.094669 -3.87046,-6.428307 z"/><path style="fill:#fff" id="path1079" d="m 221.33998,71.303144 c -0.71998,0.870025 -2.69245,0.578479 -4.91772,-0.598808 -0.73817,-0.38675 -1.50392,-0.877829 -2.25686,-1.45333 -0.72161,-0.547185 -1.35372,-1.123377 -1.91138,-1.701135 -1.79336,-1.859488 -2.63465,-3.734678 -1.97588,-4.676163 l -0.0118,-0.01095 -31.285,41.041832 c -0.206,1.05136 0.50916,2.92879 2.09225,4.56151 0.54083,0.55962 1.16221,1.11878 1.86092,1.64671 0.77429,0.58944 1.56139,1.09446 2.31938,1.48983 2.26598,1.18845 4.37987,1.55974 5.08888,0.63241 0.1595,-0.21369 0.86585,-1.14025 0.88277,-1.17112 l 30.23277,-39.671413 -0.11829,-0.08937 z"/><path style="fill:url(#XMLID_142_)" id="path1086" d="m 217.30959,65.146277 c -3.06396,-2.332864 -6.29114,-3.240737 -7.21926,-2.027567 l -7.00014,9.186582 0.46759,12.075217 8.19184,-0.316593 9.49184,-12.446749 -0.0614,-0.04258 c 0.92657,-1.218481 -0.80915,-4.094669 -3.87046,-6.428307 z"/><path style="fill:url(#XMLID_143_)" id="path1096" d="m 221.33998,71.303144 c -0.71998,0.870025 -2.69245,0.578479 -4.91772,-0.598808 -0.73817,-0.38675 -1.50392,-0.877829 -2.25686,-1.45333 -0.72161,-0.547185 -1.35372,-1.123377 -1.91138,-1.701135 -1.79336,-1.859488 -2.63465,-3.734678 -1.97588,-4.676163 l -0.0118,-0.01095 -31.285,41.041832 c -0.206,1.05136 0.50916,2.92879 2.09225,4.56151 0.54083,0.55962 1.16221,1.11878 1.86092,1.64671 0.77429,0.58944 1.56139,1.09446 2.31938,1.48983 2.26598,1.18845 4.37987,1.55974 5.08888,0.63241 0.1595,-0.21369 0.86585,-1.14025 0.88277,-1.17112 l 30.23277,-39.671413 -0.11829,-0.08937 z"/><path style="fill:url(#XMLID_144_)" id="path1108" d="m 218.7637,74.855977 c 0,0 -2.75086,0.13161 -4.97004,-1.044571 -0.73817,-0.386751 -1.50735,-0.87971 -2.25951,-1.452556 -0.71896,-0.547959 -1.35373,-1.123376 -1.91138,-1.701134 -1.46391,-1.520556 -2.2945,-3.05309 -2.18674,-4.075775 l 2.83105,-3.716529 0.0118,0.01095 c -0.65877,0.941486 0.18329,2.81933 1.97588,4.676164 0.55765,0.577757 1.18976,1.15395 1.91138,1.701134 0.75293,0.575501 1.51868,1.06658 2.25686,1.45333 2.22261,1.178062 4.19774,1.468833 4.91771,0.598808 l 0.15431,0.06805 -2.6624,3.481152 z"/><path style="fill:#033" id="path1109" d="m 177.56798,116.94956 c 0.79797,0.61134 1.60456,1.13372 2.3912,1.55819 l -5.92783,3.55147 1.78517,-6.61832 c 0.52422,0.5126 1.10886,1.02485 1.75146,1.50866 z"/><path style="opacity:.5;fill:#fff" id="path1110" d="M 180.93167,108.30582 212.4084,67.703629 c -0.0489,-0.04911 -0.10469,-0.101988 -0.15172,-0.154533 -0.71513,-0.742136 -1.27603,-1.488953 -1.65535,-2.176396 l -31.32022,40.39802 c 0.32303,0.81049 0.87334,1.69871 1.65056,2.5351 z"/><path style="opacity:.5;fill:#fff" id="path1111" d="m 212.25668,67.549096 c -0.31761,-0.327982 -0.60104,-0.657299 -0.85404,-0.981091 l -31.4232,40.528925 c 0.30393,0.45877 0.66262,0.92748 1.09411,1.36917 0.37339,0.38086 0.77909,0.76381 1.22196,1.13591 l 31.50615,-40.639588 c -0.57179,-0.458372 -1.08859,-0.935676 -1.54498,-1.413326 z"/></g></svg>