<svg xmlns="http://www.w3.org/2000/svg" xmlns:svg="http://www.w3.org/2000/svg" id="svg23438" width="128" height="128" version="1.1" viewBox="0 0 128 128"><metadata id="metadata23443"/><g id="layer1" transform="translate(0,-924.36216)"><g id="g16021" transform="matrix(5.8181818,0,0,5.8181818,-8774.1825,-1537.5538)"><rect style="opacity:1;fill:#666;fill-opacity:0;stroke:none;stroke-width:.75097322;stroke-linecap:round;stroke-linejoin:round;stroke-miterlimit:4;stroke-dasharray:none;stroke-dashoffset:0;stroke-opacity:1" id="rect15680" width="22" height="22" x="1508.063" y="423.142" ry="0"/><path style="fill:#b3b3b3;fill-opacity:1" id="path15684" d="m 1528.6488,428.95499 -9.5858,7.46887 9.5858,7.46861 c 0.4449,0 0.8102,-0.37079 0.8102,-0.82332 l 0,-13.29067 c 0,-0.45287 -0.3653,-0.82349 -0.8102,-0.82349 z"/><path style="fill:#b3b3b3;fill-opacity:1" id="path15686" d="m 1509.4764,428.95499 c -0.4453,0 -0.8103,0.37062 -0.8103,0.82358 l 0,13.29067 c 0,0.45253 0.365,0.82332 0.8103,0.82332 l 9.5866,-7.46861 -9.5866,-7.46896 z"/><polygon style="fill:#b3b3b3;fill-opacity:1" id="polygon15688" points="349.779 353.592 235.153 251.338 120.521 353.592" transform="matrix(0.08539308,0,0,0.08677467,1498.9826,413.20964)"/><polygon style="fill:#b3b3b3;fill-opacity:1" id="polygon15690" points="347.407 353.592 235.153 256.085 122.888 353.592" transform="matrix(0.08539308,0,0,0.08677467,1498.9826,413.20964)"/><polygon style="fill:#b3b3b3;fill-opacity:1" id="polygon15692" points="122.888 183.832 237.515 300.308 347.407 183.832" transform="matrix(0.08539308,0,0,0.08677467,1498.9826,413.20964)"/><polygon style="fill:#b3b3b3;fill-opacity:1" id="polygon15694" points="122.888 181.451 235.143 278.959 347.407 181.451" transform="matrix(0.08539308,0,0,0.08677467,1498.9826,413.20964)"/><path id="path15696" d="m 1528.4333,429.26632 -9.359,7.17601 9.359,7.17575 c 0.4343,0 0.791,-0.35624 0.791,-0.79103 l 0,-12.76952 c 0,-0.43512 -0.3567,-0.79121 -0.791,-0.79121 z" style="fill:#e6e6e6"/><path id="path15698" d="m 1509.7146,429.26632 c -0.4348,0 -0.7911,0.35609 -0.7911,0.79129 l 0,12.76952 c 0,0.43479 0.3563,0.79104 0.7911,0.79104 l 9.3598,-7.17576 -9.3598,-7.17609 z" style="fill:#fcfcfc"/><polygon id="polygon15700" points="235.153 251.338 120.521 353.592 349.779 353.592" transform="matrix(0.08337212,0,0,0.08337212,1499.4692,414.13837)" style="fill:#b3b3b3;fill-opacity:1"/><polygon id="polygon15702" points="235.153 256.085 122.888 353.592 347.407 353.592" transform="matrix(0.08337212,0,0,0.08337212,1499.4692,414.13837)" style="fill:#f0f0f0"/><polygon id="polygon15704" points="237.515 300.308 347.407 183.832 122.888 183.832" transform="matrix(0.08337212,0,0,0.08337212,1499.4692,414.13837)" style="fill:#b3b3b3;fill-opacity:1"/><polygon id="polygon15706" points="235.143 278.959 347.407 181.451 122.888 181.451" transform="matrix(0.08337212,0,0,0.08337212,1499.4692,414.13837)" style="fill:#fff"/><circle style="opacity:1;fill:#fff;fill-opacity:1;stroke:none;stroke-width:3;stroke-linecap:round;stroke-linejoin:round;stroke-miterlimit:4;stroke-dasharray:none;stroke-dashoffset:0;stroke-opacity:1" id="circle15708" cx="1524.218" cy="428.692" r="5"/><g id="g15710" transform="matrix(0.5431534,0,0,0.5431534,1518.8893,423.39109)" style="fill:#ccc;fill-opacity:1;fill-rule:evenodd;stroke:none;stroke-width:1"><g id="g15712" transform="translate(-44,-86)" style="fill:#ccc;fill-opacity:1"><g id="g15714" transform="translate(44,86)" style="fill:#ccc;fill-opacity:1"><path id="path15716" d="M 10,0 C 4.5,0 0,4.5 0,10 0,15.5 4.5,20 10,20 15.5,20 20,15.5 20,10 20,4.5 15.5,0 10,0 l 0,0 z M 8,15 3,10 4.4,8.6 8,12.2 15.6,4.6 17,6 8,15 8,15 Z" style="fill:#ccc;fill-opacity:1"/></g></g></g></g></g></svg>