<svg xmlns="http://www.w3.org/2000/svg" xmlns:svg="http://www.w3.org/2000/svg" xmlns:xlink="http://www.w3.org/1999/xlink" id="svg23438" width="128" height="128" version="1.1" viewBox="0 0 128 128"><defs id="defs23440"><linearGradient id="linearGradient15620" x1="0" x2="20" y1="10" y2="10" gradientUnits="userSpaceOnUse" xlink:href="#linearGradient15614"/><linearGradient id="linearGradient15614"><stop style="stop-color:#00d400;stop-opacity:1" id="stop15616" offset="0"/><stop style="stop-color:green;stop-opacity:1" id="stop15618" offset="1"/></linearGradient><linearGradient id="linearGradient24050" x1="0" x2="20" y1="10" y2="10" gradientUnits="userSpaceOnUse" xlink:href="#linearGradient15614"/><linearGradient id="linearGradient24052" x1="0" x2="20" y1="10" y2="10" gradientUnits="userSpaceOnUse" xlink:href="#linearGradient15614"/><linearGradient id="linearGradient24054" x1="0" x2="20" y1="10" y2="10" gradientUnits="userSpaceOnUse" xlink:href="#linearGradient15614"/></defs><metadata id="metadata23443"/><g id="layer1" transform="translate(0,-924.36216)"><g id="g15726" transform="matrix(5.8181818,0,0,5.8181818,-8602.9339,-1498.9844)"><rect id="rect15378" width="22" height="22" x="1478.629" y="416.513" ry="0" style="opacity:1;fill:#666;fill-opacity:0;stroke:none;stroke-width:.75097322;stroke-linecap:round;stroke-linejoin:round;stroke-miterlimit:4;stroke-dasharray:none;stroke-dashoffset:0;stroke-opacity:1"/><g id="g15427" transform="translate(0.10852246,-0.19365135)"><path style="fill:#939dac;fill-opacity:1" id="path15380" d="m 1499.107,422.51952 -9.5858,7.46887 9.5858,7.46861 c 0.4449,0 0.8102,-0.37079 0.8102,-0.82332 l 0,-13.29067 c 0,-0.45287 -0.3653,-0.82349 -0.8102,-0.82349 z"/><path style="fill:#939dac;fill-opacity:1" id="path15382" d="m 1479.9346,422.51952 c -0.4453,0 -0.8103,0.37062 -0.8103,0.82358 l 0,13.29067 c 0,0.45253 0.365,0.82332 0.8103,0.82332 l 9.5866,-7.46861 -9.5866,-7.46896 z"/><polygon style="fill:#939dac;fill-opacity:1" id="polygon15384" points="120.521 353.592 349.779 353.592 235.153 251.338" transform="matrix(0.08539308,0,0,0.08677467,1469.4408,406.77417)"/><polygon style="fill:#939dac;fill-opacity:1" id="polygon15386" points="122.888 353.592 347.407 353.592 235.153 256.085" transform="matrix(0.08539308,0,0,0.08677467,1469.4408,406.77417)"/><polygon style="fill:#939dac;fill-opacity:1" id="polygon15388" points="347.407 183.832 122.888 183.832 237.515 300.308" transform="matrix(0.08539308,0,0,0.08677467,1469.4408,406.77417)"/><polygon style="fill:#939dac;fill-opacity:1" id="polygon15390" points="347.407 181.451 122.888 181.451 235.143 278.959" transform="matrix(0.08539308,0,0,0.08677467,1469.4408,406.77417)"/><path id="path15392" d="m 1498.8915,422.83085 -9.359,7.17601 9.359,7.17575 c 0.4343,0 0.791,-0.35624 0.791,-0.79103 l 0,-12.76952 c 0,-0.43512 -0.3567,-0.79121 -0.791,-0.79121 z" style="fill:#e6e6e6"/><path id="path15394" d="m 1480.1728,422.83085 c -0.4348,0 -0.7911,0.35609 -0.7911,0.79129 l 0,12.76952 c 0,0.43479 0.3563,0.79104 0.7911,0.79104 l 9.3598,-7.17576 -9.3598,-7.17609 z" style="fill:#fcfcfc"/><polygon id="polygon15396" points="349.779 353.592 235.153 251.338 120.521 353.592" transform="matrix(0.08337212,0,0,0.08337212,1469.9274,407.7029)" style="fill:#939dac;fill-opacity:1"/><polygon id="polygon15398" points="347.407 353.592 235.153 256.085 122.888 353.592" transform="matrix(0.08337212,0,0,0.08337212,1469.9274,407.7029)" style="fill:#f0f0f0"/><polygon id="polygon15400" points="122.888 183.832 237.515 300.308 347.407 183.832" transform="matrix(0.08337212,0,0,0.08337212,1469.9274,407.7029)" style="fill:#939dac"/><polygon id="polygon15402" points="122.888 181.451 235.143 278.959 347.407 181.451" transform="matrix(0.08337212,0,0,0.08337212,1469.9274,407.7029)" style="fill:#fff"/></g><circle id="path15612" cx="1494.785" cy="422.063" r="5" style="opacity:1;fill:#fff;fill-opacity:1;stroke:none;stroke-width:3;stroke-linecap:round;stroke-linejoin:round;stroke-miterlimit:4;stroke-dasharray:none;stroke-dashoffset:0;stroke-opacity:1"/><g style="fill:url(#linearGradient15620);fill-opacity:1;fill-rule:evenodd;stroke:none;stroke-width:1" id="Page-1" transform="matrix(0.5431534,0,0,0.5431534,1489.456,416.76196)"><g style="fill:url(#linearGradient24054);fill-opacity:1" id="Core" transform="translate(-44,-86)"><g style="fill:url(#linearGradient24052);fill-opacity:1" id="check-circle" transform="translate(44,86)"><path style="fill:url(#linearGradient24050);fill-opacity:1" id="Shape" d="M 10,0 C 4.5,0 0,4.5 0,10 0,15.5 4.5,20 10,20 15.5,20 20,15.5 20,10 20,4.5 15.5,0 10,0 l 0,0 z M 8,15 3,10 4.4,8.6 8,12.2 15.6,4.6 17,6 8,15 8,15 Z"/></g></g></g></g></g></svg>