<svg xmlns="http://www.w3.org/2000/svg" xmlns:svg="http://www.w3.org/2000/svg" id="svg2" width="128" height="128" version="1.0" viewBox="0 0 128 128" xml:space="preserve"><metadata id="metadata78"/><g id="Layer_1" transform="translate(0,290.13333)"><rect style="fill:none" id="_x3C_Slice_x3E_" width="256" height="256" x="0" y="0"/></g><g id="Layer_2" transform="matrix(0.49812765,0,0,0.49812765,-0.69534489,-0.21147058)"><g id="g9"><linearGradient id="XMLID_15_" x1="105.151" x2="228.316" y1="177.914" y2="177.914" gradientUnits="userSpaceOnUse"><stop style="stop-color:#585868;stop-opacity:1" id="stop12" offset="0"/><stop style="stop-color:#336;stop-opacity:1" id="stop14" offset="1"/></linearGradient><path style="fill:url(#XMLID_15_)" id="path16" d="m 90.637695,105.95068 -69.612793,31.11866 c -1.428711,0.63769 -2.348632,2.05761 -2.348632,3.62109 0,0.004 0,0.006 0,0.01 0,0.0303 0.01318,0.0596 0.01367,0.0908 -4.88e-4,0.0332 -0.01367,0.0615 -0.01367,0.0947 0,0.004 0,0.006 0,0.01 0,0.0312 0.0127,0.0605 0.01367,0.0908 -4.88e-4,0.0332 -0.01367,0.0625 -0.01367,0.0957 0,0.004 0,0.007 0,0.0107 0,0.0312 0.0127,0.0586 0.01367,0.0898 -9.76e-4,0.0322 -0.01367,0.0615 -0.01367,0.0928 0,0.004 0,0.008 0,0.0117 0,0.0312 0.0127,0.0596 0.01367,0.0908 -4.88e-4,0.0312 -0.01367,0.0625 -0.01367,0.0928 0,0.004 0,0.008 0,0.0117 0,0.0312 0.0127,0.0606 0.01367,0.0908 -9.76e-4,0.0312 -0.01367,0.0606 -0.01367,0.0937 0,0.004 0,0.006 0,0.01 0,0.0303 0.0127,0.0596 0.01367,0.0908 -4.88e-4,0.0332 -0.01367,0.0615 -0.01367,0.0947 0,0.004 0,0.008 0,0.0117 0,0.0312 0.0127,0.0576 0.01367,0.0889 -9.76e-4,0.0332 -0.01367,0.0625 -0.01367,0.0928 0,0.004 0,0.008 0,0.0117 0,0.0312 0.0127,0.0605 0.01367,0.0918 -4.88e-4,0.0303 -0.01367,0.0615 -0.01367,0.0928 0,0.004 0,0.008 0,0.0117 0,0.0303 0.0127,0.0596 0.01367,0.0908 -9.76e-4,0.0312 -0.01367,0.0596 -0.01367,0.0928 0,0.002 0,0.004 0,0.008 0,0.0312 0.01318,0.0605 0.01367,0.0928 -4.88e-4,0.0312 -0.01367,0.0605 -0.01367,0.0937 0,0.004 0,0.007 0,0.0107 0,0.0312 0.0127,0.0605 0.01367,0.0918 -4.88e-4,0.0303 -0.01367,0.0615 -0.01367,0.0928 0,0.004 0,0.008 0,0.0117 0,0.0312 0.0127,0.0596 0.01367,0.0908 -9.76e-4,0.0312 -0.01367,0.0606 -0.01367,0.0928 0,0.004 0,0.006 0,0.01 0,0.0312 0.0127,0.0606 0.01367,0.0908 -4.88e-4,0.0332 -0.01367,0.0625 -0.01367,0.0957 0,0.004 0,0.008 0,0.0117 0,0.0303 0.0127,0.0576 0.01367,0.0889 -9.76e-4,0.0332 -0.01367,0.0615 -0.01367,0.0928 0,0.004 0,0.008 0,0.0117 0,0.0312 0.0127,0.0596 0.01367,0.0908 -4.88e-4,0.0312 -0.01367,0.0625 -0.01367,0.0928 0,0.004 0,0.008 0,0.0117 0,0.0312 0.0127,0.0605 0.01367,0.0918 -9.76e-4,0.0303 -0.01367,0.0596 -0.01367,0.0928 0,0.004 0,0.006 0,0.01 0,0.0303 0.0127,0.0596 0.01367,0.0908 -4.88e-4,0.0332 -0.01367,0.0615 -0.01367,0.0947 0,0.004 0,0.008 0,0.0117 0,0.0312 0.0127,0.0586 0.01367,0.0889 -9.76e-4,0.0332 -0.01367,0.0625 -0.01367,0.0937 0,0.004 0,0.006 0,0.008 0,0.0322 0.01318,0.0615 0.01367,0.0928 -4.88e-4,0.0322 -0.01367,0.0615 -0.01367,0.0947 0,0.004 0,0.006 0,0.01 0,0.0312 0.0127,0.0596 0.01367,0.0908 -4.88e-4,0.0332 -0.01367,0.0625 -0.01367,0.0947 0,0.004 0,0.008 0,0.0117 0,0.0312 0.0127,0.0586 0.01367,0.0898 -9.76e-4,0.0322 -0.01367,0.0615 -0.01367,0.0928 0,0.004 0,0.008 0,0.0117 0,0.0303 0.0127,0.0596 0.01367,0.0908 -4.88e-4,0.0312 -0.01367,0.0615 -0.01367,0.0928 0,0.004 0,0.008 0,0.0117 0,0.0312 0.0127,0.0605 0.01367,0.0908 -9.76e-4,0.0312 -0.01367,0.0605 -0.01367,0.0928 0,0.004 0,0.006 0,0.01 0,0.0312 0.0127,0.0605 0.01367,0.0918 -4.88e-4,0.0322 -0.01367,0.0615 -0.01367,0.0947 0,0.004 0,0.008 0,0.0117 0,0.0303 0.0127,0.0576 0.01367,0.0889 -9.76e-4,0.0332 -0.01367,0.0615 -0.01367,0.0928 0,0.004 0,0.008 0,0.0117 0,0.0312 0.0127,0.0605 0.01367,0.0908 -4.88e-4,0.0312 -0.01367,0.0625 -0.01367,0.0937 0,0.004 0,0.008 0,0.0117 0,0.0303 0.0127,0.0596 0.01367,0.0908 -9.76e-4,0.0312 -0.01367,0.0596 -0.01367,0.0928 0,0.002 0,0.004 0,0.008 0,0.0312 0.01318,0.0596 0.01367,0.0928 -4.88e-4,0.0312 -0.01367,0.0605 -0.01367,0.0928 0,0.004 0,0.008 0,0.0117 0,0.0312 0.0127,0.0606 0.01367,0.0918 -4.88e-4,0.0303 -0.01367,0.0615 -0.01367,0.0928 0,0.004 0,0.008 0,0.0117 0,0.0303 0.0127,0.0596 0.01367,0.0908 -9.76e-4,0.0312 -0.01367,0.0596 -0.01367,0.0928 0,0.004 0,0.006 0,0.01 0,0.0312 0.0127,0.0605 0.01367,0.0908 -4.88e-4,0.0332 -0.01367,0.0625 -0.01367,0.0947 0,0.004 0,0.008 0,0.0117 0,0.0312 0.0127,0.0586 0.01367,0.0899 -9.76e-4,0.0322 -0.01367,0.0615 -0.01367,0.0928 0,0.004 0,0.008 0,0.0117 0,0.0312 0.0127,0.0596 0.01367,0.0908 -4.88e-4,0.0312 -0.01367,0.0625 -0.01367,0.0928 0,0.004 0,0.008 0,0.0117 0,0.0312 0.0127,0.0605 0.01367,0.0908 -9.76e-4,0.0312 -0.01367,0.0606 -0.01367,0.0937 0,0.002 0,0.004 0,0.008 0,0.0303 0.01318,0.0596 0.01367,0.0928 -4.88e-4,0.0312 -0.01367,0.0596 -0.01367,0.0928 0,0.004 0,0.008 0,0.0117 0,0.0312 0.0127,0.0596 0.01367,0.0908 -4.88e-4,0.0312 -0.01367,0.0625 -0.01367,0.0928 0,0.004 0,0.008 0,0.0117 0,0.0312 0.0127,0.0606 0.01367,0.0918 -9.76e-4,0.0303 -0.01367,0.0596 -0.01367,0.0928 0,0.004 0,0.006 0,0.01 0,0.0303 0.0127,0.0596 0.01367,0.0908 -4.88e-4,0.0332 -0.01367,0.0615 -0.01367,0.0947 0,0.004 0,0.008 0,0.0117 0,0.0312 0.0127,0.0586 0.01367,0.0889 -9.76e-4,0.0332 -0.01367,0.0625 -0.01367,0.0937 0,0.004 0,0.007 0,0.0107 0,0.0312 0.0127,0.0606 0.01367,0.0918 -4.88e-4,0.0303 -0.01367,0.0615 -0.01367,0.0928 0,0.004 0,0.008 0,0.0117 0,0.0312 0.0127,0.0596 0.01367,0.0908 -9.76e-4,0.0312 -0.01367,0.0605 -0.01367,0.0928 0,0.004 0,0.006 0,0.01 0,0.0312 0.0127,0.0606 0.01367,0.0908 -4.88e-4,0.0332 -0.01367,0.0625 -0.01367,0.0957 0,0.004 0,0.008 0,0.0117 0,0.0303 0.0127,0.0576 0.01367,0.0889 -9.76e-4,0.0332 -0.01367,0.0615 -0.01367,0.0928 0,0.004 0,0.006 0,0.008 0,0.0332 0.01318,0.0615 0.01367,0.0928 -4.88e-4,0.0332 -0.01367,0.0625 -0.01367,0.0947 0,0.004 0,0.006 0,0.01 0,0.0312 0.0127,0.0605 0.01367,0.0918 -4.88e-4,0.0322 -0.01367,0.0615 -0.01367,0.0947 0,0.004 0,0.008 0,0.0117 0,0.0303 0.0127,0.0576 0.01367,0.0889 -9.76e-4,0.0332 -0.01367,0.0615 -0.01367,0.0928 0,0.004 0,0.008 0,0.0117 0,0.0312 0.0127,0.0606 0.01367,0.0908 -4.88e-4,0.0312 -0.01367,0.0625 -0.01367,0.0937 0,0.004 0,0.007 0,0.0107 0,0.0312 0.0127,0.0605 0.01367,0.0918 -9.76e-4,0.0303 -0.01367,0.0596 -0.01367,0.0928 0,0.004 0,0.006 0,0.01 0,0.0312 0.0127,0.0596 0.01367,0.0908 -4.88e-4,0.0332 -0.01367,0.0625 -0.01367,0.0947 0,0.004 0,0.008 0,0.0117 0,0.0312 0.0127,0.0586 0.01367,0.0889 -9.76e-4,0.0332 -0.01367,0.0625 -0.01367,0.0937 0,0.004 0,0.008 0,0.0117 0,0.0303 0.0127,0.0596 0.01367,0.0908 -4.88e-4,0.0312 -0.01367,0.0615 -0.01367,0.0928 0,0.004 0,0.008 0,0.0117 0,0.0312 0.0127,0.0596 0.01367,0.0908 -9.76e-4,0.0312 -0.01367,0.0605 -0.01367,0.0928 0,0.002 0,0.004 0,0.008 0,0.0312 0.01318,0.0606 0.01367,0.0937 -4.88e-4,0.0303 -0.01367,0.0596 -0.01367,0.0928 0,0.004 0,0.008 0,0.0117 0,0.0303 0.0127,0.0596 0.01367,0.0908 -4.88e-4,0.0312 -0.01367,0.0615 -0.01367,0.0928 0,0.004 0,0.008 0,0.0117 0,0.0312 0.0127,0.0606 0.01367,0.0908 -9.76e-4,0.0312 -0.01367,0.0605 -0.01367,0.0937 0,0.004 0,0.006 0,0.01 0,0.0303 0.0127,0.0596 0.01367,0.0908 -4.88e-4,0.0322 -0.01367,0.0615 -0.01367,0.0947 0,0.004 0,0.008 0,0.0117 0,0.0312 0.0127,0.0576 0.01367,0.0889 -9.76e-4,0.0332 -0.01367,0.0625 -0.01367,0.0928 0,0.004 0,0.008 0,0.0117 0,0.0312 0.0127,0.0606 0.01367,0.0908 -4.88e-4,0.0312 -0.01367,0.0625 -0.01367,0.0937 0,0.004 0,0.008 0,0.0117 0,0.0303 0.0127,0.0596 0.01367,0.0908 -9.76e-4,0.0312 -0.01367,0.0596 -0.01367,0.0928 0,0.004 0,0.006 0,0.01 0,0.0312 0.0127,0.0605 0.01367,0.0908 -4.88e-4,0.0332 -0.01367,0.0625 -0.01367,0.0947 0,0.004 0,0.008 0,0.0117 0,0.0312 0.0127,0.0586 0.01367,0.0898 -9.76e-4,0.0322 -0.01367,0.0615 -0.01367,0.0928 0,0.004 0,0.006 0,0.008 0.0034,1.56934 0.931152,2.98926 2.366699,3.62305 0,0 37.260742,16.43262 49.291015,21.73926 -11.942382,5.33789 -48.316894,21.59863 -48.316894,21.59863 -1.429199,0.63867 -2.348633,2.05664 -2.348633,3.62207 0,0.002 0,0.006 0,0.008 0,0.0332 0.0127,0.0625 0.01318,0.0937 -4.89e-4,0.0303 -0.01318,0.0615 -0.01318,0.0928 0,0.004 0,0.008 0,0.0117 0,0.0303 0.01221,0.0596 0.01318,0.0908 -4.89e-4,0.0312 -0.01318,0.0615 -0.01318,0.0928 0,0.004 0,0.008 0,0.0117 0,0.0312 0.01221,0.0605 0.01318,0.0908 -9.77e-4,0.0312 -0.01318,0.0605 -0.01318,0.0937 0,0.004 0,0.005 0,0.009 0,0.0312 0.01221,0.0605 0.01318,0.0918 -4.89e-4,0.0322 -0.01318,0.0615 -0.01318,0.0947 0,0.004 0,0.008 0,0.0117 0,0.0312 0.01221,0.0576 0.01318,0.0889 -9.77e-4,0.0332 -0.01318,0.0625 -0.01318,0.0928 0,0.004 0,0.008 0,0.0117 0,0.0312 0.01221,0.0606 0.01318,0.0908 -4.89e-4,0.0312 -0.01318,0.0625 -0.01318,0.0937 0,0.004 0,0.008 0,0.0117 0,0.0303 0.01221,0.0596 0.01318,0.0908 -9.77e-4,0.0312 -0.01318,0.0596 -0.01318,0.0928 0,0.004 0,0.006 0,0.01 0,0.0312 0.01221,0.0596 0.01318,0.0908 -4.89e-4,0.0332 -0.01318,0.0625 -0.01318,0.0947 0,0.004 0,0.008 0,0.0117 0,0.0312 0.01221,0.0586 0.01318,0.0898 -9.77e-4,0.0322 -0.01318,0.0615 -0.01318,0.0928 0,0.004 0,0.006 0,0.008 0,0.0322 0.0127,0.0615 0.01318,0.0928 -4.89e-4,0.0332 -0.01318,0.0615 -0.01318,0.0947 0,0.004 0,0.006 0,0.01 0,0.0312 0.01221,0.0605 0.01318,0.0908 -4.89e-4,0.0332 -0.01318,0.0625 -0.01318,0.0957 0,0.004 0,0.008 0,0.0107 0,0.0312 0.01221,0.0586 0.01318,0.0898 -9.77e-4,0.0322 -0.01318,0.0615 -0.01318,0.0928 0,0.004 0,0.008 0,0.0117 0,0.0312 0.01221,0.0596 0.01318,0.0908 -4.89e-4,0.0312 -0.01318,0.0625 -0.01318,0.0928 0,0.004 0,0.008 0,0.0117 0,0.0312 0.01221,0.0606 0.01318,0.0908 -9.77e-4,0.0312 -0.01318,0.0606 -0.01318,0.0937 0,0.004 0,0.006 0,0.01 0,0.0303 0.01221,0.0596 0.01318,0.0908 -4.89e-4,0.0332 -0.01318,0.0615 -0.01318,0.0947 0,0.004 0,0.008 0,0.0117 0,0.0312 0.01221,0.0586 0.01318,0.0889 -9.77e-4,0.0332 -0.01318,0.0625 -0.01318,0.0928 0,0.004 0,0.008 0,0.0117 0,0.0312 0.01221,0.0605 0.01318,0.0918 -4.89e-4,0.0303 -0.01318,0.0615 -0.01318,0.0928 0,0.004 0,0.008 0,0.0117 0,0.0303 0.01221,0.0596 0.01318,0.0908 -9.77e-4,0.0312 -0.01318,0.0596 -0.01318,0.0928 0,0.002 0,0.004 0,0.008 0,0.0312 0.0127,0.0605 0.01318,0.0928 -4.89e-4,0.0312 -0.01318,0.0605 -0.01318,0.0937 0,0.004 0,0.008 0,0.0117 0,0.0303 0.01221,0.0596 0.01318,0.0908 -4.89e-4,0.0312 -0.01318,0.0615 -0.01318,0.0928 0,0.004 0,0.008 0,0.0117 0,0.0312 0.01221,0.0596 0.01318,0.0908 -9.77e-4,0.0312 -0.01318,0.0606 -0.01318,0.0928 0,0.004 0,0.006 0,0.01 0,0.0312 0.01221,0.0606 0.01318,0.0918 -4.89e-4,0.0322 -0.01318,0.0615 -0.01318,0.0947 0,0.004 0,0.008 0,0.0117 0,0.0303 0.01221,0.0576 0.01318,0.0889 -9.77e-4,0.0332 -0.01318,0.0615 -0.01318,0.0928 0,0.004 0,0.008 0,0.0117 0,0.0312 0.01221,0.0605 0.01318,0.0908 -4.89e-4,0.0312 -0.01318,0.0625 -0.01318,0.0928 0,0.004 0,0.008 0,0.0117 0,0.0312 0.01221,0.0605 0.01318,0.0918 -9.77e-4,0.0303 -0.01318,0.0596 -0.01318,0.0928 0,0.004 0,0.006 0,0.01 0,0.0312 0.01221,0.0596 0.01318,0.0908 -4.89e-4,0.0332 -0.01318,0.0625 -0.01318,0.0947 0,0.004 0,0.008 0,0.0117 0,0.0312 0.01221,0.0586 0.01318,0.0889 -9.77e-4,0.0332 -0.01318,0.0625 -0.01318,0.0937 0,0.004 0,0.006 0,0.008 0,0.0322 0.0127,0.0615 0.01318,0.0928 -4.89e-4,0.0332 -0.01318,0.0615 -0.01318,0.0947 0,0.004 0,0.006 0,0.01 0,0.0312 0.01221,0.0596 0.01318,0.0908 -4.89e-4,0.0332 -0.01318,0.0625 -0.01318,0.0947 0,0.004 0,0.008 0,0.0117 0,0.0312 0.01221,0.0586 0.01318,0.0898 -9.77e-4,0.0322 -0.01318,0.0615 -0.01318,0.0928 0,0.004 0,0.008 0,0.0117 0,0.0303 0.01221,0.0596 0.01318,0.0908 -4.89e-4,0.0312 -0.01318,0.0615 -0.01318,0.0928 0,0.004 0,0.008 0,0.0117 0,0.0312 0.01221,0.0605 0.01318,0.0908 -9.77e-4,0.0312 -0.01318,0.0605 -0.01318,0.0937 0,0.003 0,0.005 0,0.009 0,0.0312 0.01221,0.0605 0.01318,0.0918 -4.89e-4,0.0322 -0.01318,0.0615 -0.01318,0.0947 0,0.004 0,0.008 0,0.0117 0,0.0312 0.01221,0.0576 0.01318,0.0889 -9.77e-4,0.0332 -0.01318,0.0625 -0.01318,0.0928 0,0.004 0,0.006 0,0.008 0,0.0332 0.0127,0.0625 0.01318,0.0928 -4.89e-4,0.0332 -0.01318,0.0625 -0.01318,0.0957 0,0.004 0,0.006 0,0.01 0,0.0303 0.01221,0.0596 0.01318,0.0908 -4.89e-4,0.0332 -0.01318,0.0615 -0.01318,0.0947 0,0.004 0,0.008 0,0.0117 0,0.0312 0.01221,0.0576 0.01318,0.0889 -9.77e-4,0.0332 -0.01318,0.0625 -0.01318,0.0928 0,0.004 0,0.008 0,0.0117 0,0.0312 0.01221,0.0606 0.01318,0.0918 -4.89e-4,0.0303 -0.01318,0.0615 -0.01318,0.0928 0,0.004 0,0.008 0,0.0117 0,0.0303 0.01221,0.0596 0.01318,0.0908 -9.77e-4,0.0312 -0.01318,0.0596 -0.01318,0.0928 0,0.004 0,0.006 0,0.01 0,0.0312 0.01221,0.0605 0.01318,0.0908 -4.89e-4,0.0332 -0.01318,0.0625 -0.01318,0.0957 0,0.004 0,0.007 0,0.0107 0,0.0312 0.01221,0.0586 0.01318,0.0899 -9.77e-4,0.0322 -0.01318,0.0615 -0.01318,0.0928 0,0.004 0,0.008 0,0.0117 0,0.0312 0.01221,0.0596 0.01318,0.0908 -4.89e-4,0.0312 -0.01318,0.0625 -0.01318,0.0928 0,0.004 0,0.008 0,0.0117 0,0.0312 0.01221,0.0605 0.01318,0.0908 -9.77e-4,0.0312 -0.01318,0.0606 -0.01318,0.0937 0,0.002 0,0.004 0,0.008 0,0.0303 0.0127,0.0596 0.01318,0.0928 -4.89e-4,0.0312 -0.01318,0.0596 -0.01318,0.0928 0,0.004 0,0.008 0,0.0117 0,0.0312 0.01221,0.0596 0.01318,0.0908 -4.89e-4,0.0312 -0.01318,0.0625 -0.01318,0.0928 0,0.004 0,0.008 0,0.0117 0,0.0312 0.01221,0.0606 0.01318,0.0918 -9.77e-4,0.0303 -0.01318,0.0596 -0.01318,0.0928 0,0.004 0,0.006 0,0.01 0,0.0303 0.01221,0.0596 0.01318,0.0908 -4.89e-4,0.0332 -0.01318,0.0615 -0.01318,0.0947 0,0.004 0,0.008 0,0.0117 0,0.0312 0.01221,0.0586 0.01318,0.0889 -9.77e-4,0.0332 -0.01318,0.0625 -0.01318,0.0937 0,0.004 0,0.008 0,0.0107 0,0.0312 0.01221,0.0606 0.01318,0.0918 -4.89e-4,0.0303 -0.01318,0.0615 -0.01318,0.0928 0,0.004 0,0.008 0,0.0117 0,0.0312 0.01221,0.0596 0.01318,0.0908 -9.77e-4,0.0312 -0.01318,0.0605 -0.01318,0.0928 0,0.004 0,0.006 0,0.01 0,0.0312 0.01221,0.0606 0.01318,0.0908 -4.89e-4,0.0332 -0.01318,0.0625 -0.01318,0.0957 0,0.004 0,0.008 0,0.0117 0,0.0303 0.01221,0.0576 0.01318,0.0889 -9.77e-4,0.0332 -0.01318,0.0615 -0.01318,0.0928 0,0.004 0,0.006 0,0.008 0,0.0332 0.0127,0.0625 0.01318,0.0928 -4.89e-4,0.0332 -0.01318,0.0625 -0.01318,0.0947 0,0.004 0,0.006 0,0.01 0,0.0312 0.01221,0.0605 0.01318,0.0918 -4.89e-4,0.0322 -0.01318,0.0615 -0.01318,0.0947 0,0.004 0,0.008 0,0.0117 0,0.0303 0.01221,0.0576 0.01318,0.0889 -9.77e-4,0.0332 -0.01318,0.0615 -0.01318,0.0928 0,0.004 0,0.008 0,0.0117 0,0.0312 0.01221,0.0606 0.01318,0.0908 -4.89e-4,0.0312 -0.01318,0.0625 -0.01318,0.0937 0,0.004 0,0.008 0,0.0117 0,0.0303 0.01221,0.0596 0.01318,0.0908 -9.77e-4,0.0303 -0.01318,0.0596 -0.01318,0.0928 0,0.004 0,0.006 0,0.01 0,0.0312 0.01221,0.0596 0.01318,0.0908 -4.89e-4,0.0332 -0.01318,0.0625 -0.01318,0.0947 0,0.004 0,0.008 0,0.0117 0,0.0312 0.01221,0.0586 0.01318,0.0898 -9.77e-4,0.0322 -0.01318,0.0615 -0.01318,0.0928 0,0.004 0,0.008 0,0.0117 0,0.0303 0.01221,0.0596 0.01318,0.0908 -4.89e-4,0.0312 -0.01318,0.0615 -0.01318,0.0928 0,0.004 0,0.008 0,0.0117 0,0.0312 0.01221,0.0605 0.01318,0.0908 -9.77e-4,0.0312 -0.01318,0.0605 -0.01318,0.0928 0,0.002 0,0.006 0,0.008 0.0034,1.56934 0.930664,2.99024 2.366211,3.62305 l 70.670898,31.16699 c 1.026367,0.4541 2.196289,0.4502 3.220215,-0.008 l 69.613279,-31.11816 69.43555,-31.08204 c 1.42969,-0.63671 2.34961,-2.05761 2.34961,-3.62109 0,-0.004 0,-0.006 0,-0.008 0,-0.0322 -0.0137,-0.0615 -0.0137,-0.0928 0,-0.0332 0.0137,-0.0615 0.0137,-0.0947 0,-0.004 0,-0.006 0,-0.01 0,-0.0312 -0.0137,-0.0596 -0.0137,-0.0908 0,-0.0332 0.0137,-0.0625 0.0137,-0.0947 0,-0.004 0,-0.008 0,-0.0117 0,-0.0312 -0.0137,-0.0586 -0.0137,-0.0899 0,-0.0322 0.0137,-0.0615 0.0137,-0.0928 0,-0.004 0,-0.008 0,-0.0117 0,-0.0303 -0.0137,-0.0596 -0.0137,-0.0908 0,-0.0312 0.0137,-0.0615 0.0137,-0.0928 0,-0.004 0,-0.008 0,-0.0117 0,-0.0312 -0.0137,-0.0605 -0.0137,-0.0908 0,-0.0312 0.0137,-0.0606 0.0137,-0.0937 0,-0.003 0,-0.005 0,-0.009 0,-0.0312 -0.0137,-0.0606 -0.0137,-0.0918 0,-0.0322 0.0137,-0.0615 0.0137,-0.0947 0,-0.004 0,-0.008 0,-0.0117 0,-0.0312 -0.0137,-0.0576 -0.0137,-0.0889 0,-0.0332 0.0137,-0.0625 0.0137,-0.0928 0,-0.004 0,-0.008 0,-0.0117 0,-0.0312 -0.0137,-0.0606 -0.0137,-0.0908 0,-0.0312 0.0137,-0.0625 0.0137,-0.0937 0,-0.004 0,-0.008 0,-0.0117 0,-0.0303 -0.0137,-0.0596 -0.0137,-0.0908 0,-0.0312 0.0137,-0.0596 0.0137,-0.0928 0,-0.002 0,-0.004 0,-0.008 0,-0.0312 -0.0137,-0.0596 -0.0137,-0.0908 0,-0.0332 0.0137,-0.0625 0.0137,-0.0947 0,-0.004 0,-0.008 0,-0.0117 0,-0.0312 -0.0137,-0.0606 -0.0137,-0.0918 0,-0.0303 0.0137,-0.0615 0.0137,-0.0928 0,-0.004 0,-0.008 0,-0.0117 0,-0.0303 -0.0137,-0.0596 -0.0137,-0.0908 0,-0.0312 0.0137,-0.0596 0.0137,-0.0928 0,-0.004 0,-0.006 0,-0.01 0,-0.0312 -0.0137,-0.0606 -0.0137,-0.0908 0,-0.0332 0.0137,-0.0625 0.0137,-0.0957 0,-0.003 0,-0.007 0,-0.0107 0,-0.0312 -0.0137,-0.0586 -0.0137,-0.0898 0,-0.0322 0.0137,-0.0615 0.0137,-0.0928 0,-0.004 0,-0.008 0,-0.0117 0,-0.0312 -0.0137,-0.0596 -0.0137,-0.0908 0,-0.0312 0.0137,-0.0625 0.0137,-0.0928 0,-0.004 0,-0.008 0,-0.0117 0,-0.0312 -0.0137,-0.0605 -0.0137,-0.0908 0,-0.0312 0.0137,-0.0605 0.0137,-0.0937 0,-0.004 0,-0.006 0,-0.01 0,-0.0303 -0.0137,-0.0596 -0.0137,-0.0908 0,-0.0332 0.0137,-0.0615 0.0137,-0.0947 0,-0.004 0,-0.008 0,-0.0117 0,-0.0312 -0.0137,-0.0576 -0.0137,-0.0889 0,-0.0332 0.0137,-0.0625 0.0137,-0.0928 0,-0.002 0,-0.006 0,-0.008 0,-0.0332 -0.0137,-0.0625 -0.0137,-0.0937 0,-0.0322 0.0137,-0.0615 0.0137,-0.0947 0,-0.004 0,-0.006 0,-0.01 0,-0.0303 -0.0137,-0.0596 -0.0137,-0.0908 0,-0.0332 0.0137,-0.0615 0.0137,-0.0947 0,-0.004 0,-0.008 0,-0.0117 0,-0.0312 -0.0137,-0.0586 -0.0137,-0.0889 0,-0.0332 0.0137,-0.0625 0.0137,-0.0937 0,-0.004 0,-0.008 0,-0.0107 0,-0.0312 -0.0137,-0.0606 -0.0137,-0.0918 0,-0.0303 0.0137,-0.0615 0.0137,-0.0928 0,-0.004 0,-0.008 0,-0.0117 0,-0.0312 -0.0137,-0.0596 -0.0137,-0.0908 0,-0.0312 0.0137,-0.0605 0.0137,-0.0928 0,-0.004 0,-0.006 0,-0.01 0,-0.0312 -0.0137,-0.0605 -0.0137,-0.0908 0,-0.0332 0.0137,-0.0625 0.0137,-0.0957 0,-0.004 0,-0.008 0,-0.0117 0,-0.0303 -0.0137,-0.0576 -0.0137,-0.0889 0,-0.0332 0.0137,-0.0615 0.0137,-0.0928 0,-0.004 0,-0.008 0,-0.0117 0,-0.0312 -0.0137,-0.0596 -0.0137,-0.0908 0,-0.0312 0.0137,-0.0625 0.0137,-0.0928 0,-0.004 0,-0.008 0,-0.0117 0,-0.0312 -0.0137,-0.0605 -0.0137,-0.0918 0,-0.0303 0.0137,-0.0596 0.0137,-0.0928 0,-0.002 0,-0.004 0,-0.008 0,-0.0312 -0.0137,-0.0596 -0.0137,-0.0908 0,-0.0332 0.0137,-0.0615 0.0137,-0.0947 0,-0.004 0,-0.008 0,-0.0117 0,-0.0312 -0.0137,-0.0606 -0.0137,-0.0908 0,-0.0312 0.0137,-0.0625 0.0137,-0.0937 0,-0.004 0,-0.008 0,-0.0107 0,-0.0312 -0.0137,-0.0606 -0.0137,-0.0918 0,-0.0303 0.0137,-0.0596 0.0137,-0.0928 0,-0.004 0,-0.006 0,-0.01 0,-0.0312 -0.0137,-0.0596 -0.0137,-0.0908 0,-0.0332 0.0137,-0.0625 0.0137,-0.0947 0,-0.004 0,-0.008 0,-0.0117 0,-0.0312 -0.0137,-0.0586 -0.0137,-0.0889 0,-0.0332 0.0137,-0.0625 0.0137,-0.0937 0,-0.004 0,-0.008 0,-0.0117 0,-0.0303 -0.0137,-0.0596 -0.0137,-0.0908 0,-0.0312 0.0137,-0.0615 0.0137,-0.0928 0,-0.004 0,-0.008 0,-0.0117 0,-0.0312 -0.0137,-0.0606 -0.0137,-0.0908 0,-0.0312 0.0137,-0.0605 0.0137,-0.0928 0,-0.002 0,-0.004 0,-0.008 0,-0.0312 -0.0137,-0.0605 -0.0137,-0.0918 0,-0.0322 0.0137,-0.0615 0.0137,-0.0947 0,-0.004 0,-0.008 0,-0.0117 0,-0.0312 -0.0137,-0.0596 -0.0137,-0.0908 0,-0.0312 0.0137,-0.0625 0.0137,-0.0928 0,-0.004 0,-0.008 0,-0.0117 0,-0.0312 -0.0137,-0.0606 -0.0137,-0.0908 0,-0.0312 0.0137,-0.0606 0.0137,-0.0937 0,-0.004 0,-0.006 0,-0.01 0,-0.0303 -0.0137,-0.0596 -0.0137,-0.0908 0,-0.0322 0.0137,-0.0615 0.0137,-0.0947 0,-0.004 0,-0.008 0,-0.0117 0,-0.0312 -0.0137,-0.0576 -0.0137,-0.0889 0,-0.0332 0.0137,-0.0625 0.0137,-0.0928 0,-0.004 0,-0.008 0,-0.0117 0,-0.0312 -0.0137,-0.0606 -0.0137,-0.0918 0,-0.0303 0.0137,-0.0615 0.0137,-0.0928 0,-0.004 0,-0.008 0,-0.0117 0,-0.0303 -0.0137,-0.0596 -0.0137,-0.0908 0,-0.0312 0.0137,-0.0596 0.0137,-0.0928 0,-0.004 0,-0.006 0,-0.01 0,-0.0312 -0.0137,-0.0605 -0.0137,-0.0908 0,-0.0332 0.0137,-0.0625 0.0137,-0.0957 0,-0.003 0,-0.007 0,-0.0107 0,-0.0312 -0.0137,-0.0586 -0.0137,-0.0898 0,-0.0322 0.0137,-0.0615 0.0137,-0.0928 0,-0.002 0,-0.006 0,-0.008 0,-0.0332 -0.0137,-0.0615 -0.0137,-0.0928 0,-0.0332 0.0137,-0.0625 0.0137,-0.0947 0,-0.004 0,-0.006 0,-0.01 0,-0.0312 -0.0137,-0.0606 -0.0137,-0.0908 0,-0.0332 0.0137,-0.0625 0.0137,-0.0957 0,-0.004 0,-0.008 0,-0.0117 0,-0.0303 -0.0137,-0.0576 -0.0137,-0.0889 0,-0.0332 0.0137,-0.0615 0.0137,-0.0928 0,-0.004 0,-0.008 0,-0.0117 0,-0.0312 -0.0137,-0.0596 -0.0137,-0.0908 0,-0.0312 0.0137,-0.0625 0.0137,-0.0928 0,-0.004 0,-0.008 0,-0.0117 0,-0.0312 -0.0137,-0.0605 -0.0137,-0.0918 0,-0.0303 0.0137,-0.0596 0.0137,-0.0928 0,-0.004 0,-0.006 0,-0.01 0,-0.0303 -0.0137,-0.0596 -0.0137,-0.0908 0,-0.0332 0.0137,-0.0615 0.0137,-0.0947 0,-0.004 0,-0.008 0,-0.0117 0,-0.0312 -0.0137,-0.0586 -0.0137,-0.0889 0,-0.0332 0.0137,-0.0625 0.0137,-0.0937 0,-0.004 0,-0.007 0,-0.0107 0,-0.0312 -0.0137,-0.0606 -0.0137,-0.0918 0,-0.0303 0.0137,-0.0615 0.0137,-0.0928 0,-0.004 0,-0.008 0,-0.0117 0,-0.0312 -0.0137,-0.0596 -0.0137,-0.0908 0,-0.0312 0.0137,-0.0605 0.0137,-0.0928 0,-0.002 0,-0.004 0,-0.008 0,-0.0312 -0.0137,-0.0605 -0.0137,-0.0908 0,-0.0332 0.0137,-0.0625 0.0137,-0.0957 0,-0.004 0,-0.008 0,-0.0117 0,-0.0303 -0.0137,-0.0596 -0.0137,-0.0908 0,-0.0312 0.0137,-0.0615 0.0137,-0.0928 0,-0.004 0,-0.008 0,-0.0117 0,-0.0312 -0.0137,-0.0596 -0.0137,-0.0908 0,-0.0312 0.0137,-0.0606 0.0137,-0.0928 0,-0.004 0,-0.006 0,-0.01 0,-0.0312 -0.0137,-0.0605 -0.0137,-0.0918 0,-0.0322 0.0137,-0.0615 0.0137,-0.0947 0,-0.004 0,-0.008 0,-0.0117 0,-0.0303 -0.0137,-0.0576 -0.0137,-0.0889 0,-0.0332 0.0137,-0.0615 0.0137,-0.0928 0,-0.004 0,-0.008 0,-0.0117 0,-0.0312 -0.0137,-0.0606 -0.0137,-0.0908 0,-0.0312 0.0137,-0.0625 0.0137,-0.0937 0,-0.004 0,-0.008 0,-0.0107 0,-0.0312 -0.0137,-0.0606 -0.0137,-0.0918 0,-0.0303 0.0137,-0.0596 0.0137,-0.0928 0,-0.004 0,-0.006 0,-0.01 0,-0.0312 -0.0137,-0.0596 -0.0137,-0.0908 0,-0.0332 0.0137,-0.0625 0.0137,-0.0947 0,-0.004 0,-0.008 0,-0.0117 0,-0.0312 -0.0137,-0.0586 -0.0137,-0.0889 0,-0.0332 0.0137,-0.0625 0.0137,-0.0937 0,-0.004 0,-0.008 0,-0.01 -0.004,-1.56933 -0.93164,-2.9873 -2.36719,-3.62109 0,0 -66.53125,-29.34375 -69.21094,-30.52344 -0.34765,-0.36035 -0.74023,-0.67773 -1.21679,-0.88867 L 93.85791,105.94287 c -1.025879,-0.45312 -2.196289,-0.45019 -3.220215,0.008 z"/><linearGradient id="XMLID_16_" x1="105.159" x2="228.32" y1="177.914" y2="177.914" gradientUnits="userSpaceOnUse"><stop style="stop-color:#cecedb;stop-opacity:1" id="stop19" offset="0"/><stop style="stop-color:#7d7d99;stop-opacity:1" id="stop21" offset="1"/></linearGradient><polygon style="fill:url(#XMLID_16_)" id="polygon23" points="22.644 141.275 22.864 141.372 22.644 141.471 22.863 141.567 22.644 141.667 22.864 141.764 22.644 141.862 22.863 141.959 22.644 142.056 22.864 142.153 22.644 142.252 22.863 142.349 22.644 142.447 22.863 142.544 22.644 142.642 22.864 142.738 22.644 142.837 22.863 142.934 22.644 143.032 22.864 143.13 22.644 143.229 22.863 143.325 22.644 143.422 22.864 143.519 22.644 143.617 22.863 143.715 22.644 143.813 22.864 143.91 22.644 144.009 22.863 144.105 22.644 144.203 22.863 144.3 22.644 144.398 22.864 144.495 22.644 144.594 22.863 144.691 22.644 144.788 22.864 144.885 22.644 144.983 22.863 145.08 22.644 145.179 22.864 145.276 22.644 145.375 22.863 145.472 22.644 145.568 22.864 145.665 22.644 145.765 22.863 145.861 22.644 145.96 22.863 146.057 22.644 146.153 22.864 146.251 22.644 146.35 22.863 146.446 22.644 146.545 22.864 146.642 22.644 146.74 22.863 146.838 22.644 146.935 22.864 147.031 22.644 147.13 22.863 147.227 22.644 147.326 22.863 147.423 22.644 147.52 22.864 147.616 22.644 147.715 22.863 147.813 22.644 147.911 22.864 148.008 22.644 148.106 22.863 148.203 22.644 148.301 22.864 148.397 22.644 148.496 22.863 148.593 22.644 148.691 22.864 148.788 22.644 148.888 22.863 148.984 22.644 149.081 22.863 149.178 22.644 149.276 22.864 149.374 22.644 149.473 22.863 149.569 22.644 149.666 22.864 149.763 22.644 149.862 22.863 149.959 22.644 150.058 22.864 150.154 22.644 150.253 22.863 150.35 22.644 150.447 22.864 150.544 22.644 150.643 22.863 150.739 22.644 150.838 22.863 150.936 22.644 151.032 22.864 151.129 22.644 151.228 22.863 151.324 22.644 151.424 22.864 151.521 22.644 151.619 22.863 151.716 22.644 151.813 22.864 151.91 22.644 152.009 22.863 152.105 22.644 152.204 22.864 152.301 22.644 152.399 22.863 152.497 22.644 152.594 80.112 177.938 23.636 203.185 23.855 203.282 23.636 203.379 23.856 203.476 23.636 203.574 23.855 203.671 23.636 203.771 23.856 203.867 23.636 203.966 23.855 204.063 23.636 204.159 23.856 204.257 23.636 204.355 23.855 204.452 23.636 204.551 23.856 204.647 23.636 204.746 23.855 204.844 23.636 204.94 23.855 205.037 23.636 205.136 23.856 205.232 23.636 205.332 23.855 205.429 23.636 205.525 23.856 205.622 23.636 205.721 23.855 205.818 23.636 205.917 23.856 206.014 23.636 206.112 23.855 206.209 23.636 206.306 23.856 206.403 23.636 206.502 23.855 206.599 23.636 206.697 23.855 206.794 23.636 206.892 23.856 206.988 23.636 207.087 23.855 207.184 23.636 207.282 23.856 207.38 23.636 207.479 23.855 207.575 23.636 207.672 23.856 207.769 23.636 207.867 23.855 207.965 23.636 208.063 23.856 208.16 23.636 208.259 23.855 208.355 23.636 208.453 23.855 208.55 23.636 208.648 23.856 208.745 23.636 208.844 23.855 208.941 23.636 209.038 23.856 209.135 23.636 209.233 23.855 209.33 23.636 209.43 23.856 209.526 23.636 209.625 23.855 209.722 23.636 209.818 23.855 209.915 23.636 210.015 23.856 210.111 23.636 210.21 23.855 210.307 23.636 210.403 23.856 210.501 23.636 210.6 23.855 210.696 23.636 210.795 23.856 210.892 23.636 210.991 23.855 211.088 23.636 211.185 23.856 211.281 23.636 211.38 23.855 211.477 23.636 211.576 23.855 211.673 23.636 211.77 23.856 211.866 23.636 211.965 23.855 212.063 23.636 212.161 23.856 212.258 23.636 212.356 23.855 212.453 23.636 212.551 23.856 212.647 23.636 212.746 23.855 212.843 23.636 212.941 23.856 213.039 23.636 213.138 23.855 213.234 23.636 213.331 23.855 213.428 23.636 213.526 23.856 213.624 23.636 213.723 23.855 213.819 23.636 213.916 23.856 214.013 23.636 214.112 23.855 214.209 23.636 214.308 23.856 214.404 23.636 214.503 23.855 214.601 23.636 214.697 23.856 214.794 23.636 214.893 23.855 214.989 23.636 215.088 94.307 246.255 163.92 215.139 163.871 215.117 233.355 184.057 233.137 183.96 233.355 183.861 233.137 183.765 233.355 183.666 233.137 183.568 233.355 183.472 233.137 183.375 233.355 183.276 233.137 183.18 233.355 183.08 233.137 182.983 233.355 182.885 233.137 182.788 233.355 182.691 233.137 182.595 233.355 182.495 233.137 182.398 233.355 182.3 233.137 182.203 233.355 182.106 233.137 182.009 233.355 181.91 233.137 181.813 233.355 181.715 233.137 181.618 233.355 181.519 233.137 181.422 233.355 181.325 233.137 181.229 233.355 181.13 233.137 181.033 233.355 180.934 233.137 180.837 233.355 180.738 233.137 180.642 233.355 180.545 233.137 180.447 233.355 180.349 233.137 180.252 233.355 180.153 233.137 180.057 233.355 179.959 233.137 179.862 233.355 179.764 233.137 179.667 233.355 179.568 233.137 179.471 233.355 179.372 233.137 179.275 233.355 179.179 233.137 179.082 233.355 178.983 233.137 178.886 233.355 178.787 233.137 178.69 233.355 178.594 233.137 178.497 233.355 178.397 233.137 178.301 233.355 178.202 233.137 178.105 233.355 178.007 233.137 177.909 233.355 177.813 233.137 177.716 233.355 177.617 233.137 177.521 233.355 177.422 233.137 177.324 233.355 177.228 233.137 177.131 233.355 177.032 233.137 176.936 233.355 176.836 233.137 176.739 233.355 176.641 233.137 176.544 233.355 176.447 233.137 176.35 233.355 176.251 233.137 176.154 233.355 176.056 233.137 175.959 233.355 175.859 233.137 175.763 233.355 175.666 233.137 175.569 233.355 175.471 233.137 175.374 233.355 175.274 233.137 175.178 233.355 175.081 233.137 174.984 233.355 174.886 233.137 174.788 233.355 174.689 233.137 174.593 233.355 174.494 233.137 174.397 233.355 174.3 233.137 174.203 233.355 174.104 233.137 174.008 233.355 173.909 233.137 173.813 233.355 173.715 233.137 173.618 233.355 173.52 233.137 173.423 233.355 173.324 233.137 173.227 233.355 173.128 233.137 173.031 233.355 172.935 233.137 172.838 233.355 172.738 233.137 172.642 233.355 172.543 233.137 172.446 233.355 172.348 233.137 172.25 233.137 172.25 233.355 172.153 162.752 141.014 162.928 140.937 162.709 140.84 162.928 140.74 92.257 109.573 22.644 140.69 22.863 140.787 22.644 140.886 22.864 140.982 22.644 141.082 22.863 141.179"/><linearGradient id="XMLID_17_" x1="31.684" x2="224.316" y1="177.914" y2="177.914" gradientUnits="userSpaceOnUse"><stop style="stop-color:#cecedb;stop-opacity:1" id="stop26" offset="0"/><stop style="stop-color:#336;stop-opacity:1" id="stop28" offset="1"/></linearGradient><polygon style="fill:url(#XMLID_17_)" id="polygon30" points="22.644 141.275 22.864 141.372 22.644 141.471 22.863 141.567 22.644 141.667 22.864 141.764 22.644 141.862 22.863 141.959 22.644 142.056 22.864 142.153 22.644 142.252 22.863 142.349 22.644 142.447 22.863 142.544 22.644 142.642 22.864 142.738 22.644 142.837 22.863 142.934 22.644 143.032 22.864 143.13 22.644 143.229 22.863 143.325 22.644 143.422 22.864 143.519 22.644 143.617 22.863 143.715 22.644 143.813 22.864 143.91 22.644 144.009 22.863 144.105 22.644 144.203 22.863 144.3 22.644 144.398 22.864 144.495 22.644 144.594 22.863 144.691 22.644 144.788 22.864 144.885 22.644 144.983 22.863 145.08 22.644 145.179 22.864 145.276 22.644 145.375 22.863 145.472 22.644 145.568 22.864 145.665 22.644 145.765 22.863 145.861 22.644 145.96 22.863 146.057 22.644 146.153 22.864 146.251 22.644 146.35 22.863 146.446 22.644 146.545 22.864 146.642 22.644 146.74 22.863 146.838 22.644 146.935 22.864 147.031 22.644 147.13 22.863 147.227 22.644 147.326 22.863 147.423 22.644 147.52 22.864 147.616 22.644 147.715 22.863 147.813 22.644 147.911 22.864 148.008 22.644 148.106 22.863 148.203 22.644 148.301 22.864 148.397 22.644 148.496 22.863 148.593 22.644 148.691 22.864 148.788 22.644 148.888 22.863 148.984 22.644 149.081 22.863 149.178 22.644 149.276 22.864 149.374 22.644 149.473 22.863 149.569 22.644 149.666 22.864 149.763 22.644 149.862 22.863 149.959 22.644 150.058 22.864 150.154 22.644 150.253 22.863 150.35 22.644 150.447 22.864 150.544 22.644 150.643 22.863 150.739 22.644 150.838 22.863 150.936 22.644 151.032 22.864 151.129 22.644 151.228 22.863 151.324 22.644 151.424 22.864 151.521 22.644 151.619 22.863 151.716 22.644 151.813 22.864 151.91 22.644 152.009 22.863 152.105 22.644 152.204 22.864 152.301 22.644 152.399 22.863 152.497 22.644 152.594 80.112 177.938 23.636 203.185 23.855 203.282 23.636 203.379 23.856 203.476 23.636 203.574 23.855 203.671 23.636 203.771 23.856 203.867 23.636 203.966 23.855 204.063 23.636 204.159 23.856 204.257 23.636 204.355 23.855 204.452 23.636 204.551 23.856 204.647 23.636 204.746 23.855 204.844 23.636 204.94 23.855 205.037 23.636 205.136 23.856 205.232 23.636 205.332 23.855 205.429 23.636 205.525 23.856 205.622 23.636 205.721 23.855 205.818 23.636 205.917 23.856 206.014 23.636 206.112 23.855 206.209 23.636 206.306 23.856 206.403 23.636 206.502 23.855 206.599 23.636 206.697 23.855 206.794 23.636 206.892 23.856 206.988 23.636 207.087 23.855 207.184 23.636 207.282 23.856 207.38 23.636 207.479 23.855 207.575 23.636 207.672 23.856 207.769 23.636 207.867 23.855 207.965 23.636 208.063 23.856 208.16 23.636 208.259 23.855 208.355 23.636 208.453 23.855 208.55 23.636 208.648 23.856 208.745 23.636 208.844 23.855 208.941 23.636 209.038 23.856 209.135 23.636 209.233 23.855 209.33 23.636 209.43 23.856 209.526 23.636 209.625 23.855 209.722 23.636 209.818 23.855 209.915 23.636 210.015 23.856 210.111 23.636 210.21 23.855 210.307 23.636 210.403 23.856 210.501 23.636 210.6 23.855 210.696 23.636 210.795 23.856 210.892 23.636 210.991 23.855 211.088 23.636 211.185 23.856 211.281 23.636 211.38 23.855 211.477 23.636 211.576 23.855 211.673 23.636 211.77 23.856 211.866 23.636 211.965 23.855 212.063 23.636 212.161 23.856 212.258 23.636 212.356 23.855 212.453 23.636 212.551 23.856 212.647 23.636 212.746 23.855 212.843 23.636 212.941 23.856 213.039 23.636 213.138 23.855 213.234 23.636 213.331 23.855 213.428 23.636 213.526 23.856 213.624 23.636 213.723 23.855 213.819 23.636 213.916 23.856 214.013 23.636 214.112 23.855 214.209 23.636 214.308 23.856 214.404 23.636 214.503 23.855 214.601 23.636 214.697 23.856 214.794 23.636 214.893 23.855 214.989 23.636 215.088 94.307 246.255 163.92 215.139 163.871 215.117 233.355 184.057 233.137 183.96 233.355 183.861 233.137 183.765 233.355 183.666 233.137 183.568 233.355 183.472 233.137 183.375 233.355 183.276 233.137 183.18 233.355 183.08 233.137 182.983 233.355 182.885 233.137 182.788 233.355 182.691 233.137 182.595 233.355 182.495 233.137 182.398 233.355 182.3 233.137 182.203 233.355 182.106 233.137 182.009 233.355 181.91 233.137 181.813 233.355 181.715 233.137 181.618 233.355 181.519 233.137 181.422 233.355 181.325 233.137 181.229 233.355 181.13 233.137 181.033 233.355 180.934 233.137 180.837 233.355 180.738 233.137 180.642 233.355 180.545 233.137 180.447 233.355 180.349 233.137 180.252 233.355 180.153 233.137 180.057 233.355 179.959 233.137 179.862 233.355 179.764 233.137 179.667 233.355 179.568 233.137 179.471 233.355 179.372 233.137 179.275 233.355 179.179 233.137 179.082 233.355 178.983 233.137 178.886 233.355 178.787 233.137 178.69 233.355 178.594 233.137 178.497 233.355 178.397 233.137 178.301 233.355 178.202 233.137 178.105 233.355 178.007 233.137 177.909 233.355 177.813 233.137 177.716 233.355 177.617 233.137 177.521 233.355 177.422 233.137 177.324 233.355 177.228 233.137 177.131 233.355 177.032 233.137 176.936 233.355 176.836 233.137 176.739 233.355 176.641 233.137 176.544 233.355 176.447 233.137 176.35 233.355 176.251 233.137 176.154 233.355 176.056 233.137 175.959 233.355 175.859 233.137 175.763 233.355 175.666 233.137 175.569 233.355 175.471 233.137 175.374 233.355 175.274 233.137 175.178 233.355 175.081 233.137 174.984 233.355 174.886 233.137 174.788 233.355 174.689 233.137 174.593 233.355 174.494 233.137 174.397 233.355 174.3 233.137 174.203 233.355 174.104 233.137 174.008 233.355 173.909 233.137 173.813 233.355 173.715 233.137 173.618 233.355 173.52 233.137 173.423 233.355 173.324 233.137 173.227 233.355 173.128 233.137 173.031 233.355 172.935 233.137 172.838 233.355 172.738 233.137 172.642 233.355 172.543 233.137 172.446 233.355 172.348 233.137 172.25 233.137 172.25 233.355 172.153 162.752 141.014 162.928 140.937 162.709 140.84 162.928 140.74 92.257 109.573 22.644 140.69 22.863 140.787 22.644 140.886 22.864 140.982 22.644 141.082 22.863 141.179"/><linearGradient id="XMLID_18_" x1="29.924" x2="120.602" y1="-181.638" y2="-181.638" gradientTransform="matrix(0.7069,0.7074,-0.7074,0.7069,-18.47993,247.2877)" gradientUnits="userSpaceOnUse"><stop style="stop-color:#e6edff;stop-opacity:1" id="stop33" offset="0"/><stop style="stop-color:#9a9ab1;stop-opacity:1" id="stop35" offset="1"/></linearGradient><polygon style="fill:url(#XMLID_18_)" id="polygon37" points="163.742 203.271 93.073 172.104 93.073 172.104 162.686 140.984 233.355 172.153"/><linearGradient id="XMLID_19_" x1="99.091" x2="227.337" y1="172.127" y2="172.127" gradientUnits="userSpaceOnUse"><stop style="stop-color:#fff;stop-opacity:1" id="stop40" offset="0"/><stop style="stop-color:#585868;stop-opacity:1" id="stop42" offset="1"/></linearGradient><path style="fill:url(#XMLID_19_)" id="path44" d="m 162.68555,140.98438 -69.612796,31.11914 70.669436,31.16699 69.61328,-31.11719 -70.66992,-31.16894 z m 1.05468,61.20117 c -0.77343,-0.34082 -64.391109,-28.39844 -68.22314,-30.08789 3.820312,-1.70899 66.39893,-29.6836 67.17041,-30.02832 0.77344,0.34277 64.39063,28.39843 68.22461,30.08984 -3.82031,1.70703 -66.40039,29.68164 -67.17188,30.02637 z"/><linearGradient id="XMLID_20_" x1="91.436" x2="198.566" y1="203.194" y2="203.856" gradientUnits="userSpaceOnUse"><stop style="stop-color:#e6edff;stop-opacity:1" id="stop47" offset="0"/><stop style="stop-color:#7d7d99;stop-opacity:1" id="stop49" offset="1"/></linearGradient><polygon style="fill:url(#XMLID_20_)" id="polygon51" points="94.307 234.352 23.636 203.185 23.636 203.185 93.249 172.066 163.92 203.235"/><linearGradient id="XMLID_21_" x1="29.798" x2="172.747" y1="140.716" y2="140.716" gradientUnits="userSpaceOnUse"><stop style="stop-color:#fff;stop-opacity:1" id="stop54" offset="0"/><stop style="stop-color:#eef2ff;stop-opacity:1" id="stop56" offset=".213"/><stop style="stop-color:#e6edff;stop-opacity:1" id="stop58" offset=".376"/><stop style="stop-color:#9a9ab1;stop-opacity:1" id="stop60" offset="1"/></linearGradient><polygon style="fill:url(#XMLID_21_)" id="polygon62" points="93.315 171.859 22.644 140.69 22.644 140.69 92.257 109.573 162.928 140.74"/><g id="g64"><radialGradient id="XMLID_22_" cx="35.915" cy="179.124" r="117.05" fx="35.915" fy="179.124" gradientUnits="userSpaceOnUse"><stop style="stop-color:#fff;stop-opacity:1" id="stop67" offset="0"/><stop style="stop-color:#ececff;stop-opacity:1" id="stop69" offset=".677"/><stop style="stop-color:#e1e1ff;stop-opacity:1" id="stop71" offset="1"/></radialGradient><path style="fill:url(#XMLID_22_)" id="path73" d="M 114.54834,162.36816 C 92.699219,149.53809 56.699707,144.58594 27.381836,142.78027 l 65.933105,29.07911 21.233399,-9.49122 z"/><radialGradient id="XMLID_23_" cx="35.91" cy="179.123" r="117.053" fx="35.91" fy="179.123" gradientUnits="userSpaceOnUse"><stop style="stop-color:#fff;stop-opacity:1" id="stop76" offset="0"/><stop style="stop-color:#ececff;stop-opacity:1" id="stop78" offset=".677"/><stop style="stop-color:#e1e1ff;stop-opacity:1" id="stop80" offset="1"/></radialGradient><path style="fill:url(#XMLID_23_)" id="path82" d="M 93.249023,172.06641 23.63623,203.18457 63.273926,220.66602 C 71.786621,208.46973 128.0249,209.14844 133.11914,189.65039 L 93.249023,172.06641 Z"/></g><linearGradient id="XMLID_24_" x1="157.901" x2="29.654" y1="203.209" y2="203.209" gradientUnits="userSpaceOnUse"><stop style="stop-color:#fff;stop-opacity:1" id="stop85" offset="0"/><stop style="stop-color:#585868;stop-opacity:1" id="stop87" offset="1"/></linearGradient><path style="fill:url(#XMLID_24_)" id="path89" d="M 93.249023,172.06641 23.63623,203.18457 94.306641,234.35156 163.91992,203.23535 93.249023,172.06641 Z m 1.054688,61.20019 c -0.773438,-0.34082 -64.391113,-28.39844 -68.223145,-30.08789 3.820801,-1.70801 66.399414,-29.68262 67.171387,-30.02734 0.773438,0.34277 64.390627,28.39843 68.222657,30.08984 -3.82031,1.70703 -66.399415,29.68067 -67.170899,30.02539 z"/><linearGradient id="XMLID_25_" x1="156.909" x2="28.662" y1="140.716" y2="140.716" gradientUnits="userSpaceOnUse"><stop style="stop-color:#fff;stop-opacity:1" id="stop92" offset="0"/><stop style="stop-color:#585868;stop-opacity:1" id="stop94" offset="1"/></linearGradient><path style="fill:url(#XMLID_25_)" id="path96" d="m 92.256836,109.57275 -69.612793,31.11768 70.670898,31.16894 69.612789,-31.11914 -70.670894,-31.16748 z m 1.055176,61.20166 c -0.773926,-0.34277 -64.391114,-28.39843 -68.223633,-30.08984 3.820801,-1.70703 66.399902,-29.68115 67.171387,-30.02588 0.773437,0.34082 64.390624,28.39795 68.224614,30.0874 -3.82227,1.70899 -66.400884,29.6836 -67.172368,30.02832 z"/><g style="opacity:.3" id="g98"><path id="path100" d="m 154.22656,136.90234 -16.20117,1.5 c -1.76367,0.16211 -3.38672,0.55176 -4.09961,0.98633 -0.71484,0.4336 -0.37891,0.8252 0.84961,0.98731 l 22.33008,2.96875 5.82226,-2.6045 -8.70117,-3.83789 z"/><polygon id="polygon102" points="157.34 143.375 172.748 145.423 162.686 140.984 162.686 140.984"/><path id="path104" d="m 191.68945,153.77734 -33.94922,20.62989 c -0.96875,0.58886 16.25391,0.58886 17.22266,0 l 26.70508,-16.22852 -9.97852,-4.40137 z"/></g><linearGradient id="XMLID_26_" x1="75.57" x2="174.236" y1="90.313" y2="90.313" gradientUnits="userSpaceOnUse"><stop style="stop-color:#900;stop-opacity:1" id="stop107" offset="0"/><stop style="stop-color:#600000;stop-opacity:1" id="stop109" offset="1"/></linearGradient><path style="fill:url(#XMLID_26_)" id="path111" d="m 170.26758,5.7763672 -9.28711,0 c -0.008,0 -0.0156,0.00293 -0.0234,0.00293 -0.23242,9.766e-4 -0.46484,0.027344 -0.69531,0.069824 -0.0527,0.00977 -0.10547,0.02002 -0.15625,0.031738 -0.20899,0.047363 -0.41602,0.1054688 -0.61719,0.1870117 l -0.043,0.018555 c -0.006,0.00195 -0.01,0.00293 -0.0137,0.00488 L 78.04541,39.14209 c -1.496094,0.607422 -2.475098,2.061523 -2.475098,3.676269 0,1.614746 0.979004,3.068848 2.475098,3.67627 l 78.96826,32.068848 0,94.642573 c 0,2.19043 17.22266,2.19043 17.22266,0 l 0,-163.4619094 c 0,-2.1914062 -1.77735,-3.9677734 -3.96875,-3.9677734 z"/><linearGradient id="XMLID_27_" x1="79.538" x2="160.98" y1="42.818" y2="42.818" gradientUnits="userSpaceOnUse"><stop style="stop-color:red;stop-opacity:1" id="stop114" offset="0"/><stop style="stop-color:#900;stop-opacity:1" id="stop116" offset=".944"/><stop style="stop-color:#7c0000;stop-opacity:1" id="stop118" offset="1"/></linearGradient><polygon style="fill:url(#XMLID_27_)" id="polygon120" points="79.538 42.818 160.98 9.744 160.98 75.893 160.98 75.893"/><linearGradient id="XMLID_28_" x1="160.98" x2="170.268" y1="91.475" y2="91.475" gradientUnits="userSpaceOnUse"><stop style="stop-color:#824f26;stop-opacity:1" id="stop123" offset="0"/><stop style="stop-color:#d6a84a;stop-opacity:1" id="stop125" offset=".202"/><stop style="stop-color:#ffe091;stop-opacity:1" id="stop127" offset=".348"/><stop style="stop-color:#960;stop-opacity:1" id="stop129" offset="1"/></linearGradient><rect style="fill:url(#XMLID_28_)" id="rect131" width="9.287" height="163.462" x="160.98" y="9.744"/></g></g></svg>