<svg xmlns="http://www.w3.org/2000/svg" xmlns:svg="http://www.w3.org/2000/svg" id="svg2" width="128" height="128" version="1.1" viewBox="0 0 128 128"><metadata id="metadata18"/><g id="g8037" transform="matrix(4.2666667,0,0,4.2666667,-852.52488,-2855.7922)"><rect style="opacity:0;fill:#d45500;fill-opacity:.99215686;stroke:none" id="rect14621" width="30" height="30" x="199.811" y="669.326"/><g id="g6351"><path style="fill:#e3e2db;stroke:none" id="path14569" d="m 200.34847,688.51857 11.54853,6.54761 16.44634,-9.53785 -11.03297,-5.36182 z"/><path id="path14571" d="m 200.34847,686.81722 11.54853,6.54761 16.44634,-9.53785 -11.03297,-5.36182 z" style="fill:#c8c4b7;stroke:none"/><path style="fill:#918a6f;fill-opacity:1;stroke:none" id="path14573" d="m 200.34847,685.66378 11.54853,6.54761 16.44634,-9.53785 -11.03297,-5.36182 z"/><path id="path14575" d="m 200.34847,684.06555 11.54853,6.54761 16.44634,-9.53785 -11.03297,-5.36182 z" style="fill:#87decd;fill-opacity:1;stroke:none"/><path style="fill:#08a;fill-opacity:1;stroke:none" id="path14577" d="m 200.52892,682.66192 5.33547,2.90571 c 3.26024,0.66747 4.71749,-0.46804 5.80061,-1.9777 1.36586,1.8529 3.2306,2.49424 5.55881,2.01001 l 10.93908,-5.82515 -11.49697,-6.4445 z"/><path id="path14604" d="m 224.54791,694.88793 -5.1,-5.1 2.55,0 0,-7.65 5.1,0 0,7.65 2.55,0 -5.1,5.1 z" style="fill:#f60;fill-opacity:1"/><path style="fill:red;fill-opacity:1" id="path14685" d="m 216.59296,678.77917 -5.1,5.1 2.55,0 0,7.65 5.1,0 0,-7.65 2.55,0 -5.1,-5.1 z"/></g></g></svg>