<svg xmlns="http://www.w3.org/2000/svg" xmlns:svg="http://www.w3.org/2000/svg" xmlns:xlink="http://www.w3.org/1999/xlink" id="svg7613" width="124" height="124" version="1.1" viewBox="0 0 124 124"><defs id="defs7615"><radialGradient id="radialGradient7559" cx="55.218" cy="458.465" r="15.213" fx="55.218" fy="458.465" gradientTransform="matrix(0.55758631,0,0,0.57073983,33.783815,180.81737)" gradientUnits="userSpaceOnUse" xlink:href="#linearGradient4799"/><radialGradient id="radialGradient7503" cx="55.218" cy="458.465" r="15.213" fx="55.218" fy="458.465" gradientTransform="matrix(1.0803234,0,0,1.1058083,-31.87087,522.96741)" gradientUnits="userSpaceOnUse" xlink:href="#linearGradient4799-2"/><linearGradient id="linearGradient4799-2"><stop style="stop-color:#ffde00;stop-opacity:1" id="stop4801-4" offset="0"/><stop style="stop-color:#ffa700;stop-opacity:1" id="stop4803-8" offset="1"/></linearGradient></defs><metadata id="metadata7618"/><g id="layer1" transform="translate(0,-928.36218)"><g id="g6893"><rect style="opacity:0;fill:#fff;fill-opacity:1;stroke:none" id="rect4392" width="124" height="124" x="0" y="928.362"/><rect style="fill:#2d404e;fill-opacity:1;stroke:none" id="rect4394" width="83.097" height="103.313" x="22.417" y="939.813" ry="6.273"/><rect id="rect4396" width="83.097" height="103.313" x="19.934" y="937.33" ry="6.273" style="fill:#fff;fill-opacity:1;stroke:#70acc7;stroke-width:1.93749976;stroke-opacity:1"/><rect id="rect5030" width="20.334" height="12.449" x="26.673" y="947.933" ry="1.934" style="fill:#d7eef4;fill-opacity:1;stroke:#006192;stroke-width:1.16999996;stroke-linecap:round;stroke-linejoin:round;stroke-miterlimit:4;stroke-dasharray:none;stroke-dashoffset:0;stroke-opacity:1"/><rect id="rect4440" width="20.83" height="14.33" x="26.843" y="989.049" ry="3.304" style="fill:#fff;fill-opacity:1;stroke:#006192;stroke-width:1.17;stroke-miterlimit:4;stroke-dasharray:none;stroke-opacity:1"/><text id="text4478" x="32.671" y="1000.308" xml:space="preserve" style="font-style:normal;font-variant:normal;font-weight:700;font-stretch:normal;font-size:15.49999809px;line-height:125%;font-family:Arial;-inkscape-font-specification:'Arial Bold';text-align:start;letter-spacing:0;word-spacing:0;writing-mode:lr-tb;text-anchor:start;fill:#1a1a1a;fill-opacity:1;stroke:none"><tspan id="tspan4480" x="32.671" y="1000.308">a</tspan></text><path style="fill:url(#radialGradient7503);fill-opacity:1;stroke:#ff4100;stroke-width:1.62048495;stroke-linecap:round;stroke-linejoin:round;stroke-miterlimit:4;stroke-dasharray:none;stroke-opacity:1" id="path5144" d="m 26.195011,1025.0724 -0.05503,-9.8333 c 0.06297,-2.1592 3.965636,-2.0353 4.229969,-0.055 l 0,9.7234 6.537221,-6.5921 c 1.604153,-1.5049 3.93762,1.1364 2.526984,2.6369 l -6.097738,6.8668 8.569794,0.055 c 2.499859,0.3246 2.184783,4.4543 0.109856,4.6145 l -8.295114,-0.055 6.262541,6.0428 c 1.478545,1.6554 -0.493965,4.523 -2.691787,3.0763 l -7.031633,-6.7569 -0.05503,9.7234 c 0.248601,2.0648 -3.98317,2.455 -4.394772,0.055 l 0.05503,-9.229 -6.207614,6.2076 c -2.185306,0.5379 -3.979237,-1.0158 -3.131271,-2.9116 l 6.592149,-6.3174 -9.503688,0.11 c -2.341042,-0.4546 -2.284235,-4.3097 0.05502,-4.6145 l 9.72342,-0.055 -6.811881,-6.702 c -1.325328,-2.1093 0.948697,-4.2446 2.746735,-2.9665 z"/><g id="g6858" transform="translate(-1.0000029,0)"><rect id="rect6852" width="20.334" height="12.449" x="52.673" y="947.933" ry="1.596" style="fill:#006192;fill-opacity:1;stroke:#006192;stroke-width:1.16999996;stroke-linecap:round;stroke-linejoin:round;stroke-miterlimit:4;stroke-dasharray:none;stroke-dashoffset:0;stroke-opacity:1"/><text id="text5926" x="58.149" y="958.537" xml:space="preserve" style="font-style:normal;font-variant:normal;font-weight:700;font-stretch:normal;font-size:16.57937241px;line-height:125%;font-family:Arial;-inkscape-font-specification:'Arial Bold';text-align:start;letter-spacing:0;word-spacing:0;writing-mode:lr-tb;text-anchor:start;fill:#fff;fill-opacity:1;stroke:none"><tspan id="tspan5928" x="58.149" y="958.537">c</tspan></text></g><rect style="fill:#fff;fill-opacity:1;stroke:#006192;stroke-width:1.17;stroke-miterlimit:4;stroke-dasharray:none;stroke-opacity:1" id="rect5930" width="20.83" height="14.33" x="51.29" y="989.049" ry="3.304"/><text style="font-style:normal;font-variant:normal;font-weight:700;font-stretch:normal;font-size:15.49999809px;line-height:125%;font-family:Arial;-inkscape-font-specification:'Arial Bold';text-align:start;letter-spacing:0;word-spacing:0;writing-mode:lr-tb;text-anchor:start;fill:#1a1a1a;fill-opacity:1;stroke:none" id="text4498" x="56.778" y="1001.754" xml:space="preserve"><tspan id="tspan4500" x="56.778" y="1001.754">b</tspan></text><rect style="fill:#ffdc00;fill-opacity:1;stroke:#006192;stroke-width:1.17045832;stroke-miterlimit:4;stroke-dasharray:none;stroke-opacity:1" id="rect4438" width="20.83" height="14.33" x="75.738" y="989.049" ry="3.304"/><path id="path6836" d="m 65.982415,964.80198 15.145804,18.4466" style="fill:none;fill-rule:evenodd;stroke:#ff5a00;stroke-width:2.70000005;stroke-linecap:round;stroke-linejoin:round;stroke-miterlimit:4;stroke-dasharray:none;stroke-opacity:1"/><rect id="rect6854" width="20.334" height="12.449" x="76.673" y="947.933" ry="2.188" style="fill:#d7eef4;fill-opacity:1;stroke:#006192;stroke-width:1.16999996;stroke-linecap:round;stroke-linejoin:round;stroke-miterlimit:4;stroke-dasharray:none;stroke-dashoffset:0;stroke-opacity:1"/><path style="fill:none;fill-rule:evenodd;stroke:#ff5a00;stroke-width:2;stroke-linecap:round;stroke-linejoin:round;stroke-miterlimit:4;stroke-dasharray:none;stroke-opacity:1" id="path6856" d="m 74.486901,983.22282 7.680728,1.32869 -0.02569,-7.6745"/></g></g></svg>