<svg xmlns="http://www.w3.org/2000/svg" xmlns:svg="http://www.w3.org/2000/svg" xmlns:xlink="http://www.w3.org/1999/xlink" id="svg2" width="128" height="128" version="1.1" viewBox="0 0 128 128"><metadata id="metadata18"/><defs id="defs16"><linearGradient id="linearGradient21211"><stop style="stop-color:#aad400;stop-opacity:1" id="stop21213" offset="0"/><stop style="stop-color:green;stop-opacity:1" id="stop21215" offset="1"/></linearGradient><linearGradient id="linearGradient21217" x1="61.277" x2="62.319" y1="123.421" y2="33.966" gradientTransform="translate(0,-6)" gradientUnits="userSpaceOnUse" xlink:href="#linearGradient21211"/></defs><rect id="rect14306" width="118.866" height="118.866" x="4.135" y="4.712" style="opacity:0;fill:#fff;fill-opacity:.99215686;stroke:none"/><path style="fill:#93a7ac;fill-opacity:1;stroke:none" id="rect14227" d="m 22.690507,45.908695 80.198793,0 18.09727,44.344488 -25.154834,21.790127 -62.10933,0.83722 L 7.1618176,90.047941 Z"/><path style="fill:#afdde9;stroke:none" id="path14236" d="M 30.128405,51.100892 97.733596,51.34853 115.06826,92.951725 94.656862,109.1637 36.813524,106.0561 13.041379,92.456449 Z"/><path style="fill:#045;fill-opacity:1;stroke:none" id="rect14233" d="m 10.812637,72.150128 26.497272,0 c -3.043412,32.624552 49.198749,46.184262 52.746908,0 l 27.735463,0 0,43.584302 -106.979643,0 z"/><path style="fill:#006680;fill-opacity:1" id="path14221" d="m 104.42799,38.53023 -8.306894,0 18.572854,37.145709 -21.409676,0 c 0,16.410955 -13.305693,29.716531 -29.716568,29.716531 -16.410836,0 -29.716567,-13.305695 -29.716567,-29.716531 l -21.409638,0 18.572854,-37.145709 -8.306929,0 -18.572855,37.145709 0,44.574851 118.866269,0 0,-44.574851 -18.57285,-37.145709 z"/><path style="fill:#045;fill-opacity:1;stroke:none" id="rect14230" d="m 22.624853,38.554122 81.665327,-0.17513 -4.1369,8.054894 -73.697961,0.08756 z"/><path style="fill:url(#linearGradient21217);fill-opacity:1" id="path14225" d="m 62.517087,2.0385748 -29.716568,29.7165682 14.858284,0 0,44.574851 29.716567,0 0,-44.574851 14.858284,0 L 62.517087,2.0385748 Z"/></svg>