<svg xmlns="http://www.w3.org/2000/svg" xmlns:svg="http://www.w3.org/2000/svg" xmlns:xlink="http://www.w3.org/1999/xlink" id="svg4846" width="128" height="128" version="1.0" viewBox="0 0 128 128"><metadata id="metadata5458"/><defs id="defs4848"><linearGradient id="linearGradient4627"><stop style="stop-color:#b3b3b3;stop-opacity:1" id="stop4629" offset="0"/><stop style="stop-color:#fff;stop-opacity:1" id="stop4631" offset="1"/></linearGradient><linearGradient id="linearGradient5032"><stop style="stop-color:#ce1212;stop-opacity:1" id="stop5034" offset="0"/><stop style="stop-color:#ff1212;stop-opacity:1" id="stop5036" offset="1"/></linearGradient><linearGradient id="linearGradient5024"><stop style="stop-color:#fff;stop-opacity:1" id="stop5026" offset="0"/><stop style="stop-color:#fff;stop-opacity:0" id="stop5028" offset="1"/></linearGradient><radialGradient id="g5" cx="295.471" cy="186.096" r="179.55" gradientTransform="matrix(1.14292e-8,1.531256,-0.876504,-2.165967e-5,462.7486,-245.0023)" gradientUnits="userSpaceOnUse"><stop style="stop-color:#fff;stop-opacity:1" id="stop4889" offset="0"/><stop style="stop-color:#fff;stop-opacity:1" id="stop4891" offset=".5"/><stop style="stop-color:#d5d5d5;stop-opacity:1" id="stop4893" offset="1"/></radialGradient><linearGradient id="g4" x1="250.398" x2="412.094" y1="101.536" y2="264.542" gradientTransform="matrix(0.960006,0,0,0.960006,11.68071,9.787565)" gradientUnits="userSpaceOnUse"><stop style="stop-color:#ffd9d9;stop-opacity:1" id="stop4884" offset="0"/><stop style="stop-color:#ff2727;stop-opacity:1" id="stop4886" offset="1"/></linearGradient><linearGradient id="g3" x1="187.874" x2="581.837" y1="224.599" y2="483.1" gradientTransform="matrix(0.960006,0,0,0.960006,11.68071,9.787558)" gradientUnits="userSpaceOnUse"><stop style="stop-color:#ec6c60;stop-opacity:1" id="stop4879" offset="0"/><stop style="stop-color:#d11412;stop-opacity:1" id="stop4881" offset="1"/></linearGradient><linearGradient id="g2" x1="530.81" x2="174.805" y1="486.631" y2="211.23" gradientTransform="matrix(0.960006,0,0,0.960006,11.68071,9.787565)" gradientUnits="userSpaceOnUse"><stop style="stop-color:#9a0000;stop-opacity:1" id="stop4874" offset="0"/><stop style="stop-color:#f22803;stop-opacity:1" id="stop4876" offset="1"/></linearGradient><linearGradient id="g1" x1="41.195" x2="118.931" y1="616.477" y2="527.555" gradientTransform="matrix(4.556763,0,0,-4.315033,37.49756,2758.519)" gradientUnits="userSpaceOnUse"><stop style="stop-color:#b00;stop-opacity:1" id="stop4869" offset="0"/><stop style="stop-color:#5f0000;stop-opacity:1" id="stop4871" offset="1"/></linearGradient><radialGradient id="radialGradient4978" cx="295.471" cy="186.096" r="179.55" gradientTransform="matrix(0,0.2725026,-0.1559828,-3.8545592e-6,437.26559,613.56411)" gradientUnits="userSpaceOnUse" xlink:href="#g5"/><linearGradient id="linearGradient4981" x1="250.398" x2="412.094" y1="101.536" y2="264.542" gradientTransform="matrix(0.1708429,0,0,0.1708429,356.99346,658.90657)" gradientUnits="userSpaceOnUse" xlink:href="#g4"/><linearGradient id="linearGradient4984" x1="187.874" x2="581.837" y1="224.599" y2="483.1" gradientTransform="matrix(0.1708429,0,0,0.1708429,356.99346,658.90657)" gradientUnits="userSpaceOnUse" xlink:href="#g3"/><linearGradient id="linearGradient4987" x1="530.81" x2="174.805" y1="486.631" y2="211.23" gradientTransform="matrix(0.1708429,0,0,0.1708429,356.99346,658.90657)" gradientUnits="userSpaceOnUse" xlink:href="#g2"/><linearGradient id="linearGradient4990" x1="41.195" x2="118.931" y1="616.477" y2="527.555" gradientTransform="matrix(0.8109225,0,0,-0.7679041,361.58783,1148.0714)" gradientUnits="userSpaceOnUse" xlink:href="#g1"/><linearGradient id="linearGradient5030" x1="466.688" x2="466.688" y1="664.792" y2="709.067" gradientUnits="userSpaceOnUse" xlink:href="#linearGradient5024"/><linearGradient id="linearGradient5038" x1="-6.627" x2="16" y1="48" y2="-6.627" gradientUnits="userSpaceOnUse" xlink:href="#linearGradient5032"/><filter id="filter5068"><feGaussianBlur id="feGaussianBlur5070" stdDeviation=".164"/></filter><linearGradient id="linearGradient5099" x1="-6.627" x2="16" y1="48" y2="-6.627" gradientUnits="userSpaceOnUse" xlink:href="#linearGradient5032"/><linearGradient id="linearGradient5101" x1="466.688" x2="466.688" y1="664.792" y2="709.067" gradientUnits="userSpaceOnUse" xlink:href="#linearGradient5024"/><linearGradient id="linearGradient5125" x1="-6.627" x2="16" y1="48" y2="-6.627" gradientUnits="userSpaceOnUse" xlink:href="#linearGradient5032"/><linearGradient id="linearGradient5127" x1="466.688" x2="466.688" y1="664.792" y2="709.067" gradientUnits="userSpaceOnUse" xlink:href="#linearGradient5024"/><linearGradient id="linearGradient5473" x1="-6.627" x2="16" y1="48" y2="-6.627" gradientUnits="userSpaceOnUse" xlink:href="#linearGradient5032"/><linearGradient id="linearGradient5475" x1="466.688" x2="466.688" y1="664.792" y2="709.067" gradientUnits="userSpaceOnUse" xlink:href="#linearGradient5024"/><linearGradient id="linearGradient5489" x1="-6.627" x2="16" y1="48" y2="-6.627" gradientUnits="userSpaceOnUse" xlink:href="#linearGradient5032"/><linearGradient id="linearGradient5491" x1="466.688" x2="466.688" y1="664.792" y2="709.067" gradientUnits="userSpaceOnUse" xlink:href="#linearGradient5024"/><linearGradient id="linearGradient5494" x1="466.688" x2="466.688" y1="664.792" y2="709.067" gradientTransform="matrix(3.7565752,0,0,3.7565752,-1744.9919,-2506.73)" gradientUnits="userSpaceOnUse" xlink:href="#linearGradient5024"/><linearGradient id="linearGradient4633" x1="186.579" x2="197.533" y1="86.504" y2="64.49" gradientUnits="userSpaceOnUse" xlink:href="#linearGradient4627"/><filter style="color-interpolation-filters:sRGB" id="filter4664" width="1.08" height="1.089" x="-.04" y="-.044"><feGaussianBlur id="feGaussianBlur4666" stdDeviation="1.857"/></filter></defs><g id="g4677"><rect id="rect4668" width="128" height="128" x="0" y="0" style="opacity:0;fill:#fff;fill-opacity:.82941176;stroke:none;stroke-width:.2;stroke-linecap:square;stroke-linejoin:bevel;stroke-miterlimit:4;stroke-dasharray:none;stroke-dashoffset:0;stroke-opacity:.46842107"/><g id="g4670" transform="translate(-1.9485997,-2.5675095)"><path style="font-style:normal;font-variant:normal;font-weight:700;font-stretch:normal;font-size:medium;line-height:125%;font-family:'Open Sans';-inkscape-font-specification:'Open Sans, Bold';text-align:start;letter-spacing:0;word-spacing:0;writing-mode:lr-tb;text-anchor:start;fill:gray;fill-opacity:.89019608;stroke:none;stroke-width:1px;stroke-linecap:butt;stroke-linejoin:miter;stroke-opacity:1;filter:url(#filter4664)" id="path4644" d="m 37.246453,16.487476 c -8.295552,-10e-6 -16.055386,3.20549 -20.876954,9.61524 -4.73341,6.29261 -6.4355466,14.51093 -6.4355466,24.03515 0,9.42944 1.8469166,17.68735 6.6425786,24.05078 a 5.5219902,5.5219902 0 0 0 0.02734,0.02735 c 0.0093,0.0122 0.02,0.02297 0.0293,0.03515 a 5.5219902,5.5219902 0 0 0 0.02539,0.03321 c 4.852831,6.33702 12.449876,9.72265 20.587891,9.72265 1.231291,0 2.28855,-0.57117 3.488281,-0.71289 L 29.467156,103.67108 c -1.348617,2.44084 -1.308529,5.59355 0.107422,7.99609 1.416739,2.40404 4.158771,3.9719 6.949218,3.97266 l 13.384766,0 c 2.862891,-5.3e-4 5.669913,-1.65359 7.056641,-4.15821 a 5.5219902,5.5219902 0 0 0 0,-0.004 L 68.056999,91.413256 c 0.893288,5.76716 2.416973,11.131914 5.642579,15.412114 a 5.5219902,5.5219902 0 0 0 0.02734,0.0273 c 4.848425,6.3794 12.470197,9.79492 20.642578,9.79492 8.223114,0 15.914104,-3.16739 20.826174,-9.42578 a 5.5219902,5.5219902 0 0 0 0.0977,-0.11914 c 0.009,-0.0114 0.0185,-0.0218 0.0273,-0.0332 a 5.5219902,5.5219902 0 0 0 0.0215,-0.0254 c 4.84462,-6.33683 6.62109,-14.643474 6.62109,-24.216794 0,-9.30174 -1.90637,-17.4955 -6.73242,-23.79688 -4.87411,-6.44645 -12.58636,-9.84765 -20.85938,-9.84765 -1.184372,0 -2.196821,0.55443 -3.351563,0.68554 l 11.187503,-20.23437 0,-0.0059 c 1.34862,-2.44083 1.31045,-5.59356 -0.10547,-7.9961 -1.41671,-2.40403 -4.160726,-3.96995 -6.951174,-3.9707 l -13.384765,0 c -2.862865,5.2e-4 -5.669912,1.65164 -7.056641,4.15625 a 5.5219902,5.5219902 0 0 0 0,0.0059 l -10.894531,19.71289 c -0.913893,-5.6823 -2.467438,-10.973 -5.701172,-15.19531 -4.87425,-6.44658 -12.588412,-9.85352 -20.865234,-9.85352 l -0.002,0 z"/><g id="g4637" transform="matrix(2.7183824,0,0,2.7183824,-449.33552,-155.9813)"><path id="path4625" d="m 178.21289,62.400391 c -3.05165,-2e-6 -5.906,1.17918 -7.67969,3.537109 -1.74126,2.314836 -2.36718,5.338162 -2.36718,8.841797 0,3.46877 0.6792,6.506762 2.44336,8.847656 a 2.0313515,2.0313515 0 0 0 0.01,0.0098 c 1.78429,2.347738 4.58906,3.601562 7.59375,3.601562 0.45295,0 0.84186,-0.209586 1.2832,-0.261719 l -4.14453,7.496094 c -0.49611,0.897899 -0.48178,2.057595 0.0391,2.941406 0.52117,0.884364 1.53014,1.460661 2.55665,1.460938 l 4.92382,0 c 1.05316,-1.94e-4 2.08558,-0.607935 2.59571,-1.529297 a 2.0313515,2.0313515 0 0 0 0,-0.002 l 4.08008,-7.380859 c 0.32861,2.121541 0.88958,4.095381 2.07617,5.669921 a 2.0313515,2.0313515 0 0 0 0.01,0.0098 c 1.78357,2.346763 4.58741,3.603516 7.59375,3.603516 3.05007,0 5.90223,-1.183082 7.70703,-3.523438 a 2.0313515,2.0313515 0 0 0 0.008,-0.0098 c 1.78217,-2.331102 2.43554,-5.386506 2.43554,-8.908203 0,-3.421793 -0.70122,-6.435845 -2.47656,-8.753907 -1.79302,-2.371429 -4.63047,-3.623047 -7.67383,-3.623047 -0.43569,0 -0.80763,0.203726 -1.23242,0.251954 l 4.11524,-7.44336 0,-0.002 c 0.49611,-0.897899 0.48177,-2.057594 -0.0391,-2.941406 -0.52116,-0.884364 -1.53013,-1.460661 -2.55664,-1.460938 l -4.92383,0 c -1.05315,1.94e-4 -2.08557,0.607935 -2.5957,1.529297 a 2.0313515,2.0313515 0 0 0 0,0.002 L 187.987,71.61522 c -0.33619,-2.090325 -0.90808,-4.0366 -2.09766,-5.589843 -1.79307,-2.371474 -4.63102,-3.625 -7.67578,-3.625 z m 28.7207,33.322265 -0.16406,0.1875 a 2.0313515,2.0313515 0 0 0 0.16406,-0.1875 z m -15.30078,-0.08008 a 2.0313515,2.0313515 0 0 0 0.17383,0.201172 l -0.17383,-0.201172 z M 170.61914,83.636719 a 2.0313515,2.0313515 0 0 0 0.17383,0.201172 l -0.17383,-0.201172 z" style="font-style:normal;font-variant:normal;font-weight:700;font-stretch:normal;font-size:medium;line-height:125%;font-family:'Open Sans';-inkscape-font-specification:'Open Sans, Bold';text-align:start;letter-spacing:0;word-spacing:0;writing-mode:lr-tb;text-anchor:start;fill:#1e5bc3;fill-opacity:.89019608;stroke:none;stroke-width:1px;stroke-linecap:butt;stroke-linejoin:miter;stroke-opacity:1"/><path id="path4621" d="m 178.21289,63.810547 c -2.70506,-10e-7 -5.07483,1.00534 -6.55469,2.972656 -1.47986,1.967317 -2.08203,4.66364 -2.08203,7.996094 0,3.283484 0.64662,5.991652 2.16016,8 a 1.5576152,1.5576152 0 0 0 0.004,0.0059 c 1.50868,1.985079 3.84295,3.042969 6.47266,3.042969 1.51734,0 2.87487,-0.397909 4.0918,-1.025391 l -5.72071,10.351563 a 1.5576152,1.5576152 0 0 0 1.36329,2.310547 l 4.92382,0 a 1.5576152,1.5576152 0 0 0 1.36329,-0.802735 l 6.57617,-11.896484 c -0.0648,0.687198 -0.22071,1.285656 -0.22071,2.039063 0,3.270693 0.64771,5.973545 2.16016,7.980468 a 1.5576152,1.5576152 0 0 0 0.004,0.0059 c 1.50831,1.984591 3.84204,3.044921 6.47265,3.044922 2.70179,-10e-7 5.07578,-1.011265 6.58985,-2.97461 a 1.5576152,1.5576152 0 0 0 0.004,-0.0059 c 1.51807,-1.98565 2.14649,-4.705768 2.14649,-8.050781 0,-3.23212 -0.66096,-5.914488 -2.1875,-7.904297 -1.51363,-2.003787 -3.87753,-3.0625 -6.55274,-3.0625 -1.48753,0 -2.82502,0.369586 -4.01758,0.970703 l 5.66797,-10.25586 a 1.5576152,1.5576152 0 0 0 -1.36328,-2.310546 l -4.92383,0 a 1.5576152,1.5576152 0 0 0 -1.36328,0.802734 l -6.49609,11.751953 c 0.0646,-0.681349 0.22265,-1.272907 0.22265,-2.017578 0,-3.231446 -0.65852,-5.913862 -2.18554,-7.904297 -1.51376,-2.003942 -3.87861,-3.064453 -6.55469,-3.064453 z m 0.0254,7.632812 c 0.0198,0.04113 0.0177,0.01644 0.0391,0.07227 0.20458,0.534369 0.39063,1.687944 0.39063,3.304687 0,1.631263 -0.18642,2.797078 -0.39258,3.339844 -0.0211,0.05547 -0.0195,0.03097 -0.0391,0.07227 -0.006,-0.01465 -0.005,-0.0052 -0.0117,-0.02148 -0.19351,-0.560145 -0.36328,-1.741228 -0.36328,-3.390626 0,-1.65133 0.17538,-2.825492 0.35937,-3.339843 0.011,-0.02897 0.007,-0.01294 0.0176,-0.03711 z m 21.01563,12.025391 c 0.0196,0.04082 0.016,0.01706 0.0371,0.07227 0.20458,0.534369 0.39062,1.687943 0.39062,3.304687 0,1.631262 -0.18627,2.796386 -0.39258,3.339844 -0.0214,0.05647 -0.0191,0.0324 -0.0391,0.07422 -0.006,-0.01465 -0.005,-0.0052 -0.0117,-0.02148 -0.19327,-0.559499 -0.36328,-1.743184 -0.36328,-3.392578 0,-1.651322 0.17513,-2.822804 0.35938,-3.337891 0.0116,-0.03065 0.008,-0.01373 0.0195,-0.03906 z" style="font-style:normal;font-variant:normal;font-weight:700;font-stretch:normal;font-size:medium;line-height:125%;font-family:'Open Sans';-inkscape-font-specification:'Open Sans, Bold';text-align:start;letter-spacing:0;word-spacing:0;writing-mode:lr-tb;text-anchor:start;fill:#4e88e7;fill-opacity:.82941176;stroke:none;stroke-width:1px;stroke-linecap:butt;stroke-linejoin:miter;stroke-opacity:1"/><path style="font-style:normal;font-variant:normal;font-weight:700;font-stretch:normal;font-size:medium;line-height:125%;font-family:'Open Sans';-inkscape-font-specification:'Open Sans, Bold';text-align:start;letter-spacing:0;word-spacing:0;writing-mode:lr-tb;text-anchor:start;fill:url(#linearGradient4633);fill-opacity:1;stroke:none;stroke-width:1px;stroke-linecap:butt;stroke-linejoin:miter;stroke-opacity:1" id="path4606" d="m 176.30502,74.819578 q 0,2.615445 0.45147,3.912871 0.47198,1.276831 1.49803,1.276831 1.97002,0 1.97002,-5.189702 0,-5.148515 -1.97002,-5.148515 -1.02605,0 -1.49803,1.276831 -0.45147,1.256239 -0.45147,3.871684 z m 9.09082,-0.04118 q 0,4.736633 -1.82637,7.125544 -1.82637,2.368317 -5.35599,2.368317 -3.38597,0 -5.23286,-2.430099 -1.8469,-2.450693 -1.8469,-7.063762 0,-9.411485 7.07976,-9.411485 3.46805,0 5.31495,2.450692 1.86741,2.4301 1.86741,6.960793 z m 14.11847,-8.97901 -16.64255,30.108514 -4.92505,0 16.64256,-30.108514 4.92504,0 z m -2.19575,21.047128 q 0,2.615445 0.45146,3.912871 0.47199,1.276831 1.49804,1.276831 1.97002,0 1.97002,-5.189702 0,-5.148515 -1.97002,-5.148515 -1.02605,0 -1.49804,1.276832 -0.45146,1.256238 -0.45146,3.871683 z m 9.09082,-0.04119 q 0,4.716039 -1.82637,7.10495 -1.82637,2.368317 -5.35599,2.368317 -3.38597,0 -5.23287,-2.4301 -1.84688,-2.450692 -1.84688,-7.043167 0,-9.411485 7.07975,-9.411485 3.46806,0 5.31494,2.450693 1.86742,2.430099 1.86742,6.960792 z"/></g></g></g></svg>