<svg xmlns="http://www.w3.org/2000/svg" xmlns:svg="http://www.w3.org/2000/svg" xmlns:xlink="http://www.w3.org/1999/xlink" id="svg2" width="136.533" height="136.533" version="1.0" viewBox="0 0 128 128"><metadata id="metadata170"/><defs id="defs4"><linearGradient id="linearGradient1520"><stop style="stop-color:#d35f5f;stop-opacity:1" id="stop1516" offset="0"/><stop style="stop-color:#d35f5f;stop-opacity:0" id="stop1518" offset="1"/></linearGradient><linearGradient id="linearGradient3377"><stop id="stop3379" offset="0" stop-color="#00339e"/><stop id="stop3387" offset=".324" stop-color="#0062c8"/><stop id="stop3381" offset="1" stop-color="#4fb0ec"/></linearGradient><filter id="filter3210"><feGaussianBlur id="feGaussianBlur3212" stdDeviation=".49"/></filter><filter id="filter3283"><feGaussianBlur id="feGaussianBlur3285" stdDeviation=".299"/></filter><filter id="filter3425"><feGaussianBlur id="feGaussianBlur3427" stdDeviation=".302"/></filter><filter id="filter3437"><feGaussianBlur id="feGaussianBlur3439" stdDeviation=".901"/></filter><linearGradient id="linearGradient3947" x1="127.95" x2="127.95" y1="77.207" y2="307.61" gradientTransform="matrix(0.29558569,0,0,0.29558569,128.09228,-3.0617627)" gradientUnits="userSpaceOnUse"><stop id="stop563" offset="0" stop-color="#3c3"/><stop id="stop564" offset="1" stop-color="#366"/></linearGradient><linearGradient id="linearGradient3949" x1="127.95" x2="127.95" y1="77.367" y2="307.36" gradientTransform="matrix(0.38177,0,0,0.38177,445.32,231.28)" gradientUnits="userSpaceOnUse"><stop id="stop570" offset=".006" stop-color="#cf6"/><stop id="stop571" offset="1" stop-color="#090"/></linearGradient><radialGradient id="radialGradient2330" cx="36.255" cy="19.631" r="7.353" gradientTransform="matrix(0.8855233,-5.1041439e-8,5.6427462e-8,1.0375105,3.6102318,18.999776)" gradientUnits="userSpaceOnUse"><stop id="stop3255" offset="0" stop-color="#fff"/><stop id="stop3257" offset="1" stop-color="#fff" stop-opacity=".5"/></radialGradient><linearGradient id="linearGradient2333" x1="351.29" x2="352.78" y1="258.97" y2="244.68" gradientTransform="matrix(0.82504732,0,0,0.84937413,-250.6023,-177.03594)" gradientUnits="userSpaceOnUse"><stop id="stop3240" offset="0" stop-color="#21b933"/><stop id="stop3246" offset=".151" stop-color="#35cd35"/><stop id="stop3242" offset="1" stop-color="#d2ffd1"/></linearGradient><linearGradient id="linearGradient2336" x1="350.66" x2="350.66" y1="264.18" y2="249.71" gradientTransform="matrix(0.82504732,0,0,0.84937413,-250.6023,-177.03594)" gradientUnits="userSpaceOnUse"><stop id="stop3230" offset="0" stop-color="#037806"/><stop id="stop3232" offset="1" stop-color="#39b71d"/></linearGradient><linearGradient id="linearGradient2339" x1="30.422" x2="63.776" y1="16.662" y2="16.662" gradientTransform="matrix(0.82504732,0,0,0.84937413,5.8015575,22.688948)" gradientUnits="userSpaceOnUse"><stop id="stop3218" offset="0" stop-color="#306266"/><stop id="stop3224" offset=".5" stop-color="#026404"/><stop id="stop3220" offset="1" stop-color="#002931"/></linearGradient><linearGradient id="linearGradient2343" x1="409.9" x2="405.43" y1="317.2" y2="305.46" gradientTransform="matrix(0.97256577,0,0,1.0012422,-305.16702,-222.83963)" gradientUnits="userSpaceOnUse"><stop id="stop3348" offset="0" stop-color="#fff"/><stop id="stop3350" offset="1" stop-color="#b5daff"/></linearGradient><linearGradient id="linearGradient2346" x1="350.34" x2="385.93" y1="339.33" y2="257.7" gradientTransform="matrix(0.82504732,0,0,0.84937413,-245.4831,-176.13255)" gradientUnits="userSpaceOnUse" xlink:href="#linearGradient3377"/><linearGradient id="linearGradient2352" x1="105.23" x2="100.08" y1="85.691" y2="70.443" gradientTransform="matrix(0.82504732,0,0,0.84937413,5.8015575,22.688948)" gradientUnits="userSpaceOnUse"><stop id="stop3340" offset="0" stop-color="#fff"/><stop id="stop3342" offset="1" stop-color="#d0e9ff"/></linearGradient><linearGradient id="linearGradient2355" x1="55.679" x2="55.679" y1="94.561" y2="28.459" gradientTransform="matrix(0.82504732,0,0,0.84937413,5.8015575,22.688948)" gradientUnits="userSpaceOnUse"><stop id="stop3610" offset="0" stop-color="#a166d7"/><stop id="stop3612" offset="1" stop-color="#fc76fd"/></linearGradient><linearGradient id="linearGradient2360" x1="354.4" x2="366.64" y1="332.65" y2="264.79" gradientTransform="matrix(0.82504732,0,0,0.84937413,-245.4831,-176.13255)" gradientUnits="userSpaceOnUse"><stop id="stop3332" offset="0" stop-color="#badeff"/><stop id="stop3334" offset="1" stop-color="#fff"/></linearGradient><linearGradient id="linearGradient2363" x1="47.893" x2="47.893" y1="101.58" y2="28.659" gradientTransform="matrix(0.82504732,0,0,0.84937413,5.8015575,22.688948)" gradientUnits="userSpaceOnUse"><stop id="stop3326" offset="0" stop-color="#e3effa"/><stop id="stop3328" offset="1" stop-color="#fff"/></linearGradient><linearGradient id="linearGradient2367" x1="80.626" x2="62.709" y1="95.051" y2="25.053" gradientTransform="matrix(0.82504732,0,0,0.84937413,5.8015575,22.688948)" gradientUnits="userSpaceOnUse"><stop id="stop3642" offset="0" stop-color="#ffdc8b"/><stop id="stop3644" offset="1" stop-color="#ffecb8"/></linearGradient><linearGradient id="linearGradient2370" x1="42.926" x2="12.753" y1="107.47" y2="22.031" gradientUnits="userSpaceOnUse"><stop id="stop3204" offset="0" stop-color="#fff"/><stop id="stop3206" offset="1" stop-color="#fff" stop-opacity=".5"/></linearGradient><linearGradient id="linearGradient2373" x1="399.44" x2="365.23" y1="319.77" y2="245.74" gradientTransform="matrix(0.82504732,0,0,0.84937413,-245.4831,-176.13255)" gradientUnits="userSpaceOnUse"><stop id="stop3196" offset="0" stop-color="#febf2d"/><stop id="stop3198" offset="1" stop-color="#fff0c3"/></linearGradient><linearGradient id="linearGradient2376" x1="342.52" x2="362.7" y1="347.77" y2="291.78" gradientTransform="matrix(0.82504732,0,0,0.84937413,-245.4831,-176.13255)" gradientUnits="userSpaceOnUse"><stop id="stop3188" offset="0" stop-color="#ffec2d"/><stop id="stop3190" offset="1" stop-color="#ff6d00"/></linearGradient><linearGradient id="linearGradient2379" x1="40.437" x2="77.453" y1="117.11" y2="17.886" gradientTransform="matrix(0.82504732,0,0,0.84937413,5.8015575,22.688948)" gradientUnits="userSpaceOnUse"><stop id="stop3172" offset="0" stop-color="#820000"/><stop id="stop3174" offset="1" stop-color="#fe3200"/></linearGradient><radialGradient id="radialGradient3362" cx="515.44" cy="258.95" r="30.028" gradientTransform="matrix(-0.64780502,0,1.2103102e-6,-0.62421925,532.89419,175.0211)" gradientUnits="userSpaceOnUse"><stop id="stop3931" offset="0" stop-color="#ceff67"/><stop id="stop3933" offset="1" stop-color="#ceff67" stop-opacity="0"/></radialGradient><radialGradient id="radialGradient3365" cx="57.085" cy="101.16" r="120.81" gradientTransform="matrix(0.30797812,0,0,0.23092249,134.19922,-10.148605)" gradientUnits="userSpaceOnUse"><stop id="stop3917" offset="0" stop-color="#fff"/><stop id="stop3919" offset="1" stop-color="#82d655"/></radialGradient><linearGradient id="linearGradient3370" x1="127.95" x2="127.95" y1="47.327" y2="212.99" gradientTransform="matrix(0.31444,0,0,0.31444,51.06,9.0285)" gradientUnits="userSpaceOnUse"><stop id="stop556" offset="0" stop-color="#090"/><stop id="stop557" offset="1" stop-color="#334966"/></linearGradient><filter id="filter3315"><feGaussianBlur id="feGaussianBlur3317" stdDeviation=".324"/></filter><filter id="filter5261"><feGaussianBlur id="feGaussianBlur5263" stdDeviation=".3"/></filter><filter id="filter6238"><feGaussianBlur id="feGaussianBlur6240" stdDeviation="1.909"/></filter><linearGradient id="linearGradient8308" x1="350.34" x2="385.93" y1="339.33" y2="257.7" gradientTransform="matrix(0.82504732,0,0,0.84937413,-245.4831,-176.13255)" gradientUnits="userSpaceOnUse" xlink:href="#linearGradient3377"/><linearGradient id="linearGradient4799-20"><stop style="stop-color:#ffde00;stop-opacity:1" id="stop4801-43" offset="0"/><stop style="stop-color:#ffa700;stop-opacity:1" id="stop4803-95" offset="1"/></linearGradient><clipPath id="clipPath11304" clipPathUnits="userSpaceOnUse"><path id="path11306" d="m 217.1543,1006.1716 23.37448,0 0,22.3786 -23.37448,0 z" style="fill:#9dd0f6;fill-opacity:1"/></clipPath><linearGradient id="linearGradient1522" x1="28.346" x2="50.432" y1="37.507" y2="37.507" gradientTransform="translate(5.1191966,0.90338764)" gradientUnits="userSpaceOnUse" xlink:href="#linearGradient1520"/><linearGradient id="XMLID_15_" x1="105.151" x2="228.316" y1="177.914" y2="177.914" gradientTransform="matrix(0.46699465,0,0,0.46699465,-160.99497,6.981555)" gradientUnits="userSpaceOnUse"><stop style="stop-color:#585868;stop-opacity:1" id="stop12" offset="0"/><stop style="stop-color:#336;stop-opacity:1" id="stop14" offset="1"/></linearGradient><linearGradient id="XMLID_16_" x1="105.159" x2="228.32" y1="177.914" y2="177.914" gradientUnits="userSpaceOnUse"><stop style="stop-color:#cecedb;stop-opacity:1" id="stop19" offset="0"/><stop style="stop-color:#7d7d99;stop-opacity:1" id="stop21" offset="1"/></linearGradient><linearGradient id="XMLID_17_" x1="31.684" x2="224.316" y1="177.914" y2="177.914" gradientUnits="userSpaceOnUse"><stop style="stop-color:#cecedb;stop-opacity:1" id="stop26" offset="0"/><stop style="stop-color:#336;stop-opacity:1" id="stop28" offset="1"/></linearGradient><linearGradient id="XMLID_18_" x1="29.924" x2="120.602" y1="-181.638" y2="-181.638" gradientTransform="matrix(0.7069,0.7074,-0.7074,0.7069,-18.47993,247.2877)" gradientUnits="userSpaceOnUse"><stop style="stop-color:#e6edff;stop-opacity:1" id="stop33" offset="0"/><stop style="stop-color:#9a9ab1;stop-opacity:1" id="stop35" offset="1"/></linearGradient><linearGradient id="XMLID_19_" x1="99.091" x2="227.337" y1="172.127" y2="172.127" gradientTransform="matrix(0.46699465,0,0,0.46699465,-160.99497,6.981555)" gradientUnits="userSpaceOnUse"><stop style="stop-color:#fff;stop-opacity:1" id="stop40" offset="0"/><stop style="stop-color:#585868;stop-opacity:1" id="stop42" offset="1"/></linearGradient><linearGradient id="XMLID_20_" x1="91.436" x2="198.566" y1="203.194" y2="203.856" gradientUnits="userSpaceOnUse"><stop style="stop-color:#e6edff;stop-opacity:1" id="stop47" offset="0"/><stop style="stop-color:#7d7d99;stop-opacity:1" id="stop49" offset="1"/></linearGradient><linearGradient id="XMLID_21_" x1="29.798" x2="172.747" y1="140.716" y2="140.716" gradientUnits="userSpaceOnUse"><stop style="stop-color:#fff;stop-opacity:1" id="stop54" offset="0"/><stop style="stop-color:#eef2ff;stop-opacity:1" id="stop56" offset=".213"/><stop style="stop-color:#e6edff;stop-opacity:1" id="stop58" offset=".376"/><stop style="stop-color:#9a9ab1;stop-opacity:1" id="stop60" offset="1"/></linearGradient><linearGradient id="XMLID_24_" x1="157.901" x2="29.654" y1="203.209" y2="203.209" gradientTransform="matrix(0.46699465,0,0,0.46699465,-160.99497,6.981555)" gradientUnits="userSpaceOnUse"><stop style="stop-color:#fff;stop-opacity:1" id="stop85" offset="0"/><stop style="stop-color:#585868;stop-opacity:1" id="stop87" offset="1"/></linearGradient><linearGradient id="XMLID_25_" x1="156.909" x2="28.662" y1="140.716" y2="140.716" gradientTransform="matrix(0.46699465,0,0,0.46699465,-160.99497,6.981555)" gradientUnits="userSpaceOnUse"><stop style="stop-color:#fff;stop-opacity:1" id="stop92" offset="0"/><stop style="stop-color:#585868;stop-opacity:1" id="stop94" offset="1"/></linearGradient><linearGradient id="XMLID_26_" x1="75.57" x2="174.236" y1="90.313" y2="90.313" gradientTransform="matrix(-0.20201442,0,0,0.20239334,78.671142,2.6179587)" gradientUnits="userSpaceOnUse"><stop style="stop-color:#900;stop-opacity:1" id="stop107" offset="0"/><stop style="stop-color:#600000;stop-opacity:1" id="stop109" offset="1"/></linearGradient><linearGradient id="XMLID_27_" x1="79.538" x2="160.98" y1="42.818" y2="42.818" gradientUnits="userSpaceOnUse"><stop style="stop-color:red;stop-opacity:1" id="stop114" offset="0"/><stop style="stop-color:#900;stop-opacity:1" id="stop116" offset=".944"/><stop style="stop-color:#7c0000;stop-opacity:1" id="stop118" offset="1"/></linearGradient><linearGradient id="XMLID_28_" x1="160.98" x2="170.268" y1="91.475" y2="91.475" gradientTransform="matrix(0.20201442,0,0,0.20239334,-78.671142,2.6179587)" gradientUnits="userSpaceOnUse"><stop style="stop-color:#824f26;stop-opacity:1" id="stop123" offset="0"/><stop style="stop-color:#d6a84a;stop-opacity:1" id="stop125" offset=".202"/><stop style="stop-color:#ffe091;stop-opacity:1" id="stop127" offset=".348"/><stop style="stop-color:#960;stop-opacity:1" id="stop129" offset="1"/></linearGradient><filter style="color-interpolation-filters:sRGB" id="filter1558"><feColorMatrix id="feColorMatrix1556" values="0.21 0.72 0.072 0 0 0.21 0.72 0.072 0 0 0.21 0.72 0.072 0 0 0 0 0 1 0"/></filter></defs><rect id="rect5381" width="116.25" height="116.25" x="135.802" y="-68.363" style="opacity:0;fill:#fff;fill-opacity:1;stroke:none;stroke-width:.9375"/><g id="g1552" style="filter:url(#filter1558)"><rect id="rect8306" width="112.341" height="115.654" x="2.409" y="19.272" style="opacity:.00120006;fill:#aa1000;fill-opacity:.87451;stroke:none;stroke-width:.979563;stroke-linecap:round;stroke-linejoin:round;stroke-miterlimit:4;stroke-dasharray:none;stroke-dashoffset:0;stroke-opacity:1"/><path style="opacity:.5;fill-rule:evenodd;stroke-width:.837123" id="path3441" d="M 9.7611246,54.948177 31.718934,118.34546 c 1.47601,4.26386 5.518742,6.67608 11.292423,5.68231 l 56.45799,-9.66587 c 6.319873,-1.07871 9.108523,-12.16559 6.963403,-16.752208 L 81.50724,44.37262 C 78.672378,38.318281 73.420951,34.357649 64.312429,35.257137 l -46.130871,4.557741 c -2.107171,0.208097 -5.471879,1.830402 -6.620923,5.120877 l -1.337401,3.828979 c -0.8779333,2.513298 -1.2419442,3.930903 -0.4619444,6.183443 z"/><path style="fill:url(#linearGradient2379);fill-rule:evenodd;stroke-width:.837123" id="path2396" d="M 8.9939131,53.476212 30.952548,116.87605 c 1.475185,4.26386 5.517917,6.66758 11.291597,5.6823 l 56.45799,-9.66587 c 6.319855,-1.0787 9.108535,-12.16813 6.963405,-16.754754 L 80.740029,42.900655 c -2.834863,-6.05434 -8.08629,-10.014971 -17.194812,-9.115483 l -46.13087,4.557741 c -2.107172,0.208096 -5.471797,1.830402 -6.620841,5.120877 l -1.3374014,3.828978 c -0.8779328,2.514148 -1.2419438,3.930904 -0.461944,6.183444 z"/><path style="fill:url(#linearGradient2376);fill-rule:evenodd;stroke-width:.837123" id="path3168" d="m 12.04304,55.032266 20.705388,60.467804 c 1.368753,4.00054 3.698687,5.21514 9.106048,4.27234 l 56.311133,-9.85274 c 5.280301,-0.92582 6.377611,-10.19079 5.239041,-12.597067 L 77.480019,42.413963 c -1.7458,-3.698175 -5.342182,-7.249408 -13.878946,-6.417021 l -44.0303,4.293586 c -2.074995,0.202151 -5.588129,0.521516 -6.816954,3.958083 l -1.52543,4.265557 c -0.840063,2.349369 0.09108,4.404854 0.814651,6.518098 z"/><path style="fill:url(#linearGradient2373);fill-rule:evenodd;stroke-width:.837123" id="path3178" d="m 34.563533,108.59465 c 1.549439,5.67382 5.290203,6.14946 12.281654,4.91788 l 52.772503,-9.29131 c 5.27205,-0.92921 4.92553,-4.49234 3.78696,-6.898617 L 77.480019,42.413963 C 75.885203,39.570258 72.137837,35.164555 63.601073,35.996942 l -44.0303,4.293586 c -1.534589,0.149489 -3.857097,0.363532 -5.459338,1.855882 -0.563343,0.524913 -1.517345,2.287365 -0.813168,4.343699 l 21.265596,62.104541 z"/><path style="fill:url(#linearGradient2367);fill-rule:evenodd;stroke-width:.837123" id="path3630" d="M 99.378429,99.037489 70.066969,40.357629 18.955287,44.871202 39.500616,109.09578 Z"/><path style="fill:url(#linearGradient2363);fill-rule:evenodd;stroke-width:.837123" id="path3287" d="m 22.611072,45.013897 49.78748,-2.377398 c 8.309052,12.394917 16.320262,24.789833 24.347976,37.18475 L 92.868805,96.924247 44.425323,110.27641 Z"/><path style="fill:url(#linearGradient2360);fill-rule:evenodd;stroke-width:.837123" id="path3312" d="m 24.49383,45.250023 47.441871,-1.838894 c 7.809898,11.650864 15.469638,24.3592 23.020466,36.010065 l -3.135173,15.41614 -45.538489,12.547806 z"/><path style="fill:none;stroke:#3769e6;stroke-width:.418561" id="path3557" d="M 26.483844,50.889018 74.681458,47.821079 M 28.473859,56.263857 77.426391,51.966025 M 30.33599,61.638697 80.044266,56.11182 m -47.719087,11.298374 50.46402,-6.756771 m -46.355284,18.431419 51.97138,-9.21571 M 38.808401,85.517152 91.540475,75.071549 M 43.23643,92.476923 89.53561,82.37192 M 45.804802,100.45255 93.289576,88.249588 M 34.443901,73.049189 85.663663,65.063374"/><path style="opacity:.25;fill-rule:evenodd;filter:url(#filter3425)" id="path3398" d="m 109.44,65.539 -16.47,3.219 c -0.176,0.031 -0.332,0.119 -0.406,0.281 -0.075,0.162 -0.059,0.377 0.031,0.531 l 11.435,19.156 0.94,-0.531 4.69,-21.562 z" transform="matrix(0.82504732,0,0,0.84937413,5.8015575,22.688948)"/><path style="fill:url(#linearGradient2355);fill-rule:evenodd;stroke-width:.837123" id="path3598" d="m 31.274894,46.577595 -1.675672,0.05351 -0.05197,0.02633 22.225125,57.810105 1.57254,-0.45102 z"/><path style="fill:url(#linearGradient2352);fill-rule:evenodd;stroke-width:.837123" id="path3293" d="M 84.075447,82.266597 96.746528,79.821249 92.720295,97.533247 Z"/><path style="fill:url(#linearGradient8308);fill-rule:evenodd;stroke-width:.837123" id="path3375" d="m 72.7855,41.375179 -51.43675,2.017263 c -0.390248,0.01359 -0.756569,0.202151 -0.980157,0.530859 -0.222762,0.328708 -0.27639,0.76019 -0.154284,1.141559 L 41.4073,110.57369 c 0.631161,1.95356 2.551046,3.16817 4.331498,2.65005 L 94.362136,99.238791 c 0.43728,-0.13505 0.759041,-0.501131 0.858051,-0.955546 l 3.712712,-17.730684 c 0.07425,-0.359286 0,-0.737258 -0.21451,-1.035388 C 90.195644,67.345641 82.195989,54.328983 73.867961,41.906037 73.619622,41.548451 73.210399,41.347998 72.7855,41.375179 Z m -0.386948,1.274061 c 8.308227,12.394916 16.336763,24.765201 24.364476,37.160118 l -3.894223,17.119985 h -0.02475 l -0.132001,0.6107 L 92.431525,97.035514 44.423673,110.27641 22.611897,45.011349 Z"/><path style="fill:url(#linearGradient2346);fill-rule:evenodd;stroke-width:.837123" id="path3393" d="m 96.870278,78.74764 -13.591826,2.734136 c -0.144384,0.02633 -0.273091,0.101075 -0.334969,0.238674 -0.06188,0.137598 -0.04868,0.320213 0.02558,0.451018 l 9.437717,16.271459 0.775541,-0.451866 -9.104394,-15.739753 12.965617,-2.574453 z"/><path style="fill:url(#linearGradient2343);fill-rule:evenodd;stroke-width:.837123" id="path3299" d="m 96.515508,80.841347 -10.761914,2.126834 7.395722,12.710883 z"/><path style="opacity:.5;fill-rule:evenodd;filter:url(#filter3283)" id="path3279" d="m 30.13,16.961 c 7.052,-8.4096 17.965,-9.9958 25.103,-5.547 1.557,0.959 13.561,8.62 9.665,15.783 -2.266,4.166 -8.884,4.801 -15.362,5.608 C 40.668,33.91 39.327,32.36 37.783,31.102 34.392,28.336 31.348,21.63 30.13,16.961 Z" transform="matrix(0.82504732,0,0,0.84937413,5.8015575,22.688948)"/><path style="fill:url(#linearGradient2339);fill-rule:evenodd;stroke-width:.837123" id="path3214" d="m 30.146229,36.453056 c 5.818234,-7.143152 14.821975,-8.490344 20.711988,-4.711479 1.284599,0.81455 11.188466,7.320755 7.973257,13.405672 -1.869557,3.538493 -7.32972,4.077845 -12.673551,4.763291 -7.317345,0.938557 -8.423734,-0.377972 -9.696782,-1.447334 -2.79856,-2.348519 -5.310005,-8.044423 -6.314912,-12.01015 z"/><path style="fill:#ff8080;fill-rule:evenodd;stroke-width:.837123" id="path3226" d="m 31.479506,36.233917 c 5.170571,-6.347628 13.501899,-7.253401 18.735174,-3.89523 1.141865,0.723667 9.525997,6.823872 7.085506,11.912472 -1.894308,3.951289 -16.628828,5.684861 -19.80691,3.204689 -3.770467,-2.942232 -5.121069,-7.697877 -6.01377,-11.221931 z"/><path style="fill:url(#linearGradient1522);fill-opacity:1;fill-rule:evenodd;stroke-width:.837123" id="path3236" d="m 33.47282,35.340375 c 3.691262,-4.002251 10.224811,-5.880471 16.506721,-2.758766 1.141041,0.723666 8.582143,6.953825 4.206917,10.406531 -2.79031,2.203277 -12.240402,3.818786 -15.145394,2.080117 -3.464374,-2.073322 -5.719228,-6.507055 -5.568244,-9.727882 z"/><path style="fill:url(#radialGradient2330);fill-rule:evenodd;stroke-width:.837123" id="path3248" d="m 34.627061,34.23534 c -0.235138,0.198754 -0.477703,0.397507 -0.69634,0.60985 -0.156759,0.196206 -0.306918,0.386466 -0.464501,0.504529 -0.02805,0.603904 0.02227,1.246032 0.155108,1.911091 0.177385,0.887596 0.496678,1.808318 0.928179,2.707805 0.323418,0.674403 0.712015,1.337764 1.160016,1.963753 0.746668,1.042182 1.64762,1.972247 2.681404,2.707804 0.0058,0.0042 0.0198,-0.0042 0.02558,0 0.201312,0.141846 0.408399,0.29898 0.618786,0.424688 0.167485,0.09938 0.359721,0.186862 0.567632,0.265004 0.111382,0.04247 0.238439,0.07049 0.360546,0.106172 0.334145,0.09768 0.680664,0.184314 1.083287,0.238674 0.07839,0.01189 0.150984,0.01784 0.231838,0.02718 0.207088,0.02378 0.424075,0.03907 0.644363,0.05266 0.600634,0.03822 1.235096,0.05606 1.908334,0.02718 0.673239,-0.02973 1.383604,-0.09853 2.088195,-0.186013 -1.458683,-0.235277 -3.060101,-0.227632 -3.944551,-0.558039 -7.196063,-3.445061 -7.116034,-8.377377 -7.347872,-10.802339 z"/><g id="g4446" transform="matrix(0.45029574,-0.08443013,0.08415301,0.45177858,65.649728,11.72597)" style="overflow:visible"><g id="Layer_2" transform="translate(0,54.4)"><rect id="_x3C_Slice_x3E_" width="48" height="48" x="0" y="0" style="fill:none"/></g><g id="Layer_1" transform="translate(0,54.4)"><g id="g553"><linearGradient id="XMLID_73_" x1="49.839" x2="3.438" y1="24" y2="24" gradientTransform="matrix(-1,0,0,1,48,0)" gradientUnits="userSpaceOnUse"><stop style="stop-color:#336" id="stop555" offset="0"/><stop style="stop-color:#00008d" id="stop556-9" offset="1"/></linearGradient><linearGradient id="XMLID_74_" x1="49.835" x2="3.434" y1="24" y2="24" gradientTransform="matrix(-1,0,0,1,48,0)" gradientUnits="userSpaceOnUse"><stop style="stop-color:#7e00b3" id="stop562" offset="0"/><stop style="stop-color:#00008d" id="stop563-1" offset="1"/></linearGradient><linearGradient id="XMLID_75_" x1="36.697" x2="29.28" y1="37.584" y2="30.166" gradientTransform="matrix(-1,0,0,1,48,0)" gradientUnits="userSpaceOnUse"><stop style="stop-color:#66c" id="stop569" offset="0"/><stop style="stop-color:#336" id="stop570-1" offset="1"/></linearGradient><linearGradient id="XMLID_76_" x1="15.332" x2="43.208" y1="19.486" y2="33.111" gradientTransform="matrix(-1,0,0,1,48,0)" gradientUnits="userSpaceOnUse"><stop style="stop-color:#00008d" id="stop576" offset="0"/><stop style="stop-color:#7c74ff" id="stop577" offset=".23"/><stop style="stop-color:#e6edff" id="stop578" offset="1"/></linearGradient><linearGradient id="XMLID_77_" x1="42.595" x2="7.594" y1="33.86" y2="14.86" gradientTransform="matrix(-1,0,0,1,48,0)" gradientUnits="userSpaceOnUse"><stop style="stop-color:#9b95ff" id="stop586" offset="0"/><stop style="stop-color:#9791fb" id="stop587" offset=".207"/><stop style="stop-color:#8a86ef" id="stop588" offset=".424"/><stop style="stop-color:#7674db" id="stop589" offset=".643"/><stop style="stop-color:#66c" id="stop590" offset=".77"/><stop style="stop-color:#5454a2" id="stop591" offset="1"/></linearGradient><linearGradient id="XMLID_78_" x1="30.754" x2="13.254" y1="38.042" y2="6.292" gradientTransform="matrix(-1,0,0,1,48,0)" gradientUnits="userSpaceOnUse"><stop style="stop-color:#fff" id="stop599" offset="0"/><stop style="stop-color:#fbfbfd" id="stop600" offset=".147"/><stop style="stop-color:#eeeef6" id="stop601" offset=".3"/><stop style="stop-color:#d9d9eb" id="stop602" offset=".457"/><stop style="stop-color:#bcbcdb" id="stop603" offset=".615"/><stop style="stop-color:#9696c6" id="stop604" offset=".775"/><stop style="stop-color:#6969ad" id="stop605" offset=".935"/><stop style="stop-color:#5454a2" id="stop606" offset="1"/></linearGradient><linearGradient id="XMLID_79_" x1="23.473" x2="23.473" y1="39.5" y2="5.092" gradientTransform="matrix(-1,0,0,1,48,0)" gradientUnits="userSpaceOnUse"><stop style="stop-color:#94caff" id="stop613" offset="0"/><stop style="stop-color:#034cfe" id="stop614" offset=".64"/><stop style="stop-color:#00008d" id="stop615" offset="1"/></linearGradient><linearGradient id="XMLID_80_" x1="-6.399" x2="43.225" y1="5.69" y2="31.939" gradientTransform="matrix(-1,0,0,1,48,0)" gradientUnits="userSpaceOnUse"><stop style="stop-color:#c9e6ff" id="stop623" offset="0"/><stop style="stop-color:#fff" id="stop624" offset="1"/></linearGradient><radialGradient id="XMLID_81_" cx="109.353" cy="83.584" r="424.27" fx="109.353" fy="83.584" gradientTransform="matrix(-0.1875,0,0,0.1875,28.5,19.5)" gradientUnits="userSpaceOnUse"><stop style="stop-color:#fff" id="stop630" offset="0"/><stop style="stop-color:#ecf6ff" id="stop631" offset=".1"/><stop style="stop-color:#9ccfff" id="stop632" offset=".537"/><stop style="stop-color:#6ab6ff" id="stop633" offset=".847"/><stop style="stop-color:#57adff" id="stop634" offset="1"/></radialGradient><linearGradient id="XMLID_82_" x1="49.815" x2="3.693" y1="11.178" y2="11.178" gradientTransform="matrix(-1,0,0,1,48,0)" gradientUnits="userSpaceOnUse"><stop style="stop-color:#7e00b3" id="stop640" offset="0"/><stop style="stop-color:#00008d" id="stop641" offset="1"/></linearGradient><linearGradient id="XMLID_83_" x1="49.814" x2="3.688" y1="11.178" y2="11.178" gradientTransform="matrix(-1,0,0,1,48,0)" gradientUnits="userSpaceOnUse"><stop style="stop-color:#7e00b3" id="stop647" offset="0"/><stop style="stop-color:#00008d" id="stop648" offset="1"/></linearGradient><linearGradient id="XMLID_84_" x1="36.847" x2="2.732" y1="16.194" y2="16.194" gradientTransform="matrix(-1,0,0,1,48,0)" gradientUnits="userSpaceOnUse"><stop style="stop-color:#fff" id="stop654" offset="0"/><stop style="stop-color:#000" id="stop655" offset="1"/></linearGradient><linearGradient id="XMLID_85_" x1="24.133" x2="24.133" y1="2.108" y2="27.233" gradientTransform="matrix(-1,0,0,1,48,0)" gradientUnits="userSpaceOnUse"><stop style="stop-color:#e1e1ff" id="stop661" offset="0"/><stop style="stop-color:#9b95ff" id="stop662" offset=".5"/><stop style="stop-color:#7c74ff" id="stop663" offset="1"/></linearGradient><linearGradient id="XMLID_86_" x1="3.283" x2="44.98" y1="13.952" y2="13.952" gradientTransform="matrix(-1,0,0,1,48,0)" gradientUnits="userSpaceOnUse"><stop style="stop-color:#e1e1ff" id="stop671" offset="0"/><stop style="stop-color:#9b95ff" id="stop672" offset="1"/></linearGradient><linearGradient id="XMLID_87_" x1="24.132" x2="24.132" y1="2.17" y2="13.546" gradientTransform="matrix(-1,0,0,1,48,0)" gradientUnits="userSpaceOnUse"><stop style="stop-color:#fff" id="stop678" offset="0"/><stop style="stop-color:#fcfcff" id="stop679" offset=".218"/><stop style="stop-color:#f2f1ff" id="stop680" offset=".407"/><stop style="stop-color:#e1dfff" id="stop681" offset=".587"/><stop style="stop-color:#c9c6ff" id="stop682" offset=".76"/><stop style="stop-color:#aba6ff" id="stop683" offset=".927"/><stop style="stop-color:#9b95ff" id="stop684" offset="1"/></linearGradient><linearGradient id="XMLID_88_" x1="1.489" x2="31.886" y1="1.054" y2="17.133" gradientTransform="matrix(-1,0,0,1,48,0)" gradientUnits="userSpaceOnUse"><stop style="stop-color:#94caff" id="stop690" offset="0"/><stop style="stop-color:#fff" id="stop691" offset="1"/></linearGradient></g><g id="g1048" transform="matrix(4.5887576,-1.3394923,1.3394923,4.5887576,-127.55393,-62.446953)"><path style="opacity:.2" id="path1049" d="m 21.339,34.665 c 3.068,-5.448 3.624,-6.435 3.854,-6.622 -0.021,0.008 -0.053,0.019 -0.053,0.019 L 40.707,16.541 c 0.831,-0.612 2.249,0.52 3.217,1.831 0.96,1.296 1.629,2.986 0.833,3.629 l -15.633,11.522 -0.089,-0.002 -6.678,1.594 -1.319,0.127 z"/><path style="opacity:.2" id="path1050" d="m 21.157,34.212 c 3.067,-5.447 3.623,-6.435 3.854,-6.621 -0.021,0.008 -0.053,0.019 -0.053,0.019 L 40.524,16.089 c 0.832,-0.612 2.251,0.52 3.218,1.831 0.959,1.297 1.629,2.986 0.833,3.629 L 28.941,33.07 28.852,33.069 22.174,34.662 20.856,34.79 Z"/><path style="opacity:.2" id="path1051" d="m 22.334,34.038 c 3.067,-5.447 3.622,-6.435 3.854,-6.622 -0.022,0.008 -0.054,0.019 -0.054,0.019 L 41.702,15.914 c 0.83,-0.612 2.249,0.521 3.216,1.832 0.959,1.296 1.63,2.985 0.833,3.629 l -15.633,11.521 -0.089,-0.002 -6.678,1.593 -1.319,0.128 z"/><path style="fill:#fff" id="path1052" d="m 21.882,33.401 c 3.068,-5.448 3.623,-6.435 3.855,-6.621 -0.022,0.008 -0.054,0.02 -0.054,0.02 L 41.25,15.277 c 0.832,-0.612 2.251,0.521 3.218,1.832 0.959,1.297 1.629,2.986 0.833,3.629 L 29.668,32.26 29.578,32.259 22.9,33.852 21.582,33.98 Z"/><linearGradient id="XMLID_139_" x1="-978.259" x2="-958.248" y1="-97.729" y2="-109.229" gradientTransform="matrix(-0.3915,0.9202,0.9202,0.3915,-251.8165,957.8806)" gradientUnits="userSpaceOnUse"><stop style="stop-color:#900" id="stop1054" offset="0"/><stop style="stop-color:#7c0000" id="stop1055" offset="1"/></linearGradient><path style="fill:url(#XMLID_139_)" id="path1059" d="m 21.882,33.401 c 3.068,-5.448 3.623,-6.435 3.855,-6.621 -0.022,0.008 -0.054,0.02 -0.054,0.02 L 41.25,15.277 c 0.832,-0.612 2.251,0.521 3.218,1.832 0.959,1.297 1.629,2.986 0.833,3.629 L 29.668,32.26 29.578,32.259 22.9,33.852 21.582,33.98 Z"/><linearGradient id="XMLID_140_" x1="-1759.684" x2="-1756.235" y1="572.477" y2="575.927" gradientTransform="matrix(0.97,0.2429,-0.2429,0.97,1879.3727,-102.3761)" gradientUnits="userSpaceOnUse"><stop style="stop-color:#f8f1dc" id="stop1061" offset="0"/><stop style="stop-color:#d6a84a" id="stop1062" offset="1"/></linearGradient><path style="fill:url(#XMLID_140_)" id="path1066" d="m 26.397,27.33 -3.474,5.701 6.461,-1.688 -0.021,-0.03 c 0.043,-0.004 0.086,-0.012 0.124,-0.027 l 0.016,0.023 14.915,-11.002 -0.017,-0.021 c 0.444,-0.328 0.134,-1.502 -0.692,-2.623 -0.827,-1.12 -1.855,-1.762 -2.3,-1.435 L 26.496,27.229 Z"/><linearGradient id="XMLID_141_" x1="-77.475" x2="-65.559" y1="-9.648" y2="16.807" gradientTransform="matrix(-0.9797,-0.2005,-0.2005,0.9797,-30.1045,0.6561)" gradientUnits="userSpaceOnUse"><stop style="stop-color:#ffa700" id="stop1068" offset="0"/><stop style="stop-color:gold" id="stop1069" offset=".775"/><stop style="stop-color:#ff794b" id="stop1070" offset="1"/></linearGradient><path style="fill:url(#XMLID_141_)" id="path1076" d="M 28.615,31.544 C 28.293,31.416 27.916,31.152 27.549,30.798 27.321,30.58 27.095,30.321 26.882,30.031 26.69,29.773 26.528,29.51 26.395,29.258 26.143,28.78 26.031,28.307 26.03,27.935 L 26.398,27.331 26.497,27.23 41.312,16.3 c -0.173,0.342 -0.041,0.99 0.334,1.707 0.138,0.261 0.302,0.531 0.5,0.798 0.207,0.281 0.428,0.534 0.648,0.748 0.631,0.612 1.263,0.919 1.621,0.75 l 0.003,0.004 -14.915,11.002 -0.016,-0.023 c -0.038,0.016 -0.081,0.023 -0.124,0.027 l 0.021,0.03 z"/><path style="fill:#fff" id="path1077" d="M 44.484,20.209 C 44.146,20.438 43.491,20.137 42.838,19.503 42.621,19.294 42.405,19.046 42.202,18.77 42.007,18.507 41.846,18.243 41.711,17.986 41.277,17.159 41.175,16.423 41.499,16.163 L 41.496,16.158 26.481,27.232 c -0.178,0.344 -0.12,1.068 0.264,1.795 0.131,0.249 0.29,0.506 0.479,0.76 0.209,0.283 0.431,0.538 0.654,0.752 0.666,0.642 1.362,0.985 1.702,0.735 0.077,-0.058 0.416,-0.308 0.425,-0.317 L 44.516,20.252 Z"/><path style="fill:#fff" id="path1078" d="m 43.709,17.664 c -0.827,-1.12 -1.855,-1.762 -2.3,-1.435 l -3.36,2.479 -1.061,4.238 2.875,0.72 4.555,-3.358 -0.017,-0.021 c 0.445,-0.329 0.134,-1.503 -0.692,-2.623 z"/><path style="fill:#fff" id="path1079" d="M 44.484,20.209 C 44.146,20.438 43.491,20.137 42.838,19.503 42.621,19.294 42.405,19.046 42.202,18.77 42.007,18.507 41.846,18.243 41.711,17.986 41.277,17.159 41.175,16.423 41.499,16.163 L 41.496,16.158 26.481,27.232 c -0.178,0.344 -0.12,1.068 0.264,1.795 0.131,0.249 0.29,0.506 0.479,0.76 0.209,0.283 0.431,0.538 0.654,0.752 0.666,0.642 1.362,0.985 1.702,0.735 0.077,-0.058 0.416,-0.308 0.425,-0.317 L 44.516,20.252 Z"/><linearGradient id="XMLID_142_" x1="-1753.172" x2="-1751.339" y1="564.308" y2="562.123" gradientTransform="matrix(0.97,0.2429,-0.2429,0.97,1879.3727,-102.3761)" gradientUnits="userSpaceOnUse"><stop style="stop-color:#ffc957" id="stop1081" offset="0"/><stop style="stop-color:#ff6d00" id="stop1082" offset="1"/></linearGradient><path style="fill:url(#XMLID_142_)" id="path1086" d="m 43.709,17.664 c -0.827,-1.12 -1.855,-1.762 -2.3,-1.435 l -3.36,2.479 -1.061,4.238 2.875,0.72 4.555,-3.358 -0.017,-0.021 c 0.445,-0.329 0.134,-1.503 -0.692,-2.623 z"/><linearGradient id="XMLID_143_" x1="-1763.878" x2="-1756.183" y1="557.699" y2="574.784" gradientTransform="matrix(0.97,0.2429,-0.2429,0.97,1879.3727,-102.3761)" gradientUnits="userSpaceOnUse"><stop style="stop-color:#ffa700" id="stop1088" offset="0"/><stop style="stop-color:gold" id="stop1089" offset=".775"/><stop style="stop-color:#ff9200" id="stop1090" offset="1"/></linearGradient><path style="fill:url(#XMLID_143_)" id="path1096" d="M 44.484,20.209 C 44.146,20.438 43.491,20.137 42.838,19.503 42.621,19.294 42.405,19.046 42.202,18.77 42.007,18.507 41.846,18.243 41.711,17.986 41.277,17.159 41.175,16.423 41.499,16.163 L 41.496,16.158 26.481,27.232 c -0.178,0.344 -0.12,1.068 0.264,1.795 0.131,0.249 0.29,0.506 0.479,0.76 0.209,0.283 0.431,0.538 0.654,0.752 0.666,0.642 1.362,0.985 1.702,0.735 0.077,-0.058 0.416,-0.308 0.425,-0.317 L 44.516,20.252 Z"/><linearGradient id="XMLID_144_" x1="-77.033" x2="-64.39" y1="9.494" y2="9.494" gradientTransform="matrix(-0.9797,-0.2005,-0.2005,0.9797,-30.1045,0.6561)" gradientUnits="userSpaceOnUse"><stop style="stop-color:#7d7d99" id="stop1098" offset="0"/><stop style="stop-color:#b1b1c5" id="stop1099" offset=".18"/><stop style="stop-color:#bcbcc8" id="stop1100" offset=".373"/><stop style="stop-color:#c8c8cb" id="stop1101" offset=".682"/><stop style="stop-color:#ccc" id="stop1102" offset="1"/></linearGradient><path style="fill:url(#XMLID_144_)" id="path1108" d="m 43.23,21.181 c 0,0 -0.968,-0.233 -1.619,-0.866 -0.217,-0.209 -0.434,-0.458 -0.637,-0.733 -0.194,-0.263 -0.356,-0.527 -0.491,-0.784 -0.354,-0.676 -0.487,-1.292 -0.346,-1.636 l 1.359,-1.003 0.003,0.005 c -0.324,0.26 -0.222,0.997 0.212,1.823 0.135,0.257 0.296,0.521 0.491,0.784 0.203,0.276 0.419,0.524 0.636,0.733 0.652,0.634 1.308,0.935 1.646,0.706 l 0.031,0.043 -14.51,10.704 c -0.009,0.01 -0.348,0.26 -0.425,0.317 -0.068,0.05 -0.149,0.075 -0.242,0.08 z"/><path style="fill:#033" id="path1109" d="m 24.669,31.616 c 0.215,0.293 0.442,0.556 0.672,0.783 l -2.417,0.632 1.29,-2.116 c 0.13,0.231 0.281,0.468 0.455,0.701 z"/><path style="opacity:.5;fill:#fff" id="path1110" d="M 26.712,28.957 41.749,18.055 C 41.737,18.033 41.723,18.009 41.712,17.986 41.539,17.656 41.42,17.34 41.358,17.063 L 26.396,27.91 c 0.03,0.314 0.131,0.678 0.316,1.047 z"/><path style="opacity:.5;fill:#fff" id="path1111" d="M 41.712,17.986 C 41.635,17.84 41.57,17.697 41.515,17.559 L 26.504,28.441 c 0.059,0.19 0.136,0.389 0.241,0.586 0.091,0.17 0.193,0.344 0.309,0.518 L 42.105,18.633 c -0.152,-0.217 -0.283,-0.435 -0.393,-0.647 z"/></g></g></g><path id="path111" d="m 44.274636,3.7870571 h 1.876131 c 0.0016,0 0.0031,6.068e-4 0.0048,6.068e-4 0.04695,1.977e-4 0.09391,0.00553 0.140462,0.014133 0.01065,0.00199 0.0213,0.00403 0.03156,0.00643 0.04222,0.00959 0.08405,0.021345 0.124682,0.037848 l 0.0087,0.00377 c 0.0012,3.949e-4 0.0021,6.068e-4 0.0028,9.968e-4 L 62.90488,10.540093 c 0.302234,0.122938 0.500007,0.417239 0.500007,0.744053 0,0.326814 -0.197773,0.621114 -0.500007,0.744053 L 46.952155,18.518718 V 37.67371 c 0,0.443328 -3.479226,0.443328 -3.479226,0 V 4.5901085 c 0,-0.4435261 0.35905,-0.8030514 0.801744,-0.8030514 z" style="fill:url(#XMLID_26_);stroke-width:.202204"/><polygon id="polygon120" points="160.98 9.744 160.98 75.893 79.538 42.818" transform="matrix(-0.20201442,0,0,0.20239334,78.671141,2.6179592)" style="fill:url(#XMLID_27_)"/><rect id="rect131" width="1.876" height="33.084" x="-46.151" y="4.59" transform="scale(-1,1)" style="fill:url(#XMLID_28_);stroke-width:.202204"/></g></svg>