<svg xmlns="http://www.w3.org/2000/svg" xmlns:svg="http://www.w3.org/2000/svg" id="svg21921" width="128" height="128" version="1.1" viewBox="0 0 128 128"><metadata id="metadata21926"/><g id="layer1" transform="translate(0,-924.36216)"><g id="g10001" transform="matrix(5.8181818,0,0,5.8181818,-4661.2482,-516.19013)"><rect id="rect9886" width="22" height="22" x="801.152" y="247.595" ry="0" style="opacity:0;fill:#ff0;fill-opacity:1;stroke:none;stroke-width:1;stroke-linecap:round;stroke-linejoin:round;stroke-miterlimit:4;stroke-dasharray:none;stroke-dashoffset:0;stroke-opacity:1"/><g id="g9991" transform="matrix(1,0,0,0.98375513,-2.1250001,5.3581581)"><path style="opacity:1;fill:#fff;fill-opacity:1;stroke:none;stroke-width:1;stroke-linecap:round;stroke-linejoin:round;stroke-miterlimit:4;stroke-dasharray:none;stroke-dashoffset:0;stroke-opacity:1" id="rect9891" d="m 805.33766,249.46938 9.49998,0 4.09377,4.4375 0.0625,13.90625 -13.65625,0 z"/><path style="fill:teal;fill-rule:evenodd;stroke:none;stroke-width:1" id="document-text" d="m 814.41563,249.04215 -8.06221,0 c -0.84951,0 -1.53818,0.64004 -1.53818,1.43017 l 0,16.3765 c 0,0.78986 0.68426,1.43017 1.53408,1.43017 l 11.52443,0 c 0.84725,0 1.53408,-0.63996 1.53408,-1.41839 l 0,-12.47489 0,-0.35623 -4.60819,-4.98733 -0.38401,0 0,0 0,0 z m -0.38402,0.71247 -7.68371,0 c -0.42229,0 -0.76463,0.32437 -0.76463,0.70924 l 0,16.39341 c 0,0.39171 0.34923,0.70924 0.768,0.70924 l 11.52053,0 c 0.42415,0 0.768,-0.31701 0.768,-0.70777 l 0,-12.11679 -3.07373,0 c -0.84746,0 -1.53446,-0.63165 -1.53446,-1.42917 l 0,-3.55816 0,0 z m 0.76803,0.35624 0,3.19988 c 0,0.39695 0.34612,0.71874 0.76553,0.71874 l 2.84418,0 -3.60971,-3.91862 0,0 z m -7.68031,3.91862 0,0.71247 5.37622,0 0,-0.71247 -5.37622,0 0,0 z m 0,-2.13743 0,0.71248 5.37622,0 0,-0.71248 -5.37622,0 0,0 z m 0,4.27485 0,0.71248 9.98441,0 0,-0.71248 -9.98441,0 0,0 z m 0,2.13743 0,0.71248 9.98441,0 0,-0.71248 -9.98441,0 0,0 z m 0,2.13743 0,0.71247 9.98441,0 0,-0.71247 -9.98441,0 0,0 z m 0,2.13742 0,0.71248 9.98441,0 0,-0.71248 -9.98441,0 0,0 z m 0,2.13743 0,0.71248 9.98441,0 0,-0.71248 -9.98441,0 0,0 z"/></g><g id="g9995" transform="translate(2.9375001,-0.87500008)"><path id="path9997" d="m 805.33766,249.46938 9.49998,0 4.09377,4.4375 0.0625,13.90625 -13.65625,0 z" style="opacity:1;fill:#fff;fill-opacity:1;stroke:none;stroke-width:1;stroke-linecap:round;stroke-linejoin:round;stroke-miterlimit:4;stroke-dasharray:none;stroke-dashoffset:0;stroke-opacity:1"/><path id="path9999" d="m 814.41563,249.04215 -8.06221,0 c -0.84951,0 -1.53818,0.64004 -1.53818,1.43017 l 0,16.3765 c 0,0.78986 0.68426,1.43017 1.53408,1.43017 l 11.52443,0 c 0.84725,0 1.53408,-0.63996 1.53408,-1.41839 l 0,-12.47489 0,-0.35623 -4.60819,-4.98733 -0.38401,0 0,0 0,0 z m -0.38402,0.71247 -7.68371,0 c -0.42229,0 -0.76463,0.32437 -0.76463,0.70924 l 0,16.39341 c 0,0.39171 0.34923,0.70924 0.768,0.70924 l 11.52053,0 c 0.42415,0 0.768,-0.31701 0.768,-0.70777 l 0,-12.11679 -3.07373,0 c -0.84746,0 -1.53446,-0.63165 -1.53446,-1.42917 l 0,-3.55816 0,0 z m 0.76803,0.35624 0,3.19988 c 0,0.39695 0.34612,0.71874 0.76553,0.71874 l 2.84418,0 -3.60971,-3.91862 0,0 z m -7.68031,3.91862 0,0.71247 5.37622,0 0,-0.71247 -5.37622,0 0,0 z m 0,-2.13743 0,0.71248 5.37622,0 0,-0.71248 -5.37622,0 0,0 z m 0,4.27485 0,0.71248 9.98441,0 0,-0.71248 -9.98441,0 0,0 z m 0,2.13743 0,0.71248 9.98441,0 0,-0.71248 -9.98441,0 0,0 z m 0,2.13743 0,0.71247 9.98441,0 0,-0.71247 -9.98441,0 0,0 z m 0,2.13742 0,0.71248 9.98441,0 0,-0.71248 -9.98441,0 0,0 z m 0,2.13743 0,0.71248 9.98441,0 0,-0.71248 -9.98441,0 0,0 z" style="fill:teal;fill-rule:evenodd;stroke:none;stroke-width:1"/></g></g></g></svg>