<svg xmlns="http://www.w3.org/2000/svg" xmlns:svg="http://www.w3.org/2000/svg" id="svg2" width="128" height="128" version="1.1" viewBox="0 0 128 128"><defs id="defs4"><linearGradient id="XMLID_8_" x1="74.5" x2="74.5" y1="5.048" y2="124.24" gradientUnits="userSpaceOnUse"><stop style="stop-color:#fff" id="stop4539" offset="0"/><stop style="stop-color:#e1e1df" id="stop4541" offset="1"/></linearGradient><linearGradient id="XMLID_9_" x1="74.5" x2="74.5" y1="11.081" y2="121.467" gradientUnits="userSpaceOnUse"><stop style="stop-color:#fdfdfd" id="stop4546" offset="0"/><stop style="stop-color:#f3f2f2" id="stop4548" offset=".298"/><stop style="stop-color:#d7d6d6" id="stop4550" offset=".817"/><stop style="stop-color:#cccbca" id="stop4552" offset="1"/></linearGradient><radialGradient id="XMLID_10_" cx="110" cy="32.869" r="15.596" gradientUnits="userSpaceOnUse"><stop style="stop-color:#8e8e8f" id="stop4557" offset=".213"/><stop style="stop-color:#eee" id="stop4559" offset=".927"/></radialGradient><linearGradient id="XMLID_11_" x1="92.023" x2="104.273" y1="9.947" y2="32.947" gradientUnits="userSpaceOnUse"><stop style="stop-color:#fffefe" id="stop4566" offset="0"/><stop style="stop-color:#cfd0d0" id="stop4568" offset="1"/></linearGradient><linearGradient id="XMLID_12_" x1="99.53" x2="105.905" y1="5.181" y2="31.931" gradientUnits="userSpaceOnUse"><stop style="stop-color:#fcfdfd" id="stop4573" offset="0"/><stop style="stop-color:#eee" id="stop4575" offset="1"/></linearGradient><linearGradient id="x2" x1="99.299" x2="208.193" y1="107.588" y2="130.083" gradientUnits="userSpaceOnUse"><stop id="stop8702" offset="0" stop-color="#494949"/><stop id="stop8704" offset=".5" stop-color="#616161"/><stop id="stop8706" offset="1" stop-color="#000"/></linearGradient><linearGradient id="x3" x1="197.016" x2="210.319" y1="228.985" y2="164.587" gradientUnits="userSpaceOnUse"><stop id="stop8709" offset="0" stop-color="#7c0000"/><stop id="stop8711" offset="1" stop-color="#cf0000"/></linearGradient><linearGradient id="x4" x1="100.597" x2="206.893" y1="107.857" y2="129.815" gradientUnits="userSpaceOnUse"><stop id="stop8714" offset="0" stop-color="#a2a2a2"/><stop id="stop8716" offset="1" stop-color="#494949"/></linearGradient><linearGradient id="x5" x1="213.503" x2="196.562" y1="192.809" y2="203.952" gradientUnits="userSpaceOnUse"><stop id="stop8719" offset="0" stop-color="#ffc957"/><stop id="stop8721" offset="1" stop-color="#ff6d00"/></linearGradient><linearGradient id="x6" x1="212.505" x2="199.138" y1="193.388" y2="202.17" gradientUnits="userSpaceOnUse"><stop id="stop8724" offset="0" stop-color="#FF6"/><stop id="stop8726" offset="1" stop-color="#ff6d00"/></linearGradient><linearGradient id="x7" x1="196.489" x2="187.196" y1="183.836" y2="169.704" gradientUnits="userSpaceOnUse"><stop id="stop8729" offset="0" stop-color="gold"/><stop id="stop8731" offset="1" stop-color="#fff"/></linearGradient><linearGradient id="x8" x1="130.009" x2="208.257" y1="82.742" y2="201.737" gradientUnits="userSpaceOnUse"><stop id="stop8734" offset="0" stop-color="#dadada"/><stop id="stop8736" offset=".612" stop-color="#949494"/><stop id="stop8738" offset="1" stop-color="#dadada"/></linearGradient><linearGradient id="x9" x1="185.267" x2="190.94" y1="170.681" y2="166.951" gradientUnits="userSpaceOnUse"><stop id="stop8741" offset="0" stop-color="#b2b2b2"/><stop id="stop8743" offset="1" stop-color="#fff"/></linearGradient><linearGradient id="x1" x1="107.545" x2="199.25" y1="108.823" y2="127.767" gradientUnits="userSpaceOnUse"><stop id="stop8746" offset="0" stop-color="#fff"/><stop id="stop8748" offset="1" stop-color="#494949"/></linearGradient><radialGradient id="r1" cx="160.337" cy="81.892" r="116.95" gradientUnits="userSpaceOnUse"><stop id="stop8751" offset=".006" stop-color="#0035ed"/><stop id="stop8753" offset=".567" stop-color="#94caff"/><stop id="stop8755" offset=".708" stop-color="#c9e6ff"/><stop id="stop8757" offset="1" stop-color="#034cfe"/></radialGradient><radialGradient id="r2" cx="160.371" cy="66.649" r="116.95" gradientUnits="userSpaceOnUse"><stop id="stop8760" offset=".006" stop-color="#fff"/><stop id="stop8762" offset=".45" stop-color="#94caff"/><stop id="stop8764" offset=".6" stop-color="#c9e6ff"/><stop id="stop8766" offset="1" stop-color="#fff"/></radialGradient></defs><metadata id="metadata7"/><g id="layer1" transform="translate(0,-924.36216)"><g id="g5149" transform="matrix(0.952187,0,0,0.952187,-20.45419,925.57693)"><path style="opacity:.2" id="path4532" d="M 30.666,7 C 28.816,7 27,8.83 27,10.694 c 0,106.39 0,106.39 0,109.807 0,3.917 4,4.499 4,4.499 l 87,0 c 0,0 4,-0.268 4,-4.018 0,-3.75 0,-78.479 0,-78.479 C 122,37.306 94.325,7 87.135,7 L 30.666,7 Z"/><path style="opacity:.2" id="path4534" d="M 30.666,8 C 28.816,8 27,9.83 27,11.694 c 0,106.39 0,106.39 0,109.807 0,3.917 5,4.499 5,4.499 l 85,0 c 0,0 5,-0.268 5,-4.018 0,-3.75 0,-78.479 0,-78.479 C 122,38.306 94.325,8 87.135,8 L 30.666,8 Z"/><path style="opacity:.6;fill:#262626" id="path4536" d="M 30.666,6 C 28.816,6 27,7.83 27,9.694 c 0,106.39 0,106.39 0,109.807 0,3.917 3,4.499 3,4.499 l 89,0 c 0,0 3,-0.268 3,-4.018 0,-3.75 0,-78.479 0,-78.479 C 122,36.306 94.325,6 87.135,6 L 30.666,6 Z"/><path style="fill:url(#XMLID_8_)" id="path4543" d="m 121,120.113 c 0,2.584 -2.398,2.887 -2.398,2.887 l -88.104,0 C 30.498,123 28,122.525 28,119.917 28,100.1 28,10.861 28,9.694 28,8.374 29.359,7 30.666,7 31.66,7 79.135,7 87.135,7 94.167,7 121,37.326 121,41.504 c 0,4.619 0,63.145 0,78.609 z"/><path style="fill:url(#XMLID_9_)" id="path4554" d="m 120,119.282 c 0,2.481 -2,2.718 -2,2.718 l -87,0 c 0,0 -2,-0.163 -2,-2.249 C 29,101.736 29,10.877 29,9.694 29,8.374 30.317,7 31.583,7 32.547,7 79.442,7 87.193,7 94.006,7 120,37.326 120,41.504 c 0,4.63 0,62.674 0,77.778 z"/><path style="fill:url(#XMLID_10_)" id="path4561" d="m 120,39 c 0,7.18 -2.82,13 -10,13 -7.18,0 -16,-5.82 -16,-13 0,-7.18 2.82,-9 10,-9 7.18,0 11,4 16,9 z"/><path style="opacity:.5;fill:#343434" id="path4563" d="m 84.415,6.963 c 0.547,0 0.947,0.002 3.616,1.193 4.182,1.891 4.103,22.225 4.103,26.673 l -0.001,0.128 c 0,0.521 0.399,0.959 0.918,1.002 5.973,0.496 23.318,-0.848 26.406,4.026 1.199,1.608 1.365,2.858 1.918,2.858 0.553,0 0.625,-0.786 0.625,-1.339 0,-0.797 -0.257,-1.574 -0.766,-2.428 -0.004,-0.009 -0.002,-0.018 -0.006,-0.026 -0.014,-0.028 -0.038,-0.065 -0.053,-0.094 l 0,-0.001 C 118.87,34.256 95.385,8.574 88.821,6.365 88.815,6.363 88.814,6.357 88.809,6.355 88.802,6.352 88.794,6.353 88.788,6.351 88.767,6.343 88.739,6.328 88.718,6.32 88.624,6.291 88.531,6.279 88.439,6.277 88.01,6.133 87.578,6 87.135,6 86.627,6 84.473,6.457 84.415,6.963 Z"/><path style="fill:url(#XMLID_11_)" id="path4570" d="M 121,41.504 C 117.625,32.875 93.133,34.962 93.133,34.962 93.003,37.629 94.632,7 87.135,7 94.168,7 121,38.814 121,41.504 Z"/><path style="fill:url(#XMLID_12_)" id="path4577" d="M 121,41.504 C 119.5,33.563 94.25,33.438 94.25,33.438 94.225,36.104 94.524,7 87.135,7 94.168,7 121,38.814 121,41.504 Z"/></g><g style="display:inline" id="g8890" transform="matrix(0.69089234,0,0,0.69089234,-33.718558,891.08315)"><title id="title8892">Magnifier</title><path id="path8894" d="m 123.08,72.202 0,0 c -25.417,16.713 -32.499,50.989 -15.786,76.407 7.2598,11.041 18.238,19.113 30.915,22.727 12.265,3.501 25.371,2.5898 37.058,-2.4854 1.0215,1.5547 7.1475,10.871 7.1475,10.871 2.2441,3.4131 7.3467,3.7432 11.87,0.7686 2.6563,-1.7471 4.3457,-4.1299 4.834,-6.4912 0.3418,-1.6572 0.0908,-3.3037 -0.834,-4.7109 0,0 -6.1289,-9.3174 -7.1504,-10.871 8.3018,-7.7871 14.002,-17.928 16.295,-29.023 0.2725,-1.3262 0.5,-2.665 0.6748,-4.0156 1.7041,-13.07 -1.3565,-26.35 -8.6162,-37.39 -16.713,-25.418 -50.99,-32.5 -76.407,-15.786 z" style="fill:url(#x2)"/><path id="path8896" d="m 185.19,166.65 c -3.8799,2.5479 -6.4102,6.1182 -7.127,9.5938 -0.4219,2.041 -0.2188,4.0518 0.707,5.8018 l 0.0293,0.0566 0.0176,0.1035 26.828,40.803 c 3.1055,4.7207 10.631,5.0723 17.131,0.7998 6.501,-4.2744 9.1592,-11.322 6.0557,-16.044 l -26.864,-40.854 -0.0742,-0.0273 c -3.3428,-4.1982 -10.524,-4.2969 -16.703,-0.2324 z" style="fill:url(#x3)"/><path id="path8898" d="m 124.54,74.415 c -11.701,7.6963 -19.711,19.509 -22.553,33.261 -2.8418,13.755 -0.1689,27.775 7.5254,39.478 6.9111,10.51 17.361,18.194 29.427,21.634 12.027,3.4297 24.914,2.4434 36.286,-2.7813 l 1.0352,-0.4736 8.374,12.734 c 1.4131,2.1494 4.9385,2.1533 8.1982,0.009 3.2617,-2.1455 4.6553,-5.3838 3.2422,-7.5322 l -8.375,-12.735 0.8477,-0.7607 c 9.3027,-8.3711 15.317,-19.812 16.934,-32.213 1.6221,-12.441 -1.293,-25.082 -8.2031,-35.592 -15.93,-24.211 -48.56,-30.953 -72.76,-15.043 z" style="fill:url(#x4)"/><path id="path8900" d="m 199.26,169.46 26.51,40.314 c 1.9473,2.9649 -0.2949,7.8779 -5.0078,10.977 -4.7148,3.1016 -10.114,3.2119 -12.064,0.2471 l -26.508,-40.315 17.07,-11.223 z" style="fill:url(#x5)"/><path id="path8902" d="m 198.48,170.72 25.834,39.291 c 1.8984,2.8877 0.4209,7.2109 -3.2979,9.6553 -3.7178,2.4463 -8.2715,2.0879 -10.172,-0.7988 l -25.833,-39.29 13.469,-8.8574 z" style="fill:url(#x6)"/><path id="path8904" d="m 199.26,169.46 c 1.9492,2.9619 -0.2949,7.877 -5.0088,10.976 -4.7139,3.0986 -10.113,3.2129 -12.062,0.2471 -1.9483,-2.9629 0.2939,-7.876 5.0078,-10.976 4.7139,-3.0986 10.113,-3.2119 12.062,-0.2471 z" style="fill:url(#x7)"/><path id="path8906" d="m 110.36,146.6 c -15.63,-23.772 -9.0313,-55.711 14.739,-71.34 23.768,-15.631 55.709,-9.0313 71.338,14.739 14.545,22.119 9.835,51.312 -10.046,67.856 l 8.8418,13.444 c 1.0625,1.6152 -0.2608,4.3623 -2.9522,6.1338 -2.6924,1.7695 -5.7383,1.8955 -6.8008,0.2803 l -8.8389,-13.445 c -23.07,11.698 -51.737,4.4521 -66.281,-17.668 z" style="fill:url(#x8)"/><path id="path8908" d="m 185.93,159.76 c 0,0 8.8564,13.469 9.3623,14.233 -0.2998,0.4492 -1.0439,1.2754 -2.3721,2.1455 -1.3291,0.874 -2.3809,1.2314 -2.9121,1.3281 -0.501,-0.7656 -9.3594,-14.237 -9.3594,-14.237 l 5.2813,-3.4697 z" style="fill:url(#x9)"/><circle id="circle8910" cx="153" cy="118.4" r="47" style="fill:url(#x1)"/><circle id="circle8912" cx="153" cy="118.4" r="44.5" style="fill:url(#r1)"/><circle id="circle8914" cx="153" cy="118.4" r="42" style="fill:url(#r2)"/></g></g></svg>