<svg xmlns="http://www.w3.org/2000/svg" xmlns:svg="http://www.w3.org/2000/svg" xmlns:x="adobe:ns:meta/" xmlns:xap="http://ns.adobe.com/xap/1.0/" xmlns:xapGImg="http://ns.adobe.com/xap/1.0/g/img/" xmlns:xapMM="http://ns.adobe.com/xap/1.0/mm/" id="svg1057" style="overflow:visible" width="128" height="128" version="1.1" viewBox="0 0 128 128" xml:space="preserve"><metadata id="metadata1058"><xpacket>begin=&apos; &apos; id=&apos;W5M0MpCehiHzreSzNTczkc9d&apos;</xpacket><x:xmpmeta x:xmptk="XMP toolkit 3.0-29, framework 1.6"><metadata/></x:xmpmeta><xpacket>end=&apos;w&apos;</xpacket></metadata><g id="Layer_2" transform="scale(2.6666667,2.6666667)"><path style="opacity:.2" id="path1060" d="m 46.563,28.461 c 0,-2.711 -0.311,-7.57 -2.391,-9.65 -1.043,-1.041 -3.688,-1.793 -8.058,-2.299 -0.122,-0.659 -0.67,-1.16 -1.337,-1.219 -0.156,-0.014 -0.317,-0.026 -0.476,-0.04 l 0,-12.469 c 0,-0.4 -0.326,-0.726 -0.726,-0.726 l -18.552,0 c -0.4,0 -0.726,0.326 -0.726,0.726 l 0,12.479 c -0.155,0.014 -0.313,0.025 -0.466,0.039 -0.666,0.061 -1.215,0.562 -1.336,1.219 -4.391,0.509 -7.041,1.258 -8.073,2.29 -2.076,2.076 -2.386,6.985 -2.386,9.727 0,4.595 0.836,10.316 2.386,11.866 0.64,0.641 2.837,1.063 5.781,1.338 -1.394,3.528 -1.458,3.773 -1.458,4.01 0,0.4 0.326,0.727 0.726,0.727 l 29.768,0 c 0.4,0 0.726,-0.326 0.726,-0.727 0,-0.24 -0.067,-0.486 -1.508,-4.038 2.87,-0.271 5.092,-0.685 5.716,-1.31 1.648,-1.648 2.39,-7.977 2.39,-11.943 z"/><path style="opacity:.2" id="path1061" d="m 46.199,28.244 c 0,-2.711 -0.31,-7.569 -2.391,-9.649 -1.043,-1.041 -3.687,-1.793 -8.058,-2.299 -0.122,-0.659 -0.669,-1.16 -1.336,-1.219 -0.156,-0.014 -0.318,-0.026 -0.477,-0.04 l 0,-12.469 c 0,-0.4 -0.325,-0.726 -0.726,-0.726 l -18.551,0 c -0.4,0 -0.726,0.326 -0.726,0.726 l 0,12.479 c -0.155,0.014 -0.313,0.025 -0.466,0.039 -0.666,0.061 -1.215,0.562 -1.336,1.219 -4.391,0.509 -7.041,1.258 -8.073,2.29 -2.076,2.076 -2.386,6.985 -2.386,9.727 0,4.596 0.836,10.317 2.386,11.867 0.64,0.64 2.837,1.063 5.781,1.337 -1.393,3.529 -1.458,3.773 -1.458,4.011 0,0.4 0.325,0.726 0.726,0.726 l 29.768,0 c 0.4,0 0.727,-0.325 0.727,-0.726 0,-0.24 -0.067,-0.487 -1.509,-4.038 2.87,-0.271 5.093,-0.686 5.716,-1.31 1.648,-1.65 2.389,-7.978 2.389,-11.945 z"/><linearGradient id="XMLID_15_" x1="23.701" x2="23.701" y1="41.676" y2="14.33" gradientUnits="userSpaceOnUse"><stop style="stop-color:#616161" id="stop1063" offset="0"/><stop style="stop-color:#555" id="stop1064" offset=".522"/><stop style="stop-color:#494949" id="stop1065" offset="1"/></linearGradient><path style="fill:url(#XMLID_15_)" id="path1071" d="m 13.232,14.766 0,0 c -0.666,0.06 -1.215,0.561 -1.337,1.219 -4.391,0.509 -7.04,1.257 -8.072,2.29 -2.076,2.076 -2.386,6.985 -2.386,9.727 0,4.596 0.836,10.316 2.386,11.867 1.508,1.508 11.653,1.814 19.897,1.808 6.745,-0.005 18.292,-0.246 19.853,-1.808 1.648,-1.649 2.391,-7.979 2.391,-11.944 0,-2.711 -0.311,-7.569 -2.391,-9.649 -1.043,-1.042 -3.688,-1.793 -8.058,-2.3 -0.122,-0.659 -0.67,-1.16 -1.337,-1.219 -6.342,-0.573 -14.563,-0.569 -20.946,0.009 z m -1.337,1.22 0,10e-4 c 0,-10e-4 0,-10e-4 0,-10e-4 z"/><linearGradient id="XMLID_16_" x1="23.701" x2="23.701" y1="40.503" y2="29.895" gradientUnits="userSpaceOnUse"><stop style="stop-color:#cecedb" id="stop1073" offset="0"/><stop style="stop-color:#e9e9ef" id="stop1074" offset=".185"/><stop style="stop-color:#cecedb" id="stop1075" offset=".522"/><stop style="stop-color:#b1b1c5" id="stop1076" offset="1"/></linearGradient><path style="fill:url(#XMLID_16_)" id="path1084" d="m 4.552,39.501 c 2.037,2.037 36.312,1.979 38.291,0 1.979,-1.979 3.491,-16.643 0,-20.134 -3.491,-3.492 -34.857,-3.434 -38.291,0 -3.433,3.433 -2.036,18.098 0,20.134 z"/><linearGradient id="XMLID_17_" x1="23.702" x2="23.702" y1="32.068" y2="1.55" gradientUnits="userSpaceOnUse"><stop style="stop-color:#f7f7f7" id="stop1086" offset="0"/><stop style="stop-color:#f3f3f4" id="stop1087" offset=".235"/><stop style="stop-color:#e6e6eb" id="stop1088" offset=".477"/><stop style="stop-color:#d2d2dc" id="stop1089" offset=".723"/><stop style="stop-color:#b5b5c8" id="stop1090" offset=".97"/><stop style="stop-color:#b1b1c5" id="stop1091" offset="1"/></linearGradient><path style="fill:url(#XMLID_17_)" id="path1095" d="m 23.701,31.341 c 8.459,0 16.045,-1.652 21.208,-4.268 -0.118,-3.434 -0.72,-6.563 -2.066,-7.964 -3.491,-3.633 -34.857,-3.572 -38.291,0 -1.329,1.383 -1.934,4.52 -2.059,7.965 5.164,2.615 12.75,4.267 21.208,4.267 z"/><linearGradient id="XMLID_18_" x1="23.702" x2="23.702" y1="31.458" y2="2.129" gradientUnits="userSpaceOnUse"><stop style="stop-color:#f7f7f7" id="stop1097" offset="0"/><stop style="stop-color:#bdbdcf" id="stop1098" offset=".506"/><stop style="stop-color:#b1b1c5" id="stop1099" offset="1"/></linearGradient><path style="fill:url(#XMLID_18_)" id="path1105" d="m 23.701,30.759 c 8.459,0 16.045,-1.588 21.208,-4.101 -0.118,-3.301 -0.72,-6.308 -2.066,-7.654 -3.491,-3.492 -34.857,-3.434 -38.291,0 -1.329,1.329 -1.934,4.343 -2.059,7.655 5.164,2.513 12.75,4.1 21.208,4.1 z"/><rect style="opacity:.8;fill:#fff" id="rect1106" width="30.013" height=".748" x="8.805" y="36.878"/><linearGradient id="XMLID_19_" x1="20.986" x2="31.818" y1="39.322" y2="50.155" gradientUnits="userSpaceOnUse"><stop style="stop-color:#9a9ab1" id="stop1108" offset="0"/><stop style="stop-color:#585868" id="stop1109" offset="1"/></linearGradient><path style="fill:url(#XMLID_19_)" id="path1113" d="m 12.828,34.119 c -0.37,0 -0.689,0.403 -0.728,0.765 0.001,-0.013 0.002,-0.026 0.002,-0.039 0,-0.014 -0.012,-0.022 -0.014,-0.036 -0.154,0.506 -0.949,2.521 -1.901,4.923 -1.961,4.944 -2.042,5.218 -2.042,5.484 0,0.4 0.325,0.726 0.726,0.726 l 29.769,0 c 0.399,0 0.726,-0.325 0.726,-0.726 0,-0.27 -0.083,-0.543 -2.087,-5.463 -0.844,-2.071 -1.563,-3.845 -1.854,-4.637 -0.065,-0.058 -0.11,-0.138 -0.121,-0.231 -0.039,-0.361 -0.359,-0.766 -0.728,-0.766 l -21.748,0 z m -1.403,0.597 c 0.032,0.138 0.125,0.256 0.271,0.283 0.166,0.03 0.315,-0.067 0.382,-0.216 -0.029,-0.152 -0.138,-0.281 -0.301,-0.299 -0.162,-0.017 -0.291,0.088 -0.352,0.232 z"/><linearGradient id="XMLID_20_" x1="23.702" x2="23.702" y1="31.961" y2="37.149" gradientUnits="userSpaceOnUse"><stop style="stop-color:#b2b2b2" id="stop1115" offset="0"/><stop style="stop-color:#828282" id="stop1116" offset="1"/></linearGradient><path style="opacity:.8;fill:url(#XMLID_20_)" id="path1120" d="m 37.896,31.961 0,5.188 c 0.366,0 0.622,0 0.741,0 10e-4,-1.276 -0.741,-5.188 -0.741,-5.188 z m -29.13,5.188 c 0.133,0 0.385,0 0.733,0 l 0,-5.188 c 0,0 -0.733,3.912 -0.733,5.188 z"/><linearGradient id="XMLID_21_" x1="23.698" x2="23.698" y1="37.044" y2="32.738" gradientUnits="userSpaceOnUse"><stop style="stop-color:#666" id="stop1122" offset="0"/><stop style="stop-color:#333" id="stop1123" offset="1"/></linearGradient><rect style="fill:url(#XMLID_21_)" id="rect1127" width="28.397" height="4.306" x="9.499" y="32.738"/><path style="opacity:.5;fill:#fff" id="path1128" d="m 34.065,19.702 c 3.383,0 6.63,0.213 9.653,0.604 -0.248,-0.523 -0.538,-0.965 -0.876,-1.302 -3.491,-3.492 -34.857,-3.434 -38.291,0 -1.329,1.329 -1.934,4.343 -2.059,7.655 0.956,0.465 1.995,0.899 3.106,1.296 3.172,-4.74 14.713,-8.253 28.467,-8.253 z"/><g id="g1129"><circle style="fill:#366" id="circle1130" cx="39.937" cy="22.176" r=".972"/><linearGradient id="XMLID_22_" x1="-6.497" x2="-6.382" y1="-38.181" y2="-37.491" gradientTransform="matrix(0.7071,-0.7071,0.7071,0.7071,71.522,44.5771)" gradientUnits="userSpaceOnUse"><stop style="stop-color:#72c296" id="stop1132" offset="0"/><stop style="stop-color:#009f81" id="stop1133" offset="1"/></linearGradient><path style="fill:url(#XMLID_22_)" id="path1137" d="m 40.235,21.398 c -0.359,0.031 -0.888,0.397 -1.061,0.843 -0.171,0.445 0.103,0.744 0.462,0.713 0.36,-0.03 0.89,-0.397 1.061,-0.842 0.171,-0.445 -0.103,-0.744 -0.462,-0.714 z"/><linearGradient id="XMLID_23_" x1="-6.313" x2="-6.313" y1="-38.719" y2="-38.161" gradientTransform="matrix(0.7071,-0.7071,0.7071,0.7071,71.522,44.5771)" gradientUnits="userSpaceOnUse"><stop style="stop-color:#fff" id="stop1139" offset="0"/><stop style="stop-color:#3c6" id="stop1140" offset="1"/></linearGradient><path style="fill:url(#XMLID_23_)" id="path1144" d="m 40.238,21.388 c -0.306,0.027 -0.763,0.34 -0.918,0.719 -0.029,0.071 -0.045,0.137 -0.049,0.198 0.214,-0.056 0.437,-0.135 0.646,-0.233 0.38,-0.178 0.624,-0.376 0.683,-0.531 -0.075,-0.109 -0.208,-0.167 -0.362,-0.153 z"/></g><path style="fill:#fff" id="path1145" d="m 44.908,26.618 c -0.016,-0.396 -0.036,-0.787 -0.065,-1.172 0.029,0.385 0.05,0.777 0.065,1.172 z"/><path style="fill:#fff" id="path1146" d="m 44.908,26.618 c 0,0.013 0,0.027 0,0.04 10e-4,0 10e-4,0 10e-4,0 0,-0.013 -10e-4,-0.027 -10e-4,-0.04 z"/><path style="fill:#fff" id="path1147" d="M 36.536,29.442 C 35.99,25.495 35.198,20.019 34.503,16.164 34.465,15.957 34.295,15.802 34.087,15.783 27.799,15.217 19.649,15.22 13.326,15.794 c -0.208,0.019 -0.378,0.174 -0.416,0.38 -0.704,3.858 -1.521,9.323 -2.086,13.261 3.859,0.845 8.236,1.324 12.877,1.324 4.623,0 8.986,-0.476 12.835,-1.317 z"/><linearGradient id="XMLID_24_" x1="23.679" x2="23.679" y1="30.654" y2="15.826" gradientUnits="userSpaceOnUse"><stop style="stop-color:#949494" id="stop1149" offset="0"/><stop style="stop-color:#616161" id="stop1150" offset="1"/></linearGradient><path style="fill:url(#XMLID_24_)" id="path1154" d="m 13.368,16.254 c -0.73,3.973 -1.588,9.725 -2.096,13.233 3.774,0.749 7.986,1.167 12.429,1.167 4.427,0 8.623,-0.416 12.385,-1.158 -0.488,-3.51 -1.318,-9.275 -2.041,-13.253 -6.286,-0.562 -14.39,-0.555 -20.677,0.011 z"/><linearGradient id="XMLID_25_" x1="23.701" x2="23.701" y1="4.513" y2="19.908" gradientUnits="userSpaceOnUse"><stop style="stop-color:#9a9ab1" id="stop1156" offset="0"/><stop style="stop-color:#585868" id="stop1157" offset="1"/></linearGradient><path style="fill:url(#XMLID_25_)" id="path1161" d="m 14.424,1.522 c -0.401,0 -0.726,0.325 -0.726,0.726 l 0,22.626 c 0,0.4 0.325,0.726 0.726,0.726 l 18.552,0 c 0.4,0 0.727,-0.325 0.727,-0.726 l 0,-22.626 c 0,-0.401 -0.326,-0.726 -0.727,-0.726 l -18.552,0 z"/><path style="fill:#fff" id="path1162" d="m 14.424,2.248 c 0,0.406 0,22.221 0,22.626 0.404,0 18.149,0 18.552,0 0,-0.405 0,-22.22 0,-22.626 -0.403,0 -18.148,0 -18.552,0 z"/><linearGradient id="XMLID_26_" x1="12.679" x2="32.335" y1="2.539" y2="22.196" gradientUnits="userSpaceOnUse"><stop style="stop-color:#fff" id="stop1164" offset=".32"/><stop style="stop-color:#e6eef6" id="stop1165" offset=".624"/><stop style="stop-color:#cecedb" id="stop1166" offset=".938"/></linearGradient><path style="fill:url(#XMLID_26_)" id="path1172" d="m 15.875,3.699 c 0,2.369 0,17.355 0,19.723 2.257,0 13.393,0 15.65,0 0,-2.368 0,-17.354 0,-19.723 -2.256,0 -13.392,0 -15.65,0 z"/><path style="fill:#fff" id="path1173" d="m 12.828,34.845 c 0,0.396 -3.957,9.976 -3.957,10.371 0.994,0 28.775,0 29.768,0 0,-0.396 -4.064,-9.976 -4.064,-10.371 -0.993,0 -20.753,0 -21.747,0 z"/><linearGradient id="XMLID_27_" x1="14.501" x2="35.79" y1="32.291" y2="53.581" gradientUnits="userSpaceOnUse"><stop style="stop-color:#fff" id="stop1175" offset="0"/><stop style="stop-color:#cecedb" id="stop1176" offset="1"/></linearGradient><path style="fill:url(#XMLID_27_)" id="path1180" d="m 13.871,36.297 c -0.294,0.784 -0.797,2.064 -1.67,4.265 -0.403,1.016 -0.882,2.224 -1.262,3.202 3.31,0 22.275,0 25.614,0 -0.39,-0.977 -0.879,-2.178 -1.291,-3.189 -0.9,-2.209 -1.418,-3.493 -1.72,-4.277 -1.781,-0.001 -17.876,-0.001 -19.671,-0.001 z"/><path style="fill:#0053bd" id="path1181" d="m 13.77,19.497 c -0.702,2.889 -1.526,7.071 -2.014,9.622 3.626,0.544 7.674,0.849 11.945,0.849 4.254,0 8.287,-0.303 11.903,-0.843 -0.47,-2.552 -1.269,-6.743 -1.963,-9.635 -6.042,-0.41 -13.829,-0.404 -19.871,0.007 z"/><linearGradient id="XMLID_28_" x1="23.679" x2="23.679" y1="19.699" y2="28.979" gradientUnits="userSpaceOnUse"><stop style="stop-color:#f7f7f7" id="stop1183" offset="0"/><stop style="stop-color:#e5f0f8" id="stop1184" offset=".043"/><stop style="stop-color:#6bc2fc" id="stop1185" offset=".339"/><stop style="stop-color:#1ea4fe" id="stop1186" offset=".542"/><stop style="stop-color:#09f" id="stop1187" offset=".635"/><stop style="stop-color:#006dff" id="stop1188" offset="1"/></linearGradient><path style="fill:url(#XMLID_28_)" id="path1194" d="m 13.77,19.981 c -0.702,2.92 -1.526,7.147 -2.014,9.728 3.626,0.55 7.674,0.857 11.945,0.857 4.254,0 8.287,-0.306 11.903,-0.852 -0.47,-2.58 -1.269,-6.817 -1.963,-9.741 C 27.599,19.56 19.812,19.565 13.77,19.981 Z"/><path style="opacity:.4;fill:#fff" id="path1195" d="m 33.717,21.215 c 0.067,0 0.135,0.001 0.203,0.002 -0.095,-0.431 -0.188,-0.847 -0.279,-1.238 -6.042,-0.421 -13.829,-0.416 -19.871,0.008 -0.669,2.832 -1.448,6.869 -1.942,9.514 3.244,-4.834 11.819,-8.286 21.889,-8.286 z"/><path style="opacity:.2" id="path1196" d="m 35.055,37.121 c -0.293,-1.339 -0.479,-2.25 -0.479,-2.401 -0.993,0 -20.753,0 -21.747,0 0,0.151 -0.182,1.063 -0.466,2.401 l 22.692,0 z"/><polyline id="_x3C_Slice_x3E_" points="0 48 0 0 48 0 48 48" style="fill:none"/></g></svg>