<svg xmlns="http://www.w3.org/2000/svg" xmlns:svg="http://www.w3.org/2000/svg" xmlns:xlink="http://www.w3.org/1999/xlink" id="svg14662" width="128" height="128" version="1.0" viewBox="0 0 128 128"><metadata id="metadata4101"/><defs id="defs14664"><linearGradient id="linearGradient5093"><stop id="stop5095" offset="0" stop-color="#0e7309" style="stop-color:#78afd1;stop-opacity:1"/><stop id="stop5097" offset="1" stop-color="#70d13e" style="stop-color:#1e5e7a;stop-opacity:1"/></linearGradient><linearGradient id="linearGradient3219"><stop id="stop3221" offset="0" stop-color="#0e7309"/><stop id="stop3223" offset="1" stop-color="#70d13e"/></linearGradient><linearGradient id="linearGradient14691" x1="96.125" x2="96.125" y1="11.188" y2="52.101" gradientUnits="userSpaceOnUse"><stop id="stop14687" offset="0" stop-color="#0917a0"/><stop id="stop14689" offset="1" stop-color="#0345f4"/></linearGradient><radialGradient id="radialGradient14715" cx="546.31" cy="705.48" r="25.281" gradientTransform="matrix(2.0328,0,-3.2891e-8,1.7173,-1013.15,-1155.43)" gradientUnits="userSpaceOnUse"><stop id="stop14711" offset="0" stop-color="#fff"/><stop id="stop14713" offset="1" stop-color="#5eb2ff"/></radialGradient><filter id="filter14824"><feGaussianBlur id="feGaussianBlur14826" stdDeviation=".373"/></filter><linearGradient id="linearGradient3302" x1="96.382" x2="96.382" y1="30.667" y2="13.187" gradientTransform="matrix(0.93485,0,0,0.93485,6.26,2.06)" gradientUnits="userSpaceOnUse"><stop id="stop3284" offset="0" stop-color="#fff" stop-opacity="0"/><stop id="stop3286" offset="1" stop-color="#fff"/></linearGradient><linearGradient id="linearGradient3325" x1="41.946" x2="41.946" y1="46.665" y2="82.333" gradientTransform="matrix(1.496,0,0,1.496,-26.913446,-54.632846)" gradientUnits="userSpaceOnUse"><stop id="stop3321" offset="0" stop-color="#7d491f"/><stop id="stop3323" offset="1" stop-color="#926600"/></linearGradient><radialGradient id="radialGradient3333" cx="53.602" cy="59.729" r="17.834" gradientTransform="matrix(0,2.4770768,-2.4522432,0,200.70295,-103.88715)" gradientUnits="userSpaceOnUse"><stop id="stop3329" offset="0" stop-color="#fff"/><stop id="stop3335" offset=".5" stop-color="#fdd99a" style="stop-color:#ffe398;stop-opacity:1"/><stop id="stop3331" offset="1" stop-color="#c39539" style="stop-color:#ff8251;stop-opacity:1"/></radialGradient><linearGradient id="linearGradient3345" x1="28.429" x2="58.959" y1="61.798" y2="61.798" gradientTransform="translate(18.346554,-7.0328458)" gradientUnits="userSpaceOnUse"><stop id="stop3341" offset="0" stop-color="#e8e8e8"/><stop id="stop3347" offset=".5" stop-color="#fff"/><stop id="stop3343" offset="1" stop-color="#e8e8e8"/></linearGradient><filter id="filter3385"><feGaussianBlur id="feGaussianBlur3387" stdDeviation=".146"/></filter><linearGradient id="linearGradient3203" x1="83.281" x2="83.281" y1="123.1" y2="66.311" gradientTransform="translate(18.346554,-7.0328458)" gradientUnits="userSpaceOnUse"><stop id="stop3199" offset="0" stop-color="#002f32" style="stop-color:#00346f;stop-opacity:1"/><stop id="stop3201" offset="1" stop-color="#045b04" style="stop-color:#007fab;stop-opacity:1"/></linearGradient><radialGradient id="radialGradient3211" cx="491.52" cy="670.93" r="36.427" gradientTransform="matrix(0,2.0238,-1.9581,0,1376.1166,-956.45285)" gradientUnits="userSpaceOnUse"><stop id="stop3207" offset="0" stop-color="#2c8300"/><stop id="stop3215" offset=".25" stop-color="#3db800"/><stop id="stop3213" offset=".5" stop-color="#fff"/><stop id="stop3209" offset="1" stop-color="#69cf35" style="stop-color:#00a2bb;stop-opacity:1"/></radialGradient><linearGradient id="linearGradient3240" x1="517.02" x2="517.02" y1="705.48" y2="745.3" gradientTransform="matrix(-1,0,0,1,554.24655,-643.96285)" gradientUnits="userSpaceOnUse" xlink:href="#linearGradient5093"/><linearGradient id="linearGradient3243" x1="517.02" x2="517.02" y1="705.48" y2="745.3" gradientTransform="translate(-429.2035,-643.96285)" gradientUnits="userSpaceOnUse" xlink:href="#linearGradient5093"/><radialGradient id="radialGradient3267" cx="479.68" cy="709.66" r="5.006" gradientTransform="matrix(1.234,-0.1516,0.1908,1.553,-676.71345,-964.11285)" gradientUnits="userSpaceOnUse" xlink:href="#radialGradient14715"><stop id="stop3263" offset="0" stop-color="#fff" stop-opacity="0"/><stop id="stop3269" offset=".5" stop-color="#fff" stop-opacity="0"/><stop id="stop3265" offset="1" stop-color="#fff"/></radialGradient><filter id="filter3331"><feGaussianBlur id="feGaussianBlur3333" stdDeviation=".355"/></filter><filter id="filter3335"><feGaussianBlur id="feGaussianBlur3337" stdDeviation=".267"/></filter><filter id="filter3339"><feGaussianBlur id="feGaussianBlur3341" stdDeviation=".239"/></filter><radialGradient id="radialGradient2986" cx="49.904" cy="47.092" r="30.084" fx="49.904" fy="47.092" gradientTransform="matrix(0.98200946,0,0,0.9822714,39.622337,28.960053)" gradientUnits="userSpaceOnUse" xlink:href="#XMLID_15_"/><radialGradient id="XMLID_15_" cx="49.904" cy="47.092" r="30.084" fx="49.904" fy="47.092" gradientTransform="matrix(0.3749,0,0,0.375,14.9959,15)" gradientUnits="userSpaceOnUse"><stop id="stop555" offset="0" style="stop-color:#fbfd4a;stop-opacity:1"/><stop id="stop556" offset="1" style="stop-color:#ff3600;stop-opacity:1"/></radialGradient><linearGradient id="linearGradient2983" x1="33.705" x2="33.705" y1="29.923" y2="40.927" gradientTransform="matrix(2.6193904,0,0,2.6193904,0.34221974,-10.330803)" gradientUnits="userSpaceOnUse" xlink:href="#XMLID_16_"/><linearGradient id="XMLID_16_" x1="33.705" x2="33.705" y1="29.923" y2="40.927" gradientUnits="userSpaceOnUse"><stop id="stop562" offset="0" style="stop-color:#ffc842;stop-opacity:1"/><stop id="stop563" offset="1" style="stop-color:#ffc842;stop-opacity:1"/></linearGradient><linearGradient id="linearGradient2980" x1="43.617" x2="36.869" y1="24.517" y2="29.578" gradientTransform="matrix(2.6193904,0,0,2.6193904,0.34221974,-10.330803)" gradientUnits="userSpaceOnUse" xlink:href="#XMLID_17_"/><linearGradient id="XMLID_17_" x1="43.617" x2="36.869" y1="24.517" y2="29.578" gradientUnits="userSpaceOnUse"><stop id="stop569" offset="0" style="stop-color:#ffc842;stop-opacity:1"/><stop id="stop570" offset="1" style="stop-color:#000"/></linearGradient><radialGradient id="radialGradient2967" cx="16.352" cy="37.996" r="49.415" fx="16.352" fy="37.996" gradientTransform="matrix(0.98200946,0,0,0.9822714,39.622337,28.960053)" gradientUnits="userSpaceOnUse" xlink:href="#XMLID_20_"/><radialGradient id="XMLID_20_" cx="16.352" cy="37.996" r="49.415" fx="16.352" fy="37.996" gradientTransform="matrix(0.3749,0,0,0.375,14.9959,15)" gradientUnits="userSpaceOnUse"><stop id="stop594" offset="0" style="stop-color:#fbfd4a;stop-opacity:1"/><stop id="stop595" offset="1" style="stop-color:#ff3600;stop-opacity:1"/></radialGradient><radialGradient id="radialGradient2963" cx="38.168" cy="18.062" r="90.268" fx="38.168" fy="18.062" gradientTransform="matrix(0.97284159,-0.13411279,0.13385085,0.97310353,35.092625,34.427507)" gradientUnits="userSpaceOnUse" xlink:href="#XMLID_21_"/><radialGradient id="XMLID_21_" cx="38.168" cy="18.062" r="90.268" fx="38.168" fy="18.062" gradientTransform="matrix(0.3714,-0.0512,0.0511,0.3715,13.2666,17.0873)" gradientUnits="userSpaceOnUse"><stop id="stop602" offset="0" style="stop-color:#fbf885;stop-opacity:1"/><stop id="stop603" offset=".5" style="stop-color:#ffc842;stop-opacity:1"/><stop id="stop604" offset="1" style="stop-color:#ff8119;stop-opacity:1"/></radialGradient><linearGradient id="linearGradient2960" x1="9.663" x2="9.663" y1="14.929" y2="11.929" gradientTransform="matrix(2.5950301,-0.35728485,0.35728485,2.5950301,-11.742076,4.2505576)" gradientUnits="userSpaceOnUse" xlink:href="#XMLID_22_"/><linearGradient id="XMLID_22_" x1="9.663" x2="9.663" y1="14.929" y2="11.929" gradientTransform="matrix(0.9907,-0.1364,0.1364,0.9907,-4.6134,5.5667)" gradientUnits="userSpaceOnUse"><stop id="stop612" offset="0" style="stop-color:#ffc842;stop-opacity:1"/><stop id="stop613" offset=".055" style="stop-color:#ffdd57;stop-opacity:1"/><stop id="stop614" offset=".344" style="stop-color:#fde059;stop-opacity:1"/><stop id="stop615" offset=".608" style="stop-color:#fbe865;stop-opacity:1"/><stop id="stop616" offset=".835" style="stop-color:#faea66;stop-opacity:1"/><stop id="stop617" offset="1" style="stop-color:#fbf885;stop-opacity:1"/></linearGradient><linearGradient id="linearGradient2957" x1="13.461" x2="29.054" y1="13.736" y2="34.062" gradientTransform="matrix(2.5950301,-0.35728485,0.35728485,2.5950301,-11.742076,4.2505576)" gradientUnits="userSpaceOnUse" xlink:href="#XMLID_23_"/><linearGradient id="XMLID_23_" x1="13.461" x2="29.054" y1="13.736" y2="34.062" gradientTransform="matrix(0.9907,-0.1364,0.1364,0.9907,-4.6134,5.5667)" gradientUnits="userSpaceOnUse"><stop id="stop623" offset="0" style="stop-color:#fff"/><stop id="stop624" offset="1" style="stop-color:#f8ff51;stop-opacity:1"/></linearGradient><linearGradient id="XMLID_28_" x1="41.545" x2="36.144" y1="40.628" y2="36.65" gradientUnits="userSpaceOnUse"><stop id="stop655" offset="0" style="stop-color:#ffff7e;stop-opacity:1"/><stop id="stop656" offset="1" style="stop-color:#ff9e00;stop-opacity:1"/></linearGradient><linearGradient id="XMLID_11_" x1="128" x2="128" y1="244.428" y2="11.573" gradientUnits="userSpaceOnUse"><stop style="stop-color:#0035ed;stop-opacity:1" id="stop120" offset=".006"/><stop style="stop-color:#00008d;stop-opacity:1" id="stop122" offset=".545"/><stop style="stop-color:#0053bd;stop-opacity:1" id="stop124" offset="1"/><midPointStop style="stop-color:#0035ed" id="midPointStop126" offset=".006"/><midPointStop style="stop-color:#0035ed" id="midPointStop128" offset=".5"/><midPointStop style="stop-color:#00008d" id="midPointStop130" offset=".545"/><midPointStop style="stop-color:#00008d" id="midPointStop132" offset=".5"/><midPointStop style="stop-color:#0053bd" id="midPointStop134" offset="1"/></linearGradient><linearGradient id="XMLID_12_" x1="128" x2="127.999" y1="244.407" y2="11.546" gradientUnits="userSpaceOnUse"><stop style="stop-color:#428aff;stop-opacity:1" id="stop141" offset=".006"/><stop style="stop-color:#94caff;stop-opacity:1" id="stop143" offset=".573"/><stop style="stop-color:#dcf0ff;stop-opacity:1" id="stop145" offset="1"/><midPointStop style="stop-color:#428aff" id="midPointStop147" offset=".006"/><midPointStop style="stop-color:#428aff" id="midPointStop149" offset=".5"/><midPointStop style="stop-color:#94caff" id="midPointStop151" offset=".573"/><midPointStop style="stop-color:#94caff" id="midPointStop153" offset=".5"/><midPointStop style="stop-color:#dcf0ff" id="midPointStop155" offset="1"/></linearGradient><linearGradient id="XMLID_13_" x1="128.002" x2="128.002" y1="239.712" y2="16.285" gradientUnits="userSpaceOnUse"><stop style="stop-color:#fff;stop-opacity:1" id="stop162" offset="0"/><stop style="stop-color:#006dff;stop-opacity:1" id="stop164" offset=".5"/><stop style="stop-color:#c9e6ff;stop-opacity:1" id="stop166" offset="1"/><midPointStop style="stop-color:#fff" id="midPointStop168" offset="0"/><midPointStop style="stop-color:#fff" id="midPointStop170" offset=".5"/><midPointStop style="stop-color:#006dff" id="midPointStop172" offset=".5"/><midPointStop style="stop-color:#006dff" id="midPointStop174" offset=".5"/><midPointStop style="stop-color:#c9e6ff" id="midPointStop176" offset="1"/></linearGradient><radialGradient id="XMLID_14_" cx="59.616" cy="234.039" r="69.963" fx="59.616" fy="234.039" gradientTransform="matrix(1.4187,0,0,1.4187,43.4252,-204.0338)" gradientUnits="userSpaceOnUse"><stop style="stop-color:#fff;stop-opacity:1" id="stop187" offset=".601"/><stop style="stop-color:#eaeaf0;stop-opacity:1" id="stop189" offset=".876"/><stop style="stop-color:#e6e6ed;stop-opacity:1" id="stop191" offset=".914"/><stop style="stop-color:#dbdbe5;stop-opacity:1" id="stop193" offset=".95"/><stop style="stop-color:#c8c8d7;stop-opacity:1" id="stop195" offset=".985"/><stop style="stop-color:#bdbdcf;stop-opacity:1" id="stop197" offset="1"/><midPointStop style="stop-color:#fff" id="midPointStop199" offset=".601"/><midPointStop style="stop-color:#fff" id="midPointStop201" offset=".5"/><midPointStop style="stop-color:#eaeaf0" id="midPointStop203" offset=".876"/><midPointStop style="stop-color:#eaeaf0" id="midPointStop205" offset=".718"/><midPointStop style="stop-color:#bdbdcf" id="midPointStop207" offset="1"/></radialGradient><linearGradient id="XMLID_15_-1" x1="62.463" x2="154.298" y1="149.695" y2="149.695" gradientTransform="matrix(0.9546,0.0532,0.0532,0.9377,-6.635652,8.097183)" gradientUnits="userSpaceOnUse"><stop style="stop-color:#f66;stop-opacity:1" id="stop260" offset="0"/><stop style="stop-color:red;stop-opacity:1" id="stop262" offset="1"/><midPointStop style="stop-color:#f66" id="midPointStop264" offset="0"/><midPointStop style="stop-color:#f66" id="midPointStop266" offset=".5"/><midPointStop style="stop-color:red" id="midPointStop268" offset="1"/></linearGradient><linearGradient id="XMLID_16_-7" x1="-123.349" x2="-116.198" y1="-86.029" y2="-86.029" gradientTransform="matrix(0.2588,0.9659,-0.9659,0.2588,104.8109,257.7903)" gradientUnits="userSpaceOnUse"><stop style="stop-color:#585868;stop-opacity:1" id="stop283" offset="0"/><stop style="stop-color:#656575;stop-opacity:1" id="stop285" offset=".008"/><stop style="stop-color:#8b8b99;stop-opacity:1" id="stop287" offset=".034"/><stop style="stop-color:#a8a8b6;stop-opacity:1" id="stop289" offset=".06"/><stop style="stop-color:#bdbdcb;stop-opacity:1" id="stop291" offset=".086"/><stop style="stop-color:#cacad7;stop-opacity:1" id="stop293" offset=".111"/><stop style="stop-color:#cecedb;stop-opacity:1" id="stop295" offset=".135"/><stop style="stop-color:#9a9ab1;stop-opacity:1" id="stop297" offset=".466"/><stop style="stop-color:#7d7d99;stop-opacity:1" id="stop299" offset=".854"/><stop style="stop-color:#585868;stop-opacity:1" id="stop301" offset="1"/><midPointStop style="stop-color:#585868" id="midPointStop303" offset="0"/><midPointStop style="stop-color:#585868" id="midPointStop305" offset=".303"/><midPointStop style="stop-color:#cecedb" id="midPointStop307" offset=".135"/><midPointStop style="stop-color:#cecedb" id="midPointStop309" offset=".5"/><midPointStop style="stop-color:#9a9ab1" id="midPointStop311" offset=".466"/><midPointStop style="stop-color:#9a9ab1" id="midPointStop313" offset=".5"/><midPointStop style="stop-color:#7d7d99" id="midPointStop315" offset=".854"/><midPointStop style="stop-color:#7d7d99" id="midPointStop317" offset=".5"/><midPointStop style="stop-color:#585868" id="midPointStop319" offset="1"/></linearGradient><linearGradient id="XMLID_17_-2" x1="-218.144" x2="-210.992" y1="58.222" y2="58.222" gradientTransform="matrix(-0.5,0.866,-0.866,-0.5,37.93764,322.7147)" gradientUnits="userSpaceOnUse"><stop style="stop-color:#585868;stop-opacity:1" id="stop330" offset="0"/><stop style="stop-color:#cecedb;stop-opacity:1" id="stop332" offset=".191"/><stop style="stop-color:#9a9ab1;stop-opacity:1" id="stop334" offset=".466"/><stop style="stop-color:#7d7d99;stop-opacity:1" id="stop336" offset=".854"/><stop style="stop-color:#585868;stop-opacity:1" id="stop338" offset="1"/><midPointStop style="stop-color:#585868" id="midPointStop340" offset="0"/><midPointStop style="stop-color:#585868" id="midPointStop342" offset=".5"/><midPointStop style="stop-color:#cecedb" id="midPointStop344" offset=".191"/><midPointStop style="stop-color:#cecedb" id="midPointStop346" offset=".5"/><midPointStop style="stop-color:#9a9ab1" id="midPointStop348" offset=".466"/><midPointStop style="stop-color:#9a9ab1" id="midPointStop350" offset=".5"/><midPointStop style="stop-color:#7d7d99" id="midPointStop352" offset=".854"/><midPointStop style="stop-color:#7d7d99" id="midPointStop354" offset=".5"/><midPointStop style="stop-color:#585868" id="midPointStop356" offset="1"/></linearGradient><linearGradient id="XMLID_18_" x1="116.54" x2="139.459" y1="128" y2="128" gradientUnits="userSpaceOnUse"><stop style="stop-color:#9a9ab1;stop-opacity:1" id="stop365" offset="0"/><stop style="stop-color:#585868;stop-opacity:1" id="stop367" offset="1"/><midPointStop style="stop-color:#9a9ab1" id="midPointStop369" offset="0"/><midPointStop style="stop-color:#9a9ab1" id="midPointStop371" offset=".5"/><midPointStop style="stop-color:#585868" id="midPointStop373" offset="1"/></linearGradient><radialGradient id="XMLID_19_" cx="126.62" cy="116.175" r="22.186" fx="126.62" fy="116.175" gradientUnits="userSpaceOnUse"><stop style="stop-color:#9a9ab1;stop-opacity:1" id="stop380" offset="0"/><stop style="stop-color:#585868;stop-opacity:1" id="stop382" offset=".59"/><stop style="stop-color:#fff;stop-opacity:1" id="stop384" offset="1"/><midPointStop style="stop-color:#9a9ab1" id="midPointStop386" offset="0"/><midPointStop style="stop-color:#9a9ab1" id="midPointStop388" offset=".5"/><midPointStop style="stop-color:#585868" id="midPointStop390" offset=".59"/><midPointStop style="stop-color:#585868" id="midPointStop392" offset=".5"/><midPointStop style="stop-color:#fff" id="midPointStop394" offset="1"/></radialGradient><linearGradient id="XMLID_20_-4" x1="117.744" x2="137.875" y1="123.586" y2="123.586" gradientUnits="userSpaceOnUse"><stop style="stop-color:#fff;stop-opacity:1" id="stop401" offset="0"/><stop style="stop-color:#585868;stop-opacity:1" id="stop403" offset="1"/><midPointStop style="stop-color:#fff" id="midPointStop405" offset="0"/><midPointStop style="stop-color:#fff" id="midPointStop407" offset=".5"/><midPointStop style="stop-color:#585868" id="midPointStop409" offset="1"/></linearGradient></defs><g id="g12321" transform="translate(1.3951566,-8.9865141)"><rect id="rect5122" width="128" height="128" x="-1.395" y="8.987" style="opacity:0;fill:#ffd498;fill-opacity:1;stroke:none;stroke-width:1.27519631;stroke-linecap:round;stroke-linejoin:round;stroke-miterlimit:4;stroke-dasharray:none;stroke-dashoffset:0;stroke-opacity:1"/><g id="g12212"><g id="g10043" transform="translate(1.2972973,0.43243244)"><path style="fill:url(#radialGradient2986)" id="path560" d="m 120.30244,50.80053 -63.865975,8.518258 c -1.02942,0.136208 -1.770707,1.047756 -1.697364,2.085034 l 2.567002,36.417385 c 0.07596,1.071331 1.000607,1.885961 2.074557,1.823096 l 48.67351,-2.849897 c 0.82249,-0.05239 1.52972,-0.605079 1.76809,-1.396135 l 12.62022,-42.088365 c 0.19122,-0.639131 0.0498,-1.33065 -0.38505,-1.838812 -0.43482,-0.505542 -1.09491,-0.757004 -1.75499,-0.670564 z"/><path style="fill:url(#linearGradient2983)" id="path567" d="m 56.698405,61.267614 c 0.120491,1.707843 2.441271,34.625722 2.567002,36.417385 1.838812,-0.107395 47.366433,-2.773935 48.673513,-2.849897 0.37195,-1.236352 11.8213,-39.406109 12.62284,-42.085745 -2.83942,0.379811 -62.1267,8.285131 -63.863355,8.518257 z"/><path style="opacity:.5;fill:url(#linearGradient2980)" id="path574" d="m 55.653268,62.87592 c 0.17288,2.464846 2.31816,32.889066 2.501518,35.477023 2.682255,-0.159782 45.931004,-2.690113 47.848404,-2.802747 0.53435,-1.791663 11.14812,-37.171769 12.30327,-41.027512 -4.13078,0.550072 -60.115003,8.012715 -62.653192,8.353236 z"/><path style="fill:url(#radialGradient2967)" id="path599" d="m 96.811749,23.304789 c 0,0 -58.794837,8.099155 -63.305427,8.719951 -0.02358,-0.167641 -0.07596,-0.552692 -0.07596,-0.552692 -0.660087,-4.801342 -4.908738,-8.196072 -9.466477,-7.567418 L 9.3450646,25.918941 c -2.1321838,0.290752 -4.0364806,1.41709 -5.367131,3.172082 -1.1630093,1.534962 -1.791663,3.457595 -1.791663,5.419518 0,0.416483 0.028813,0.832966 0.08644,1.249449 l 0.8513019,6.173904 c 0,0 0.020955,0.12573 0.031433,0.185976 0.010477,0.08382 7.3709645,53.548198 7.3709645,53.548198 0.04977,0.353618 0.17288,0.694139 0.366715,0.995369 2.894426,4.497493 6.346783,8.536593 10.260152,12.002053 0.536975,0.47673 1.252068,0.69152 1.961923,0.5946 l 83.93574,-11.561994 c 0.64437,-0.08644 1.2285,-0.42958 1.6214,-0.9456 0.39291,-0.518639 0.56579,-1.173487 0.47673,-1.817857 L 99.577825,25.40554 c -0.08644,-0.646989 -0.42958,-1.228494 -0.9456,-1.624022 -0.521258,-0.392908 -1.176106,-0.565788 -1.820476,-0.476729 z"/><path style="opacity:.1" id="path600" d="m 103.50691,28.349735 c -0.0891,-0.646989 -0.42958,-1.228494 -0.94822,-1.624022 -0.51864,-0.392909 -1.17087,-0.563169 -1.81524,-0.476729 0,0 -36.524776,5.02923 -54.205661,7.465263 L 36.453136,67.135049 c -0.392908,1.296598 0.34576,2.674397 1.642358,3.064686 l 59.161551,17.864243 c 1.296599,0.38767 2.671779,-0.34576 3.062065,-1.644977 l 7.68267,-25.447378 -4.49487,-32.621888 z"/><path style="fill:url(#radialGradient2963)" id="path610" d="M 97.147031,25.738203 31.40819,34.790816 30.996946,31.804711 C 30.520217,28.339257 27.518395,25.890127 24.296545,26.335424 L 9.6777272,28.349735 c -3.2218502,0.442677 -5.4509515,3.612139 -4.971603,7.077593 l 0.8486825,6.173903 c 0.00524,0.04977 0.018336,0.09692 0.026194,0.146686 l 7.3762033,53.587489 c 2.737263,4.259129 6.053411,8.156784 9.822714,11.493884 L 106.71566,95.269921 97.147031,25.738203 Z"/><path style="fill:url(#linearGradient2960)" id="path621" d="m 9.8794202,29.808735 c -2.4124585,0.332663 -4.0810102,2.763457 -3.7142956,5.4169 l 0.8513019,6.173903 c 0.3640953,2.653442 2.6246292,4.542023 5.0397075,4.20936 l 14.618818,-2.014311 c 2.415078,-0.330043 4.08101,-2.760837 3.714295,-5.416899 l -0.848682,-6.173903 c -0.366715,-2.653443 -2.627249,-4.542023 -5.039707,-4.21198 l -14.6214378,2.01693 z"/><path style="opacity:.8;fill:url(#linearGradient2957)" id="path628" d="m 6.7806814,39.668121 c 0.2881329,2.090273 5.4352356,39.492549 7.7455376,56.264506 0.502923,0.670564 1.021562,1.325411 1.553299,1.969781 C 16.220965,87.655353 20.422467,77.101829 28.856904,71.294641 41.930281,61.849119 57.947854,62.985934 73.190086,58.498919 85.697676,54.554117 94.493589,43.091664 96.353356,30.77791 96.096656,28.926001 95.934253,27.72632 95.887104,27.398896 93.107931,27.781327 9.5650934,39.28569 6.7806814,39.668121 Z"/><path style="fill:#fff" id="path629" d="M 24.430134,27.307218 9.8113161,29.321529 c -2.415078,0.332662 -4.0810103,2.763457 -3.7142956,5.416899 l 0.2697972,1.946207 C 6.000103,34.031193 7.6686547,31.600399 10.081113,31.267736 l 14.618818,-2.014311 c 2.412459,-0.332663 4.675612,1.555918 5.039708,4.20936 l -0.269798,-1.946207 c -0.364095,-2.653442 -2.624629,-4.542023 -5.039707,-4.20936 z"/><path style="fill:#fff" id="path630" d="m 6.4087279,39.238541 7.6983891,55.942321 c 0.571027,0.777959 1.165628,1.534962 1.781185,2.281489 L 8.8002314,45.949419 C 8.3785095,42.892591 10.589275,40.06103 13.737783,39.62883 L 95.255831,28.402123 c 0.306469,-0.04191 0.610318,-0.05239 0.914167,-0.04977 L 95.970925,26.903832 6.4087279,39.238541 Z"/><polygon style="fill:#ff3600;fill-opacity:1" id="polygon653" points="41.232 40.73 39.817 30.447 38.722 32.001 31.627 42.053" transform="matrix(2.6193904,0,0,2.6193904,0.34221974,-10.330803)"/><polygon style="fill:url(#XMLID_28_)" id="polygon660" points="39.334 32.434 33.236 41.074 40.388 40.089" transform="matrix(2.6193904,0,0,2.6193904,0.34221974,-10.330803)"/><path style="fill:#fff" id="path661" d="m 102.81015,80.135083 c -0.10478,-0.764862 -0.20169,-1.482575 -0.29075,-2.126945 -2.894426,4.136018 -9.741512,13.914202 -12.405432,17.725415 0.591982,-0.0812 1.257307,-0.17288 1.969781,-0.272417 2.747741,-3.929085 7.82412,-11.176938 10.726401,-15.326053 z"/><polyline id="_x3C_Slice_x3E_" points="0 48 0 0 47.987 0 47.987 48" transform="translate(0.08921367,55.528947)" style="fill:none"/></g><g id="g116" transform="matrix(0.25350018,0,0,0.25350018,3.6041202,58.624736)"><linearGradient id="linearGradient11786" x1="128" x2="128" y1="244.428" y2="11.573" gradientUnits="userSpaceOnUse"><stop style="stop-color:#0035ed;stop-opacity:1" id="stop11788" offset=".006"/><stop style="stop-color:#00008d;stop-opacity:1" id="stop11790" offset=".545"/><stop style="stop-color:#0053bd;stop-opacity:1" id="stop11792" offset="1"/><midPointStop style="stop-color:#0035ed" id="midPointStop126" offset=".006"/><midPointStop style="stop-color:#0035ed" id="midPointStop128" offset=".5"/><midPointStop style="stop-color:#00008d" id="midPointStop130" offset=".545"/><midPointStop style="stop-color:#00008d" id="midPointStop132" offset=".5"/><midPointStop style="stop-color:#0053bd" id="midPointStop134" offset="1"/></linearGradient><path style="fill:url(#XMLID_11_)" id="path137" d="m 4.9804688,128 c 0,67.83203 55.1875002,123.02148 123.0214812,123.02148 67.83106,0 123.01758,-55.18945 123.01758,-123.02148 C 251.01953,60.166504 195.83301,4.9785156 128.00195,4.9785156 60.167969,4.9785156 4.9804688,60.166504 4.9804688,128 Z"/><linearGradient id="linearGradient11795" x1="128" x2="127.999" y1="244.407" y2="11.546" gradientUnits="userSpaceOnUse"><stop style="stop-color:#428aff;stop-opacity:1" id="stop11797" offset=".006"/><stop style="stop-color:#94caff;stop-opacity:1" id="stop11799" offset=".573"/><stop style="stop-color:#dcf0ff;stop-opacity:1" id="stop11801" offset="1"/><midPointStop style="stop-color:#428aff" id="midPointStop147" offset=".006"/><midPointStop style="stop-color:#428aff" id="midPointStop149" offset=".5"/><midPointStop style="stop-color:#94caff" id="midPointStop151" offset=".573"/><midPointStop style="stop-color:#94caff" id="midPointStop153" offset=".5"/><midPointStop style="stop-color:#dcf0ff" id="midPointStop155" offset="1"/></linearGradient><path style="fill:url(#XMLID_12_)" id="path158" d="m 12.379883,128 c 0,63.75391 51.868164,115.62109 115.622067,115.62109 63.75196,0 115.61719,-51.86718 115.61719,-115.62109 0,-63.753906 -51.86523,-115.621582 -115.61719,-115.621582 C 64.248047,12.378418 12.379883,64.246094 12.379883,128 Z"/><linearGradient id="linearGradient11804" x1="128.002" x2="128.002" y1="239.712" y2="16.285" gradientUnits="userSpaceOnUse"><stop style="stop-color:#fff;stop-opacity:1" id="stop11806" offset="0"/><stop style="stop-color:#006dff;stop-opacity:1" id="stop11808" offset=".5"/><stop style="stop-color:#c9e6ff;stop-opacity:1" id="stop11810" offset="1"/><midPointStop style="stop-color:#fff" id="midPointStop168" offset="0"/><midPointStop style="stop-color:#fff" id="midPointStop170" offset=".5"/><midPointStop style="stop-color:#006dff" id="midPointStop172" offset=".5"/><midPointStop style="stop-color:#006dff" id="midPointStop174" offset=".5"/><midPointStop style="stop-color:#c9e6ff" id="midPointStop176" offset="1"/></linearGradient><path style="fill:url(#XMLID_13_)" id="path179" d="m 16.285156,128 c 0,61.60352 50.119141,111.71191 111.716794,111.71191 61.60157,0 111.7168,-50.10839 111.7168,-111.71191 0,-61.597656 -50.11523,-111.715332 -111.7168,-111.715332 C 66.404297,16.284668 16.285156,66.402344 16.285156,128 Z"/><path style="opacity:.8;fill:#fff" id="path181" d="m 128.00195,30.241699 c -56.102536,0 -101.750973,45.638184 -101.750973,101.747561 0,56.10254 45.648437,101.73926 101.750973,101.73926 56.1045,0 101.74805,-45.63672 101.74805,-101.73926 0,-56.109377 -45.64355,-101.747561 -101.74805,-101.747561 z"/><path style="fill:#00008d" id="path183" d="m 26.250977,128 c 0,56.10645 45.648437,101.73926 101.750973,101.73926 C 184.10645,229.73926 229.75,184.10645 229.75,128 229.75,71.896973 184.10645,26.252441 128.00195,26.252441 71.899414,26.252441 26.250977,71.896973 26.250977,128 Z"/><radialGradient id="radialGradient11815" cx="59.616" cy="234.039" r="69.963" fx="59.616" fy="234.039" gradientTransform="matrix(1.4187,0,0,1.4187,43.4252,-204.0338)" gradientUnits="userSpaceOnUse"><stop style="stop-color:#fff;stop-opacity:1" id="stop11817" offset=".601"/><stop style="stop-color:#eaeaf0;stop-opacity:1" id="stop11819" offset=".876"/><stop style="stop-color:#e6e6ed;stop-opacity:1" id="stop11821" offset=".914"/><stop style="stop-color:#dbdbe5;stop-opacity:1" id="stop11823" offset=".95"/><stop style="stop-color:#c8c8d7;stop-opacity:1" id="stop11825" offset=".985"/><stop style="stop-color:#bdbdcf;stop-opacity:1" id="stop11827" offset="1"/><midPointStop style="stop-color:#fff" id="midPointStop199" offset=".601"/><midPointStop style="stop-color:#fff" id="midPointStop201" offset=".5"/><midPointStop style="stop-color:#eaeaf0" id="midPointStop203" offset=".876"/><midPointStop style="stop-color:#eaeaf0" id="midPointStop205" offset=".718"/><midPointStop style="stop-color:#bdbdcf" id="midPointStop207" offset="1"/></radialGradient><path style="fill:url(#XMLID_14_)" id="path210" d="m 28.743164,128 c 0,54.72852 44.526367,99.25293 99.258786,99.25293 54.73145,0 99.25977,-44.52441 99.25977,-99.25293 0,-54.729004 -44.52832,-99.256836 -99.25977,-99.256836 -54.732419,0 -99.258786,44.527832 -99.258786,99.256836 z"/><path style="fill:#616161" id="path212" d="m 32.070312,124.75635 c -1.104492,0 -2,0.89551 -2,2 l 0,2.48681 c 0,1.1045 0.895508,2 2,2 l 17.441407,0 c 1.104492,0 2,-0.8955 2,-2 l 0,-2.48681 c 0,-1.10449 -0.895508,-2 -2,-2 l -17.441407,0 z"/><rect style="fill:#616161" id="rect214" width="17.441" height="2.487" x="32.07" y="126.756"/><path style="fill:#616161" id="path216" d="m 206.49023,124.75635 c -1.10449,0 -2,0.89551 -2,2 l 0,2.48681 c 0,1.1045 0.89551,2 2,2 l 17.44825,0 c 1.10449,0 2,-0.8955 2,-2 l 0,-2.48681 c 0,-1.10449 -0.89551,-2 -2,-2 l -17.44825,0 z"/><rect style="fill:#616161" id="rect218" width="17.448" height="2.487" x="206.49" y="126.756"/><path style="fill:#616161" id="path220" d="m 126.75586,204.49023 c -1.10449,0 -2,0.89551 -2,2 l 0,17.44141 c 0,1.10449 0.89551,2 2,2 l 2.49219,0 c 1.10449,0 2,-0.89551 2,-2 l 0,-17.44141 c 0,-1.10449 -0.89551,-2 -2,-2 l -2.49219,0 z"/><rect style="fill:#616161" id="rect222" width="2.492" height="17.441" x="126.756" y="206.49"/><path style="fill:#616161" id="path224" d="m 126.75586,30.067871 c -1.10449,0 -2,0.895508 -2,2 l 0,17.441406 c 0,1.104493 0.89551,2 2,2 l 2.49219,0 c 1.10449,0 2,-0.895507 2,-2 l 0,-17.441406 c 0,-1.104492 -0.89551,-2 -2,-2 l -2.49219,0 0,0 z"/><rect style="fill:#616161" id="rect226" width="2.492" height="17.441" x="126.756" y="32.068"/><path style="fill:#616161" id="path228" d="m 169.80664,197.93555 -2.15137,1.25 c -0.95312,0.55468 -1.27832,1.77539 -0.72656,2.73047 l 6.23145,10.77929 c 0.55175,0.95508 1.77246,1.28223 2.72851,0.73242 l 2.15723,-1.24023 c 0.45996,-0.26465 0.79687,-0.70117 0.93457,-1.21484 0.13769,-0.5127 0.0664,-1.05957 -0.2002,-1.51954 l -6.2373,-10.78906 c -0.26563,-0.45996 -0.7041,-0.79492 -1.2168,-0.93164 -0.51367,-0.13672 -1.06055,-0.0635 -1.51953,0.20313 z"/><polygon style="fill:#616161" id="polygon230" points="177.049 210.454 170.812 199.665 168.66 200.915 174.892 211.694 177.049 210.454"/><path style="fill:#616161" id="path232" d="m 80.115234,42.565918 -2.159179,1.247559 c -0.957032,0.552734 -1.28418,1.775879 -0.731446,2.732421 l 6.229493,10.783692 c 0.552734,0.956055 1.77539,1.283691 2.731445,0.731445 l 2.15625,-1.244629 c 0.956055,-0.552246 1.28418,-1.77539 0.731445,-2.731933 L 82.847656,43.297852 c -0.265625,-0.459473 -0.702148,-0.794434 -1.214843,-0.932129 -0.512696,-0.137207 -1.058594,-0.06494 -1.517579,0.200195 z"/><rect style="fill:#616161" id="rect234" width="12.455" height="2.494" x="76.922" y="49.068" transform="matrix(0.499934,0.866063,-0.866063,0.499934,85.15588,-46.85146)"/><path style="fill:#616161" id="path236" d="m 84.669922,197.73242 c -0.512695,0.1377 -0.950195,0.47266 -1.21582,0.93262 l -6.229493,10.78906 c -0.265625,0.45996 -0.33789,1.00684 -0.199218,1.51953 0.137695,0.5127 0.473632,0.9502 0.93457,1.21485 l 2.15918,1.24023 c 0.956054,0.54883 2.176757,0.22168 2.728515,-0.73437 l 6.225586,-10.7793 c 0.551758,-0.95508 0.225586,-2.17676 -0.728515,-2.73047 l -2.155274,-1.25 c -0.459961,-0.26562 -1.006836,-0.33887 -1.519531,-0.20215 z"/><polygon style="fill:#616161" id="polygon238" points="81.115 211.694 87.342 200.915 85.186 199.665 78.956 210.454 81.115 211.694"/><path style="fill:#616161" id="path240" d="m 173.15918,43.297852 -6.23145,10.790527 c -0.26464,0.459473 -0.33691,1.005371 -0.19921,1.518066 0.13769,0.512696 0.47265,0.949219 0.93261,1.214356 l 2.15137,1.240722 c 0.95605,0.55127 2.17773,0.224122 2.73047,-0.731445 l 6.2373,-10.787109 c 0.26563,-0.459473 0.33789,-1.00586 0.2002,-1.518555 -0.13672,-0.512695 -0.47266,-0.949707 -0.93262,-1.214844 l -2.15722,-1.24414 c -0.95606,-0.551758 -2.17872,-0.224121 -2.73145,0.732422 z"/><polygon style="fill:#616161" id="polygon242" points="170.812 56.329 177.049 45.542 174.892 44.298 168.66 55.088 170.812 56.329"/><path style="fill:#616161" id="path244" d="m 54.084961,166.9248 -10.786133,6.2334 c -0.458984,0.26563 -0.793945,0.70215 -0.930664,1.21485 -0.137695,0.51367 -0.06445,1.05957 0.201172,1.51855 l 1.24707,2.1543 c 0.552735,0.95508 1.775391,1.28223 2.731445,0.72949 l 10.786133,-6.23437 c 0.459961,-0.26563 0.794922,-0.70313 0.931641,-1.21582 0.136719,-0.5127 0.06445,-1.0586 -0.202149,-1.51758 l -1.24707,-2.15332 c -0.552734,-0.95508 -1.77539,-1.28223 -2.731445,-0.7295 z"/><rect style="fill:#616161" id="rect246" width="12.458" height="2.488" x="44.087" y="171.606" transform="matrix(-0.865782,0.500421,-0.500421,-0.865782,180.3773,297.3212)"/><path style="fill:#616161" id="path248" d="m 209.45703,77.222656 -10.78906,6.232422 c -0.46094,0.266114 -0.7959,0.70459 -0.93262,1.218262 -0.13672,0.513672 -0.0625,1.060547 0.2041,1.520508 l 1.25391,2.152832 c 0.55469,0.95166 1.77441,1.275879 2.72852,0.725097 l 10.78613,-6.228515 c 0.45996,-0.265625 0.7959,-0.703125 0.93262,-1.216309 0.13671,-0.513183 0.0635,-1.060058 -0.20215,-1.519043 l -1.25098,-2.156738 c -0.55371,-0.954102 -1.77539,-1.280274 -2.73047,-0.728516 z"/><rect style="fill:#616161" id="rect250" width="12.455" height="2.493" x="199.462" y="81.901" transform="matrix(-0.865986,0.500069,-0.500069,-0.865986,425.3929,52.29269)"/><path style="fill:#616161" id="path252" d="m 199.19336,167.64941 -1.25391,2.15332 c -0.26758,0.45997 -0.34082,1.00684 -0.2041,1.52051 0.13672,0.51367 0.47168,0.95215 0.93164,1.21778 l 10.78906,6.23437 c 0.95606,0.55273 2.17872,0.22656 2.73145,-0.72852 l 1.25098,-2.15917 c 0.2666,-0.45997 0.33886,-1.00586 0.20214,-1.51856 -0.13769,-0.51367 -0.47265,-0.95117 -0.93261,-1.2168 l -10.78614,-6.22851 c -0.9541,-0.55078 -2.17285,-0.22656 -2.72851,0.72558 z"/><polygon style="fill:#616161" id="polygon254" points="211.708 174.885 200.922 168.656 199.668 170.81 210.457 177.044 211.708 174.885"/><rect style="opacity:.2" id="rect256" width="3.85" height="122.203" x="103.964" y="94.231" transform="matrix(-0.760473,-0.64937,0.64937,-0.760473,85.54559,342.2205)"/><linearGradient id="linearGradient11853" x1="62.463" x2="154.298" y1="149.695" y2="149.695" gradientTransform="matrix(0.9546,0.0532,0.0532,0.9377,-6.635652,8.097183)" gradientUnits="userSpaceOnUse"><stop style="stop-color:#f66;stop-opacity:1" id="stop11855" offset="0"/><stop style="stop-color:red;stop-opacity:1" id="stop11857" offset="1"/><midPointStop style="stop-color:#f66" id="midPointStop264" offset="0"/><midPointStop style="stop-color:#f66" id="midPointStop266" offset=".5"/><midPointStop style="stop-color:red" id="midPointStop268" offset="1"/></linearGradient><polygon style="fill:url(#XMLID_15_-1)" id="polygon271" points="63.66 199.461 66.589 201.961 145.917 109.005 142.988 106.506 63.66 199.461"/><path style="fill:#616161" id="path273" d="m 43.81543,77.953613 -1.247071,2.156739 c -0.265625,0.458984 -0.33789,1.005371 -0.200195,1.518066 0.136719,0.512207 0.472656,0.949707 0.931641,1.214844 l 10.786133,6.228515 c 0.956054,0.552246 2.179687,0.22461 2.731445,-0.731445 l 1.24707,-2.158203 c 0.265625,-0.459473 0.337891,-1.005371 0.201172,-1.517578 -0.137695,-0.512695 -0.472656,-0.949707 -0.932617,-1.214844 L 46.546875,77.222656 C 45.59082,76.67041 44.368164,76.997559 43.81543,77.953613 Z"/><rect style="fill:#616161" id="rect275" width="12.455" height="2.491" x="44.089" y="81.901" transform="matrix(0.866037,0.49998,-0.49998,0.866037,48.31216,-14.01864)"/><path style="opacity:.2" id="path277" d="m 189.22363,108.87109 c -0.15722,-0.58545 -0.73047,-0.94238 -1.28027,-0.79492 l -62.29004,16.68994 c -0.5498,0.14746 -0.86816,0.74219 -0.71094,1.33008 l 1.84961,6.90576 c 0.15821,0.58789 0.73047,0.94336 1.28125,0.7959 l 62.29004,-16.69092 c 0.54981,-0.14697 0.86914,-0.74218 0.71192,-1.32861 l -1.85157,-6.90723 z"/><path style="fill:#585868" id="path279" d="m 188.12402,107.771 c -0.15722,-0.58545 -0.73047,-0.9419 -1.28125,-0.79493 l -62.28906,16.68995 c -0.5498,0.14746 -0.86914,0.74267 -0.71094,1.33007 l 1.84961,6.90625 c 0.15821,0.58789 0.73047,0.94336 1.28028,0.7959 l 62.29101,-16.6914 c 0.54981,-0.14698 0.86914,-0.74219 0.71192,-1.32862 l -1.85157,-6.90722 z"/><linearGradient id="linearGradient11864" x1="-123.349" x2="-116.198" y1="-86.029" y2="-86.029" gradientTransform="matrix(0.2588,0.9659,-0.9659,0.2588,104.8109,257.7903)" gradientUnits="userSpaceOnUse"><stop style="stop-color:#585868;stop-opacity:1" id="stop11866" offset="0"/><stop style="stop-color:#656575;stop-opacity:1" id="stop11868" offset=".008"/><stop style="stop-color:#8b8b99;stop-opacity:1" id="stop11870" offset=".034"/><stop style="stop-color:#a8a8b6;stop-opacity:1" id="stop11872" offset=".06"/><stop style="stop-color:#bdbdcb;stop-opacity:1" id="stop11874" offset=".086"/><stop style="stop-color:#cacad7;stop-opacity:1" id="stop11876" offset=".111"/><stop style="stop-color:#cecedb;stop-opacity:1" id="stop11878" offset=".135"/><stop style="stop-color:#9a9ab1;stop-opacity:1" id="stop11880" offset=".466"/><stop style="stop-color:#7d7d99;stop-opacity:1" id="stop11882" offset=".854"/><stop style="stop-color:#585868;stop-opacity:1" id="stop11884" offset="1"/><midPointStop style="stop-color:#585868" id="midPointStop303" offset="0"/><midPointStop style="stop-color:#585868" id="midPointStop305" offset=".303"/><midPointStop style="stop-color:#cecedb" id="midPointStop307" offset=".135"/><midPointStop style="stop-color:#cecedb" id="midPointStop309" offset=".5"/><midPointStop style="stop-color:#9a9ab1" id="midPointStop311" offset=".466"/><midPointStop style="stop-color:#9a9ab1" id="midPointStop313" offset=".5"/><midPointStop style="stop-color:#7d7d99" id="midPointStop315" offset=".854"/><midPointStop style="stop-color:#7d7d99" id="midPointStop317" offset=".5"/><midPointStop style="stop-color:#585868" id="midPointStop319" offset="1"/></linearGradient><polygon style="fill:url(#XMLID_16_-7)" id="polygon322" points="187.129 108.039 188.979 114.945 126.689 131.635 124.839 124.729 187.129 108.039"/><path style="opacity:.2" id="path324" d="m 145.55762,133.42871 c 0.30371,-0.52637 -0.11231,-1.33594 -0.9336,-1.80957 L 51.853516,78.058105 c -0.820313,-0.473632 -1.730469,-0.430664 -2.03418,0.0957 l -3.575195,6.191894 c -0.303711,0.526367 0.114257,1.335938 0.93457,1.810059 l 92.769529,53.560062 c 0.82031,0.47363 1.73047,0.43066 2.03418,-0.0957 l 3.5752,-6.19141 z"/><path style="fill:#585868" id="path326" d="m 144.45801,132.3291 c 0.30371,-0.52637 -0.11328,-1.33691 -0.9336,-1.81055 L 50.753906,76.958008 c -0.820312,-0.473633 -1.730468,-0.430664 -2.034179,0.0957 l -3.575196,6.191894 c -0.304687,0.526368 0.113282,1.336426 0.934571,1.810059 l 92.769528,53.560549 c 0.82032,0.47363 1.73047,0.43067 2.03418,-0.0957 l 3.5752,-6.19141 z"/><linearGradient id="linearGradient11889" x1="-218.144" x2="-210.992" y1="58.222" y2="58.222" gradientTransform="matrix(-0.5,0.866,-0.866,-0.5,37.93764,322.7147)" gradientUnits="userSpaceOnUse"><stop style="stop-color:#585868;stop-opacity:1" id="stop11891" offset="0"/><stop style="stop-color:#cecedb;stop-opacity:1" id="stop11893" offset=".191"/><stop style="stop-color:#9a9ab1;stop-opacity:1" id="stop11895" offset=".466"/><stop style="stop-color:#7d7d99;stop-opacity:1" id="stop11897" offset=".854"/><stop style="stop-color:#585868;stop-opacity:1" id="stop11899" offset="1"/><midPointStop style="stop-color:#585868" id="midPointStop340" offset="0"/><midPointStop style="stop-color:#585868" id="midPointStop342" offset=".5"/><midPointStop style="stop-color:#cecedb" id="midPointStop344" offset=".191"/><midPointStop style="stop-color:#cecedb" id="midPointStop346" offset=".5"/><midPointStop style="stop-color:#9a9ab1" id="midPointStop348" offset=".466"/><midPointStop style="stop-color:#9a9ab1" id="midPointStop350" offset=".5"/><midPointStop style="stop-color:#7d7d99" id="midPointStop352" offset=".854"/><midPointStop style="stop-color:#7d7d99" id="midPointStop354" offset=".5"/><midPointStop style="stop-color:#585868" id="midPointStop356" offset="1"/></linearGradient><polygon style="fill:url(#XMLID_17_-2)" id="polygon359" points="142.975 131.472 139.398 137.663 46.629 84.103 50.204 77.911 142.975 131.472"/><path style="opacity:.2" id="path361" d="m 117.63965,129.10156 c 0,6.31836 5.13965,11.45996 11.45801,11.45996 6.31933,0 11.46191,-5.1416 11.46191,-11.45996 0,-6.32129 -5.14258,-11.46338 -11.46191,-11.46338 -6.31836,0 -11.45801,5.14209 -11.45801,11.46338 z"/><linearGradient id="linearGradient11903" x1="116.54" x2="139.459" y1="128" y2="128" gradientUnits="userSpaceOnUse"><stop style="stop-color:#9a9ab1;stop-opacity:1" id="stop11905" offset="0"/><stop style="stop-color:#585868;stop-opacity:1" id="stop11907" offset="1"/><midPointStop style="stop-color:#9a9ab1" id="midPointStop369" offset="0"/><midPointStop style="stop-color:#9a9ab1" id="midPointStop371" offset=".5"/><midPointStop style="stop-color:#585868" id="midPointStop373" offset="1"/></linearGradient><path style="fill:url(#XMLID_18_)" id="path376" d="m 116.54004,128.00098 c 0,6.31933 5.13867,11.46093 11.45801,11.46093 6.31933,0 11.46093,-5.1416 11.46093,-11.46093 0,-6.32032 -5.1416,-11.46289 -11.46093,-11.46289 -6.31934,0 -11.45801,5.14257 -11.45801,11.46289 z"/><radialGradient id="radialGradient11910" cx="126.62" cy="116.175" r="22.186" fx="126.62" fy="116.175" gradientUnits="userSpaceOnUse"><stop style="stop-color:#9a9ab1;stop-opacity:1" id="stop11912" offset="0"/><stop style="stop-color:#585868;stop-opacity:1" id="stop11914" offset=".59"/><stop style="stop-color:#fff;stop-opacity:1" id="stop11916" offset="1"/><midPointStop style="stop-color:#9a9ab1" id="midPointStop386" offset="0"/><midPointStop style="stop-color:#9a9ab1" id="midPointStop388" offset=".5"/><midPointStop style="stop-color:#585868" id="midPointStop390" offset=".59"/><midPointStop style="stop-color:#585868" id="midPointStop392" offset=".5"/><midPointStop style="stop-color:#fff" id="midPointStop394" offset="1"/></radialGradient><path style="fill:url(#XMLID_19_)" id="path397" d="m 117.63965,128.00098 c 0,5.71386 4.64746,10.36035 10.3584,10.36035 5.71386,0 10.36132,-4.64649 10.36132,-10.36035 0,-5.71338 -4.64746,-10.3628 -10.36132,-10.3628 -5.71094,0 -10.3584,4.64942 -10.3584,10.3628 z"/><linearGradient id="linearGradient11919" x1="117.744" x2="137.875" y1="123.586" y2="123.586" gradientUnits="userSpaceOnUse"><stop style="stop-color:#fff;stop-opacity:1" id="stop11921" offset="0"/><stop style="stop-color:#585868;stop-opacity:1" id="stop11923" offset="1"/><midPointStop style="stop-color:#fff" id="midPointStop405" offset="0"/><midPointStop style="stop-color:#fff" id="midPointStop407" offset=".5"/><midPointStop style="stop-color:#585868" id="midPointStop409" offset="1"/></linearGradient><path style="fill:url(#XMLID_20_-4)" id="path412" d="m 135.7373,125.42822 c -1.08105,-3.24267 -4.13769,-5.58984 -7.73925,-5.58984 -4.22852,0 -7.71387,3.23535 -8.11719,7.3623 5.33496,0.38477 10.73144,-0.0234 15.85644,-1.77246 z"/></g></g></g></svg>