<svg xmlns="http://www.w3.org/2000/svg" xmlns:svg="http://www.w3.org/2000/svg" xmlns:xlink="http://www.w3.org/1999/xlink" id="svg2" width="128" height="128" version="1.1" viewBox="0 0 128 128"><defs id="defs4"><linearGradient id="linearGradient4765"><stop style="stop-color:#d40000;stop-opacity:1" id="stop4767" offset="0"/><stop style="stop-color:maroon;stop-opacity:1" id="stop4769" offset="1"/></linearGradient><linearGradient id="linearGradient4757"><stop style="stop-color:#ff0;stop-opacity:1" id="stop4759" offset="0"/><stop style="stop-color:#f60;stop-opacity:1" id="stop4761" offset="1"/></linearGradient><linearGradient id="linearGradient44699"><stop style="stop-color:#000173;stop-opacity:.93333334" id="stop44701" offset="0"/><stop style="stop-color:#3575f0;stop-opacity:1" id="stop44703" offset="1"/></linearGradient><linearGradient id="linearGradient44693"><stop style="stop-color:#3690e6;stop-opacity:1" id="stop44695" offset="0"/><stop style="stop-color:#d0e9ff;stop-opacity:1" id="stop44697" offset="1"/></linearGradient><linearGradient id="linearGradient44681"><stop style="stop-color:#ff5c38;stop-opacity:1" id="stop44683" offset="0"/><stop style="stop-color:#fb7e65;stop-opacity:.99607843" id="stop44685" offset=".304"/><stop style="stop-color:#cd0000;stop-opacity:.98039216" id="stop44687" offset="1"/></linearGradient><linearGradient id="linearGradient44627"><stop style="stop-color:#fffcfb;stop-opacity:1" id="stop44629" offset="0"/><stop style="stop-color:#f4ad94;stop-opacity:1" id="stop44633" offset="1"/></linearGradient><linearGradient id="linearGradient44615"><stop style="stop-color:#2f68fa;stop-opacity:1" id="stop44617" offset="0"/><stop style="stop-color:#c7d5fb;stop-opacity:1" id="stop44619" offset="1"/></linearGradient><linearGradient id="linearGradient44605"><stop style="stop-color:#d0ecff;stop-opacity:1" id="stop44607" offset="0"/><stop style="stop-color:#d7f0ff;stop-opacity:1" id="stop44609" offset=".5"/><stop style="stop-color:#fff;stop-opacity:1" id="stop44611" offset="1"/></linearGradient><linearGradient id="linearGradient44090"><stop style="stop-color:#0926bb;stop-opacity:1" id="stop44092" offset="0"/><stop style="stop-color:#6bb5fe;stop-opacity:1" id="stop44094" offset="1"/></linearGradient><linearGradient id="linearGradient44080"><stop style="stop-color:#2c8300;stop-opacity:1" id="stop44082" offset="0"/><stop style="stop-color:#57aeff;stop-opacity:1" id="stop44084" offset=".25"/><stop style="stop-color:#fff;stop-opacity:1" id="stop44086" offset=".5"/><stop style="stop-color:#5aafff;stop-opacity:1" id="stop44088" offset="1"/></linearGradient><filter id="filter3297"><feGaussianBlur id="feGaussianBlur3299" stdDeviation=".267"/></filter><filter id="filter3293"><feGaussianBlur id="feGaussianBlur3295" stdDeviation=".355"/></filter><linearGradient id="linearGradient3219"><stop style="stop-color:#0e7309;stop-opacity:1" id="stop3221" offset="0"/><stop style="stop-color:#70d13e;stop-opacity:1" id="stop3223" offset="1"/></linearGradient><radialGradient id="radialGradient44048" cx="53.602" cy="59.729" r="17.834" fx="53.602" fy="59.729" gradientTransform="matrix(0,1.655849,-1.6391884,0,152.15006,-32.923726)" gradientUnits="userSpaceOnUse" xlink:href="#linearGradient44627"/><radialGradient id="radialGradient44061" cx="479.683" cy="709.658" r="5.006" fx="479.683" fy="709.658" gradientTransform="matrix(0.856113,-0.0637264,0.1161478,1.5603521,-743.30707,-121.7687)" gradientUnits="userSpaceOnUse" xlink:href="#linearGradient44605"/><linearGradient id="linearGradient44067" x1="517.022" x2="517.022" y1="705.484" y2="745.301" gradientTransform="matrix(-1,0,0,1,253.42404,245.75912)" gradientUnits="userSpaceOnUse" xlink:href="#linearGradient44090"/><linearGradient id="linearGradient44070" x1="517.022" x2="517.022" y1="705.484" y2="745.301" gradientTransform="translate(-730.02214,245.75912)" gradientUnits="userSpaceOnUse" xlink:href="#linearGradient44090"/><radialGradient id="radialGradient44073" cx="491.522" cy="670.925" r="36.427" fx="491.522" fy="670.925" gradientTransform="matrix(0,2.0237831,-1.9580539,0,1075.328,-66.735647)" gradientUnits="userSpaceOnUse" xlink:href="#linearGradient44080"/><linearGradient id="linearGradient44076" x1="83.281" x2="83.281" y1="123.098" y2="66.311" gradientTransform="translate(-282.47353,882.69271)" gradientUnits="userSpaceOnUse" xlink:href="#linearGradient44699"/><linearGradient id="linearGradient44613" x1="-246.577" x2="-248.777" y1="958.08" y2="964.617" gradientUnits="userSpaceOnUse" xlink:href="#linearGradient44615"/><linearGradient id="linearGradient44625" x1="-246.577" x2="-248.777" y1="958.08" y2="964.617" gradientTransform="matrix(-1,0,0,1,-476.93424,0)" gradientUnits="userSpaceOnUse" xlink:href="#linearGradient44615"/><linearGradient id="linearGradient44667" x1="517.022" x2="517.022" y1="705.484" y2="745.301" gradientTransform="translate(-772.48144,227.87334)" gradientUnits="userSpaceOnUse" xlink:href="#linearGradient3219"/><linearGradient id="linearGradient44677" x1="60.127" x2="60.127" y1="81.914" y2="47.543" gradientUnits="userSpaceOnUse" xlink:href="#linearGradient44681"/><linearGradient id="linearGradient44691" x1="-35.567" x2="-35.567" y1="76.563" y2="84.91" gradientUnits="userSpaceOnUse" xlink:href="#linearGradient44693"/><linearGradient id="linearGradient4763" x1="9.011" x2="9.391" y1="881.997" y2="897.175" gradientUnits="userSpaceOnUse" xlink:href="#linearGradient4757"/><linearGradient id="linearGradient4771" x1="124.537" x2="123.447" y1="908.617" y2="888.624" gradientTransform="matrix(2.5681553,0,0,1.6761088,-235.95144,-468.96907)" gradientUnits="userSpaceOnUse" xlink:href="#linearGradient4765"/><linearGradient id="linearGradient4800" x1="25.177" x2="54.848" y1="943.86" y2="943.86" gradientUnits="userSpaceOnUse" xlink:href="#linearGradient4757"/></defs><metadata id="metadata7"/><g id="layer1" transform="translate(0,-924.36216)"><g id="g9680"><rect id="rect9678" width="128" height="128" x="0" y="924.362" style="opacity:0;fill:teal;fill-opacity:1;stroke:none;stroke-width:.5;stroke-linecap:round;stroke-linejoin:round;stroke-miterlimit:4;stroke-dasharray:none;stroke-dashoffset:0;stroke-opacity:1"/><g id="g9654" transform="translate(0.31103869,-3.427902)"><g id="g3498" transform="matrix(0.9583338,0,0,0.9583338,291.41761,84.214258)"><path id="path3217" d="m -263.35265,933.74757 c 8.46364,9.0621 14.91528,24.09751 16.80551,38.65267" style="fill:#000;fill-opacity:0;fill-rule:evenodd;stroke:url(#linearGradient44667);stroke-width:1.5;stroke-linecap:butt;stroke-linejoin:miter;stroke-miterlimit:4;stroke-dasharray:none;stroke-opacity:1"/><path id="path44010" d="m -237.54657,906.14303 c -14.71669,0 -26.69498,11.97829 -26.69498,26.69498 0,14.71669 11.97829,26.69498 26.69498,26.69498 14.71668,0 26.69497,-11.97829 26.69497,-26.69498 0,-14.71669 -11.97829,-26.69498 -26.69497,-26.69498 z" style="fill:#000;fill-opacity:.50196078;stroke:none;stroke-width:1.33686185;stroke-linecap:square;stroke-linejoin:miter;stroke-miterlimit:4;stroke-dasharray:none;stroke-dashoffset:0;stroke-opacity:1;filter:url(#filter3297)"/><path id="path44012" d="m -237.62978,943.41146 c -21.63445,0 -39.1875,17.34747 -39.1875,38.75 l 0,6.125 c 0,6.05287 6.27536,18.75004 28.90625,18.75004 l 20.53125,0 c 22.63038,0 28.9375,-12.07968 28.9375,-18.75004 l 0,-6.125 c 0,-21.40254 -17.55305,-38.75 -39.1875,-38.75 z" style="fill:#000;fill-opacity:.50196078;stroke:none;stroke-width:1.5;stroke-linecap:square;stroke-linejoin:miter;stroke-miterlimit:4;stroke-dashoffset:0;stroke-opacity:1;filter:url(#filter3293)"/><path id="path44014" d="m -238.37978,942.16146 c -21.63445,0 -39.1875,17.34747 -39.1875,38.75 l 0,6.125 c 0,6.05287 6.27536,18.75004 28.90625,18.75004 l 20.53125,0 c 22.63038,0 28.9375,-12.07968 28.9375,-18.75004 l 0,-6.125 c 0,-21.40254 -17.55305,-38.75 -39.1875,-38.75 z" style="fill:url(#linearGradient44076);fill-opacity:1;stroke:none;stroke-width:1.5;stroke-linecap:square;stroke-linejoin:miter;stroke-miterlimit:4;stroke-dashoffset:0;stroke-opacity:1"/><path id="path44016" d="m -238.37978,944.32217 c -20.11022,0 -36.4266,15.9074 -36.4266,35.53322 l 0,5.61655 c 0,5.55039 5.83324,17.19346 26.8697,17.19346 l 19.08475,0 c 21.03599,0 26.89875,-11.07683 26.89875,-17.19346 l 0,-5.61655 c 0,-19.62582 -16.31638,-35.53322 -36.4266,-35.53322 z" style="fill:url(#radialGradient44073);fill-opacity:1;stroke:none;stroke-width:1.5;stroke-linecap:square;stroke-linejoin:miter;stroke-miterlimit:4;stroke-dashoffset:0;stroke-opacity:1"/><path id="path44018" d="m -220.89335,951.63335 c 8.46364,9.0621 14.91528,24.09751 16.80551,38.65267" style="fill:#000;fill-opacity:0;fill-rule:evenodd;stroke:url(#linearGradient44070);stroke-width:1.5;stroke-linecap:butt;stroke-linejoin:miter;stroke-miterlimit:4;stroke-dasharray:none;stroke-opacity:1"/><path id="path44020" d="m -255.70476,951.63335 c -8.46364,9.0621 -14.91528,24.09751 -16.80551,38.65267" style="fill:#000;fill-opacity:0;fill-rule:evenodd;stroke:url(#linearGradient44067);stroke-width:1.5;stroke-linecap:butt;stroke-linejoin:miter;stroke-miterlimit:4;stroke-dasharray:none;stroke-opacity:1"/><path id="path44022" d="m -245.07157,955.83473 c -2.3027,1.97418 -4.96223,3.5307 -3.72122,8.28271 -5.66073,-1.14662 -9.94971,-8.89011 -6.36208,-14.40472 l 10.0833,6.12201 z" style="fill:#c5ffbd;fill-opacity:1;fill-rule:evenodd;stroke:url(#linearGradient44613);stroke-width:1px;stroke-linecap:butt;stroke-linejoin:miter;stroke-opacity:1"/><path id="path44024" d="m -36.972118,84.910487 -5.409768,-9.369991 10.819535,-10e-7 -5.409767,9.369992 z" transform="matrix(1.1784451,0,0,0.9316118,-194.72944,886.86434)" style="fill:url(#linearGradient44691);fill-opacity:1;stroke:none;stroke-width:.85552669;stroke-linecap:square;stroke-linejoin:miter;stroke-miterlimit:4;stroke-dasharray:none;stroke-dashoffset:0;stroke-opacity:1"/><path id="path44028" d="m -254.93334,950.41537 9,5.46875 c -0.98816,0.81483 -2.01362,1.64574 -2.75,2.78125 -0.74928,1.1554 -0.98341,2.74156 -0.65625,4.71875 -2.36917,-0.72853 -4.49352,-2.64468 -5.65625,-5.0625 -1.20326,-2.5021 -1.34831,-5.40312 0.0625,-7.90625 z" style="fill:url(#radialGradient44061);fill-opacity:1;fill-rule:evenodd;stroke:none;stroke-width:1px;stroke-linecap:butt;stroke-linejoin:miter;stroke-opacity:1"/><path id="path44621" d="m -231.86267,955.83473 c 2.3027,1.97418 4.96223,3.5307 3.72122,8.28271 5.66073,-1.14662 9.94971,-8.89011 6.36208,-14.40472 l -10.0833,6.12201 z" style="fill:#9dcfff;fill-opacity:1;fill-rule:evenodd;stroke:url(#linearGradient44625);stroke-width:1px;stroke-linecap:butt;stroke-linejoin:miter;stroke-opacity:1"/><path id="path44030" d="m 76.945221,64.499184 a 17.165627,17.165627 0 1 1 -34.331253,0 17.165627,17.165627 0 1 1 34.331253,0 z" transform="matrix(1.4960409,0,0,1.4960409,-327.73177,835.09337)" style="fill:url(#radialGradient44048);fill-opacity:1;stroke:url(#linearGradient44677);stroke-width:1.33686185;stroke-linecap:square;stroke-linejoin:miter;stroke-miterlimit:4;stroke-dasharray:none;stroke-dashoffset:0;stroke-opacity:1"/></g><path style="fill:#283a4d;fill-opacity:1;fill-rule:evenodd;stroke:none;stroke-width:.30000001;stroke-linecap:butt;stroke-linejoin:miter;stroke-miterlimit:4;stroke-dasharray:none;stroke-opacity:1" id="path4416" d="m 41.895097,950.50152 0.07842,13.01555 c 1.576376,7.77927 13.985867,12.25665 20.933922,12.73841 6.608646,-0.53901 19.985403,-5.34264 21.170717,-12.73841 l 0,-13.01555 z"/><path style="fill:#5d6d7e;fill-opacity:1;fill-rule:evenodd;stroke:none;stroke-width:.2;stroke-linecap:butt;stroke-linejoin:miter;stroke-miterlimit:4;stroke-dasharray:none;stroke-opacity:1" id="path4418" d="m 62.947281,971.78907 c 10.638013,-1.08172 17.706165,-5.11247 21.130735,-12.15312 l -0.03917,-9.13443 -42.143612,0.0387 0.05664,9.4092 c 4.494599,8.48057 12.720675,10.20414 20.995402,11.83962 z"/><path style="fill:#283a4d;fill-opacity:1;fill-rule:evenodd;stroke:none;stroke-width:.40000001;stroke-linecap:butt;stroke-linejoin:miter;stroke-miterlimit:4;stroke-dasharray:none;stroke-opacity:1" id="path4414" d="m 19.719062,945.4899 43.466709,17.40885 43.023159,-17.51974 c 0,0 -43.023159,-17.29798 -43.4667,-17.18709 -0.443541,0.11089 -43.023168,17.29798 -43.023168,17.29798 z"/><path style="fill:url(#linearGradient4800);fill-opacity:1;fill-rule:evenodd;stroke:none;stroke-width:.2;stroke-linecap:butt;stroke-linejoin:miter;stroke-miterlimit:4;stroke-dasharray:none;stroke-opacity:1" id="path4420" d="m 25.176986,947.6677 24.828679,-9.48691 4.842688,1.56046 -25.035601,9.79737 z"/><path style="fill:#f60;fill-opacity:1;fill-rule:evenodd;stroke:none;stroke-width:.2;stroke-linecap:butt;stroke-linejoin:miter;stroke-miterlimit:4;stroke-dasharray:none;stroke-opacity:1" id="path4422" d="m 29.819769,949.54239 -0.157252,19.42635 -2.15836,-2.21181 -2.398569,1.3671 0.04634,-20.45974 z"/><g id="g6992" transform="translate(3.8890873,-6.0104076)"><path id="rect4742" d="m 70.838821,1026.1101 17.656061,0 0,30.8169 -8.346501,-5.3427 -9.30956,5.3427 z" style="opacity:1;fill:url(#linearGradient4771);fill-opacity:1;stroke:none;stroke-width:.2;stroke-linecap:round;stroke-linejoin:round;stroke-miterlimit:4;stroke-dasharray:none;stroke-dashoffset:0;stroke-opacity:1"/><path id="path4747" d="m 16.114691,891.1342 c -0.0034,0.0125 -2.128984,1.45381 -2.136037,1.46468 -0.0071,0.0109 -0.459176,2.53895 -0.46924,2.5471 -0.01006,0.008 -2.576913,-0.0752 -2.589003,-0.0706 -0.01209,0.005 -1.8638402,1.78416 -1.8767723,1.78484 -0.012932,6.8e-4 -2.0405492,-1.57553 -2.0530578,-1.57888 -0.012509,-0.003 -2.5565811,0.34787 -2.5674417,0.34082 -0.010861,-0.007 -0.7247648,-2.47404 -0.7329144,-2.4841 -0.00815,-0.0101 -2.2727945,-1.22128 -2.2774353,-1.23337 -0.00464,-0.0121 0.8678551,-2.42755 0.8671774,-2.44048 -6.777e-4,-0.0129 -1.1208777,-2.32395 -1.1175261,-2.33646 0.00335,-0.0125 2.1289839,-1.45381 2.1360369,-1.46467 0.00705,-0.0109 0.4591763,-2.53896 0.4692402,-2.54711 0.010064,-0.008 2.5769131,0.0752 2.5890028,0.0706 0.01209,-0.005 1.8638406,-1.78416 1.8767727,-1.78484 0.012932,-6.7e-4 2.0405496,1.57554 2.0530576,1.57889 0.01251,0.003 2.556581,-0.34788 2.567442,-0.34083 0.01086,0.007 0.724765,2.47404 0.732914,2.4841 0.0082,0.0101 2.272795,1.22129 2.277436,1.23338 0.0046,0.0121 -0.867856,2.42754 -0.867178,2.44047 6.78e-4,0.0129 1.120878,2.32395 1.117526,2.33646 z" transform="matrix(3.1499906,0.11886886,-0.11886886,3.1499906,158.37455,-1775.9863)" style="opacity:1;fill:url(#linearGradient4763);fill-opacity:1;stroke:#ab2f00;stroke-width:.2;stroke-linecap:round;stroke-linejoin:round;stroke-miterlimit:4;stroke-dasharray:none;stroke-dashoffset:0;stroke-opacity:1"/><circle id="path4749" cx="79.896" cy="1025.795" r="15.203" style="opacity:1;fill:#d45500;fill-opacity:1;stroke:#ffc101;stroke-width:.91650778;stroke-linecap:round;stroke-linejoin:round;stroke-miterlimit:4;stroke-dasharray:none;stroke-dashoffset:0;stroke-opacity:1"/></g></g></g></g></svg>