<svg xmlns="http://www.w3.org/2000/svg" xmlns:pdf="http://ns.adobe.com/pdf/1.3/" xmlns:svg="http://www.w3.org/2000/svg" xmlns:x="adobe:ns:meta/" xmlns:xap="http://ns.adobe.com/xap/1.0/" xmlns:xapGImg="http://ns.adobe.com/xap/1.0/g/img/" xmlns:xapMM="http://ns.adobe.com/xap/1.0/mm/" xmlns:xlink="http://www.w3.org/1999/xlink" style="overflow:visible" id="svg548" width="128" height="128" version="1.1" viewBox="0 0 128 128" xml:space="preserve"><defs id="defs664"><linearGradient id="linearGradient5732"><stop style="stop-color:#fff;stop-opacity:1" id="stop5734" offset="0"/><stop style="stop-color:#ff82ff;stop-opacity:0" id="stop5736" offset="1"/></linearGradient><linearGradient id="linearGradient5726" x1="23.676" x2="23.676" y1="44.797" y2="-1.548" gradientUnits="userSpaceOnUse"><stop style="stop-color:#670067;stop-opacity:1" id="stop5728" offset="0"/><stop style="stop-color:purple;stop-opacity:1" id="stop5730" offset="1"/></linearGradient><linearGradient id="linearGradient5720" x1="13.073" x2="13.073" y1="39.612" y2="7.293" gradientUnits="userSpaceOnUse"><stop style="stop-color:#fff;stop-opacity:1" id="stop5722" offset="0"/><stop style="stop-color:#fd6efd;stop-opacity:1" id="stop5724" offset="1"/></linearGradient><radialGradient id="radialGradient5714" cx="37.761" cy="142.066" r="174.629" fx="37.761" fy="142.066" gradientTransform="matrix(0.1875,0,0,0.1875,19.5,19.5)" gradientUnits="userSpaceOnUse"><stop style="stop-color:#ffabff;stop-opacity:1" id="stop5716" offset="0"/><stop style="stop-color:purple;stop-opacity:1" id="stop5718" offset="1"/></radialGradient><radialGradient id="radialGradient5700" cx="24.733" cy="142.066" r="194.909" fx="24.733" fy="142.066" gradientTransform="matrix(0.1875,0,0,0.1875,19.5,19.5)" gradientUnits="userSpaceOnUse"><stop style="stop-color:#fff;stop-opacity:1" id="stop5702" offset="0"/><stop style="stop-color:#ffd1ff;stop-opacity:1" id="stop5704" offset=".326"/><stop style="stop-color:#ff7aff;stop-opacity:1" id="stop5706" offset=".522"/><stop style="stop-color:#a841a8;stop-opacity:1" id="stop5708" offset=".867"/><stop style="stop-color:purple;stop-opacity:1" id="stop5710" offset=".956"/><stop style="stop-color:purple;stop-opacity:1" id="stop5712" offset="1"/></radialGradient><linearGradient id="linearGradient5511" x1="23.676" x2="23.676" y1="44.797" y2="-1.548" gradientTransform="matrix(1.9846907,0,0,1.9846907,-0.14877199,-5.9526287)" gradientUnits="userSpaceOnUse" xlink:href="#linearGradient5726"/><radialGradient id="radialGradient5513" cx="24.733" cy="142.066" r="194.909" fx="24.733" fy="142.066" gradientTransform="matrix(0.37212298,0.00220503,-0.00275119,0.46429438,38.943711,19.600772)" gradientUnits="userSpaceOnUse" xlink:href="#radialGradient5700"/><radialGradient id="radialGradient5515" cx="37.761" cy="142.066" r="174.629" fx="37.761" fy="142.066" gradientTransform="matrix(0.37212951,0,0,0.37212951,38.552698,32.748841)" gradientUnits="userSpaceOnUse" xlink:href="#radialGradient5714"/><linearGradient id="linearGradient5517" x1="13.073" x2="13.073" y1="39.612" y2="7.293" gradientTransform="matrix(1.9846907,0,0,1.9846907,-0.14877199,-5.9526287)" gradientUnits="userSpaceOnUse" xlink:href="#linearGradient5720"/><linearGradient id="linearGradient5738" x1="-35.013" x2="-34.258" y1="6.344" y2="34.972" gradientTransform="matrix(1.3664478,0,0,1.3664478,97.492784,-8.6677887)" gradientUnits="userSpaceOnUse" xlink:href="#linearGradient5732"/><linearGradient id="XMLID_13_" x1="23.676" x2="23.676" y1="44.797" y2="-1.548" gradientTransform="matrix(-1.4524453,0,0,1.4524453,102.27632,32.563374)" gradientUnits="userSpaceOnUse"><stop id="stop554" offset="0" style="stop-color:#0035ed"/><stop id="stop555-5" offset="1" style="stop-color:#00008d"/></linearGradient><radialGradient id="XMLID_14_" cx="24.733" cy="142.066" r="194.909" fx="24.733" fy="142.066" gradientTransform="matrix(-0.27233349,0,0,0.27233349,73.953637,60.886057)" gradientUnits="userSpaceOnUse"><stop id="stop561" offset="0" style="stop-color:#fff"/><stop id="stop562-1" offset=".123" style="stop-color:#deffff"/><stop id="stop563-2" offset=".398" style="stop-color:#94caff"/><stop id="stop564" offset=".611" style="stop-color:#499bff"/><stop id="stop565" offset=".767" style="stop-color:#147aff"/><stop id="stop566" offset="1" style="stop-color:#006dff"/></radialGradient><radialGradient id="XMLID_15_-8" cx="37.761" cy="142.066" r="174.629" fx="37.761" fy="142.066" gradientTransform="matrix(-0.27233349,0,0,0.27233349,73.953637,60.886057)" gradientUnits="userSpaceOnUse"><stop id="stop576" offset="0" style="stop-color:#fff"/><stop id="stop577" offset="1" style="stop-color:#039"/></radialGradient><linearGradient id="XMLID_16_-0" x1="13.073" x2="13.073" y1="39.612" y2="7.293" gradientTransform="matrix(-1.4524453,0,0,1.4524453,102.27632,32.563374)" gradientUnits="userSpaceOnUse"><stop id="stop583" offset="0" style="stop-color:#fff"/><stop id="stop584" offset="1" style="stop-color:#b3caff"/></linearGradient><linearGradient id="XMLID_17_-4" x1="23.393" x2="23.393" y1="4.556" y2="23.688" gradientTransform="matrix(-1.4524453,0,0,1.4524453,102.27632,32.563374)" gradientUnits="userSpaceOnUse"><stop id="stop590" offset="0" style="stop-color:#fff"/><stop id="stop591" offset=".15" style="stop-color:#fbfdff"/><stop id="stop592" offset=".304" style="stop-color:#eef7ff"/><stop id="stop593" offset=".462" style="stop-color:#daedff"/><stop id="stop594-7" offset=".62" style="stop-color:#bddfff"/><stop id="stop595-7" offset=".78" style="stop-color:#97ccff"/><stop id="stop596" offset=".939" style="stop-color:#6ab6ff"/><stop id="stop597" offset="1" style="stop-color:#57adff"/></linearGradient><linearGradient id="linearGradient5934" x1="61.415" x2="66.587" y1="95.254" y2="51.081" gradientUnits="userSpaceOnUse" xlink:href="#XMLID_14_"/><radialGradient id="radialGradient1481" cx="6.703" cy="73.616" r="7.228" fx="6.703" fy="73.616" gradientTransform="matrix(4.1063919,0,0,1.7445686,4.476566,-48.403686)" gradientUnits="userSpaceOnUse" xlink:href="#linearGradient5060"/><linearGradient id="linearGradient5060"><stop style="stop-color:black;stop-opacity:1" id="stop5062" offset="0"/><stop style="stop-color:black;stop-opacity:0" id="stop5064" offset="1"/></linearGradient><linearGradient id="linearGradient2564" x1="12.25" x2="9.582" y1="18.25" y2="27.057" gradientTransform="matrix(-2.174577,0,0,-2.174577,80.838765,100.27782)" gradientUnits="userSpaceOnUse" xlink:href="#linearGradient6925"/><linearGradient id="linearGradient6925"><stop style="stop-color:#e44e00;stop-opacity:1" id="stop6927" offset="0"/><stop style="stop-color:#edffcb;stop-opacity:0" id="stop6929" offset="1"/></linearGradient><linearGradient id="linearGradient2566" x1="33.06" x2="12.624" y1="27.394" y2="12.584" gradientTransform="matrix(-1.9878112,0,0,-1.9878112,89.251553,106.16417)" gradientUnits="userSpaceOnUse" xlink:href="#linearGradient2573"/><linearGradient id="linearGradient2573"><stop style="stop-color:#fff;stop-opacity:1" id="stop2575" offset="0"/><stop style="stop-color:#fff;stop-opacity:0" id="stop2577" offset="1"/></linearGradient><linearGradient id="linearGradient2365" x1="32.058" x2="27.909" y1="8.669" y2="18.069" gradientTransform="matrix(0,2.1745774,-2.1745774,0,52.398584,-9.6678191)" gradientUnits="userSpaceOnUse" xlink:href="#linearGradient2573"/><linearGradient id="XMLID_18_" x1="12.936" x2="34.485" y1="30.881" y2="30.881" gradientTransform="matrix(-1.4524453,0,0,1.4524453,102.27632,32.563374)" gradientUnits="userSpaceOnUse"><stop id="stop603-2" offset="0" style="stop-color:#428aff"/><stop id="stop604-4" offset=".268" style="stop-color:#2969f8"/><stop id="stop605" offset=".56" style="stop-color:#124df2"/><stop id="stop606" offset=".814" style="stop-color:#053bee"/><stop id="stop607" offset="1" style="stop-color:#0035ed"/></linearGradient><linearGradient id="XMLID_19_" x1="12.936" x2="34.485" y1="31.065" y2="31.065" gradientTransform="matrix(-1.4524453,0,0,1.4524453,102.27632,32.563374)" gradientUnits="userSpaceOnUse"><stop id="stop613-3" offset="0" style="stop-color:#428aff"/><stop id="stop614-2" offset=".268" style="stop-color:#2969f8"/><stop id="stop615-8" offset=".56" style="stop-color:#124df2"/><stop id="stop616-1" offset=".814" style="stop-color:#053bee"/><stop id="stop617-9" offset="1" style="stop-color:#0035ed"/></linearGradient><linearGradient id="XMLID_20_-0" x1="14.705" x2="32.71" y1="30.806" y2="30.806" gradientTransform="matrix(-1.4524453,0,0,1.4524453,102.27632,32.563374)" gradientUnits="userSpaceOnUse"><stop id="stop623-6" offset="0" style="stop-color:#e6e6e6"/><stop id="stop624-4" offset=".018" style="stop-color:#e7e7e7"/><stop id="stop625" offset=".299" style="stop-color:#f9f9f9"/><stop id="stop626" offset=".506" style="stop-color:#fff"/><stop id="stop627" offset=".768" style="stop-color:#fafafa"/><stop id="stop628" offset="1" style="stop-color:#f0f0f0"/></linearGradient><linearGradient id="XMLID_21_-5" x1="37.125" x2="43.742" y1="6.046" y2="6.046" gradientTransform="matrix(0.9962,-0.0872,0.0872,0.9962,-24.7865,15.8203)" gradientUnits="userSpaceOnUse"><stop style="stop-color:#fff" id="stop640" offset="0"/><stop style="stop-color:#cecedb" id="stop641" offset="1"/></linearGradient><linearGradient id="XMLID_22_-9" x1="41.061" x2="41.061" y1="4.354" y2="7.661" gradientTransform="matrix(0.9962,-0.0872,0.0872,0.9962,-24.7865,15.8203)" gradientUnits="userSpaceOnUse"><stop style="stop-color:#fff" id="stop649" offset="0"/><stop style="stop-color:#000" id="stop650" offset="1"/></linearGradient><linearGradient id="XMLID_23_-7" x1="536.088" x2="542.706" y1="34.568" y2="34.568" gradientTransform="matrix(-0.9962,-0.0872,-0.0872,0.9962,571.1264,30.916)" gradientUnits="userSpaceOnUse"><stop style="stop-color:#fff" id="stop659" offset="0"/><stop style="stop-color:#cecedb" id="stop660" offset="1"/></linearGradient><linearGradient id="XMLID_24_" x1="540.024" x2="540.024" y1="32.878" y2="36.184" gradientTransform="matrix(-0.9962,-0.0872,-0.0872,0.9962,571.1264,30.916)" gradientUnits="userSpaceOnUse"><stop style="stop-color:#fff" id="stop668" offset="0"/><stop style="stop-color:#000" id="stop669" offset="1"/></linearGradient></defs><metadata id="metadata549"><xpacket id="xpacket6">begin=&apos; &apos; id=&apos;W5M0MpCehiHzreSzNTczkc9d&apos;</xpacket><x:xmpmeta x:xmptk="XMP toolkit 3.0-29, framework 1.6"><metadata id="metadata82"/></x:xmpmeta><xpacket id="xpacket8">end=&apos;w&apos;</xpacket></metadata><g id="g4282" transform="matrix(1.25,0,0,1.25,0,-0.23698195)"><g id="g9950" transform="translate(0.26811572,-4.8260829)"><path style="opacity:.2" id="path5347" d="m 2.7290275,40.639971 c 0,9.937347 6.3966612,19.299133 17.2410115,25.41595 -2.488802,3.159628 -4.888294,5.416221 -6.57528,6.819397 L 8.4925718,76.943934 14.853506,76.59066 c 8.621496,-0.476326 15.778291,-2.068048 21.321533,-4.709671 3.899917,0.760135 7.914947,1.157075 11.953792,1.157075 25.034889,0 45.399801,-14.531907 45.399801,-32.396108 0,-17.862217 -20.366897,-32.3961074 -45.399801,-32.3961074 C 23.093942,8.241883 2.7290275,22.77577 2.7290275,40.639971 Z"/><path style="opacity:.2" id="path5349" d="m 2.3638486,39.544422 c 0,9.937346 6.3986407,19.297147 17.2429924,25.415949 -2.488803,3.159628 -4.888293,5.416221 -6.575281,6.817414 l -4.9021866,4.068616 6.3609346,-0.353276 c 8.621496,-0.476324 15.778292,-2.068048 21.321531,-4.70967 3.899918,0.760136 7.914947,1.159059 11.953793,1.159059 25.034889,0 45.399802,-14.533891 45.399802,-32.398092 0,-17.864201 -20.366897,-32.3961071 -45.401786,-32.3961071 -25.032905,0 -45.3997994,14.5338901 -45.3997994,32.3961071 z"/><path style="fill:url(#linearGradient5511)" id="path5357" d="m 1.4389828,38.816041 c 0,9.93933 6.3966612,19.299132 17.2410082,25.417934 -2.488804,3.157643 -4.888294,5.416221 -6.575282,6.817413 l -4.9021852,4.068616 6.3609332,-0.353276 c 8.621496,-0.476324 15.778292,-2.068048 21.321532,-4.70967 3.899918,0.760136 7.914947,1.157074 11.955778,1.157074 25.032903,0 45.399801,-14.531905 45.399801,-32.396106 C 92.240568,20.955808 71.87367,6.4219181 46.840767,6.4219181 21.805878,6.4179525 1.4389828,20.951838 1.4389828,38.816041 Z"/><path style="fill:url(#radialGradient5513)" id="path5373" d="m 46.840767,8.5217209 c -23.87583,0 -43.2980179,13.5891771 -43.2980179,30.2943201 0,10.193371 7.2381709,19.219746 18.3008369,24.711384 -2.94528,4.140066 -5.973918,7.129009 -8.393257,9.137517 10.082229,-0.557698 16.772621,-2.588037 21.160773,-4.795013 3.882056,0.801815 7.984411,1.238447 12.233635,1.238447 23.873843,0 43.296028,-13.591164 43.296028,-30.29432 C 90.136789,22.110898 70.714611,8.5217209 46.840767,8.5217209 Z"/><path style="fill:url(#radialGradient5515)" id="path5381" d="m 31.860321,67.869929 c -3.933658,1.978736 -9.72697,3.81259 -18.148012,4.572727 -0.08733,0.07343 -0.176638,0.150837 -0.263964,0.222286 9.514608,-0.527929 16.006531,-2.363768 20.394682,-4.423877 -0.664872,-0.115109 -1.327758,-0.236178 -1.982706,-0.371136 z M 46.840767,8.5217209 c -0.460448,0 -0.916927,0.00602 -1.373406,0.015873 23.240728,0.5100652 41.924607,13.8948201 41.924607,30.2764571 0,16.377668 -18.67197,29.758454 -41.904761,30.276458 0.450525,0.01 0.90105,0.01786 1.35356,0.01786 23.873844,0 43.296028,-13.591163 43.296028,-30.29432 0,-16.703157 -19.422184,-30.2923357 -43.296028,-30.2923357 z"/><path style="fill:url(#linearGradient5517)" id="path5389" d="m 36.796246,67.869929 c -0.200453,0.101225 -0.410831,0.200453 -0.621207,0.299687 3.413668,0.609301 6.984126,0.93876 10.665728,0.93876 0.404877,0 0.809754,-0.004 1.212646,-0.01189 -3.901901,-0.06153 -7.6748,-0.486249 -11.257167,-1.226539 z m -23.347901,4.795013 c 0.821661,-0.04565 1.611568,-0.105191 2.389568,-0.1687 2.387584,-2.006522 5.328895,-4.941879 8.192803,-8.970802 C 12.970034,58.031817 5.731867,49.007427 5.731867,38.814056 c 0,-16.449118 18.83273,-29.8755496 42.20445,-30.2843964 -0.365184,-0.00602 -0.728383,-0.00999 -1.093566,-0.00999 -23.87583,0 -43.2980138,13.5891784 -43.2980138,30.2943204 0,10.193371 7.2381688,19.219745 18.3008338,24.711384 -2.94925,4.14205 -5.977887,7.130994 -8.397226,9.139502 z"/><path style="opacity:.67880004;fill:url(#linearGradient5738);fill-opacity:1" id="path5409" d="m 14.934878,24.16307 c 12.793317,7.150839 27.37484,8.907291 42.297731,5.013327 3.080239,-0.857386 6.208111,-1.895379 9.230796,-2.901618 3.643891,-1.21066 7.392972,-2.439184 11.159916,-3.393821 C 71.643447,15.172419 59.884154,10.25237 46.777257,10.25237 c -13.759862,0 -26.291198,5.539272 -31.842379,13.9107 z"/></g><rect id="rect6163" width="102.4" height="102.4" x="0" y=".19" ry="0" style="opacity:0;fill:#f95;fill-opacity:1;stroke:none;stroke-width:.88;stroke-linecap:round;stroke-linejoin:round;stroke-miterlimit:4;stroke-dasharray:none;stroke-dashoffset:0;stroke-opacity:1"/><g id="g9908"><g id="g8599"><path style="opacity:.2" id="path551" d="m 100.17027,66.66098 c 0,7.272393 -4.681227,14.123578 -12.617388,18.600014 1.821366,2.312293 3.577373,3.963724 4.811951,4.990602 l 3.58754,2.977513 -4.655087,-0.258535 c -6.309422,-0.348587 -11.54694,-1.513448 -15.60362,-3.446653 -2.854055,0.556287 -5.792352,0.846776 -8.748078,0.846776 -18.321145,0 -33.224686,-10.634805 -33.224686,-23.708265 0,-13.072007 14.904994,-23.708264 33.224686,-23.708264 18.321145,-0.0029 33.224682,10.633352 33.224682,23.706812 z"/><path style="opacity:.2" id="path552" d="m 100.43752,65.85923 c 0,7.272394 -4.682679,14.122126 -12.618841,18.600015 1.821367,2.312292 3.577373,3.963723 4.811952,4.989149 l 3.58754,2.977513 -4.655088,-0.258535 c -6.309422,-0.348587 -11.54694,-1.513448 -15.603619,-3.446653 -2.854055,0.556287 -5.792352,0.848228 -8.748078,0.848228 -18.321145,0 -33.224687,-10.636257 -33.224687,-23.709717 0,-13.07346 14.904994,-23.708265 33.226139,-23.708265 18.319693,0 33.224682,10.636257 33.224682,23.708265 z"/><path style="fill:url(#XMLID_13_)" id="path559" d="m 101.11436,65.326183 c 0,7.273846 -4.681227,14.123578 -12.617389,18.601467 1.821367,2.31084 3.577373,3.963723 4.811952,4.989149 l 3.58754,2.977513 -4.655088,-0.258535 C 85.931953,91.28719 80.694435,90.122329 76.637756,88.189124 73.783701,88.745411 70.845404,89.0359 67.888225,89.0359 c -18.319692,0 -33.224686,-10.634805 -33.224686,-23.708265 0,-13.072008 14.904994,-23.708265 33.224686,-23.708265 18.321145,-0.0029 33.226135,10.633352 33.226135,23.706813 z"/><path style="fill:url(#linearGradient5934);fill-opacity:1" id="path574" d="m 67.888225,43.156058 c 17.472917,0 31.686547,9.944893 31.686547,22.170125 0,7.459759 -5.297068,14.06548 -13.392998,18.084396 2.155428,3.029801 4.37186,5.217184 6.142391,6.687058 C 84.945743,89.6895 80.04955,88.203649 76.838193,86.588529 c -2.840983,0.586788 -5.843187,0.906326 -8.952873,0.906326 -17.471464,0 -31.685094,-9.946345 -31.685094,-22.170125 0.0029,-12.223779 14.216535,-22.168672 31.687999,-22.168672 z"/><path style="fill:url(#XMLID_15_-8)" id="path581" d="m 78.851282,86.588529 c 2.878747,1.448088 7.118435,2.790148 13.28116,3.346434 0.06391,0.05374 0.129268,0.110386 0.193175,0.162674 -6.963023,-0.38635 -11.713971,-1.729862 -14.925328,-3.2375 0.48657,-0.08424 0.971686,-0.172841 1.450993,-0.271608 z M 67.888225,43.156058 c 0.336967,0 0.67103,0.0044 1.005092,0.01162 -17.008134,0.373279 -30.681454,10.16857 -30.681454,22.157053 0,11.985579 13.664605,21.777965 30.66693,22.157053 -0.329705,0.0073 -0.65941,0.01307 -0.990568,0.01307 -17.471464,0 -31.685094,-9.946345 -31.685094,-22.170125 0,-12.223779 14.21363,-22.168672 31.685094,-22.168672 z"/><path style="fill:url(#XMLID_16_-0)" id="path588" d="m 75.239051,86.588529 c 0.146697,0.07408 0.300656,0.146697 0.454615,0.21932 -2.498206,0.4459 -5.111155,0.687006 -7.805441,0.687006 -0.296299,0 -0.592598,-0.0029 -0.887444,-0.0087 2.855507,-0.04503 5.616606,-0.35585 8.23827,-0.897612 z m 17.086566,3.509108 c -0.601312,-0.03341 -1.179385,-0.07698 -1.748744,-0.123458 -1.747292,-1.468422 -3.899816,-3.616588 -5.995694,-6.565052 8.094478,-4.020369 13.391546,-10.624638 13.391546,-18.084397 0,-12.037866 -13.782254,-21.863659 -30.88625,-22.162863 0.26725,-0.0044 0.533048,-0.0073 0.800298,-0.0073 17.472917,0 31.686546,9.944893 31.686546,22.170125 0,7.459759 -5.297068,14.06548 -13.392998,18.084397 2.158334,3.031253 4.374765,5.218636 6.145296,6.68851 z"/><path style="opacity:.55;fill:url(#XMLID_17_-4)" id="path601" d="m 91.237736,54.602779 c -9.362463,5.23316 -20.033578,6.518574 -30.954515,3.668877 -2.254195,-0.627457 -4.543248,-1.387085 -6.755323,-2.123475 -2.666689,-0.885992 -5.410358,-1.785055 -8.1671,-2.483682 4.376218,-5.641297 12.981957,-9.241909 22.573905,-9.241909 10.069804,0 19.240543,4.053775 23.303033,10.180189 z"/><polyline id="_x3C_Slice_x3E_" points="0 48 0 0 48 0 48 48" transform="matrix(-1.4524453,0,0,1.4524453,102.27632,32.563374)" style="fill:none"/></g><g style="overflow:visible" id="g9626" transform="matrix(0.87773486,0,0,0.87773486,8.9149983,8.9118102)"><path style="fill:url(#XMLID_18_)" id="path611" d="m 53.850341,70.729279 c 0.0029,0 27.977002,0 27.978454,0 0.580978,-0.12491 1.157599,-0.01017 1.59188,0.329705 0.406685,0.319538 0.640528,0.793035 0.640528,1.298486 0,6.50405 -7.27675,11.793856 -16.220909,11.793856 -8.944158,0 -16.222361,-5.291258 -16.222361,-11.793856 0,-0.505451 0.233844,-0.978948 0.640528,-1.298486 0.434281,-0.33842 1.012355,-0.454615 1.59188,-0.329705 z"/><path style="fill:url(#XMLID_19_)" id="path621" d="m 53.850341,70.997982 c 0.0029,0 27.977002,0 27.978454,0 0.580978,-0.124911 1.157599,-0.01162 1.59188,0.328252 0.406685,0.320991 0.640528,0.793035 0.640528,1.298486 0,6.50405 -7.27675,11.793856 -16.220909,11.793856 -8.944158,0 -16.222361,-5.291258 -16.222361,-11.793856 0,-0.505451 0.233844,-0.977495 0.640528,-1.298486 0.434281,-0.339872 1.012355,-0.453163 1.59188,-0.328252 z"/><path style="fill:url(#XMLID_20_-0)" id="path634" d="m 81.830248,71.696608 c 0.45752,0 0.829346,0.294846 0.829346,0.65941 0,5.822853 -6.647842,10.56073 -14.820752,10.56073 -8.171457,0 -14.819299,-4.737877 -14.819299,-10.56073 0,-0.364564 0.370373,-0.65941 0.827893,-0.65941 l 27.982812,0 z"/><g id="g635" transform="matrix(-1.4524453,0,0,1.4524453,102.27632,32.563374)"><g id="g636"><ellipse id="ellipse637" cx="15.882" cy="18.04" rx="3.979" ry="5.825"/><ellipse style="fill:#b1b1c5" id="ellipse638" cx="15.886" cy="18.098" rx="3.467" ry="5.075"/><linearGradient id="linearGradient9705" x1="37.125" x2="43.742" y1="6.046" y2="6.046" gradientTransform="matrix(0.9962,-0.0872,0.0872,0.9962,-24.7865,15.8203)" gradientUnits="userSpaceOnUse"><stop style="stop-color:#fff" id="stop9707" offset="0"/><stop style="stop-color:#cecedb" id="stop9709" offset="1"/></linearGradient><ellipse style="fill:url(#XMLID_21_-5)" id="ellipse645" cx="16.021" cy="18.317" rx="3.309" ry="4.844"/><path style="opacity:.5;fill:#fff" id="path646" d="m 14.052,18.249 c 0.451,-2.174 1.952,-3.726 3.442,-3.637 -0.506,-0.419 -1.09,-0.64 -1.695,-0.587 -1.609,0.141 -2.746,2.165 -2.54,4.52 0.096,1.094 0.465,2.066 0.993,2.781 -0.34,-0.857 -0.435,-1.947 -0.2,-3.077 z"/><circle id="circle647" cx="16.831" cy="19.636" r="1.733"/><linearGradient id="linearGradient9714" x1="41.061" x2="41.061" y1="4.354" y2="7.661" gradientTransform="matrix(0.9962,-0.0872,0.0872,0.9962,-24.7865,15.8203)" gradientUnits="userSpaceOnUse"><stop style="stop-color:#fff" id="stop9716" offset="0"/><stop style="stop-color:#000" id="stop9718" offset="1"/></linearGradient><circle style="fill:url(#XMLID_22_-9)" id="circle654" cx="16.746" cy="19.412" r="1.353"/></g><g id="g655"><ellipse id="ellipse656" cx="30.904" cy="18.04" rx="3.979" ry="5.825"/><ellipse style="fill:#b1b1c5" id="ellipse657" cx="30.899" cy="18.098" rx="3.467" ry="5.075"/><linearGradient id="linearGradient9724" x1="536.088" x2="542.706" y1="34.568" y2="34.568" gradientTransform="matrix(-0.9962,-0.0872,-0.0872,0.9962,571.1264,30.916)" gradientUnits="userSpaceOnUse"><stop style="stop-color:#fff" id="stop9726" offset="0"/><stop style="stop-color:#cecedb" id="stop9728" offset="1"/></linearGradient><ellipse style="fill:url(#XMLID_23_-7)" id="ellipse664" cx="30.765" cy="18.317" rx="3.309" ry="4.844"/><path style="opacity:.5;fill:#fff" id="path665" d="m 32.733,18.249 c -0.45,-2.174 -1.95,-3.726 -3.442,-3.637 0.506,-0.419 1.091,-0.64 1.694,-0.587 1.61,0.141 2.748,2.165 2.542,4.52 -0.097,1.094 -0.465,2.066 -0.994,2.781 0.342,-0.857 0.436,-1.947 0.2,-3.077 z"/><circle id="circle666" cx="29.954" cy="19.636" r="1.734"/><linearGradient id="linearGradient9733" x1="540.024" x2="540.024" y1="32.878" y2="36.184" gradientTransform="matrix(-0.9962,-0.0872,-0.0872,0.9962,571.1264,30.916)" gradientUnits="userSpaceOnUse"><stop style="stop-color:#fff" id="stop9735" offset="0"/><stop style="stop-color:#000" id="stop9737" offset="1"/></linearGradient><circle style="fill:url(#XMLID_24_)" id="circle673" cx="30.039" cy="19.412" r="1.353"/></g></g></g></g><g id="g8618"><path id="path10699" d="m 61.683226,80.023982 a 29.682703,12.610467 0 0 1 -59.3654033,0 29.682703,12.610467 0 1 1 59.3654033,0 z" style="color:#000;display:inline;overflow:visible;visibility:visible;opacity:.3;fill:url(#radialGradient1481);fill-opacity:1;fill-rule:nonzero;stroke:none;stroke-width:.80000001;stroke-linecap:butt;stroke-linejoin:miter;stroke-miterlimit:4;stroke-dashoffset:0;stroke-opacity:1;marker:none;marker-start:none;marker-mid:none;marker-end:none"/><path style="color:#000;display:block;overflow:visible;visibility:visible;fill:#fc0;fill-opacity:1;fill-rule:nonzero;stroke:url(#linearGradient2564);stroke-width:2.17457771;stroke-linecap:butt;stroke-linejoin:miter;stroke-miterlimit:4;stroke-dasharray:none;stroke-dashoffset:0;stroke-opacity:1;marker:none;marker-start:none;marker-mid:none;marker-end:none" id="path1432" d="m 34.048597,31.281464 c 37.241201,-1.53468 34.986117,50.873627 -0.328629,50.527433 l 0,15.902502 -28.2390219,-24.74165 28.2390219,-25.94755 0,16.399429 c 23.853725,0.993915 28.996423,-27.45531 0.328629,-32.140164 z"/><path id="path2177" d="M 48.256116,36.320632 C 68.140771,46.63285 62.14417,80.808409 32.000523,80.023974 l 0,13.737625 c 0,0 -23.8276641,-20.80164 -23.8276641,-20.80164 L 32.000523,51.004401 c 0,0 0,14.040464 0,14.040464 25.171213,0.590734 24.017949,-21.639341 16.255593,-28.724233 z" style="color:#000;display:block;overflow:visible;visibility:visible;opacity:.47159089;fill:none;fill-opacity:1;fill-rule:nonzero;stroke:url(#linearGradient2566);stroke-width:2.17457652;stroke-linecap:butt;stroke-linejoin:miter;stroke-miterlimit:10;stroke-dasharray:none;stroke-dashoffset:0;stroke-opacity:1;marker:none;marker-start:none;marker-mid:none;marker-end:none"/><path style="color:#000;display:block;overflow:visible;visibility:visible;opacity:.14600004;fill:url(#linearGradient2365);fill-opacity:1;fill-rule:nonzero;stroke:none;stroke-width:.99999982;stroke-linecap:butt;stroke-linejoin:miter;stroke-miterlimit:4;stroke-dasharray:none;stroke-dashoffset:0;stroke-opacity:1;marker:none;marker-start:none;marker-mid:none;marker-end:none" id="path2362" d="m 13.555327,26.367719 c 8.002073,7.41802 9.949929,1.265795 -0.339777,0.06798 51.345624,1.011497 44.202303,37.944312 20.534893,36.958161 L 33.720015,47.022218 5.4809724,72.975593 5.7527947,73.247416 C 24.137518,68.170556 46.995115,73.863173 61.340412,59.452419 63.708686,43.82043 51.05513,25.630643 13.555327,26.367719 Z"/></g></g></svg>