<svg xmlns="http://www.w3.org/2000/svg" xmlns:svg="http://www.w3.org/2000/svg" style="overflow:visible" id="svg4259" width="128" height="128" version="1.1" viewBox="0 0 128 128" xml:space="preserve"><metadata id="metadata77"/><defs id="defs4382"><linearGradient id="XMLID_1_" x1="129" x2="129" y1="11" y2="245" gradientUnits="userSpaceOnUse"><stop style="stop-color:#494949" id="stop4265" offset="0"/><stop style="stop-color:#000" id="stop4266" offset="1"/></linearGradient><linearGradient id="XMLID_2_" x1="29.053" x2="226.947" y1="29.053" y2="226.947" gradientUnits="userSpaceOnUse"><stop style="stop-color:#fff" id="stop4273" offset="0"/><stop style="stop-color:#dadada" id="stop4274" offset="1"/></linearGradient></defs><path style="font-size:12px;fill:none" id="path4279" d="m 256,546.13332 -256,0 0,-255.99999 256,0 0,255.99999 z"/><g id="g4280" transform="matrix(0.68087261,0,0,0.68087261,-22.657851,-23.568364)" style="font-size:12px;stroke:#000"><g id="g4281"><g style="opacity:.2" id="g4282"><path style="stroke:none" id="path4283" d="m 146.657,82.607 c -16.417,2.021 -31.063,10.315 -41.241,23.351 -10.178,13.036 -14.672,29.257 -12.651,45.673 2.021,16.416 10.313,31.063 23.352,41.24 26.911,21.012 65.9,16.211 86.912,-10.699 10.163,-13.016 14.646,-29.234 12.622,-45.67 C 213.628,120.068 205.343,105.42 192.327,95.255 179.291,85.08 163.071,80.587 146.657,82.607 m 5.211,64.473 c -0.933,-0.729 -1.468,-1.832 -1.468,-3.021 0,-0.859 0.279,-1.67 0.809,-2.348 0.629,-0.803 1.534,-1.316 2.55,-1.441 1.014,-0.125 2.014,0.15 2.816,0.779 0.805,0.629 1.315,1.533 1.441,2.547 0.124,1.02 -0.153,2.021 -0.779,2.824 -1.299,1.66 -3.706,1.957 -5.369,0.66 z"/></g><g style="opacity:.2" id="g4284"><path style="stroke:none" id="path4285" d="m 144.964,81.762 c -16.417,2.019 -31.063,10.313 -41.241,23.349 -10.179,13.034 -14.671,29.256 -12.65,45.676 2.021,16.412 10.313,31.059 23.351,41.238 26.912,21.012 65.9,16.211 86.913,-10.699 10.162,-13.016 14.645,-29.234 12.62,-45.672 C 211.936,119.22 203.651,104.573 190.635,94.41 177.597,84.232 161.378,79.741 144.964,81.762 m 5.211,64.47 c -0.935,-0.727 -1.467,-1.828 -1.467,-3.02 0,-0.859 0.277,-1.67 0.807,-2.348 0.628,-0.805 1.534,-1.316 2.552,-1.443 1.013,-0.125 2.014,0.152 2.814,0.781 0.808,0.629 1.317,1.533 1.44,2.547 0.128,1.018 -0.152,2.02 -0.779,2.824 -1.297,1.659 -3.704,1.956 -5.367,0.659 z"/></g><path style="fill:#3a3aa9;stroke:none" id="path4286" d="m 144.117,80.067 c -16.417,2.021 -31.062,10.314 -41.241,23.352 -10.179,13.035 -14.671,29.255 -12.65,45.673 2.021,16.414 10.313,31.061 23.351,41.24 26.913,21.01 65.902,16.211 86.912,-10.699 10.162,-13.016 14.646,-29.234 12.622,-45.67 C 211.09,117.528 202.804,102.88 189.788,92.717 176.751,82.54 160.533,78.046 144.117,80.067 m 5.21,64.472 c -0.932,-0.729 -1.466,-1.83 -1.466,-3.02 0,-0.857 0.277,-1.672 0.807,-2.346 0.628,-0.807 1.534,-1.318 2.552,-1.445 1.015,-0.125 2.015,0.152 2.816,0.781 0.805,0.629 1.316,1.531 1.439,2.549 0.126,1.016 -0.151,2.018 -0.778,2.82 -1.298,1.663 -3.705,1.96 -5.37,0.661 z"/><linearGradient id="XMLID_3_" x1="94.268" x2="209.098" y1="141.525" y2="141.525" gradientUnits="userSpaceOnUse"><stop style="stop-color:#e6edff" id="stop4288" offset="0"/><stop style="stop-color:#b3caff" id="stop4289" offset="1"/></linearGradient><path style="fill:url(#XMLID_3_);stroke:none" id="path4293" d="m 106.322,106.108 c -19.56,25.052 -15.106,61.218 9.944,80.779 25.055,19.559 61.217,15.109 80.775,-9.945 19.56,-25.051 15.105,-61.217 -9.944,-80.776 -25.052,-19.562 -61.215,-15.11 -80.775,9.942 m 51.823,40.462 c -2.784,3.566 -7.944,4.199 -11.509,1.418 -3.562,-2.783 -4.198,-7.943 -1.412,-11.508 2.777,-3.564 7.942,-4.201 11.504,-1.418 3.561,2.78 4.2,7.946 1.417,11.508 z"/><path style="fill:#fff;stroke:none" id="path4294" d="m 158.855,145.658 c 2.726,-3.49 2.043,-8.598 -1.518,-11.379 -3.564,-2.783 -8.676,-2.203 -11.404,1.289 -0.116,0.148 -0.224,0.309 -0.331,0.469 2.854,-3.162 7.717,-3.633 11.125,-0.975 3.407,2.658 4.129,7.494 1.753,11.027 0.127,-0.142 0.256,-0.28 0.375,-0.431 m -41.16,39.399 c -24.898,-19.438 -29.762,-54.873 -11.006,-79.405 -0.122,0.152 -0.246,0.302 -0.367,0.456 -19.56,25.052 -15.106,61.218 9.944,80.779 25.055,19.559 61.217,15.109 80.775,-9.945 0.12,-0.154 0.237,-0.313 0.356,-0.465 -19.251,24.146 -54.803,28.021 -79.702,8.58 z"/><path style="opacity:.3;fill:#9b95ff;stroke:none" id="path4295" d="M 187.098,96.166 C 178.722,89.625 169.104,85.774 159.282,84.475 l -2.942,20.989 -3.91,27.906 c 1.514,0.135 3.011,0.688 4.299,1.693 1.063,0.834 1.861,1.877 2.392,3.031 l 25.7,-10.395 20.073,-8.115 c -3.673,-8.93 -9.643,-17.055 -17.796,-23.418 z"/><path style="opacity:.7;fill:#fff;stroke:none" id="path4296" d="m 199.146,108.961 c -3.252,-4.742 -7.274,-9.073 -12.049,-12.796 -5.013,-3.916 -10.471,-6.865 -16.151,-8.884 -4.728,12.941 -9.022,24.709 -9.022,24.709 0,0 -3.65,9.985 -7.921,21.677 0.961,0.283 1.885,0.742 2.725,1.395 0.594,0.467 1.101,1.002 1.53,1.582 12.291,-8.318 29.572,-20.019 40.888,-27.683 z"/><path style="opacity:.3;fill:#9b95ff;stroke:none" id="path4297" d="m 149.933,149.523 c -1.168,-0.254 -2.296,-0.754 -3.297,-1.535 -1.218,-0.957 -2.089,-2.193 -2.604,-3.547 l -26.489,10.713 -19.278,7.799 c 3.652,9.131 9.691,17.445 18.002,23.934 8.089,6.314 17.334,10.125 26.808,11.547 l 2.95,-21.039 3.908,-27.872 z"/><path style="opacity:.7;fill:#fff;stroke:none" id="path4298" d="m 146.636,147.988 c -0.603,-0.477 -1.12,-1.021 -1.553,-1.615 -10.455,7.08 -19.458,13.178 -19.458,13.178 0,0 -10.159,6.877 -21.428,14.51 3.259,4.752 7.287,9.092 12.069,12.826 4.891,3.816 10.204,6.717 15.734,8.729 4.78,-13.086 11.93,-32.662 16.939,-46.371 -0.811,-0.29 -1.588,-0.702 -2.303,-1.257 z"/><path style="fill:#9b95ff;stroke:none" id="path4299" d="m 134.589,128.176 c -7.358,9.425 -5.677,23.083 3.748,30.443 9.426,7.361 23.081,5.678 30.438,-3.748 7.36,-9.424 5.678,-23.08 -3.745,-30.44 -9.426,-7.358 -23.081,-5.678 -30.441,3.745 m 23.556,18.394 c -2.784,3.566 -7.944,4.199 -11.509,1.418 -3.562,-2.783 -4.198,-7.943 -1.412,-11.508 2.777,-3.564 7.942,-4.201 11.504,-1.418 3.561,2.78 4.2,7.946 1.417,11.508 z"/><path style="fill:#e6e6e6;stroke:none" id="path4300" d="m 140.511,132.803 c -4.811,6.16 -3.714,15.086 2.446,19.896 6.162,4.809 15.088,3.709 19.896,-2.449 4.81,-6.16 3.712,-15.088 -2.451,-19.9 -6.158,-4.809 -15.081,-3.711 -19.891,2.453 m 17.634,13.767 c -2.784,3.566 -7.944,4.199 -11.509,1.418 -3.562,-2.783 -4.198,-7.943 -1.412,-11.508 2.777,-3.564 7.942,-4.201 11.504,-1.418 3.561,2.78 4.2,7.946 1.417,11.508 z"/><linearGradient id="XMLID_4_" x1="152.153" x2="152.153" y1="118.248" y2="94.943" gradientUnits="userSpaceOnUse"><stop style="stop-color:#e1e1ff" id="stop4302" offset="0"/><stop style="stop-color:#fff" id="stop4303" offset="1"/></linearGradient><path style="opacity:.7;fill:url(#XMLID_4_);stroke:none" id="path4307" d="m 152.153,85.35 c -23.473,0 -42.57,11.415 -42.57,25.447 0,9.445 8.732,17.876 22.161,22.258 0.722,-1.705 1.653,-3.352 2.845,-4.878 7.36,-9.423 21.015,-11.104 30.44,-3.745 3.074,2.404 5.311,5.483 6.693,8.862 13.774,-4.328 23.001,-12.974 23.001,-22.497 10e-4,-14.033 -19.098,-25.447 -42.57,-25.447 z"/></g><g id="g4308"><path style="opacity:.2;stroke:none" id="path4309" d="m 52.906,52.067 c -5.54,0 -10.047,4.591 -10.047,10.236 l 0,90.806 c 0,5.646 4.507,10.236 10.047,10.236 l 88.501,0 c 5.539,0 10.046,-4.59 10.046,-10.236 l 0,-90.806 c 0,-5.645 -4.507,-10.236 -10.046,-10.236 l -88.501,0 z"/><path style="opacity:.2;stroke:none" id="path4310" d="m 51.025,51.126 c -5.54,0 -10.047,4.592 -10.047,10.235 l 0,90.806 c 0,5.646 4.507,10.238 10.047,10.238 l 88.501,0 c 5.538,0 10.045,-4.592 10.045,-10.238 l 0,-90.805 c 0,-5.644 -4.507,-10.235 -10.045,-10.235 l -88.501,0 z"/><path style="fill:#00008d;stroke:none" id="path4311" d="m 50.084,50.186 c -5.539,0 -10.046,4.591 -10.046,10.235 l 0,90.807 c 0,5.646 4.507,10.236 10.046,10.236 l 88.501,0 c 5.539,0 10.046,-4.59 10.046,-10.236 l 0,-90.807 c 0,-5.645 -4.507,-10.235 -10.046,-10.235 l -88.501,0 z"/><path style="fill:#fff;stroke:none" id="path4312" d="m 145.81,151.229 c 0,4.098 -3.236,7.414 -7.225,7.414 l -88.501,0 c -3.989,0 -7.225,-3.316 -7.225,-7.414 l 0,-90.808 c 0,-4.094 3.235,-7.414 7.225,-7.414 l 88.501,0 c 3.988,0 7.225,3.32 7.225,7.414 l 0,90.808 z"/><linearGradient id="XMLID_5_" x1="505.783" x2="505.783" y1="2179.052" y2="2736.409" gradientTransform="matrix(0.1875,0,0,-0.1875,-0.5,554)" gradientUnits="userSpaceOnUse"><stop style="stop-color:#b4e2ff" id="stop4314" offset="0"/><stop style="stop-color:#006dff" id="stop4315" offset="1"/></linearGradient><path style="fill:url(#XMLID_5_);stroke:none" id="path4319" d="m 145.81,151.229 c 0,4.098 -3.236,7.414 -7.225,7.414 l -88.501,0 c -3.989,0 -7.225,-3.316 -7.225,-7.414 l 0,-90.808 c 0,-4.094 3.235,-7.414 7.225,-7.414 l 88.501,0 c 3.988,0 7.225,3.32 7.225,7.414 l 0,90.808 z"/><path style="fill:#fff;stroke:none" id="path4320" d="m 50.084,54.702 c -3.05,0 -5.531,2.565 -5.531,5.719 l 0,90.807 c 0,3.154 2.481,5.723 5.531,5.723 l 88.501,0 c 3.05,0 5.53,-2.568 5.53,-5.723 l 0,-90.807 c 0,-3.154 -2.48,-5.719 -5.53,-5.719 l -88.501,0 z"/><linearGradient id="XMLID_6_" x1="45.424" x2="176.266" y1="56.916" y2="187.758" gradientUnits="userSpaceOnUse"><stop style="stop-color:#94caff" id="stop4322" offset="0"/><stop style="stop-color:#006dff" id="stop4323" offset="1"/></linearGradient><path style="fill:url(#XMLID_6_);stroke:none" id="path4327" d="m 50.084,54.702 c -3.05,0 -5.531,2.565 -5.531,5.719 l 0,90.807 c 0,3.154 2.481,5.723 5.531,5.723 l 88.501,0 c 3.05,0 5.53,-2.568 5.53,-5.723 l 0,-90.807 c 0,-3.154 -2.48,-5.719 -5.53,-5.719 l -88.501,0 z"/><linearGradient id="XMLID_7_" x1="94.184" x2="94.184" y1="41.658" y2="138.733" gradientUnits="userSpaceOnUse"><stop style="stop-color:#428aff" id="stop4329" offset="0"/><stop style="stop-color:#c9e6ff" id="stop4330" offset="1"/></linearGradient><path style="fill:url(#XMLID_7_);stroke:none" id="path4334" d="m 133.684,55.729 c 0,0 -78.818,0 -81.015,0 0,2.118 0,49.938 0,52.057 2.17,0 80.862,0 83.03,0 0,-2.118 0,-49.938 0,-52.057 -0.928,0 -2.015,0 -2.015,0 z"/><path style="fill:#fff;stroke:none" id="path4335" d="m 131.22,54.599 -77.02,0 0,50.928 79.97,0 0,-50.928 -2.95,0 z"/><linearGradient id="XMLID_8_" x1="639.586" x2="331.888" y1="2662.262" y2="2354.564" gradientTransform="matrix(0.1875,0,0,-0.1875,-0.5,554)" gradientUnits="userSpaceOnUse"><stop style="stop-color:#b6b6b6" id="stop4337" offset="0"/><stop style="stop-color:#f0f0f0" id="stop4338" offset="1"/></linearGradient><path style="fill:url(#XMLID_8_);stroke:none" id="path4342" d="m 131.22,54.599 -77.02,0 0,50.928 79.97,0 0,-50.928 -2.95,0 z"/><path style="fill:#fff;stroke:#fff;stroke-width:.1875" id="path4343" d="m 58.013,56.201 c 0,2.102 0,43.772 0,45.872 2.157,0 70.487,0 72.643,0 0,-2.1 0,-43.77 0,-45.872 -2.156,0 -70.486,0 -72.643,0 z"/><linearGradient id="XMLID_9_" x1="127.571" x2="78.844" y1="45.9" y2="94.627" gradientUnits="userSpaceOnUse"><stop style="stop-color:#fff" id="stop4345" offset="0"/><stop style="stop-color:#e6edff" id="stop4346" offset=".551"/><stop style="stop-color:#fff" id="stop4347" offset="1"/></linearGradient><path style="fill:url(#XMLID_9_);stroke:#fff;stroke-width:.1875" id="path4353" d="m 58.013,56.201 c 0,2.102 0,43.772 0,45.872 2.157,0 70.487,0 72.643,0 0,-2.1 0,-43.77 0,-45.872 -2.156,0 -70.486,0 -72.643,0 z"/><linearGradient id="XMLID_10_" x1="429.342" x2="626.694" y1="2326.382" y2="2055.823" gradientTransform="matrix(0.1875,0,0,-0.1875,-0.5,554)" gradientUnits="userSpaceOnUse"><stop style="stop-color:#0035ed" id="stop4355" offset=".27"/><stop style="stop-color:#b0d9ff" id="stop4356" offset="1"/></linearGradient><path style="fill:url(#XMLID_10_);stroke:none" id="path4360" d="m 126.264,156.854 -66.245,0 0,-42.074 66.245,0 0,42.074 z"/><linearGradient id="XMLID_11_" x1="89.262" x2="89.262" y1="110.893" y2="169.405" gradientUnits="userSpaceOnUse"><stop style="stop-color:#dfdfdf" id="stop4362" offset="0"/><stop style="stop-color:#7d7d99" id="stop4363" offset="1"/></linearGradient><path style="fill:url(#XMLID_11_);stroke:none" id="path4367" d="m 63.301,116.41 c -0.936,0 -1.693,0.759 -1.693,1.693 l 0,39.444 c 0,0.936 0.758,1.693 1.693,1.693 l 51.922,0 c 0.935,0 1.693,-0.758 1.693,-1.693 l 0,-39.444 c 0,-0.935 -0.759,-1.693 -1.693,-1.693 l -51.922,0 m 16.875,11.068 c 0,2.622 0,15.284 0,17.907 -2.058,0 -6.247,0 -8.305,0 0,-2.623 0,-15.285 0,-17.907 2.058,0 6.247,0 8.305,0 z"/><linearGradient id="XMLID_12_" x1="478.728" x2="478.728" y1="2290.199" y2="2119.381" gradientTransform="matrix(0.1875,0,0,-0.1875,-0.5,554)" gradientUnits="userSpaceOnUse"><stop style="stop-color:#f0f0f0" id="stop4369" offset="0"/><stop style="stop-color:#cecedb" id="stop4370" offset=".635"/><stop style="stop-color:#b1b1c5" id="stop4371" offset=".86"/><stop style="stop-color:#fff" id="stop4372" offset="1"/></linearGradient><path style="fill:url(#XMLID_12_);stroke:none" id="path4380" d="m 63.301,118.103 0,39.444 51.922,0 0,-39.444 -51.922,0 m 18.567,28.973 -11.69,0 0,-21.292 11.69,0 0,21.292 z"/></g></g></svg>