<svg xmlns="http://www.w3.org/2000/svg" xmlns:svg="http://www.w3.org/2000/svg" xmlns:xlink="http://www.w3.org/1999/xlink" id="svg8030" width="128" height="128" version="1.1" viewBox="0 0 128 128"><defs id="defs8032"><linearGradient id="linearGradient11339" x1="-127.067" x2="-121.276" y1="420.662" y2="420.662" gradientTransform="matrix(0.52682361,-0.51935165,0.51393868,0.53210552,384.63568,206.11248)" gradientUnits="userSpaceOnUse" xlink:href="#linearGradient12278"/><linearGradient id="linearGradient12278"><stop style="stop-color:#241c1c;stop-opacity:1" id="stop12280" offset="0"/><stop style="stop-color:#803300;stop-opacity:1" id="stop12282" offset="1"/></linearGradient><linearGradient id="linearGradient11374" x1="520.022" x2="541.097" y1="488.148" y2="488.455" gradientTransform="matrix(1.0417013,0,0,1.0417013,-21.720254,-20.871757)" gradientUnits="userSpaceOnUse" xlink:href="#linearGradient11368"/><linearGradient id="linearGradient11368"><stop style="stop-color:#fff;stop-opacity:1" id="stop11370" offset="0"/><stop style="stop-color:#afdde9;stop-opacity:1" id="stop11372" offset="1"/></linearGradient><linearGradient id="linearGradient10890" x1="614.156" x2="608.353" y1="679.236" y2="669.379" gradientUnits="userSpaceOnUse" xlink:href="#linearGradient10714"/><linearGradient id="linearGradient10714"><stop id="stop10716" offset="0" style="stop-color:#f60;stop-opacity:1"/><stop id="stop10718" offset="1" style="stop-color:#fc0;stop-opacity:1"/></linearGradient><filter id="filter14456"><feGaussianBlur id="feGaussianBlur14458" stdDeviation=".36"/></filter><linearGradient id="linearGradient10322" x1="481.195" x2="495.852" y1="215.963" y2="224.939" gradientTransform="matrix(1.1060776,0,0,1.1060776,-17.332073,184.60948)" gradientUnits="userSpaceOnUse" xlink:href="#linearGradient14440"/><linearGradient id="linearGradient14440"><stop id="stop14442" offset="0" style="stop-color:#fc0;stop-opacity:1"/><stop style="stop-color:#fc0;stop-opacity:1" id="stop14444" offset=".377"/><stop id="stop14446" offset="1" style="stop-color:#f60;stop-opacity:1"/></linearGradient></defs><metadata id="metadata8035"/><g id="layer1" transform="translate(0,-924.3622)"><g id="g11377" transform="matrix(5.8181818,0,0,5.8181818,-3024.2482,-1860.9883)"><rect id="rect10263" width="22" height="22" x="519.793" y="478.732" style="opacity:0;fill:#ececec;fill-opacity:1;stroke:none;stroke-width:2;stroke-linecap:round;stroke-linejoin:round;stroke-miterlimit:4;stroke-dasharray:none;stroke-dashoffset:0;stroke-opacity:1"/><path id="rect11333" d="m 533.70401,494.69336 1.20032,-1.26843 c 0.57681,-0.60959 0.87088,-1.15941 1.48515,-0.58759 l 4.52537,4.21258 c 0.61426,0.57181 0.57125,1.5639 -0.0263,2.15305 l -0.89348,0.88082 c -0.59764,0.58917 -1.51689,0.54569 -2.13115,-0.0262 l -4.52537,-4.21259 c -0.61427,-0.5718 -0.21129,-0.54219 0.36554,-1.15173 z" style="opacity:.95999995;fill:url(#linearGradient11339);fill-opacity:1;stroke:none"/><path id="circle11335" d="m 529.56962,479.16317 a 8.7164178,8.8060145 0 0 0 -8.7161,8.80562 8.7164178,8.8060145 0 0 0 8.7161,8.80564 8.7164178,8.8060145 0 0 0 8.71814,-8.80564 8.7164178,8.8060145 0 0 0 -8.71814,-8.80562 z m 0,1.52593 a 7.2053313,7.2793955 0 0 1 7.20646,7.27969 7.2053313,7.2793955 0 0 1 -7.20646,7.2797 7.2053313,7.2793955 0 0 1 -7.20442,-7.2797 7.2053313,7.2793955 0 0 1 7.20442,-7.27969 z" style="fill:#b3b3b3;fill-opacity:1;stroke:none"/><circle id="path11366" cx="529.525" cy="487.953" r="7.3" style="opacity:1;fill:url(#linearGradient11374);fill-opacity:1;stroke:none;stroke-width:.5;stroke-linecap:round;stroke-linejoin:round;stroke-miterlimit:4;stroke-dasharray:none;stroke-dashoffset:0;stroke-opacity:1"/><path style="opacity:1;fill:#a00;fill-opacity:1;stroke:none;stroke-width:.5;stroke-linecap:round;stroke-linejoin:round;stroke-miterlimit:4;stroke-dasharray:none;stroke-dashoffset:0;stroke-opacity:1" id="path10749" d="m 527.47684,489.68557 2.7821,0.73841 -2.53702,6.59408 -0.91221,-1.67809 -1.86959,0.93889 z"/><path id="rect10621" d="m 528.14897,490.24098 2.78982,-0.89701 3.17455,6.43016 -2.04466,-0.81479 -0.74553,1.71105 z" style="opacity:1;fill:red;fill-opacity:1;stroke:none;stroke-width:.5;stroke-linecap:round;stroke-linejoin:round;stroke-miterlimit:4;stroke-dasharray:none;stroke-dashoffset:0;stroke-opacity:1"/><path id="path10624" d="m 614.57366,679.52495 -1.44436,-0.11928 -1.28757,1.08542 -1.0984,-0.94547 -1.67966,0.12132 -0.33289,-1.41053 -1.43018,-0.88913 0.55977,-1.33682 -0.63442,-1.55996 1.23862,-0.75247 0.40366,-1.63494 1.44437,0.11928 1.28756,-1.08543 1.09841,0.94547 1.67966,-0.12132 0.33289,1.41053 1.43018,0.88914 -0.55978,1.33681 0.63443,1.55996 -1.23863,0.75248 z" transform="matrix(1.3326199,0.00519607,-0.0051329,1.3490205,-282.3276,-427.99479)" style="opacity:1;fill:url(#linearGradient10890);fill-opacity:1;stroke:none;stroke-width:.5;stroke-linecap:round;stroke-linejoin:round;stroke-miterlimit:4;stroke-dasharray:none;stroke-dashoffset:0;stroke-opacity:1"/><ellipse id="path10626" cx="531.244" cy="484.789" rx="4.461" ry="4.516" transform="matrix(0.9999924,0.00389911,-0.00380488,0.99999276,0,0)" style="opacity:1;fill:#ff0;fill-opacity:1;stroke:none;stroke-width:.5;stroke-linecap:round;stroke-linejoin:round;stroke-miterlimit:4;stroke-dasharray:none;stroke-dashoffset:0;stroke-opacity:1"/><g style="opacity:1" id="g10316" transform="matrix(0.38032844,0,0,0.38500908,330.22803,321.99277)"><path id="path10318" d="m 494.05368,227.42154 -4.95765,-2.37763 -5.10006,2.05447 0.72926,-5.44973 -3.52992,-4.21558 5.40836,-0.9905 2.91845,-4.65984 2.61329,4.83758 5.33362,1.33564 -3.79325,3.98028 z" transform="matrix(1.1264964,0,0,1.1344032,-27.229312,178.80157)" style="opacity:.82824426;fill:#999;fill-opacity:1;stroke:none;filter:url(#filter14456)"/><path style="fill:url(#linearGradient10322);fill-opacity:1;stroke:#f4a800;stroke-width:.5;stroke-miterlimit:4;stroke-dasharray:none;stroke-opacity:1" id="path10320" d="m 529.12961,436.15535 -5.48355,-2.62984 -5.64106,2.2724 0.80662,-6.02783 -3.90437,-4.66276 5.98207,-1.09557 3.22803,-5.15414 2.8905,5.35073 5.8994,1.47733 -4.19563,4.4025 z"/></g></g></g></svg>