<svg xmlns="http://www.w3.org/2000/svg" xmlns:svg="http://www.w3.org/2000/svg" xmlns:xlink="http://www.w3.org/1999/xlink" id="svg2" width="128" height="128" version="1.1" viewBox="0 0 128 128"><defs id="defs4"><linearGradient id="linearGradient4217"><stop style="stop-color:#fff;stop-opacity:1" id="stop4219" offset="0"/><stop style="stop-color:#fff;stop-opacity:0" id="stop4221" offset="1"/></linearGradient><linearGradient id="linearGradient4071"><stop style="stop-color:#224fda;stop-opacity:1" id="stop4073" offset="0"/><stop style="stop-color:#b7dcff;stop-opacity:1" id="stop4075" offset="1"/></linearGradient><linearGradient id="linearGradient4039"><stop style="stop-color:#d01509;stop-opacity:1" id="stop4041" offset="0"/><stop id="stop4047" offset=".606" style="stop-color:#ff8100;stop-opacity:1"/><stop style="stop-color:#de7524;stop-opacity:1" id="stop4043" offset="1"/></linearGradient><linearGradient id="linearGradient4031"><stop id="stop4033" offset="0" style="stop-color:#f06a00;stop-opacity:0"/><stop style="stop-color:#ffa700;stop-opacity:1" id="stop4035" offset=".5"/><stop id="stop4037" offset="1" style="stop-color:#fffbf2;stop-opacity:1"/></linearGradient><linearGradient id="linearGradient4006"><stop id="stop4008" offset="0" style="stop-color:#7e84a2;stop-opacity:1"/><stop style="stop-color:#a0a0b6;stop-opacity:1" id="stop4018" offset=".597"/><stop style="stop-color:#e5e5eb;stop-opacity:1" id="stop4016" offset=".721"/><stop style="stop-color:#fcfcfd;stop-opacity:1" id="stop4014" offset=".797"/><stop style="stop-color:#dfdfe6;stop-opacity:1" id="stop4010" offset=".862"/><stop id="stop4012" offset="1" style="stop-color:#c6c6d2;stop-opacity:1"/></linearGradient><linearGradient id="linearGradient3819"><stop style="stop-color:#99a1ff;stop-opacity:1" id="stop3821" offset="0"/><stop style="stop-color:#eef3ff;stop-opacity:1" id="stop3823" offset="1"/></linearGradient><linearGradient id="linearGradient3768"><stop style="stop-color:#f06a00;stop-opacity:1" id="stop3770" offset="0"/><stop id="stop3776" offset=".5" style="stop-color:#ffa700;stop-opacity:1"/><stop style="stop-color:#fffbf2;stop-opacity:1" id="stop3772" offset="1"/></linearGradient><linearGradient id="linearGradient3774" x1="43.132" x2="14.742" y1="59.241" y2="43.909" gradientUnits="userSpaceOnUse" xlink:href="#linearGradient3768"/><linearGradient id="linearGradient3825" x1="73.72" x2="73.897" y1="72.384" y2="15.011" gradientUnits="userSpaceOnUse" xlink:href="#linearGradient3819"/><linearGradient id="linearGradient3774-1" x1="43.132" x2="14.742" y1="59.241" y2="43.909" gradientUnits="userSpaceOnUse" xlink:href="#linearGradient3768-0"/><linearGradient id="linearGradient3768-0"><stop style="stop-color:#f06a00;stop-opacity:1" id="stop3770-1" offset="0"/><stop id="stop3776-3" offset=".5" style="stop-color:#ffa700;stop-opacity:1"/><stop style="stop-color:#fffbf2;stop-opacity:1" id="stop3772-6" offset="1"/></linearGradient><linearGradient id="linearGradient3985" x1="62.94" x2="30.114" y1="32.194" y2="14.002" gradientTransform="matrix(0.94396567,0.0483695,0.04164982,0.88893495,1.8256767,-0.59713569)" gradientUnits="userSpaceOnUse" xlink:href="#linearGradient4006"/><linearGradient id="linearGradient4045" x1="10.897" x2="-11.052" y1="107.743" y2="97.579" gradientUnits="userSpaceOnUse" xlink:href="#linearGradient4039"/><linearGradient id="linearGradient4077" x1="-12.798" x2="-9.028" y1="121.352" y2="114.594" gradientUnits="userSpaceOnUse" xlink:href="#linearGradient4071"/><linearGradient id="linearGradient4223" x1="45.662" x2="47.763" y1="6.519" y2="7.875" gradientUnits="userSpaceOnUse" xlink:href="#linearGradient4217"/><linearGradient id="linearGradient4799"><stop style="stop-color:#ffde00;stop-opacity:1" id="stop4801" offset="0"/><stop style="stop-color:#ffa700;stop-opacity:1" id="stop4803" offset="1"/></linearGradient><linearGradient id="x2" x1="99.299" x2="208.193" y1="107.588" y2="130.083" gradientUnits="userSpaceOnUse"><stop id="stop8702" offset="0" stop-color="#494949"/><stop id="stop8704" offset=".5" stop-color="#616161"/><stop id="stop8706" offset="1" stop-color="#000"/></linearGradient><linearGradient id="x3" x1="197.016" x2="210.319" y1="228.985" y2="164.587" gradientUnits="userSpaceOnUse"><stop id="stop8709" offset="0" stop-color="#7c0000"/><stop id="stop8711" offset="1" stop-color="#cf0000"/></linearGradient><linearGradient id="x4" x1="100.597" x2="206.893" y1="107.857" y2="129.815" gradientUnits="userSpaceOnUse"><stop id="stop8714" offset="0" stop-color="#a2a2a2"/><stop id="stop8716" offset="1" stop-color="#494949"/></linearGradient><linearGradient id="x5" x1="213.503" x2="196.562" y1="192.809" y2="203.952" gradientUnits="userSpaceOnUse"><stop id="stop8719" offset="0" stop-color="#ffc957"/><stop id="stop8721" offset="1" stop-color="#ff6d00"/></linearGradient><linearGradient id="x6" x1="212.505" x2="199.138" y1="193.388" y2="202.17" gradientUnits="userSpaceOnUse"><stop id="stop8724" offset="0" stop-color="#FF6"/><stop id="stop8726" offset="1" stop-color="#ff6d00"/></linearGradient><linearGradient id="x7" x1="196.489" x2="187.196" y1="183.836" y2="169.704" gradientUnits="userSpaceOnUse"><stop id="stop8729" offset="0" stop-color="gold"/><stop id="stop8731" offset="1" stop-color="#fff"/></linearGradient><linearGradient id="x8" x1="130.009" x2="208.257" y1="82.742" y2="201.737" gradientUnits="userSpaceOnUse"><stop id="stop8734" offset="0" stop-color="#dadada"/><stop id="stop8736" offset=".612" stop-color="#949494"/><stop id="stop8738" offset="1" stop-color="#dadada"/></linearGradient><linearGradient id="x9" x1="185.267" x2="190.94" y1="170.681" y2="166.951" gradientUnits="userSpaceOnUse"><stop id="stop8741" offset="0" stop-color="#b2b2b2"/><stop id="stop8743" offset="1" stop-color="#fff"/></linearGradient><linearGradient id="x1" x1="107.545" x2="199.25" y1="108.823" y2="127.767" gradientUnits="userSpaceOnUse"><stop id="stop8746" offset="0" stop-color="#fff"/><stop id="stop8748" offset="1" stop-color="#494949"/></linearGradient><radialGradient id="r1" cx="160.337" cy="81.892" r="116.95" gradientUnits="userSpaceOnUse"><stop id="stop8751" offset=".006" stop-color="#0035ed"/><stop id="stop8753" offset=".567" stop-color="#94caff"/><stop id="stop8755" offset=".708" stop-color="#c9e6ff"/><stop id="stop8757" offset="1" stop-color="#034cfe"/></radialGradient><radialGradient id="r2" cx="160.371" cy="66.649" r="116.95" gradientUnits="userSpaceOnUse"><stop id="stop8760" offset=".006" stop-color="#fff"/><stop id="stop8762" offset=".45" stop-color="#94caff"/><stop id="stop8764" offset=".6" stop-color="#c9e6ff"/><stop id="stop8766" offset="1" stop-color="#fff"/></radialGradient></defs><metadata id="metadata7"/><g id="layer2" style="display:inline"><g id="g8890" transform="matrix(0.75199864,0,0,0.75199864,-60.363496,-45.092937)"><title id="title8892">Magnifier</title><path id="path8894" d="m 123.08,72.202 0,0 c -25.417,16.713 -32.499,50.989 -15.786,76.407 7.2598,11.041 18.238,19.113 30.915,22.727 12.265,3.501 25.371,2.5898 37.058,-2.4854 1.0215,1.5547 7.1475,10.871 7.1475,10.871 2.2441,3.4131 7.3467,3.7432 11.87,0.7686 2.6563,-1.7471 4.3457,-4.1299 4.834,-6.4912 0.3418,-1.6572 0.0908,-3.3037 -0.834,-4.7109 0,0 -6.1289,-9.3174 -7.1504,-10.871 8.3018,-7.7871 14.002,-17.928 16.295,-29.023 0.2725,-1.3262 0.5,-2.665 0.6748,-4.0156 1.7041,-13.07 -1.3565,-26.35 -8.6162,-37.39 -16.713,-25.418 -50.99,-32.5 -76.407,-15.786 z" style="fill:url(#x2)"/><path id="path8896" d="m 185.19,166.65 c -3.8799,2.5479 -6.4102,6.1182 -7.127,9.5938 -0.4219,2.041 -0.2188,4.0518 0.707,5.8018 l 0.0293,0.0566 0.0176,0.1035 26.828,40.803 c 3.1055,4.7207 10.631,5.0723 17.131,0.7998 6.501,-4.2744 9.1592,-11.322 6.0557,-16.044 l -26.864,-40.854 -0.0742,-0.0273 c -3.3428,-4.1982 -10.524,-4.2969 -16.703,-0.2324 z" style="fill:url(#x3)"/><path id="path8898" d="m 124.54,74.415 c -11.701,7.6963 -19.711,19.509 -22.553,33.261 -2.8418,13.755 -0.1689,27.775 7.5254,39.478 6.9111,10.51 17.361,18.194 29.427,21.634 12.027,3.4297 24.914,2.4434 36.286,-2.7813 l 1.0352,-0.4736 8.374,12.734 c 1.4131,2.1494 4.9385,2.1533 8.1982,0.009 3.2617,-2.1455 4.6553,-5.3838 3.2422,-7.5322 l -8.375,-12.735 0.8477,-0.7607 c 9.3027,-8.3711 15.317,-19.812 16.934,-32.213 1.6221,-12.441 -1.293,-25.082 -8.2031,-35.592 -15.93,-24.211 -48.56,-30.953 -72.76,-15.043 z" style="fill:url(#x4)"/><path id="path8900" d="m 199.26,169.46 26.51,40.314 c 1.9473,2.9649 -0.2949,7.8779 -5.0078,10.977 -4.7148,3.1016 -10.114,3.2119 -12.064,0.2471 l -26.508,-40.315 17.07,-11.223 z" style="fill:url(#x5)"/><path id="path8902" d="m 198.48,170.72 25.834,39.291 c 1.8984,2.8877 0.4209,7.2109 -3.2979,9.6553 -3.7178,2.4463 -8.2715,2.0879 -10.172,-0.7988 l -25.833,-39.29 13.469,-8.8574 z" style="fill:url(#x6)"/><path id="path8904" d="m 199.26,169.46 c 1.9492,2.9619 -0.2949,7.877 -5.0088,10.976 -4.7139,3.0986 -10.113,3.2129 -12.062,0.2471 -1.9483,-2.9629 0.2939,-7.876 5.0078,-10.976 4.7139,-3.0986 10.113,-3.2119 12.062,-0.2471 z" style="fill:url(#x7)"/><path id="path8906" d="m 110.36,146.6 c -15.63,-23.772 -9.0313,-55.711 14.739,-71.34 23.768,-15.631 55.709,-9.0313 71.338,14.739 14.545,22.119 9.835,51.312 -10.046,67.856 l 8.8418,13.444 c 1.0625,1.6152 -0.2608,4.3623 -2.9522,6.1338 -2.6924,1.7695 -5.7383,1.8955 -6.8008,0.2803 l -8.8389,-13.445 c -23.07,11.698 -51.737,4.4521 -66.281,-17.668 z" style="fill:url(#x8)"/><path id="path8908" d="m 185.93,159.76 c 0,0 8.8564,13.469 9.3623,14.233 -0.2998,0.4492 -1.0439,1.2754 -2.3721,2.1455 -1.3291,0.874 -2.3809,1.2314 -2.9121,1.3281 -0.501,-0.7656 -9.3594,-14.237 -9.3594,-14.237 l 5.2813,-3.4697 z" style="fill:url(#x9)"/><circle id="circle8910" cx="153" cy="118.4" r="47" style="fill:url(#x1)"/><circle id="circle8912" cx="153" cy="118.4" r="44.5" style="fill:url(#r1)"/><circle id="circle8914" cx="153" cy="118.4" r="42" style="fill:url(#r2)"/></g></g></svg>