<svg xmlns="http://www.w3.org/2000/svg" xmlns:svg="http://www.w3.org/2000/svg" xmlns:xlink="http://www.w3.org/1999/xlink" id="svg3289" width="128" height="128" version="1.0" viewBox="0 0 128 128"><metadata id="metadata3294"/><defs id="defs3292"><linearGradient id="linearGradient3908"><stop id="stop3910" offset="0" stop-color="#001d9e"/><stop id="stop3912" offset="1" stop-color="#014cb8"/></linearGradient><linearGradient id="linearGradient3886" x1="110.96" x2="110.96" y1="84.447" y2="24.242" gradientUnits="userSpaceOnUse"><stop id="stop3882" offset="0" stop-color="#014cb8"/><stop id="stop3229" offset=".371" stop-color="#0368cd"/><stop id="stop3231" offset=".621" stop-color="#3087dc"/><stop id="stop3884" offset="1" stop-color="#75b4f3"/></linearGradient><linearGradient id="linearGradient3914" x1="5.5" x2="122.5" y1="58.5" y2="58.5" gradientUnits="userSpaceOnUse" xlink:href="#linearGradient3908"/><linearGradient id="linearGradient3962" x1="50.22" x2="50.22" y1="70.46" y2="25.756" gradientTransform="matrix(0.99894,0,0,1,1.2265,1)" gradientUnits="userSpaceOnUse"><stop id="stop3958" offset="0" stop-color="#0250bc"/><stop id="stop4754" offset=".582" stop-color="#4992de"/><stop id="stop3960" offset="1" stop-color="#8dc7f9"/></linearGradient><linearGradient id="linearGradient4002" x1="47.538" x2="47.538" y1="92.354" y2="78.717" gradientUnits="userSpaceOnUse"><stop id="stop3998" offset="0" stop-color="#008cf1"/><stop id="stop4000" offset="1" stop-color="#0045ab"/></linearGradient><linearGradient id="linearGradient4024" x1="30.923" x2="98.918" y1="95.668" y2="95.668" gradientUnits="userSpaceOnUse"><stop id="stop4020" offset="0" stop-color="#868686"/><stop id="stop4026" offset=".73" stop-color="#ccc"/><stop id="stop4022" offset="1" stop-color="#9f9f9f"/></linearGradient><linearGradient id="linearGradient4590" x1="46.109" x2="81.773" y1="48.02" y2="48.02" gradientTransform="translate(-5e-7,-0.17242)" gradientUnits="userSpaceOnUse"><stop id="stop4582" offset="0" stop-color="#840000"/><stop id="stop4584" offset="1" stop-color="#ff2e00"/></linearGradient><linearGradient id="linearGradient4622" x1="64.563" x2="53.032" y1="72.987" y2="51.128" gradientUnits="userSpaceOnUse"><stop id="stop4618" offset="0" stop-color="#fff500"/><stop id="stop4620" offset="1" stop-color="#fff"/></linearGradient><linearGradient id="linearGradient4630" x1="65.144" x2="65.676" y1="76.872" y2="51.451" gradientTransform="translate(0,-0.17242)" gradientUnits="userSpaceOnUse"><stop id="stop4634" offset="0" stop-color="#ff9e00"/><stop id="stop4636" offset="1" stop-color="#ff0"/></linearGradient><linearGradient id="linearGradient4654" x1="62.964" x2="62.964" y1="45.422" y2="89.405" gradientUnits="userSpaceOnUse"><stop id="stop4748" offset="0" stop-color="#ffa330"/><stop id="stop4750" offset="1" stop-color="#ffd23a"/></linearGradient><filter id="filter5094" style="color-interpolation-filters:sRGB"><feGaussianBlur id="feGaussianBlur5096" stdDeviation=".956"/></filter><filter id="filter4502" style="color-interpolation-filters:sRGB"><feGaussianBlur id="feGaussianBlur4504" stdDeviation=".528"/></filter><filter id="filter4506" style="color-interpolation-filters:sRGB"><feGaussianBlur id="feGaussianBlur4508" stdDeviation=".472"/></filter><linearGradient id="linearGradient3042" x1="5.5" x2="122.5" y1="58.5" y2="58.5" gradientUnits="userSpaceOnUse" xlink:href="#linearGradient3908"/></defs><g id="g4193" transform="translate(3.763718,-12.841757)"><g style="fill:none;stroke:#000" id="layer6" transform="translate(-5.013719,14.232849)"><path style="opacity:.69919003;stroke-width:3.5;filter:url(#filter4502)" id="path4387" d="m 17.25,92.495 -9,-18 16,-29 42,-25 40,25 16,29 -9,18 -47,7 -49,-7 z"/><path style="opacity:.69919003;stroke-width:3;filter:url(#filter4506)" id="path4369" d="m 89.655,109.42 a 35.871,22.169 0 0 1 -68.858,0.49" transform="matrix(1.12,0,0,1.12,4.383,-29.882)"/></g><g id="layer1" transform="translate(-5.013719,14.232849)"><path style="fill:url(#linearGradient3886);fill-rule:evenodd;stroke:url(#linearGradient3042);stroke-width:3.5" id="path3833" d="M 16,91 7,73 23,44 65,19 l 40,25 16,29 -9,18 -47,7 -49,-7 z"/><path style="fill:url(#linearGradient4002)" id="path3854" d="M 22,90.3 65,96.5 108,90 C 103.86,80.036 86.151,74.125 65,74.125 43.657,74.125 25.93,80.201 22,90.3 Z"/></g><g id="layer3" transform="translate(-5.013719,14.232849)"><path style="fill:url(#linearGradient4024);stroke:silver;stroke-width:1.29999995" id="path4016" d="M 58.45,107.16 C 47.553,106.02 37.148,101.74 32.08,96.31 30.326,94.432 28.978,92.577 29.22,92.374 29.22,92.374 39.77,83 65,83 c 25.413,0 35.82,8.416 35.82,8.416 0.51,0 0.02,0.997 -1.378,2.792 -4.539,5.832 -14.225,10.722 -24.632,12.432 -4.225,0.69 -12.291,0.95 -16.36,0.52 z"/><g id="g4004"><g style="stroke:#555" id="g4012"><path style="fill-opacity:0;stroke-width:3" id="path3868" d="m 89.655,109.42 a 35.871,22.169 0 0 1 -68.858,0.49" transform="matrix(1.12,0,0,1.12,3.133,-31.376)"/><path style="fill:none;stroke-width:1.55429995" id="path3985" d="m 50.079,110.78 a 48.095,9.6189 0 0 1 74.201,-0.33" transform="matrix(1.0631,0,0,1.5574,-26.98,-80.399)"/></g></g><path style="fill:none;stroke:url(#linearGradient3914);stroke-width:3.5" id="path4028" d="M 27.822,92.87 16,91 m 96,0 -9.27,1.687"/></g><g id="layer2" transform="translate(-5.013719,14.232849)"><path style="fill:url(#linearGradient3962)" id="path3852" d="M 65,20.9 24.202,45 8.7,73 C 22.313,68.227 29.366,59.328 33,46 50.617,43.341 59.427,36.017 65,20.9 Z"/></g><g id="layer4" transform="translate(-5.013719,14.232849)"><path style="fill:none;stroke:#181818;stroke-width:2;stroke-opacity:.80176003;filter:url(#filter5094)" id="path4656" d="m 46.25,48.128 3.194,14 -0.916,15.065 16.222,2.107 15.383,-2.657 -1.008,-14.515 2.84,-14 -7.42,0 -9.795,-2.632 -11,2.632 -7.5,0 z"/><path style="fill:url(#linearGradient4622);fill-rule:evenodd;stroke:url(#linearGradient4590);stroke-width:2.20000005" id="path4037" d="m 46,47.828 3.194,14 L 48.278,76.893 64.5,79 79.883,76.343 78.875,61.828 l 2.84,-14 -7.42,0 -9.795,-2.632 -11,2.632 -7.5,0 z"/><path style="fill:#fff;fill-opacity:.24335997;fill-rule:evenodd" id="path4752" d="m 83.757,104.49 7.709,-17.429 5.959,1.425 -13.668,16.004 z"/></g><g id="layer5" transform="translate(-5.013719,14.232849)"><path style="fill:#fff400;fill-rule:evenodd;stroke:url(#linearGradient4630);stroke-width:2" id="path4624" d="m 49.3,49.628 3.194,12.2 -0.916,11.89 12.922,1.982 12.083,-1.982 -1.008,-11.89 2.84,-12.2 -4.12,0 -9.795,-2.632 -11,2.632 -4.2,0 z"/><path style="fill:url(#linearGradient4654)" id="path4638" d="M 62.964,89.405 57.231,71.891 38.802,71.85 53.687,60.986 48.031,43.447 62.964,54.246 77.896,43.447 72.24,60.986 87.125,71.85 68.697,71.891 62.964,89.405 Z" transform="matrix(0.33317,0,0,-0.33317,42.88,82.821)"/></g></g></svg>