<svg xmlns="http://www.w3.org/2000/svg" xmlns:svg="http://www.w3.org/2000/svg" xmlns:xlink="http://www.w3.org/1999/xlink" id="svg2" width="128" height="128" version="1.1" viewBox="0 0 128 128"><defs id="defs4"><linearGradient id="linearGradient4757"><stop style="stop-color:#ff0;stop-opacity:1" id="stop4759" offset="0"/><stop style="stop-color:#f60;stop-opacity:1" id="stop4761" offset="1"/></linearGradient><linearGradient id="linearGradient44699"><stop style="stop-color:#000173;stop-opacity:.93333334" id="stop44701" offset="0"/><stop style="stop-color:#3575f0;stop-opacity:1" id="stop44703" offset="1"/></linearGradient><linearGradient id="linearGradient44693"><stop style="stop-color:#3690e6;stop-opacity:1" id="stop44695" offset="0"/><stop style="stop-color:#d0e9ff;stop-opacity:1" id="stop44697" offset="1"/></linearGradient><linearGradient id="linearGradient44681"><stop style="stop-color:#ff5c38;stop-opacity:1" id="stop44683" offset="0"/><stop style="stop-color:#fb7e65;stop-opacity:.99607843" id="stop44685" offset=".304"/><stop style="stop-color:#cd0000;stop-opacity:.98039216" id="stop44687" offset="1"/></linearGradient><linearGradient id="linearGradient44627"><stop style="stop-color:#fffcfb;stop-opacity:1" id="stop44629" offset="0"/><stop style="stop-color:#f4ad94;stop-opacity:1" id="stop44633" offset="1"/></linearGradient><linearGradient id="linearGradient44615"><stop style="stop-color:#2f68fa;stop-opacity:1" id="stop44617" offset="0"/><stop style="stop-color:#c7d5fb;stop-opacity:1" id="stop44619" offset="1"/></linearGradient><linearGradient id="linearGradient44605"><stop style="stop-color:#d0ecff;stop-opacity:1" id="stop44607" offset="0"/><stop style="stop-color:#d7f0ff;stop-opacity:1" id="stop44609" offset=".5"/><stop style="stop-color:#fff;stop-opacity:1" id="stop44611" offset="1"/></linearGradient><linearGradient id="linearGradient44090"><stop style="stop-color:#0926bb;stop-opacity:1" id="stop44092" offset="0"/><stop style="stop-color:#6bb5fe;stop-opacity:1" id="stop44094" offset="1"/></linearGradient><linearGradient id="linearGradient44080"><stop style="stop-color:#2c8300;stop-opacity:1" id="stop44082" offset="0"/><stop style="stop-color:#57aeff;stop-opacity:1" id="stop44084" offset=".25"/><stop style="stop-color:#fff;stop-opacity:1" id="stop44086" offset=".5"/><stop style="stop-color:#5aafff;stop-opacity:1" id="stop44088" offset="1"/></linearGradient><filter id="filter3297"><feGaussianBlur id="feGaussianBlur3299" stdDeviation=".267"/></filter><filter id="filter3293"><feGaussianBlur id="feGaussianBlur3295" stdDeviation=".355"/></filter><linearGradient id="linearGradient3219"><stop style="stop-color:#0e7309;stop-opacity:1" id="stop3221" offset="0"/><stop style="stop-color:#70d13e;stop-opacity:1" id="stop3223" offset="1"/></linearGradient><radialGradient id="radialGradient44048" cx="53.602" cy="59.729" r="17.834" fx="53.602" fy="59.729" gradientTransform="matrix(0,1.655849,-1.6391884,0,152.15006,-32.923726)" gradientUnits="userSpaceOnUse" xlink:href="#linearGradient44627"/><radialGradient id="radialGradient44061" cx="479.683" cy="709.658" r="5.006" fx="479.683" fy="709.658" gradientTransform="matrix(0.856113,-0.0637264,0.1161478,1.5603521,-743.30707,-121.7687)" gradientUnits="userSpaceOnUse" xlink:href="#linearGradient44605"/><linearGradient id="linearGradient44067" x1="517.022" x2="517.022" y1="705.484" y2="745.301" gradientTransform="matrix(-1,0,0,1,253.42404,245.75912)" gradientUnits="userSpaceOnUse" xlink:href="#linearGradient44090"/><linearGradient id="linearGradient44070" x1="517.022" x2="517.022" y1="705.484" y2="745.301" gradientTransform="translate(-730.02214,245.75912)" gradientUnits="userSpaceOnUse" xlink:href="#linearGradient44090"/><radialGradient id="radialGradient44073" cx="491.522" cy="670.925" r="36.427" fx="491.522" fy="670.925" gradientTransform="matrix(0,2.0237831,-1.9580539,0,1075.328,-66.735647)" gradientUnits="userSpaceOnUse" xlink:href="#linearGradient44080"/><linearGradient id="linearGradient44076" x1="83.281" x2="83.281" y1="123.098" y2="66.311" gradientTransform="translate(-282.47353,882.69271)" gradientUnits="userSpaceOnUse" xlink:href="#linearGradient44699"/><linearGradient id="linearGradient44613" x1="-246.577" x2="-248.777" y1="958.08" y2="964.617" gradientUnits="userSpaceOnUse" xlink:href="#linearGradient44615"/><linearGradient id="linearGradient44625" x1="-246.577" x2="-248.777" y1="958.08" y2="964.617" gradientTransform="matrix(-1,0,0,1,-476.93424,0)" gradientUnits="userSpaceOnUse" xlink:href="#linearGradient44615"/><linearGradient id="linearGradient44667" x1="517.022" x2="517.022" y1="705.484" y2="745.301" gradientTransform="translate(-772.48144,227.87334)" gradientUnits="userSpaceOnUse" xlink:href="#linearGradient3219"/><linearGradient id="linearGradient44677" x1="60.127" x2="60.127" y1="81.914" y2="47.543" gradientUnits="userSpaceOnUse" xlink:href="#linearGradient44681"/><linearGradient id="linearGradient44691" x1="-35.567" x2="-35.567" y1="76.563" y2="84.91" gradientUnits="userSpaceOnUse" xlink:href="#linearGradient44693"/><linearGradient id="linearGradient4800" x1="25.177" x2="54.848" y1="943.86" y2="943.86" gradientTransform="translate(0.31103869,-3.427902)" gradientUnits="userSpaceOnUse" xlink:href="#linearGradient4757"/><linearGradient id="linearGradient4799"><stop style="stop-color:#ffde00;stop-opacity:1" id="stop4801" offset="0"/><stop style="stop-color:#ffa700;stop-opacity:1" id="stop4803" offset="1"/></linearGradient><linearGradient id="linearGradient8056" x1="204.483" x2="203.518" y1="452.411" y2="475.661" gradientTransform="matrix(3.9333348,0,0,3.9333348,-869.52462,-874.5388)" gradientUnits="userSpaceOnUse" xlink:href="#linearGradient14054"/><linearGradient id="linearGradient14054"><stop style="stop-color:#093678;stop-opacity:1" id="stop14056" offset="0"/><stop style="stop-color:#000b1c;stop-opacity:1" id="stop14058" offset="1"/></linearGradient><linearGradient id="linearGradient8058" x1="207.379" x2="212.867" y1="458.023" y2="464.74" gradientUnits="userSpaceOnUse" xlink:href="#linearGradient14084"/><linearGradient id="linearGradient14084"><stop style="stop-color:#fc0;stop-opacity:1" id="stop14086" offset="0"/><stop style="stop-color:#d45500;stop-opacity:1" id="stop14088" offset="1"/></linearGradient></defs><metadata id="metadata7"/><g id="layer1" transform="translate(0,-924.36216)"><g id="g5671" transform="matrix(1,0,0,0.99148963,0,7.8666214)"><g id="g5612" transform="matrix(0.6566725,0,0,0.6566725,97.303423,354.45259)"><rect id="rect14024" width="105.357" height="76.309" x="-134.059" y="918.908" style="fill:url(#linearGradient8056);fill-opacity:1;stroke:#00274a;stroke-opacity:1"/><g id="g14034" transform="matrix(1.0324295,0,0,0.73278535,-356.76763,892.60655)" style="font-style:normal;font-variant:normal;font-weight:700;font-stretch:normal;font-size:60.12385559px;line-height:125%;font-family:Snickles;-inkscape-font-specification:'Snickles Bold';text-align:start;letter-spacing:0;word-spacing:0;writing-mode:lr-tb;text-anchor:start;fill:#fff;fill-opacity:1;stroke:none"><path id="path14036" d="m 223.79985,118.15627 c 0.0783,2.87703 0.79265,4.7559 2.14308,5.63661 0.39143,0.25444 0.98837,0.38165 1.7908,0.38165 0.48929,0 1.07643,-0.0489 1.76144,-0.14679 1.72229,-0.23485 3.20973,-0.81222 4.46232,-1.73208 0.84157,-0.56757 1.62443,-1.25258 2.34859,-2.05502 -0.23487,1.60488 -0.4208,3.15103 -0.55779,4.63846 -1e-5,0.15658 0.32292,0.25444 0.96879,0.29358 0.88071,0 1.58529,-0.0587 2.11373,-0.17615 2.07457,-0.39143 3.13143,-1.01771 3.17059,-1.87887 0.23485,-3.44459 1.24278,-8.84633 3.02381,-16.20526 1.03727,-2.48556 1.61463,-5.03965 1.73208,-7.662265 -2e-5,-0.293544 -0.32295,-0.44033 -0.96879,-0.44036 -0.27402,3e-5 -0.61652,0.02939 -1.02751,0.08807 -0.0392,-1.722267 -0.59695,-2.818273 -1.67336,-3.288024 -0.62631,-0.273968 -1.34067,-0.410969 -2.14309,-0.411003 -1.33088,3.4e-5 -2.91618,0.371893 -4.75589,1.11558 -4.05132,1.604899 -6.91855,3.953482 -8.60171,7.045762 -2.5443,4.67763 -3.81645,9.29651 -3.81645,13.85667 0,0.31316 0.01,0.62631 0.0294,0.93944 m 6.48797,-5.60725 c 0.35228,-2.36815 1.096,-4.93202 2.23116,-7.69163 0.27399,-0.68498 0.77307,-1.71249 1.49722,-3.08252 0.39143,-0.72412 0.81222,-1.30148 1.26237,-1.73209 0.0783,-0.07825 0.65564,-0.557759 1.73208,-1.438509 l 0.0587,-0.05872 c 0.0391,3.1e-5 0.0978,-0.03911 0.17614,-0.117429 0.0391,-0.03911 0.0978,-0.08804 0.17615,-0.146787 0.0978,-0.05868 0.20549,-0.13697 0.32293,-0.234859 l 0.0587,0 c 0.50885,0.391462 0.7535,1.233039 0.73394,2.524734 -2e-5,0.25445 -0.01,0.53824 -0.0294,0.85136 -1e-5,0.27403 0.37185,0.41103 1.11558,0.411 0.21527,3e-5 0.45013,-0.0195 0.70457,-0.0587 -0.0783,0.48931 -0.19572,1.03732 -0.35228,1.64401 -0.13702,0.58717 -0.31316,1.35046 -0.52844,2.28987 -0.2153,0.91989 -0.40123,1.67339 -0.55779,2.26052 -1.15473,2.68132 -3.00424,5.73448 -5.54854,9.15949 -1.23301,1.72231 -2.05501,2.79874 -2.46601,3.22931 l -0.35229,-0.70458 c -0.33272,-0.99814 -0.49908,-2.21157 -0.49908,-3.64031 0,-1.03728 0.0881,-2.192 0.26422,-3.46416"/><path id="path14038" d="m 247.9487,124.58553 c 0.56757,0.68501 1.46786,1.08622 2.70087,1.20365 0.274,0.0196 0.53822,0.0294 0.79265,0.0294 2.38773,0 4.91246,-0.97858 7.5742,-2.93574 2.87701,-2.13329 5.49959,-5.40174 7.86777,-9.80535 1.87885,-3.48372 2.81828,-6.63474 2.8183,-9.45307 -2e-5,-1.58527 -0.29359,-3.06292 -0.88072,-4.43296 -0.76331,-1.800553 -2.05503,-2.955274 -3.87517,-3.464167 -0.66545,-0.176111 -1.37981,-0.273969 -2.14308,-0.293574 -1.05688,3.4e-5 -2.1431,0.176178 -3.25867,0.528433 0.19571,-0.841544 0.69478,-2.945486 1.49722,-6.311831 l 0.61651,-2.407303 c 0.23485,-0.841535 0.43056,-1.643968 0.58715,-2.407303 0.4697,-1.898396 0.70456,-3.248833 0.70457,-4.051314 -1e-5,-0.176096 -0.01,-0.332668 -0.0294,-0.469718 -0.0587,-0.332668 -0.43058,-0.499026 -1.11557,-0.499075 -0.52845,4.9e-5 -1.26238,0.107693 -2.20181,0.322931 -1.97673,0.450194 -2.95531,1.037341 -2.93573,1.761441 -1e-5,0.05876 -1e-5,0.146834 0,0.264216 0.0196,0.0979 0.0294,0.185977 0.0294,0.264217 -10e-6,0.763336 -0.23487,2.064844 -0.70458,3.904527 l -0.64586,2.583447 c -0.31315,1.193905 -0.53822,2.074624 -0.67522,2.642162 -0.80244,3.405486 -1.54616,6.791364 -2.23116,10.157641 -0.31315,1.56575 -1.12537,4.89292 -2.43666,9.9815 -0.39143,1.60489 -0.7535,3.20975 -1.08622,4.81461 -0.11743,0.56758 -0.24464,1.33088 -0.38165,2.28987 -0.0783,0.4893 -0.14678,0.95902 -0.2055,1.40915 -0.0587,0.43059 -0.10764,0.73395 -0.14679,0.91008 l -0.0587,0.26422 c -0.33271,0.86115 -0.49907,1.57551 -0.49908,2.14308 1e-5,0.46973 0.10765,0.82201 0.32294,1.05687 m 5.95954,-3.3761 0.58714,-1.67337 c 0.15657,-2.44643 0.82201,-5.81274 1.9963,-10.09892 0.88072,-3.40543 1.66358,-6.75217 2.34859,-10.040218 l 0.0294,-0.11743 c 0.0196,-0.05869 0.0293,-0.127185 0.0294,-0.205501 0.56756,-0.234829 1.00792,-0.489259 1.32108,-0.763291 l 0.0294,-0.05871 0.0881,-0.05872 c 0.72414,0.352319 1.37978,1.047109 1.96694,2.08437 0.74371,1.31132 1.11557,2.82812 1.11558,4.55039 -1e-5,0.91989 -0.10766,1.90825 -0.32293,2.96509 -0.4893,2.2899 -1.50702,4.81463 -3.05317,7.5742 -0.48929,0.84159 -1.15473,1.88867 -1.9963,3.14124 -0.11743,0.15658 -0.21529,0.29358 -0.29357,0.411 -0.0783,0.11744 -0.19572,0.26423 -0.35229,0.44036 -0.13701,0.15658 -0.28379,0.33273 -0.44036,0.52843 -0.11743,0.11744 -0.21529,0.22508 -0.29357,0.32293 -0.0783,0.0979 -0.13701,0.17616 -0.17615,0.23486 l -0.0587,0.0881 c -0.45015,0.52844 -1.0373,1.13516 -1.76144,1.82016 -0.0783,0.0391 -0.17615,0.11744 -0.29357,0.23486 -0.11744,0.11743 -0.19572,0.19572 -0.23486,0.23486 l 0,-0.0587 c -0.27401,-0.23485 -0.41101,-0.50885 -0.41101,-0.822 0,-0.21528 0.0587,-0.45993 0.17615,-0.73394"/><path id="path14040" d="m 271.80398,109.84814 c -0.33271,2.11374 -0.49907,4.03176 -0.49907,5.75404 0,2.97489 0.48929,5.38219 1.46786,7.22191 0.90029,1.7223 2.42688,2.58345 4.57975,2.58344 1.13515,1e-5 2.45623,-0.23485 3.96324,-0.70457 3.01401,-0.959 5.42131,-2.96509 7.22191,-6.01826 0.11741,-0.1957 0.0978,-0.34249 -0.0587,-0.44036 -0.15659,-0.11742 -0.45995,-0.1957 -0.91008,-0.23486 -0.72416,1e-5 -1.24281,0.0489 -1.55594,0.14679 -1.95717,0.3523 -3.18039,0.91009 -3.66967,1.67337 -0.52844,0.84158 -1.11559,1.62445 -1.76144,2.34859 -0.0392,0.0392 -0.0979,0.0881 -0.17615,0.14678 -0.0783,0.0587 -0.15657,0.12722 -0.23485,0.2055 -0.4893,-0.31313 -0.94923,-0.91007 -1.3798,-1.79079 -0.7633,-1.48743 -1.16451,-3.62073 -1.20365,-6.39991 -1e-5,-0.23484 -1e-5,-0.45991 0,-0.67522 -1e-5,-1.82013 0.2055,-3.836 0.6165,-6.04761 0.39143,-2.28985 1.08622,-4.45251 2.08437,-6.48797 1.03729,-2.035418 2.22137,-3.503284 3.55224,-4.403607 l 0.0587,-0.05872 0.35229,0.205501 c 0.48928,0.234891 0.89049,0.489321 1.20365,0.763292 1.19385,1.076466 1.80057,2.661764 1.82015,4.755884 -10e-6,1.48747 -0.51866,2.8477 -1.55594,4.08068 -0.45015,0.45016 -0.41101,0.77309 0.11743,0.96879 0.31314,0.11745 0.7535,0.13703 1.32108,0.0587 2.07458,-0.15654 3.47394,-0.65562 4.19811,-1.49722 1.40913,-1.60484 2.11371,-3.41521 2.11373,-5.43111 -2e-5,-1.898411 -0.66546,-3.532635 -1.9963,-4.902677 -1.01774,-1.017687 -2.46604,-1.536333 -4.34489,-1.55594 -0.60673,3.5e-5 -1.26238,0.04896 -1.96695,0.146787 -3.01402,0.489323 -5.61704,1.712545 -7.80905,3.669669 -2.77916,2.485611 -4.62868,6.458641 -5.54854,11.919081 m 12.65302,-13.475021 0.0587,-0.05871 -0.0587,0.05871"/></g><g id="g14072" transform="matrix(3.9333348,0,0,3.9333348,-869.52462,-874.5388)"><g id="g14066"><path style="fill:#a40;fill-opacity:1;stroke:none" id="path14030" d="m 213.32189,485.88008 -3.5714,0 -7.05358,-8.90032 3.12498,0.16182 z"/><g id="g14062"><path style="fill:#a40;fill-opacity:1;stroke:none" id="path14028" d="m 187.51832,485.96101 3.57144,0 7.05357,-8.90034 -3.12499,0.16183 z"/><rect style="fill:#a40;fill-opacity:1;stroke:none" id="rect14032" width="13.839" height="1.376" x="193.233" y="480.297"/></g></g><rect style="fill:#803300;fill-opacity:1;stroke:none" id="rect14026" width="30" height="2.266" x="185.375" y="475.928"/></g><g id="g14094" transform="matrix(3.9333348,0,0,3.9333348,-869.52462,-874.5388)"><path style="fill:url(#linearGradient8058);fill-opacity:1" id="path14042" d="m 212.51319,459.86121 -4.03766,4.06785 -2.42259,-2.44152 4.03765,-4.06787 2.4226,2.44154 z"/><path style="fill:#fff;fill-opacity:1" id="path14082" d="m 208.40628,464.00436 -2.44213,0.004 0,-2.44073 0.16755,-0.15227 0.18321,0.30295 0.19709,0.0736 0.0976,0.26697 0.25493,0.0821 0.12243,0.23652 0.20782,0.0905 0.13096,0.25592 0.2438,0.11516 0.13085,0.27807 0.33823,0.18639 0.17242,0.27509 0.35798,0.2501 z"/><path style="fill:#000;stroke:none" id="path14092" d="m 205.96093,463.17859 0.85157,0.83203 -0.85156,0.004 z"/></g></g><rect id="rect9678" width="128" height="128" x="0" y="924.362" style="opacity:0;fill:teal;fill-opacity:1;stroke:none;stroke-width:.5;stroke-linecap:round;stroke-linejoin:round;stroke-miterlimit:4;stroke-dasharray:none;stroke-dashoffset:0;stroke-opacity:1"/><g id="g5630" transform="translate(18.5,2.5)"><g id="g3498" transform="matrix(0.94057102,0,0,0.94057102,287.50768,97.787142)"><path id="path3217" d="m -263.35265,933.74757 c 8.46364,9.0621 14.91528,24.09751 16.80551,38.65267" style="fill:#000;fill-opacity:0;fill-rule:evenodd;stroke:url(#linearGradient44667);stroke-width:1.5;stroke-linecap:butt;stroke-linejoin:miter;stroke-miterlimit:4;stroke-dasharray:none;stroke-opacity:1"/><path id="path44010" d="m -237.54657,906.14303 c -14.71669,0 -26.69498,11.97829 -26.69498,26.69498 0,14.71669 11.97829,26.69498 26.69498,26.69498 14.71668,0 26.69497,-11.97829 26.69497,-26.69498 0,-14.71669 -11.97829,-26.69498 -26.69497,-26.69498 z" style="fill:#000;fill-opacity:.50196078;stroke:none;stroke-width:1.33686185;stroke-linecap:square;stroke-linejoin:miter;stroke-miterlimit:4;stroke-dasharray:none;stroke-dashoffset:0;stroke-opacity:1;filter:url(#filter3297)"/><path id="path44012" d="m -237.62978,943.41146 c -21.63445,0 -39.1875,17.34747 -39.1875,38.75 l 0,6.125 c 0,6.05287 6.27536,18.75004 28.90625,18.75004 l 20.53125,0 c 22.63038,0 28.9375,-12.07968 28.9375,-18.75004 l 0,-6.125 c 0,-21.40254 -17.55305,-38.75 -39.1875,-38.75 z" style="fill:#000;fill-opacity:.50196078;stroke:none;stroke-width:1.5;stroke-linecap:square;stroke-linejoin:miter;stroke-miterlimit:4;stroke-dashoffset:0;stroke-opacity:1;filter:url(#filter3293)"/><path id="path44014" d="m -238.37978,942.16146 c -21.63445,0 -39.1875,17.34747 -39.1875,38.75 l 0,6.125 c 0,6.05287 6.27536,18.75004 28.90625,18.75004 l 20.53125,0 c 22.63038,0 28.9375,-12.07968 28.9375,-18.75004 l 0,-6.125 c 0,-21.40254 -17.55305,-38.75 -39.1875,-38.75 z" style="fill:url(#linearGradient44076);fill-opacity:1;stroke:none;stroke-width:1.5;stroke-linecap:square;stroke-linejoin:miter;stroke-miterlimit:4;stroke-dashoffset:0;stroke-opacity:1"/><path id="path44016" d="m -238.37978,944.32217 c -20.11022,0 -36.4266,15.9074 -36.4266,35.53322 l 0,5.61655 c 0,5.55039 5.83324,17.19346 26.8697,17.19346 l 19.08475,0 c 21.03599,0 26.89875,-11.07683 26.89875,-17.19346 l 0,-5.61655 c 0,-19.62582 -16.31638,-35.53322 -36.4266,-35.53322 z" style="fill:url(#radialGradient44073);fill-opacity:1;stroke:none;stroke-width:1.5;stroke-linecap:square;stroke-linejoin:miter;stroke-miterlimit:4;stroke-dashoffset:0;stroke-opacity:1"/><path id="path44018" d="m -220.89335,951.63335 c 8.46364,9.0621 14.91528,24.09751 16.80551,38.65267" style="fill:#000;fill-opacity:0;fill-rule:evenodd;stroke:url(#linearGradient44070);stroke-width:1.5;stroke-linecap:butt;stroke-linejoin:miter;stroke-miterlimit:4;stroke-dasharray:none;stroke-opacity:1"/><path id="path44020" d="m -255.70476,951.63335 c -8.46364,9.0621 -14.91528,24.09751 -16.80551,38.65267" style="fill:#000;fill-opacity:0;fill-rule:evenodd;stroke:url(#linearGradient44067);stroke-width:1.5;stroke-linecap:butt;stroke-linejoin:miter;stroke-miterlimit:4;stroke-dasharray:none;stroke-opacity:1"/><path id="path44022" d="m -245.07157,955.83473 c -2.3027,1.97418 -4.96223,3.5307 -3.72122,8.28271 -5.66073,-1.14662 -9.94971,-8.89011 -6.36208,-14.40472 l 10.0833,6.12201 z" style="fill:#c5ffbd;fill-opacity:1;fill-rule:evenodd;stroke:url(#linearGradient44613);stroke-width:1px;stroke-linecap:butt;stroke-linejoin:miter;stroke-opacity:1"/><path id="path44024" d="m -36.972118,84.910487 -5.409768,-9.369991 10.819535,-10e-7 -5.409767,9.369992 z" transform="matrix(1.1784451,0,0,0.9316118,-194.72944,886.86434)" style="fill:url(#linearGradient44691);fill-opacity:1;stroke:none;stroke-width:.85552669;stroke-linecap:square;stroke-linejoin:miter;stroke-miterlimit:4;stroke-dasharray:none;stroke-dashoffset:0;stroke-opacity:1"/><path id="path44028" d="m -254.93334,950.41537 9,5.46875 c -0.98816,0.81483 -2.01362,1.64574 -2.75,2.78125 -0.74928,1.1554 -0.98341,2.74156 -0.65625,4.71875 -2.36917,-0.72853 -4.49352,-2.64468 -5.65625,-5.0625 -1.20326,-2.5021 -1.34831,-5.40312 0.0625,-7.90625 z" style="fill:url(#radialGradient44061);fill-opacity:1;fill-rule:evenodd;stroke:none;stroke-width:1px;stroke-linecap:butt;stroke-linejoin:miter;stroke-opacity:1"/><path id="path44621" d="m -231.86267,955.83473 c 2.3027,1.97418 4.96223,3.5307 3.72122,8.28271 5.66073,-1.14662 9.94971,-8.89011 6.36208,-14.40472 l -10.0833,6.12201 z" style="fill:#9dcfff;fill-opacity:1;fill-rule:evenodd;stroke:url(#linearGradient44625);stroke-width:1px;stroke-linecap:butt;stroke-linejoin:miter;stroke-opacity:1"/><path id="path44030" d="m 76.945221,64.499184 a 17.165627,17.165627 0 1 1 -34.331253,0 17.165627,17.165627 0 1 1 34.331253,0 z" transform="matrix(1.4960409,0,0,1.4960409,-327.73177,835.09337)" style="fill:url(#radialGradient44048);fill-opacity:1;stroke:url(#linearGradient44677);stroke-width:1.33686185;stroke-linecap:square;stroke-linejoin:miter;stroke-miterlimit:4;stroke-dasharray:none;stroke-dashoffset:0;stroke-opacity:1"/></g><path style="fill:#283a4d;fill-opacity:1;fill-rule:evenodd;stroke:none;stroke-width:.30000001;stroke-linecap:butt;stroke-linejoin:miter;stroke-miterlimit:4;stroke-dasharray:none;stroke-opacity:1" id="path4416" d="m 42.206136,947.07362 0.07842,13.01555 c 1.576376,7.77927 13.985867,12.25665 20.933922,12.73841 6.608646,-0.53901 19.985403,-5.34264 21.170717,-12.73841 l 0,-13.01555 z"/><path style="fill:#5d6d7e;fill-opacity:1;fill-rule:evenodd;stroke:none;stroke-width:.2;stroke-linecap:butt;stroke-linejoin:miter;stroke-miterlimit:4;stroke-dasharray:none;stroke-opacity:1" id="path4418" d="m 63.25832,968.36117 c 10.638013,-1.08172 17.706165,-5.11247 21.130735,-12.15312 l -0.03917,-9.13443 -42.143612,0.0387 0.05664,9.4092 c 4.494599,8.48057 12.720675,10.20414 20.995402,11.83962 z"/><path style="fill:#283a4d;fill-opacity:1;fill-rule:evenodd;stroke:none;stroke-width:.40000001;stroke-linecap:butt;stroke-linejoin:miter;stroke-miterlimit:4;stroke-dasharray:none;stroke-opacity:1" id="path4414" d="m 20.030101,942.062 43.466709,17.40885 43.02316,-17.51974 c 0,0 -43.02316,-17.29798 -43.466701,-17.18709 -0.443541,0.11089 -43.023168,17.29798 -43.023168,17.29798 z"/><path style="fill:url(#linearGradient4800);fill-opacity:1;fill-rule:evenodd;stroke:none;stroke-width:.2;stroke-linecap:butt;stroke-linejoin:miter;stroke-miterlimit:4;stroke-dasharray:none;stroke-opacity:1" id="path4420" d="m 25.488025,944.2398 24.828679,-9.48691 4.842688,1.56046 -25.035601,9.79737 z"/><path style="fill:#f60;fill-opacity:1;fill-rule:evenodd;stroke:none;stroke-width:.2;stroke-linecap:butt;stroke-linejoin:miter;stroke-miterlimit:4;stroke-dasharray:none;stroke-opacity:1" id="path4422" d="m 30.130808,946.11449 -0.157252,19.42635 -2.15836,-2.21181 -2.398569,1.3671 0.04634,-20.45974 z"/></g><rect id="rect5669" width="128" height="128" x="0" y="924.362" style="opacity:.36960012;fill:#000b1c;fill-opacity:0;stroke:none;stroke-width:1.66299999;stroke-linecap:round;stroke-linejoin:round;stroke-miterlimit:4;stroke-dasharray:none;stroke-dashoffset:0;stroke-opacity:1"/></g></g></svg>