<svg xmlns="http://www.w3.org/2000/svg" xmlns:svg="http://www.w3.org/2000/svg" style="overflow:visible" id="svg4655" width="128" height="128" version="1.1" viewBox="0 0 128 128" xml:space="preserve"><metadata id="metadata158"/><g id="Layer_1" transform="translate(0,290.13333)" style="stroke:#000"><linearGradient id="XMLID_1_" x1="129" x2="129" y1="11" y2="245" gradientUnits="userSpaceOnUse"><stop style="stop-color:#494949" id="stop4661" offset="0"/><stop style="stop-color:#000" id="stop4662" offset="1"/></linearGradient><linearGradient id="XMLID_2_" x1="29.053" x2="226.947" y1="29.053" y2="226.947" gradientUnits="userSpaceOnUse"><stop style="stop-color:#fff" id="stop4669" offset="0"/><stop style="stop-color:#dadada" id="stop4670" offset="1"/></linearGradient><linearGradient id="XMLID_6_" x1="146.317" x2="146.317" y1="196.336" y2="80.203" gradientUnits="userSpaceOnUse"><stop style="stop-color:#f8310e" id="stop4710" offset="0"/><stop style="stop-color:#eb2109" id="stop4711" offset=".25"/><stop style="stop-color:#d60903" id="stop4712" offset=".714"/><stop style="stop-color:#cf0000" id="stop4713" offset="1"/></linearGradient><linearGradient id="XMLID_7_" x1="146.317" x2="146.317" y1="193.164" y2="83.376" gradientUnits="userSpaceOnUse"><stop style="stop-color:#fff030" id="stop4719" offset="0"/><stop style="stop-color:#fff030" id="stop4720" offset=".004"/><stop style="stop-color:#ffc816" id="stop4721" offset=".44"/><stop style="stop-color:#ffb006" id="stop4722" offset=".787"/><stop style="stop-color:#ffa700" id="stop4723" offset="1"/></linearGradient><linearGradient id="XMLID_8_" x1="146.318" x2="146.318" y1="83.375" y2="193.165" gradientUnits="userSpaceOnUse"><stop style="stop-color:#fff030" id="stop4729" offset="0"/><stop style="stop-color:#fff030" id="stop4730" offset=".004"/><stop style="stop-color:#ffc816" id="stop4731" offset=".44"/><stop style="stop-color:#ffb006" id="stop4732" offset=".787"/><stop style="stop-color:#ffa700" id="stop4733" offset="1"/></linearGradient><linearGradient id="XMLID_9_" x1="146.317" x2="146.317" y1="85.914" y2="138.495" gradientUnits="userSpaceOnUse"><stop style="stop-color:#fff" id="stop4739" offset="0"/><stop style="stop-color:#ff0" id="stop4740" offset="1"/></linearGradient><linearGradient id="XMLID_10_" x1="107.145" x2="107.145" y1="173.26" y2="57.126" gradientUnits="userSpaceOnUse"><stop style="stop-color:#060" id="stop4748" offset="0"/><stop style="stop-color:#006100" id="stop4749" offset=".282"/><stop style="stop-color:#005800" id="stop4750" offset="1"/></linearGradient><linearGradient id="XMLID_11_" x1="107.144" x2="107.144" y1="170.086" y2="60.298" gradientUnits="userSpaceOnUse"><stop style="stop-color:#3c3" id="stop4756" offset="0"/><stop style="stop-color:#9f6" id="stop4757" offset=".298"/><stop style="stop-color:#80ee55" id="stop4758" offset=".386"/><stop style="stop-color:#49ca31" id="stop4759" offset=".593"/><stop style="stop-color:#21af16" id="stop4760" offset=".772"/><stop style="stop-color:#099f06" id="stop4761" offset=".913"/><stop style="stop-color:#090" id="stop4762" offset="1"/></linearGradient><linearGradient id="XMLID_12_" x1="107.144" x2="107.144" y1="60.298" y2="170.086" gradientUnits="userSpaceOnUse"><stop style="stop-color:#3c3" id="stop4770" offset="0"/><stop style="stop-color:#090" id="stop4771" offset="1"/></linearGradient><linearGradient id="XMLID_13_" x1="107.144" x2="107.144" y1="62.836" y2="115.418" gradientUnits="userSpaceOnUse"><stop style="stop-color:#fff" id="stop4777" offset="0"/><stop style="stop-color:#3c3" id="stop4778" offset="1"/></linearGradient><g id="g4286" transform="matrix(1.3920299,0,0,1.3920299,-47.099352,-47.685301)"><g id="g4281" transform="matrix(0.50000001,0,0,0.50000001,16.917507,-191.29667)"><path id="path4675" d="M 256,256 0,256 0,0 l 256,0 0,256 z" transform="matrix(0.71837536,0,0,0.71837536,33.835015,34.255947)" style="overflow:visible;fill:none;stroke:none"/><g id="g4676"><path style="opacity:.2;stroke:none" id="path4677" d="m 74.971,70.494 c -6.642,0 -12.045,5.402 -12.045,12.045 l 0,92.045 c 0,6.641 5.403,12.044 12.045,12.044 l 109.234,0 c 6.642,0 12.045,-5.403 12.045,-12.044 l 0,-92.045 c 0,-6.643 -5.403,-12.045 -12.045,-12.045 l -109.234,0 z"/><path style="opacity:.2;stroke:none" id="path4678" d="m 73.702,69.225 c -6.643,0 -12.045,5.403 -12.045,12.045 l 0,92.045 c 0,6.642 5.403,12.045 12.045,12.045 l 109.233,0 c 6.643,0 12.045,-5.403 12.045,-12.045 l 0,-92.045 c 0,-6.642 -5.402,-12.045 -12.045,-12.045 l -109.233,0 z"/><linearGradient id="XMLID_3_" x1="127.049" x2="127.049" y1="184.09" y2="67.956" gradientUnits="userSpaceOnUse"><stop style="stop-color:#034cfe" id="stop4680" offset="0"/><stop style="stop-color:#0231d6" id="stop4681" offset=".278"/><stop style="stop-color:#0116ae" id="stop4682" offset=".594"/><stop style="stop-color:#000696" id="stop4683" offset=".846"/><stop style="stop-color:#00008d" id="stop4684" offset="1"/></linearGradient><path style="fill:url(#XMLID_3_);stroke:none" id="path4688" d="M 72.433,67.955 C 65.79,67.955 60.388,73.358 60.388,80 l 0,92.046 c 0,6.641 5.402,12.044 12.045,12.044 l 109.233,0 c 6.643,0 12.045,-5.403 12.045,-12.044 l 0,-92.046 c 0,-6.642 -5.402,-12.045 -12.045,-12.045 l -109.233,0 z"/><linearGradient id="XMLID_4_" x1="127.05" x2="127.05" y1="180.917" y2="71.128" gradientUnits="userSpaceOnUse"><stop style="stop-color:#94caff" id="stop4690" offset="0"/><stop style="stop-color:#80bdff" id="stop4691" offset=".104"/><stop style="stop-color:#499bff" id="stop4692" offset=".406"/><stop style="stop-color:#2182ff" id="stop4693" offset=".667"/><stop style="stop-color:#0973ff" id="stop4694" offset=".873"/><stop style="stop-color:#006dff" id="stop4695" offset="1"/></linearGradient><path style="fill:url(#XMLID_4_);stroke:none" id="path4699" d="m 190.539,172.046 c 0,4.899 -3.973,8.871 -8.873,8.871 l -109.233,0 c -4.9,0 -8.873,-3.972 -8.873,-8.871 L 63.56,80 c 0,-4.899 3.973,-8.872 8.873,-8.872 l 109.233,0 c 4.9,0 8.873,3.973 8.873,8.872 l 0,92.046 z"/><linearGradient id="XMLID_5_" x1="127.049" x2="127.049" y1="73.667" y2="126.248" gradientUnits="userSpaceOnUse"><stop style="stop-color:#fff" id="stop4701" offset="0"/><stop style="stop-color:#57adff" id="stop4702" offset="1"/></linearGradient><path style="fill:url(#XMLID_5_);stroke:none" id="path4706" d="M 96.561,119.359 C 123.178,97.371 160.872,93.326 188,110.58 L 188,80 c 0,-3.492 -2.841,-6.333 -6.334,-6.333 l -109.233,0 c -3.493,0 -6.334,2.841 -6.334,6.333 l 0,45.146 c 10.736,2.505 22.032,0.958 30.462,-5.787 z"/></g><path style="opacity:.2;stroke:none" id="path4707" d="m 94.239,82.74 c -6.643,0 -12.045,5.402 -12.045,12.045 l 0,92.045 c 0,6.641 5.403,12.045 12.045,12.045 l 109.233,0 c 6.643,0 12.045,-5.404 12.045,-12.045 l 0,-92.045 c 0,-6.643 -5.402,-12.045 -12.045,-12.045 l -109.233,0 z"/><path style="opacity:.2;stroke:none" id="path4708" d="m 92.97,81.472 c -6.643,0 -12.045,5.402 -12.045,12.044 l 0,92.045 c 0,6.642 5.402,12.045 12.045,12.045 l 109.233,0 c 6.643,0 12.045,-5.403 12.045,-12.045 l 0,-92.045 c 0,-6.642 -5.402,-12.044 -12.045,-12.044 l -109.233,0 z"/><path style="fill:url(#XMLID_6_);stroke:none" id="path4717" d="m 91.701,80.202 c -6.642,0 -12.045,5.402 -12.045,12.045 l 0,92.045 c 0,6.642 5.403,12.044 12.045,12.044 l 109.233,0 c 6.643,0 12.046,-5.402 12.046,-12.044 l 0,-92.045 c 0,-6.643 -5.403,-12.045 -12.046,-12.045 l -109.233,0 z"/><path style="fill:url(#XMLID_7_);stroke:none" id="path4727" d="m 209.807,184.292 c 0,4.899 -3.973,8.872 -8.873,8.872 l -109.233,0 c -4.9,0 -8.872,-3.973 -8.872,-8.872 l 0,-92.045 c 0,-4.899 3.972,-8.872 8.872,-8.872 l 109.233,0 c 4.9,0 8.873,3.973 8.873,8.872 l 0,92.045 z"/><path style="fill:url(#XMLID_8_);stroke:none" id="path4737" d="m 200.934,83.375 -2.611,0 c 4.665,0 8.448,3.782 8.448,8.447 l 0,87.644 c 0,4.665 -3.783,8.448 -8.448,8.448 l -104.01,0 c -4.666,0 -8.448,-3.783 -8.448,-8.448 l 0,-87.644 c 0,-4.665 3.783,-8.447 8.448,-8.447 l -2.612,0 c -4.9,0 -8.872,3.973 -8.872,8.872 l 0,92.045 c 0,4.899 3.972,8.872 8.872,8.872 l 109.233,0 c 4.9,0 8.873,-3.973 8.873,-8.872 l 0,-92.045 c 0,-4.899 -3.973,-8.872 -8.873,-8.872 z"/><path style="fill:url(#XMLID_9_);stroke:none" id="path4744" d="m 115.829,131.605 c 26.617,-21.988 64.31,-26.033 91.439,-8.779 l 0,-30.579 c 0,-3.492 -2.841,-6.333 -6.334,-6.333 l -109.233,0 c -3.493,0 -6.334,2.841 -6.334,6.333 l 0,45.146 c 10.736,2.505 22.032,0.957 30.462,-5.788 z"/><path style="opacity:.2;stroke:none" id="path4745" d="m 55.066,59.664 c -6.642,0 -12.045,5.402 -12.045,12.044 l 0,92.045 c 0,6.642 5.404,12.045 12.045,12.045 l 109.234,0 c 6.642,0 12.044,-5.403 12.044,-12.045 l 0,-92.045 c 0,-6.642 -5.402,-12.044 -12.044,-12.044 l -109.234,0 z"/><path style="opacity:.2;stroke:none" id="path4746" d="m 53.796,58.395 c -6.642,0 -12.045,5.402 -12.045,12.045 l 0,92.045 c 0,6.641 5.403,12.044 12.045,12.044 l 109.234,0 c 6.643,0 12.046,-5.403 12.046,-12.044 l 0,-92.046 c 0,-6.643 -5.403,-12.045 -12.046,-12.045 l -109.234,0 z"/><path style="fill:#0a0;stroke:none" id="path4754" d="m 52.527,57.125 c -6.642,0 -12.045,5.403 -12.045,12.045 l 0,92.045 c 0,6.642 5.403,12.045 12.045,12.045 l 109.233,0 c 6.643,0 12.046,-5.403 12.046,-12.045 l 0,-92.045 c 0,-6.642 -5.403,-12.045 -12.046,-12.045 l -109.233,0 z"/><path style="fill:url(#XMLID_12_);stroke:none" id="path4775" d="m 161.761,60.298 -2.238,0 c 4.698,0 8.508,3.81 8.508,8.508 l 0,88.272 c 0,4.699 -3.81,8.508 -8.508,8.508 l -104.757,0 c -4.699,0 -8.508,-3.809 -8.508,-8.508 l 0,-88.272 c 0,-4.698 3.809,-8.508 8.508,-8.508 l -2.238,0 c -4.899,0 -8.872,3.973 -8.872,8.872 l 0,92.045 c 0,4.899 3.973,8.871 8.872,8.871 l 109.233,0 c 4.899,0 8.872,-3.972 8.872,-8.871 l 0,-92.045 c 0,-4.899 -3.973,-8.872 -8.872,-8.872 z"/><path style="fill:url(#XMLID_13_);stroke:none" id="path4782" d="m 76.655,108.528 c 26.617,-21.987 64.311,-26.033 91.438,-8.778 l 0,-30.58 c 0,-3.492 -2.84,-6.334 -6.333,-6.334 l -109.233,0 c -3.492,0 -6.333,2.842 -6.333,6.334 l 0,45.146 c 10.736,2.505 22.032,0.956 30.461,-5.788 z"/><g id="g4783"><path style="opacity:.2;stroke:none" id="path4784" d="m 76.393,75.649 c -2.084,0 -3.782,1.696 -3.782,3.781 l 0,3.067 c 0,1.251 0.65,2.385 1.682,3.086 0,0.629 0,48.555 0,48.555 0,1.183 0.962,2.145 2.146,2.145 0,0 26.573,0 27.786,0 0,0.922 0,3.985 0,4.551 -0.623,0.354 -19.688,11.157 -19.688,11.157 -0.671,0.38 -1.088,1.095 -1.088,1.867 l 0.071,0.547 c 0.249,0.941 1.102,1.599 2.076,1.599 l 7.042,0 c 0.459,0 0.915,-0.151 1.284,-0.427 0,0 9.125,-6.809 11.157,-8.325 0.374,0.311 0.804,0.536 1.293,0.536 l 2.817,0 c 0.489,0 0.917,-0.226 1.292,-0.536 0.775,0.577 11.158,8.326 11.158,8.326 0.374,0.279 0.818,0.426 1.284,0.426 l 7.041,0 c 0.974,0 1.827,-0.657 2.076,-1.598 0,-0.003 0.071,-0.548 0.071,-0.548 0,-0.771 -0.417,-1.487 -1.089,-1.867 0,0 -17.204,-9.749 -19.688,-11.156 0,-0.565 0,-3.63 0,-4.552 1.213,0 27.785,0 27.785,0 1.184,0 2.146,-0.962 2.146,-2.145 0,0 0,-47.926 0,-48.555 1.032,-0.701 1.682,-1.835 1.682,-3.086 l 0,-3.067 c 0,-2.085 -1.696,-3.781 -3.781,-3.781 l -62.773,0 z"/><path style="opacity:.2;stroke:none" id="path4785" d="m 75.758,75.016 c -2.085,0 -3.782,1.695 -3.782,3.78 l 0,3.068 c 0,1.25 0.649,2.383 1.682,3.085 0,0.63 0,48.555 0,48.555 0,1.184 0.962,2.146 2.146,2.146 0,0 26.574,0 27.786,0 0,0.921 0,3.985 0,4.55 -0.623,0.354 -19.688,11.158 -19.688,11.158 -0.671,0.379 -1.088,1.095 -1.088,1.865 l 0.071,0.548 c 0.249,0.941 1.102,1.6 2.076,1.6 l 7.042,0 c 0.459,0 0.915,-0.152 1.284,-0.427 0,0 9.125,-6.809 11.157,-8.326 0.375,0.311 0.804,0.535 1.293,0.535 l 2.817,0 c 0.488,0 0.917,-0.225 1.292,-0.535 0.774,0.577 11.158,8.326 11.158,8.326 0.374,0.278 0.818,0.427 1.284,0.427 l 7.041,0 c 0.973,0 1.827,-0.658 2.076,-1.599 0,-0.003 0.071,-0.549 0.071,-0.549 0,-0.77 -0.417,-1.486 -1.089,-1.865 0,0 -17.204,-9.75 -19.688,-11.157 0,-0.565 0,-3.63 0,-4.551 1.213,0 27.785,0 27.785,0 1.184,0 2.146,-0.962 2.146,-2.146 0,0 0,-47.925 0,-48.555 1.032,-0.702 1.683,-1.835 1.683,-3.085 l 0,-3.068 c 0,-2.085 -1.697,-3.78 -3.781,-3.78 l -62.774,0 z"/><linearGradient id="XMLID_14_" x1="73.097" x2="140.053" y1="142.827" y2="75.871" gradientUnits="userSpaceOnUse"><stop style="stop-color:#494949" id="stop4787" offset="0"/><stop style="stop-color:#7d7d99" id="stop4788" offset="1"/></linearGradient><path style="fill:url(#XMLID_14_);stroke:none" id="path4792" d="m 75.124,74.38 c -2.085,0 -3.782,1.696 -3.782,3.782 l 0,3.066 c 0,1.252 0.649,2.385 1.682,3.086 0,0.629 0,48.555 0,48.555 0,1.183 0.963,2.146 2.146,2.146 0,0 26.573,0 27.786,0 0,0.921 0,3.985 0,4.55 -0.623,0.354 -19.688,11.157 -19.688,11.157 -0.67,0.38 -1.088,1.095 -1.088,1.867 l 0.071,0.547 c 0.248,0.941 1.102,1.599 2.075,1.599 l 7.043,0 c 0.459,0 0.915,-0.151 1.283,-0.427 0,0 9.125,-6.809 11.157,-8.325 0.375,0.312 0.805,0.536 1.293,0.536 l 2.817,0 c 0.488,0 0.917,-0.225 1.292,-0.536 0.774,0.577 11.158,8.326 11.158,8.326 0.374,0.279 0.818,0.426 1.284,0.426 l 7.042,0 c 0.973,0 1.827,-0.657 2.075,-1.598 0,-0.003 0.07,-0.548 0.07,-0.548 0,-0.771 -0.416,-1.487 -1.088,-1.867 0,0 -17.204,-9.749 -19.688,-11.156 0,-0.565 0,-3.63 0,-4.551 1.214,0 27.785,0 27.785,0 1.185,0 2.146,-0.963 2.146,-2.146 0,0 0,-47.926 0,-48.555 1.032,-0.701 1.682,-1.834 1.682,-3.086 l 0,-3.066 c 0,-2.086 -1.697,-3.782 -3.782,-3.782 l -62.771,0 z"/><linearGradient id="XMLID_15_" x1="72.938" x2="140.084" y1="143.048" y2="75.902" gradientUnits="userSpaceOnUse"><stop style="stop-color:#494949" id="stop4794" offset="0"/><stop style="stop-color:#00008d" id="stop4795" offset="1"/></linearGradient><path style="fill:url(#XMLID_15_);stroke:none" id="path4799" d="m 75.124,75.016 c -1.735,0 -3.147,1.411 -3.147,3.146 l 0,3.066 c 0,1.204 0.687,2.238 1.682,2.769 0,2.162 0,48.872 0,48.872 0,0.835 0.676,1.511 1.511,1.511 0,0 25.695,0 28.42,0 0,1.711 0,4.46 0,5.555 -1.421,0.806 -20.01,11.34 -20.01,11.34 -0.481,0.272 -0.766,0.78 -0.766,1.314 0,0.128 0.017,0.257 0.051,0.386 0.175,0.663 0.774,1.126 1.461,1.126 l 7.043,0 c 0.325,0 0.642,-0.105 0.903,-0.301 0,0 8.505,-6.348 11.573,-8.637 0.269,0.423 0.719,0.721 1.257,0.721 l 2.817,0 c 0.538,0 0.988,-0.298 1.256,-0.721 3.068,2.289 11.573,8.637 11.573,8.637 0.261,0.195 0.579,0.301 0.905,0.301 l 7.042,0 c 0.687,0 1.286,-0.463 1.462,-1.126 0.033,-0.129 0.05,-0.258 0.05,-0.386 0,-0.534 -0.285,-1.042 -0.767,-1.314 0,0 -18.588,-10.534 -20.01,-11.339 0,-1.095 0,-3.845 0,-5.556 2.725,0 28.42,0 28.42,0 0.834,0 1.511,-0.676 1.511,-1.511 0,0 0,-46.71 0,-48.872 0.995,-0.53 1.683,-1.564 1.683,-2.769 l 0,-3.066 c 0,-1.735 -1.412,-3.146 -3.147,-3.146 l -62.773,0 z"/><path style="fill:#bebebe;stroke:none" id="path4800" d="m 137.896,76.527 -62.772,0 c -0.904,0 -1.635,0.732 -1.635,1.635 l 0,3.066 c 0,0.904 0.731,1.636 1.635,1.636 l 0.046,0 0,50.005 29.932,0 0,7.946 -20.776,11.773 7.043,0 13.733,-10.249 0,2.033 2.817,0 0,-2.033 13.733,10.249 7.042,0 -20.775,-11.772 0,-7.947 29.931,0 0,-50.005 0.046,0 c 0.904,0 1.635,-0.731 1.635,-1.636 l 0,-3.066 C 139.53,77.26 138.8,76.527 137.896,76.527 Z"/><path style="fill:#bebebe;stroke:none" id="path4801" d="m 139.53,81.229 c 0,0.904 -0.73,1.636 -1.635,1.636 l -62.771,0 c -0.904,0 -1.635,-0.731 -1.635,-1.636 l 0,-3.066 c 0,-0.902 0.731,-1.635 1.635,-1.635 l 62.772,0 c 0.904,0 1.635,0.732 1.635,1.635 l 0,3.066 z"/><path style="fill:#bebebe;stroke:none" id="path4802" d="m 137.85,132.869 -62.68,0 0,-51.178 62.68,0 0,51.178 z"/><g id="g4803"><path style="fill:#bebebe;stroke:none" id="path4804" d="m 105.454,140.616 -21.128,11.973 7.043,0 15.729,-11.737 -1.644,-0.236 z"/><path style="fill:#bebebe;stroke:none" id="path4805" d="m 107.566,140.616 21.128,11.973 -7.042,0 -15.729,-11.737 1.643,-0.236 z"/></g><path style="fill:#bebebe;stroke:none" id="path4806" d="m 107.919,144.373 -2.817,0 0,-15.261 2.817,0 0,15.261 z"/><g id="g4807"><radialGradient id="XMLID_16_" cx="106.721" cy="143.355" r="14.607" fx="106.721" fy="143.355" gradientUnits="userSpaceOnUse"><stop style="stop-color:#cecedb" id="stop4809" offset="0"/><stop style="stop-color:#b1b1c5" id="stop4810" offset=".337"/><stop style="stop-color:#ababc0" id="stop4811" offset=".506"/><stop style="stop-color:#9b9bb2" id="stop4812" offset=".727"/><stop style="stop-color:#80809b" id="stop4813" offset=".977"/><stop style="stop-color:#7d7d99" id="stop4814" offset="1"/></radialGradient><path style="fill:url(#XMLID_16_);stroke:none" id="path4820" d="m 105.454,140.616 -21.128,11.973 7.043,0 15.729,-11.737 -1.644,-0.236 z"/><radialGradient id="XMLID_17_" cx="106.72" cy="143.355" r="14.608" fx="106.72" fy="143.355" gradientUnits="userSpaceOnUse"><stop style="stop-color:#cecedb" id="stop4822" offset="0"/><stop style="stop-color:#b1b1c5" id="stop4823" offset=".337"/><stop style="stop-color:#ababc0" id="stop4824" offset=".506"/><stop style="stop-color:#9b9bb2" id="stop4825" offset=".727"/><stop style="stop-color:#80809b" id="stop4826" offset=".977"/><stop style="stop-color:#7d7d99" id="stop4827" offset="1"/></radialGradient><path style="fill:url(#XMLID_17_);stroke:none" id="path4833" d="m 107.566,140.616 21.128,11.973 -7.042,0 -15.729,-11.737 1.643,-0.236 z"/></g><linearGradient id="XMLID_18_" x1="106.51" x2="106.51" y1="140.616" y2="152.589" gradientUnits="userSpaceOnUse"><stop style="stop-color:#fff" id="stop4835" offset=".039"/><stop style="stop-color:#cecedb" id="stop4836" offset=".258"/><stop style="stop-color:#b1b1c5" id="stop4837" offset="1"/></linearGradient><path style="fill:url(#XMLID_18_);stroke:none" id="path4843" d="m 106.51,141.289 2.062,1.539 1.373,-0.196 17.572,9.957 1.178,0 -21.128,-11.973 -1.056,0.15 0.587,0.085 -0.588,0.438 z m -3.435,1.343 1.373,0.196 2.062,-1.539 -0.586,-0.438 0.586,-0.085 -1.056,-0.15 -21.128,11.973 1.178,0 17.571,-9.957 z"/><linearGradient id="XMLID_19_" x1="107.919" x2="105.102" y1="136.743" y2="136.743" gradientUnits="userSpaceOnUse"><stop style="stop-color:#7d7d99" id="stop4845" offset="0"/><stop style="stop-color:#cecedb" id="stop4846" offset="1"/></linearGradient><path style="fill:url(#XMLID_19_);stroke:none" id="path4850" d="m 107.919,144.373 -2.817,0 0,-15.261 2.817,0 0,15.261 z"/><path style="opacity:.2;stroke:none" id="path4851" d="m 105.102,133.373 2.817,0 0,-4.261 -2.817,0 0,4.261 z"/><path style="opacity:.2;stroke:none" id="path4852" d="m 105.102,133.877 2.817,0 0,-4.765 -2.817,0 0,4.765 z"/><path style="fill:#fff;stroke:none" id="path4853" d="m 137.85,132.869 -62.68,0 0,-51.178 62.68,0 0,51.178 z"/><linearGradient id="XMLID_20_" x1="106.51" x2="106.51" y1="132.869" y2="81.692" gradientUnits="userSpaceOnUse"><stop style="stop-color:#fff" id="stop4855" offset="0"/><stop style="stop-color:#fdfdfd" id="stop4856" offset=".453"/><stop style="stop-color:#f6f6f6" id="stop4857" offset=".658"/><stop style="stop-color:#e9e9e9" id="stop4858" offset=".813"/><stop style="stop-color:#d7d7d7" id="stop4859" offset=".942"/><stop style="stop-color:#ccc" id="stop4860" offset="1"/></linearGradient><path style="fill:url(#XMLID_20_);stroke:none" id="path4864" d="m 137.85,132.869 -62.68,0 0,-51.178 62.68,0 0,51.178 z"/><path style="fill:#fff;stroke:none" id="path4865" d="m 77.184,83.706 c 0,3.566 0,43.582 0,47.148 3.65,0 55.002,0 58.651,0 0,-3.566 0,-43.582 0,-47.148 -3.649,0 -55.001,0 -58.651,0 z"/><linearGradient id="XMLID_21_" x1="77.801" x2="135.224" y1="78.572" y2="135.995" gradientUnits="userSpaceOnUse"><stop style="stop-color:#b3b8ff" id="stop4867" offset="0"/><stop style="stop-color:#fff" id="stop4868" offset="1"/></linearGradient><path style="fill:url(#XMLID_21_);stroke:none" id="path4872" d="m 77.184,83.706 c 0,3.566 0,43.582 0,47.148 3.65,0 55.002,0 58.651,0 0,-3.566 0,-43.582 0,-47.148 -3.649,0 -55.001,0 -58.651,0 z"/><path style="opacity:.2;stroke:none" id="path4873" d="m 139.53,82.236 c 0,0.904 -0.73,1.635 -1.635,1.635 l -62.771,0 c -0.904,0 -1.635,-0.73 -1.635,-1.635 l 0,-3.066 c 0,-0.903 0.731,-1.636 1.635,-1.636 l 62.772,0 c 0.904,0 1.635,0.732 1.635,1.636 l 0,3.066 z"/><path style="opacity:.2;stroke:none" id="path4874" d="m 139.53,81.732 c 0,0.903 -0.73,1.636 -1.635,1.636 l -62.771,0 c -0.904,0 -1.635,-0.732 -1.635,-1.636 l 0,-3.067 c 0,-0.902 0.731,-1.635 1.635,-1.635 l 62.772,0 c 0.904,0 1.635,0.732 1.635,1.635 l 0,3.067 z"/><linearGradient id="XMLID_22_" x1="106.509" x2="106.509" y1="82.864" y2="76.527" gradientUnits="userSpaceOnUse"><stop style="stop-color:#039" id="stop4876" offset=".006"/><stop style="stop-color:#006dff" id="stop4877" offset=".382"/><stop style="stop-color:#f0f0f0" id="stop4878" offset="1"/></linearGradient><path style="fill:url(#XMLID_22_);stroke:none" id="path4884" d="m 139.53,81.229 c 0,0.904 -0.73,1.636 -1.635,1.636 l -62.771,0 c -0.904,0 -1.635,-0.731 -1.635,-1.636 l 0,-3.066 c 0,-0.902 0.731,-1.635 1.635,-1.635 l 62.772,0 c 0.904,0 1.635,0.732 1.635,1.635 l 0,3.066 z"/></g></g></g></g></svg>