<svg xmlns="http://www.w3.org/2000/svg" xmlns:svg="http://www.w3.org/2000/svg" xmlns:xlink="http://www.w3.org/1999/xlink" id="svg2" width="128" height="128" version="1.1" viewBox="0 0 128 128"><metadata id="metadata18"/><defs id="defs16"><linearGradient id="linearGradient8060" x1="198.333" x2="198.333" y1="420.259" y2="413.009" gradientTransform="translate(14.97776,8.4308941)" gradientUnits="userSpaceOnUse" xlink:href="#linearGradient6400"/><linearGradient id="linearGradient6400"><stop id="stop6402" offset="0" style="stop-color:#a85c25;stop-opacity:1"/><stop id="stop6404" offset="1" style="stop-color:#e7b870;stop-opacity:1"/></linearGradient></defs><g id="g12247" transform="matrix(4.2666667,0,0,4.2666667,-787.79818,-1378.2702)"><g id="g7212" transform="matrix(0.93053805,0,0,0.93053805,-0.28308145,-66.741667)"><path id="path12360" d="m 210.06215,419.95277 c -0.85173,0 -1.5354,0.68924 -1.5354,1.54794 l 0,8.00723 c 0,0.83227 0.64443,1.52629 1.45957,1.56704 l 0,-7.5868 c 0,-0.91626 0.7403,-1.6626 1.64914,-1.6626 l 6.35011,0 c 0.90881,0 1.64913,0.74634 1.64913,1.6626 l 0,7.5868 c 0.81515,-0.0407 1.45958,-0.73477 1.45958,-1.56704 l 0,-8.00723 c 0,-0.8587 -0.68366,-1.54794 -1.53542,-1.54794 l -9.49672,0 z" style="fill:#b9692b;fill-opacity:1;stroke:#8b451a;stroke-width:.30000001;stroke-miterlimit:4;stroke-dasharray:none;stroke-opacity:1"/><rect id="rect12362" width="28.382" height="17.56" x="200.619" y="432.393" ry="3.408" style="fill:#9b5221;fill-opacity:1;stroke:#8b451a;stroke-width:.30000001;stroke-miterlimit:4;stroke-dasharray:none;stroke-opacity:1"/><path id="path12364" d="m 200.58177,432.83205 28.45748,1.32112 -0.0665,2.16727 c -7.71231,5.01415 -21.50848,5.13726 -28.3889,0.0615 z" style="fill:#fff;fill-opacity:1;stroke:none"/><path id="path12366" d="m 203.995,425.24708 21.63103,0 c 2.3182,0 4.18448,1.94291 4.18448,4.35631 l 0,5.02762 c -6.13187,4.67274 -22.58906,5.95817 -30,0 l 0,-5.02762 c 0,-2.4134 1.86628,-4.35631 4.18449,-4.35631 z" style="fill:url(#linearGradient8060);fill-opacity:1;stroke:#8b451a;stroke-width:.30000001;stroke-miterlimit:4;stroke-dasharray:none;stroke-opacity:1"/><rect id="rect12374" width="3.603" height="6.375" x="213.009" y="435.477" ry="1.049" style="fill:#fff;fill-opacity:1;stroke:none"/><rect style="fill:#733312;fill-opacity:1;stroke:none" id="rect12376" width="2.581" height="5.152" x="213.52" y="436.089" ry=".848"/><g id="g12378" transform="matrix(0.60657724,0,0,0.61153073,60.656239,180.39945)"><rect style="fill:#fff;fill-opacity:1;stroke:none" id="rect12380" width="5.529" height="1.286" x="251.374" y="410.374" ry=".391"/><rect id="rect12382" width="5.529" height="1.286" x="251.374" y="412.403" ry=".391" style="fill:#fff;fill-opacity:1;stroke:none"/><rect style="fill:#fff;fill-opacity:1;stroke:none" id="rect12384" width="5.529" height="1.286" x="251.374" y="414.433" ry=".391"/></g></g></g></svg>