<svg xmlns="http://www.w3.org/2000/svg" xmlns:svg="http://www.w3.org/2000/svg" xmlns:xlink="http://www.w3.org/1999/xlink" id="svg2" width="128" height="128" version="1.1" viewBox="0 0 128 128"><metadata id="metadata18"/><defs id="defs16"><linearGradient id="linearGradient8070" x1="226.175" x2="242.604" y1="145.962" y2="145.962" gradientTransform="matrix(1.0740912,0,0,1.148154,-50.278719,-28.242967)" gradientUnits="userSpaceOnUse" xlink:href="#linearGradient10516"/><linearGradient id="linearGradient10516"><stop style="stop-color:#803300;stop-opacity:1" id="stop10518" offset="0"/><stop style="stop-color:#c87137;stop-opacity:1" id="stop10520" offset="1"/></linearGradient></defs><g id="g10580" transform="matrix(6.6586296,0,0,6.6586296,-1277.6454,-887.36382)"><path id="rect10513" d="m 195.97692,141.74572 5.20175,-4.47787 5.98431,4.47787 0,10.0383 -11.18606,0 z" style="fill:#e6e6e6;fill-opacity:.95294118;stroke:none"/><path style="fill:#f6f6f6;fill-opacity:1;stroke:none" id="path10534" d="m 196.72359,142.74689 4.90693,-6.29918 4.60167,6.29918 0,8.28263 -9.5086,0 z"/><path id="path10524" d="m 193.1908,142.3953 1.9334,2.06671 6.49068,-6.83981 6.35258,6.7906 1.79529,-2.21433 -8.19391,-8.41445 z" style="fill:url(#linearGradient8070);fill-opacity:1;stroke:none"/><rect id="rect10536" width="4.281" height="6.84" x="199.324" y="144.813" style="fill:#767676;fill-opacity:1;stroke:none"/><path id="path10538" d="m 192.83698,151.70249 5.45493,0 c 0.6909,-0.68057 0.2345,-3.29641 -1.17384,-2.23894 0.40486,-1.31654 -2.41222,-2.34671 -2.18658,0 -1.272,-0.52104 -3.07078,0.35888 -2.09451,2.23894 z" style="fill:green;stroke:none"/><path style="fill:#4a0;stroke:none" id="path10540" d="m 204.78529,151.72709 5.45493,0 c 0.6909,-0.68056 0.23449,-3.2964 -1.17384,-2.23893 0.40485,-1.31654 -2.41222,-2.34671 -2.18658,0 -1.272,-0.52104 -3.07078,0.35888 -2.09451,2.23893 z"/></g></svg>