<svg xmlns="http://www.w3.org/2000/svg" xmlns:svg="http://www.w3.org/2000/svg" xmlns:xlink="http://www.w3.org/1999/xlink" id="svg2" width="128" height="128" version="1.1" viewBox="0 0 128 128"><metadata id="metadata18"/><defs id="defs16"><linearGradient id="linearGradient8066" x1="246.626" x2="246.817" y1="176.185" y2="160.306" gradientUnits="userSpaceOnUse" xlink:href="#linearGradient11424"/><linearGradient id="linearGradient11424"><stop style="stop-color:#d4e6fd;stop-opacity:1" id="stop11426" offset="0"/><stop style="stop-color:#fafcff;stop-opacity:1" id="stop11428" offset="1"/></linearGradient></defs><g id="g12035" transform="matrix(4.0666682,0,0,4.0666682,-740.36858,-855.87504)"><g id="g11834" transform="translate(-0.5,36.75)"><rect id="rect11836" width="30" height="30" x="183.407" y="174.718" style="opacity:0;fill:#fff;fill-opacity:.99215686;stroke:none"/><g id="g11838" transform="matrix(1.1469033,0,0,1.2102309,-85.775442,-14.264744)"><rect style="fill:#608dcb;fill-opacity:.99215758;stroke:none" id="rect11840" width="26.157" height="18.178" x="234.704" y="159.459"/><rect id="rect11842" width="22.92" height="15.414" x="236.323" y="160.842" style="fill:url(#linearGradient8066);fill-opacity:1;stroke:none"/><g id="g11844" transform="matrix(1,0,0,-1.1994919,0,369.19015)"><path id="path11846" d="m 236.27822,160.83371 0.005,0.76995 11.28421,8.30523 11.69778,-8.19588 0.007,-0.8897 z" style="fill:#608dcb;fill-opacity:.99215686;stroke:none"/><path style="fill:#dceafd;fill-opacity:1;stroke:none" id="path11848" d="m 236.30557,160.83314 11.098,8.11192 11.86863,-8.12175 z"/></g><g id="g11850" transform="matrix(1,0,0,1.1169436,0,-18.807249)"><path style="fill:#608dcb;fill-opacity:.99215686;stroke:none" id="path11852" d="m 236.27822,160.83371 0.005,0.76995 11.28421,8.30523 11.69778,-8.19588 0.007,-0.8897 z"/><path id="path11854" d="m 236.30557,160.83314 11.098,8.11192 11.86863,-8.12175 z" style="fill:#dceafd;fill-opacity:1;stroke:none"/></g></g></g><g id="g11554" transform="matrix(1.6531296,0,0,1.7524986,-205.74823,-76.58206)"><g id="g11545" transform="translate(-17.942835,0.26516504)"><circle id="path11543" cx="258.125" cy="170.987" r="2.125" transform="matrix(0.40441172,0,0,0.40441172,157.93935,107.10358)" style="fill:#ffb380;fill-opacity:.99215686;stroke:none"/><path id="path11537" d="m 258.82318,172.96442 c 1.51122,0.11813 3.15172,0.9604 3.97747,2.43068 l -1.63518,1.5026 c -0.45387,-1.55626 -1.43719,-3.20158 -2.34229,-3.93328 z" style="fill:#275ab8;fill-opacity:.99215686;stroke:none"/><circle style="fill:#ffb380;fill-opacity:.99215686;stroke:none" id="path11541" cx="258.125" cy="170.987" r="2.125" transform="matrix(0.40441172,0,0,0.40441172,150.1581,107.32233)"/><path style="fill:#275ab8;fill-opacity:.99215686;stroke:none" id="path11539" d="m 257.82881,172.96442 c -1.51122,0.11813 -3.15172,0.9604 -3.97747,2.43068 l 1.63518,1.5026 c 0.45387,-1.55626 1.43719,-3.20158 2.34229,-3.93328 z"/><path id="path11535" d="m 255.34375,178.34243 6.1875,0.0312 c 0.23476,-1.81501 -0.60971,-4.01475 -1.71875,-4.90625 -0.75734,-0.60879 -1.92178,-0.74099 -2.78125,0.0312 -1.22227,1.09814 -1.98355,3.62435 -1.6875,4.8438 z" style="fill:#58a3fe;fill-opacity:1;stroke:none"/></g><circle style="fill:#ffb380;fill-opacity:.99215686;stroke:none" id="path11531" cx="258.125" cy="170.987" r="2.125" transform="matrix(1.2058823,0,0,1.2058823,-70.768379,-34.546993)"/><path style="fill:#28170b;stroke:none" id="path11552" d="m 237.57005,172.56668 c 0.24273,-0.43227 0.51103,-0.19963 0.77496,-0.0805 -0.22205,-0.70221 -0.13213,-1.62772 0.59329,-1.62141 0.37291,-0.49377 0.59201,-0.40457 1.16802,0.20023 0.42314,0.44428 1.0108,-0.14611 1.03454,-0.70081 0.76784,-0.14129 1.7411,0.26183 1.84523,1.57183 0.0487,-0.73273 0.42784,-0.64674 0.85414,-0.48988 -0.11193,-0.96118 -0.13699,-1.69099 -1.69151,-1.9554 l 0.64217,-0.24101 c -0.80173,-0.92362 -2.38906,-1.27977 -3.65235,-0.28722 -1.36153,0.15597 -1.74499,1.45585 -1.55159,2.59319 -0.0831,0.35248 -0.24945,0.72163 -0.0169,1.01099 z"/></g></g></svg>