<svg xmlns="http://www.w3.org/2000/svg" xmlns:svg="http://www.w3.org/2000/svg" xmlns:xlink="http://www.w3.org/1999/xlink" id="svg2" width="128" height="128" version="1.1" viewBox="0 0 128 128"><metadata id="metadata18"/><defs id="defs16"><linearGradient id="linearGradient8068" x1="246.626" x2="246.817" y1="176.185" y2="160.306" gradientUnits="userSpaceOnUse" xlink:href="#linearGradient11424"/><linearGradient id="linearGradient11424"><stop style="stop-color:#d4e6fd;stop-opacity:1" id="stop11426" offset="0"/><stop style="stop-color:#fafcff;stop-opacity:1" id="stop11428" offset="1"/></linearGradient></defs><g id="g11822" transform="matrix(4.0000015,0,0,4.0000015,-729.48489,-695.0146)"><rect id="rect11458" width="30" height="30" x="183.407" y="174.718" style="opacity:0;fill:#fff;fill-opacity:.99215686;stroke:none"/><g id="g11446" transform="matrix(1.1469033,0,0,1.2102309,-85.775442,-14.264744)"><rect style="fill:#608dcb;fill-opacity:.99215758;stroke:none" id="rect11420" width="26.157" height="18.178" x="234.704" y="159.459"/><rect id="rect11422" width="22.92" height="15.414" x="236.323" y="160.842" style="fill:url(#linearGradient8068);fill-opacity:1;stroke:none"/><g id="g11440" transform="matrix(1,0,0,-1.1994919,0,369.19015)"><path id="path11442" d="m 236.27822,160.83371 0.005,0.76995 11.28421,8.30523 11.69778,-8.19588 0.007,-0.8897 z" style="fill:#608dcb;fill-opacity:.99215686;stroke:none"/><path style="fill:#dceafd;fill-opacity:1;stroke:none" id="path11444" d="m 236.30557,160.83314 11.098,8.11192 11.86863,-8.12175 z"/></g><g id="g11436" transform="matrix(1,0,0,1.1169436,0,-18.807249)"><path style="fill:#608dcb;fill-opacity:.99215686;stroke:none" id="path11434" d="m 236.27822,160.83371 0.005,0.76995 11.28421,8.30523 11.69778,-8.19588 0.007,-0.8897 z"/><path id="path11432" d="m 236.30557,160.83314 11.098,8.11192 11.86863,-8.12175 z" style="fill:#dceafd;fill-opacity:1;stroke:none"/></g></g></g></svg>