<svg xmlns="http://www.w3.org/2000/svg" xmlns:svg="http://www.w3.org/2000/svg" xmlns:xlink="http://www.w3.org/1999/xlink" id="svg2" width="128" height="128" version="1.1" viewBox="0 0 128 128"><metadata id="metadata18"/><defs id="defs16"><linearGradient id="linearGradient8064" x1="260.591" x2="261.246" y1="295.515" y2="251.675" gradientUnits="userSpaceOnUse" xlink:href="#linearGradient11973"/><linearGradient id="linearGradient11973"><stop style="stop-color:#f60;stop-opacity:1" id="stop11975" offset="0"/><stop style="stop-color:#fc0;stop-opacity:1" id="stop11977" offset="1"/></linearGradient></defs><g id="g12111" transform="matrix(4.0000015,0,0,4.0000015,-736.71475,-980.1032)"><g id="g11987" transform="translate(-62.262097,-6.0104076)"><path style="fill:#fc0;fill-opacity:1;stroke:none" id="path11886" d="m 248.60106,253.39415 c 0.052,-0.71334 0.58755,-1.3594 1.34305,-1.32003 l 9.60921,0.14314 c 0.72258,-0.014 1.98487,1.15789 2.04655,1.90847 l 12.85491,0.0637 c 0.61865,0.0807 1.06853,0.54729 1.21514,1.14508 l 0,6.74328 -27.06886,0.34989 z"/><rect style="fill:#fff;fill-opacity:1;stroke:none" id="rect11888" width="24.42" height="12.055" x="250.159" y="255.343" ry="0"/><rect style="fill:#2e75a3;fill-opacity:1;stroke:none" id="rect11894" width="29.576" height="2.384" x="247.545" y="279.014" ry=".99"/><rect style="fill:#2e75a3;fill-opacity:1;stroke:none" id="rect11898" width="2.238" height="5.662" x="261.214" y="273.591" ry=".672"/><path style="fill:url(#linearGradient8064);fill-opacity:1;stroke:none" id="path11900" d="m 249.70428,274.73726 24.87841,0.25447 c 0.75096,-0.0459 1.12406,-0.65544 1.2791,-1.5904 l 1.47096,-16.09481 c -0.25207,-0.46642 -0.49045,-0.94222 -1.40701,-0.95423 l -14.07005,-0.0637 -5.43616,2.4174 -7.54666,-0.0637 c -0.91386,0.0187 -1.60744,0.60642 -1.53491,1.78125 l 1.02327,12.97762 c 0.0431,0.67621 0.42591,1.28315 1.34305,1.33593 z"/><rect style="fill:#241c1c;fill-opacity:1;stroke:none" id="rect11896" width="6.693" height="3.734" x="258.986" y="278.339" ry=".99"/></g><g id="g12017" transform="matrix(1.4694487,0,0,1.5577766,-153.32392,-10.547148)"><g id="g12019" transform="translate(-17.942835,0.26516504)"><circle style="fill:#ffb380;fill-opacity:.99215686;stroke:none" id="path12021" cx="258.125" cy="170.987" r="2.125" transform="matrix(0.40441172,0,0,0.40441172,157.93935,107.10358)"/><path style="fill:#275ab8;fill-opacity:.99215686;stroke:none" id="path12023" d="m 258.82318,172.96442 c 1.51122,0.11813 3.15172,0.9604 3.97747,2.43068 l -1.63518,1.5026 c -0.45387,-1.55626 -1.43719,-3.20158 -2.34229,-3.93328 z"/><circle id="path12025" cx="258.125" cy="170.987" r="2.125" transform="matrix(0.40441172,0,0,0.40441172,150.1581,107.32233)" style="fill:#ffb380;fill-opacity:.99215686;stroke:none"/><path id="path12027" d="m 257.82881,172.96442 c -1.51122,0.11813 -3.15172,0.9604 -3.97747,2.43068 l 1.63518,1.5026 c 0.45387,-1.55626 1.43719,-3.20158 2.34229,-3.93328 z" style="fill:#275ab8;fill-opacity:.99215686;stroke:none"/><path style="fill:#58a3fe;fill-opacity:1;stroke:none" id="path12029" d="m 255.34375,178.34243 6.1875,0.0312 c 0.23476,-1.81501 -0.60971,-4.01475 -1.71875,-4.90625 -0.75734,-0.60879 -1.92178,-0.74099 -2.78125,0.0312 -1.22227,1.09814 -1.98355,3.62435 -1.6875,4.8438 z"/></g><circle id="path12031" cx="258.125" cy="170.987" r="2.125" transform="matrix(1.2058823,0,0,1.2058823,-70.768379,-34.546993)" style="fill:#ffb380;fill-opacity:.99215686;stroke:none"/><path id="path12033" d="m 237.57005,172.56668 c 0.24273,-0.43227 0.51103,-0.19963 0.77496,-0.0805 -0.22205,-0.70221 -0.13213,-1.62772 0.59329,-1.62141 0.37291,-0.49377 0.59201,-0.40457 1.16802,0.20023 0.42314,0.44428 1.0108,-0.14611 1.03454,-0.70081 0.76784,-0.14129 1.7411,0.26183 1.84523,1.57183 0.0487,-0.73273 0.42784,-0.64674 0.85414,-0.48988 -0.11193,-0.96118 -0.13699,-1.69099 -1.69151,-1.9554 l 0.64217,-0.24101 c -0.80173,-0.92362 -2.38906,-1.27977 -3.65235,-0.28722 -1.36153,0.15597 -1.74499,1.45585 -1.55159,2.59319 -0.0831,0.35248 -0.24945,0.72163 -0.0169,1.01099 z" style="fill:#28170b;stroke:none"/></g></g></svg>