<svg xmlns="http://www.w3.org/2000/svg" xmlns:svg="http://www.w3.org/2000/svg" xmlns:xlink="http://www.w3.org/1999/xlink" id="svg2" width="128" height="128" version="1.1" viewBox="0 0 128 128"><defs id="defs4"><linearGradient id="linearGradient4316"><stop style="stop-color:#fff;stop-opacity:1" id="stop4318" offset="0"/><stop style="stop-color:#fff;stop-opacity:0" id="stop4320" offset="1"/></linearGradient><linearGradient id="linearGradient4302"><stop style="stop-color:#ccc;stop-opacity:1" id="stop4304" offset="0"/><stop style="stop-color:#fff;stop-opacity:1" id="stop4306" offset="1"/></linearGradient><linearGradient id="linearGradient4256"><stop style="stop-color:#fff;stop-opacity:1" id="stop4258" offset="0"/><stop style="stop-color:#fff;stop-opacity:0" id="stop4260" offset="1"/></linearGradient><linearGradient id="linearGradient4238"><stop style="stop-color:#9c1a00;stop-opacity:1" id="stop4240" offset="0"/><stop style="stop-color:#f23d3d;stop-opacity:1" id="stop4242" offset="1"/></linearGradient><linearGradient id="linearGradient4222"><stop style="stop-color:#fff;stop-opacity:1" id="stop4224" offset="0"/><stop style="stop-color:#fff;stop-opacity:0" id="stop4226" offset="1"/></linearGradient><linearGradient id="linearGradient4208"><stop style="stop-color:#fff;stop-opacity:1" id="stop4210" offset="0"/><stop id="stop4218" offset=".438" style="stop-color:#fff;stop-opacity:1"/><stop id="stop4216" offset=".704" style="stop-color:#fff;stop-opacity:.29803922"/><stop style="stop-color:#fff;stop-opacity:0" id="stop4212" offset="1"/></linearGradient><linearGradient id="linearGradient4198"><stop style="stop-color:#9c1a00;stop-opacity:1" id="stop4200" offset="0"/><stop style="stop-color:#fb3109;stop-opacity:1" id="stop4202" offset="1"/></linearGradient><linearGradient id="linearGradient4188"><stop style="stop-color:#fff;stop-opacity:1" id="stop4190" offset="0"/><stop id="stop4196" offset=".68" style="stop-color:#ff0;stop-opacity:.63529412"/><stop style="stop-color:#ff0;stop-opacity:0" id="stop4192" offset="1"/></linearGradient><linearGradient id="linearGradient4178"><stop style="stop-color:#fff;stop-opacity:1" id="stop4180" offset="0"/><stop style="stop-color:#fff;stop-opacity:0" id="stop4182" offset="1"/></linearGradient><linearGradient id="linearGradient4166"><stop style="stop-color:#049301;stop-opacity:.99803919" id="stop4168" offset="0"/><stop style="stop-color:#3abc03;stop-opacity:1" id="stop4170" offset="1"/></linearGradient><linearGradient id="linearGradient4158"><stop style="stop-color:#f9980c;stop-opacity:1" id="stop4160" offset="0"/><stop style="stop-color:#fff580;stop-opacity:1" id="stop4162" offset="1"/></linearGradient><linearGradient id="linearGradient4244" x1="403.541" x2="407.854" y1="496.288" y2="519.502" gradientUnits="userSpaceOnUse" xlink:href="#linearGradient4238"/><linearGradient id="linearGradient4262" x1="408.507" x2="413.27" y1="485.931" y2="507.716" gradientUnits="userSpaceOnUse" xlink:href="#linearGradient4256"/><linearGradient id="linearGradient4308" x1="372.787" x2="407.87" y1="594.122" y2="568.765" gradientUnits="userSpaceOnUse" xlink:href="#linearGradient4302"/><linearGradient id="linearGradient4322" x1="367.098" x2="372.143" y1="500.576" y2="520.844" gradientTransform="translate(-1.0267857,-0.53571429)" gradientUnits="userSpaceOnUse" xlink:href="#linearGradient4316"/><linearGradient id="XMLID_8_" x1="74.5" x2="74.5" y1="5.048" y2="124.24" gradientTransform="matrix(0.7878481,-0.15496348,0.1548542,0.78840411,-5.4666052,936.08635)" gradientUnits="userSpaceOnUse"><stop style="stop-color:#fff" id="stop4539" offset="0"/><stop style="stop-color:#e1e1df" id="stop4541" offset="1"/></linearGradient><linearGradient id="XMLID_9_" x1="74.5" x2="74.5" y1="11.081" y2="121.467" gradientTransform="matrix(0.7878481,-0.15496348,0.1548542,0.78840411,-5.4666052,936.08635)" gradientUnits="userSpaceOnUse"><stop style="stop-color:#fdfdfd" id="stop4546" offset="0"/><stop style="stop-color:#f3f2f2" id="stop4548" offset=".298"/><stop style="stop-color:#d7d6d6" id="stop4550" offset=".817"/><stop style="stop-color:#cccbca" id="stop4552" offset="1"/></linearGradient><radialGradient id="XMLID_10_" cx="110" cy="32.869" r="15.596" gradientTransform="matrix(0.7878481,-0.15496348,0.1548542,0.78840411,-5.4666052,936.08635)" gradientUnits="userSpaceOnUse"><stop style="stop-color:#8e8e8f" id="stop4557" offset=".213"/><stop style="stop-color:#eee" id="stop4559" offset=".927"/></radialGradient><linearGradient id="XMLID_11_" x1="92.023" x2="104.273" y1="9.947" y2="32.947" gradientTransform="matrix(0.7878481,-0.15496348,0.1548542,0.78840411,-5.4666052,936.08635)" gradientUnits="userSpaceOnUse"><stop style="stop-color:#fffefe" id="stop4566" offset="0"/><stop style="stop-color:#cfd0d0" id="stop4568" offset="1"/></linearGradient><linearGradient id="XMLID_12_" x1="99.53" x2="105.905" y1="5.181" y2="31.931" gradientTransform="matrix(0.7878481,-0.15496348,0.1548542,0.78840411,-5.4666052,936.08635)" gradientUnits="userSpaceOnUse"><stop style="stop-color:#fcfdfd" id="stop4573" offset="0"/><stop style="stop-color:#eee" id="stop4575" offset="1"/></linearGradient><clipPath id="clipPath7019" clipPathUnits="userSpaceOnUse"><path style="opacity:1;fill:#f95;fill-opacity:.76315792;stroke:none;stroke-width:3;stroke-linecap:round;stroke-linejoin:round;stroke-miterlimit:4;stroke-dasharray:none;stroke-dashoffset:0;stroke-opacity:1" id="path7021" d="m 168.365,964.95976 57.74921,0 c 1.95285,3.8031 0.81825,11.7228 1.22738,17.58419 7.28806,0.26679 15.39187,-0.16565 21.32462,1.26283 l -0.0805,82.79802 -80.22066,0.1611 z"/></clipPath><linearGradient id="linearGradient6081" x1="60.125" x2="60.125" y1="12" y2="20" gradientTransform="translate(155.09306,955.38482)" gradientUnits="userSpaceOnUse" xlink:href="#XMLID_39_"/><linearGradient id="XMLID_39_" x1="60.125" x2="60.125" y1="12" y2="20" gradientUnits="userSpaceOnUse"><stop id="stop62" offset="0" style="stop-color:#7db1ff;stop-opacity:1"/><stop id="stop64" offset="1" style="stop-color:#bfd9ff"/></linearGradient><linearGradient id="linearGradient6083" x1="68.209" x2="68.209" y1="12" y2="20" gradientTransform="translate(155.09306,955.38482)" gradientUnits="userSpaceOnUse" xlink:href="#XMLID_40_"/><linearGradient id="XMLID_40_" x1="68.209" x2="68.209" y1="12" y2="20" gradientUnits="userSpaceOnUse"><stop id="stop69" offset="0" style="stop-color:#e0e0e0"/><stop id="stop71" offset="1" style="stop-color:#d4d4d4"/></linearGradient><linearGradient id="linearGradient6085" x1="28" x2="16" y1="68.208" y2="68.208" gradientTransform="translate(155.09306,955.38482)" gradientUnits="userSpaceOnUse" xlink:href="#XMLID_41_"/><linearGradient id="XMLID_41_" x1="28" x2="16" y1="68.208" y2="68.208" gradientUnits="userSpaceOnUse"><stop id="stop76" offset="0" style="stop-color:#e0e0e0"/><stop id="stop78" offset="1" style="stop-color:#d4d4d4"/></linearGradient><linearGradient id="linearGradient6087" x1="28" x2="16" y1="24.459" y2="24.459" gradientTransform="translate(155.09306,955.38482)" gradientUnits="userSpaceOnUse" xlink:href="#XMLID_42_"/><linearGradient id="XMLID_42_" x1="28" x2="16" y1="24.459" y2="24.459" gradientUnits="userSpaceOnUse"><stop id="stop83" offset="0" style="stop-color:#80b3ff;stop-opacity:1"/><stop id="stop85" offset="1" style="stop-color:#bfd9ff"/></linearGradient><linearGradient id="linearGradient6905" x1="60.125" x2="60.125" y1="12" y2="20" gradientTransform="translate(155.09306,955.38482)" gradientUnits="userSpaceOnUse" xlink:href="#XMLID_39_"/><linearGradient id="linearGradient6907" x1="68.209" x2="68.209" y1="12" y2="20" gradientTransform="translate(155.09306,955.38482)" gradientUnits="userSpaceOnUse" xlink:href="#XMLID_40_"/><linearGradient id="linearGradient6909" x1="28" x2="16" y1="68.208" y2="68.208" gradientTransform="translate(155.09306,955.38482)" gradientUnits="userSpaceOnUse" xlink:href="#XMLID_41_"/><linearGradient id="linearGradient6911" x1="28" x2="16" y1="24.459" y2="24.459" gradientTransform="translate(155.09306,955.38482)" gradientUnits="userSpaceOnUse" xlink:href="#XMLID_42_"/><linearGradient id="linearGradient7008" x1="448.324" x2="442.812" y1="528.2" y2="601.414" gradientUnits="userSpaceOnUse" xlink:href="#linearGradient4158"/><linearGradient id="linearGradient7010" x1="479.598" x2="458.71" y1="586.159" y2="615.087" gradientUnits="userSpaceOnUse" xlink:href="#linearGradient4198"/><linearGradient id="linearGradient7012" x1="480.584" x2="466.504" y1="546.868" y2="566.868" gradientUnits="userSpaceOnUse" xlink:href="#linearGradient4166"/><linearGradient id="linearGradient7014" x1="442.572" x2="451.778" y1="527.842" y2="569.628" gradientTransform="matrix(1.055233,0,0,1.055233,-24.450173,-31.404151)" gradientUnits="userSpaceOnUse" xlink:href="#linearGradient4178"/><linearGradient id="linearGradient7016" x1="439.416" x2="434.997" y1="605.875" y2="577.085" gradientUnits="userSpaceOnUse" xlink:href="#linearGradient4188"/><linearGradient id="linearGradient7018" x1="469.251" x2="473.059" y1="554.269" y2="605.667" gradientUnits="userSpaceOnUse" xlink:href="#linearGradient4208"/><linearGradient id="linearGradient7020" x1="425.613" x2="489.545" y1="619.155" y2="605.139" gradientUnits="userSpaceOnUse" xlink:href="#linearGradient4222"/><linearGradient id="linearGradient7258" x1="60.125" x2="60.125" y1="12" y2="20" gradientTransform="translate(155.09306,955.38482)" gradientUnits="userSpaceOnUse" xlink:href="#XMLID_39_"/><linearGradient id="linearGradient7260" x1="68.209" x2="68.209" y1="12" y2="20" gradientTransform="translate(155.09306,955.38482)" gradientUnits="userSpaceOnUse" xlink:href="#XMLID_40_"/><linearGradient id="linearGradient7262" x1="28" x2="16" y1="68.208" y2="68.208" gradientTransform="translate(155.09306,955.38482)" gradientUnits="userSpaceOnUse" xlink:href="#XMLID_41_"/><linearGradient id="linearGradient7264" x1="28" x2="16" y1="24.459" y2="24.459" gradientTransform="translate(155.09306,955.38482)" gradientUnits="userSpaceOnUse" xlink:href="#XMLID_42_"/><linearGradient id="linearGradient7266" x1="60.125" x2="60.125" y1="12" y2="20" gradientTransform="translate(155.09306,955.38482)" gradientUnits="userSpaceOnUse" xlink:href="#XMLID_39_"/><linearGradient id="linearGradient7268" x1="68.209" x2="68.209" y1="12" y2="20" gradientTransform="translate(155.09306,955.38482)" gradientUnits="userSpaceOnUse" xlink:href="#XMLID_40_"/><linearGradient id="linearGradient7270" x1="28" x2="16" y1="68.208" y2="68.208" gradientTransform="translate(155.09306,955.38482)" gradientUnits="userSpaceOnUse" xlink:href="#XMLID_41_"/><linearGradient id="linearGradient7272" x1="28" x2="16" y1="24.459" y2="24.459" gradientTransform="translate(155.09306,955.38482)" gradientUnits="userSpaceOnUse" xlink:href="#XMLID_42_"/></defs><metadata id="metadata7"/><g id="layer1" transform="translate(0,-924.3622)"><g id="g8629" transform="translate(12.857142,45.714251)"><g id="g8483" transform="translate(-12.844969,-45.246275)"><g id="g7493" transform="matrix(0.73991078,-0.20548445,0.20533954,0.74043296,-372.36331,672.17545)"><path id="path4154" d="m 366.1803,503.84937 21.71828,101.01526 87.63073,-19.69798 -24.24366,-98.23733 z" style="fill:url(#linearGradient4308);fill-opacity:1;fill-rule:evenodd;stroke:#9c9c9c;stroke-width:1.5;stroke-linecap:butt;stroke-linejoin:miter;stroke-miterlimit:4;stroke-dasharray:none;stroke-opacity:1"/><path id="path4156" d="m 370.22091,523.04227 85.61043,-17.42513 -4.04061,-18.94036 -85.86297,17.42513 z" style="fill:url(#linearGradient4244);fill-opacity:1;fill-rule:evenodd;stroke:#d02b2c;stroke-width:1.5;stroke-linecap:butt;stroke-linejoin:miter;stroke-miterlimit:4;stroke-dasharray:none;stroke-opacity:1"/><path id="path4246" d="m 367.45668,504.61864 3.69769,16.97698 83.53181,-16.93365 -3.51911,-16.80738 z" style="fill:url(#linearGradient4262);fill-opacity:1;fill-rule:evenodd;stroke:none;stroke-width:1px;stroke-linecap:butt;stroke-linejoin:miter;stroke-opacity:1"/><path id="path4314" d="m 367.27678,504.77292 3.25893,15.98214 1.875,-0.40178 -3.48214,-16.02679 z" style="opacity:.23600003;fill:url(#linearGradient4322);fill-opacity:1;fill-rule:evenodd;stroke:none;stroke-width:1px;stroke-linecap:butt;stroke-linejoin:miter;stroke-opacity:1"/><g id="g7130" clip-path="url(#clipPath7019)" transform="matrix(0.71818974,-0.15502006,0.15502006,0.71818974,108.80242,-141.15141)"><rect id="rect7132" width="63.75" height="8" x="183.343" y="967.385" style="fill:url(#linearGradient7258)"/><rect id="rect7134" width="47.583" height="8" x="199.51" y="967.385" style="fill:url(#linearGradient7260)"/><rect id="rect7136" width="12" height="79.583" x="171.093" y="983.802" style="fill:url(#linearGradient7262)"/><rect id="rect7138" width="12" height="8.083" x="171.093" y="975.802" style="fill:url(#linearGradient7264)"/><rect id="rect7140" width="75" height="1" x="171.593" y="983.385" style="fill:#a7a7a7;fill-opacity:1"/><rect id="rect7142" width="75" height="1" x="171.593" y="991.385" style="fill:#a7a7a7;fill-opacity:1"/><rect id="rect7144" width="75" height="1" x="171.593" y="999.385" style="fill:#a7a7a7;fill-opacity:1"/><rect id="rect7146" width="75" height="1" x="171.593" y="1007.385" style="fill:#a7a7a7;fill-opacity:1"/><rect id="rect7148" width="75" height="1" x="171.593" y="1015.385" style="fill:#a7a7a7;fill-opacity:1"/><rect id="rect7150" width="75" height="1" x="171.593" y="1023.385" style="fill:#a7a7a7;fill-opacity:1"/><rect id="rect7152" width="75" height="1" x="171.593" y="1031.385" style="fill:#a7a7a7;fill-opacity:1"/><rect id="rect7154" width="75" height="1" x="171.593" y="1039.385" style="fill:#a7a7a7;fill-opacity:1"/><rect id="rect7156" width="66" height="1" x="171.593" y="1047.385" style="fill:#a7a7a7;fill-opacity:1"/><rect id="rect7158" width="64" height="1" x="171.593" y="1055.385" style="fill:#a7a7a7;fill-opacity:1"/><rect id="rect7160" width="1" height="87.5" x="183.093" y="975.885" style="fill:#a7a7a7;fill-opacity:1"/><rect id="rect7162" width="1" height="87.5" x="199.093" y="975.885" style="fill:#a7a7a7;fill-opacity:1"/><rect id="rect7164" width="1" height="95.5" x="215.093" y="967.885" style="fill:#a7a7a7;fill-opacity:1"/><rect id="rect7166" width="1" height="91.521" x="231.093" y="967.885" style="fill:#a7a7a7;fill-opacity:1"/><rect id="rect7168" width="47.167" height="1" x="199.426" y="975.385" style="fill:#a7a7a7;fill-opacity:1"/><path id="path7170" d="m 226.92706,1063.3848 -54.834,0 0,-94.99998 74,0 0,76.99998 1,0 0,-77.99998 -76,0 0,96.99998 55.834,0 z" style="fill:#a7a7a7;fill-opacity:1"/><rect id="rect7172" width="1" height="16.833" x="183.093" y="967.385" style="fill:#80b3ff"/><rect id="rect7174" width="1" height="9" x="171.093" y="975.218" style="fill:#80b3ff"/><rect id="rect7176" width="29" height="1" x="171.093" y="975.385" style="fill:#80b3ff"/><rect id="rect7178" width="17" height="1" x="183.093" y="967.385" style="fill:#80b3ff"/><rect id="rect7180" width="13" height="1" x="171.093" y="983.385" style="fill:#80b3ff"/><rect id="rect7182" width="15" height="1" x="184.093" y="983.385" style="fill:#888"/><rect id="rect7184" width="1" height="8" x="199.093" y="976.385" style="fill:#888"/><rect id="rect7186" width="1" height="9" x="199.093" y="967.385" style="fill:#80b3ff"/><rect id="rect7188" width="3" height="3" x="199.093" y="983.385" style="fill:#888"/><rect style="fill:url(#linearGradient7266)" id="rect7190" width="63.75" height="8" x="183.343" y="967.385"/><rect style="fill:url(#linearGradient7268)" id="rect7192" width="47.583" height="8" x="199.51" y="967.385"/><rect style="fill:url(#linearGradient7270)" id="rect7194" width="12" height="79.583" x="171.093" y="983.802"/><rect style="fill:url(#linearGradient7272)" id="rect7196" width="12" height="8.083" x="171.093" y="975.802"/><rect style="fill:#a7a7a7;fill-opacity:1" id="rect7198" width="75" height="1" x="171.593" y="983.385"/><rect style="fill:#a7a7a7;fill-opacity:1" id="rect7200" width="75" height="1" x="171.593" y="991.385"/><rect style="fill:#a7a7a7;fill-opacity:1" id="rect7202" width="75" height="1" x="171.593" y="999.385"/><rect style="fill:#a7a7a7;fill-opacity:1" id="rect7204" width="75" height="1" x="171.593" y="1007.385"/><rect style="fill:#a7a7a7;fill-opacity:1" id="rect7206" width="75" height="1" x="171.593" y="1015.385"/><rect style="fill:#a7a7a7;fill-opacity:1" id="rect7208" width="75" height="1" x="171.593" y="1023.385"/><rect style="fill:#a7a7a7;fill-opacity:1" id="rect7210" width="75" height="1" x="171.593" y="1031.385"/><rect style="fill:#a7a7a7;fill-opacity:1" id="rect7212" width="75" height="1" x="171.593" y="1039.385"/><rect style="fill:#a7a7a7;fill-opacity:1" id="rect7214" width="75.596" height="1" x="171.593" y="1047.385"/><rect style="fill:#a7a7a7;fill-opacity:1" id="rect7216" width="74.841" height="1" x="171.593" y="1055.385"/><rect style="fill:#a7a7a7;fill-opacity:1" id="rect7218" width="1" height="87.5" x="183.093" y="975.885"/><rect style="fill:#a7a7a7;fill-opacity:1" id="rect7220" width="1" height="87.5" x="199.093" y="975.885"/><rect style="fill:#a7a7a7;fill-opacity:1" id="rect7222" width="1" height="95.5" x="215.093" y="967.885"/><rect style="fill:#a7a7a7;fill-opacity:1" id="rect7224" width="1" height="96.018" x="231.093" y="967.885"/><rect style="fill:#a7a7a7;fill-opacity:1" id="rect7226" width="47.167" height="1" x="199.426" y="975.385"/><path style="fill:#a7a7a7;fill-opacity:1" id="path7228" d="m 246.22706,1063.3848 -74.134,0 0,-94.99998 74,0 0.0301,95.99368 1,0 -0.0301,-96.99368 -76,0 0,96.99998 75.134,0 z"/><rect style="fill:#5498ff;fill-opacity:1" id="rect7230" width="1" height="16.833" x="183.093" y="967.385"/><rect style="fill:#80b3ff" id="rect7232" width="1" height="9" x="171.093" y="975.218"/><rect style="fill:#80b3ff" id="rect7234" width="29" height="1" x="171.093" y="975.385"/><rect style="fill:#80b3ff" id="rect7236" width="17" height="1" x="183.093" y="967.385"/><rect style="fill:#80b3ff" id="rect7238" width="13" height="1" x="171.093" y="983.385"/><rect style="fill:#888" id="rect7240" width="15" height="1" x="184.093" y="983.385"/><rect style="fill:#888" id="rect7242" width="1" height="8" x="199.093" y="976.385"/><rect style="fill:#80b3ff" id="rect7244" width="1" height="9" x="199.093" y="967.385"/><rect style="fill:#888" id="rect7246" width="3" height="3" x="199.093" y="983.385"/></g></g><g id="g8412"><path style="opacity:.2" id="path4532" d="m 19.777524,936.85307 c -1.457519,0.28668 -2.604868,2.01087 -2.31622,3.48046 16.474939,83.87827 16.474939,83.87827 17.004075,86.57227 0.606564,3.0882 3.848082,2.9272 3.848082,2.9272 l 68.542789,-13.4818 c 0,0 3.10989,-0.8312 2.52918,-3.7877 -0.5807,-2.9565 -12.152799,-61.87315 -12.152799,-61.87315 -0.804777,-4.09734 -27.301485,-23.7021 -32.966113,-22.58791 l -44.488994,8.75063 z"/><path style="opacity:.2" id="path4534" d="m 19.932378,937.64147 c -1.457519,0.28669 -2.604868,2.01088 -2.316219,3.48046 16.474938,83.87827 16.474938,83.87827 17.004075,86.57227 0.606564,3.0882 4.635929,2.7722 4.635929,2.7722 l 66.967087,-13.1719 c 0,0 3.89774,-0.9861 3.31704,-3.9426 -0.58071,-2.9565 -12.152805,-61.87315 -12.152805,-61.87315 C 96.582708,947.38141 70.086,927.77665 64.421373,928.89084 l -44.488995,8.75063 z"/><path style="opacity:.6;fill:#262626" id="path4536" d="m 19.62267,936.06466 c -1.457519,0.28669 -2.604868,2.01088 -2.31622,3.48047 16.474938,83.87827 16.474938,83.87827 17.004075,86.57227 0.606564,3.0882 3.060234,3.0822 3.060234,3.0822 l 70.118481,-13.7918 c 0,0 2.32204,-0.6762 1.74134,-3.6327 -0.5807,-2.9565 -12.152803,-61.87316 -12.152803,-61.87316 C 96.273,945.80461 69.776292,926.19984 64.111664,927.31403 l -44.488994,8.75063 z"/><path style="fill:url(#XMLID_8_)" id="path4543" d="m 108.46302,1012.0334 c 0.40014,2.0372 -1.4422,2.6477 -1.4422,2.6477 l -69.412567,13.6529 c 0,0 -2.041601,0.013 -2.44546,-2.0436 -3.068746,-15.6238 -16.88778,-85.98017 -17.068495,-86.90024 -0.204407,-1.04069 0.653509,-2.33455 1.683226,-2.53709 0.783121,-0.15404 38.18621,-7.51093 44.488994,-8.75063 5.540148,-1.08971 31.376585,18.6613 32.023566,21.95525 0.715271,3.64164 9.778266,49.78378 12.172936,61.97571 z"/><path style="fill:url(#XMLID_9_)" id="path4554" d="m 107.54649,1011.5332 c 0.38419,1.956 -1.15481,2.4528 -1.15481,2.4528 l -68.542782,13.4818 c 0,0 -1.600937,0.1814 -1.923963,-1.4632 -2.789698,-14.2031 -16.859596,-85.83672 -17.042789,-86.7694 -0.204407,-1.04069 0.620419,-2.32805 1.617835,-2.52423 0.759485,-0.14939 37.705622,-7.4164 43.812233,-8.61752 5.367609,-1.05577 30.543041,18.82525 31.190022,22.11921 0.716974,3.65031 9.705334,49.41244 12.044254,61.32054 z"/><path style="fill:url(#XMLID_10_)" id="path4561" d="m 95.114481,948.23849 c 1.111853,5.66074 -0.208627,10.68625 -5.865377,11.79889 -5.656749,1.11264 -13.506821,-2.1091 -14.618674,-7.76984 -1.111853,-5.66074 0.828044,-7.53263 6.484793,-8.64527 5.65675,-1.11264 9.285746,1.44902 13.999258,4.61622 z"/><g id="g6391" clip-path="url(#clipPath7019)" transform="matrix(0.76014558,-0.14951462,0.14940917,0.76068204,-246.87548,236.85087)"><rect style="fill:url(#linearGradient6905)" id="rect66" width="63.75" height="8" x="183.343" y="967.385"/><rect style="fill:url(#linearGradient6907)" id="rect73" width="47.583" height="8" x="199.51" y="967.385"/><rect style="fill:url(#linearGradient6909)" id="rect80" width="12" height="79.583" x="171.093" y="983.802"/><rect style="fill:url(#linearGradient6911)" id="rect87" width="12" height="8.083" x="171.093" y="975.802"/><rect style="fill:#a7a7a7;fill-opacity:1" id="rect297" width="75" height="1" x="171.593" y="983.385"/><rect style="fill:#a7a7a7;fill-opacity:1" id="rect299" width="75" height="1" x="171.593" y="991.385"/><rect style="fill:#a7a7a7;fill-opacity:1" id="rect301" width="75" height="1" x="171.593" y="999.385"/><rect style="fill:#a7a7a7;fill-opacity:1" id="rect303" width="75" height="1" x="171.593" y="1007.385"/><rect style="fill:#a7a7a7;fill-opacity:1" id="rect305" width="75" height="1" x="171.593" y="1015.385"/><rect style="fill:#a7a7a7;fill-opacity:1" id="rect307" width="75" height="1" x="171.593" y="1023.385"/><rect style="fill:#a7a7a7;fill-opacity:1" id="rect309" width="75" height="1" x="171.593" y="1031.385"/><rect style="fill:#a7a7a7;fill-opacity:1" id="rect311" width="75" height="1" x="171.593" y="1039.385"/><rect style="fill:#a7a7a7;fill-opacity:1" id="rect313" width="66" height="1" x="171.593" y="1047.385"/><rect style="fill:#a7a7a7;fill-opacity:1" id="rect315" width="64" height="1" x="171.593" y="1055.385"/><rect style="fill:#a7a7a7;fill-opacity:1" id="rect317" width="1" height="87.5" x="183.093" y="975.885"/><rect style="fill:#a7a7a7;fill-opacity:1" id="rect319" width="1" height="87.5" x="199.093" y="975.885"/><rect style="fill:#a7a7a7;fill-opacity:1" id="rect321" width="1" height="95.5" x="215.093" y="967.885"/><rect style="fill:#a7a7a7;fill-opacity:1" id="rect323" width="1" height="91.521" x="231.093" y="967.885"/><rect style="fill:#a7a7a7;fill-opacity:1" id="rect325" width="47.167" height="1" x="199.426" y="975.385"/><path style="fill:#a7a7a7;fill-opacity:1" id="path327" d="m 226.92706,1063.3848 -54.834,0 0,-94.99998 74,0 0,76.99998 1,0 0,-77.99998 -76,0 0,96.99998 55.834,0 z"/><rect style="fill:#80b3ff" id="rect371" width="1" height="16.833" x="183.093" y="967.385"/><rect style="fill:#80b3ff" id="rect373" width="1" height="9" x="171.093" y="975.218"/><rect style="fill:#80b3ff" id="rect375" width="29" height="1" x="171.093" y="975.385"/><rect style="fill:#80b3ff" id="rect377" width="17" height="1" x="183.093" y="967.385"/><rect style="fill:#80b3ff" id="rect379" width="13" height="1" x="171.093" y="983.385"/><rect style="fill:#888" id="rect381" width="15" height="1" x="184.093" y="983.385"/><rect style="fill:#888" id="rect383" width="1" height="8" x="199.093" y="976.385"/><rect style="fill:#80b3ff" id="rect385" width="1" height="9" x="199.093" y="967.385"/><rect style="fill:#888" id="rect387" width="3" height="3" x="199.093" y="983.385"/><rect id="rect4441" width="63.75" height="8" x="183.343" y="967.385" style="fill:url(#linearGradient6081)"/><rect id="rect4443" width="47.583" height="8" x="199.51" y="967.385" style="fill:url(#linearGradient6083)"/><rect id="rect4445" width="12" height="79.583" x="171.093" y="983.802" style="fill:url(#linearGradient6085)"/><rect id="rect4447" width="12" height="8.083" x="171.093" y="975.802" style="fill:url(#linearGradient6087)"/><rect id="rect4449" width="75" height="1" x="171.593" y="983.385" style="fill:#a7a7a7;fill-opacity:1"/><rect id="rect4451" width="75" height="1" x="171.593" y="991.385" style="fill:#a7a7a7;fill-opacity:1"/><rect id="rect4453" width="75" height="1" x="171.593" y="999.385" style="fill:#a7a7a7;fill-opacity:1"/><rect id="rect4455" width="75" height="1" x="171.593" y="1007.385" style="fill:#a7a7a7;fill-opacity:1"/><rect id="rect4457" width="75" height="1" x="171.593" y="1015.385" style="fill:#a7a7a7;fill-opacity:1"/><rect id="rect4459" width="75" height="1" x="171.593" y="1023.385" style="fill:#a7a7a7;fill-opacity:1"/><rect id="rect4461" width="75" height="1" x="171.593" y="1031.385" style="fill:#a7a7a7;fill-opacity:1"/><rect id="rect4463" width="75" height="1" x="171.593" y="1039.385" style="fill:#a7a7a7;fill-opacity:1"/><rect id="rect4465" width="75.596" height="1" x="171.593" y="1047.385" style="fill:#a7a7a7;fill-opacity:1"/><rect id="rect4467" width="74.841" height="1" x="171.593" y="1055.385" style="fill:#a7a7a7;fill-opacity:1"/><rect id="rect4469" width="1" height="87.5" x="183.093" y="975.885" style="fill:#a7a7a7;fill-opacity:1"/><rect id="rect4471" width="1" height="87.5" x="199.093" y="975.885" style="fill:#a7a7a7;fill-opacity:1"/><rect id="rect4473" width="1" height="95.5" x="215.093" y="967.885" style="fill:#a7a7a7;fill-opacity:1"/><rect id="rect4475" width="1" height="96.018" x="231.093" y="967.885" style="fill:#a7a7a7;fill-opacity:1"/><rect id="rect4477" width="47.167" height="1" x="199.426" y="975.385" style="fill:#a7a7a7;fill-opacity:1"/><path id="path4479" d="m 246.22706,1063.3848 -74.134,0 0,-94.99998 74,0 0.0301,95.99368 1,0 -0.0301,-96.99368 -76,0 0,96.99998 75.134,0 z" style="fill:#a7a7a7;fill-opacity:1"/><rect id="rect4481" width="1" height="16.833" x="183.093" y="967.385" style="fill:#5498ff;fill-opacity:1"/><rect id="rect4483" width="1" height="9" x="171.093" y="975.218" style="fill:#80b3ff"/><rect id="rect4485" width="29" height="1" x="171.093" y="975.385" style="fill:#80b3ff"/><rect id="rect4487" width="17" height="1" x="183.093" y="967.385" style="fill:#80b3ff"/><rect id="rect4489" width="13" height="1" x="171.093" y="983.385" style="fill:#80b3ff"/><rect id="rect4491" width="15" height="1" x="184.093" y="983.385" style="fill:#888"/><rect id="rect4493" width="1" height="8" x="199.093" y="976.385" style="fill:#888"/><rect id="rect4495" width="1" height="9" x="199.093" y="967.385" style="fill:#80b3ff"/><rect id="rect4497" width="3" height="3" x="199.093" y="983.385" style="fill:#888"/></g><g id="g8041"><path id="path4563" d="m 62.117842,928.49477 c 0.430953,-0.0848 0.746402,-0.14518 3.0336,0.38021 3.58761,0.84282 6.674175,16.88647 7.362967,20.39329 l 0.01903,0.10107 c 0.08068,0.41076 0.462857,0.69425 0.878409,0.64773 4.782624,-0.53455 18.239725,-4.28201 21.427359,-0.91785 1.193636,1.08195 1.517986,2.04173 1.953666,1.95603 0.43568,-0.0857 0.37069,-0.71653 0.285056,-1.15252 -0.123419,-0.62836 -0.446218,-1.20112 -0.979478,-1.79554 -0.0045,-0.006 -0.0044,-0.0139 -0.0088,-0.0196 -0.01537,-0.0199 -0.04,-0.0454 -0.05631,-0.0659 l -1.55e-4,-7.9e-4 c -2.54365,-3.34752 -25.023228,-19.95599 -30.536736,-20.6804 -0.005,-6.5e-4 -0.0068,-0.005 -0.011,-0.006 -0.006,-0.001 -0.01213,7.4e-4 -0.01716,10e-5 -0.01778,-0.003 -0.04217,-0.0105 -0.05995,-0.0136 -0.07855,-0.008 -0.153677,-0.003 -0.226468,0.009 -0.360286,-0.047 -0.721232,-0.085 -1.070249,-0.0163 -0.400227,0.0787 -2.026483,0.77282 -1.993822,1.18074 z" style="opacity:.5;fill:#343434"/><path id="path4570" d="m 96.290084,950.05769 c -3.995225,-6.28013 -22.96802,-0.83937 -22.96802,-0.83937 0.310576,2.12282 -3.149048,-22.27765 -9.055546,-21.11588 5.540936,-1.08986 31.607008,19.83445 32.023566,21.95525 z" style="fill:url(#XMLID_11_)"/><path id="path4577" d="m 96.290084,950.05769 c -2.41147,-6.02827 -22.323991,-2.21399 -22.323991,-2.21399 0.393145,2.10576 -3.878165,-20.88629 -9.699575,-19.74126 5.540936,-1.08986 31.607008,19.83445 32.023566,21.95525 z" style="fill:url(#XMLID_12_)"/></g></g><g id="g6992" transform="matrix(0.87620053,0,0,0.87681889,-307.60714,507.30876)"><path style="opacity:1;fill:url(#linearGradient7008);fill-opacity:1;stroke:#ff6100;stroke-width:1.5;stroke-linecap:round;stroke-linejoin:round;stroke-miterlimit:4;stroke-dasharray:none;stroke-dashoffset:0;stroke-opacity:1" id="path6994" d="m 490.25758,565.34241 c 0,4.60678 -2.15497,13.17171 -2.15497,13.17171 l -38.63272,-11.64031 -0.33082,39.58711 c -22.70913,0 -41.11851,-18.40938 -41.11851,-41.11851 0,-22.70913 18.40938,-41.11851 41.11851,-41.11851 22.70913,0 41.11851,18.40938 41.11851,41.11851 z"/><path style="fill:url(#linearGradient7010);fill-opacity:1;fill-rule:evenodd;stroke:#a80000;stroke-width:1.5;stroke-linecap:butt;stroke-linejoin:miter;stroke-miterlimit:4;stroke-dasharray:none;stroke-opacity:1" id="path6996" d="m 455.35714,574.68363 0.35715,41.78572 c 18.98458,0.72084 36.73104,-14.44061 39.28571,-28.75 z"/><path style="fill:url(#linearGradient7012);fill-opacity:1;fill-rule:evenodd;stroke:#2d7a00;stroke-width:1.5;stroke-linecap:round;stroke-linejoin:round;stroke-miterlimit:4;stroke-dasharray:none;stroke-opacity:1" id="path6998" d="m 449.07594,567.04704 24.16474,-35.08701 c 15.38698,11.77054 20.6423,29.14465 15.04181,47.01944 z"/><path id="path7000" d="m 449.17228,566.83946 0.32393,36.53459 c -21.10296,0 -38.21021,-17.10725 -38.21021,-38.21021 0,-21.10296 16.4991,-36.96856 37.57886,-37.95767 17.15508,-0.80496 33.69426,14.82784 35.76747,24.03319 0,0 -18.53062,-0.0214 -35.46005,15.6001 z" style="opacity:1;fill:url(#linearGradient7014);fill-opacity:1;stroke:none;stroke-width:1.35325336;stroke-linecap:round;stroke-linejoin:round;stroke-miterlimit:4;stroke-dasharray:none;stroke-dashoffset:0;stroke-opacity:1"/><path style="fill:url(#linearGradient7016);fill-opacity:1;fill-rule:evenodd;stroke:none;stroke-width:1px;stroke-linecap:butt;stroke-linejoin:miter;stroke-opacity:1" id="path7002" d="m 413.02612,578.34813 33.46131,-10.73288 0.12626,36.61803 c -13.23934,-1.52729 -27.26708,-9.43308 -33.58757,-25.88515 z"/><path style="fill:url(#linearGradient7018);fill-opacity:1;fill-rule:evenodd;stroke:none;stroke-width:1px;stroke-linecap:butt;stroke-linejoin:miter;stroke-opacity:1" id="path7004" d="m 456.96776,577.08543 36.23922,11.86929 c -7.0494,17.34184 -19.65369,23.75374 -35.1028,25.25382 z"/><path style="fill:url(#linearGradient7020);fill-opacity:1;fill-rule:evenodd;stroke:none;stroke-width:1px;stroke-linecap:butt;stroke-linejoin:miter;stroke-opacity:1" id="path7006" d="m 457.66859,612.9337 c 15.28,-1.68038 22.65561,-5.87328 32.6342,-18.42314 -3.01279,6.31784 -13.33668,19.15974 -32.61703,20.37396 z"/></g></g><rect id="rect8627" width="128" height="128" x="-12.857" y="878.648" style="opacity:0;fill:#ffa49f;fill-opacity:1;stroke:none;stroke-width:.059;stroke-linecap:round;stroke-linejoin:round;stroke-miterlimit:4;stroke-dasharray:none;stroke-dashoffset:0;stroke-opacity:1"/></g></g></svg>