<svg xmlns="http://www.w3.org/2000/svg" xmlns:svg="http://www.w3.org/2000/svg" id="svg2" width="128" height="128" version="1.1" viewBox="0 0 128 128"><metadata id="metadata343"/><defs id="defs4"><linearGradient id="b" x1="77.249" x2="148.47" y1="196.88" y2="196.88" gradientTransform="translate(1.2857,795.08)" gradientUnits="userSpaceOnUse"><stop id="stop7" offset=".006" stop-color="#fff"/><stop id="stop9" offset=".021" stop-color="#fcfbfa"/><stop id="stop11" offset=".224" stop-color="#d7c7ba"/><stop id="stop13" offset=".418" stop-color="#b99c85"/><stop id="stop15" offset=".598" stop-color="#a17b5c"/><stop id="stop17" offset=".76" stop-color="#90633e"/><stop id="stop19" offset=".9" stop-color="#86542c"/><stop id="stop21" offset="1" stop-color="#824f26"/></linearGradient><linearGradient id="c" x1="128.87" x2="128.87" y1="179.43" y2="164.62" gradientTransform="translate(1.2857,795.08)" gradientUnits="userSpaceOnUse"><stop id="stop24" offset=".006" stop-color="#824f26"/><stop id="stop26" offset=".19" stop-color="#5f3a1c"/><stop id="stop28" offset=".439" stop-color="#362110"/><stop id="stop30" offset=".666" stop-color="#180f07"/><stop id="stop32" offset=".86" stop-color="#060402"/><stop id="stop34" offset="1"/></linearGradient><linearGradient id="d" x1="89.883" x2="167.86" y1="178.06" y2="178.06" gradientTransform="translate(1.2857,795.08)" gradientUnits="userSpaceOnUse"><stop id="stop37" offset=".006" stop-color="#fff"/><stop id="stop39" offset=".021" stop-color="#fcfbfa"/><stop id="stop41" offset=".224" stop-color="#d7c7ba"/><stop id="stop43" offset=".418" stop-color="#b99c85"/><stop id="stop45" offset=".598" stop-color="#a17b5c"/><stop id="stop47" offset=".76" stop-color="#90633e"/><stop id="stop49" offset=".9" stop-color="#86542c"/><stop id="stop51" offset="1" stop-color="#824f26"/></linearGradient><linearGradient id="e" x1="72.252" x2="186.04" y1="186.29" y2="186.29" gradientTransform="translate(1.2857,795.08)" gradientUnits="userSpaceOnUse"><stop id="stop54" offset=".006" stop-color="#c77700"/><stop id="stop56" offset=".023" stop-color="#cb7d07"/><stop id="stop58" offset=".132" stop-color="#e19f30"/><stop id="stop60" offset=".23" stop-color="#f2b84e"/><stop id="stop62" offset=".315" stop-color="#fbc760"/><stop id="stop64" offset=".376" stop-color="#fc6"/><stop id="stop66" offset=".482" stop-color="#f5c25c"/><stop id="stop68" offset=".657" stop-color="#dca943"/><stop id="stop70" offset=".88" stop-color="#b27f19"/><stop id="stop72" offset="1" stop-color="#960"/></linearGradient><linearGradient id="f" x1="130.97" x2="70.983" y1="119.07" y2="119.07" gradientTransform="translate(1.2857,-1.286)" gradientUnits="userSpaceOnUse"><stop id="stop75" offset=".006" stop-color="#f0f0f0"/><stop id="stop77" offset=".143" stop-color="#eeedec"/><stop id="stop79" offset=".288" stop-color="#e9e6df"/><stop id="stop81" offset=".438" stop-color="#e1d9ca"/><stop id="stop83" offset=".591" stop-color="#d5c7ac"/><stop id="stop85" offset=".745" stop-color="#c6b186"/><stop id="stop87" offset=".899" stop-color="#b39557"/><stop id="stop89" offset=".983" stop-color="#a8843b"/></linearGradient><linearGradient id="g" x1="96.525" x2="119.12" y1="128.79" y2="128.79" gradientTransform="translate(1.2857,-1.286)" gradientUnits="userSpaceOnUse"><stop id="stop92" offset=".006" stop-color="#fff"/><stop id="stop94" offset="1" stop-color="#a8843b"/></linearGradient><linearGradient id="h" x1="118.2" x2="159.42" y1="61.256" y2="61.256" gradientTransform="translate(1.2857,795.08)" gradientUnits="userSpaceOnUse"><stop id="stop97" offset=".006" stop-color="#d6c5a0"/><stop id="stop99" offset=".192" stop-color="#d4c29c"/><stop id="stop101" offset=".39" stop-color="#ceba8f"/><stop id="stop103" offset=".593" stop-color="#c5ac7a"/><stop id="stop105" offset=".798" stop-color="#b7995c"/><stop id="stop107" offset=".983" stop-color="#a8843b"/></linearGradient><linearGradient id="i" x1="117.33" x2="145.43" y1="39.822" y2="39.822" gradientTransform="translate(1.2857,795.08)" gradientUnits="userSpaceOnUse"><stop id="stop110" offset=".006" stop-color="#fff"/><stop id="stop112" offset="1" stop-color="#a8843b"/></linearGradient><linearGradient id="j" x1="131.38" x2="131.38" y1="42.276" y2="27.985" gradientTransform="translate(1.2857,795.08)" gradientUnits="userSpaceOnUse"><stop id="stop115" offset=".006" stop-color="#fff"/><stop id="stop117" offset="1" stop-color="#a8843b"/></linearGradient><linearGradient id="k" x1="92.714" x2="101.93" y1="46.787" y2="46.787" gradientTransform="translate(1.2857,795.08)" gradientUnits="userSpaceOnUse"><stop id="stop120" offset=".006" stop-color="#fff"/><stop id="stop122" offset="1" stop-color="#a8843b"/></linearGradient><linearGradient id="l" x1="70.991" x2="94.021" y1="47.085" y2="47.085" gradientTransform="translate(1.2857,795.08)" gradientUnits="userSpaceOnUse"><stop id="stop125" offset=".006" stop-color="#fff"/><stop id="stop127" offset="1" stop-color="#a8843b"/></linearGradient><linearGradient id="m" x1="70.952" x2="94.021" y1="48.144" y2="48.144" gradientTransform="translate(1.2857,-1.286)" gradientUnits="userSpaceOnUse"><stop id="stop130" offset=".006" stop-color="#fff"/><stop id="stop132" offset=".283" stop-color="#fbfbfc"/><stop id="stop134" offset=".577" stop-color="#eeeef2"/><stop id="stop136" offset=".878" stop-color="#d9d9e3"/><stop id="stop138" offset="1" stop-color="#cecedb"/></linearGradient><linearGradient id="n" x1="80.734" x2="90.851" y1="34.067" y2="34.067" gradientTransform="translate(1.2857,-1.286)" gradientUnits="userSpaceOnUse"><stop id="stop141" offset=".006" stop-color="#fff"/><stop id="stop143" offset=".16" stop-color="#fcfcfb"/><stop id="stop145" offset=".324" stop-color="#f5f4ee"/><stop id="stop147" offset=".493" stop-color="#e8e5d9"/><stop id="stop149" offset=".665" stop-color="#d6d2bb"/><stop id="stop151" offset=".837" stop-color="#bfb895"/><stop id="stop153" offset=".983" stop-color="#a89f6f"/></linearGradient><linearGradient id="o" x1="83.377" x2="68.973" y1="43.836" y2="43.836" gradientTransform="translate(1.2857,795.08)" gradientUnits="userSpaceOnUse"><stop id="stop156" offset=".006" stop-color="#f0f0f0"/><stop id="stop158" offset=".143" stop-color="#eeedec"/><stop id="stop160" offset=".288" stop-color="#e9e6df"/><stop id="stop162" offset=".438" stop-color="#e1d9ca"/><stop id="stop164" offset=".591" stop-color="#d5c7ac"/><stop id="stop166" offset=".745" stop-color="#c6b186"/><stop id="stop168" offset=".899" stop-color="#b39557"/><stop id="stop170" offset=".983" stop-color="#a8843b"/></linearGradient><linearGradient id="p" x1="70.28" x2="78.774" y1="57.082" y2="57.082" gradientTransform="translate(1.2857,-1.286)" gradientUnits="userSpaceOnUse"><stop id="stop173" offset=".006" stop-color="#fff"/><stop id="stop175" offset=".562" stop-color="#e2e2e2"/><stop id="stop177" offset="1" stop-color="#cbc7b1"/></linearGradient><linearGradient id="q" x1="71.111" x2="71.369" y1="49.035" y2="49.035" gradientTransform="translate(1.2857,795.08)" gradientUnits="userSpaceOnUse"><stop id="stop180" offset=".006" stop-color="#fff"/><stop id="stop182" offset=".562" stop-color="#e2e2e2"/><stop id="stop184" offset="1" stop-color="#cbc7b1"/></linearGradient><linearGradient id="r" x1="152.83" x2="177.42" y1="26.689" y2="26.689" gradientTransform="translate(1.2857,795.08)" gradientUnits="userSpaceOnUse"><stop id="stop187" offset=".006" stop-color="#e6e6e6"/><stop id="stop189" offset=".177" stop-color="#e4e3e2"/><stop id="stop191" offset=".358" stop-color="#dddcd5"/><stop id="stop193" offset=".544" stop-color="#d2cfc0"/><stop id="stop195" offset=".734" stop-color="#c3bda2"/><stop id="stop197" offset=".925" stop-color="#afa77c"/><stop id="stop199" offset=".983" stop-color="#a89f6f"/></linearGradient><linearGradient id="s" x1="163.29" x2="181.68" y1="140.44" y2="140.44" gradientTransform="translate(1.2857,795.08)" gradientUnits="userSpaceOnUse"><stop id="stop202" offset=".006" stop-color="#fff"/><stop id="stop204" offset=".562" stop-color="#e2e2e2"/><stop id="stop206" offset="1" stop-color="#cbc7b1"/></linearGradient><linearGradient id="t" x1="176.79" x2="183.42" y1="45.229" y2="45.229" gradientTransform="translate(1.2857,795.08)" gradientUnits="userSpaceOnUse"><stop id="stop209" offset=".006" stop-color="#fff"/><stop id="stop211" offset=".562" stop-color="#e2e2e2"/><stop id="stop213" offset="1" stop-color="#cbc7b1"/></linearGradient><linearGradient id="u" x1="183.42" x2="161.51" y1="96.121" y2="96.121" gradientTransform="translate(1.2857,795.08)" gradientUnits="userSpaceOnUse"><stop id="stop216" offset=".006" stop-color="#fff"/><stop id="stop218" offset=".16" stop-color="#fcfcfb"/><stop id="stop220" offset=".324" stop-color="#f5f4ee"/><stop id="stop222" offset=".493" stop-color="#e8e5d9"/><stop id="stop224" offset=".665" stop-color="#d6d2bb"/><stop id="stop226" offset=".837" stop-color="#bfb895"/><stop id="stop228" offset=".983" stop-color="#a89f6f"/></linearGradient><linearGradient id="v" x1="68.973" x2="183.42" y1="95.163" y2="95.163" gradientTransform="translate(1.2857,-1.286)" gradientUnits="userSpaceOnUse"><stop id="stop231" offset=".006" stop-color="#fff"/><stop id="stop233" offset=".416" stop-color="#e2e2e2"/><stop id="stop235" offset="1" stop-color="#cbc7b1"/></linearGradient><linearGradient id="w" x1="68.968" x2="183.42" y1="95.164" y2="95.164" gradientTransform="translate(1.2857,795.08)" gradientUnits="userSpaceOnUse"><stop id="stop238" offset=".006" stop-color="#695600"/><stop id="stop240" offset="1" stop-color="#7d7a6d"/></linearGradient><linearGradient id="x" x1="71.587" x2="187.03" y1="229.5" y2="229.5" gradientTransform="translate(1.2857,795.08)" gradientUnits="userSpaceOnUse"><stop id="stop243" offset=".006" stop-color="#033"/><stop id="stop245" offset=".023" stop-color="#003a33"/><stop id="stop247" offset=".132" stop-color="#006333"/><stop id="stop249" offset=".23" stop-color="#008133"/><stop id="stop251" offset=".315" stop-color="#009333"/><stop id="stop253" offset=".376" stop-color="#093"/><stop id="stop255" offset=".553" stop-color="#00902a"/><stop id="stop257" offset=".847" stop-color="#007910"/><stop id="stop259" offset="1" stop-color="#006a00"/></linearGradient><linearGradient id="y" x1="129.31" x2="129.31" y1="239.05" y2="164.62" gradientTransform="translate(1.2857,795.08)" gradientUnits="userSpaceOnUse"><stop id="stop262" offset=".006" stop-color="#c76200"/><stop id="stop264" offset=".024" stop-color="#c77100"/><stop id="stop266" offset=".039" stop-color="#c77700"/><stop id="stop268" offset=".702" stop-color="#fc6"/><stop id="stop270" offset=".752" stop-color="#f5c25c"/><stop id="stop272" offset=".836" stop-color="#dca943"/><stop id="stop274" offset=".943" stop-color="#b27f19"/><stop id="stop276" offset="1" stop-color="#960"/></linearGradient><linearGradient id="a" x1="169.15" x2="90.1" y1="244.58" y2="165.53" gradientTransform="translate(1.2857,795.08)" gradientUnits="userSpaceOnUse"><stop id="stop279" offset=".006" stop-color="#633"/><stop id="stop281" offset=".474" stop-color="#6f3e2b"/><stop id="stop283" offset="1" stop-color="#744426"/></linearGradient></defs><g id="g285" transform="matrix(0.53610216,0,0,0.53610216,-5.3111365,-430.86228)"><path id="path287" d="m 170.95,955.7 -81.897,3.2676 c -2.1455,0.0859 -3.8408,1.8496 -3.8408,3.9961 l 0,16.627 c -14.662,10.135 -15.69,14.684 -15.69,16.5 0,0.1602 0.0078,0.3008 0.01465,0.4199 0.16992,3.0684 2.0088,8.3067 3.3594,11.803 -0.86816,0.5136 -1.8369,1.0859 -1.8369,1.0859 -1.1904,0.7031 -1.9326,1.9727 -1.9639,3.3555 0,0 -0.21875,9.8594 -0.21875,9.8887 0,0.8046 0.24316,1.5918 0.69727,2.2578 1.042,1.5234 11.622,14.836 61.817,13.066 50.794,-1.7891 57.813,-9.0137 60.65,-16.262 0.18164,-0.4649 0.27539,-0.959 0.27539,-1.4571 l 0,-9.1484 c 0,-1.0039 -0.37695,-1.9707 -1.0566,-2.709 0,0 -1.8486,-2.0098 -3.333,-3.6231 1.1504,-3.0117 3.6904,-9.666 3.6904,-9.666 0.17774,-0.46288 0.26368,-0.94725 0.26368,-1.4258 0,-1.0293 -0.39746,-2.041 -1.1445,-2.8027 -1.0664,-1.0859 -9.5312,-9.6348 -15.627,-13.49 l 0,-17.686 c 0,-1.0898 -0.44336,-2.1309 -1.2285,-2.8848 -0.78516,-0.7539 -1.8428,-1.1562 -2.9307,-1.1133 z" style="fill:url(#a)"/><path id="path289" d="m 89.209,962.96 0,18.732 c 0,0 -15.9,10.672 -15.683,14.594 0.21777,3.9199 4.3564,13.721 4.3564,13.721 l -4.792,2.8321 -0.21777,9.8008 c 0,0 8.9297,13.068 58.374,11.326 49.441,-1.7422 55.105,-8.7129 57.066,-13.721 l 0,-9.1484 -5.0098,-5.4453 4.5742,-11.979 c 0,0 -11.328,-11.545 -16.771,-13.941 l 0,-20.037 -81.897,3.2656 z" style="fill:url(#y)"/><path id="path291" d="m 131.25,1028.7 c -46.349,1.6328 -57.098,-9.7481 -58.261,-11.18 l -0.11328,5.0801 c 0,0 8.9297,13.068 58.374,11.326 49.441,-1.7422 55.105,-8.7129 57.066,-13.721 l 0,-5.2285 c -1.9609,5.0098 -7.625,11.98 -57.066,13.723 z" style="fill:url(#x)"/><path id="path293" d="m 145.3,809.88 0.39,-0.49 c -1.64,1.39 -11.65,5.66 -20.38,8.99 -3.71,-0.43 -10.11,-0.42 -19.13,0.05 -14.666,0.76 -14.913,0.95 -15.953,1.77 -0.019,0.01 -0.031,0.04 -0.05,0.05 -1.443,0.37 -5.861,0.56 -9.971,0.41 -2.166,-0.08 -4.002,1.58 -4.138,3.75 -0.09,1.43 -3.253,5.21 -4.719,5.91 -4.187,1.68 -4.978,6.74 -5.055,7.31 -0.024,0.18 -0.036,0.35 -0.036,0.53 0,1.19 0.533,2.33 1.467,3.1 0,0 0.367,0.3 0.578,0.47 -0.013,0.22 -0.056,0.44 -0.056,0.66 0,2.12 0.644,3.97 1.444,5.36 -1.017,1.6 -1.653,3.63 -2.041,5.49 -0.03,0.15 -0.045,0.3 -0.045,0.45 0,0.91 0.518,1.85 1.02,2.61 0.843,0.84 1.089,1.07 1.698,1.51 1.45,0.78 6.941,6.17 11.159,10.73 0.757,0.82 1.82,1.28 2.935,1.28 l 3.048,0 c 1.109,0 2.167,-0.46 2.924,-1.27 3.458,-3.7 8.543,-7.95 13.121,-7.17 2.98,0.51 5.16,2.98 6.43,4.87 -22.906,23.13 -36.539,43.91 -40.475,61.79 -0.843,3.83 -1.208,7.34 -1.208,10.54 0,10.28 3.752,17.37 7.404,21.85 2.293,2.81 4.121,4.36 5.586,5.21 2.425,2.06 12.644,7.37 53.113,6.77 35.88,-0.53 45.37,-8.67 47.79,-13.72 2.05,-0.89 3.47,-2.13 4.23,-3.73 0.44,-0.92 0.59,-1.78 0.59,-2.52 0,-1.09 -0.31,-1.9 -0.45,-2.23 -0.19,-0.4 -0.44,-0.78 -0.75,-1.1 -0.21,-0.23 -17.22,-18.44 -17.22,-34.45 0,-3.53 0.83,-6.96 2.86,-10.06 0.06,-0.09 0.11,-0.19 0.17,-0.29 13.3,-24.7 17.23,-42.68 17.23,-55.3 0,-10.58 -2.76,-17.38 -5.06,-21.22 0.63,-0.57 1.12,-1.28 1.3,-2.12 0.05,-0.27 0.08,-0.53 0.08,-0.8 0,-0.8 -0.24,-1.59 -0.7,-2.26 l -2.84,-4.13 c -0.66,-0.97 -1.71,-1.6 -2.88,-1.72 0,0 -4.83,-0.51 -6.81,-0.72 -8.01,-7.9 -22.58,-8.02 -23.23,-8.02 -1.2,0 -2.61,0.92 -3.37,1.86 z m -55.92,11.27 c -0.168,0.25 -0.325,0.51 -0.432,0.79 0.118,-0.31 0.27,-0.57 0.432,-0.79 z m -7.541,144.81 c 0.441,0.21 0.838,0.34 1.206,0.43 -0.425,-0.08 -0.822,-0.22 -1.206,-0.43 z m 3.153,0.36 c -0.184,0.06 -0.371,0.08 -0.56,0.11 0.197,-0.03 0.398,-0.05 0.56,-0.11 z m -1.509,0.15 c 0.143,0.02 0.281,0.04 0.411,0.04 -0.14,0.01 -0.271,-0.03 -0.411,-0.04 z" style="fill:url(#w)"/><path id="path295" d="M 148.66,15.656 C 147.13,18.052 125.81,26.125 125.81,26.125 118.19,24.818 92.688,27 92.688,27 c -0.654,1.742 -12.626,1.281 -12.626,1.281 -0.217,3.486 -5.009,8.504 -7.187,9.375 -2.178,0.871 -2.625,4.156 -2.625,4.156 l 2.406,1.938 c -1.306,3.484 0.875,6.312 0.875,6.312 l 6.531,0.657 c -0.435,1.089 -5.656,1.75 -5.656,1.75 -1.743,0 -2.844,5.219 -2.844,5.219 1.96,0 12.844,11.781 12.844,11.781 l 3.063,0 c 18.511,-19.821 27.441,1.093 27.441,1.093 -71.881,71.228 -31.16,95.598 -31.16,95.598 0,0 6.533,6.56 50.53,5.9 44,-0.65 44.66,-12.87 44.66,-12.87 5.01,-1.31 3.94,-3.69 3.94,-3.69 0,0 -27.89,-29.4 -14.82,-49.44 30.28,-56.193 10,-75.591 10,-75.591 l 3.06,-1.969 -2.84,-4.125 -8.25,-0.875 c -6.53,-7.841 -21.37,-7.844 -21.37,-7.844 z" transform="translate(0,796.36)" style="fill:url(#v)"/><path id="path297" d="m 182.87,951.86 c 0,0 -27.881,-29.405 -14.812,-49.443 30.277,-56.195 10.02,-75.581 10.02,-75.581 l -4.5742,2.1787 1.5254,3.9199 c 8.0586,35.721 -8.0586,49.226 -11.762,75.58 -3.7031,26.355 15.682,47.048 15.682,47.048 5.0098,-1.3086 3.9219,-3.7031 3.9219,-3.7031 z" style="fill:url(#u)"/><path id="path299" d="m 180.05,829.48 -1.9766,1.2715 c 0,0 6.0938,5.834 6.5996,20.374 0.37891,-11.363 -2.543,-18.238 -4.623,-21.646 z" style="fill:url(#t)"/><path id="path301" d="m 164.65,916.59 c -1.1836,15.701 12.77,32.982 17.016,37.847 1.8203,-1.2266 1.207,-2.5781 1.207,-2.5781 0,0 -16.961,-17.889 -18.223,-35.269 z" style="fill:url(#s)"/><path id="path303" d="m 160,823.78 18.713,-2.4414 -0.41602,-0.6084 -8.2773,-0.87109 c -0.0332,-0.04 -0.0703,-0.0771 -0.10547,-0.11816 l -15.795,3.3857 5.8809,0.65332 z" style="fill:url(#r)"/><path id="path305" d="M 148.66,15.656 C 147.13,18.052 125.81,26.125 125.81,26.125 118.19,24.818 92.688,27 92.688,27 c -0.654,1.742 -12.626,1.281 -12.626,1.281 -0.217,3.486 -5.009,8.504 -7.187,9.375 -2.178,0.871 -2.625,4.156 -2.625,4.156 l 1.188,0.938 c 0.364,-0.495 0.827,-0.912 1.437,-1.156 2.178,-0.871 6.97,-5.891 7.187,-9.375 0,0 11.972,0.43 12.626,-1.313 0,0 25.502,-2.181 33.122,-0.875 0,0 21.32,-8.041 22.85,-10.437 0,0 14.84,0.002 21.37,7.844 l 8.25,0.843 0.97,1.438 1.87,-1.219 -2.84,-4.125 -8.25,-0.875 c -6.53,-7.841 -21.37,-7.844 -21.37,-7.844 z" transform="translate(0,796.36)" style="fill:#fff"/><path id="path307" d="m 72.655,844.04 -0.25781,-0.21094 c 0.04297,0.19629 0.0918,0.38477 0.14551,0.56348 0.03711,-0.11817 0.06738,-0.2334 0.1123,-0.35254 z" style="fill:url(#q)"/><path id="path309" d="m 73.156,53.406 c -0.998,1.5 -1.594,4.282 -1.594,4.282 0.243,0 0.615,0.184 1.094,0.5 0.457,-0.987 1.063,-1.782 1.75,-1.782 0,0 5.221,-0.661 5.656,-1.75 L 73.531,54 c 0,0 -0.164,-0.214 -0.375,-0.594 z" transform="translate(0,796.36)" style="fill:url(#p)"/><path id="path311" d="m 73.526,846.44 3.4521,0.3457 c -0.61524,-0.42871 -1.1055,-0.68555 -1.4004,-0.68555 0,0 1.1641,-5.5918 3.0273,-5.5918 0,0 5.5918,-0.69922 6.0576,-1.8633 l -6.9893,-0.69921 c 0,0 -2.3291,-3.0283 -0.93164,-6.7559 l -0.1748,-0.14356 c -1.333,1.459 -2.7568,2.6035 -3.6943,2.9785 -2.1777,0.87109 -2.6143,4.1387 -2.6143,4.1387 l 2.3965,1.9609 c -1.3066,3.4844 0.87109,6.3154 0.87109,6.3154 z" style="fill:url(#o)"/><path id="path313" d="m 88.844,29.344 c -2.289,0.105 -4.219,4.625 -4.219,4.625 l -2.594,1.719 c 0,0 12.83,2.627 9.563,-3.907 -0.919,-1.837 -1.855,-2.479 -2.75,-2.437 z" transform="translate(0,796.36)" style="fill:url(#n)"/><path id="path315" d="m 80.781,43 c -3.479,0.026 -6.644,0.345 -8.343,0.562 l 0.218,0.188 c -1.306,3.484 0.875,6.312 0.875,6.312 L 80,50.719 C 92.337,50.616 95.312,47.469 95.312,47.469 93.238,43.781 86.581,42.956 80.781,43 Z" transform="translate(0,796.36)" style="fill:url(#m)"/><path id="path317" d="m 72.432,839.94 0.22266,0.18262 c -0.21289,0.56836 -0.32617,1.1162 -0.37793,1.6406 5.2148,-0.58008 17.262,-1.3564 21.142,3.2061 1.4014,-0.625 1.8887,-1.1445 1.8887,-1.1445 -3.3193,-5.9004 -18.342,-4.4648 -22.875,-3.8848 z" style="fill:url(#l)"/><path id="path319" d="m 94,835.98 c 0,0 9.585,4.1377 8.0596,11.762 0,0 5.6631,-10.237 -8.0596,-11.762 z" style="fill:url(#k)"/><path id="path321" d="m 118.61,833.37 7.8408,-3.0488 c 0,0 3.9199,13.723 15.9,2.831 l 4.3574,1.3076 c 0,0 -6.3164,-20.039 -18.515,-6.9707 l -9.584,5.8809 z" style="fill:url(#j)"/><path id="path323" d="m 142.35,833.15 c -11.199,10.183 -15.355,-1.1465 -15.849,-2.665 l -7.8926,4.8438 7.8408,-3.0498 c 0,0 3.9199,13.723 15.9,2.832 l 4.3574,1.3066 c 0,0 -0.28906,-0.91113 -0.85937,-2.2178 l -3.498,-1.0498 z" style="fill:url(#i)"/><path id="path325" d="m 138,833.59 c 0,0 3.7031,-7.623 -6.3164,-6.5342 0,0 11.762,-4.3555 6.3164,6.5342 z" style="fill:#fff"/><path id="path327" d="m 158.33,838.06 c -1.2598,0.40039 -2.0234,1.6797 -1.7774,2.9785 1.6856,8.8838 0.32422,15.565 -4.0449,19.857 -9.9238,9.752 -32.27,5.2412 -32.494,5.1943 -1.3721,-0.28516 -2.7246,0.56152 -3.0674,1.919 -0.34277,1.3584 0.44433,2.7451 1.7861,3.1445 19.184,5.7158 32.449,4.5527 39.428,-3.459 9.168,-10.523 3.4121,-28.065 3.3398,-28.226 -0.54687,-1.2041 -1.9082,-1.8086 -3.1699,-1.4092 z" style="fill:url(#h)"/><path id="path329" d="m 97.812,101.38 22.528,52.28 c 1.31,-29.41 -22.528,-52.28 -22.528,-52.28 z" transform="translate(0,796.36)" style="fill:url(#g)"/><path id="path331" d="m 118.44,67 -3.53,3.562 C 43.029,141.79 83.75,166.16 83.75,166.16 c 0,0 6.34,6.33 48.5,5.9 -37.701,-0.39 -43.625,-6.31 -43.625,-6.31 0,0 -42.2,-25.29 29.815,-98.75 z" transform="translate(0,796.36)" style="fill:url(#f)"/><path id="path333" d="m 171.11,959.7 -81.897,3.2656 0,18.732 c 0,0 -15.424,10.355 -15.671,14.41 11.814,4.1934 31.401,6.9356 53.569,6.9356 27.079,0 50.308,-4.0899 60.222,-9.918 -2.3242,-2.3203 -11.492,-11.307 -16.223,-13.389 l 0,-20.037 z" style="fill:url(#e)"/><path id="path335" d="m 91.169,964.85 0,15.48 c 9.917,2.7031 22.69,4.1992 36.266,4.1992 16.23,0 31.607,-2.2188 41.711,-5.9336 l 0,-16.857 c -3.7852,0.15234 -74.475,2.9707 -77.977,3.1113 z" style="fill:url(#d)"/><path id="path337" d="m 89.209,970.46 c 9.8213,2.5156 22.699,4.0449 36.81,4.0449 18.535,0 34.949,-2.6348 45.088,-6.6836 l 0,-8.127 -81.897,3.2656 0,7.5 z" style="fill:url(#c)"/><path id="path339" d="m 89.426,984.75 c 0,0 -10.021,6.0996 -10.892,9.3652 0,0 22.435,9.3672 71.226,2.6153 l -60.334,-11.98 z" style="fill:url(#b)"/></g></svg>