<svg xmlns="http://www.w3.org/2000/svg" xmlns:svg="http://www.w3.org/2000/svg" xmlns:xlink="http://www.w3.org/1999/xlink" id="svg12385" width="128" height="128" version="1.1" viewBox="0 0 128 128"><defs id="defs12387"><linearGradient id="linearGradient7188" x1="670.531" x2="660.56" y1="513.038" y2="505.564" gradientTransform="matrix(5.1785292,0,0,5.1785292,-3398.0209,-1630.5234)" gradientUnits="userSpaceOnUse" xlink:href="#linearGradient7182"/><linearGradient id="linearGradient7182"><stop style="stop-color:#077cff;stop-opacity:1" id="stop7184" offset="0"/><stop style="stop-color:#aef;stop-opacity:1" id="stop7186" offset="1"/></linearGradient><linearGradient id="linearGradient7204" x1="674.322" x2="678.281" y1="509.984" y2="505.981" gradientTransform="matrix(5.1785292,0,0,5.1785292,-3403.6705,-1625.1762)" gradientUnits="userSpaceOnUse" xlink:href="#linearGradient7198"/><linearGradient id="linearGradient7198"><stop style="stop-color:red;stop-opacity:1" id="stop7200" offset="0"/><stop style="stop-color:#a00;stop-opacity:1" id="stop7202" offset="1"/></linearGradient><linearGradient id="linearGradient7196" x1="680.453" x2="673.868" y1="516.938" y2="512.43" gradientTransform="matrix(5.1785292,0,0,5.1785292,-3397.9854,-1630.5234)" gradientUnits="userSpaceOnUse" xlink:href="#linearGradient7190"/><linearGradient id="linearGradient7190"><stop style="stop-color:#ecfe09;stop-opacity:1" id="stop7192" offset="0"/><stop style="stop-color:#ff9f00;stop-opacity:1" id="stop7194" offset="1"/></linearGradient><linearGradient id="XMLID_8_" x1="74.5" x2="74.5" y1="5.048" y2="124.24" gradientTransform="matrix(1.0333334,0,0,1.0333334,-146.78079,923.78137)" gradientUnits="userSpaceOnUse"><stop style="stop-color:#fff" id="stop4539" offset="0"/><stop style="stop-color:#e1e1df" id="stop4541" offset="1"/></linearGradient><linearGradient id="XMLID_9_" x1="74.5" x2="74.5" y1="11.081" y2="121.467" gradientTransform="matrix(1.0333334,0,0,1.0333334,-146.99926,923.78137)" gradientUnits="userSpaceOnUse"><stop style="stop-color:#fdfdfd" id="stop4546" offset="0"/><stop style="stop-color:#f3f2f2" id="stop4548" offset=".298"/><stop style="stop-color:#d7d6d6" id="stop4550" offset=".817"/><stop style="stop-color:#cccbca" id="stop4552" offset="1"/></linearGradient><radialGradient id="XMLID_10_" cx="110" cy="32.869" r="15.596" gradientTransform="matrix(1.0333334,0,0,1.0333334,-146.78079,923.78137)" gradientUnits="userSpaceOnUse"><stop style="stop-color:#8e8e8f" id="stop4557" offset=".213"/><stop style="stop-color:#eee" id="stop4559" offset=".927"/></radialGradient><linearGradient id="XMLID_11_" x1="92.023" x2="104.273" y1="9.947" y2="32.947" gradientTransform="matrix(1.0333334,0,0,1.0333334,-146.78079,923.78137)" gradientUnits="userSpaceOnUse"><stop style="stop-color:#fffefe" id="stop4566" offset="0"/><stop style="stop-color:#cfd0d0" id="stop4568" offset="1"/></linearGradient><linearGradient id="XMLID_12_" x1="99.53" x2="105.905" y1="5.181" y2="31.931" gradientTransform="matrix(1.0333334,0,0,1.0333334,-146.78079,923.78137)" gradientUnits="userSpaceOnUse"><stop style="stop-color:#fcfdfd" id="stop4573" offset="0"/><stop style="stop-color:#eee" id="stop4575" offset="1"/></linearGradient><linearGradient id="linearGradient44699"><stop style="stop-color:#000173;stop-opacity:.93333334" id="stop44701" offset="0"/><stop style="stop-color:#3575f0;stop-opacity:1" id="stop44703" offset="1"/></linearGradient><linearGradient id="linearGradient44693"><stop style="stop-color:#3690e6;stop-opacity:1" id="stop44695" offset="0"/><stop style="stop-color:#d0e9ff;stop-opacity:1" id="stop44697" offset="1"/></linearGradient><linearGradient id="linearGradient44681"><stop style="stop-color:#ff5c38;stop-opacity:1" id="stop44683" offset="0"/><stop style="stop-color:#fb7e65;stop-opacity:.99607843" id="stop44685" offset=".304"/><stop style="stop-color:#cd0000;stop-opacity:.98039216" id="stop44687" offset="1"/></linearGradient><linearGradient id="linearGradient44627"><stop style="stop-color:#fffcfb;stop-opacity:1" id="stop44629" offset="0"/><stop style="stop-color:#f4ad94;stop-opacity:1" id="stop44633" offset="1"/></linearGradient><linearGradient id="linearGradient44615"><stop style="stop-color:#2f68fa;stop-opacity:1" id="stop44617" offset="0"/><stop style="stop-color:#c7d5fb;stop-opacity:1" id="stop44619" offset="1"/></linearGradient><linearGradient id="linearGradient44605"><stop style="stop-color:#d0ecff;stop-opacity:1" id="stop44607" offset="0"/><stop style="stop-color:#d7f0ff;stop-opacity:1" id="stop44609" offset=".5"/><stop style="stop-color:#fff;stop-opacity:1" id="stop44611" offset="1"/></linearGradient><linearGradient id="linearGradient44090"><stop style="stop-color:#0926bb;stop-opacity:1" id="stop44092" offset="0"/><stop style="stop-color:#6bb5fe;stop-opacity:1" id="stop44094" offset="1"/></linearGradient><linearGradient id="linearGradient44080"><stop style="stop-color:#2c8300;stop-opacity:1" id="stop44082" offset="0"/><stop style="stop-color:#57aeff;stop-opacity:1" id="stop44084" offset=".25"/><stop style="stop-color:#fff;stop-opacity:1" id="stop44086" offset=".5"/><stop style="stop-color:#5aafff;stop-opacity:1" id="stop44088" offset="1"/></linearGradient><filter id="filter3297"><feGaussianBlur id="feGaussianBlur3299" stdDeviation=".267"/></filter><filter id="filter3293"><feGaussianBlur id="feGaussianBlur3295" stdDeviation=".355"/></filter><linearGradient id="linearGradient3219"><stop style="stop-color:#0e7309;stop-opacity:1" id="stop3221" offset="0"/><stop style="stop-color:#70d13e;stop-opacity:1" id="stop3223" offset="1"/></linearGradient><radialGradient id="radialGradient44048" cx="53.602" cy="59.729" r="17.834" fx="53.602" fy="59.729" gradientTransform="matrix(0,1.655849,-1.6391884,0,152.15006,-32.923726)" gradientUnits="userSpaceOnUse" xlink:href="#linearGradient44627"/><radialGradient id="radialGradient44061" cx="479.683" cy="709.658" r="5.006" fx="479.683" fy="709.658" gradientTransform="matrix(0.856113,-0.0637264,0.1161478,1.5603521,-743.30707,-121.7687)" gradientUnits="userSpaceOnUse" xlink:href="#linearGradient44605"/><linearGradient id="linearGradient44067" x1="517.022" x2="517.022" y1="705.484" y2="745.301" gradientTransform="matrix(-1,0,0,1,253.42404,245.75912)" gradientUnits="userSpaceOnUse" xlink:href="#linearGradient44090"/><linearGradient id="linearGradient44070" x1="517.022" x2="517.022" y1="705.484" y2="745.301" gradientTransform="translate(-730.02214,245.75912)" gradientUnits="userSpaceOnUse" xlink:href="#linearGradient44090"/><radialGradient id="radialGradient44073" cx="491.522" cy="670.925" r="36.427" fx="491.522" fy="670.925" gradientTransform="matrix(0,2.0237831,-1.9580539,0,1075.328,-66.735647)" gradientUnits="userSpaceOnUse" xlink:href="#linearGradient44080"/><linearGradient id="linearGradient44076" x1="83.281" x2="83.281" y1="123.098" y2="66.311" gradientTransform="translate(-282.47353,882.69271)" gradientUnits="userSpaceOnUse" xlink:href="#linearGradient44699"/><linearGradient id="linearGradient44613" x1="-246.577" x2="-248.777" y1="958.08" y2="964.617" gradientUnits="userSpaceOnUse" xlink:href="#linearGradient44615"/><linearGradient id="linearGradient44625" x1="-246.577" x2="-248.777" y1="958.08" y2="964.617" gradientTransform="matrix(-1,0,0,1,-476.93424,0)" gradientUnits="userSpaceOnUse" xlink:href="#linearGradient44615"/><linearGradient id="linearGradient44667" x1="517.022" x2="517.022" y1="705.484" y2="745.301" gradientTransform="translate(-772.48144,227.87334)" gradientUnits="userSpaceOnUse" xlink:href="#linearGradient3219"/><linearGradient id="linearGradient44677" x1="60.127" x2="60.127" y1="81.914" y2="47.543" gradientUnits="userSpaceOnUse" xlink:href="#linearGradient44681"/><linearGradient id="linearGradient44691" x1="-35.567" x2="-35.567" y1="76.563" y2="84.91" gradientUnits="userSpaceOnUse" xlink:href="#linearGradient44693"/><filter style="color-interpolation-filters:sRGB" id="filter6492" width="1.139" height="1.139" x="-.07" y="-.07"><feGaussianBlur id="feGaussianBlur6494" stdDeviation="1.57"/></filter></defs><metadata id="metadata12390"/><g id="layer1" transform="translate(0,-924.3622)"><g id="g6503" transform="matrix(0.99795243,0,0,0.99698502,0,2.7869542)"><g id="g3498" transform="matrix(1.0744262,0,0,1.0744262,311.32522,-38.345169)"><path style="fill:#000;fill-opacity:0;fill-rule:evenodd;stroke:url(#linearGradient44667);stroke-width:1.5;stroke-linecap:butt;stroke-linejoin:miter;stroke-miterlimit:4;stroke-dasharray:none;stroke-opacity:1" id="path3217" d="m -263.35265,933.74757 c 8.46364,9.0621 14.91528,24.09751 16.80551,38.65267"/><path style="fill:#000;fill-opacity:.50196078;stroke:none;stroke-width:1.33686185;stroke-linecap:square;stroke-linejoin:miter;stroke-miterlimit:4;stroke-dasharray:none;stroke-dashoffset:0;stroke-opacity:1;filter:url(#filter3297)" id="path44010" d="m -237.54657,906.14303 c -14.71669,0 -26.69498,11.97829 -26.69498,26.69498 0,14.71669 11.97829,26.69498 26.69498,26.69498 14.71668,0 26.69497,-11.97829 26.69497,-26.69498 0,-14.71669 -11.97829,-26.69498 -26.69497,-26.69498 z"/><path style="fill:#000;fill-opacity:.50196078;stroke:none;stroke-width:1.5;stroke-linecap:square;stroke-linejoin:miter;stroke-miterlimit:4;stroke-dashoffset:0;stroke-opacity:1;filter:url(#filter3293)" id="path44012" d="m -237.62978,943.41146 c -21.63445,0 -39.1875,17.34747 -39.1875,38.75 l 0,6.125 c 0,6.05287 6.27536,18.75004 28.90625,18.75004 l 20.53125,0 c 22.63038,0 28.9375,-12.07968 28.9375,-18.75004 l 0,-6.125 c 0,-21.40254 -17.55305,-38.75 -39.1875,-38.75 z"/><path style="fill:url(#linearGradient44076);fill-opacity:1;stroke:none;stroke-width:1.5;stroke-linecap:square;stroke-linejoin:miter;stroke-miterlimit:4;stroke-dashoffset:0;stroke-opacity:1" id="path44014" d="m -238.37978,942.16146 c -21.63445,0 -39.1875,17.34747 -39.1875,38.75 l 0,6.125 c 0,6.05287 6.27536,18.75004 28.90625,18.75004 l 20.53125,0 c 22.63038,0 28.9375,-12.07968 28.9375,-18.75004 l 0,-6.125 c 0,-21.40254 -17.55305,-38.75 -39.1875,-38.75 z"/><path style="fill:url(#radialGradient44073);fill-opacity:1;stroke:none;stroke-width:1.5;stroke-linecap:square;stroke-linejoin:miter;stroke-miterlimit:4;stroke-dashoffset:0;stroke-opacity:1" id="path44016" d="m -238.37978,944.32217 c -20.11022,0 -36.4266,15.9074 -36.4266,35.53322 l 0,5.61655 c 0,5.55039 5.83324,17.19346 26.8697,17.19346 l 19.08475,0 c 21.03599,0 26.89875,-11.07683 26.89875,-17.19346 l 0,-5.61655 c 0,-19.62582 -16.31638,-35.53322 -36.4266,-35.53322 z"/><path style="fill:#000;fill-opacity:0;fill-rule:evenodd;stroke:url(#linearGradient44070);stroke-width:1.5;stroke-linecap:butt;stroke-linejoin:miter;stroke-miterlimit:4;stroke-dasharray:none;stroke-opacity:1" id="path44018" d="m -220.89335,951.63335 c 8.46364,9.0621 14.91528,24.09751 16.80551,38.65267"/><path style="fill:#000;fill-opacity:0;fill-rule:evenodd;stroke:url(#linearGradient44067);stroke-width:1.5;stroke-linecap:butt;stroke-linejoin:miter;stroke-miterlimit:4;stroke-dasharray:none;stroke-opacity:1" id="path44020" d="m -255.70476,951.63335 c -8.46364,9.0621 -14.91528,24.09751 -16.80551,38.65267"/><path style="fill:#c5ffbd;fill-opacity:1;fill-rule:evenodd;stroke:url(#linearGradient44613);stroke-width:1px;stroke-linecap:butt;stroke-linejoin:miter;stroke-opacity:1" id="path44022" d="m -245.07157,955.83473 c -2.3027,1.97418 -4.96223,3.5307 -3.72122,8.28271 -5.66073,-1.14662 -9.94971,-8.89011 -6.36208,-14.40472 l 10.0833,6.12201 z"/><path style="fill:url(#linearGradient44691);fill-opacity:1;stroke:none;stroke-width:.85552669;stroke-linecap:square;stroke-linejoin:miter;stroke-miterlimit:4;stroke-dasharray:none;stroke-dashoffset:0;stroke-opacity:1" id="path44024" d="m -36.972118,84.910487 -5.409768,-9.369991 10.819535,-10e-7 -5.409767,9.369992 z" transform="matrix(1.1784451,0,0,0.9316118,-194.72944,886.86434)"/><path style="fill:url(#radialGradient44061);fill-opacity:1;fill-rule:evenodd;stroke:none;stroke-width:1px;stroke-linecap:butt;stroke-linejoin:miter;stroke-opacity:1" id="path44028" d="m -254.93334,950.41537 9,5.46875 c -0.98816,0.81483 -2.01362,1.64574 -2.75,2.78125 -0.74928,1.1554 -0.98341,2.74156 -0.65625,4.71875 -2.36917,-0.72853 -4.49352,-2.64468 -5.65625,-5.0625 -1.20326,-2.5021 -1.34831,-5.40312 0.0625,-7.90625 z"/><path style="fill:#9dcfff;fill-opacity:1;fill-rule:evenodd;stroke:url(#linearGradient44625);stroke-width:1px;stroke-linecap:butt;stroke-linejoin:miter;stroke-opacity:1" id="path44621" d="m -231.86267,955.83473 c 2.3027,1.97418 4.96223,3.5307 3.72122,8.28271 5.66073,-1.14662 9.94971,-8.89011 6.36208,-14.40472 l -10.0833,6.12201 z"/><path style="fill:url(#radialGradient44048);fill-opacity:1;stroke:url(#linearGradient44677);stroke-width:1.33686185;stroke-linecap:square;stroke-linejoin:miter;stroke-miterlimit:4;stroke-dasharray:none;stroke-dashoffset:0;stroke-opacity:1" id="path44030" d="m 76.945221,64.499184 a 17.165627,17.165627 0 1 1 -34.331253,0 17.165627,17.165627 0 1 1 34.331253,0 z" transform="matrix(1.4960409,0,0,1.4960409,-327.73177,835.09337)"/></g><rect id="rect5912" width="128" height="128" x="0" y="924.362" style="opacity:1;fill:#e9feff;fill-opacity:0;stroke:none;stroke-width:8;stroke-linecap:round;stroke-linejoin:round;stroke-miterlimit:4;stroke-dasharray:none;stroke-dashoffset:0;stroke-opacity:1"/><rect id="rect7366" width="128" height="128" x=".263" y="924.749" ry="0" style="opacity:1;fill:#afdde9;fill-opacity:0;stroke:none;stroke-width:.09173347;stroke-linecap:round;stroke-linejoin:round;stroke-miterlimit:4;stroke-dasharray:none;stroke-dashoffset:0;stroke-opacity:1"/><g id="g6496" transform="matrix(1.2919051,0,0,1.2919051,-27.298177,-302.34442)"><circle style="opacity:1;fill:#aaa;fill-opacity:1;stroke:none;stroke-width:8;stroke-linecap:round;stroke-linejoin:round;stroke-miterlimit:4;stroke-dasharray:none;stroke-dashoffset:0;stroke-opacity:1;filter:url(#filter6492)" id="path6474" cx="88.516" cy="1017.007" r="27.065"/><g id="g6469"><path style="fill:url(#linearGradient7188);fill-opacity:1;stroke:#2988d6;stroke-width:.5178529;stroke-miterlimit:4;stroke-dasharray:none;stroke-opacity:1" id="path7165" d="m 88.376417,990.86917 c -14.363614,-0.001 -26.006841,11.64213 -26.005707,26.00563 -0.0012,14.3636 11.642093,26.0069 26.005707,26.0057 14.363563,0 26.006793,-11.6421 26.005653,-26.0057 l -26.005653,0 0,-26.00457 z"/><path id="path7180" d="m 88.411962,1042.8646 0,-26.0067 26.005658,0 c 0.001,14.3646 -11.64096,26.009 -26.005658,26.0067 z" style="fill:url(#linearGradient7196);fill-opacity:1;stroke:#d29a00;stroke-width:.5178529;stroke-miterlimit:4;stroke-dasharray:none;stroke-opacity:1"/><path style="fill:url(#linearGradient7204);fill-opacity:1;stroke:#b22c0e;stroke-width:.5178529;stroke-miterlimit:4;stroke-dasharray:none;stroke-opacity:1" id="path7167" d="m 88.324013,990.81024 0,26.00676 26.005647,0 c 10e-4,-14.3648 -11.6409,-26.00908 -26.005647,-26.00676 z"/></g></g></g></g></svg>