<svg xmlns="http://www.w3.org/2000/svg" xmlns:svg="http://www.w3.org/2000/svg" xmlns:xlink="http://www.w3.org/1999/xlink" id="svg12385" width="128" height="128" version="1.1" viewBox="0 0 128 128"><defs id="defs12387"><filter style="color-interpolation-filters:sRGB" id="filter7261" width="1.134" height="1.135" x="-.067" y="-.067"><feGaussianBlur id="feGaussianBlur7263" stdDeviation=".311"/></filter><linearGradient id="linearGradient7188" x1="670.531" x2="660.56" y1="513.038" y2="505.564" gradientTransform="matrix(1.0041872,0,0,1.0041872,-2.7806753,-2.1773553)" gradientUnits="userSpaceOnUse" xlink:href="#linearGradient7182"/><linearGradient id="linearGradient7182"><stop style="stop-color:#077cff;stop-opacity:1" id="stop7184" offset="0"/><stop style="stop-color:#aef;stop-opacity:1" id="stop7186" offset="1"/></linearGradient><linearGradient id="linearGradient7204" x1="674.322" x2="678.281" y1="509.984" y2="505.981" gradientTransform="matrix(1.0041872,0,0,1.0041872,-2.7806753,-2.1773553)" gradientUnits="userSpaceOnUse" xlink:href="#linearGradient7198"/><linearGradient id="linearGradient7198"><stop style="stop-color:red;stop-opacity:1" id="stop7200" offset="0"/><stop style="stop-color:#a00;stop-opacity:1" id="stop7202" offset="1"/></linearGradient><linearGradient id="linearGradient7196" x1="680.453" x2="673.868" y1="516.938" y2="512.43" gradientTransform="matrix(1.0041872,0,0,1.0041872,-2.7806753,-2.1773553)" gradientUnits="userSpaceOnUse" xlink:href="#linearGradient7190"/><linearGradient id="linearGradient7190"><stop style="stop-color:#ecfe09;stop-opacity:1" id="stop7192" offset="0"/><stop style="stop-color:#ff9f00;stop-opacity:1" id="stop7194" offset="1"/></linearGradient><linearGradient id="linearGradient7359" x1="674.25" x2="678.301" y1="513.316" y2="513.316" gradientUnits="userSpaceOnUse" xlink:href="#linearGradient7353"/><linearGradient id="linearGradient7353"><stop style="stop-color:#afdde9;stop-opacity:1" id="stop7355" offset="0"/><stop style="stop-color:#fff;stop-opacity:0" id="stop7357" offset="1"/></linearGradient><filter style="color-interpolation-filters:sRGB" id="filter7341" width="1.048" height="1.048" x="-.024" y="-.024"><feGaussianBlur id="feGaussianBlur7343" stdDeviation=".039"/></filter><linearGradient id="XMLID_8_" x1="74.5" x2="74.5" y1="5.048" y2="124.24" gradientTransform="matrix(1.0333334,0,0,1.0333334,-146.78079,923.78137)" gradientUnits="userSpaceOnUse"><stop style="stop-color:#fff" id="stop4539" offset="0"/><stop style="stop-color:#e1e1df" id="stop4541" offset="1"/></linearGradient><linearGradient id="XMLID_9_" x1="74.5" x2="74.5" y1="11.081" y2="121.467" gradientTransform="matrix(1.0333334,0,0,1.0333334,-146.99926,923.78137)" gradientUnits="userSpaceOnUse"><stop style="stop-color:#fdfdfd" id="stop4546" offset="0"/><stop style="stop-color:#f3f2f2" id="stop4548" offset=".298"/><stop style="stop-color:#d7d6d6" id="stop4550" offset=".817"/><stop style="stop-color:#cccbca" id="stop4552" offset="1"/></linearGradient><radialGradient id="XMLID_10_" cx="110" cy="32.869" r="15.596" gradientTransform="matrix(1.0333334,0,0,1.0333334,-146.78079,923.78137)" gradientUnits="userSpaceOnUse"><stop style="stop-color:#8e8e8f" id="stop4557" offset=".213"/><stop style="stop-color:#eee" id="stop4559" offset=".927"/></radialGradient><linearGradient id="XMLID_11_" x1="92.023" x2="104.273" y1="9.947" y2="32.947" gradientTransform="matrix(1.0333334,0,0,1.0333334,-146.78079,923.78137)" gradientUnits="userSpaceOnUse"><stop style="stop-color:#fffefe" id="stop4566" offset="0"/><stop style="stop-color:#cfd0d0" id="stop4568" offset="1"/></linearGradient><linearGradient id="XMLID_12_" x1="99.53" x2="105.905" y1="5.181" y2="31.931" gradientTransform="matrix(1.0333334,0,0,1.0333334,-146.78079,923.78137)" gradientUnits="userSpaceOnUse"><stop style="stop-color:#fcfdfd" id="stop4573" offset="0"/><stop style="stop-color:#eee" id="stop4575" offset="1"/></linearGradient></defs><metadata id="metadata12390"/><g id="layer1" transform="translate(0,-924.3622)"><g id="g5938"><rect id="rect5912" width="128" height="128" x="0" y="924.362" style="opacity:1;fill:#e9feff;fill-opacity:0;stroke:none;stroke-width:8;stroke-linecap:round;stroke-linejoin:round;stroke-miterlimit:4;stroke-dasharray:none;stroke-dashoffset:0;stroke-opacity:1"/><rect id="rect7366" width="128" height="128" x=".263" y="924.749" ry="0" style="opacity:1;fill:#afdde9;fill-opacity:0;stroke:none;stroke-width:.09173347;stroke-linecap:round;stroke-linejoin:round;stroke-miterlimit:4;stroke-dasharray:none;stroke-dashoffset:0;stroke-opacity:1"/><g id="g5914"><g id="g5901" transform="matrix(0.99128763,0,0,0.99128763,132.67664,4.6020241)"><path style="opacity:.2" id="path4532" d="m -115.09259,931.0147 c -1.91167,0 -3.7882,1.891 -3.7882,3.81714 0,109.93636 0,109.93636 0,113.46726 0,4.0475 4.13333,4.6489 4.13333,4.6489 l 89.90001,0 c 0,0 4.13333,-0.2769 4.13333,-4.1519 0,-3.875 0,-81.09496 0,-81.09496 0,-5.37023 -28.597498,-36.68644 -36.027165,-36.68644 l -58.351305,0 z"/><path style="opacity:.2" id="path4534" d="m -115.09259,932.04804 c -1.91167,0 -3.7882,1.891 -3.7882,3.81713 0,109.93633 0,109.93633 0,113.46723 0,4.0476 5.16667,4.649 5.16667,4.649 l 87.83334,0 c 0,0 5.16666,-0.277 5.16666,-4.152 0,-3.875 0,-81.09493 0,-81.09493 0,-5.37023 -28.597498,-36.68643 -36.027165,-36.68643 l -58.351305,0 z"/><path style="opacity:.6;fill:#262626" id="path4536" d="m -115.09259,929.98137 c -1.91167,0 -3.7882,1.891 -3.7882,3.81713 0,109.9363 0,109.9363 0,113.4672 0,4.0476 3.1,4.649 3.1,4.649 l 91.96667,0 c 0,0 3.1,-0.2769 3.1,-4.1519 0,-3.875 0,-81.09499 0,-81.09499 0,-5.37024 -28.597498,-36.68644 -36.027165,-36.68644 l -58.351305,0 z"/><path style="fill:url(#XMLID_8_)" id="path4543" d="m -21.74745,1047.8981 c 0,2.6702 -2.47793,2.9833 -2.47793,2.9833 l -91.04081,0 c 0,0 -2.58127,-0.4909 -2.58127,-3.1858 0,-20.4776 0,-112.6912 0,-113.8971 0,-1.364 1.4043,-2.7838 2.75487,-2.7838 1.02713,0 50.084638,0 58.351305,0 7.2664,0 34.993835,31.33687 34.993835,35.65414 0,4.77297 0,65.24986 0,81.22926 z"/><path style="fill:url(#XMLID_9_)" id="path4554" d="m -22.99925,1047.0394 c 0,2.5637 -2.06667,2.8086 -2.06667,2.8086 l -89.90001,0 c 0,0 -2.06667,-0.1684 -2.06667,-2.3239 0,-18.6155 0,-112.50316 0,-113.7256 0,-1.364 1.3609,-2.7838 2.6691,-2.7838 0.99614,0 49.454308,0 57.463675,0 7.040101,0 33.900575,31.33687 33.900575,35.65414 0,4.78433 0,64.76316 0,80.37056 z"/><path style="fill:url(#XMLID_10_)" id="path4561" d="m -22.78078,964.08137 c 0,7.41934 -2.914,13.43334 -10.33334,13.43334 -7.419331,0 -16.533331,-6.014 -16.533331,-13.43334 0,-7.41933 2.914,-9.3 10.333334,-9.3 7.419337,0 11.366667,4.13334 16.533337,9.3 z"/><path style="opacity:.5;fill:#343434" id="path4563" d="m -59.551952,930.97647 c 0.565233,0 0.978567,0.002 3.736534,1.23277 4.3214,1.95403 4.239766,22.96583 4.239766,27.5621 l -0.001,0.13227 c 0,0.53836 0.4123,0.99096 0.9486,1.0354 6.172101,0.51253 24.095262,-0.87627 27.286202,4.1602 1.23896,1.6616 1.4105,2.95326 1.98193,2.95326 0.57143,0 0.64583,-0.8122 0.64583,-1.38363 0,-0.82357 -0.26556,-1.62647 -0.79153,-2.50893 -0.004,-0.009 -0.002,-0.0186 -0.006,-0.0269 -0.0145,-0.0289 -0.0393,-0.0672 -0.0548,-0.0971 l 0,-10e-4 c -2.38183,-4.85563 -26.649662,-31.3937 -33.432462,-33.67633 -0.0062,-0.002 -0.0072,-0.008 -0.0124,-0.0103 -0.0072,-0.003 -0.0155,-0.002 -0.0217,-0.004 -0.0217,-0.008 -0.05063,-0.0238 -0.07233,-0.032 -0.09713,-0.03 -0.193234,-0.0424 -0.2883,-0.0444 -0.4433,-0.1488 -0.8897,-0.28623 -1.347467,-0.28623 -0.524934,0 -2.750734,0.47223 -2.810667,0.9951 z"/><path style="fill:url(#XMLID_11_)" id="path4570" d="m -21.74745,966.66884 c -3.4875,-8.91663 -28.795901,-6.76007 -28.795901,-6.76007 -0.134334,2.7559 1.548966,-28.89407 -6.197934,-28.89407 7.267434,0 34.993835,32.87447 34.993835,35.65414 z"/><path style="fill:url(#XMLID_12_)" id="path4577" d="m -21.74745,966.66884 c -1.55,-8.2057 -27.641668,-8.33487 -27.641668,-8.33487 -0.02583,2.75487 0.283133,-27.31927 -7.352167,-27.31927 7.267434,0 34.993835,32.87447 34.993835,35.65414 z"/></g><g id="g7504" transform="matrix(7.5258686,0,0,7.5258686,-5010.3565,-2848.5915)"><g style="fill:gray;filter:url(#filter7261)" id="g7211" transform="matrix(1.0041872,0,0,1.0041872,-2.5610094,-2.0832128)"><path style="fill:gray;fill-opacity:1" id="path7213" d="m 673.24083,506.20406 c -2.77368,-2.2e-4 -5.02205,2.24814 -5.02183,5.02182 -2.2e-4,2.77369 2.24815,5.02205 5.02183,5.02183 2.77368,2.2e-4 5.02204,-2.24814 5.02182,-5.02183 l -5.02182,-2.2e-4 0,-5.0216 z"/><path style="fill:gray;fill-opacity:1" id="path7215" d="m 674.32168,505.1601 0,5.02204 5.02182,0 c 2.3e-4,-2.7739 -2.24792,-5.02249 -5.02182,-5.02204 z"/><path id="path7217" d="m 673.24083,516.24464 0,-5.02204 5.02182,0 c 2.3e-4,2.7739 -2.24792,5.02249 -5.02182,5.02204 z" style="fill:gray;fill-opacity:1"/></g><path style="fill:url(#linearGradient7188);fill-opacity:1;stroke:#2988d6;stroke-width:.10041872;stroke-miterlimit:4;stroke-dasharray:none;stroke-opacity:1" id="path7165" d="m 673.27915,506.14628 c -2.7853,-2.2e-4 -5.04308,2.25756 -5.04286,5.04285 -2.2e-4,2.7853 2.25756,5.04308 5.04286,5.04286 2.78529,2.2e-4 5.04307,-2.25756 5.04285,-5.04286 l -5.04285,-2.2e-4 0,-5.04263 z"/><path style="fill:url(#linearGradient7204);fill-opacity:1;stroke:#b22c0e;stroke-width:.10041872;stroke-miterlimit:4;stroke-dasharray:none;stroke-opacity:1" id="path7167" d="m 674.36452,505.09795 0,5.04307 5.04285,0 c 2.3e-4,-2.78552 -2.25733,-5.04352 -5.04285,-5.04307 z"/><path id="path7180" d="m 673.27915,516.2289 0,-5.04306 5.04285,0 c 2.3e-4,2.78551 -2.25734,5.04352 -5.04285,5.04306 z" style="fill:url(#linearGradient7196);fill-opacity:1;stroke:#d29a00;stroke-width:.10041872;stroke-miterlimit:4;stroke-dasharray:none;stroke-opacity:1"/></g><g id="g7513" transform="matrix(4.7275301,0,0,4.7275301,-3122.2694,-1412.2716)"><path id="rect7312" d="m 680.5709,515.18194 0.42948,-0.4234 c 0.28724,-0.28317 0.73961,-0.27315 1.02437,0.0129 l 2.76512,2.77431 c 0.28485,0.28563 0.27458,0.75171 -0.0128,1.03491 l -0.42947,0.42337 c -0.28727,0.2832 -0.73964,0.27316 -1.02439,-0.0129 l -2.7651,-2.77431 c -0.28485,-0.28565 -0.27461,-0.75172 0.0129,-1.0349 z" style="fill:#00512b;fill-opacity:1;stroke:none"/><path id="path7314" d="m 678.51881,508.54349 a 4.1896954,4.2327617 0 0 0 -4.18985,4.23391 4.1896954,4.2327617 0 0 0 4.18985,4.23389 4.1896954,4.2327617 0 0 0 4.18987,-4.23389 4.1896954,4.2327617 0 0 0 -4.18987,-4.23391 z m 0,1.0915 a 3.1113975,3.1433796 0 0 1 3.11096,3.14241 3.1113975,3.1433796 0 0 1 -3.11096,3.1424 3.1113975,3.1433796 0 0 1 -3.11093,-3.1424 3.1113975,3.1433796 0 0 1 3.11093,-3.14241 z" style="fill:#3d3d3d;fill-opacity:1;stroke:none"/><ellipse style="fill:url(#linearGradient7359);fill-opacity:1;stroke:none;filter:url(#filter7341)" id="ellipse7329" cx="676.275" cy="513.316" rx="1.932" ry="1.952" transform="matrix(1.6105179,0,0,1.6105179,-410.63488,-313.92793)"/></g></g></g></g></svg>