<svg xmlns="http://www.w3.org/2000/svg" xmlns:pdf="http://ns.adobe.com/pdf/1.3/" xmlns:svg="http://www.w3.org/2000/svg" xmlns:x="adobe:ns:meta/" xmlns:xap="http://ns.adobe.com/xap/1.0/" xmlns:xapGImg="http://ns.adobe.com/xap/1.0/g/img/" xmlns:xapMM="http://ns.adobe.com/xap/1.0/mm/" xmlns:xlink="http://www.w3.org/1999/xlink" id="svg797" style="overflow:visible" width="128" height="128" enable-background="new 0 0 256 256" overflow="visible" version="1.1" viewBox="0 0 128 128" xml:space="preserve"><defs id="defs891"><linearGradient id="linearGradient6398"><stop style="stop-color:#d33900;stop-opacity:1" id="stop6400" offset="0"/><stop style="stop-color:#ffa048;stop-opacity:1" id="stop6402" offset="1"/></linearGradient><linearGradient id="XMLID_12_" x1="129" x2="129" y1="11" y2="245" gradientUnits="userSpaceOnUse"><stop id="stop804" offset="0" style="stop-color:#494949"/><stop id="stop805" offset="1" style="stop-color:#000"/></linearGradient><linearGradient id="XMLID_13_" x1="29.053" x2="226.947" y1="29.053" y2="226.947" gradientUnits="userSpaceOnUse"><stop id="stop812" offset="0" style="stop-color:#fff"/><stop id="stop813" offset="1" style="stop-color:#dadada"/></linearGradient><linearGradient id="XMLID_14_" x1="45.19" x2="179.074" y1="106.276" y2="106.276" gradientUnits="userSpaceOnUse"><stop id="stop820" offset="0" style="stop-color:#7c74ff"/><stop id="stop821" offset="1" style="stop-color:#7d7d99"/></linearGradient><linearGradient id="XMLID_15_" x1="94.691" x2="169.782" y1="139.84" y2="139.84" gradientTransform="matrix(4.1568559,0,0,4.1568559,-345.22618,-415.58512)" gradientUnits="userSpaceOnUse"><stop id="stop828" offset="0" style="stop-color:#dadada;stop-opacity:1"/><stop id="stop829" offset="1" style="stop-color:#b1b1b1;stop-opacity:1"/></linearGradient><linearGradient id="XMLID_16_" x1="155.634" x2="155.634" y1="165.068" y2="121.866" gradientTransform="matrix(4.1568559,0,0,4.1568559,-345.22618,-415.58512)" gradientUnits="userSpaceOnUse"><stop id="stop839" offset="0" style="stop-color:#c77700"/><stop id="stop840" offset="1" style="stop-color:#e1ab1a"/></linearGradient><linearGradient id="XMLID_17_" x1="149.477" x2="149.477" y1="111.806" y2="151.733" gradientTransform="matrix(4.1568559,0,0,4.1568559,-345.22618,-415.58512)" gradientUnits="userSpaceOnUse"><stop id="stop846" offset="0" style="stop-color:#ffbc50"/><stop id="stop847" offset="1" style="stop-color:#fff030"/></linearGradient><linearGradient id="XMLID_18_" x1="119.596" x2="120.369" y1="160.863" y2="150.032" gradientTransform="matrix(4.1568559,0,0,4.1568559,-345.22618,-415.58512)" gradientUnits="userSpaceOnUse"><stop id="stop853" offset="0" style="stop-color:#0053bd"/><stop id="stop854" offset="1" style="stop-color:#006dff"/></linearGradient><linearGradient id="XMLID_19_" x1="92.953" x2="147.094" y1="138.575" y2="138.575" gradientTransform="matrix(4.1568559,0,0,4.1568559,-345.22618,-415.58512)" gradientUnits="userSpaceOnUse"><stop id="stop860" offset="0" style="stop-color:#fcfcfc;stop-opacity:1"/><stop id="stop861" offset="1" style="stop-color:#c2c2c2;stop-opacity:1"/></linearGradient><linearGradient id="XMLID_20_" x1="147.099" x2="147.099" y1="124.836" y2="211.278" gradientTransform="matrix(4.1568559,0,0,4.1568559,-345.22618,-415.58512)" gradientUnits="userSpaceOnUse"><stop id="stop868" offset="0" style="stop-color:#093"/><stop id="stop869" offset="1" style="stop-color:#006a00"/></linearGradient><linearGradient id="XMLID_21_" x1="91.051" x2="203.144" y1="184.594" y2="184.594" gradientTransform="matrix(4.1568559,0,0,4.1568559,-345.22618,-415.58512)" gradientUnits="userSpaceOnUse"><stop id="stop875" offset="0" style="stop-color:#ffd67f;stop-opacity:1"/><stop id="stop876" offset="1" style="stop-color:#fb5600;stop-opacity:1"/></linearGradient><linearGradient id="XMLID_22_" x1="91.051" x2="203.144" y1="163.098" y2="163.098" gradientTransform="matrix(4.1568559,0,0,4.1568559,-345.22618,-415.58512)" gradientUnits="userSpaceOnUse"><stop id="stop882" offset="0" style="stop-color:#ffcc74;stop-opacity:1"/><stop id="stop883" offset="1" style="stop-color:#f04e00;stop-opacity:1"/></linearGradient><linearGradient id="linearGradient6404" x1="417.83" x2="159.768" y1="196.027" y2="452.44" gradientUnits="userSpaceOnUse" xlink:href="#linearGradient6398"/></defs><metadata id="metadata798"><xpacket>begin=&apos; &apos; id=&apos;W5M0MpCehiHzreSzNTczkc9d&apos;</xpacket><x:xmpmeta x:xmptk="XMP toolkit 3.0-29, framework 1.6"><metadata/></x:xmpmeta><xpacket>end=&apos;w&apos;</xpacket></metadata><g id="g6406" transform="matrix(0.22725986,0,0,0.22725986,2.6593779,2.7046553)"><path style="fill:url(#XMLID_15_)" id="path833" d="M 280.6633,223.21555 390.48743,94.743765 372.60048,87.760247 C 334.87286,73.015879 291.91591,65.225931 248.37284,65.225931 c -21.66969,0 -78.88465,13.389233 -78.88465,13.389233 C 101.09544,99.549091 48.63176,140.86824 28.562459,191.56941 l -6.08148,15.35958 213.217611,38.57978 8.2181,20.68867 14.20814,-16.62742 35.55358,6.43066 -13.01511,-32.78513 z"/><g style="opacity:.2" id="g834" transform="matrix(4.1568559,0,0,4.1568559,-345.22618,-415.58512)"><path id="path835" d="m 175.047,126.381 c 0,0 -24.84,29.695 -26.383,31.541 -2.398,-0.443 -51.616,-9.547 -51.616,-9.547 -2.188,-0.406 -4.393,0.975 -5.018,3.143 l -0.078,0.27 c -1.324,4.541 -1.996,8.211 -1.996,10.906 l 0,9.904 c 0,23.746 27.107,43.068 60.426,43.068 33.32,0 60.428,-19.322 60.428,-43.068 l -0.006,-6.875 c 0,-0.389 -0.018,-0.791 -0.047,-1.191 0.006,-0.053 0.031,-0.098 0.031,-0.152 0,-0.002 -0.004,-1.031 -0.004,-1.031 0,0.002 0,0.004 0,0.006 0,0.193 -0.063,0.367 -0.109,0.545 -0.002,-0.025 -0.012,-0.051 -0.016,-0.076 0.043,-0.176 0.121,-0.314 0.131,-0.527 0,0 0.018,-0.533 0.018,-0.535 0,-15.658 -11.793,-30.053 -30.779,-37.637 -1.761,-0.705 -3.765,-0.199 -4.982,1.256 m 34.359,38.973 c -0.014,0.008 -0.023,0.023 -0.037,0.029 -0.012,0.006 -0.027,0.006 -0.039,0.01 0.027,-0.01 0.051,-0.03 0.076,-0.039 z"/></g><g style="opacity:.2" id="g836" transform="matrix(4.1568559,0,0,4.1568559,-345.22618,-415.58512)"><path id="path837" d="m 173.951,124.191 c 0,0 -24.838,29.695 -26.383,31.541 -2.398,-0.445 -51.615,-9.547 -51.615,-9.547 -2.188,-0.406 -4.393,0.975 -5.018,3.143 l -0.078,0.27 c -1.324,4.539 -1.996,8.211 -1.996,10.904 l 0,9.904 c 0,23.748 27.106,43.07 60.427,43.07 33.318,0 60.426,-19.322 60.426,-43.07 l -0.004,-6.873 c -0.002,-0.389 -0.02,-0.791 -0.047,-1.191 0.004,-0.053 0.029,-0.098 0.029,-0.152 0,-0.002 -0.004,-1.031 -0.004,-1.031 0,0.002 0,0.004 0,0.006 0,0.193 -0.061,0.365 -0.107,0.543 -0.004,-0.023 -0.012,-0.049 -0.018,-0.074 0.045,-0.176 0.123,-0.314 0.133,-0.527 l 0.016,-0.535 c 0,-15.658 -11.793,-30.053 -30.777,-37.637 -1.763,-0.706 -3.765,-0.201 -4.984,1.256 m 34.36,38.973 c -0.014,0.008 -0.021,0.021 -0.035,0.029 -0.014,0.006 -0.027,0.004 -0.039,0.01 0.025,-0.01 0.05,-0.029 0.074,-0.039 z"/></g><path style="fill:url(#XMLID_16_)" id="path844" d="m 243.48022,90.990124 0,179.588646 116.47926,-139.26299 c 0,-24.24278 0,-30.87712 0,-30.87712 -21.58655,0.004 -74.21235,-5.013171 -116.47926,-9.448536 z"/><path style="fill:url(#XMLID_17_)" id="path851" d="m 243.48022,78.881203 c -20.8591,0 -41.05726,6.468068 -60.29519,10.030493 L 252.59205,239.70164 369.07131,100.43866 C 325.68205,86.754288 285.93419,78.881203 243.48022,78.881203 Z"/><path style="fill:url(#XMLID_18_)" id="path858" d="m 41.166046,222.82481 225.056334,41.62675 0,-30.87712 -225.056334,-41.62676 c 0,0 0,5.49952 0,30.87713 z"/><path style="fill:url(#XMLID_19_)" id="path865" d="M 41.166046,196.49528 266.22238,238.13035 205.91472,82.776177 C 125.72065,97.56627 62.598795,141.14259 41.166046,196.49528 Z"/><path style="opacity:.5;fill:#fff" id="path866" d="m 207.88922,87.864169 -1.9745,-5.092149 C 125.72065,97.56627 62.598795,141.13843 41.166046,196.49113 l 6.060696,1.12235 C 69.657137,144.50964 130.60911,102.78728 207.88922,87.864169 Z"/><path style="fill:url(#linearGradient6404);fill-opacity:1" id="path873" d="m 368.7637,100.65897 c 0,0 -103.24798,123.43784 -109.67033,131.11139 -9.96814,-1.8498 -214.556113,-39.6855 -214.556113,-39.6855 -9.095201,-1.68768 -18.261068,4.05293 -20.86326,13.065 l -0.324235,1.12235 c -5.49952,18.86797 -8.297084,34.13194 -8.297084,45.32636 l 0,41.1695 c 0,98.71701 112.679892,179.03578 251.182172,179.03578 138.50644,0 251.19049,-80.31877 251.19049,-179.03578 l -0.0166,-28.57007 c -0.008,-1.61702 -0.0831,-3.28808 -0.19537,-4.95082 0.0166,-0.22031 0.12055,-0.40737 0.12055,-0.63184 0,-0.008 -0.0166,-4.28572 -0.0166,-4.28572 0,0.008 0,0.0166 0,0.0249 0,0.80227 -0.26188,1.51725 -0.45309,2.25717 -0.008,-0.0956 -0.0499,-0.20368 -0.0665,-0.3076 0.18705,-0.73161 0.51129,-1.30526 0.55286,-2.19067 l 0.0665,-2.22391 c 0,-65.08805 -49.0218,-124.92599 -127.94387,-156.45159 -7.32438,-2.93474 -15.65056,-0.835528 -20.70946,5.22101 m 142.82541,162.00515 c -0.0582,0.0332 -0.0873,0.0873 -0.1538,0.12054 -0.0499,0.025 -0.10392,0.0166 -0.1538,0.0416 0.10392,-0.0416 0.20368,-0.12055 0.3076,-0.16211 z"/><path style="fill:url(#XMLID_21_)" id="path880" d="M 499.11855,249.89425 266.23901,292.76807 33.263863,251.59857 c 0,-8.13497 0,23.53611 0,41.1695 0,88.83616 104.307987,160.82459 232.975147,160.82459 128.67547,0 232.9793,-71.98843 232.9793,-160.82459 0,-59.51787 -0.0998,-17.78719 -0.0998,-42.87382 z"/><path style="fill:url(#XMLID_22_)" id="path887" d="M 382.71827,112.34389 266.23901,251.59857 41.186831,209.98012 c 1.159763,-2.99709 -7.922968,23.98506 -7.922968,41.61845 0,88.82785 104.307987,160.83291 232.975147,160.83291 128.67547,0 232.9793,-72.00506 232.9793,-160.83291 0,-59.51787 -46.87271,-111.44947 -116.50004,-139.25468 z"/><path style="opacity:.6;fill:#fff" id="path888" d="m 451.20247,162.65432 c 24.57533,25.46906 38.91233,56.04273 38.91233,88.94009 0,88.82785 -104.30383,160.83291 -232.97931,160.83291 -78.37751,0 -147.66399,-26.75352 -189.88933,-67.71103 41.68911,43.53476 113.18703,72.25863 194.44525,72.25863 128.66716,0 232.9793,-71.99674 232.9793,-160.8246 0,-34.88433 -16.12444,-67.14985 -43.46824,-93.496 z"/></g></svg>