<svg xmlns="http://www.w3.org/2000/svg" xmlns:svg="http://www.w3.org/2000/svg" xmlns:xlink="http://www.w3.org/1999/xlink" id="svg2" width="128" height="128" version="1.0" viewBox="0 0 128 128"><metadata id="metadata87"/><defs id="defs4"><linearGradient id="linearGradient3651"><stop style="stop-color:#af6f00;stop-opacity:1" id="stop3653" offset="0"/><stop style="stop-color:#be6605;stop-opacity:1" id="stop3655" offset="1"/></linearGradient><linearGradient id="linearGradient3637"><stop style="stop-color:#04169e;stop-opacity:1" id="stop3639" offset="0"/><stop style="stop-color:#000;stop-opacity:0" id="stop3641" offset="1"/></linearGradient><linearGradient id="linearGradient3629"><stop style="stop-color:#043aee;stop-opacity:1" id="stop3631" offset="0"/><stop style="stop-color:#3279fc;stop-opacity:1" id="stop3633" offset="1"/></linearGradient><linearGradient id="linearGradient3583"><stop style="stop-color:#fff;stop-opacity:0" id="stop3585" offset="0"/><stop style="stop-color:#fff;stop-opacity:1" id="stop3591" offset=".549"/><stop style="stop-color:#fff;stop-opacity:0" id="stop3587" offset="1"/></linearGradient><linearGradient id="linearGradient3563"><stop style="stop-color:#8ac8ff;stop-opacity:1" id="stop3565" offset="0"/><stop style="stop-color:#bae2ff;stop-opacity:1" id="stop3567" offset="1"/></linearGradient><linearGradient id="linearGradient3555"><stop style="stop-color:#a9d6fe;stop-opacity:1" id="stop3557" offset="0"/><stop style="stop-color:#4b8af8;stop-opacity:1" id="stop3559" offset="1"/></linearGradient><linearGradient id="linearGradient3327"><stop style="stop-color:#000;stop-opacity:0" id="stop3329" offset="0"/><stop style="stop-color:#7b7b7b;stop-opacity:.48627454" id="stop3335" offset=".214"/><stop style="stop-color:#000;stop-opacity:0" id="stop3337" offset=".368"/><stop style="stop-color:#7b7b7b;stop-opacity:.48627451" id="stop3339" offset=".476"/><stop style="stop-color:#000;stop-opacity:0" id="stop3341" offset=".63"/><stop style="stop-color:#7b7b7b;stop-opacity:.48627451" id="stop3343" offset=".743"/><stop style="stop-color:#000;stop-opacity:0" id="stop3345" offset=".896"/><stop style="stop-color:#7b7b7b;stop-opacity:.48627451" id="stop3331" offset="1"/></linearGradient><linearGradient id="linearGradient3313"><stop style="stop-color:#fe9999;stop-opacity:1" id="stop3315" offset="0"/><stop style="stop-color:red;stop-opacity:1" id="stop3321" offset=".5"/><stop style="stop-color:#fa6262;stop-opacity:1" id="stop3317" offset="1"/></linearGradient><linearGradient id="linearGradient3279"><stop style="stop-color:#db0000;stop-opacity:1" id="stop3281" offset="0"/><stop style="stop-color:#ff4a00;stop-opacity:1" id="stop3287" offset=".5"/><stop style="stop-color:#db0000;stop-opacity:1" id="stop3283" offset="1"/></linearGradient><linearGradient id="linearGradient3257"><stop style="stop-color:#9ecaff;stop-opacity:1" id="stop3259" offset="0"/><stop style="stop-color:#d6e7ff;stop-opacity:1" id="stop3267" offset=".198"/><stop style="stop-color:#f7fbff;stop-opacity:1" id="stop3265" offset=".342"/><stop style="stop-color:#a8d4ff;stop-opacity:1" id="stop3269" offset=".598"/><stop style="stop-color:#6eb9ff;stop-opacity:1" id="stop3261" offset="1"/></linearGradient><linearGradient id="linearGradient3247"><stop style="stop-color:#fff4e3;stop-opacity:1" id="stop3249" offset="0"/><stop style="stop-color:#fad796;stop-opacity:1" id="stop3659" offset=".489"/><stop style="stop-color:#dfc28c;stop-opacity:1" id="stop3255" offset=".775"/><stop style="stop-color:#c09135;stop-opacity:1" id="stop3251" offset="1"/></linearGradient><radialGradient id="radialGradient3253" cx="28.342" cy="9.527" r="30.187" fx="28.342" fy="9.527" gradientTransform="matrix(1.1706327,1.5739284,-1.302277,1.0912974,7.5700654,-46.009951)" gradientUnits="userSpaceOnUse" xlink:href="#linearGradient3247"/><radialGradient id="radialGradient3263" cx="45" cy="43.832" r="45.75" fx="45" fy="43.832" gradientTransform="matrix(2.5442479e-8,1.2021857,-2.6229502,5.5510804e-8,160.96837,0.9016436)" gradientUnits="userSpaceOnUse" xlink:href="#linearGradient3257"/><linearGradient id="linearGradient3285" x1="40.5" x2="51.5" y1="63" y2="63" gradientUnits="userSpaceOnUse" xlink:href="#linearGradient3279"/><linearGradient id="linearGradient3319" x1="39" x2="52.5" y1="85" y2="85" gradientUnits="userSpaceOnUse" spreadMethod="pad" xlink:href="#linearGradient3313"/><linearGradient id="linearGradient3333" x1="426.5" x2="441.5" y1="529.362" y2="576.862" gradientTransform="translate(-61,5.5)" gradientUnits="userSpaceOnUse" xlink:href="#linearGradient3327"/><linearGradient id="linearGradient3561" x1="62.5" x2="72.5" y1="81" y2="92.5" gradientUnits="userSpaceOnUse" xlink:href="#linearGradient3555"/><radialGradient id="radialGradient3569" cx="68.232" cy="89.455" r="9.5" fx="68.232" fy="89.455" gradientTransform="matrix(-2.0526308,1.9542793e-7,-2.4553773e-7,-2.5789475,217.55594,310.69944)" gradientUnits="userSpaceOnUse" xlink:href="#linearGradient3563"/><linearGradient id="linearGradient3589" x1="58" x2="73.5" y1="82" y2="95.5" gradientUnits="userSpaceOnUse" xlink:href="#linearGradient3583"/><filter id="filter3625"><feGaussianBlur id="feGaussianBlur3627" stdDeviation=".451"/></filter><linearGradient id="linearGradient3635" x1="50" x2="25" y1="107.5" y2="62.5" gradientUnits="userSpaceOnUse" xlink:href="#linearGradient3629"/><linearGradient id="linearGradient3643" x1="360.5" x2="338" y1="522.362" y2="574.862" gradientUnits="userSpaceOnUse" xlink:href="#linearGradient3637"/><linearGradient id="linearGradient3647" x1="360.5" x2="338" y1="522.362" y2="574.862" gradientTransform="matrix(-1,0,0,1,748.5,1.3000001e-6)" gradientUnits="userSpaceOnUse" xlink:href="#linearGradient3637"/><linearGradient id="linearGradient3657" x1="47.189" x2="35.41" y1="49.005" y2="3.993" gradientUnits="userSpaceOnUse" xlink:href="#linearGradient3651"/><filter id="filter3717"><feGaussianBlur id="feGaussianBlur3719" stdDeviation=".555"/></filter><filter id="filter3721"><feGaussianBlur id="feGaussianBlur3723" stdDeviation=".428"/></filter><radialGradient id="radialGradient3263-782" cx="45" cy="43.832" r="45.75" fx="45" fy="43.832" gradientTransform="matrix(2.5442479e-8,1.2021857,-2.6229502,5.5510804e-8,160.96837,0.9016436)" gradientUnits="userSpaceOnUse" xlink:href="#linearGradient3257-496"/><linearGradient id="linearGradient3257-496"><stop style="stop-color:#cecece;stop-opacity:1" id="stop4284" offset="0"/><stop style="stop-color:#eaeaea;stop-opacity:1" id="stop4286" offset=".198"/><stop style="stop-color:#fbfbfb;stop-opacity:1" id="stop4288" offset=".342"/><stop style="stop-color:#d3d3d3;stop-opacity:1" id="stop4290" offset=".598"/><stop style="stop-color:#b6b6b6;stop-opacity:1" id="stop4292" offset="1"/></linearGradient><linearGradient id="linearGradient3635-857" x1="50" x2="25" y1="107.5" y2="62.5" gradientUnits="userSpaceOnUse" xlink:href="#linearGradient3629-263"/><linearGradient id="linearGradient3629-263"><stop style="stop-color:#797979;stop-opacity:1" id="stop4296" offset="0"/><stop style="stop-color:#979797;stop-opacity:1" id="stop4298" offset="1"/></linearGradient><linearGradient id="linearGradient3643-993" x1="360.5" x2="338" y1="522.362" y2="574.862" gradientUnits="userSpaceOnUse" xlink:href="#linearGradient3637-812"/><linearGradient id="linearGradient3637-812"><stop style="stop-color:#515151;stop-opacity:1" id="stop4302" offset="0"/><stop style="stop-color:#000;stop-opacity:0" id="stop4304" offset="1"/></linearGradient><linearGradient id="linearGradient3647-601" x1="360.5" x2="338" y1="522.362" y2="574.862" gradientTransform="matrix(-1,0,0,1,748.5,1.3000001e-6)" gradientUnits="userSpaceOnUse" xlink:href="#linearGradient3637-121"/><linearGradient id="linearGradient3637-121"><stop style="stop-color:#515151;stop-opacity:1" id="stop4308" offset="0"/><stop style="stop-color:#000;stop-opacity:0" id="stop4310" offset="1"/></linearGradient><linearGradient id="linearGradient3285-918" x1="40.5" x2="51.5" y1="63" y2="63" gradientUnits="userSpaceOnUse" xlink:href="#linearGradient3279-790"/><linearGradient id="linearGradient3279-790"><stop style="stop-color:#6d6d6d;stop-opacity:1" id="stop4314" offset="0"/><stop style="stop-color:#7f7f7f;stop-opacity:1" id="stop4316" offset=".5"/><stop style="stop-color:#6d6d6d;stop-opacity:1" id="stop4318" offset="1"/></linearGradient><radialGradient id="radialGradient3253-884" cx="28.342" cy="9.527" r="30.187" fx="28.342" fy="9.527" gradientTransform="matrix(1.1706327,1.5739284,-1.302277,1.0912974,7.5700654,-46.009951)" gradientUnits="userSpaceOnUse" xlink:href="#linearGradient3247-281"/><linearGradient id="linearGradient3247-281"><stop style="stop-color:#f1f1f1;stop-opacity:1" id="stop4322" offset="0"/><stop style="stop-color:#c8c8c8;stop-opacity:1" id="stop4324" offset=".489"/><stop style="stop-color:#b5b5b5;stop-opacity:1" id="stop4326" offset=".775"/><stop style="stop-color:#7a7a7a;stop-opacity:1" id="stop4328" offset="1"/></linearGradient><linearGradient id="linearGradient3657-460" x1="47.189" x2="35.41" y1="49.005" y2="3.993" gradientUnits="userSpaceOnUse" xlink:href="#linearGradient3651-105"/><linearGradient id="linearGradient3651-105"><stop style="stop-color:#575757;stop-opacity:1" id="stop4332" offset="0"/><stop style="stop-color:#616161;stop-opacity:1" id="stop4334" offset="1"/></linearGradient><radialGradient id="radialGradient3569-20" cx="68.232" cy="89.455" r="9.5" fx="68.232" fy="89.455" gradientTransform="matrix(-2.0526308,1.9542793e-7,-2.4553773e-7,-2.5789475,217.55594,310.69944)" gradientUnits="userSpaceOnUse" xlink:href="#linearGradient3563-42"/><linearGradient id="linearGradient3563-42"><stop style="stop-color:#c4c4c4;stop-opacity:1" id="stop4338" offset="0"/><stop style="stop-color:#dcdcdc;stop-opacity:1" id="stop4340" offset="1"/></linearGradient><linearGradient id="linearGradient3561-773" x1="62.5" x2="72.5" y1="81" y2="92.5" gradientUnits="userSpaceOnUse" xlink:href="#linearGradient3555-568"/><linearGradient id="linearGradient3555-568"><stop style="stop-color:#d3d3d3;stop-opacity:1" id="stop4344" offset="0"/><stop style="stop-color:#a1a1a1;stop-opacity:1" id="stop4346" offset="1"/></linearGradient><linearGradient id="linearGradient3319-340" x1="39" x2="52.5" y1="85" y2="85" gradientUnits="userSpaceOnUse" spreadMethod="pad" xlink:href="#linearGradient3313-350"/><linearGradient id="linearGradient3313-350"><stop style="stop-color:#cbcbcb;stop-opacity:1" id="stop4350" offset="0"/><stop style="stop-color:#7f7f7f;stop-opacity:1" id="stop4352" offset=".5"/><stop style="stop-color:#aeaeae;stop-opacity:1" id="stop4354" offset="1"/></linearGradient><linearGradient id="linearGradient3333-713" x1="426.5" x2="441.5" y1="529.362" y2="576.862" gradientTransform="translate(-61,5.5)" gradientUnits="userSpaceOnUse" xlink:href="#linearGradient3327-115"/><linearGradient id="linearGradient3327-115"><stop style="stop-color:#000;stop-opacity:0" id="stop4358" offset="0"/><stop style="stop-color:#7b7b7b;stop-opacity:.48627454" id="stop4360" offset=".214"/><stop style="stop-color:#000;stop-opacity:0" id="stop4362" offset=".368"/><stop style="stop-color:#7b7b7b;stop-opacity:.48627451" id="stop4364" offset=".476"/><stop style="stop-color:#000;stop-opacity:0" id="stop4366" offset=".63"/><stop style="stop-color:#7b7b7b;stop-opacity:.48627451" id="stop4368" offset=".743"/><stop style="stop-color:#000;stop-opacity:0" id="stop4370" offset=".896"/><stop style="stop-color:#7b7b7b;stop-opacity:.48627451" id="stop4372" offset="1"/></linearGradient><linearGradient id="linearGradient3589-601" x1="58" x2="73.5" y1="82" y2="95.5" gradientUnits="userSpaceOnUse" xlink:href="#linearGradient3583-388"/><linearGradient id="linearGradient3583-388"><stop style="stop-color:#fff;stop-opacity:0" id="stop4376" offset="0"/><stop style="stop-color:#fff;stop-opacity:1" id="stop4378" offset=".549"/><stop style="stop-color:#fff;stop-opacity:0" id="stop4380" offset="1"/></linearGradient></defs><g id="layer1" transform="translate(-311.32459,-468.32717)"><path style="opacity:1;fill:none;fill-opacity:1;fill-rule:evenodd;stroke:#000;stroke-width:1.94172418;stroke-linecap:butt;stroke-linejoin:miter;stroke-miterlimit:4;stroke-dasharray:none;stroke-dashoffset:0;stroke-opacity:.5372549;filter:url(#filter3721)" id="path3703" d="m 75.465948,30 a 29.215948,30 0 1 1 -58.431896,0 29.215948,30 0 1 1 58.431896,0 z" transform="matrix(1.0611908,0,0,0.99975,326.38626,473.8136)"/><path style="fill:none;fill-opacity:.5372549;fill-rule:evenodd;stroke:#000;stroke-width:2;stroke-linecap:butt;stroke-linejoin:miter;stroke-miterlimit:4;stroke-dasharray:none;stroke-opacity:.5372549;filter:url(#filter3717)" id="path3661" d="m 352.57459,525.33856 c -13.5,8 -21.5,18 -22,38 0.5,27.5 27,27 44.5,27 17.5,0 44.5,0.5 45,-27 -0.5,-20 -8.5,-30 -22,-38 0,0 -44.66667,0 -45.5,0 z"/><path style="fill:url(#radialGradient3263-782);fill-opacity:1;fill-rule:evenodd;stroke:url(#linearGradient3635-857);stroke-width:2;stroke-linecap:butt;stroke-linejoin:miter;stroke-miterlimit:4;stroke-dasharray:none;stroke-opacity:1" id="path3229" d="M 23.5,52 C 10,60 2,70 1.5,90 c 0.5,27.5 27,27 44.5,27 17.5,0 44.5,0.5 45,-27 -0.5,-20 -8.5,-30 -22,-38 0,0 -44.666667,0 -45.5,0 z" transform="translate(328,472.36218)"/><path style="fill:none;fill-rule:evenodd;stroke:url(#linearGradient3643-993);stroke-width:1px;stroke-linecap:butt;stroke-linejoin:miter;stroke-opacity:1" id="path3237" d="m 355,524.86218 c -17.5,22.5 -20,35 -22.5,50"/><path style="fill:none;fill-rule:evenodd;stroke:url(#linearGradient3647-601);stroke-width:1px;stroke-linecap:butt;stroke-linejoin:miter;stroke-opacity:1" id="path3645" d="m 393.5,524.86218 c 17.5,22.5 20,35 22.5,50"/><path style="fill:#cdcdcd;fill-opacity:1;fill-rule:evenodd;stroke:#aeaeae;stroke-width:1px;stroke-linecap:butt;stroke-linejoin:miter;stroke-opacity:1" id="path3233" d="m 395,525.36218 c 1,4.5 1,12.5 -7,16 0,-3.5 -2.5,-7 -4.5,-9.5 0,0 11.5,-6.5 11.5,-6.5 z"/><path style="fill:url(#linearGradient3285-918);fill-opacity:1;fill-rule:evenodd;stroke:#575757;stroke-width:1px;stroke-linecap:butt;stroke-linejoin:miter;stroke-opacity:1" id="path3239" d="m 38,60 c 0,0 2.5,6 2.5,6 0,0 11,0 11,0 0,0 2.5,-6 2.5,-6 0,0 -16,0 -16,0 z" transform="translate(328,472.36218)"/><path style="fill:#e9e9e9;fill-opacity:1;fill-rule:evenodd;stroke:#aeaeae;stroke-width:1px;stroke-linecap:butt;stroke-linejoin:miter;stroke-opacity:1" id="path3231" d="m 25.5,53 c -1,4.5 -1,12.5 7,16 0,-3.5 2.5,-7 4.5,-9.5 0,0 -11.5,-6.5 -11.5,-6.5 z" transform="translate(328,472.36218)"/><path style="opacity:1;fill:url(#radialGradient3253-884);fill-opacity:1;fill-rule:evenodd;stroke:url(#linearGradient3657-460);stroke-width:1.94172418;stroke-linecap:butt;stroke-linejoin:miter;stroke-miterlimit:4;stroke-dasharray:none;stroke-dashoffset:0;stroke-opacity:1" id="path2457" d="m 75.465948,30 a 29.215948,30 0 1 1 -58.431896,0 29.215948,30 0 1 1 58.431896,0 z" transform="matrix(1.0611908,0,0,0.99975,325.42362,473.36968)"/><path style="fill:url(#radialGradient3569-20);fill-opacity:1;fill-rule:evenodd;stroke:url(#linearGradient3561-773);stroke-width:1px;stroke-linecap:butt;stroke-linejoin:miter;stroke-opacity:.58139535" id="path3243" d="m 59.5,79.5 c 0,0 0,15 0,15 0,0 8.5,1.5 8.5,1.5 0,0 9.5,-1.5 9.5,-1.5 0,0 0,-15 0,-15 0,0 -18,0 -18,0 z" transform="translate(328,472.36218)"/><path style="fill:url(#linearGradient3319-340);fill-opacity:1;fill-rule:evenodd;stroke:#575757;stroke-width:1px;stroke-linecap:butt;stroke-linejoin:miter;stroke-opacity:1" id="path3241" d="m 40.5,66 c 0,0 -4,34.5 -4,34.5 0,0 9.5,5 9.5,5 0,0 9.5,-4.5 9.5,-4.5 0,0 -4,-35 -4,-35 0,0 -11,0 -11,0 z" transform="translate(328,472.36218)"/><path style="fill:url(#linearGradient3333-713);fill-opacity:1;fill-rule:evenodd;stroke:#575757;stroke-width:1px;stroke-linecap:butt;stroke-linejoin:miter;stroke-opacity:1" id="path3323" d="m 368.5,538.36218 c 0,0 -4,34.5 -4,34.5 0,0 9.5,5 9.5,5 0,0 9.5,-4.5 9.5,-4.5 0,0 -4,-35 -4,-35 0,0 -11,0 -11,0 z"/><path style="fill:none;fill-rule:evenodd;stroke:url(#linearGradient3589-601);stroke-width:1px;stroke-linecap:butt;stroke-linejoin:miter;stroke-opacity:1;filter:url(#filter3625)" id="path3571" d="m 61.5,82 c 0,0 0,11 0,11 0,0 6.5,1 6.5,1 0,0 5.5,-1 5.5,-1" transform="translate(328,472.36218)"/><path style="fill:none;fill-rule:evenodd;stroke:#c3c3c3;stroke-width:1px;stroke-linecap:butt;stroke-linejoin:miter;stroke-opacity:.45930236" id="path3649" d="m 60,84 c 0,0 17,0 17,0" transform="translate(328,472.36218)"/><path style="opacity:1;fill:#5a5a5a;fill-opacity:1;fill-rule:evenodd;stroke:none;stroke-width:2;stroke-linecap:butt;stroke-linejoin:miter;stroke-miterlimit:4;stroke-dasharray:none;stroke-dashoffset:0;stroke-opacity:.78431373" id="path3245" d="m 70,83.75 a 1.25,1.25 0 1 1 -2.5,0 1.25,1.25 0 1 1 2.5,0 z" transform="matrix(1.2,0,0,1.1,313.5,464.36218)"/></g></svg>