<svg xmlns="http://www.w3.org/2000/svg" xmlns:svg="http://www.w3.org/2000/svg" xmlns:xlink="http://www.w3.org/1999/xlink" id="svg1800" width="128" height="128" version="1.1"><metadata id="metadata5203"/><defs id="defs3"><linearGradient id="linearGradient3101"><stop id="stop3103" offset="0" style="stop-color:#000;stop-opacity:1"/><stop id="stop3105" offset="1" style="stop-color:#000;stop-opacity:0"/></linearGradient><radialGradient id="radialGradient3107" cx="17.313" cy="25.531" r="9.688" fx="17.313" fy="25.531" gradientTransform="matrix(5.6886676,0,0,1.8584358,122.46141,60.604197)" gradientUnits="userSpaceOnUse" xlink:href="#linearGradient3101"/><linearGradient id="linearGradient4159" x1="222.506" x2="224.807" y1="141.54" y2="109.184" gradientTransform="matrix(3.4043141,0,0,3.4043141,-704.59424,-361.66456)" gradientUnits="userSpaceOnUse" xlink:href="#linearGradient4153"/><linearGradient id="linearGradient4153"><stop style="stop-color:#ff0a00;stop-opacity:1" id="stop4155" offset="0"/><stop style="stop-color:#ff8984;stop-opacity:1" id="stop4157" offset="1"/></linearGradient><linearGradient id="linearGradient4167" x1="222.953" x2="228.47" y1="139.286" y2="111.836" gradientTransform="matrix(3.2530685,0,0,3.2530685,-670.43624,-342.76426)" gradientUnits="userSpaceOnUse" xlink:href="#linearGradient4161"/><linearGradient id="linearGradient4161"><stop style="stop-color:#ff4133;stop-opacity:1" id="stop4163" offset="0"/><stop style="stop-color:#e30f00;stop-opacity:1" id="stop4165" offset="1"/></linearGradient></defs><g id="g5936"><circle id="path4147" cx="64.25" cy="63.753" r="60" style="opacity:1;fill:#ff2900;fill-opacity:1;stroke:none;stroke-width:.41800001;stroke-linecap:round;stroke-linejoin:round;stroke-miterlimit:4;stroke-dasharray:none;stroke-dashoffset:0;stroke-opacity:1"/><circle style="opacity:1;fill:url(#linearGradient4159);fill-opacity:1;stroke:none;stroke-width:.37318179;stroke-linecap:round;stroke-linejoin:round;stroke-miterlimit:4;stroke-dasharray:none;stroke-dashoffset:0;stroke-opacity:1" id="circle4149" cx="64.25" cy="63.753" r="56.057"/><circle id="circle4151" cx="64.25" cy="63.753" r="50.387" style="opacity:1;fill:url(#linearGradient4167);fill-opacity:1;stroke:none;stroke-width:.32836357;stroke-linecap:round;stroke-linejoin:round;stroke-miterlimit:4;stroke-dasharray:none;stroke-dashoffset:0;stroke-opacity:1"/><g id="g5928" transform="matrix(1.2775752,0,0,1.2775752,-218.12033,-9.6277049)"><path style="fill:#fff;fill-opacity:1;fill-rule:nonzero;stroke:none;stroke-width:4.12249994;stroke-linecap:round;stroke-linejoin:round;stroke-miterlimit:4;stroke-dashoffset:0;stroke-opacity:1" id="rect1872" d="m 213.58969,28.616163 c -0.3335,0 -0.6114,0.454731 -0.6114,1.000461 l 2.77479,37.63278 c 0,0.545731 0.27789,1.000462 0.61139,1.000464 0,0 2.19118,0.03101 3.99758,0 0.59505,-0.01016 0.77714,0.05293 1.31685,0 1.80639,0.03101 3.99757,0 3.99757,0 0.3335,0 0.61139,-0.454733 0.61139,-1.000464 l 2.77479,-37.63278 c 0,-0.54573 -0.27789,-0.923503 -0.61139,-0.923503 l -6.72534,0 c -0.0248,-0.005 -0.0214,-0.07696 -0.047,-0.07696 l -8.08921,0 z"/><path style="opacity:1;fill:#fff;fill-opacity:1;fill-rule:nonzero;stroke:none;stroke-width:4.12249994;stroke-linecap:round;stroke-linejoin:round;stroke-miterlimit:4;stroke-dasharray:none;stroke-dashoffset:0;stroke-opacity:1" id="path2062" d="m 227.13871,80.255414 a 6.00277,6.002775 0 0 1 -12.00554,0 6.00277,6.002775 0 1 1 12.00554,0 z"/></g></g></svg>