<svg xmlns="http://www.w3.org/2000/svg" xmlns:svg="http://www.w3.org/2000/svg" xmlns:xlink="http://www.w3.org/1999/xlink" id="svg6244" width="128" height="128" x="0" y="0" enable-background="new 0 0 600 600" version="1.1" viewBox="0 0 128 128" xml:space="preserve"><metadata id="metadata6377"/><defs id="defs6375"><linearGradient id="linearGradient7413"><stop style="stop-color:#4a0;stop-opacity:1" id="stop7415" offset="0"/><stop style="stop-color:#cf0;stop-opacity:1" id="stop7417" offset="1"/></linearGradient><linearGradient id="linearGradient7303"><stop style="stop-color:#00aad4;stop-opacity:1" id="stop7305" offset="0"/><stop style="stop-color:#00aad4;stop-opacity:0" id="stop7307" offset="1"/></linearGradient><linearGradient id="linearGradient7309" x1="7.945" x2="9.534" y1="27.258" y2="106.708" gradientUnits="userSpaceOnUse" xlink:href="#linearGradient7303"/><linearGradient id="linearGradient7313" x1="7.945" x2="9.534" y1="27.258" y2="106.708" gradientTransform="translate(20.4,0)" gradientUnits="userSpaceOnUse" xlink:href="#linearGradient7303"/><linearGradient id="linearGradient7317" x1="7.945" x2="9.534" y1="27.258" y2="106.708" gradientTransform="translate(40.799995,0)" gradientUnits="userSpaceOnUse" xlink:href="#linearGradient7303"/><linearGradient id="linearGradient7321" x1="7.945" x2="9.534" y1="27.258" y2="106.708" gradientTransform="translate(61.199997,0)" gradientUnits="userSpaceOnUse" xlink:href="#linearGradient7303"/><linearGradient id="linearGradient7325" x1="7.945" x2="9.534" y1="27.258" y2="106.708" gradientTransform="translate(81.599998,0)" gradientUnits="userSpaceOnUse" xlink:href="#linearGradient7303"/><linearGradient id="linearGradient7329" x1="7.945" x2="9.534" y1="27.258" y2="106.708" gradientTransform="translate(102,0)" gradientUnits="userSpaceOnUse" xlink:href="#linearGradient7303"/><linearGradient id="linearGradient7419" x1="2.611" x2="42.848" y1="9.926" y2="20.371" gradientUnits="userSpaceOnUse" xlink:href="#linearGradient7413"/><linearGradient id="XMLID_11_" x1="128" x2="128" y1="244.428" y2="11.573" gradientUnits="userSpaceOnUse"><stop id="stop120" offset=".006" style="stop-color:#0035ed;stop-opacity:1"/><stop id="stop122" offset=".545" style="stop-color:#00008d;stop-opacity:1"/><stop id="stop124" offset="1" style="stop-color:#0053bd;stop-opacity:1"/><midPointStop id="midPointStop126" offset=".006" style="stop-color:#0035ed"/><midPointStop id="midPointStop128" offset=".5" style="stop-color:#0035ed"/><midPointStop id="midPointStop130" offset=".545" style="stop-color:#00008d"/><midPointStop id="midPointStop132" offset=".5" style="stop-color:#00008d"/><midPointStop id="midPointStop134" offset="1" style="stop-color:#0053bd"/></linearGradient><linearGradient id="XMLID_12_" x1="128" x2="127.999" y1="244.407" y2="11.546" gradientUnits="userSpaceOnUse"><stop id="stop141" offset=".006" style="stop-color:#428aff;stop-opacity:1"/><stop id="stop143" offset=".573" style="stop-color:#94caff;stop-opacity:1"/><stop id="stop145" offset="1" style="stop-color:#dcf0ff;stop-opacity:1"/><midPointStop id="midPointStop147" offset=".006" style="stop-color:#428aff"/><midPointStop id="midPointStop149" offset=".5" style="stop-color:#428aff"/><midPointStop id="midPointStop151" offset=".573" style="stop-color:#94caff"/><midPointStop id="midPointStop153" offset=".5" style="stop-color:#94caff"/><midPointStop id="midPointStop155" offset="1" style="stop-color:#dcf0ff"/></linearGradient><linearGradient id="XMLID_13_" x1="128.002" x2="128.002" y1="239.712" y2="16.285" gradientUnits="userSpaceOnUse"><stop id="stop162" offset="0" style="stop-color:#fff;stop-opacity:1"/><stop id="stop164" offset=".5" style="stop-color:#006dff;stop-opacity:1"/><stop id="stop166" offset="1" style="stop-color:#c9e6ff;stop-opacity:1"/><midPointStop id="midPointStop168" offset="0" style="stop-color:#fff"/><midPointStop id="midPointStop170" offset=".5" style="stop-color:#fff"/><midPointStop id="midPointStop172" offset=".5" style="stop-color:#006dff"/><midPointStop id="midPointStop174" offset=".5" style="stop-color:#006dff"/><midPointStop id="midPointStop176" offset="1" style="stop-color:#c9e6ff"/></linearGradient><radialGradient id="XMLID_14_" cx="59.616" cy="234.039" r="69.963" fx="59.616" fy="234.039" gradientTransform="matrix(1.4187,0,0,1.4187,43.4252,-204.0338)" gradientUnits="userSpaceOnUse"><stop id="stop187" offset=".601" style="stop-color:#fff;stop-opacity:1"/><stop id="stop189" offset=".876" style="stop-color:#eaeaf0;stop-opacity:1"/><stop id="stop191" offset=".914" style="stop-color:#e6e6ed;stop-opacity:1"/><stop id="stop193" offset=".95" style="stop-color:#dbdbe5;stop-opacity:1"/><stop id="stop195" offset=".985" style="stop-color:#c8c8d7;stop-opacity:1"/><stop id="stop197" offset="1" style="stop-color:#bdbdcf;stop-opacity:1"/><midPointStop id="midPointStop199" offset=".601" style="stop-color:#fff"/><midPointStop id="midPointStop201" offset=".5" style="stop-color:#fff"/><midPointStop id="midPointStop203" offset=".876" style="stop-color:#eaeaf0"/><midPointStop id="midPointStop205" offset=".718" style="stop-color:#eaeaf0"/><midPointStop id="midPointStop207" offset="1" style="stop-color:#bdbdcf"/></radialGradient><linearGradient id="XMLID_15_" x1="62.463" x2="154.298" y1="149.695" y2="149.695" gradientTransform="matrix(0.9546,0.0532,0.0532,0.9377,-6.635652,8.097183)" gradientUnits="userSpaceOnUse"><stop id="stop260" offset="0" style="stop-color:#f66;stop-opacity:1"/><stop id="stop262" offset="1" style="stop-color:red;stop-opacity:1"/><midPointStop id="midPointStop264" offset="0" style="stop-color:#f66"/><midPointStop id="midPointStop266" offset=".5" style="stop-color:#f66"/><midPointStop id="midPointStop268" offset="1" style="stop-color:red"/></linearGradient><linearGradient id="XMLID_16_" x1="-123.349" x2="-116.198" y1="-86.029" y2="-86.029" gradientTransform="matrix(0.2588,0.9659,-0.9659,0.2588,104.8109,257.7903)" gradientUnits="userSpaceOnUse"><stop id="stop283" offset="0" style="stop-color:#585868;stop-opacity:1"/><stop id="stop285" offset=".008" style="stop-color:#656575;stop-opacity:1"/><stop id="stop287" offset=".034" style="stop-color:#8b8b99;stop-opacity:1"/><stop id="stop289" offset=".06" style="stop-color:#a8a8b6;stop-opacity:1"/><stop id="stop291" offset=".086" style="stop-color:#bdbdcb;stop-opacity:1"/><stop id="stop293" offset=".111" style="stop-color:#cacad7;stop-opacity:1"/><stop id="stop295" offset=".135" style="stop-color:#cecedb;stop-opacity:1"/><stop id="stop297" offset=".466" style="stop-color:#9a9ab1;stop-opacity:1"/><stop id="stop299" offset=".854" style="stop-color:#7d7d99;stop-opacity:1"/><stop id="stop301" offset="1" style="stop-color:#585868;stop-opacity:1"/><midPointStop id="midPointStop303" offset="0" style="stop-color:#585868"/><midPointStop id="midPointStop305" offset=".303" style="stop-color:#585868"/><midPointStop id="midPointStop307" offset=".135" style="stop-color:#cecedb"/><midPointStop id="midPointStop309" offset=".5" style="stop-color:#cecedb"/><midPointStop id="midPointStop311" offset=".466" style="stop-color:#9a9ab1"/><midPointStop id="midPointStop313" offset=".5" style="stop-color:#9a9ab1"/><midPointStop id="midPointStop315" offset=".854" style="stop-color:#7d7d99"/><midPointStop id="midPointStop317" offset=".5" style="stop-color:#7d7d99"/><midPointStop id="midPointStop319" offset="1" style="stop-color:#585868"/></linearGradient><linearGradient id="XMLID_17_" x1="-218.144" x2="-210.992" y1="58.222" y2="58.222" gradientTransform="matrix(-0.5,0.866,-0.866,-0.5,37.93764,322.7147)" gradientUnits="userSpaceOnUse"><stop id="stop330" offset="0" style="stop-color:#585868;stop-opacity:1"/><stop id="stop332" offset=".191" style="stop-color:#cecedb;stop-opacity:1"/><stop id="stop334" offset=".466" style="stop-color:#9a9ab1;stop-opacity:1"/><stop id="stop336" offset=".854" style="stop-color:#7d7d99;stop-opacity:1"/><stop id="stop338" offset="1" style="stop-color:#585868;stop-opacity:1"/><midPointStop id="midPointStop340" offset="0" style="stop-color:#585868"/><midPointStop id="midPointStop342" offset=".5" style="stop-color:#585868"/><midPointStop id="midPointStop344" offset=".191" style="stop-color:#cecedb"/><midPointStop id="midPointStop346" offset=".5" style="stop-color:#cecedb"/><midPointStop id="midPointStop348" offset=".466" style="stop-color:#9a9ab1"/><midPointStop id="midPointStop350" offset=".5" style="stop-color:#9a9ab1"/><midPointStop id="midPointStop352" offset=".854" style="stop-color:#7d7d99"/><midPointStop id="midPointStop354" offset=".5" style="stop-color:#7d7d99"/><midPointStop id="midPointStop356" offset="1" style="stop-color:#585868"/></linearGradient><linearGradient id="XMLID_18_" x1="116.54" x2="139.459" y1="128" y2="128" gradientUnits="userSpaceOnUse"><stop id="stop365" offset="0" style="stop-color:#9a9ab1;stop-opacity:1"/><stop id="stop367" offset="1" style="stop-color:#585868;stop-opacity:1"/><midPointStop id="midPointStop369" offset="0" style="stop-color:#9a9ab1"/><midPointStop id="midPointStop371" offset=".5" style="stop-color:#9a9ab1"/><midPointStop id="midPointStop373" offset="1" style="stop-color:#585868"/></linearGradient><radialGradient id="XMLID_19_" cx="126.62" cy="116.175" r="22.186" fx="126.62" fy="116.175" gradientUnits="userSpaceOnUse"><stop id="stop380" offset="0" style="stop-color:#9a9ab1;stop-opacity:1"/><stop id="stop382" offset=".59" style="stop-color:#585868;stop-opacity:1"/><stop id="stop384" offset="1" style="stop-color:#fff;stop-opacity:1"/><midPointStop id="midPointStop386" offset="0" style="stop-color:#9a9ab1"/><midPointStop id="midPointStop388" offset=".5" style="stop-color:#9a9ab1"/><midPointStop id="midPointStop390" offset=".59" style="stop-color:#585868"/><midPointStop id="midPointStop392" offset=".5" style="stop-color:#585868"/><midPointStop id="midPointStop394" offset="1" style="stop-color:#fff"/></radialGradient><linearGradient id="XMLID_20_" x1="117.744" x2="137.875" y1="123.586" y2="123.586" gradientUnits="userSpaceOnUse"><stop id="stop401" offset="0" style="stop-color:#fff;stop-opacity:1"/><stop id="stop403" offset="1" style="stop-color:#585868;stop-opacity:1"/><midPointStop id="midPointStop405" offset="0" style="stop-color:#fff"/><midPointStop id="midPointStop407" offset=".5" style="stop-color:#fff"/><midPointStop id="midPointStop409" offset="1" style="stop-color:#585868"/></linearGradient><linearGradient id="linearGradient9129" x1="2.611" x2="42.848" y1="9.926" y2="20.371" gradientUnits="userSpaceOnUse" xlink:href="#linearGradient7413"/><linearGradient id="linearGradient9131" x1="2.611" x2="42.848" y1="9.926" y2="20.371" gradientUnits="userSpaceOnUse" xlink:href="#linearGradient7413"/><linearGradient id="linearGradient9133" x1="2.611" x2="42.848" y1="9.926" y2="20.371" gradientUnits="userSpaceOnUse" xlink:href="#linearGradient7413"/><linearGradient id="linearGradient9135" x1="2.611" x2="42.848" y1="9.926" y2="20.371" gradientUnits="userSpaceOnUse" xlink:href="#linearGradient7413"/><linearGradient id="linearGradient9137" x1="2.611" x2="42.848" y1="9.926" y2="20.371" gradientUnits="userSpaceOnUse" xlink:href="#linearGradient7413"/><linearGradient id="linearGradient9139" x1="2.611" x2="42.848" y1="9.926" y2="20.371" gradientUnits="userSpaceOnUse" xlink:href="#linearGradient7413"/><linearGradient id="linearGradient9141" x1="2.611" x2="42.848" y1="9.926" y2="20.371" gradientUnits="userSpaceOnUse" xlink:href="#linearGradient7413"/><linearGradient id="linearGradient9143" x1="2.611" x2="42.848" y1="9.926" y2="20.371" gradientUnits="userSpaceOnUse" xlink:href="#linearGradient7413"/><linearGradient id="linearGradient9145" x1="2.611" x2="42.848" y1="9.926" y2="20.371" gradientUnits="userSpaceOnUse" xlink:href="#linearGradient7413"/><linearGradient id="linearGradient9147" x1="2.611" x2="42.848" y1="9.926" y2="20.371" gradientUnits="userSpaceOnUse" xlink:href="#linearGradient7413"/><linearGradient id="linearGradient9149" x1="2.611" x2="42.848" y1="9.926" y2="20.371" gradientUnits="userSpaceOnUse" xlink:href="#linearGradient7413"/><linearGradient id="linearGradient9151" x1="2.611" x2="42.848" y1="9.926" y2="20.371" gradientUnits="userSpaceOnUse" xlink:href="#linearGradient7413"/><linearGradient id="linearGradient9153" x1="2.611" x2="42.848" y1="9.926" y2="20.371" gradientUnits="userSpaceOnUse" xlink:href="#linearGradient7413"/><linearGradient id="linearGradient9155" x1="2.611" x2="42.848" y1="9.926" y2="20.371" gradientUnits="userSpaceOnUse" xlink:href="#linearGradient7413"/><linearGradient id="linearGradient9157" x1="2.611" x2="42.848" y1="9.926" y2="20.371" gradientUnits="userSpaceOnUse" xlink:href="#linearGradient7413"/><linearGradient id="linearGradient9159" x1="2.611" x2="42.848" y1="9.926" y2="20.371" gradientUnits="userSpaceOnUse" xlink:href="#linearGradient7413"/><linearGradient id="linearGradient9161" x1="2.611" x2="42.848" y1="9.926" y2="20.371" gradientUnits="userSpaceOnUse" xlink:href="#linearGradient7413"/><linearGradient id="linearGradient9163" x1="2.611" x2="42.848" y1="9.926" y2="20.371" gradientUnits="userSpaceOnUse" xlink:href="#linearGradient7413"/><linearGradient id="linearGradient9165" x1="2.611" x2="42.848" y1="9.926" y2="20.371" gradientUnits="userSpaceOnUse" xlink:href="#linearGradient7413"/><linearGradient id="linearGradient9167" x1="2.611" x2="42.848" y1="9.926" y2="20.371" gradientUnits="userSpaceOnUse" xlink:href="#linearGradient7413"/><linearGradient id="linearGradient9169" x1="2.611" x2="42.848" y1="9.926" y2="20.371" gradientUnits="userSpaceOnUse" xlink:href="#linearGradient7413"/><linearGradient id="linearGradient9171" x1="2.611" x2="42.848" y1="9.926" y2="20.371" gradientUnits="userSpaceOnUse" xlink:href="#linearGradient7413"/><linearGradient id="linearGradient9173" x1="2.611" x2="42.848" y1="9.926" y2="20.371" gradientUnits="userSpaceOnUse" xlink:href="#linearGradient7413"/><linearGradient id="linearGradient9175" x1="2.611" x2="42.848" y1="9.926" y2="20.371" gradientUnits="userSpaceOnUse" xlink:href="#linearGradient7413"/><linearGradient id="linearGradient9177" x1="2.611" x2="42.848" y1="9.926" y2="20.371" gradientUnits="userSpaceOnUse" xlink:href="#linearGradient7413"/><linearGradient id="linearGradient9179" x1="2.611" x2="42.848" y1="9.926" y2="20.371" gradientUnits="userSpaceOnUse" xlink:href="#linearGradient7413"/><linearGradient id="linearGradient9181" x1="2.611" x2="42.848" y1="9.926" y2="20.371" gradientUnits="userSpaceOnUse" xlink:href="#linearGradient7413"/><linearGradient id="linearGradient9183" x1="2.611" x2="42.848" y1="9.926" y2="20.371" gradientUnits="userSpaceOnUse" xlink:href="#linearGradient7413"/><linearGradient id="linearGradient9185" x1="2.611" x2="42.848" y1="9.926" y2="20.371" gradientUnits="userSpaceOnUse" xlink:href="#linearGradient7413"/><linearGradient id="linearGradient9187" x1="2.611" x2="42.848" y1="9.926" y2="20.371" gradientUnits="userSpaceOnUse" xlink:href="#linearGradient7413"/><linearGradient id="linearGradient9189" x1="2.611" x2="42.848" y1="9.926" y2="20.371" gradientUnits="userSpaceOnUse" xlink:href="#linearGradient7413"/></defs><radialGradient id="SVGID_1_" cx="277.795" cy="68.53" r="105.216" gradientTransform="matrix(2.5784,0,0,-0.7901,-444.9816,86.1301)" gradientUnits="userSpaceOnUse"><stop style="stop-color:#676767" id="stop6247" offset="0"/><stop style="stop-color:#656565;stop-opacity:0" id="stop6249" offset="1"/></radialGradient><radialGradient id="SVGID_2_" cx="277.18" cy="-32.574" r="105.216" gradientTransform="matrix(1.5529,0,0,-0.4758,6.1681,51.2119)" gradientUnits="userSpaceOnUse"><stop style="stop-color:#b5b5b5" id="stop6254" offset="0"/><stop style="stop-color:#b5b5b5;stop-opacity:0" id="stop6256" offset="1"/></radialGradient><rect id="rect9193" width="123.253" height="80.613" x="3.731" y="23.471" style="opacity:1;fill:#ccc;fill-opacity:1;stroke:none;stroke-width:2.03494239;stroke-linecap:round;stroke-linejoin:round;stroke-miterlimit:4;stroke-dasharray:none;stroke-dashoffset:0;stroke-opacity:1"/><g id="g7339" transform="matrix(0.98315219,0,0,1.1075575,1.0708352,-11.642836)"><rect id="rect7297" width="123.941" height="76.589" x="1.589" y="25.034" style="opacity:1;fill:#0055a3;fill-opacity:1;stroke:#004778;stroke-width:2;stroke-linecap:round;stroke-linejoin:round;stroke-miterlimit:4;stroke-dasharray:none;stroke-dashoffset:0;stroke-opacity:1"/><g id="g7331"><rect style="opacity:1;fill:url(#linearGradient7309);fill-opacity:1;stroke:none;stroke-width:2;stroke-linecap:round;stroke-linejoin:round;stroke-miterlimit:4;stroke-dasharray:none;stroke-dashoffset:0;stroke-opacity:1" id="rect7299" width="11.758" height="75" x="2.225" y="25.669"/><rect id="rect7311" width="11.758" height="75" x="22.625" y="25.669" style="opacity:1;fill:url(#linearGradient7313);fill-opacity:1;stroke:none;stroke-width:2;stroke-linecap:round;stroke-linejoin:round;stroke-miterlimit:4;stroke-dasharray:none;stroke-dashoffset:0;stroke-opacity:1"/><rect style="opacity:1;fill:url(#linearGradient7317);fill-opacity:1;stroke:none;stroke-width:2;stroke-linecap:round;stroke-linejoin:round;stroke-miterlimit:4;stroke-dasharray:none;stroke-dashoffset:0;stroke-opacity:1" id="rect7315" width="11.758" height="75" x="43.025" y="25.669"/><rect id="rect7319" width="11.758" height="75" x="63.425" y="25.669" style="opacity:1;fill:url(#linearGradient7321);fill-opacity:1;stroke:none;stroke-width:2;stroke-linecap:round;stroke-linejoin:round;stroke-miterlimit:4;stroke-dasharray:none;stroke-dashoffset:0;stroke-opacity:1"/><rect style="opacity:1;fill:url(#linearGradient7325);fill-opacity:1;stroke:none;stroke-width:2;stroke-linecap:round;stroke-linejoin:round;stroke-miterlimit:4;stroke-dasharray:none;stroke-dashoffset:0;stroke-opacity:1" id="rect7323" width="11.758" height="75" x="83.825" y="25.669"/><rect id="rect7327" width="11.758" height="75" x="104.225" y="25.669" style="opacity:1;fill:url(#linearGradient7329);fill-opacity:1;stroke:none;stroke-width:2;stroke-linecap:round;stroke-linejoin:round;stroke-miterlimit:4;stroke-dasharray:none;stroke-dashoffset:0;stroke-opacity:1"/></g></g><g id="g9063" transform="translate(1.573013,-10.561658)"><g style="fill:#b3ff80" id="g7251" transform="matrix(3.7729705,0,0,3.7729705,3.7097582,7.0543457)"><g style="fill:#b3ff80" id="g7183"><g style="fill:#b3ff80" id="g7185"><g style="fill:#b3ff80" id="g7187"><path style="fill:#b3ff80" id="path7189" d="M 10.769,18.414 C 10.735,18.391 10.167,17.88 10.026,17.699 9.888,17.516 9.622,17.468 9.483,17.395 9.343,17.323 8.419,17.018 8.197,17.176 7.978,17.334 7.676,17.43 7.559,17.176 7.444,16.92 7.386,16.884 7.224,16.848 7.062,16.812 7.143,16.619 7.132,16.449 7.119,16.278 7.027,16.096 6.911,16.218 6.795,16.34 6.401,16.656 6.344,16.496 6.286,16.339 6.007,15.684 6.425,15.561 c 0.416,-0.12 0.764,-0.049 0.869,0.061 0.104,0.108 0.184,0.413 0.313,0.376 0.128,-0.037 0.058,-0.269 0.104,-0.461 0.046,-0.193 0.349,-0.449 0.486,-0.715 0.139,-0.269 0.162,-0.426 0.335,-0.499 0.176,-0.072 0.268,-0.169 0.43,-0.291 0.163,-0.122 0.416,-0.23 0.511,-0.292 0.093,-0.062 0.509,-0.268 0.647,-0.231 0.139,0.037 0.231,-0.012 0.116,-0.218 C 10.12,13.085 9.97,12.465 9.75,12.187 9.53,11.909 9.506,11.834 9.402,11.569 9.298,11.3 9.181,11.07 9.1,11.252 9.019,11.434 8.846,11.677 8.753,11.446 8.661,11.215 8.672,11.226 8.556,11.118 8.441,11.009 8.347,10.984 8.186,10.935 c -0.162,-0.049 -0.324,0.013 -0.313,0.17 0.011,0.158 -0.152,0.439 -0.046,0.646 0.104,0.207 0.197,0.425 0.057,0.498 -0.138,0.072 0,0.51 -0.138,0.497 -0.139,-0.011 -0.208,0.013 -0.208,-0.146 0,-0.156 0.069,-0.399 -0.187,-0.399 -0.254,0 -0.405,-0.133 -0.59,-0.268 C 6.575,11.8 6.425,11.872 6.471,11.57 6.517,11.265 6.449,11.157 6.656,10.987 c 0.209,-0.169 0.256,-0.268 0.406,-0.194 0.151,0.073 0.254,0.073 0.349,-0.012 0.092,-0.085 0.265,-0.05 0.265,-0.158 0,-0.109 -0.197,-0.109 -0.173,-0.29 0.022,-0.185 0.116,-0.086 0.15,-0.39 C 7.687,9.639 7.433,9.178 7.178,9.239 6.922,9.299 6.53,9.652 6.449,9.493 6.367,9.336 6.205,9.408 5.892,9.518 5.579,9.628 4.282,9.41 4.19,9.299 4.19,9.299 3.969,9.142 3.853,9.227 3.738,9.312 3.274,9.275 3.135,9.252 2.995,9.227 2.868,9.409 2.696,9.349 2.52,9.288 1.907,9.166 1.769,9.069 1.628,8.971 1.419,8.971 1.329,8.923 1.236,8.874 0.899,8.85 0.831,8.947 0.761,9.044 0.506,9.213 0.378,9.335 0.251,9.457 0.102,9.433 0.228,9.688 c 0.127,0.255 -0.324,0.413 -0.209,0.691 0.115,0.278 -0.023,1.031 0.44,1.177 0.464,0.146 0.846,0.231 1.112,0.014 0.268,-0.22 0.673,-0.22 0.8,0.023 0.127,0.243 0.197,0.607 0.613,0.813 0.416,0.207 0.776,0.802 0.753,1.067 -0.022,0.268 0.013,1.153 0.439,1.663 0.43,0.51 0.87,1.434 0.903,1.214 0.035,-0.219 0.035,-0.438 0.129,-0.279 0.091,0.158 0.335,0.644 0.729,0.729 0.395,0.085 0.592,0.109 0.741,0.256 0.15,0.146 0.279,0.23 0.44,0.304 0.162,0.072 0.556,0.292 0.637,0.437 0.082,0.146 0.047,0.34 -0.035,0.559 -0.08,0.219 -0.173,0.437 -0.058,0.644 0.117,0.206 0.36,0.801 0.558,0.934 0.197,0.135 0.392,0.353 0.346,0.656 -0.046,0.303 -0.266,1.602 -0.243,1.894 0.024,0.29 -0.265,1.249 -0.034,1.638 0.231,0.388 0.627,0.51 0.8,0.46 C 9.262,24.535 9.124,24.521 9.042,24.34 8.961,24.157 8.972,23.926 9.065,23.757 9.159,23.587 9.159,23.49 9.112,23.296 9.065,23.102 9.089,22.992 9.204,22.847 c 0.117,-0.146 0.603,-0.534 0.754,-0.704 0.149,-0.17 1.101,-1.336 1.228,-1.433 0.127,-0.097 0.416,-0.328 0.51,-0.691 0.093,-0.363 0.428,-1.08 0.197,-1.263 -0.232,-0.183 -1.089,-0.318 -1.124,-0.342 z"/></g><g style="fill:#b3ff80" id="g7191"><path style="fill:#b3ff80" id="path7193" d="m 13.085,8.17 c 0.066,-0.129 0.226,-0.452 0.312,-0.629 l -3.67,0 C 9.771,7.736 9.93,8.46 9.9,8.753 c -0.035,0.34 0.07,0.219 0.162,0.353 0.093,0.134 0.07,0.341 0.012,0.497 -0.059,0.158 -0.093,0.511 0.094,0.924 0.184,0.412 0.404,0.934 0.589,0.959 0.187,0.023 0.14,0.291 0.268,0.193 0.127,-0.098 0.149,-0.314 0.255,-0.631 0.104,-0.314 0.104,-0.546 0.371,-0.704 0.267,-0.158 1.007,-0.667 1.169,-0.85 0.163,-0.183 0.348,-0.255 0.29,-0.57 C 13.05,8.608 12.993,8.353 13.085,8.17 Z"/></g><g style="fill:#b3ff80" id="g7195"><path style="fill:#b3ff80" id="path7197" d="M 31.154,9.603 C 31.015,9.506 30.182,8.839 29.822,8.924 29.465,9.009 28.827,8.729 28.722,8.669 28.618,8.608 27.762,8.345 27.31,8.329 27.085,8.321 26.14,8.11 25.746,7.941 25.351,7.77 25.017,6.933 24.264,7.067 24.167,7.085 23.257,7.213 23.025,7.42 c -0.23,0.207 -0.336,0.448 -0.463,0.497 -0.127,0.049 -0.498,0.024 -0.498,0.207 0,0.182 0.128,0.741 -0.022,0.631 -0.151,-0.109 -0.302,-0.364 -0.37,-0.169 -0.069,0.195 -0.188,0.303 -0.256,0.23 -0.068,-0.073 -0.418,0 -0.463,0.121 -0.047,0.122 -0.498,0.4 -0.694,0.438 -0.197,0.036 -0.279,0.133 -0.383,0.182 -0.104,0.048 -0.893,0.413 -1.042,0.279 -0.151,-0.133 -0.197,-0.048 -0.29,-0.024 0,0 -0.278,-0.049 -0.451,-0.267 C 17.918,9.327 17.884,9.399 17.687,9.193 17.491,8.987 17.444,8.781 17.248,8.866 17.052,8.95 16.218,9.811 15.893,10.2 c -0.323,0.389 -0.903,0.789 -0.614,1.067 0.291,0.279 0.44,0.243 0.476,0.4 0.036,0.157 0.07,0.328 0.116,0.389 0.046,0.062 0.323,0.279 0.463,-0.012 0.141,-0.292 0.162,-0.498 0.324,-0.449 0.162,0.048 0.196,0.158 0.114,0.376 -0.081,0.22 -0.138,0.559 -0.416,0.546 -0.277,-0.012 -0.578,-0.182 -0.672,-0.145 -0.092,0.036 -0.148,0.121 -0.254,0.206 -0.104,0.085 -0.429,0.484 -0.649,0.546 -0.219,0.061 -0.485,0.011 -0.335,0.193 0.15,0.182 0.37,0.583 0.162,0.57 -0.208,-0.012 -0.556,-0.048 -0.579,0.158 -0.023,0.206 -0.115,0.328 -0.069,0.473 0.046,0.146 0.197,0.426 0.381,0.328 0.188,-0.098 0.546,-0.193 0.638,-0.413 0.093,-0.219 0.198,-0.46 0.429,-0.448 0.231,0.012 0.788,0.315 0.752,0.425 -0.034,0.108 -0.149,0.364 -0.011,0.279 0.139,-0.086 0.254,-0.183 0.335,-0.219 0.081,-0.037 0.188,0.122 0.221,0.183 0.034,0.062 0.267,0.182 0.312,-0.014 0.047,-0.193 0.093,-0.047 0.231,0.014 0.14,0.062 0.556,0.108 0.612,0.157 0.06,0.049 0.187,0.194 0.024,0.389 -0.162,0.193 -0.348,0.268 -0.614,0.122 -0.267,-0.146 -0.557,0.122 -0.855,-0.025 -0.303,-0.145 -0.163,-0.351 -0.522,-0.497 -0.357,-0.146 -1.169,0.036 -1.425,0.109 -0.255,0.072 -0.266,0.097 -0.37,0.218 -0.104,0.122 -0.787,0.91 -0.787,1.359 0,0.448 0.254,1.664 1.076,1.542 0.823,-0.122 1.321,-0.05 1.229,0.192 -0.094,0.244 -0.046,0.305 0.104,0.583 0.15,0.279 0.499,2.137 0.556,2.439 0.06,0.304 -0.045,0.691 0.337,0.631 0.384,-0.061 0.788,-0.157 0.949,-0.509 0.163,-0.353 0.188,-0.752 0.396,-0.958 0.209,-0.207 0.463,-0.207 0.485,-0.498 0.022,-0.292 -0.058,-0.983 0.081,-1.143 0.14,-0.156 0.787,-0.886 0.856,-1.177 0.07,-0.291 0.162,-0.364 -0.104,-0.364 -0.266,0 -0.718,-0.035 -0.847,-0.278 C 18.302,16.705 18,16.244 18,16.135 c 0,-0.108 0.186,-0.097 0.277,0.133 0.094,0.23 0.416,0.924 0.787,0.776 0.371,-0.146 0.893,-0.315 0.904,-0.546 0.011,-0.23 -0.162,-0.497 -0.348,-0.484 -0.187,0.013 -0.383,-0.122 -0.383,-0.255 0,-0.133 0.034,-0.084 0.255,0 0.221,0.085 0.289,0.23 0.626,0.255 0.336,0.024 0.718,0.352 0.902,0.498 0.186,0.146 0.509,1.142 0.591,1.238 0.08,0.098 0.176,0.098 0.256,-0.097 0.081,-0.195 0.428,-0.813 0.626,-0.984 0.196,-0.17 0.208,-0.4 0.322,-0.254 0.116,0.146 0.614,0.509 0.649,0.728 0.035,0.219 -0.023,0.692 0.081,0.546 0.104,-0.146 0.186,-0.448 0.276,-0.314 0.094,0.134 0.094,0.34 0.313,0.182 0.221,-0.156 0.603,-0.218 0.395,-0.558 -0.208,-0.34 -0.069,-0.546 0.06,-0.559 0.127,-0.013 0.996,-0.17 1.019,-0.644 0.023,-0.473 -0.302,-0.728 -0.148,-0.971 0.148,-0.243 0.369,-0.461 0.416,-0.316 0.046,0.146 -0.116,0.619 0.092,0.546 0.209,-0.072 0.452,-0.072 0.452,-0.219 0,-0.147 -0.047,-0.511 0.047,-0.607 0.093,-0.097 0.775,-0.739 0.856,-0.994 0.081,-0.256 0.232,-0.474 0.104,-0.667 -0.128,-0.194 -0.347,-0.135 -0.174,-0.376 0.174,-0.243 0.464,-0.468 0.684,-0.486 0.703,-0.062 0.505,0.808 0.517,1.002 0.013,0.194 0.013,0.68 0.116,0.437 0.104,-0.242 0.225,-0.541 0.434,-0.747 0.209,-0.205 0.324,-0.34 0.337,-0.521 0.012,-0.182 0.021,-0.243 0.22,-0.34 0.197,-0.098 1.065,-0.438 1.146,-0.667 0.081,-0.23 -0.104,-0.438 0.104,-0.424 0.208,0.011 0.405,0.241 0.51,0.12 0.104,-0.12 0.336,-0.339 0.324,-0.461 C 31.631,9.979 31.295,9.7 31.154,9.603 Z"/></g><g style="fill:#b3ff80" id="g7199"><path style="fill:#b3ff80" id="path7201" d="m 27.415,13.68 c -0.07,0.159 -0.104,0.184 -0.208,0.512 -0.106,0.326 -0.071,0.241 -0.176,0.447 -0.104,0.207 -0.276,0.23 -0.45,0.365 -0.176,0.134 -0.222,0.4 -0.222,0.4 -0.15,0.206 0.614,-0.292 0.88,-0.449 0.267,-0.158 0.198,-0.34 0.221,-0.595 0.023,-0.256 0.095,-0.292 0.208,-0.401 0.115,-0.109 0.023,-0.328 -0.032,-0.485 -0.06,-0.157 -0.153,0.05 -0.221,0.206 z"/></g><g style="fill:#b3ff80" id="g7203"><path style="fill:#b3ff80" id="path7205" d="m 25.04,19.192 c 0.081,-0.062 0.022,-0.194 0.149,-0.171 0.128,0.024 0.243,0.099 0.396,0.014 0.149,-0.086 0.277,-0.05 0.254,-0.195 -0.022,-0.145 0,-0.339 -0.034,-0.46 -0.035,-0.122 -0.243,-0.159 -0.394,-0.024 -0.151,0.135 -0.358,0.341 -0.358,0.267 0,-0.072 0.091,-0.267 0.045,-0.388 -0.045,-0.121 0.023,-0.23 -0.208,-0.134 -0.232,0.098 -0.359,0.073 -0.44,0.207 -0.08,0.135 -0.174,0.364 -0.312,0.219 C 24,18.382 23.593,18.079 23.593,18.079 23.56,18.042 23.097,17.665 23.259,17.921 c 0.161,0.255 0.405,0.692 0.521,0.849 0.114,0.158 0.242,0.341 0.382,0.256 0.139,-0.086 0.162,-0.109 0.348,0 0.181,0.105 0.449,0.227 0.53,0.166 z"/></g><g style="fill:#b3ff80" id="g7207"><path style="fill:#b3ff80" id="path7209" d="m 27.878,18.851 c -0.222,-0.097 -0.129,-0.182 -0.396,-0.229 -0.267,-0.047 -0.485,0 -0.557,-0.048 -0.07,-0.049 -0.416,-0.17 -0.37,0 0.047,0.171 0.359,0.218 0.44,0.266 0.081,0.049 -0.116,0.159 0.033,0.243 0.15,0.084 0.256,0.243 0.452,0.194 0.197,-0.05 0.267,0.061 0.427,0.085 0.163,0.023 0.325,-0.024 0.258,-0.099 -0.07,-0.071 -0.115,-0.17 -0.104,-0.254 0.012,-0.085 0.036,-0.06 -0.183,-0.158 z"/></g><g style="fill:#b3ff80" id="g7211"><path style="fill:#b3ff80" id="path7213" d="m 27.762,19.932 c -0.081,-0.243 -0.278,-0.69 -0.323,-0.473 -0.047,0.218 -0.359,0.375 -0.477,0.363 -0.106,-0.012 -0.046,-0.121 -0.046,-0.22 0,-0.097 -0.061,-0.193 -0.325,-0.12 -0.268,0.072 -0.323,0.327 -0.395,0.304 -0.068,-0.024 -0.255,-0.073 -0.369,0.061 -0.116,0.134 -0.222,0.389 -0.359,0.438 -0.14,0.049 -0.604,0.108 -0.604,0.304 0,0.194 0.117,0.485 0.105,0.643 -0.012,0.158 -0.223,0.521 0.058,0.632 0.162,0.063 0.277,0.072 0.465,-0.024 0.185,-0.097 0.983,-0.352 1.089,-0.268 0.104,0.085 0.272,0.284 0.347,0.327 0.147,0.088 0.187,0.291 0.384,0.34 0.194,0.049 0.347,0.072 0.427,0.072 0.082,0 0.37,-0.097 0.44,-0.267 0.07,-0.171 0.197,-0.571 0.255,-0.765 0.061,-0.194 0.115,-0.412 -0.058,-0.583 -0.173,-0.169 -0.533,-0.521 -0.614,-0.764 z"/></g></g></g></g><g id="g7349" transform="matrix(3.7729705,0,0,3.7729705,3.7097582,7.0543457)" style="fill:url(#linearGradient7419);fill-opacity:1"><g id="g7351" style="fill:url(#linearGradient9159);fill-opacity:1"><g id="g7353" style="fill:url(#linearGradient9157);fill-opacity:1"><g id="g7355" style="fill:url(#linearGradient9131);fill-opacity:1"><path id="path7357" d="M 10.769,18.414 C 10.735,18.391 10.167,17.88 10.026,17.699 9.888,17.516 9.622,17.468 9.483,17.395 9.343,17.323 8.419,17.018 8.197,17.176 7.978,17.334 7.676,17.43 7.559,17.176 7.444,16.92 7.386,16.884 7.224,16.848 7.062,16.812 7.143,16.619 7.132,16.449 7.119,16.278 7.027,16.096 6.911,16.218 6.795,16.34 6.401,16.656 6.344,16.496 6.286,16.339 6.007,15.684 6.425,15.561 c 0.416,-0.12 0.764,-0.049 0.869,0.061 0.104,0.108 0.184,0.413 0.313,0.376 0.128,-0.037 0.058,-0.269 0.104,-0.461 0.046,-0.193 0.349,-0.449 0.486,-0.715 0.139,-0.269 0.162,-0.426 0.335,-0.499 0.176,-0.072 0.268,-0.169 0.43,-0.291 0.163,-0.122 0.416,-0.23 0.511,-0.292 0.093,-0.062 0.509,-0.268 0.647,-0.231 0.139,0.037 0.231,-0.012 0.116,-0.218 C 10.12,13.085 9.97,12.465 9.75,12.187 9.53,11.909 9.506,11.834 9.402,11.569 9.298,11.3 9.181,11.07 9.1,11.252 9.019,11.434 8.846,11.677 8.753,11.446 8.661,11.215 8.672,11.226 8.556,11.118 8.441,11.009 8.347,10.984 8.186,10.935 c -0.162,-0.049 -0.324,0.013 -0.313,0.17 0.011,0.158 -0.152,0.439 -0.046,0.646 0.104,0.207 0.197,0.425 0.057,0.498 -0.138,0.072 0,0.51 -0.138,0.497 -0.139,-0.011 -0.208,0.013 -0.208,-0.146 0,-0.156 0.069,-0.399 -0.187,-0.399 -0.254,0 -0.405,-0.133 -0.59,-0.268 C 6.575,11.8 6.425,11.872 6.471,11.57 6.517,11.265 6.449,11.157 6.656,10.987 c 0.209,-0.169 0.256,-0.268 0.406,-0.194 0.151,0.073 0.254,0.073 0.349,-0.012 0.092,-0.085 0.265,-0.05 0.265,-0.158 0,-0.109 -0.197,-0.109 -0.173,-0.29 0.022,-0.185 0.116,-0.086 0.15,-0.39 C 7.687,9.639 7.433,9.178 7.178,9.239 6.922,9.299 6.53,9.652 6.449,9.493 6.367,9.336 6.205,9.408 5.892,9.518 5.579,9.628 4.282,9.41 4.19,9.299 4.19,9.299 3.969,9.142 3.853,9.227 3.738,9.312 3.274,9.275 3.135,9.252 2.995,9.227 2.868,9.409 2.696,9.349 2.52,9.288 1.907,9.166 1.769,9.069 1.628,8.971 1.419,8.971 1.329,8.923 1.236,8.874 0.899,8.85 0.831,8.947 0.761,9.044 0.506,9.213 0.378,9.335 0.251,9.457 0.102,9.433 0.228,9.688 c 0.127,0.255 -0.324,0.413 -0.209,0.691 0.115,0.278 -0.023,1.031 0.44,1.177 0.464,0.146 0.846,0.231 1.112,0.014 0.268,-0.22 0.673,-0.22 0.8,0.023 0.127,0.243 0.197,0.607 0.613,0.813 0.416,0.207 0.776,0.802 0.753,1.067 -0.022,0.268 0.013,1.153 0.439,1.663 0.43,0.51 0.87,1.434 0.903,1.214 0.035,-0.219 0.035,-0.438 0.129,-0.279 0.091,0.158 0.335,0.644 0.729,0.729 0.395,0.085 0.592,0.109 0.741,0.256 0.15,0.146 0.279,0.23 0.44,0.304 0.162,0.072 0.556,0.292 0.637,0.437 0.082,0.146 0.047,0.34 -0.035,0.559 -0.08,0.219 -0.173,0.437 -0.058,0.644 0.117,0.206 0.36,0.801 0.558,0.934 0.197,0.135 0.392,0.353 0.346,0.656 -0.046,0.303 -0.266,1.602 -0.243,1.894 0.024,0.29 -0.265,1.249 -0.034,1.638 0.231,0.388 0.627,0.51 0.8,0.46 C 9.262,24.535 9.124,24.521 9.042,24.34 8.961,24.157 8.972,23.926 9.065,23.757 9.159,23.587 9.159,23.49 9.112,23.296 9.065,23.102 9.089,22.992 9.204,22.847 c 0.117,-0.146 0.603,-0.534 0.754,-0.704 0.149,-0.17 1.101,-1.336 1.228,-1.433 0.127,-0.097 0.416,-0.328 0.51,-0.691 0.093,-0.363 0.428,-1.08 0.197,-1.263 -0.232,-0.183 -1.089,-0.318 -1.124,-0.342 z" style="fill:url(#linearGradient9129);fill-opacity:1"/></g><g id="g7359" style="fill:url(#linearGradient9135);fill-opacity:1"><path id="path7361" d="m 13.085,8.17 c 0.066,-0.129 0.226,-0.452 0.312,-0.629 l -3.67,0 C 9.771,7.736 9.93,8.46 9.9,8.753 c -0.035,0.34 0.07,0.219 0.162,0.353 0.093,0.134 0.07,0.341 0.012,0.497 -0.059,0.158 -0.093,0.511 0.094,0.924 0.184,0.412 0.404,0.934 0.589,0.959 0.187,0.023 0.14,0.291 0.268,0.193 0.127,-0.098 0.149,-0.314 0.255,-0.631 0.104,-0.314 0.104,-0.546 0.371,-0.704 0.267,-0.158 1.007,-0.667 1.169,-0.85 0.163,-0.183 0.348,-0.255 0.29,-0.57 C 13.05,8.608 12.993,8.353 13.085,8.17 Z" style="fill:url(#linearGradient9133);fill-opacity:1"/></g><g id="g7363" style="fill:url(#linearGradient9139);fill-opacity:1"><path id="path7365" d="M 31.154,9.603 C 31.015,9.506 30.182,8.839 29.822,8.924 29.465,9.009 28.827,8.729 28.722,8.669 28.618,8.608 27.762,8.345 27.31,8.329 27.085,8.321 26.14,8.11 25.746,7.941 25.351,7.77 25.017,6.933 24.264,7.067 24.167,7.085 23.257,7.213 23.025,7.42 c -0.23,0.207 -0.336,0.448 -0.463,0.497 -0.127,0.049 -0.498,0.024 -0.498,0.207 0,0.182 0.128,0.741 -0.022,0.631 -0.151,-0.109 -0.302,-0.364 -0.37,-0.169 -0.069,0.195 -0.188,0.303 -0.256,0.23 -0.068,-0.073 -0.418,0 -0.463,0.121 -0.047,0.122 -0.498,0.4 -0.694,0.438 -0.197,0.036 -0.279,0.133 -0.383,0.182 -0.104,0.048 -0.893,0.413 -1.042,0.279 -0.151,-0.133 -0.197,-0.048 -0.29,-0.024 0,0 -0.278,-0.049 -0.451,-0.267 C 17.918,9.327 17.884,9.399 17.687,9.193 17.491,8.987 17.444,8.781 17.248,8.866 17.052,8.95 16.218,9.811 15.893,10.2 c -0.323,0.389 -0.903,0.789 -0.614,1.067 0.291,0.279 0.44,0.243 0.476,0.4 0.036,0.157 0.07,0.328 0.116,0.389 0.046,0.062 0.323,0.279 0.463,-0.012 0.141,-0.292 0.162,-0.498 0.324,-0.449 0.162,0.048 0.196,0.158 0.114,0.376 -0.081,0.22 -0.138,0.559 -0.416,0.546 -0.277,-0.012 -0.578,-0.182 -0.672,-0.145 -0.092,0.036 -0.148,0.121 -0.254,0.206 -0.104,0.085 -0.429,0.484 -0.649,0.546 -0.219,0.061 -0.485,0.011 -0.335,0.193 0.15,0.182 0.37,0.583 0.162,0.57 -0.208,-0.012 -0.556,-0.048 -0.579,0.158 -0.023,0.206 -0.115,0.328 -0.069,0.473 0.046,0.146 0.197,0.426 0.381,0.328 0.188,-0.098 0.546,-0.193 0.638,-0.413 0.093,-0.219 0.198,-0.46 0.429,-0.448 0.231,0.012 0.788,0.315 0.752,0.425 -0.034,0.108 -0.149,0.364 -0.011,0.279 0.139,-0.086 0.254,-0.183 0.335,-0.219 0.081,-0.037 0.188,0.122 0.221,0.183 0.034,0.062 0.267,0.182 0.312,-0.014 0.047,-0.193 0.093,-0.047 0.231,0.014 0.14,0.062 0.556,0.108 0.612,0.157 0.06,0.049 0.187,0.194 0.024,0.389 -0.162,0.193 -0.348,0.268 -0.614,0.122 -0.267,-0.146 -0.557,0.122 -0.855,-0.025 -0.303,-0.145 -0.163,-0.351 -0.522,-0.497 -0.357,-0.146 -1.169,0.036 -1.425,0.109 -0.255,0.072 -0.266,0.097 -0.37,0.218 -0.104,0.122 -0.787,0.91 -0.787,1.359 0,0.448 0.254,1.664 1.076,1.542 0.823,-0.122 1.321,-0.05 1.229,0.192 -0.094,0.244 -0.046,0.305 0.104,0.583 0.15,0.279 0.499,2.137 0.556,2.439 0.06,0.304 -0.045,0.691 0.337,0.631 0.384,-0.061 0.788,-0.157 0.949,-0.509 0.163,-0.353 0.188,-0.752 0.396,-0.958 0.209,-0.207 0.463,-0.207 0.485,-0.498 0.022,-0.292 -0.058,-0.983 0.081,-1.143 0.14,-0.156 0.787,-0.886 0.856,-1.177 0.07,-0.291 0.162,-0.364 -0.104,-0.364 -0.266,0 -0.718,-0.035 -0.847,-0.278 C 18.302,16.705 18,16.244 18,16.135 c 0,-0.108 0.186,-0.097 0.277,0.133 0.094,0.23 0.416,0.924 0.787,0.776 0.371,-0.146 0.893,-0.315 0.904,-0.546 0.011,-0.23 -0.162,-0.497 -0.348,-0.484 -0.187,0.013 -0.383,-0.122 -0.383,-0.255 0,-0.133 0.034,-0.084 0.255,0 0.221,0.085 0.289,0.23 0.626,0.255 0.336,0.024 0.718,0.352 0.902,0.498 0.186,0.146 0.509,1.142 0.591,1.238 0.08,0.098 0.176,0.098 0.256,-0.097 0.081,-0.195 0.428,-0.813 0.626,-0.984 0.196,-0.17 0.208,-0.4 0.322,-0.254 0.116,0.146 0.614,0.509 0.649,0.728 0.035,0.219 -0.023,0.692 0.081,0.546 0.104,-0.146 0.186,-0.448 0.276,-0.314 0.094,0.134 0.094,0.34 0.313,0.182 0.221,-0.156 0.603,-0.218 0.395,-0.558 -0.208,-0.34 -0.069,-0.546 0.06,-0.559 0.127,-0.013 0.996,-0.17 1.019,-0.644 0.023,-0.473 -0.302,-0.728 -0.148,-0.971 0.148,-0.243 0.369,-0.461 0.416,-0.316 0.046,0.146 -0.116,0.619 0.092,0.546 0.209,-0.072 0.452,-0.072 0.452,-0.219 0,-0.147 -0.047,-0.511 0.047,-0.607 0.093,-0.097 0.775,-0.739 0.856,-0.994 0.081,-0.256 0.232,-0.474 0.104,-0.667 -0.128,-0.194 -0.347,-0.135 -0.174,-0.376 0.174,-0.243 0.464,-0.468 0.684,-0.486 0.703,-0.062 0.505,0.808 0.517,1.002 0.013,0.194 0.013,0.68 0.116,0.437 0.104,-0.242 0.225,-0.541 0.434,-0.747 0.209,-0.205 0.324,-0.34 0.337,-0.521 0.012,-0.182 0.021,-0.243 0.22,-0.34 0.197,-0.098 1.065,-0.438 1.146,-0.667 0.081,-0.23 -0.104,-0.438 0.104,-0.424 0.208,0.011 0.405,0.241 0.51,0.12 0.104,-0.12 0.336,-0.339 0.324,-0.461 C 31.631,9.979 31.295,9.7 31.154,9.603 Z" style="fill:url(#linearGradient9137);fill-opacity:1"/></g><g id="g7367" style="fill:url(#linearGradient9143);fill-opacity:1"><path id="path7369" d="m 27.415,13.68 c -0.07,0.159 -0.104,0.184 -0.208,0.512 -0.106,0.326 -0.071,0.241 -0.176,0.447 -0.104,0.207 -0.276,0.23 -0.45,0.365 -0.176,0.134 -0.222,0.4 -0.222,0.4 -0.15,0.206 0.614,-0.292 0.88,-0.449 0.267,-0.158 0.198,-0.34 0.221,-0.595 0.023,-0.256 0.095,-0.292 0.208,-0.401 0.115,-0.109 0.023,-0.328 -0.032,-0.485 -0.06,-0.157 -0.153,0.05 -0.221,0.206 z" style="fill:url(#linearGradient9141);fill-opacity:1"/></g><g id="g7371" style="fill:url(#linearGradient9147);fill-opacity:1"><path id="path7373" d="m 25.04,19.192 c 0.081,-0.062 0.022,-0.194 0.149,-0.171 0.128,0.024 0.243,0.099 0.396,0.014 0.149,-0.086 0.277,-0.05 0.254,-0.195 -0.022,-0.145 0,-0.339 -0.034,-0.46 -0.035,-0.122 -0.243,-0.159 -0.394,-0.024 -0.151,0.135 -0.358,0.341 -0.358,0.267 0,-0.072 0.091,-0.267 0.045,-0.388 -0.045,-0.121 0.023,-0.23 -0.208,-0.134 -0.232,0.098 -0.359,0.073 -0.44,0.207 -0.08,0.135 -0.174,0.364 -0.312,0.219 C 24,18.382 23.593,18.079 23.593,18.079 23.56,18.042 23.097,17.665 23.259,17.921 c 0.161,0.255 0.405,0.692 0.521,0.849 0.114,0.158 0.242,0.341 0.382,0.256 0.139,-0.086 0.162,-0.109 0.348,0 0.181,0.105 0.449,0.227 0.53,0.166 z" style="fill:url(#linearGradient9145);fill-opacity:1"/></g><g id="g7375" style="fill:url(#linearGradient9151);fill-opacity:1"><path id="path7377" d="m 27.878,18.851 c -0.222,-0.097 -0.129,-0.182 -0.396,-0.229 -0.267,-0.047 -0.485,0 -0.557,-0.048 -0.07,-0.049 -0.416,-0.17 -0.37,0 0.047,0.171 0.359,0.218 0.44,0.266 0.081,0.049 -0.116,0.159 0.033,0.243 0.15,0.084 0.256,0.243 0.452,0.194 0.197,-0.05 0.267,0.061 0.427,0.085 0.163,0.023 0.325,-0.024 0.258,-0.099 -0.07,-0.071 -0.115,-0.17 -0.104,-0.254 0.012,-0.085 0.036,-0.06 -0.183,-0.158 z" style="fill:url(#linearGradient9149);fill-opacity:1"/></g><g id="g7379" style="fill:url(#linearGradient9155);fill-opacity:1"><path id="path7381" d="m 27.762,19.932 c -0.081,-0.243 -0.278,-0.69 -0.323,-0.473 -0.047,0.218 -0.359,0.375 -0.477,0.363 -0.106,-0.012 -0.046,-0.121 -0.046,-0.22 0,-0.097 -0.061,-0.193 -0.325,-0.12 -0.268,0.072 -0.323,0.327 -0.395,0.304 -0.068,-0.024 -0.255,-0.073 -0.369,0.061 -0.116,0.134 -0.222,0.389 -0.359,0.438 -0.14,0.049 -0.604,0.108 -0.604,0.304 0,0.194 0.117,0.485 0.105,0.643 -0.012,0.158 -0.223,0.521 0.058,0.632 0.162,0.063 0.277,0.072 0.465,-0.024 0.185,-0.097 0.983,-0.352 1.089,-0.268 0.104,0.085 0.272,0.284 0.347,0.327 0.147,0.088 0.187,0.291 0.384,0.34 0.194,0.049 0.347,0.072 0.427,0.072 0.082,0 0.37,-0.097 0.44,-0.267 0.07,-0.171 0.197,-0.571 0.255,-0.765 0.061,-0.194 0.115,-0.412 -0.058,-0.583 -0.173,-0.169 -0.533,-0.521 -0.614,-0.764 z" style="fill:url(#linearGradient9153);fill-opacity:1"/></g></g></g></g></g><g id="Layer_1" transform="matrix(0.28945489,0,0,0.28945489,51.669416,52.91343)"><g id="g116"><linearGradient id="linearGradient8570" x1="128" x2="128" y1="244.428" y2="11.573" gradientUnits="userSpaceOnUse"><stop id="stop8572" offset=".006" style="stop-color:#0035ed;stop-opacity:1"/><stop id="stop8574" offset=".545" style="stop-color:#00008d;stop-opacity:1"/><stop id="stop8576" offset="1" style="stop-color:#0053bd;stop-opacity:1"/><midPointStop id="midPointStop126" offset=".006" style="stop-color:#0035ed"/><midPointStop id="midPointStop128" offset=".5" style="stop-color:#0035ed"/><midPointStop id="midPointStop130" offset=".545" style="stop-color:#00008d"/><midPointStop id="midPointStop132" offset=".5" style="stop-color:#00008d"/><midPointStop id="midPointStop134" offset="1" style="stop-color:#0053bd"/></linearGradient><path id="path137" d="m 4.9804688,128 c 0,67.83203 55.1875002,123.02148 123.0214812,123.02148 67.83106,0 123.01758,-55.18945 123.01758,-123.02148 C 251.01953,60.166504 195.83301,4.9785156 128.00195,4.9785156 60.167969,4.9785156 4.9804688,60.166504 4.9804688,128 Z" style="fill:url(#XMLID_11_)"/><linearGradient id="linearGradient8579" x1="128" x2="127.999" y1="244.407" y2="11.546" gradientUnits="userSpaceOnUse"><stop id="stop8581" offset=".006" style="stop-color:#428aff;stop-opacity:1"/><stop id="stop8583" offset=".573" style="stop-color:#94caff;stop-opacity:1"/><stop id="stop8585" offset="1" style="stop-color:#dcf0ff;stop-opacity:1"/><midPointStop id="midPointStop147" offset=".006" style="stop-color:#428aff"/><midPointStop id="midPointStop149" offset=".5" style="stop-color:#428aff"/><midPointStop id="midPointStop151" offset=".573" style="stop-color:#94caff"/><midPointStop id="midPointStop153" offset=".5" style="stop-color:#94caff"/><midPointStop id="midPointStop155" offset="1" style="stop-color:#dcf0ff"/></linearGradient><path id="path158" d="m 12.379883,128 c 0,63.75391 51.868164,115.62109 115.622067,115.62109 63.75196,0 115.61719,-51.86718 115.61719,-115.62109 0,-63.753906 -51.86523,-115.621582 -115.61719,-115.621582 C 64.248047,12.378418 12.379883,64.246094 12.379883,128 Z" style="fill:url(#XMLID_12_)"/><linearGradient id="linearGradient8588" x1="128.002" x2="128.002" y1="239.712" y2="16.285" gradientUnits="userSpaceOnUse"><stop id="stop8590" offset="0" style="stop-color:#fff;stop-opacity:1"/><stop id="stop8592" offset=".5" style="stop-color:#006dff;stop-opacity:1"/><stop id="stop8594" offset="1" style="stop-color:#c9e6ff;stop-opacity:1"/><midPointStop id="midPointStop168" offset="0" style="stop-color:#fff"/><midPointStop id="midPointStop170" offset=".5" style="stop-color:#fff"/><midPointStop id="midPointStop172" offset=".5" style="stop-color:#006dff"/><midPointStop id="midPointStop174" offset=".5" style="stop-color:#006dff"/><midPointStop id="midPointStop176" offset="1" style="stop-color:#c9e6ff"/></linearGradient><path id="path179" d="m 16.285156,128 c 0,61.60352 50.119141,111.71191 111.716794,111.71191 61.60157,0 111.7168,-50.10839 111.7168,-111.71191 0,-61.597656 -50.11523,-111.715332 -111.7168,-111.715332 C 66.404297,16.284668 16.285156,66.402344 16.285156,128 Z" style="fill:url(#XMLID_13_)"/><path id="path181" d="m 128.00195,30.241699 c -56.102536,0 -101.750973,45.638184 -101.750973,101.747561 0,56.10254 45.648437,101.73926 101.750973,101.73926 56.1045,0 101.74805,-45.63672 101.74805,-101.73926 0,-56.109377 -45.64355,-101.747561 -101.74805,-101.747561 z" style="opacity:.8;fill:#fff"/><path id="path183" d="m 26.250977,128 c 0,56.10645 45.648437,101.73926 101.750973,101.73926 C 184.10645,229.73926 229.75,184.10645 229.75,128 229.75,71.896973 184.10645,26.252441 128.00195,26.252441 71.899414,26.252441 26.250977,71.896973 26.250977,128 Z" style="fill:#00008d"/><radialGradient id="radialGradient8599" cx="59.616" cy="234.039" r="69.963" fx="59.616" fy="234.039" gradientTransform="matrix(1.4187,0,0,1.4187,43.4252,-204.0338)" gradientUnits="userSpaceOnUse"><stop id="stop8601" offset=".601" style="stop-color:#fff;stop-opacity:1"/><stop id="stop8603" offset=".876" style="stop-color:#eaeaf0;stop-opacity:1"/><stop id="stop8605" offset=".914" style="stop-color:#e6e6ed;stop-opacity:1"/><stop id="stop8607" offset=".95" style="stop-color:#dbdbe5;stop-opacity:1"/><stop id="stop8609" offset=".985" style="stop-color:#c8c8d7;stop-opacity:1"/><stop id="stop8611" offset="1" style="stop-color:#bdbdcf;stop-opacity:1"/><midPointStop id="midPointStop199" offset=".601" style="stop-color:#fff"/><midPointStop id="midPointStop201" offset=".5" style="stop-color:#fff"/><midPointStop id="midPointStop203" offset=".876" style="stop-color:#eaeaf0"/><midPointStop id="midPointStop205" offset=".718" style="stop-color:#eaeaf0"/><midPointStop id="midPointStop207" offset="1" style="stop-color:#bdbdcf"/></radialGradient><path id="path210" d="m 28.743164,128 c 0,54.72852 44.526367,99.25293 99.258786,99.25293 54.73145,0 99.25977,-44.52441 99.25977,-99.25293 0,-54.729004 -44.52832,-99.256836 -99.25977,-99.256836 -54.732419,0 -99.258786,44.527832 -99.258786,99.256836 z" style="fill:url(#XMLID_14_)"/><path id="path212" d="m 32.070312,124.75635 c -1.104492,0 -2,0.89551 -2,2 l 0,2.48681 c 0,1.1045 0.895508,2 2,2 l 17.441407,0 c 1.104492,0 2,-0.8955 2,-2 l 0,-2.48681 c 0,-1.10449 -0.895508,-2 -2,-2 l -17.441407,0 z" style="fill:#616161"/><rect id="rect214" width="17.441" height="2.487" x="32.07" y="126.756" style="fill:#616161"/><path id="path216" d="m 206.49023,124.75635 c -1.10449,0 -2,0.89551 -2,2 l 0,2.48681 c 0,1.1045 0.89551,2 2,2 l 17.44825,0 c 1.10449,0 2,-0.8955 2,-2 l 0,-2.48681 c 0,-1.10449 -0.89551,-2 -2,-2 l -17.44825,0 z" style="fill:#616161"/><rect id="rect218" width="17.448" height="2.487" x="206.49" y="126.756" style="fill:#616161"/><path id="path220" d="m 126.75586,204.49023 c -1.10449,0 -2,0.89551 -2,2 l 0,17.44141 c 0,1.10449 0.89551,2 2,2 l 2.49219,0 c 1.10449,0 2,-0.89551 2,-2 l 0,-17.44141 c 0,-1.10449 -0.89551,-2 -2,-2 l -2.49219,0 z" style="fill:#616161"/><rect id="rect222" width="2.492" height="17.441" x="126.756" y="206.49" style="fill:#616161"/><path id="path224" d="m 126.75586,30.067871 c -1.10449,0 -2,0.895508 -2,2 l 0,17.441406 c 0,1.104493 0.89551,2 2,2 l 2.49219,0 c 1.10449,0 2,-0.895507 2,-2 l 0,-17.441406 c 0,-1.104492 -0.89551,-2 -2,-2 l -2.49219,0 0,0 z" style="fill:#616161"/><rect id="rect226" width="2.492" height="17.441" x="126.756" y="32.068" style="fill:#616161"/><path id="path228" d="m 169.80664,197.93555 -2.15137,1.25 c -0.95312,0.55468 -1.27832,1.77539 -0.72656,2.73047 l 6.23145,10.77929 c 0.55175,0.95508 1.77246,1.28223 2.72851,0.73242 l 2.15723,-1.24023 c 0.45996,-0.26465 0.79687,-0.70117 0.93457,-1.21484 0.13769,-0.5127 0.0664,-1.05957 -0.2002,-1.51954 l -6.2373,-10.78906 c -0.26563,-0.45996 -0.7041,-0.79492 -1.2168,-0.93164 -0.51367,-0.13672 -1.06055,-0.0635 -1.51953,0.20313 z" style="fill:#616161"/><polygon id="polygon230" points="168.66 200.915 174.892 211.694 177.049 210.454 177.049 210.454 170.812 199.665" style="fill:#616161"/><path id="path232" d="m 80.115234,42.565918 -2.159179,1.247559 c -0.957032,0.552734 -1.28418,1.775879 -0.731446,2.732421 l 6.229493,10.783692 c 0.552734,0.956055 1.77539,1.283691 2.731445,0.731445 l 2.15625,-1.244629 c 0.956055,-0.552246 1.28418,-1.77539 0.731445,-2.731933 L 82.847656,43.297852 c -0.265625,-0.459473 -0.702148,-0.794434 -1.214843,-0.932129 -0.512696,-0.137207 -1.058594,-0.06494 -1.517579,0.200195 z" style="fill:#616161"/><rect id="rect234" width="12.455" height="2.494" x="76.922" y="49.068" transform="matrix(0.499934,0.866063,-0.866063,0.499934,85.15588,-46.85146)" style="fill:#616161"/><path id="path236" d="m 84.669922,197.73242 c -0.512695,0.1377 -0.950195,0.47266 -1.21582,0.93262 l -6.229493,10.78906 c -0.265625,0.45996 -0.33789,1.00684 -0.199218,1.51953 0.137695,0.5127 0.473632,0.9502 0.93457,1.21485 l 2.15918,1.24023 c 0.956054,0.54883 2.176757,0.22168 2.728515,-0.73437 l 6.225586,-10.7793 c 0.551758,-0.95508 0.225586,-2.17676 -0.728515,-2.73047 l -2.155274,-1.25 c -0.459961,-0.26562 -1.006836,-0.33887 -1.519531,-0.20215 z" style="fill:#616161"/><polygon id="polygon238" points="85.186 199.665 78.956 210.454 81.115 211.694 81.115 211.694 87.342 200.915" style="fill:#616161"/><path id="path240" d="m 173.15918,43.297852 -6.23145,10.790527 c -0.26464,0.459473 -0.33691,1.005371 -0.19921,1.518066 0.13769,0.512696 0.47265,0.949219 0.93261,1.214356 l 2.15137,1.240722 c 0.95605,0.55127 2.17773,0.224122 2.73047,-0.731445 l 6.2373,-10.787109 c 0.26563,-0.459473 0.33789,-1.00586 0.2002,-1.518555 -0.13672,-0.512695 -0.47266,-0.949707 -0.93262,-1.214844 l -2.15722,-1.24414 c -0.95606,-0.551758 -2.17872,-0.224121 -2.73145,0.732422 z" style="fill:#616161"/><polygon id="polygon242" points="174.892 44.298 168.66 55.088 170.812 56.329 170.812 56.329 177.049 45.542" style="fill:#616161"/><path id="path244" d="m 54.084961,166.9248 -10.786133,6.2334 c -0.458984,0.26563 -0.793945,0.70215 -0.930664,1.21485 -0.137695,0.51367 -0.06445,1.05957 0.201172,1.51855 l 1.24707,2.1543 c 0.552735,0.95508 1.775391,1.28223 2.731445,0.72949 l 10.786133,-6.23437 c 0.459961,-0.26563 0.794922,-0.70313 0.931641,-1.21582 0.136719,-0.5127 0.06445,-1.0586 -0.202149,-1.51758 l -1.24707,-2.15332 c -0.552734,-0.95508 -1.77539,-1.28223 -2.731445,-0.7295 z" style="fill:#616161"/><rect id="rect246" width="12.458" height="2.488" x="44.087" y="171.606" transform="matrix(-0.865782,0.500421,-0.500421,-0.865782,180.3773,297.3212)" style="fill:#616161"/><path id="path248" d="m 209.45703,77.222656 -10.78906,6.232422 c -0.46094,0.266114 -0.7959,0.70459 -0.93262,1.218262 -0.13672,0.513672 -0.0625,1.060547 0.2041,1.520508 l 1.25391,2.152832 c 0.55469,0.95166 1.77441,1.275879 2.72852,0.725097 l 10.78613,-6.228515 c 0.45996,-0.265625 0.7959,-0.703125 0.93262,-1.216309 0.13671,-0.513183 0.0635,-1.060058 -0.20215,-1.519043 l -1.25098,-2.156738 c -0.55371,-0.954102 -1.77539,-1.280274 -2.73047,-0.728516 z" style="fill:#616161"/><rect id="rect250" width="12.455" height="2.493" x="199.462" y="81.901" transform="matrix(-0.865986,0.500069,-0.500069,-0.865986,425.3929,52.29269)" style="fill:#616161"/><path id="path252" d="m 199.19336,167.64941 -1.25391,2.15332 c -0.26758,0.45997 -0.34082,1.00684 -0.2041,1.52051 0.13672,0.51367 0.47168,0.95215 0.93164,1.21778 l 10.78906,6.23437 c 0.95606,0.55273 2.17872,0.22656 2.73145,-0.72852 l 1.25098,-2.15917 c 0.2666,-0.45997 0.33886,-1.00586 0.20214,-1.51856 -0.13769,-0.51367 -0.47265,-0.95117 -0.93261,-1.2168 l -10.78614,-6.22851 c -0.9541,-0.55078 -2.17285,-0.22656 -2.72851,0.72558 z" style="fill:#616161"/><polygon id="polygon254" points="199.668 170.81 210.457 177.044 211.708 174.885 211.708 174.885 200.922 168.656" style="fill:#616161"/><rect id="rect256" width="3.85" height="122.203" x="103.964" y="94.231" transform="matrix(-0.760473,-0.64937,0.64937,-0.760473,85.54559,342.2205)" style="opacity:.2"/><linearGradient id="linearGradient8637" x1="62.463" x2="154.298" y1="149.695" y2="149.695" gradientTransform="matrix(0.9546,0.0532,0.0532,0.9377,-6.635652,8.097183)" gradientUnits="userSpaceOnUse"><stop id="stop8639" offset="0" style="stop-color:#f66;stop-opacity:1"/><stop id="stop8641" offset="1" style="stop-color:red;stop-opacity:1"/><midPointStop id="midPointStop264" offset="0" style="stop-color:#f66"/><midPointStop id="midPointStop266" offset=".5" style="stop-color:#f66"/><midPointStop id="midPointStop268" offset="1" style="stop-color:red"/></linearGradient><polygon id="polygon271" points="145.917 109.005 142.988 106.506 63.66 199.461 63.66 199.461 66.589 201.961" style="fill:url(#XMLID_15_)"/><path id="path273" d="m 43.81543,77.953613 -1.247071,2.156739 c -0.265625,0.458984 -0.33789,1.005371 -0.200195,1.518066 0.136719,0.512207 0.472656,0.949707 0.931641,1.214844 l 10.786133,6.228515 c 0.956054,0.552246 2.179687,0.22461 2.731445,-0.731445 l 1.24707,-2.158203 c 0.265625,-0.459473 0.337891,-1.005371 0.201172,-1.517578 -0.137695,-0.512695 -0.472656,-0.949707 -0.932617,-1.214844 L 46.546875,77.222656 C 45.59082,76.67041 44.368164,76.997559 43.81543,77.953613 Z" style="fill:#616161"/><rect id="rect275" width="12.455" height="2.491" x="44.089" y="81.901" transform="matrix(0.866037,0.49998,-0.49998,0.866037,48.31216,-14.01864)" style="fill:#616161"/><path id="path277" d="m 189.22363,108.87109 c -0.15722,-0.58545 -0.73047,-0.94238 -1.28027,-0.79492 l -62.29004,16.68994 c -0.5498,0.14746 -0.86816,0.74219 -0.71094,1.33008 l 1.84961,6.90576 c 0.15821,0.58789 0.73047,0.94336 1.28125,0.7959 l 62.29004,-16.69092 c 0.54981,-0.14697 0.86914,-0.74218 0.71192,-1.32861 l -1.85157,-6.90723 z" style="opacity:.2"/><path id="path279" d="m 188.12402,107.771 c -0.15722,-0.58545 -0.73047,-0.9419 -1.28125,-0.79493 l -62.28906,16.68995 c -0.5498,0.14746 -0.86914,0.74267 -0.71094,1.33007 l 1.84961,6.90625 c 0.15821,0.58789 0.73047,0.94336 1.28028,0.7959 l 62.29101,-16.6914 c 0.54981,-0.14698 0.86914,-0.74219 0.71192,-1.32862 l -1.85157,-6.90722 z" style="fill:#585868"/><linearGradient id="linearGradient8648" x1="-123.349" x2="-116.198" y1="-86.029" y2="-86.029" gradientTransform="matrix(0.2588,0.9659,-0.9659,0.2588,104.8109,257.7903)" gradientUnits="userSpaceOnUse"><stop id="stop8650" offset="0" style="stop-color:#585868;stop-opacity:1"/><stop id="stop8652" offset=".008" style="stop-color:#656575;stop-opacity:1"/><stop id="stop8654" offset=".034" style="stop-color:#8b8b99;stop-opacity:1"/><stop id="stop8656" offset=".06" style="stop-color:#a8a8b6;stop-opacity:1"/><stop id="stop8658" offset=".086" style="stop-color:#bdbdcb;stop-opacity:1"/><stop id="stop8660" offset=".111" style="stop-color:#cacad7;stop-opacity:1"/><stop id="stop8662" offset=".135" style="stop-color:#cecedb;stop-opacity:1"/><stop id="stop8664" offset=".466" style="stop-color:#9a9ab1;stop-opacity:1"/><stop id="stop8666" offset=".854" style="stop-color:#7d7d99;stop-opacity:1"/><stop id="stop8668" offset="1" style="stop-color:#585868;stop-opacity:1"/><midPointStop id="midPointStop303" offset="0" style="stop-color:#585868"/><midPointStop id="midPointStop305" offset=".303" style="stop-color:#585868"/><midPointStop id="midPointStop307" offset=".135" style="stop-color:#cecedb"/><midPointStop id="midPointStop309" offset=".5" style="stop-color:#cecedb"/><midPointStop id="midPointStop311" offset=".466" style="stop-color:#9a9ab1"/><midPointStop id="midPointStop313" offset=".5" style="stop-color:#9a9ab1"/><midPointStop id="midPointStop315" offset=".854" style="stop-color:#7d7d99"/><midPointStop id="midPointStop317" offset=".5" style="stop-color:#7d7d99"/><midPointStop id="midPointStop319" offset="1" style="stop-color:#585868"/></linearGradient><polygon id="polygon322" points="126.689 131.635 124.839 124.729 187.129 108.039 187.129 108.039 188.979 114.945" style="fill:url(#XMLID_16_)"/><path id="path324" d="m 145.55762,133.42871 c 0.30371,-0.52637 -0.11231,-1.33594 -0.9336,-1.80957 L 51.853516,78.058105 c -0.820313,-0.473632 -1.730469,-0.430664 -2.03418,0.0957 l -3.575195,6.191894 c -0.303711,0.526367 0.114257,1.335938 0.93457,1.810059 l 92.769529,53.560062 c 0.82031,0.47363 1.73047,0.43066 2.03418,-0.0957 l 3.5752,-6.19141 z" style="opacity:.2"/><path id="path326" d="m 144.45801,132.3291 c 0.30371,-0.52637 -0.11328,-1.33691 -0.9336,-1.81055 L 50.753906,76.958008 c -0.820312,-0.473633 -1.730468,-0.430664 -2.034179,0.0957 l -3.575196,6.191894 c -0.304687,0.526368 0.113282,1.336426 0.934571,1.810059 l 92.769528,53.560549 c 0.82032,0.47363 1.73047,0.43067 2.03418,-0.0957 l 3.5752,-6.19141 z" style="fill:#585868"/><linearGradient id="linearGradient8673" x1="-218.144" x2="-210.992" y1="58.222" y2="58.222" gradientTransform="matrix(-0.5,0.866,-0.866,-0.5,37.93764,322.7147)" gradientUnits="userSpaceOnUse"><stop id="stop8675" offset="0" style="stop-color:#585868;stop-opacity:1"/><stop id="stop8677" offset=".191" style="stop-color:#cecedb;stop-opacity:1"/><stop id="stop8679" offset=".466" style="stop-color:#9a9ab1;stop-opacity:1"/><stop id="stop8681" offset=".854" style="stop-color:#7d7d99;stop-opacity:1"/><stop id="stop8683" offset="1" style="stop-color:#585868;stop-opacity:1"/><midPointStop id="midPointStop340" offset="0" style="stop-color:#585868"/><midPointStop id="midPointStop342" offset=".5" style="stop-color:#585868"/><midPointStop id="midPointStop344" offset=".191" style="stop-color:#cecedb"/><midPointStop id="midPointStop346" offset=".5" style="stop-color:#cecedb"/><midPointStop id="midPointStop348" offset=".466" style="stop-color:#9a9ab1"/><midPointStop id="midPointStop350" offset=".5" style="stop-color:#9a9ab1"/><midPointStop id="midPointStop352" offset=".854" style="stop-color:#7d7d99"/><midPointStop id="midPointStop354" offset=".5" style="stop-color:#7d7d99"/><midPointStop id="midPointStop356" offset="1" style="stop-color:#585868"/></linearGradient><polygon id="polygon359" points="46.629 84.103 50.204 77.911 142.975 131.472 142.975 131.472 139.398 137.663" style="fill:url(#XMLID_17_)"/><path id="path361" d="m 117.63965,129.10156 c 0,6.31836 5.13965,11.45996 11.45801,11.45996 6.31933,0 11.46191,-5.1416 11.46191,-11.45996 0,-6.32129 -5.14258,-11.46338 -11.46191,-11.46338 -6.31836,0 -11.45801,5.14209 -11.45801,11.46338 z" style="opacity:.2"/><linearGradient id="linearGradient8687" x1="116.54" x2="139.459" y1="128" y2="128" gradientUnits="userSpaceOnUse"><stop id="stop8689" offset="0" style="stop-color:#9a9ab1;stop-opacity:1"/><stop id="stop8691" offset="1" style="stop-color:#585868;stop-opacity:1"/><midPointStop id="midPointStop369" offset="0" style="stop-color:#9a9ab1"/><midPointStop id="midPointStop371" offset=".5" style="stop-color:#9a9ab1"/><midPointStop id="midPointStop373" offset="1" style="stop-color:#585868"/></linearGradient><path id="path376" d="m 116.54004,128.00098 c 0,6.31933 5.13867,11.46093 11.45801,11.46093 6.31933,0 11.46093,-5.1416 11.46093,-11.46093 0,-6.32032 -5.1416,-11.46289 -11.46093,-11.46289 -6.31934,0 -11.45801,5.14257 -11.45801,11.46289 z" style="fill:url(#XMLID_18_)"/><radialGradient id="radialGradient8694" cx="126.62" cy="116.175" r="22.186" fx="126.62" fy="116.175" gradientUnits="userSpaceOnUse"><stop id="stop8696" offset="0" style="stop-color:#9a9ab1;stop-opacity:1"/><stop id="stop8698" offset=".59" style="stop-color:#585868;stop-opacity:1"/><stop id="stop8700" offset="1" style="stop-color:#fff;stop-opacity:1"/><midPointStop id="midPointStop386" offset="0" style="stop-color:#9a9ab1"/><midPointStop id="midPointStop388" offset=".5" style="stop-color:#9a9ab1"/><midPointStop id="midPointStop390" offset=".59" style="stop-color:#585868"/><midPointStop id="midPointStop392" offset=".5" style="stop-color:#585868"/><midPointStop id="midPointStop394" offset="1" style="stop-color:#fff"/></radialGradient><path id="path397" d="m 117.63965,128.00098 c 0,5.71386 4.64746,10.36035 10.3584,10.36035 5.71386,0 10.36132,-4.64649 10.36132,-10.36035 0,-5.71338 -4.64746,-10.3628 -10.36132,-10.3628 -5.71094,0 -10.3584,4.64942 -10.3584,10.3628 z" style="fill:url(#XMLID_19_)"/><linearGradient id="linearGradient8703" x1="117.744" x2="137.875" y1="123.586" y2="123.586" gradientUnits="userSpaceOnUse"><stop id="stop8705" offset="0" style="stop-color:#fff;stop-opacity:1"/><stop id="stop8707" offset="1" style="stop-color:#585868;stop-opacity:1"/><midPointStop id="midPointStop405" offset="0" style="stop-color:#fff"/><midPointStop id="midPointStop407" offset=".5" style="stop-color:#fff"/><midPointStop id="midPointStop409" offset="1" style="stop-color:#585868"/></linearGradient><path id="path412" d="m 135.7373,125.42822 c -1.08105,-3.24267 -4.13769,-5.58984 -7.73925,-5.58984 -4.22852,0 -7.71387,3.23535 -8.11719,7.3623 5.33496,0.38477 10.73144,-0.0234 15.85644,-1.77246 z" style="fill:url(#XMLID_20_)"/></g><polyline id="_x3C_Slice_x3E_" points="0 256 0 0 256 0 256 256" style="fill:none"/></g></svg>