<svg xmlns="http://www.w3.org/2000/svg" xmlns:pdf="http://ns.adobe.com/pdf/1.3/" xmlns:svg="http://www.w3.org/2000/svg" xmlns:x="adobe:ns:meta/" xmlns:xap="http://ns.adobe.com/xap/1.0/" xmlns:xapGImg="http://ns.adobe.com/xap/1.0/g/img/" xmlns:xapMM="http://ns.adobe.com/xap/1.0/mm/" id="svg548" width="128" height="128" enable-background="new 0 0 256 256" overflow="visible" version="1.1" viewBox="0 0 128 128" xml:space="preserve"><defs id="defs654"><linearGradient id="XMLID_1_" x1="129" x2="129" y1="11" y2="245" gradientUnits="userSpaceOnUse"><stop style="stop-color:#494949" id="stop555" offset="0"/><stop style="stop-color:#000" id="stop556" offset="1"/></linearGradient><linearGradient id="XMLID_2_" x1="29.053" x2="226.947" y1="29.053" y2="226.947" gradientUnits="userSpaceOnUse"><stop style="stop-color:#fff" id="stop563" offset="0"/><stop style="stop-color:#dadada" id="stop564" offset="1"/></linearGradient><linearGradient id="XMLID_3_" x1="139.866" x2="202.497" y1="75.714" y2="138.345" gradientUnits="userSpaceOnUse"><stop style="stop-color:#e14e30" id="stop575" offset="0"/><stop style="stop-color:#ff5b00" id="stop576" offset=".472"/><stop style="stop-color:#c51700" id="stop577" offset="1"/></linearGradient><linearGradient id="XMLID_4_" x1="50.099" x2="112.73" y1="75.943" y2="138.574" gradientUnits="userSpaceOnUse"><stop style="stop-color:#900" id="stop600" offset="0"/><stop style="stop-color:#7c0000" id="stop601" offset=".455"/><stop style="stop-color:#600000" id="stop602" offset="1"/></linearGradient><linearGradient id="XMLID_5_" x1="94.524" x2="157.156" y1="116.933" y2="179.565" gradientUnits="userSpaceOnUse"><stop style="stop-color:#093" id="stop625" offset="0"/><stop style="stop-color:#006a00" id="stop626" offset=".455"/><stop style="stop-color:#033" id="stop627" offset="1"/></linearGradient></defs><metadata id="metadata549"><xpacket>begin=&apos; &apos; id=&apos;W5M0MpCehiHzreSzNTczkc9d&apos;</xpacket><x:xmpmeta x:xmptk="XMP toolkit 3.0-29, framework 1.6"><metadata/></x:xmpmeta><xpacket>end=&apos;w&apos;</xpacket></metadata><g id="g4196" transform="scale(0.50211865,0.50211865)"><path style="font-size:12px;opacity:.2" id="path569" d="m 172.248,59.33 -38.65,26.873 c -1.107,0.771 -1.809,2.008 -1.809,3.358 l 0,36.781 c 0,1.362 0.672,2.637 1.797,3.404 l 38.691,26.412 c 1.412,0.965 3.273,0.956 4.678,-0.021 l 38.689,-26.91 c 1.107,-0.771 1.77,-2.035 1.77,-3.385 l 0,-36.781 c 0,-1.364 -0.676,-2.639 -1.803,-3.407 L 176.922,59.308 c -1.412,-0.962 -3.272,-0.953 -4.674,0.022 z" transform="matrix(1.3,0,0,1.3,-38.4,-38.39995)"/><path style="font-size:12px;opacity:.2" id="path570" d="m 82.481,59.559 -38.65,26.873 c -1.108,0.771 -1.81,2.008 -1.81,3.357 l 0,36.782 c 0,1.361 0.673,2.637 1.799,3.403 l 38.69,26.413 c 1.412,0.964 3.273,0.956 4.678,-0.021 l 38.69,-26.911 c 1.107,-0.771 1.768,-2.034 1.768,-3.384 l 0,-36.781 c 0,-1.364 -0.675,-2.639 -1.802,-3.407 L 87.154,59.536 c -1.411,-0.961 -3.271,-0.953 -4.673,0.023 z" transform="matrix(1.3,0,0,1.3,-38.4,-38.39995)"/><path style="font-size:12px;opacity:.2" id="path571" d="m 170.188,58.643 -38.65,26.873 c -1.109,0.771 -1.809,2.008 -1.809,3.358 l 0,36.781 c 0,1.361 0.672,2.637 1.797,3.403 l 38.691,26.413 c 1.412,0.965 3.273,0.956 4.678,-0.021 l 38.689,-26.911 c 1.107,-0.771 1.768,-2.034 1.768,-3.384 l 0,-36.781 c 0,-1.364 -0.674,-2.639 -1.801,-3.407 L 174.859,58.62 c -1.41,-0.961 -3.269,-0.952 -4.671,0.023 z" transform="matrix(1.3,0,0,1.3,-38.4,-38.39995)"/><path style="font-size:12px;opacity:.2" id="path572" d="M 80.42,58.871 41.769,85.744 c -1.108,0.771 -1.809,2.008 -1.809,3.357 l 0,36.78 c 0,1.363 0.673,2.638 1.798,3.405 l 38.69,26.411 c 1.412,0.966 3.274,0.957 4.678,-0.02 l 38.689,-26.91 c 1.108,-0.771 1.77,-2.035 1.77,-3.385 l 0,-36.779 c 0,-1.364 -0.676,-2.639 -1.803,-3.407 L 85.093,58.849 c -1.412,-0.961 -3.271,-0.953 -4.673,0.022 z" transform="matrix(1.3,0,0,1.3,-38.4,-38.39995)"/><path style="font-size:12px;fill:#fff" id="path573" d="m 168.813,58.643 -38.65,26.873 c -1.107,0.771 -1.808,2.008 -1.808,3.358 l 0,36.781 c 0,1.361 0.673,2.637 1.798,3.403 l 38.689,26.413 c 1.412,0.965 3.275,0.956 4.678,-0.021 l 38.691,-26.911 c 1.107,-0.771 1.768,-2.034 1.768,-3.384 l 0,-36.781 c 0,-1.364 -0.674,-2.639 -1.803,-3.407 L 173.486,58.62 c -1.412,-0.961 -3.271,-0.952 -4.673,0.023 z" transform="matrix(1.3,0,0,1.3,-38.4,-38.39995)"/><path style="font-size:12px;fill:url(#XMLID_3_)" id="path583" d="m 168.813,58.643 -38.65,26.873 c -1.107,0.771 -1.808,2.008 -1.808,3.358 l 0,36.781 c 0,1.361 0.673,2.637 1.798,3.403 l 38.689,26.413 c 1.412,0.965 3.275,0.956 4.678,-0.021 l 38.691,-26.911 c 1.107,-0.771 1.768,-2.034 1.768,-3.384 l 0,-36.781 c 0,-1.364 -0.674,-2.639 -1.803,-3.407 L 173.486,58.62 c -1.412,-0.961 -3.271,-0.952 -4.673,0.023 z" transform="matrix(1.3,0,0,1.3,-38.4,-38.39995)"/><g style="font-size:12px" id="g253_4_" transform="matrix(1.3,0,0,1.3,-38.4,-38.39995)"><polygon id="path266_4_" points="171.166 62.027 209.855 88.374 171.166 115.285 132.477 88.927" style="fill:#fff"/></g><g style="font-size:12px" id="g253_2_" transform="matrix(1.3,0,0,1.3,-38.4,-38.39995)"><linearGradient id="path266_6_" x1="385.976" x2="498.108" y1="1061.968" y2="1056.065" gradientTransform="matrix(0.384,0,0,0.384,-8.4276,-317.4872)" gradientUnits="userSpaceOnUse"><stop id="stop588" offset="0" style="stop-color:#ff0"/><stop id="stop589" offset="1" style="stop-color:#ffa700"/></linearGradient><polygon id="path266_2_" points="171.166 62.027 209.855 88.374 171.166 115.285 132.477 88.927" style="fill:url(#path266_6_)"/></g><g style="font-size:12px" id="g267_2_" transform="matrix(1.3,0,0,1.3,-38.4,-38.39995)"><polygon id="path277_3_" points="209.855 88.374 171.166 115.285 171.166 152.065 209.855 125.155" style="fill:#ff6d00"/></g><g style="font-size:12px" id="g278_2_" transform="matrix(1.3,0,0,1.3,-38.4,-38.39995)"><polygon id="path279_2_" points="132.477 88.873 171.172 115.285 171.166 152.065 132.477 125.654" style="fill:#ffa700"/></g><path style="font-size:12px;opacity:.2" id="path598" d="m 126.907,100.549 -38.651,26.873 c -1.108,0.771 -1.808,2.008 -1.808,3.357 l 0,36.781 c 0,1.361 0.673,2.637 1.798,3.403 l 38.69,26.413 c 1.412,0.965 3.273,0.957 4.677,-0.021 l 38.689,-26.911 c 1.107,-0.77 1.77,-2.034 1.77,-3.383 l 0,-36.781 c 0,-1.363 -0.676,-2.639 -1.803,-3.406 L 131.58,100.527 c -1.412,-0.961 -3.271,-0.953 -4.673,0.022 z" transform="matrix(1.3,0,0,1.3,-38.4,-38.39995)"/><path style="font-size:12px;fill:url(#XMLID_4_)" id="path608" d="M 79.046,58.871 40.395,85.744 c -1.108,0.771 -1.809,2.008 -1.809,3.357 l 0,36.78 c 0,1.363 0.673,2.638 1.799,3.405 l 38.69,26.411 c 1.412,0.966 3.273,0.957 4.677,-0.02 l 38.69,-26.91 c 1.107,-0.771 1.768,-2.035 1.768,-3.385 l 0,-36.779 c 0,-1.364 -0.675,-2.639 -1.802,-3.407 L 83.718,58.849 c -1.411,-0.961 -3.27,-0.953 -4.672,0.022 z" transform="matrix(1.3,0,0,1.3,-38.4,-38.39995)"/><g style="font-size:12px" id="g253_3_" transform="matrix(1.3,0,0,1.3,-38.4,-38.39995)"><polygon id="path266_3_" points="81.399 62.256 120.089 88.603 81.399 115.514 42.708 89.156" style="fill:#fff"/></g><g style="font-size:12px" id="g253_1_" transform="matrix(1.3,0,0,1.3,-38.4,-38.39995)"><linearGradient id="path266_7_" x1="152.205" x2="264.341" y1="1062.563" y2="1056.66" gradientTransform="matrix(0.384,0,0,0.384,-8.4276,-317.4872)" gradientUnits="userSpaceOnUse"><stop id="stop613" offset="0" style="stop-color:#f99"/><stop id="stop614" offset="1" style="stop-color:#f66"/></linearGradient><polygon id="path266_1_" points="81.399 62.256 120.089 88.603 81.399 115.514 42.708 89.156" style="fill:url(#path266_7_)"/></g><path style="font-size:12px;opacity:.2" id="path619" d="m 124.846,99.862 -38.651,26.872 c -1.108,0.771 -1.809,2.009 -1.809,3.358 l 0,36.781 c 0,1.361 0.673,2.636 1.799,3.403 l 38.689,26.413 c 1.413,0.964 3.274,0.956 4.678,-0.021 l 38.689,-26.911 c 1.107,-0.771 1.768,-2.035 1.768,-3.384 l 0,-36.781 c 0,-1.365 -0.674,-2.64 -1.801,-3.407 L 129.518,99.84 c -1.411,-0.962 -3.269,-0.953 -4.672,0.022 z" transform="matrix(1.3,0,0,1.3,-38.4,-38.39995)"/><g style="font-size:12px" id="g267_1_" transform="matrix(1.3,0,0,1.3,-38.4,-38.39995)"><polygon id="path277_2_" points="120.089 88.603 81.399 115.514 81.399 152.295 120.089 125.384" style="fill:#cf0000"/></g><g style="font-size:12px" id="g278_1_" transform="matrix(1.3,0,0,1.3,-38.4,-38.39995)"><polygon id="path279_1_" points="42.708 89.102 81.404 115.514 81.399 152.295 42.708 125.882" style="fill:red"/></g><path style="font-size:12px;fill:url(#XMLID_5_)" id="path633" d="m 123.471,99.862 -38.65,26.872 c -1.108,0.771 -1.808,2.009 -1.808,3.358 l 0,36.781 c 0,1.361 0.673,2.636 1.797,3.403 l 38.69,26.413 c 1.412,0.964 3.273,0.956 4.678,-0.021 l 38.691,-26.911 c 1.107,-0.771 1.768,-2.035 1.768,-3.384 l 0,-36.781 c 0,-1.365 -0.674,-2.64 -1.803,-3.407 l -38.69,-26.346 c -1.411,-0.961 -3.269,-0.952 -4.673,0.023 z" transform="matrix(1.3,0,0,1.3,-38.4,-38.39995)"/><polygon style="font-size:12px;fill:#6c3" id="polygon634" points="87.134 130.093 87.134 166.874 125.825 193.286 164.516 166.375 164.516 129.594 125.825 103.247 87.173 130.12" transform="matrix(1.3,0,0,1.3,-38.4,-38.39995)"/><g style="font-size:12px" id="g253_5_" transform="matrix(1.3,0,0,1.3,-38.4,-38.39995)"><polygon id="path266_5_" points="125.825 103.247 164.516 129.594 125.825 156.504 87.134 130.146" style="fill:#fff"/></g><g style="font-size:12px" id="g253" transform="matrix(1.3,0,0,1.3,-38.4,-38.39995)"><linearGradient id="path266_8_" x1="267.897" x2="380.034" y1="1169.309" y2="1163.406" gradientTransform="matrix(0.384,0,0,0.384,-8.4276,-317.4872)" gradientUnits="userSpaceOnUse"><stop id="stop639" offset="0" style="stop-color:#cfc"/><stop id="stop640" offset=".41" style="stop-color:#9f6"/><stop id="stop641" offset="1" style="stop-color:#6c3"/></linearGradient><polygon id="path266" points="125.825 103.247 164.516 129.594 125.825 156.504 87.134 130.146" style="fill:url(#path266_8_)"/></g><g style="font-size:12px" id="g267" transform="matrix(1.3,0,0,1.3,-38.4,-38.39995)"><polygon id="path277_1_" points="164.516 129.594 125.825 156.504 125.825 193.286 164.516 166.375" style="fill:#093"/></g><g style="font-size:12px" id="g278" transform="matrix(1.3,0,0,1.3,-38.4,-38.39995)"><polygon id="path279" points="87.134 130.093 125.831 156.504 125.825 193.286 87.134 166.874" style="fill:#6c3"/></g><rect style="font-size:12px;fill:none" id="_x3C_Slice_x3E_" width="256" height="256" x="0" y="0"/></g></svg>