<svg xmlns="http://www.w3.org/2000/svg" xmlns:pdf="http://ns.adobe.com/pdf/1.3/" xmlns:svg="http://www.w3.org/2000/svg" xmlns:x="adobe:ns:meta/" xmlns:xap="http://ns.adobe.com/xap/1.0/" xmlns:xapGImg="http://ns.adobe.com/xap/1.0/g/img/" xmlns:xapMM="http://ns.adobe.com/xap/1.0/mm/" xmlns:xlink="http://www.w3.org/1999/xlink" id="svg548" width="128" height="128" enable-background="new 0 0 256 256" overflow="visible" version="1.1" viewBox="0 0 128 128" xml:space="preserve"><defs id="defs654"><linearGradient id="XMLID_4_-243" x1="50.099" x2="112.73" y1="75.943" y2="138.574" gradientUnits="userSpaceOnUse"><stop id="stop4224" offset="0" style="stop-color:#4c4c4c"/><stop id="stop4226" offset=".455" style="stop-color:#3e3e3e"/><stop id="stop4228" offset="1" style="stop-color:#303030"/></linearGradient><linearGradient id="XMLID_5_-547" x1="94.524" x2="157.156" y1="116.933" y2="179.565" gradientUnits="userSpaceOnUse"><stop id="stop4238" offset="0" style="stop-color:#4c4c4c"/><stop id="stop4240" offset=".455" style="stop-color:#353535"/><stop id="stop4242" offset="1" style="stop-color:#191919"/></linearGradient><linearGradient id="linearGradient4294" x1="94.524" x2="157.156" y1="116.933" y2="179.565" gradientUnits="userSpaceOnUse" xlink:href="#XMLID_5_-547"/><linearGradient id="linearGradient4296" x1="267.897" x2="380.034" y1="1169.309" y2="1163.406" gradientTransform="matrix(0.384,0,0,0.384,-8.4276,-317.4872)" gradientUnits="userSpaceOnUse" xlink:href="#path266_8_-768"/><linearGradient id="linearGradient4269" x1="94.524" x2="157.156" y1="116.933" y2="179.565" gradientUnits="userSpaceOnUse" xlink:href="#XMLID_5_-547"/><linearGradient id="linearGradient4271" x1="267.897" x2="380.034" y1="1169.309" y2="1163.406" gradientTransform="matrix(0.384,0,0,0.384,-8.4276,-317.4872)" gradientUnits="userSpaceOnUse" xlink:href="#path266_8_-768"/></defs><metadata id="metadata549"><xpacket>begin=&apos; &apos; id=&apos;W5M0MpCehiHzreSzNTczkc9d&apos;</xpacket><x:xmpmeta x:xmptk="XMP toolkit 3.0-29, framework 1.6"><metadata/></x:xmpmeta><xpacket>end=&apos;w&apos;</xpacket></metadata><g id="g4202" transform="scale(0.5,0.5)"><g id="g4252" transform="translate(65.205579,-52.445584)"><path id="path4254" d="m 126.907,100.549 -38.651,26.873 c -1.108,0.771 -1.808,2.008 -1.808,3.357 l 0,36.781 c 0,1.361 0.673,2.637 1.798,3.403 l 38.69,26.413 c 1.412,0.965 3.273,0.957 4.677,-0.021 l 38.689,-26.911 c 1.107,-0.77 1.77,-2.034 1.77,-3.383 l 0,-36.781 c 0,-1.363 -0.676,-2.639 -1.803,-3.406 L 131.58,100.527 c -1.412,-0.961 -3.271,-0.953 -4.673,0.022 z" transform="matrix(1.3,0,0,1.3,-38.4,-38.39995)" style="font-size:12px;opacity:.2"/><path id="path4256" d="m 124.846,99.862 -38.651,26.872 c -1.108,0.771 -1.809,2.009 -1.809,3.358 l 0,36.781 c 0,1.361 0.673,2.636 1.799,3.403 l 38.689,26.413 c 1.413,0.964 3.274,0.956 4.678,-0.021 l 38.689,-26.911 c 1.107,-0.771 1.768,-2.035 1.768,-3.384 l 0,-36.781 c 0,-1.365 -0.674,-2.64 -1.801,-3.407 L 129.518,99.84 c -1.411,-0.962 -3.269,-0.953 -4.672,0.022 z" transform="matrix(1.3,0,0,1.3,-38.4,-38.39995)" style="font-size:12px;opacity:.2"/><path id="path4258" d="m 123.471,99.862 -38.65,26.872 c -1.108,0.771 -1.808,2.009 -1.808,3.358 l 0,36.781 c 0,1.361 0.673,2.636 1.797,3.403 l 38.69,26.413 c 1.412,0.964 3.273,0.956 4.678,-0.021 l 38.691,-26.911 c 1.107,-0.771 1.768,-2.035 1.768,-3.384 l 0,-36.781 c 0,-1.365 -0.674,-2.64 -1.803,-3.407 l -38.69,-26.346 c -1.411,-0.961 -3.269,-0.952 -4.673,0.023 z" transform="matrix(1.3,0,0,1.3,-38.4,-38.39995)" style="font-size:12px;fill:url(#linearGradient4294)"/><polygon id="polygon4260" points="164.516 166.375 164.516 129.594 125.825 103.247 87.173 130.12 87.134 130.093 87.134 166.874 125.825 193.286" transform="matrix(1.3,0,0,1.3,-38.4,-38.39995)" style="font-size:12px;fill:#7f7f7f"/><g id="g4262" transform="matrix(1.3,0,0,1.3,-38.4,-38.39995)" style="font-size:12px"><polygon style="fill:#fff" id="polygon4264" points="87.134 130.146 125.825 103.247 164.516 129.594 125.825 156.504"/></g><g id="g4266" transform="matrix(1.3,0,0,1.3,-38.4,-38.39995)" style="font-size:12px"><linearGradient id="linearGradient4268" x1="267.897" x2="380.034" y1="1169.309" y2="1163.406" gradientTransform="matrix(0.384,0,0,0.384,-8.4276,-317.4872)" gradientUnits="userSpaceOnUse"><stop style="stop-color:#e5e5e5" id="stop4270" offset="0"/><stop style="stop-color:#b2b2b2" id="stop4272" offset=".41"/><stop style="stop-color:#7f7f7f" id="stop4274" offset="1"/></linearGradient><polygon style="fill:url(#linearGradient4296)" id="polygon4276" points="87.134 130.146 125.825 103.247 164.516 129.594 125.825 156.504"/><linearGradient id="linearGradient4278" x1="267.897" x2="380.034" y1="1169.309" y2="1163.406" gradientTransform="matrix(0.384,0,0,0.384,-8.4276,-317.4872)" gradientUnits="userSpaceOnUse"><stop style="stop-color:#e5e5e5" id="stop4280" offset="0"/><stop style="stop-color:#b2b2b2" id="stop4282" offset=".41"/><stop style="stop-color:#7f7f7f" id="stop4284" offset="1"/></linearGradient></g><g id="g4286" transform="matrix(1.3,0,0,1.3,-38.4,-38.39995)" style="font-size:12px"><polygon style="fill:#4c4c4c" id="polygon4288" points="164.516 166.375 164.516 129.594 125.825 156.504 125.825 193.286"/></g><g id="g4290" transform="matrix(1.3,0,0,1.3,-38.4,-38.39995)" style="font-size:12px"><polygon style="fill:#7f7f7f" id="polygon4292" points="87.134 166.874 87.134 130.093 125.831 156.504 125.825 193.286"/></g></g><path id="path570" d="m 82.481,59.559 -38.65,26.873 c -1.108,0.771 -1.81,2.008 -1.81,3.357 l 0,36.782 c 0,1.361 0.673,2.637 1.799,3.403 l 38.69,26.413 c 1.412,0.964 3.273,0.956 4.678,-0.021 l 38.69,-26.911 c 1.107,-0.771 1.768,-2.034 1.768,-3.384 l 0,-36.781 c 0,-1.364 -0.675,-2.639 -1.802,-3.407 L 87.154,59.536 c -1.411,-0.961 -3.271,-0.953 -4.673,0.023 z" transform="matrix(1.3,0,0,1.3,-38.4,-38.39995)" style="font-size:12px;opacity:.2"/><path id="path572" d="M 80.42,58.871 41.769,85.744 c -1.108,0.771 -1.809,2.008 -1.809,3.357 l 0,36.78 c 0,1.363 0.673,2.638 1.798,3.405 l 38.69,26.411 c 1.412,0.966 3.274,0.957 4.678,-0.02 l 38.689,-26.91 c 1.108,-0.771 1.77,-2.035 1.77,-3.385 l 0,-36.779 c 0,-1.364 -0.676,-2.639 -1.803,-3.407 L 85.093,58.849 c -1.412,-0.961 -3.271,-0.953 -4.673,0.022 z" transform="matrix(1.3,0,0,1.3,-38.4,-38.39995)" style="font-size:12px;opacity:.2"/><path id="path608" d="M 79.046,58.871 40.395,85.744 c -1.108,0.771 -1.809,2.008 -1.809,3.357 l 0,36.78 c 0,1.363 0.673,2.638 1.799,3.405 l 38.69,26.411 c 1.412,0.966 3.273,0.957 4.677,-0.02 l 38.69,-26.91 c 1.107,-0.771 1.768,-2.035 1.768,-3.385 l 0,-36.779 c 0,-1.364 -0.675,-2.639 -1.802,-3.407 L 83.718,58.849 c -1.411,-0.961 -3.27,-0.953 -4.672,0.022 z" transform="matrix(1.3,0,0,1.3,-38.4,-38.39995)" style="font-size:12px;fill:url(#XMLID_4_-243)"/><g id="g253_3_" transform="matrix(1.3,0,0,1.3,-38.4,-38.39995)" style="font-size:12px"><polygon id="path266_3_" points="81.399 62.256 120.089 88.603 81.399 115.514 42.708 89.156" style="fill:#fff"/></g><g id="g253_1_" transform="matrix(1.3,0,0,1.3,-38.4,-38.39995)" style="font-size:12px"><linearGradient id="path266_7_" x1="152.205" x2="264.341" y1="1062.563" y2="1056.66" gradientTransform="matrix(0.384,0,0,0.384,-8.4276,-317.4872)" gradientUnits="userSpaceOnUse"><stop style="stop-color:#ccc" id="stop613" offset="0"/><stop style="stop-color:#b2b2b2" id="stop614" offset="1"/></linearGradient><polygon id="path266_1_" points="81.399 62.256 120.089 88.603 81.399 115.514 42.708 89.156" style="fill:url(#path266_7_-689)"/><linearGradient id="path266_7_-689" x1="152.205" x2="264.341" y1="1062.563" y2="1056.66" gradientTransform="matrix(0.384,0,0,0.384,-8.4276,-317.4872)" gradientUnits="userSpaceOnUse"><stop style="stop-color:#ccc" id="stop4292" offset="0"/><stop style="stop-color:#b2b2b2" id="stop4294" offset="1"/></linearGradient></g><g id="g267_1_" transform="matrix(1.3,0,0,1.3,-38.4,-38.39995)" style="font-size:12px"><polygon id="path277_2_" points="120.089 88.603 81.399 115.514 81.399 152.295 120.089 125.384" style="fill:#676767"/></g><g id="g278_1_" transform="matrix(1.3,0,0,1.3,-38.4,-38.39995)" style="font-size:12px"><polygon id="path279_1_" points="42.708 89.102 81.404 115.514 81.399 152.295 42.708 125.882" style="fill:#7f7f7f"/></g><g id="g4230"><path style="font-size:12px;opacity:.2" id="path598" d="m 126.907,100.549 -38.651,26.873 c -1.108,0.771 -1.808,2.008 -1.808,3.357 l 0,36.781 c 0,1.361 0.673,2.637 1.798,3.403 l 38.69,26.413 c 1.412,0.965 3.273,0.957 4.677,-0.021 l 38.689,-26.911 c 1.107,-0.77 1.77,-2.034 1.77,-3.383 l 0,-36.781 c 0,-1.363 -0.676,-2.639 -1.803,-3.406 L 131.58,100.527 c -1.412,-0.961 -3.271,-0.953 -4.673,0.022 z" transform="matrix(1.3,0,0,1.3,-38.4,-38.39995)"/><path style="font-size:12px;opacity:.2" id="path619" d="m 124.846,99.862 -38.651,26.872 c -1.108,0.771 -1.809,2.009 -1.809,3.358 l 0,36.781 c 0,1.361 0.673,2.636 1.799,3.403 l 38.689,26.413 c 1.413,0.964 3.274,0.956 4.678,-0.021 l 38.689,-26.911 c 1.107,-0.771 1.768,-2.035 1.768,-3.384 l 0,-36.781 c 0,-1.365 -0.674,-2.64 -1.801,-3.407 L 129.518,99.84 c -1.411,-0.962 -3.269,-0.953 -4.672,0.022 z" transform="matrix(1.3,0,0,1.3,-38.4,-38.39995)"/><path style="font-size:12px;fill:url(#linearGradient4269)" id="path633" d="m 123.471,99.862 -38.65,26.872 c -1.108,0.771 -1.808,2.009 -1.808,3.358 l 0,36.781 c 0,1.361 0.673,2.636 1.797,3.403 l 38.69,26.413 c 1.412,0.964 3.273,0.956 4.678,-0.021 l 38.691,-26.911 c 1.107,-0.771 1.768,-2.035 1.768,-3.384 l 0,-36.781 c 0,-1.365 -0.674,-2.64 -1.803,-3.407 l -38.69,-26.346 c -1.411,-0.961 -3.269,-0.952 -4.673,0.023 z" transform="matrix(1.3,0,0,1.3,-38.4,-38.39995)"/><polygon style="font-size:12px;fill:#7f7f7f" id="polygon634" points="87.134 130.093 87.134 166.874 125.825 193.286 164.516 166.375 164.516 129.594 125.825 103.247 87.173 130.12" transform="matrix(1.3,0,0,1.3,-38.4,-38.39995)"/><g style="font-size:12px" id="g253_5_" transform="matrix(1.3,0,0,1.3,-38.4,-38.39995)"><polygon id="path266_5_" points="125.825 103.247 164.516 129.594 125.825 156.504 87.134 130.146" style="fill:#fff"/></g><g style="font-size:12px" id="g253" transform="matrix(1.3,0,0,1.3,-38.4,-38.39995)"><linearGradient id="path266_8_" x1="267.897" x2="380.034" y1="1169.309" y2="1163.406" gradientTransform="matrix(0.384,0,0,0.384,-8.4276,-317.4872)" gradientUnits="userSpaceOnUse"><stop id="stop639" offset="0" style="stop-color:#e5e5e5"/><stop id="stop640" offset=".41" style="stop-color:#b2b2b2"/><stop id="stop641" offset="1" style="stop-color:#7f7f7f"/></linearGradient><polygon id="path266" points="125.825 103.247 164.516 129.594 125.825 156.504 87.134 130.146" style="fill:url(#linearGradient4271)"/><linearGradient id="path266_8_-768" x1="267.897" x2="380.034" y1="1169.309" y2="1163.406" gradientTransform="matrix(0.384,0,0,0.384,-8.4276,-317.4872)" gradientUnits="userSpaceOnUse"><stop id="stop4312" offset="0" style="stop-color:#e5e5e5"/><stop id="stop4314" offset=".41" style="stop-color:#b2b2b2"/><stop id="stop4316" offset="1" style="stop-color:#7f7f7f"/></linearGradient></g><g style="font-size:12px" id="g267" transform="matrix(1.3,0,0,1.3,-38.4,-38.39995)"><polygon id="path277_1_" points="164.516 129.594 125.825 156.504 125.825 193.286 164.516 166.375" style="fill:#4c4c4c"/></g><g style="font-size:12px" id="g278" transform="matrix(1.3,0,0,1.3,-38.4,-38.39995)"><polygon id="path279" points="87.134 130.093 125.831 156.504 125.825 193.286 87.134 166.874" style="fill:#7f7f7f"/></g></g><rect id="_x3C_Slice_x3E_" width="256" height="256" x="0" y="0" style="font-size:12px;fill:none"/></g></svg>