<svg xmlns="http://www.w3.org/2000/svg" xmlns:svg="http://www.w3.org/2000/svg" xmlns:xlink="http://www.w3.org/1999/xlink" id="svg7613" width="124" height="124" version="1.1" viewBox="0 0 124 124"><defs id="defs7615"><radialGradient id="radialGradient7559" cx="55.218" cy="458.465" r="15.213" fx="55.218" fy="458.465" gradientTransform="matrix(0.55758631,0,0,0.57073983,33.783815,180.81737)" gradientUnits="userSpaceOnUse" xlink:href="#linearGradient4799"/><linearGradient id="linearGradient4799"><stop style="stop-color:#ffde00;stop-opacity:1" id="stop4801" offset="0"/><stop style="stop-color:#ffa700;stop-opacity:1" id="stop4803" offset="1"/></linearGradient><radialGradient id="radialGradient7557" cx="55.218" cy="458.465" r="15.213" fx="55.218" fy="458.465" gradientTransform="matrix(0.55758631,0,0,0.57073983,104.95785,180.81737)" gradientUnits="userSpaceOnUse" xlink:href="#linearGradient4799-9"/><linearGradient id="linearGradient4799-9"><stop style="stop-color:#ffde00;stop-opacity:1" id="stop4801-0" offset="0"/><stop style="stop-color:#ffa700;stop-opacity:1" id="stop4803-9" offset="1"/></linearGradient><linearGradient id="linearGradient4799-6"><stop style="stop-color:#ffde00;stop-opacity:1" id="stop4801-8" offset="0"/><stop style="stop-color:#ffa700;stop-opacity:1" id="stop4803-96" offset="1"/></linearGradient><linearGradient id="linearGradient4799-2"><stop style="stop-color:#ffde00;stop-opacity:1" id="stop4801-4" offset="0"/><stop style="stop-color:#ffa700;stop-opacity:1" id="stop4803-8" offset="1"/></linearGradient><linearGradient id="linearGradient4799-1"><stop style="stop-color:#ffde00;stop-opacity:1" id="stop4801-49" offset="0"/><stop style="stop-color:#ffa700;stop-opacity:1" id="stop4803-98" offset="1"/></linearGradient><radialGradient id="radialGradient7521" cx="6.408" cy="17.404" r="5.524" fx="6.408" fy="17.404" gradientTransform="matrix(1,0,0,0.416,0,10.16382)" gradientUnits="userSpaceOnUse" xlink:href="#linearGradient3609"/><linearGradient id="linearGradient3609"><stop style="stop-color:#000;stop-opacity:1" id="stop3611" offset="0"/><stop style="stop-color:#000;stop-opacity:0" id="stop3613" offset="1"/></linearGradient><linearGradient id="linearGradient7523" x1="7.576" x2="7.322" y1="20.302" y2="27.345" gradientUnits="userSpaceOnUse" xlink:href="#linearGradient4068"/><linearGradient id="linearGradient4068"><stop style="stop-color:#eaeae9;stop-opacity:1" id="stop4070" offset="0"/><stop style="stop-color:#a5a7a2;stop-opacity:1" id="stop4072" offset="1"/></linearGradient><linearGradient id="linearGradient7525" x1="7.576" x2="7.322" y1="20.302" y2="27.345" gradientUnits="userSpaceOnUse" xlink:href="#linearGradient4068"/><linearGradient id="linearGradient8239"><stop style="stop-color:#eaeae9;stop-opacity:1" id="stop8241" offset="0"/><stop style="stop-color:#a5a7a2;stop-opacity:1" id="stop8243" offset="1"/></linearGradient><linearGradient id="linearGradient7527" x1="4.683" x2="8.371" y1="24.665" y2="24.317" gradientUnits="userSpaceOnUse" xlink:href="#linearGradient3281"/><linearGradient id="linearGradient3281"><stop style="stop-color:#fff;stop-opacity:1" id="stop3283" offset="0"/><stop style="stop-color:#fff;stop-opacity:0" id="stop3285" offset="1"/></linearGradient><linearGradient id="linearGradient7529" x1="56.303" x2="56.609" y1="4.937" y2="8.68" gradientTransform="matrix(1.769913,0,0,1.769913,-88.34438,10.67235)" gradientUnits="userSpaceOnUse" xlink:href="#linearGradient4608"/><linearGradient id="linearGradient4608"><stop style="stop-color:#eeeeec" id="stop4610" offset="0"/><stop style="stop-color:#8a8c87;stop-opacity:1" id="stop4612" offset="1"/></linearGradient><linearGradient id="linearGradient7531" x1="11.126" x2="9.347" y1="25.56" y2="25.737" gradientTransform="matrix(1.296181,0,0,1.296181,-4.978245,-7.324566)" gradientUnits="userSpaceOnUse" xlink:href="#linearGradient4099"/><linearGradient id="linearGradient4099"><stop style="stop-color:#6f726f;stop-opacity:1" id="stop4101" offset="0"/><stop style="stop-color:#6f726f;stop-opacity:0" id="stop4103" offset="1"/></linearGradient><linearGradient id="linearGradient7533" x1="9.486" x2="7.378" y1="22.108" y2="22.638" gradientUnits="userSpaceOnUse" xlink:href="#linearGradient3510"/><linearGradient id="linearGradient3510"><stop style="stop-color:#fff;stop-opacity:1" id="stop3512" offset="0"/><stop style="stop-color:#fff;stop-opacity:0" id="stop3514" offset="1"/></linearGradient><radialGradient id="radialGradient7535" cx="5.082" cy="12.516" r="2.983" fx="5.082" fy="12.516" gradientTransform="matrix(1.525791,0,-1.480441e-8,1.768964,-0.08162983,6.066255)" gradientUnits="userSpaceOnUse" xlink:href="#linearGradient3674"/><linearGradient id="linearGradient3674"><stop style="stop-color:#fff;stop-opacity:0" id="stop3676" offset="0"/><stop style="stop-color:#fff;stop-opacity:1" id="stop3678" offset="1"/></linearGradient><radialGradient id="radialGradient7537" cx="-1.002" cy=".99" r="9.921" fx="-1.002" fy=".99" gradientTransform="matrix(-0.127582,1.416065,-1.630141,-0.146854,17.48751,15.56121)" gradientUnits="userSpaceOnUse" xlink:href="#linearGradient3676"/><linearGradient id="linearGradient3676"><stop style="stop-color:#eeeeec" id="stop4022" offset="0"/><stop style="stop-color:#555753" id="stop3680" offset="1"/></linearGradient><linearGradient id="linearGradient7539" x1="17.063" x2="20.313" y1="34.95" y2="5.375" gradientUnits="userSpaceOnUse" xlink:href="#linearGradient1557"/><linearGradient id="linearGradient1557"><stop style="stop-color:#2e3436;stop-opacity:1" id="stop1559" offset="0"/><stop style="stop-color:#888a85" id="stop1561" offset="1"/></linearGradient><radialGradient id="radialGradient7541" cx="-1.002" cy=".99" r="9.921" fx="-1.002" fy=".99" gradientTransform="matrix(-0.310032,2.110862,-2.082775,-0.305867,17.75288,16.41459)" gradientUnits="userSpaceOnUse" xlink:href="#linearGradient3730"/><linearGradient id="linearGradient3730"><stop style="stop-color:#eeeeec" id="stop3732" offset="0"/><stop style="stop-color:#888a85" id="stop3734" offset="1"/></linearGradient><radialGradient id="radialGradient7543" cx="12.705" cy="13.847" r="9.375" fx="12.705" fy="13.847" gradientTransform="matrix(0.06370852,-1.424475,1.547293,0.0692112,-9.530629,30.98681)" gradientUnits="userSpaceOnUse" xlink:href="#linearGradient3628"/><linearGradient id="linearGradient3628"><stop style="stop-color:#d3d7cf" id="stop3630" offset="0"/><stop style="stop-color:#555753" id="stop3632" offset="1"/></linearGradient><linearGradient id="linearGradient7545" x1="-.52" x2="-.52" y1="-.52" y2="19.27" gradientUnits="userSpaceOnUse" xlink:href="#linearGradient3692"/><linearGradient id="linearGradient3692"><stop style="stop-color:#2e3436;stop-opacity:1" id="stop3694" offset="0"/><stop style="stop-color:#babdb6" id="stop3696" offset="1"/></linearGradient><radialGradient id="radialGradient7547" cx="6.88" cy="7.199" r="9.375" fx="6.88" fy="7.199" gradientTransform="matrix(1.240749,0,0,1.157631,-1.713645,-1.134736)" gradientUnits="userSpaceOnUse" xlink:href="#linearGradient3670"/><linearGradient id="linearGradient3670"><stop style="stop-color:#d3d7cf" id="stop3672" offset="0"/><stop style="stop-color:#555753" id="stop3674" offset="1"/></linearGradient><radialGradient id="radialGradient7549" cx="36.828" cy="24.428" r="1.24" fx="36.828" fy="24.428" gradientTransform="matrix(13.39869,-4.118282e-6,6.831725e-6,22.22678,-456.6246,-518.5208)" gradientUnits="userSpaceOnUse" xlink:href="#linearGradient3498"/><linearGradient id="linearGradient3498"><stop style="stop-color:#3465a4;stop-opacity:1" id="stop3500" offset="0"/><stop style="stop-color:#3465a4;stop-opacity:0" id="stop3502" offset="1"/></linearGradient><radialGradient id="radialGradient7551" cx="36.828" cy="24.428" r="1.24" fx="36.828" fy="24.428" gradientTransform="matrix(13.39869,-4.118282e-6,6.831725e-6,22.22678,-456.6246,-518.5208)" gradientUnits="userSpaceOnUse" xlink:href="#linearGradient3498"/><linearGradient id="linearGradient8294"><stop style="stop-color:#3465a4;stop-opacity:1" id="stop8296" offset="0"/><stop style="stop-color:#3465a4;stop-opacity:0" id="stop8298" offset="1"/></linearGradient><radialGradient id="radialGradient7553" cx="36.828" cy="24.428" r="1.24" fx="36.828" fy="24.428" gradientTransform="matrix(21.09444,0,0,22.22672,-740.0468,-518.5196)" gradientUnits="userSpaceOnUse" xlink:href="#linearGradient3498"/><linearGradient id="linearGradient8301"><stop style="stop-color:#3465a4;stop-opacity:1" id="stop8303" offset="0"/><stop style="stop-color:#3465a4;stop-opacity:0" id="stop8305" offset="1"/></linearGradient><radialGradient id="radialGradient7555" cx="55.218" cy="458.465" r="15.213" fx="55.218" fy="458.465" gradientTransform="matrix(0.55758631,0,0,0.57073983,388.7386,180.81737)" gradientUnits="userSpaceOnUse" xlink:href="#linearGradient4799-0"/><linearGradient id="linearGradient4799-0"><stop style="stop-color:#ffde00;stop-opacity:1" id="stop4801-3" offset="0"/><stop style="stop-color:#ffa700;stop-opacity:1" id="stop4803-97" offset="1"/></linearGradient><radialGradient id="radialGradient8338" cx="55.218" cy="458.465" r="15.213" fx="55.218" fy="458.465" gradientTransform="matrix(0.55758631,0,0,0.57073983,388.7386,180.81737)" gradientUnits="userSpaceOnUse" xlink:href="#linearGradient4799-0"/><linearGradient id="linearGradient7505" x1="486.523" x2="494.933" y1="484.424" y2="494.24" gradientTransform="matrix(2.3535789,0,0,2.3535789,-993.40012,-182.16999)" gradientUnits="userSpaceOnUse" xlink:href="#linearGradient5955"/><linearGradient id="linearGradient5955"><stop style="stop-color:#a5d927;stop-opacity:1" id="stop5957" offset="0"/><stop style="stop-color:#a5d927;stop-opacity:0" id="stop5959" offset="1"/></linearGradient><radialGradient id="radialGradient7507" cx="55.218" cy="458.465" r="15.213" fx="55.218" fy="458.465" gradientTransform="matrix(1.0803234,0,0,1.1058083,-32.016293,522.96741)" gradientUnits="userSpaceOnUse" xlink:href="#linearGradient4799-20"/><linearGradient id="linearGradient4799-20"><stop style="stop-color:#ffde00;stop-opacity:1" id="stop4801-43" offset="0"/><stop style="stop-color:#ffa700;stop-opacity:1" id="stop4803-95" offset="1"/></linearGradient><linearGradient id="linearGradient4432" x1="486.523" x2="494.933" y1="484.424" y2="494.24" gradientTransform="matrix(1.0127011,0,0,1.0127011,-425.66366,482.3152)" gradientUnits="userSpaceOnUse" xlink:href="#linearGradient5955"/><linearGradient id="linearGradient4458" x1="486.523" x2="494.933" y1="484.424" y2="494.24" gradientTransform="matrix(2.3535789,0,0,2.3535789,-993.40012,-182.16999)" gradientUnits="userSpaceOnUse" xlink:href="#linearGradient5955"/><linearGradient id="linearGradient4484" x1="486.523" x2="494.933" y1="484.424" y2="494.24" gradientTransform="matrix(2.3535789,0,0,2.3535789,-993.40012,-182.16999)" gradientUnits="userSpaceOnUse" xlink:href="#linearGradient5955"/></defs><metadata id="metadata7618"/><g id="layer1" transform="translate(0,-928.36218)"><g id="g4555"><rect id="rect5381" width="124" height="124" x="0" y="928.362" style="opacity:0;fill:#fff;fill-opacity:1;stroke:none"/><g id="g4501"><rect style="fill:#2d404e;fill-opacity:1;stroke:none" id="rect5383" width="83.097" height="103.313" x="22.417" y="939.813" ry="6.273"/><rect id="rect5385" width="83.097" height="103.313" x="19.934" y="937.33" ry="6.273" style="fill:#fff;fill-opacity:1;stroke:#70acc7;stroke-width:1.93749976;stroke-opacity:1"/><g id="g4395" transform="matrix(0.43028133,0,0,0.43028133,-34.58612,560.69955)"><path id="path5497" d="m 215.7757,1000.1777 c 0,3.2932 -2.67941,5.9876 -5.98751,5.9876 l -23.95012,0 -11.97504,0 -17.96258,0 c -3.30693,0 -5.98754,-2.6944 -5.98754,-5.9876 l 0,-41.91262 c 0,-3.29313 2.68061,-5.98755 5.98754,-5.98755 l 17.96258,0 11.97504,0 11.97505,0 11.97507,0 c 3.3081,0 5.98751,2.69442 5.98751,5.98755 l 0,11.97504 0,29.93768 z" style="fill:#95a5a6"/><path id="path5499" d="m 149.91291,997.18399 c 0,3.29311 2.68061,5.98751 5.98754,5.98751 l 23.95009,0 11.97507,0 17.96258,0 c 3.3081,0 5.98751,-2.6943 5.98751,-5.98751 l 0,-41.91266 c 0,-3.29315 -2.67941,-5.98755 -5.98751,-5.98755 l -17.96258,0 -11.97507,0 -11.97505,0 -11.97504,0 c -3.30693,0 -5.98754,2.69438 -5.98754,5.98755 l 0,11.97503 0,29.93763 z" style="fill:#e6e6e6"/><rect id="rect5501" width="57.758" height="44.923" x="153.966" y="953.764" style="fill:#9dd0f6;fill-opacity:1"/><path id="path5505" d="m 207.23813,981.07288 a 7.2747514,7.2747514 0 0 1 -14.5495,0 7.2747514,7.2747514 0 1 1 14.5495,0 z" style="fill:#ffd42a"/><rect style="fill:#a5d927;fill-opacity:1" id="rect5943" width="57.758" height="16.911" x="153.966" y="981.775"/><path id="path5941" d="m 153.91571,998.70874 57.83526,0.0599 c -18.95886,-15.99659 -47.56128,-10.69879 -57.83526,-0.0599 z" style="fill:#6c9e00;fill-opacity:1;stroke:none"/><path id="path5963" d="m 196.4132,958.02504 c -1.7855,0.33815 -3.19782,1.73616 -3.36276,3.44896 -1.90315,0.0864 -3.44901,1.49374 -3.44901,3.27655 0,1.83832 1.63522,3.36278 3.62146,3.36278 0.49656,0 0.94934,-0.0901 1.3796,-0.25854 0.49503,0.50338 1.18974,0.86221 1.98317,0.86221 0.9199,0 1.75276,-0.47176 2.24182,-1.1209 0.56571,0.79441 1.4819,1.37959 2.58674,1.37959 1.22058,0 2.23172,-0.70126 2.75921,-1.63827 0.13601,0.025 0.28762,0.0862 0.43113,0.0862 0.97421,0 1.7434,-0.58371 2.06939,-1.3796 0.13717,0.0248 0.28578,0.0862 0.43113,0.0862 1.16271,0 2.06937,-0.90702 2.06937,-1.98317 0,-1.07612 -0.90666,-1.98316 -2.06937,-1.98316 -0.41245,0 -0.79612,0.15519 -1.12094,0.34491 -0.27015,-1.14928 -1.35032,-1.98316 -2.67298,-1.98316 -0.76248,0 -1.48346,0.22734 -1.98314,0.68976 -0.31727,-1.84575 -1.96897,-3.19028 -4.05257,-3.19028 -0.28861,0 -0.59011,-0.0515 -0.86225,0 z" style="fill:#fff;fill-opacity:1;stroke:none"/><path style="fill:#279705;fill-opacity:1;stroke:none" id="path5949" d="m 176.55842,984.72985 c 2.27455,0.99051 4.47078,0.24331 3.20263,-2.62035 0.86203,2.66945 8.3022,2.08134 7.4729,-2.13507 3.40864,-3.08514 1.21012,-6.38613 -1.74691,-7.08474 2.63234,-0.7074 2.41666,-6.71981 -1.45574,-5.33771 0.41792,-3.72298 -3.29577,-6.53976 -6.40534,-4.65845 -1.20725,-2.29291 -5.29546,-2.76688 -7.18173,-0.58235 -2.92119,-3.04719 -6.61197,0.5324 -5.82304,2.62039 -5.17799,1.10497 -2.98073,5.84716 -1.45574,6.98763 -3.94775,-0.87495 -7.39617,2.0561 -6.59941,5.24074 -2.89474,2.57196 1.68053,8.32922 6.40531,5.92005 -0.60938,3.13643 3.30263,3.74353 5.62889,1.2617 0.78346,3.53894 6.55518,3.31367 7.95818,0.38816 z"/><path id="path5947" d="m 168.18216,981.45682 c 1.0492,5.4737 0.3554,7.65618 -1.41385,11.32612 0.69874,0.45234 1.43697,0.85647 2.84024,0.44775 0.80797,0.27257 2.04862,0.16856 2.28059,-0.50053 0.37063,0.35423 0.73236,0.71916 1.49145,0.60721 1.17936,0.51377 1.42869,-0.0327 1.89267,-0.46971 -1.52635,-4.60369 -2.2905,-6.90554 -2.01349,-11.28384 z" style="fill:#4a283b;fill-opacity:1;stroke:none"/><path id="path5945" d="m 166.74857,983.53308 c -2.27455,0.99047 -4.47078,0.24329 -3.20263,-2.62039 -0.86204,2.66945 -8.30221,2.08138 -7.4729,-2.13507 -3.40864,-3.08512 -1.21012,-6.38613 1.74691,-7.08472 -2.63235,-0.70742 -2.41667,-6.71983 1.45574,-5.33773 -0.41792,-3.72295 3.29576,-6.53974 6.40533,-4.65843 1.20726,-2.29292 5.29546,-2.76691 7.18173,-0.58234 2.92121,-3.04722 6.61197,0.53239 5.82304,2.62036 5.17801,1.10499 2.98075,5.84716 1.45574,6.98765 3.94776,-0.87494 7.39618,2.05607 6.59946,5.24072 2.8947,2.57197 -1.68057,8.32922 -6.40536,5.92005 0.60941,3.13643 -3.30262,3.74354 -5.62888,1.26172 -0.78347,3.53892 -6.55516,3.31367 -7.95818,0.38818 z" style="fill:#6cae03;fill-opacity:1;stroke:none"/><path style="fill:url(#linearGradient7505);fill-opacity:1;stroke:none" id="path5953" d="m 166.541,982.01016 c -1.98206,0.86314 -3.89586,0.21206 -2.79081,-2.28342 -0.75117,2.32619 -7.23463,1.81372 -6.51198,-1.86052 -2.97032,-2.68843 -1.0545,-5.56496 1.52228,-6.17371 -2.29387,-0.61645 -2.10591,-5.85574 1.26856,-4.65137 -0.36418,-3.24423 2.87199,-5.69881 5.58168,-4.05943 1.05202,-1.99803 4.61454,-2.4111 6.25826,-0.50745 2.54557,-2.65537 5.76172,0.46395 5.07427,2.28346 4.51217,0.96286 2.59742,5.09525 1.26853,6.08906 3.44012,-0.76241 6.44513,1.79172 5.75084,4.56688 2.52249,2.24122 -1.46446,7.25816 -5.58168,5.15878 0.53101,2.73312 -2.87793,3.26215 -4.90511,1.09948 -0.68268,3.08386 -5.71222,2.88757 -6.93484,0.33824 z"/></g><path id="path4410" d="m 94.622117,991.05734 c 0,1.417 -1.1529,2.57635 -2.576314,2.57635 l -10.305289,0 -5.152637,0 -7.728962,0 c -1.422911,0 -2.576327,-1.15935 -2.576327,-2.57635 l 0,-18.03422 c 0,-1.41697 1.153416,-2.57633 2.576327,-2.57633 l 7.728962,0 5.152637,0 5.15264,0 5.152649,0 c 1.423414,0 2.576314,1.15936 2.576314,2.57633 l 0,5.15264 0,12.88162 z" style="fill:#95a5a6"/><path id="path4412" d="m 66.282588,989.7692 c 0,1.41697 1.153416,2.57632 2.576327,2.57632 l 10.305276,0 5.152649,0 7.728963,0 c 1.423414,0 2.576314,-1.15931 2.576314,-2.57632 l 0,-18.03423 c 0,-1.41698 -1.1529,-2.57633 -2.576314,-2.57633 l -7.728963,0 -5.152649,0 -5.15264,0 -5.152636,0 c -1.422911,0 -2.576327,1.15934 -2.576327,2.57633 l 0,5.15263 0,12.8816 z" style="fill:#f60;fill-opacity:1"/><rect id="rect4414" width="24.852" height="19.329" x="68.027" y="971.086" style="fill:#9dd0f6;fill-opacity:1"/><path id="path4416" d="m 90.94856,982.83689 a 3.1301897,3.1301897 0 0 1 -6.260378,0 3.1301897,3.1301897 0 1 1 6.260378,0 z" style="fill:#ffd42a"/><rect style="fill:#a5d927;fill-opacity:1" id="rect4418" width="24.852" height="7.277" x="68.027" y="983.139"/><path id="path4420" d="m 68.004918,990.42527 24.885433,0.0258 c -8.157644,-6.88304 -20.464731,-4.60349 -24.885433,-0.0258 z" style="fill:#6c9e00;fill-opacity:1;stroke:none"/><path id="path4422" d="m 86.290795,972.91984 c -0.768268,0.1455 -1.375963,0.74704 -1.446933,1.48402 -0.81889,0.0372 -1.484045,0.64273 -1.484045,1.40984 0,0.79099 0.703605,1.44694 1.558247,1.44694 0.21366,0 0.408483,-0.0388 0.593616,-0.11124 0.213002,0.21659 0.511923,0.37099 0.853321,0.37099 0.395816,0 0.75418,-0.20299 0.964613,-0.4823 0.243415,0.34182 0.637634,0.59361 1.113026,0.59361 0.525193,0 0.960268,-0.30174 1.187237,-0.70492 0.05852,0.0108 0.123757,0.0371 0.185507,0.0371 0.419184,0 0.750152,-0.25116 0.89042,-0.59361 0.05902,0.0107 0.122966,0.0371 0.185507,0.0371 0.500292,0 0.890411,-0.39028 0.890411,-0.85333 0,-0.46303 -0.390119,-0.85331 -0.890411,-0.85331 -0.17747,0 -0.342556,0.0668 -0.48232,0.14841 -0.11624,-0.49452 -0.581017,-0.85332 -1.150133,-0.85332 -0.328081,0 -0.638305,0.0978 -0.853308,0.29679 -0.136515,-0.79419 -0.847211,-1.37272 -1.743745,-1.37272 -0.124184,0 -0.253914,-0.0222 -0.37101,0 z" style="fill:#fff;fill-opacity:1;stroke:none"/><path style="fill:#279705;fill-opacity:1;stroke:none" id="path4424" d="m 77.747653,984.41042 c 0.978697,0.4262 1.923694,0.10469 1.378032,-1.12749 0.370916,1.14862 3.572282,0.89556 3.21545,-0.91868 1.466674,-1.32748 0.520692,-2.74783 -0.751663,-3.04843 1.132647,-0.30438 1.039844,-2.89141 -0.626378,-2.29672 0.179823,-1.60193 -1.418108,-2.81393 -2.756098,-2.00444 -0.519457,-0.9866 -2.278538,-1.19054 -3.090164,-0.25058 -1.256934,-1.31114 -2.845008,0.22909 -2.505546,1.12751 -2.227992,0.47545 -1.282552,2.51592 -0.626377,3.00665 -1.698644,-0.37648 -3.182434,0.8847 -2.839603,2.25499 -1.245553,1.10666 0.7231,3.58391 2.756085,2.54729 -0.262205,1.34954 1.42106,1.61077 2.422006,0.54288 0.337108,1.52274 2.820572,1.42581 3.424256,0.16702 z"/><path id="path4426" d="m 74.143505,983.0021 c 0.451451,2.35523 0.152922,3.29431 -0.608353,4.87341 0.300655,0.19464 0.618301,0.36853 1.222102,0.19266 0.347655,0.11728 0.881483,0.0725 0.981295,-0.21537 0.159476,0.15242 0.315121,0.30944 0.641744,0.26127 0.507456,0.22107 0.614738,-0.0141 0.81438,-0.2021 -0.65676,-1.98088 -0.985559,-2.97133 -0.866367,-4.85523 z" style="fill:#4a283b;fill-opacity:1;stroke:none"/><path id="path4428" d="m 73.526658,983.89547 c -0.978696,0.42618 -1.923693,0.10468 -1.378032,-1.1275 -0.370919,1.14861 -3.572286,0.89558 -3.215449,-0.91868 -1.466674,-1.32747 -0.520692,-2.74784 0.751663,-3.04843 -1.132651,-0.30439 -1.039848,-2.89141 0.626377,-2.29672 -0.179823,-1.60192 1.418104,-2.81393 2.756094,-2.00444 0.519462,-0.9866 2.278538,-1.19055 3.090165,-0.25057 1.256942,-1.31116 2.845007,0.22908 2.505545,1.12749 2.228001,0.47546 1.282561,2.51593 0.626378,3.00666 1.698647,-0.37647 3.182438,0.88469 2.839624,2.25498 1.245536,1.10667 -0.723118,3.58391 -2.756107,2.54729 0.262218,1.34955 -1.421055,1.61078 -2.422002,0.5429 -0.337112,1.52273 -2.820563,1.42581 -3.424256,0.16702 z" style="fill:#6cae03;fill-opacity:1;stroke:none"/><path style="fill:url(#linearGradient4432);fill-opacity:1;stroke:none" id="path4430" d="m 73.437345,983.24019 c -0.852844,0.37139 -1.676316,0.0912 -1.200834,-0.98252 -0.323214,1.00092 -3.112926,0.78041 -2.801983,-0.80054 -1.278073,-1.15678 -0.453732,-2.3945 0.655008,-2.65643 -0.987009,-0.26525 -0.906133,-2.51962 0.545838,-2.0014 -0.1567,-1.39593 1.235764,-2.45209 2.401693,-1.7467 0.452664,-0.85971 1.98555,-1.03745 2.692812,-0.21835 1.095312,-1.14255 2.479161,0.19963 2.183364,0.98253 1.941502,0.41431 1.117621,2.1924 0.545825,2.62001 1.480219,-0.32805 2.773219,0.77095 2.474479,1.96505 1.08538,0.96435 -0.63013,3.12305 -2.401693,2.21972 0.228484,1.17601 -1.238319,1.40365 -2.110577,0.47309 -0.293745,1.32693 -2.457862,1.24247 -2.983932,0.14554 z"/><g id="g4434" transform="matrix(0.43028133,0,0,0.43028133,-34.58612,591.21515)"><path id="path4436" d="m 215.7757,1000.1777 c 0,3.2932 -2.67941,5.9876 -5.98751,5.9876 l -23.95012,0 -11.97504,0 -17.96258,0 c -3.30693,0 -5.98754,-2.6944 -5.98754,-5.9876 l 0,-41.91262 c 0,-3.29313 2.68061,-5.98755 5.98754,-5.98755 l 17.96258,0 11.97504,0 11.97505,0 11.97507,0 c 3.3081,0 5.98751,2.69442 5.98751,5.98755 l 0,11.97504 0,29.93768 z" style="fill:#95a5a6"/><path id="path4438" d="m 149.91291,997.18399 c 0,3.29311 2.68061,5.98751 5.98754,5.98751 l 23.95009,0 11.97507,0 17.96258,0 c 3.3081,0 5.98751,-2.6943 5.98751,-5.98751 l 0,-41.91266 c 0,-3.29315 -2.67941,-5.98755 -5.98751,-5.98755 l -17.96258,0 -11.97507,0 -11.97505,0 -11.97504,0 c -3.30693,0 -5.98754,2.69438 -5.98754,5.98755 l 0,11.97503 0,29.93763 z" style="fill:#e6e6e6"/><rect id="rect4440" width="57.758" height="44.923" x="153.966" y="953.764" style="fill:#9dd0f6;fill-opacity:1"/><path id="path4442" d="m 207.23813,981.07288 a 7.2747514,7.2747514 0 0 1 -14.5495,0 7.2747514,7.2747514 0 1 1 14.5495,0 z" style="fill:#ffd42a"/><rect style="fill:#a5d927;fill-opacity:1" id="rect4444" width="57.758" height="16.911" x="153.966" y="981.775"/><path id="path4446" d="m 153.91571,998.70874 57.83526,0.0599 c -18.95886,-15.99659 -47.56128,-10.69879 -57.83526,-0.0599 z" style="fill:#6c9e00;fill-opacity:1;stroke:none"/><path id="path4448" d="m 196.4132,958.02504 c -1.7855,0.33815 -3.19782,1.73616 -3.36276,3.44896 -1.90315,0.0864 -3.44901,1.49374 -3.44901,3.27655 0,1.83832 1.63522,3.36278 3.62146,3.36278 0.49656,0 0.94934,-0.0901 1.3796,-0.25854 0.49503,0.50338 1.18974,0.86221 1.98317,0.86221 0.9199,0 1.75276,-0.47176 2.24182,-1.1209 0.56571,0.79441 1.4819,1.37959 2.58674,1.37959 1.22058,0 2.23172,-0.70126 2.75921,-1.63827 0.13601,0.025 0.28762,0.0862 0.43113,0.0862 0.97421,0 1.7434,-0.58371 2.06939,-1.3796 0.13717,0.0248 0.28578,0.0862 0.43113,0.0862 1.16271,0 2.06937,-0.90702 2.06937,-1.98317 0,-1.07612 -0.90666,-1.98316 -2.06937,-1.98316 -0.41245,0 -0.79612,0.15519 -1.12094,0.34491 -0.27015,-1.14928 -1.35032,-1.98316 -2.67298,-1.98316 -0.76248,0 -1.48346,0.22734 -1.98314,0.68976 -0.31727,-1.84575 -1.96897,-3.19028 -4.05257,-3.19028 -0.28861,0 -0.59011,-0.0515 -0.86225,0 z" style="fill:#fff;fill-opacity:1;stroke:none"/><path style="fill:#279705;fill-opacity:1;stroke:none" id="path4450" d="m 176.55842,984.72985 c 2.27455,0.99051 4.47078,0.24331 3.20263,-2.62035 0.86203,2.66945 8.3022,2.08134 7.4729,-2.13507 3.40864,-3.08514 1.21012,-6.38613 -1.74691,-7.08474 2.63234,-0.7074 2.41666,-6.71981 -1.45574,-5.33771 0.41792,-3.72298 -3.29577,-6.53976 -6.40534,-4.65845 -1.20725,-2.29291 -5.29546,-2.76688 -7.18173,-0.58235 -2.92119,-3.04719 -6.61197,0.5324 -5.82304,2.62039 -5.17799,1.10497 -2.98073,5.84716 -1.45574,6.98763 -3.94775,-0.87495 -7.39617,2.0561 -6.59941,5.24074 -2.89474,2.57196 1.68053,8.32922 6.40531,5.92005 -0.60938,3.13643 3.30263,3.74353 5.62889,1.2617 0.78346,3.53894 6.55518,3.31367 7.95818,0.38816 z"/><path id="path4452" d="m 168.18216,981.45682 c 1.0492,5.4737 0.3554,7.65618 -1.41385,11.32612 0.69874,0.45234 1.43697,0.85647 2.84024,0.44775 0.80797,0.27257 2.04862,0.16856 2.28059,-0.50053 0.37063,0.35423 0.73236,0.71916 1.49145,0.60721 1.17936,0.51377 1.42869,-0.0327 1.89267,-0.46971 -1.52635,-4.60369 -2.2905,-6.90554 -2.01349,-11.28384 z" style="fill:#4a283b;fill-opacity:1;stroke:none"/><path id="path4454" d="m 166.74857,983.53308 c -2.27455,0.99047 -4.47078,0.24329 -3.20263,-2.62039 -0.86204,2.66945 -8.30221,2.08138 -7.4729,-2.13507 -3.40864,-3.08512 -1.21012,-6.38613 1.74691,-7.08472 -2.63235,-0.70742 -2.41667,-6.71983 1.45574,-5.33773 -0.41792,-3.72295 3.29576,-6.53974 6.40533,-4.65843 1.20726,-2.29292 5.29546,-2.76691 7.18173,-0.58234 2.92121,-3.04722 6.61197,0.53239 5.82304,2.62036 5.17801,1.10499 2.98075,5.84716 1.45574,6.98765 3.94776,-0.87494 7.39618,2.05607 6.59946,5.24072 2.8947,2.57197 -1.68057,8.32922 -6.40536,5.92005 0.60941,3.13643 -3.30262,3.74354 -5.62888,1.26172 -0.78347,3.53892 -6.55516,3.31367 -7.95818,0.38818 z" style="fill:#6cae03;fill-opacity:1;stroke:none"/><path style="fill:url(#linearGradient4458);fill-opacity:1;stroke:none" id="path4456" d="m 166.541,982.01016 c -1.98206,0.86314 -3.89586,0.21206 -2.79081,-2.28342 -0.75117,2.32619 -7.23463,1.81372 -6.51198,-1.86052 -2.97032,-2.68843 -1.0545,-5.56496 1.52228,-6.17371 -2.29387,-0.61645 -2.10591,-5.85574 1.26856,-4.65137 -0.36418,-3.24423 2.87199,-5.69881 5.58168,-4.05943 1.05202,-1.99803 4.61454,-2.4111 6.25826,-0.50745 2.54557,-2.65537 5.76172,0.46395 5.07427,2.28346 4.51217,0.96286 2.59742,5.09525 1.26853,6.08906 3.44012,-0.76241 6.44513,1.79172 5.75084,4.56688 2.52249,2.24122 -1.46446,7.25816 -5.58168,5.15878 0.53101,2.73312 -2.87793,3.26215 -4.90511,1.09948 -0.68268,3.08386 -5.71222,2.88757 -6.93484,0.33824 z"/></g><g id="g4460" transform="matrix(0.43028133,0,0,0.43028133,1.7778617,591.21515)"><path style="fill:#95a5a6" id="path4462" d="m 215.7757,1000.1777 c 0,3.2932 -2.67941,5.9876 -5.98751,5.9876 l -23.95012,0 -11.97504,0 -17.96258,0 c -3.30693,0 -5.98754,-2.6944 -5.98754,-5.9876 l 0,-41.91262 c 0,-3.29313 2.68061,-5.98755 5.98754,-5.98755 l 17.96258,0 11.97504,0 11.97505,0 11.97507,0 c 3.3081,0 5.98751,2.69442 5.98751,5.98755 l 0,11.97504 0,29.93768 z"/><path style="fill:#e6e6e6" id="path4464" d="m 149.91291,997.18399 c 0,3.29311 2.68061,5.98751 5.98754,5.98751 l 23.95009,0 11.97507,0 17.96258,0 c 3.3081,0 5.98751,-2.6943 5.98751,-5.98751 l 0,-41.91266 c 0,-3.29315 -2.67941,-5.98755 -5.98751,-5.98755 l -17.96258,0 -11.97507,0 -11.97505,0 -11.97504,0 c -3.30693,0 -5.98754,2.69438 -5.98754,5.98755 l 0,11.97503 0,29.93763 z"/><rect style="fill:#9dd0f6;fill-opacity:1" id="rect4466" width="57.758" height="44.923" x="153.966" y="953.764"/><path style="fill:#ffd42a" id="path4468" d="m 207.23813,981.07288 a 7.2747514,7.2747514 0 0 1 -14.5495,0 7.2747514,7.2747514 0 1 1 14.5495,0 z"/><rect id="rect4470" width="57.758" height="16.911" x="153.966" y="981.775" style="fill:#a5d927;fill-opacity:1"/><path style="fill:#6c9e00;fill-opacity:1;stroke:none" id="path4472" d="m 153.91571,998.70874 57.83526,0.0599 c -18.95886,-15.99659 -47.56128,-10.69879 -57.83526,-0.0599 z"/><path style="fill:#fff;fill-opacity:1;stroke:none" id="path4474" d="m 196.4132,958.02504 c -1.7855,0.33815 -3.19782,1.73616 -3.36276,3.44896 -1.90315,0.0864 -3.44901,1.49374 -3.44901,3.27655 0,1.83832 1.63522,3.36278 3.62146,3.36278 0.49656,0 0.94934,-0.0901 1.3796,-0.25854 0.49503,0.50338 1.18974,0.86221 1.98317,0.86221 0.9199,0 1.75276,-0.47176 2.24182,-1.1209 0.56571,0.79441 1.4819,1.37959 2.58674,1.37959 1.22058,0 2.23172,-0.70126 2.75921,-1.63827 0.13601,0.025 0.28762,0.0862 0.43113,0.0862 0.97421,0 1.7434,-0.58371 2.06939,-1.3796 0.13717,0.0248 0.28578,0.0862 0.43113,0.0862 1.16271,0 2.06937,-0.90702 2.06937,-1.98317 0,-1.07612 -0.90666,-1.98316 -2.06937,-1.98316 -0.41245,0 -0.79612,0.15519 -1.12094,0.34491 -0.27015,-1.14928 -1.35032,-1.98316 -2.67298,-1.98316 -0.76248,0 -1.48346,0.22734 -1.98314,0.68976 -0.31727,-1.84575 -1.96897,-3.19028 -4.05257,-3.19028 -0.28861,0 -0.59011,-0.0515 -0.86225,0 z"/><path id="path4476" d="m 176.55842,984.72985 c 2.27455,0.99051 4.47078,0.24331 3.20263,-2.62035 0.86203,2.66945 8.3022,2.08134 7.4729,-2.13507 3.40864,-3.08514 1.21012,-6.38613 -1.74691,-7.08474 2.63234,-0.7074 2.41666,-6.71981 -1.45574,-5.33771 0.41792,-3.72298 -3.29577,-6.53976 -6.40534,-4.65845 -1.20725,-2.29291 -5.29546,-2.76688 -7.18173,-0.58235 -2.92119,-3.04719 -6.61197,0.5324 -5.82304,2.62039 -5.17799,1.10497 -2.98073,5.84716 -1.45574,6.98763 -3.94775,-0.87495 -7.39617,2.0561 -6.59941,5.24074 -2.89474,2.57196 1.68053,8.32922 6.40531,5.92005 -0.60938,3.13643 3.30263,3.74353 5.62889,1.2617 0.78346,3.53894 6.55518,3.31367 7.95818,0.38816 z" style="fill:#279705;fill-opacity:1;stroke:none"/><path style="fill:#4a283b;fill-opacity:1;stroke:none" id="path4478" d="m 168.18216,981.45682 c 1.0492,5.4737 0.3554,7.65618 -1.41385,11.32612 0.69874,0.45234 1.43697,0.85647 2.84024,0.44775 0.80797,0.27257 2.04862,0.16856 2.28059,-0.50053 0.37063,0.35423 0.73236,0.71916 1.49145,0.60721 1.17936,0.51377 1.42869,-0.0327 1.89267,-0.46971 -1.52635,-4.60369 -2.2905,-6.90554 -2.01349,-11.28384 z"/><path style="fill:#6cae03;fill-opacity:1;stroke:none" id="path4480" d="m 166.74857,983.53308 c -2.27455,0.99047 -4.47078,0.24329 -3.20263,-2.62039 -0.86204,2.66945 -8.30221,2.08138 -7.4729,-2.13507 -3.40864,-3.08512 -1.21012,-6.38613 1.74691,-7.08472 -2.63235,-0.70742 -2.41667,-6.71983 1.45574,-5.33773 -0.41792,-3.72295 3.29576,-6.53974 6.40533,-4.65843 1.20726,-2.29292 5.29546,-2.76691 7.18173,-0.58234 2.92121,-3.04722 6.61197,0.53239 5.82304,2.62036 5.17801,1.10499 2.98075,5.84716 1.45574,6.98765 3.94776,-0.87494 7.39618,2.05607 6.59946,5.24072 2.8947,2.57197 -1.68057,8.32922 -6.40536,5.92005 0.60941,3.13643 -3.30262,3.74354 -5.62888,1.26172 -0.78347,3.53892 -6.55516,3.31367 -7.95818,0.38818 z"/><path id="path4482" d="m 166.541,982.01016 c -1.98206,0.86314 -3.89586,0.21206 -2.79081,-2.28342 -0.75117,2.32619 -7.23463,1.81372 -6.51198,-1.86052 -2.97032,-2.68843 -1.0545,-5.56496 1.52228,-6.17371 -2.29387,-0.61645 -2.10591,-5.85574 1.26856,-4.65137 -0.36418,-3.24423 2.87199,-5.69881 5.58168,-4.05943 1.05202,-1.99803 4.61454,-2.4111 6.25826,-0.50745 2.54557,-2.65537 5.76172,0.46395 5.07427,2.28346 4.51217,0.96286 2.59742,5.09525 1.26853,6.08906 3.44012,-0.76241 6.44513,1.79172 5.75084,4.56688 2.52249,2.24122 -1.46446,7.25816 -5.58168,5.15878 0.53101,2.73312 -2.87793,3.26215 -4.90511,1.09948 -0.68268,3.08386 -5.71222,2.88757 -6.93484,0.33824 z" style="fill:url(#linearGradient4484);fill-opacity:1;stroke:none"/></g><path style="fill:url(#radialGradient7507);fill-opacity:1;stroke:#ff4100;stroke-width:1.62048495;stroke-linecap:round;stroke-linejoin:round;stroke-miterlimit:4;stroke-dasharray:none;stroke-opacity:1" id="path6039" d="m 26.049588,1025.0724 -0.05503,-9.8333 c 0.06297,-2.1592 3.965636,-2.0353 4.229969,-0.055 l 0,9.7234 6.537221,-6.5921 c 1.604153,-1.5049 3.937619,1.1364 2.526984,2.6369 l -6.097738,6.8668 8.569794,0.055 c 2.499859,0.3246 2.184783,4.4543 0.109856,4.6145 l -8.295115,-0.055 6.262542,6.0428 c 1.478545,1.6554 -0.493965,4.523 -2.691788,3.0763 l -7.031632,-6.7569 -0.05503,9.7234 c 0.248601,2.0648 -3.98317,2.455 -4.394773,0.055 l 0.05503,-9.229 -6.207613,6.2076 c -2.185306,0.5379 -3.979237,-1.0158 -3.131271,-2.9116 l 6.592149,-6.3174 -9.503688,0.11 c -2.341043,-0.4546 -2.284235,-4.3097 0.05503,-4.6145 l 9.72342,-0.055 -6.811881,-6.702 c -1.325328,-2.1093 0.948696,-4.2446 2.746735,-2.9665 z"/><rect style="opacity:1;fill:#08a;fill-opacity:1;stroke:none;stroke-width:2;stroke-linecap:round;stroke-linejoin:round;stroke-miterlimit:4;stroke-dasharray:none;stroke-dashoffset:0;stroke-opacity:1" id="rect4486" width="62.644" height="3.791" x="29.327" y="947.025" ry=".848"/><rect id="rect4488" width="62.644" height="3.791" x="29.327" y="957.025" ry=".848" style="opacity:1;fill:#08a;fill-opacity:1;stroke:none;stroke-width:2;stroke-linecap:round;stroke-linejoin:round;stroke-miterlimit:4;stroke-dasharray:none;stroke-dashoffset:0;stroke-opacity:1"/></g></g></g></svg>