<svg xmlns="http://www.w3.org/2000/svg" xmlns:svg="http://www.w3.org/2000/svg" id="svg2" width="24" height="24" version="1.1" viewBox="0 0 24 24"><metadata id="metadata16"/><rect style="opacity:1;fill:#f9f9f9;fill-opacity:1;stroke:none;stroke-width:2;stroke-linecap:round;stroke-linejoin:round;stroke-miterlimit:4;stroke-dasharray:none;stroke-dashoffset:0;stroke-opacity:1" id="rect4144" width="24" height="24" x=".115" y=".015"/><path id="path4156" d="m 14.974917,17.068064 c -0.08463,-0.893441 -0.05218,-1.516966 -0.05218,-2.333368 0.423185,-0.212276 1.181439,-1.56574 1.309555,-2.709146 0.33275,-0.02605 0.857384,-0.336426 1.011006,-1.56186 C 17.326199,9.8058023 16.996928,9.4355662 16.79635,9.3191751 17.337796,7.7623035 18.462425,2.9459204 14.716368,2.4482089 14.330864,1.8008517 13.343626,1.4732933 12.060737,1.4732933 6.9280266,1.5636348 6.3089012,5.1789706 7.4341093,9.3191751 7.234111,9.4355662 6.9048384,9.8058023 6.9871565,10.46369 c 0.1542016,1.225434 0.6782553,1.535811 1.0110062,1.56186 0.1275351,1.142852 0.9159345,2.49687 1.3402785,2.709146 0,0.816402 0.03189,1.439927 -0.05275,2.333368 -1.0156435,2.610491 -7.8683409,1.87778 -8.18486,6.912535 l 22.0288048,0 c -0.31594,-5.034755 -7.139073,-4.302044 -8.154716,-6.912535 z" style="fill:#34495e;fill-opacity:1"/></svg>