<svg xmlns="http://www.w3.org/2000/svg" xmlns:svg="http://www.w3.org/2000/svg" xmlns:xlink="http://www.w3.org/1999/xlink" id="svg2566" width="128" height="128" version="1.0" viewBox="0 0 128 128"><metadata id="metadata96"/><defs id="defs2568"><linearGradient id="linearGradient3510"><stop id="stop3512" offset="0" style="stop-color:#fff;stop-opacity:1"/><stop id="stop3514" offset="1" style="stop-color:#fff;stop-opacity:0"/></linearGradient><linearGradient id="linearGradient3498"><stop id="stop3500" offset="0" style="stop-color:#3465a4;stop-opacity:1"/><stop id="stop3502" offset="1" style="stop-color:#3465a4;stop-opacity:0"/></linearGradient><linearGradient id="linearGradient3281"><stop id="stop3283" offset="0" style="stop-color:#fff;stop-opacity:1"/><stop id="stop3285" offset="1" style="stop-color:#fff;stop-opacity:0"/></linearGradient><linearGradient id="linearGradient4099"><stop id="stop4101" offset="0" style="stop-color:#6f726f;stop-opacity:1"/><stop id="stop4103" offset="1" style="stop-color:#6f726f;stop-opacity:0"/></linearGradient><linearGradient id="linearGradient4068"><stop id="stop4070" offset="0" style="stop-color:#eaeae9;stop-opacity:1"/><stop id="stop4072" offset="1" style="stop-color:#a5a7a2;stop-opacity:1"/></linearGradient><linearGradient id="linearGradient3670"><stop id="stop3672" offset="0" style="stop-color:#d3d7cf"/><stop id="stop3674" offset="1" style="stop-color:#555753"/></linearGradient><radialGradient id="radialGradient3634" cx="6.88" cy="7.199" r="9.375" fx="6.88" fy="7.199" gradientTransform="matrix(1.240749,0,0,1.157631,-1.713645,-1.134736)" gradientUnits="userSpaceOnUse" xlink:href="#linearGradient3670"/><linearGradient id="linearGradient3692"><stop id="stop3694" offset="0" style="stop-color:#2e3436;stop-opacity:1"/><stop id="stop3696" offset="1" style="stop-color:#babdb6"/></linearGradient><linearGradient id="linearGradient3698" x1="-.52" x2="-.52" y1="-.52" y2="19.27" gradientUnits="userSpaceOnUse" xlink:href="#linearGradient3692"/><linearGradient id="linearGradient3628"><stop id="stop3630" offset="0" style="stop-color:#d3d7cf"/><stop id="stop3632" offset="1" style="stop-color:#555753"/></linearGradient><radialGradient id="radialGradient3644" cx="12.705" cy="13.847" r="9.375" fx="12.705" fy="13.847" gradientTransform="matrix(0.06370852,-1.424475,1.547293,0.0692112,-9.530629,30.98681)" gradientUnits="userSpaceOnUse" xlink:href="#linearGradient3628"/><linearGradient id="linearGradient3730"><stop id="stop3732" offset="0" style="stop-color:#eeeeec"/><stop id="stop3734" offset="1" style="stop-color:#888a85"/></linearGradient><radialGradient id="radialGradient3728" cx="-1.002" cy=".99" r="9.921" fx="-1.002" fy=".99" gradientTransform="matrix(-0.310032,2.110862,-2.082775,-0.305867,17.75288,16.41459)" gradientUnits="userSpaceOnUse" xlink:href="#linearGradient3730"/><linearGradient id="linearGradient1557"><stop id="stop1559" offset="0" style="stop-color:#2e3436;stop-opacity:1"/><stop id="stop1561" offset="1" style="stop-color:#888a85"/></linearGradient><linearGradient id="linearGradient1549" x1="17.063" x2="20.313" y1="34.95" y2="5.375" gradientUnits="userSpaceOnUse" xlink:href="#linearGradient1557"/><linearGradient id="linearGradient3676"><stop id="stop4022" offset="0" style="stop-color:#eeeeec"/><stop id="stop3680" offset="1" style="stop-color:#555753"/></linearGradient><radialGradient id="radialGradient3702" cx="-1.002" cy=".99" r="9.921" fx="-1.002" fy=".99" gradientTransform="matrix(-0.127582,1.416065,-1.630141,-0.146854,17.48751,15.56121)" gradientUnits="userSpaceOnUse" xlink:href="#linearGradient3676"/><linearGradient id="linearGradient3788"><stop id="stop3790" offset="0" style="stop-color:#cccdcb;stop-opacity:1"/><stop id="stop3792" offset="1" style="stop-color:#888a85;stop-opacity:1"/></linearGradient><linearGradient id="linearGradient3674"><stop id="stop3676" offset="0" style="stop-color:#fff;stop-opacity:0"/><stop id="stop3678" offset="1" style="stop-color:#fff;stop-opacity:1"/></linearGradient><linearGradient id="linearGradient3657"><stop id="stop3659" offset="0" style="stop-color:#fafafa;stop-opacity:1"/><stop id="stop3661" offset="1" style="stop-color:#bfbfbf;stop-opacity:1"/></linearGradient><linearGradient id="linearGradient3609"><stop id="stop3611" offset="0" style="stop-color:#000;stop-opacity:1"/><stop id="stop3613" offset="1" style="stop-color:#000;stop-opacity:0"/></linearGradient><linearGradient id="linearGradient4585" x1="56.303" x2="56.609" y1="4.937" y2="8.68" gradientTransform="matrix(4.4611255,0,0,4.4611255,-215.94246,23.775709)" gradientUnits="userSpaceOnUse" xlink:href="#linearGradient4608"/><linearGradient id="linearGradient4641" x1="58.016" x2="57.954" y1="35.015" y2="40.999" gradientTransform="matrix(0.997993,0,0,1,-97.71685,-9.352993)" gradientUnits="userSpaceOnUse" spreadMethod="reflect" xlink:href="#linearGradient4608"/><linearGradient id="linearGradient4608"><stop id="stop4610" offset="0" style="stop-color:#eeeeec"/><stop id="stop4612" offset="1" style="stop-color:#8a8c87;stop-opacity:1"/></linearGradient><radialGradient id="radialGradient3615" cx="6.408" cy="17.404" r="5.524" fx="6.408" fy="17.404" gradientTransform="matrix(7.3143547,0,0,3.989648,-5.4983517,12.909402)" gradientUnits="userSpaceOnUse" xlink:href="#linearGradient3609"/><linearGradient id="linearGradient3668" x1="10.438" x2="10.438" y1="8.29" y2="18.985" gradientTransform="translate(-64.70027,0)" gradientUnits="userSpaceOnUse" xlink:href="#linearGradient3657"/><radialGradient id="radialGradient3680" cx="5.082" cy="12.516" r="2.983" fx="5.082" fy="12.516" gradientTransform="matrix(3.8458078,0,-3.7315016e-8,4.4587336,6.5267879,12.165891)" gradientUnits="userSpaceOnUse" xlink:href="#linearGradient3674"/><linearGradient id="linearGradient3794" x1="8.054" x2="10.438" y1="11.03" y2="11.03" gradientTransform="translate(-64.70027,0)" gradientUnits="userSpaceOnUse" xlink:href="#linearGradient3788"/><linearGradient id="linearGradient4095" x1="7.576" x2="7.322" y1="20.302" y2="27.345" gradientUnits="userSpaceOnUse" xlink:href="#linearGradient4068"/><linearGradient id="linearGradient4097" x1="7.576" x2="7.322" y1="20.302" y2="27.345" gradientUnits="userSpaceOnUse" xlink:href="#linearGradient4068"/><linearGradient id="linearGradient4105" x1="11.126" x2="9.347" y1="25.56" y2="25.737" gradientTransform="matrix(3.267068,0,0,3.267068,-5.8152962,-21.586126)" gradientUnits="userSpaceOnUse" xlink:href="#linearGradient4099"/><linearGradient id="linearGradient3287" x1="4.683" x2="8.371" y1="24.665" y2="24.317" gradientUnits="userSpaceOnUse" xlink:href="#linearGradient3281"/><radialGradient id="radialGradient3504" cx="36.828" cy="24.428" r="1.24" fx="36.828" fy="24.428" gradientTransform="matrix(33.771851,-1.0380269e-5,1.7219594e-5,56.02335,-1144.2052,-1310.0735)" gradientUnits="userSpaceOnUse" xlink:href="#linearGradient3498"/><radialGradient id="radialGradient3506" cx="36.828" cy="24.428" r="1.24" fx="36.828" fy="24.428" gradientTransform="matrix(53.169249,0,0,56.023199,-1858.5804,-1310.0705)" gradientUnits="userSpaceOnUse" xlink:href="#linearGradient3498"/><radialGradient id="radialGradient3508" cx="36.828" cy="24.428" r="1.24" fx="36.828" fy="24.428" gradientTransform="matrix(33.771851,-1.0380269e-5,1.7219594e-5,56.02335,-1144.2052,-1310.0735)" gradientUnits="userSpaceOnUse" xlink:href="#linearGradient3498"/><linearGradient id="linearGradient3516" x1="9.486" x2="7.378" y1="22.108" y2="22.638" gradientTransform="matrix(2.5205338,0,0,2.5205338,6.7325386,-3.1243099)" gradientUnits="userSpaceOnUse" xlink:href="#linearGradient3510"/><filter id="filter5198"><feGaussianBlur id="feGaussianBlur5200" stdDeviation="1.124"/></filter><linearGradient id="linearGradient5613" x1="64" x2="64" y1="-1.178" y2="99.458" gradientTransform="matrix(0.45718256,0,0,0.45718256,-125.85122,67.08849)" gradientUnits="userSpaceOnUse" xlink:href="#XMLID_4_"/><linearGradient id="XMLID_4_" x1="64" x2="64" y1="-1.178" y2="99.458" gradientTransform="matrix(-1,0,0,-1,128,128)" gradientUnits="userSpaceOnUse"><stop id="stop105" offset="0" style="stop-color:#0053bd;stop-opacity:1"/><stop id="stop107" offset="1" style="stop-color:#00008d;stop-opacity:1"/><midPointStop style="stop-color:#00008d" id="midPointStop109" offset="0"/><midPointStop style="stop-color:#00008d" id="midPointStop111" offset=".5"/><midPointStop style="stop-color:#0053bd" id="midPointStop113" offset="1"/></linearGradient><radialGradient id="radialGradient5615" cx="323.325" cy="388.165" r="49.622" fx="323.325" fy="388.165" gradientTransform="matrix(-0.95919902,0.62734453,-0.48564594,-0.74254472,390.95468,162.6776)" gradientUnits="userSpaceOnUse" xlink:href="#radialGradient4602"/><radialGradient id="radialGradient4602" cx="27.576" cy="107.817" r="115.483" fx="27.576" fy="107.817" gradientTransform="matrix(1,0,0,1.0565,0,-0.544571)" gradientUnits="userSpaceOnUse"><stop id="stop4604" offset="0" style="stop-color:#fff;stop-opacity:1"/><stop id="stop4606" offset=".057" style="stop-color:#def;stop-opacity:1"/><stop id="stop4608" offset=".133" style="stop-color:#b5daff;stop-opacity:1"/><stop id="stop4610-6" offset=".193" style="stop-color:#9dceff;stop-opacity:1"/><stop id="stop4612-8" offset=".23" style="stop-color:#94caff;stop-opacity:1"/><stop id="stop4614" offset=".596" style="stop-color:#0b74ff;stop-opacity:1"/><stop id="stop4616" offset=".815" style="stop-color:#0035ed;stop-opacity:1"/><midPointStop style="stop-color:#fff" id="midPointStop134" offset="0"/><midPointStop style="stop-color:#fff" id="midPointStop136" offset=".4"/><midPointStop style="stop-color:#94caff" id="midPointStop138" offset=".23"/><midPointStop style="stop-color:#94caff" id="midPointStop140" offset=".5"/><midPointStop style="stop-color:#0b74ff" id="midPointStop142" offset=".596"/><midPointStop style="stop-color:#0b74ff" id="midPointStop144" offset=".5"/><midPointStop style="stop-color:#0035ed" id="midPointStop146" offset=".815"/></radialGradient><linearGradient id="linearGradient5617" x1="62.342" x2="62.342" y1="16.279" y2="63.596" gradientTransform="matrix(0.45718256,0,0,-0.45718256,-124.33546,125.60786)" gradientUnits="userSpaceOnUse" xlink:href="#linearGradient4619"/><linearGradient id="linearGradient4619" x1="62.342" x2="62.342" y1="8.826" y2="61.277" gradientUnits="userSpaceOnUse"><stop id="stop4621" offset="0" style="stop-color:#fff;stop-opacity:1"/><stop id="stop4623" offset="1" style="stop-color:#74aeff;stop-opacity:1"/><midPointStop style="stop-color:#fff" id="midPointStop157" offset="0"/><midPointStop style="stop-color:#fff" id="midPointStop159" offset=".5"/><midPointStop style="stop-color:#74aeff" id="midPointStop161" offset="1"/></linearGradient></defs><g id="g5016" transform="matrix(1.0401956,0,0,1.0401956,-4.9989033,-0.67436429)"><g id="g4090" transform="matrix(3.2670705,0,0,3.2670705,-3.7939087,-21.586129)"><path id="path4076" d="m 12.374369,24.665476 a 3.6239225,6.3639616 0 1 1 -7.247845,0 3.6239225,6.3639616 0 1 1 7.247845,0 z" transform="matrix(1.415965,0,0,1.258558,-2.667614,-6.200669)" style="color:#000;display:inline;overflow:visible;visibility:visible;opacity:1;fill:url(#linearGradient4095);fill-opacity:1;fill-rule:nonzero;stroke:#5d615f;stroke-width:.57792485;stroke-linecap:round;stroke-linejoin:round;stroke-miterlimit:4;stroke-dasharray:none;stroke-dashoffset:0;stroke-opacity:1;marker:none;marker-start:none;marker-mid:none;marker-end:none"/><path id="path4060" d="m 12.374369,24.665476 a 3.6239225,6.3639616 0 1 1 -7.247845,0 3.6239225,6.3639616 0 1 1 7.247845,0 z" transform="matrix(1.154526,0,0,1.154526,-0.379902,-3.63468)" style="color:#000;display:inline;overflow:visible;visibility:visible;opacity:1;fill:url(#linearGradient4097);fill-opacity:1;fill-rule:nonzero;stroke:none;stroke-width:.86615634;stroke-linecap:round;stroke-linejoin:round;stroke-miterlimit:4;stroke-dasharray:none;stroke-dashoffset:0;stroke-opacity:1;marker:none;marker-start:none;marker-mid:none;marker-end:none"/><path id="path4058" d="m 12.374369,24.665476 a 3.6239225,6.3639616 0 1 1 -7.247845,0 3.6239225,6.3639616 0 1 1 7.247845,0 z" transform="matrix(1.081355,0,0,1.081355,1.232653,-1.829889)" style="color:#000;display:inline;overflow:visible;visibility:visible;opacity:1;fill:#93958f;fill-opacity:1;fill-rule:nonzero;stroke:none;stroke-width:.86615634;stroke-linecap:round;stroke-linejoin:round;stroke-miterlimit:4;stroke-dasharray:none;stroke-dashoffset:0;stroke-opacity:1;marker:none;marker-start:none;marker-mid:none;marker-end:none"/><path id="path3279" d="m 12.374369,24.665476 a 3.6239225,6.3639616 0 1 1 -7.247845,0 3.6239225,6.3639616 0 1 1 7.247845,0 z" transform="matrix(1.1807,0,0,1.076971,-0.608944,-1.721744)" style="color:#000;display:inline;overflow:visible;visibility:visible;opacity:.39560439;fill:none;fill-opacity:1;fill-rule:nonzero;stroke:url(#linearGradient3287);stroke-width:.68416733;stroke-linecap:round;stroke-linejoin:round;stroke-miterlimit:4;stroke-dasharray:none;stroke-dashoffset:0;stroke-opacity:1;marker:none;marker-start:none;marker-mid:none;marker-end:none"/></g><path id="path4542" d="M 30.628912,42.856805 48.498709,27.420529 47.921166,90.642683 29.762599,76.71659 c -6.35296,-5.197883 -7.508044,-28.373137 0.866313,-33.859785 z" style="color:#000;display:inline;overflow:visible;visibility:visible;fill:url(#linearGradient4585);fill-opacity:1;fill-rule:evenodd;stroke:url(#linearGradient4105);stroke-width:2.52053452;stroke-linecap:round;stroke-linejoin:miter;stroke-miterlimit:4;stroke-dashoffset:0;stroke-opacity:1;marker:none;marker-start:none;marker-mid:none;marker-end:none"/><path id="path4544" d="m 25.733206,52.295809 10.220677,-7.659956 -0.634201,8.912794 -9.99006,1.666063 0.403584,-2.918901 z" style="color:#000;display:inline;overflow:visible;visibility:visible;fill:url(#linearGradient3516);fill-opacity:1;fill-rule:evenodd;stroke:none;stroke-width:1;stroke-linecap:round;stroke-linejoin:miter;stroke-miterlimit:4;stroke-dashoffset:0;stroke-opacity:1;marker:none;marker-start:none;marker-mid:none;marker-end:none"/><path id="path3672" d="m 27.409778,73.427271 11.193199,8.994124 -1.403496,-6.119586 -11.28293,-6.308239 1.493227,3.433701 z" style="color:#000;display:inline;overflow:visible;visibility:visible;opacity:.7692308;fill:url(#radialGradient3680);fill-opacity:1;fill-rule:nonzero;stroke:none;stroke-width:1;stroke-linecap:round;stroke-linejoin:round;stroke-miterlimit:4;stroke-dasharray:none;stroke-dashoffset:0;stroke-opacity:1;marker:none;marker-start:none;marker-mid:none;marker-end:none"/><g id="g4006" transform="matrix(2.7647584,0,0,3.8041686,-3.8964289,-33.668441)" style="display:inline"><path id="path3726" d="M 23.75,14 C 21.81001,14.04917 20.013366,14.683436 18.5,15.6875 18.13319,15.264088 17.60375,15 17,15 c -0.0345,0 -0.08734,8.54e-4 -0.125,0 -0.02799,-2e-4 -0.06855,-0.0026 -0.09375,0 C 15.773145,15.102481 15,15.965001 15,17 c 0,0.60375 0.264088,1.13319 0.6875,1.5 C 14.639107,20.080181 14,21.962011 14,24 c 0,2.033681 0.611921,3.921829 1.65625,5.5 C 15.243427,29.869532 15,30.401641 15,31 c 0,1.104 0.896,2.000001 2,2 0.60375,0 1.13319,-0.264089 1.5,-0.6875 C 20.080181,33.360893 21.962011,34 24,34 c 2.03799,0 3.919819,-0.639107 5.5,-1.6875 0.36681,0.423412 0.896251,0.687501 1.5,0.6875 1.103999,0 2,-0.895999 2,-2 0,-0.60375 -0.264088,-1.13319 -0.6875,-1.5 C 33.360893,27.919819 34,26.03799 34,24 34,21.962011 33.360893,20.080181 32.3125,18.5 32.735912,18.13319 33,17.60375 33,17 c 0,-1.104 -0.896001,-2 -2,-2 -0.0345,0 -0.08734,8.54e-4 -0.125,0 -0.02799,-2e-4 -0.06855,-0.0026 -0.09375,0 -0.504052,0.05124 -0.961951,0.298435 -1.28125,0.65625 -0.0067,-0.0044 -0.02455,0.0044 -0.03125,0 C 27.894622,14.620029 26.025064,14 24,14 c -0.08617,0 -0.164349,-0.0022 -0.25,0 z" style="color:#000;display:inline;overflow:visible;visibility:visible;opacity:1;fill:url(#radialGradient3702);fill-opacity:1;fill-rule:evenodd;stroke:url(#linearGradient1549);stroke-width:1.47668338;stroke-linecap:round;stroke-linejoin:miter;stroke-miterlimit:4;stroke-dasharray:none;stroke-dashoffset:0;stroke-opacity:1;marker:none;marker-start:none;marker-mid:none;marker-end:none"/><path id="path3507" d="M 23.75,14 C 21.81001,14.04917 20.013366,14.683436 18.5,15.6875 18.13319,15.264088 17.60375,15 17,15 c -0.0345,0 -0.08734,8.54e-4 -0.125,0 -0.02799,-2e-4 -0.06855,-0.0026 -0.09375,0 C 15.773145,15.102481 15,15.965001 15,17 c 0,0.60375 0.264088,1.13319 0.6875,1.5 C 14.639107,20.080181 14,21.962011 14,24 c 0,2.033681 0.611921,3.921829 1.65625,5.5 C 15.243427,29.869532 15,30.401641 15,31 c 0,1.104 0.896,2.000001 2,2 0.60375,0 1.13319,-0.264089 1.5,-0.6875 C 20.080181,33.360893 21.962011,34 24,34 c 2.03799,0 3.919819,-0.639107 5.5,-1.6875 0.36681,0.423412 0.896251,0.687501 1.5,0.6875 1.103999,0 2,-0.895999 2,-2 0,-0.60375 -0.264088,-1.13319 -0.6875,-1.5 C 33.360893,27.919819 34,26.03799 34,24 34,21.962011 33.360893,20.080181 32.3125,18.5 32.735912,18.13319 33,17.60375 33,17 c 0,-1.104 -0.896001,-2 -2,-2 -0.0345,0 -0.08734,8.54e-4 -0.125,0 -0.02799,-2e-4 -0.06855,-0.0026 -0.09375,0 -0.504052,0.05124 -0.961951,0.298435 -1.28125,0.65625 -0.0067,-0.0044 -0.02455,0.0044 -0.03125,0 C 27.894622,14.620029 26.025064,14 24,14 c -0.08617,0 -0.164349,-0.0022 -0.25,0 z" style="color:#000;display:inline;overflow:visible;visibility:visible;opacity:1;fill:url(#radialGradient3728);fill-opacity:1;fill-rule:evenodd;stroke:none;stroke-width:1.09104455;stroke-linecap:round;stroke-linejoin:miter;stroke-miterlimit:4;stroke-dasharray:none;stroke-dashoffset:0;stroke-opacity:1;marker:none;marker-start:none;marker-mid:none;marker-end:none"/><path id="path3636" d="m 18.75,9.375 a 9.375,9.375 0 1 1 -18.75,0 9.375,9.375 0 1 1 18.75,0 z" transform="matrix(0.846982,0,0,0.911415,16.71027,15.44956)" style="color:#000;display:inline;overflow:visible;visibility:visible;opacity:1;fill:url(#radialGradient3644);fill-opacity:1;fill-rule:evenodd;stroke:url(#linearGradient3698);stroke-width:.8383193;stroke-linecap:round;stroke-linejoin:miter;stroke-miterlimit:4;stroke-dasharray:none;stroke-dashoffset:0;stroke-opacity:1;marker:none;marker-start:none;marker-mid:none;marker-end:none"/><path id="path3519" d="m 18.75,9.375 a 9.375,9.375 0 1 1 -18.75,0 9.375,9.375 0 1 1 18.75,0 z" transform="matrix(0.367272,0,0,0.32,18.56254,21.125)" style="color:#000;display:inline;overflow:visible;visibility:visible;opacity:1;fill:url(#radialGradient3634);fill-opacity:1;fill-rule:evenodd;stroke:none;stroke-width:6.57905483;stroke-linecap:round;stroke-linejoin:miter;stroke-miterlimit:4;stroke-dasharray:none;stroke-dashoffset:0;stroke-opacity:1;marker:none;marker-start:none;marker-mid:none;marker-end:none"/><path id="path3718" d="m 17,16.5 a 0.5,0.5 0 1 1 -1,0 0.5,0.5 0 1 1 1,0 z" transform="matrix(1.3125,0,0,1.3125,-4.657679,-5.09375)" style="color:#000;display:inline;overflow:visible;visibility:visible;opacity:1;fill:#2e3436;fill-opacity:1;fill-rule:evenodd;stroke:none;stroke-width:1.10000002;stroke-linecap:round;stroke-linejoin:miter;stroke-miterlimit:4;stroke-dasharray:none;stroke-dashoffset:0;stroke-opacity:1;marker:none;marker-start:none;marker-mid:none;marker-end:none"/><path id="path3720" d="m 17,16.5 a 0.5,0.5 0 1 1 -1,0 0.5,0.5 0 1 1 1,0 z" transform="translate(15.22159,0.25)" style="color:#000;display:inline;overflow:visible;visibility:visible;opacity:1;fill:#2e3436;fill-opacity:1;fill-rule:evenodd;stroke:none;stroke-width:1.10000002;stroke-linecap:round;stroke-linejoin:miter;stroke-miterlimit:4;stroke-dasharray:none;stroke-dashoffset:0;stroke-opacity:1;marker:none;marker-start:none;marker-mid:none;marker-end:none"/><path id="path3722" d="m 17,16.5 a 0.5,0.5 0 1 1 -1,0 0.5,0.5 0 1 1 1,0 z" transform="translate(15.22159,14.96875)" style="color:#000;display:inline;overflow:visible;visibility:visible;opacity:1;fill:#2e3436;fill-opacity:1;fill-rule:evenodd;stroke:none;stroke-width:1.10000002;stroke-linecap:round;stroke-linejoin:miter;stroke-miterlimit:4;stroke-dasharray:none;stroke-dashoffset:0;stroke-opacity:1;marker:none;marker-start:none;marker-mid:none;marker-end:none"/><path id="path3724" d="m 17,16.5 a 0.5,0.5 0 1 1 -1,0 0.5,0.5 0 1 1 1,0 z" transform="matrix(1.375,0,0,1.375,-5.688929,8.8125)" style="color:#000;display:inline;overflow:visible;visibility:visible;opacity:1;fill:#2e3436;fill-opacity:1;fill-rule:evenodd;stroke:none;stroke-width:1.10000002;stroke-linecap:round;stroke-linejoin:miter;stroke-miterlimit:4;stroke-dasharray:none;stroke-dashoffset:0;stroke-opacity:1;marker:none;marker-start:none;marker-mid:none;marker-end:none"/></g><path id="path3488" d="m 97.693399,79.714727 c 2.311991,-5.456361 3.732881,-13.001122 3.732881,-21.268236 0,-8.267114 -1.42089,-15.811876 -3.732881,-21.268237" style="color:#000;display:inline;overflow:visible;visibility:visible;opacity:1;fill:none;fill-opacity:1;fill-rule:evenodd;stroke:url(#radialGradient3504);stroke-width:2.52053332;stroke-linecap:round;stroke-linejoin:miter;stroke-miterlimit:4;stroke-dasharray:none;stroke-dashoffset:0;stroke-opacity:1;marker:none;marker-start:none;marker-mid:none;marker-end:none"/><path id="path3494" d="m 107.14796,86.865691 c 3.08935,-7.290942 4.98799,-17.372464 4.98799,-28.419213 0,-11.046748 -1.89864,-21.128271 -4.98799,-28.419213" style="color:#000;display:inline;overflow:visible;visibility:visible;opacity:1;fill:none;fill-opacity:1;fill-rule:evenodd;stroke:url(#radialGradient3508);stroke-width:2.52053332;stroke-linecap:round;stroke-linejoin:miter;stroke-miterlimit:4;stroke-dasharray:none;stroke-dashoffset:0;stroke-opacity:1;marker:none;marker-start:none;marker-mid:none;marker-end:none"/><path id="path3496" d="m 116.34414,96.961182 c 4.18679,-9.880941 6.75989,-23.543772 6.75989,-38.514714 0,-14.97094 -2.5731,-28.633773 -6.75989,-38.514712" style="color:#000;display:inline;overflow:visible;visibility:visible;opacity:1;fill:none;fill-opacity:1;fill-rule:evenodd;stroke:url(#radialGradient3506);stroke-width:2.52053332;stroke-linecap:round;stroke-linejoin:miter;stroke-miterlimit:4;stroke-dasharray:none;stroke-dashoffset:0;stroke-opacity:1;marker:none;marker-start:none;marker-mid:none;marker-end:none"/></g><g id="g5011" transform="matrix(1.1497058,0,0,1.1497058,143.55141,-13.252908)"><path style="fill:url(#linearGradient5613)" id="path116" d="m -122.85632,95.518191 c 0.30852,0.910354 1.12421,1.517996 2.03813,1.517996 l 7.62164,0 0,19.177113 c 0,2.82345 2.16269,5.11249 4.83123,5.11249 l 25.063785,0 c 2.668533,0 4.831223,-2.28904 4.831223,-5.11249 l 0,-19.177113 6.104547,0 c 0.91436,0 1.730503,-0.607642 2.039015,-1.517996 0.308505,-0.910794 0.04333,-1.92918 -0.663004,-2.542623 L -95.215073,71.892485 c -0.79962,-0.696042 -1.952402,-0.695153 -2.752022,0 L -122.1933,92.975568 c -0.70632,0.614333 -0.97152,1.631829 -0.66302,2.542623 z"/><path style="fill:url(#radialGradient5615);fill-opacity:1" id="path149" d="m -111.03118,94.74491 c 0,7.22675 0,21.46839 0,21.46839 0,1.55549 1.19653,2.821 2.66586,2.821 l 25.063785,0 c 1.470213,0 2.665849,-1.26551 2.665849,-2.821 0,0 0,-15.14842 0,-21.46839 l 8.269921,0 -24.225319,-21.083074 -24.227106,21.083074 9.78701,0 z"/><path style="fill:url(#linearGradient5617);fill-opacity:1" id="path164" d="m -100.83208,97.559443 c 6.582715,3.467497 12.513145,7.319837 19.374,8.597177 l 0,10.36183 c 0,0.90812 -0.827297,1.64703 -1.843904,1.64703 l -25.063786,0 c -1.01661,0 -1.84346,-0.73891 -1.84346,-1.64703 l 0,-18.724608 c 3.02883,-1.384276 6.31929,-1.791895 9.37715,-0.234399 z"/></g></svg>