<svg xmlns="http://www.w3.org/2000/svg" xmlns:svg="http://www.w3.org/2000/svg" xmlns:xlink="http://www.w3.org/1999/xlink" id="svg11300" width="128" height="128" version="1.1" viewBox="0 0 128 128"><metadata id="metadata3459"/><defs id="defs3"><linearGradient id="linearGradient4449"><stop style="stop-color:#3aae52;stop-opacity:1" id="stop4451" offset="0"/><stop style="stop-color:teal;stop-opacity:1" id="stop4453" offset="1"/></linearGradient><radialGradient id="radialGradient6719" cx="605.714" cy="486.648" r="117.143" fx="605.714" fy="486.648" gradientTransform="matrix(-2.774389,0,0,1.969706,112.7623,-872.8854)" gradientUnits="userSpaceOnUse" xlink:href="#linearGradient5060"/><linearGradient id="linearGradient5060"><stop id="stop5062" offset="0" style="stop-color:black;stop-opacity:1"/><stop id="stop5064" offset="1" style="stop-color:black;stop-opacity:0"/></linearGradient><radialGradient id="radialGradient6717" cx="605.714" cy="486.648" r="117.143" fx="605.714" fy="486.648" gradientTransform="matrix(2.774389,0,0,1.969706,-1891.633,-872.8854)" gradientUnits="userSpaceOnUse" xlink:href="#linearGradient5060"/><linearGradient id="linearGradient5048"><stop id="stop5050" offset="0" style="stop-color:black;stop-opacity:0"/><stop id="stop5056" offset=".5" style="stop-color:black;stop-opacity:1"/><stop id="stop5052" offset="1" style="stop-color:black;stop-opacity:0"/></linearGradient><linearGradient id="linearGradient6715" x1="302.857" x2="302.857" y1="366.648" y2="609.505" gradientTransform="matrix(2.774389,0,0,1.969706,-1892.179,-872.8854)" gradientUnits="userSpaceOnUse" xlink:href="#linearGradient5048"/><linearGradient id="linearGradient11520"><stop id="stop11522" offset="0" style="stop-color:#fff;stop-opacity:1"/><stop id="stop11524" offset="1" style="stop-color:#dcdcdc;stop-opacity:1"/></linearGradient><linearGradient id="linearGradient11508"><stop id="stop11510" offset="0" style="stop-color:#000;stop-opacity:1"/><stop id="stop11512" offset="1" style="stop-color:#000;stop-opacity:0"/></linearGradient><radialGradient id="radialGradient1348" cx="30.204" cy="44.565" r="6.566" fx="30.204" fy="44.565" gradientTransform="matrix(1.000000,0.000000,0.000000,0.338462,-1.435476e-15,29.48178)" gradientUnits="userSpaceOnUse" xlink:href="#linearGradient11508"/><radialGradient id="radialGradient1366" cx="24.446" cy="35.878" r="20.531" fx="24.446" fy="35.878" gradientTransform="matrix(1.995058,0,0,1.995058,-24.770571,-35.255176)" gradientUnits="userSpaceOnUse" xlink:href="#linearGradient11520"/><linearGradient id="linearGradient4455" x1="40.017" x2="22.183" y1="3.06" y2="31.343" gradientTransform="matrix(1.213132,0,0,1.213132,-5.5995346,-4.4868621)" gradientUnits="userSpaceOnUse" xlink:href="#linearGradient4449"/></defs><g id="g4559" transform="scale(2.6479043,2.6479043)"><rect id="rect4463" width="47.901" height="47.901" x=".049" y=".049" rx="0" ry="0" style="opacity:0;fill:#3aae52;fill-opacity:1;stroke:#d4d4d4;stroke-width:.09853212;stroke-linecap:round;stroke-linejoin:round;stroke-miterlimit:4;stroke-dasharray:none;stroke-dashoffset:0;stroke-opacity:0"/><path id="path3639" d="m 17.382725,21.435215 8.602616,-8.877391 -6.044721,-6.0447215 20.758142,0 0,20.7679365 -6.083001,-6.083002 -8.112301,8.112301 c -0.852306,0.871547 -2.207092,1.222807 -3.533821,0.295094 l -5.171373,-4.535238 c -1.084485,-0.965269 -1.225234,-2.649991 -0.415541,-3.634979 z" style="fill:url(#linearGradient4455);fill-opacity:1;fill-rule:evenodd;stroke:none;stroke-width:.40000001;stroke-linecap:butt;stroke-linejoin:miter;stroke-miterlimit:4;stroke-dasharray:none;stroke-opacity:1"/><path id="rect4441" d="m 11.436509,12.603353 c -2.5833404,-1e-6 -4.6637438,2.078329 -4.6637438,4.66167 l 0,18.735895 c 0,2.583339 2.0804034,4.663743 4.6637438,4.663743 l 18.217238,0 c 2.583342,0 4.663745,-2.080404 4.663745,-4.663743 l 0,-9.777686 -3.116079,2.535186 0,5.124311 c 0,1.998902 -1.608862,3.607764 -3.607764,3.607764 l -14.097045,0 c -1.998899,0 -3.607761,-1.608862 -3.607761,-3.607764 l 0,-14.497444 c 0,-1.998902 1.608862,-3.607764 3.607761,-3.607764 l 5.559985,0 2.935586,-3.174168 -10.555666,0 z" style="opacity:1;fill:teal;fill-opacity:1;stroke:none;stroke-width:.10254168;stroke-linecap:round;stroke-linejoin:round;stroke-miterlimit:4;stroke-dasharray:none;stroke-dashoffset:0;stroke-opacity:1"/></g></svg>