<svg xmlns="http://www.w3.org/2000/svg" xmlns:svg="http://www.w3.org/2000/svg" xmlns:xlink="http://www.w3.org/1999/xlink" id="svg2" width="128" height="128" version="1.1" viewBox="0 0 128 128"><defs id="defs4"><linearGradient id="linearGradient5305"><stop style="stop-color:#2b2b2b;stop-opacity:1" id="stop5307" offset="0"/><stop id="stop5313" offset=".183" style="stop-color:#5d5d5d;stop-opacity:1"/><stop style="stop-color:#686860;stop-opacity:1" id="stop5315" offset=".33"/><stop style="stop-color:#929483;stop-opacity:1" id="stop5309" offset="1"/></linearGradient><linearGradient id="linearGradient5293"><stop style="stop-color:#045;stop-opacity:1" id="stop5295" offset="0"/><stop style="stop-color:#00222b;stop-opacity:1" id="stop5297" offset="1"/></linearGradient><linearGradient id="linearGradient44667" x1="517.022" x2="517.022" y1="705.484" y2="745.301" gradientTransform="matrix(0.92690123,0,0,0.92690123,-421.47612,313.824)" gradientUnits="userSpaceOnUse" xlink:href="#linearGradient3219"/><linearGradient id="linearGradient3219"><stop id="stop3221" offset="0" style="stop-color:#0e7309;stop-opacity:1"/><stop id="stop3223" offset="1" style="stop-color:#70d13e;stop-opacity:1"/></linearGradient><filter id="filter3297"><feGaussianBlur id="feGaussianBlur3299" stdDeviation=".267"/></filter><filter id="filter3293"><feGaussianBlur id="feGaussianBlur3295" stdDeviation=".355"/></filter><linearGradient id="linearGradient44076" x1="83.281" x2="83.281" y1="123.098" y2="66.311" gradientTransform="matrix(0.92690123,0,0,0.92690123,32.712818,920.77688)" gradientUnits="userSpaceOnUse" xlink:href="#linearGradient44699"/><linearGradient id="linearGradient44699"><stop id="stop44701" offset="0" style="stop-color:#000173;stop-opacity:.93333334"/><stop id="stop44703" offset="1" style="stop-color:#3575f0;stop-opacity:1"/></linearGradient><radialGradient id="radialGradient44073" cx="491.522" cy="670.925" r="36.427" fx="491.522" fy="670.925" gradientTransform="matrix(0,1.875847,-1.8149226,0,1291.2607,40.750567)" gradientUnits="userSpaceOnUse" xlink:href="#linearGradient44080"/><linearGradient id="linearGradient44080"><stop id="stop44082" offset="0" style="stop-color:#2c8300;stop-opacity:1"/><stop id="stop44084" offset=".25" style="stop-color:#57aeff;stop-opacity:1"/><stop id="stop44086" offset=".5" style="stop-color:#fff;stop-opacity:1"/><stop id="stop44088" offset="1" style="stop-color:#5aafff;stop-opacity:1"/></linearGradient><linearGradient id="linearGradient44070" x1="517.022" x2="517.022" y1="705.484" y2="745.301" gradientTransform="matrix(0.92690123,0,0,0.92690123,-382.12054,330.40235)" gradientUnits="userSpaceOnUse" xlink:href="#linearGradient44090"/><linearGradient id="linearGradient44090"><stop id="stop44092" offset="0" style="stop-color:#0926bb;stop-opacity:1"/><stop id="stop44094" offset="1" style="stop-color:#6bb5fe;stop-opacity:1"/></linearGradient><linearGradient id="linearGradient44067" x1="517.022" x2="517.022" y1="705.484" y2="745.301" gradientTransform="matrix(-0.92690123,0,0,0.92690123,529.43693,330.40235)" gradientUnits="userSpaceOnUse" xlink:href="#linearGradient44090"/><linearGradient id="linearGradient44613" x1="-246.577" x2="-248.777" y1="958.08" y2="964.617" gradientTransform="matrix(0.92690123,0,0,0.92690123,294.53788,102.60792)" gradientUnits="userSpaceOnUse" xlink:href="#linearGradient44615"/><linearGradient id="linearGradient44615"><stop id="stop44617" offset="0" style="stop-color:#2f68fa;stop-opacity:1"/><stop id="stop44619" offset="1" style="stop-color:#c7d5fb;stop-opacity:1"/></linearGradient><linearGradient id="linearGradient44691" x1="-35.567" x2="-35.567" y1="76.563" y2="84.91" gradientTransform="matrix(1.0923022,0,0,0.86351212,114.04292,924.64357)" gradientUnits="userSpaceOnUse" xlink:href="#linearGradient44693"/><linearGradient id="linearGradient44693"><stop id="stop44695" offset="0" style="stop-color:#3690e6;stop-opacity:1"/><stop id="stop44697" offset="1" style="stop-color:#d0e9ff;stop-opacity:1"/></linearGradient><radialGradient id="radialGradient44061" cx="479.683" cy="709.658" r="5.006" fx="479.683" fy="709.658" gradientTransform="matrix(0.79353219,-0.05906808,0.10765754,1.4462923,-394.43436,-10.259638)" gradientUnits="userSpaceOnUse" xlink:href="#linearGradient44605"/><linearGradient id="linearGradient44605"><stop id="stop44607" offset="0" style="stop-color:#d0ecff;stop-opacity:1"/><stop id="stop44609" offset=".5" style="stop-color:#d7f0ff;stop-opacity:1"/><stop id="stop44611" offset="1" style="stop-color:#fff;stop-opacity:1"/></linearGradient><linearGradient id="linearGradient44625" x1="-246.577" x2="-248.777" y1="958.08" y2="964.617" gradientTransform="matrix(-0.92690123,0,0,0.92690123,-147.53305,102.60792)" gradientUnits="userSpaceOnUse" xlink:href="#linearGradient44615"/><radialGradient id="radialGradient44048" cx="53.602" cy="59.729" r="17.834" fx="53.602" fy="59.729" gradientTransform="matrix(0,2.2961363,-2.2730334,0,201.74668,831.00225)" gradientUnits="userSpaceOnUse" xlink:href="#linearGradient44627"/><linearGradient id="linearGradient44627"><stop id="stop44629" offset="0" style="stop-color:#fffcfb;stop-opacity:1"/><stop id="stop44633" offset="1" style="stop-color:#f4ad94;stop-opacity:1"/></linearGradient><linearGradient id="linearGradient44677" x1="60.127" x2="60.127" y1="81.914" y2="47.543" gradientTransform="matrix(1.3866822,0,0,1.3866822,-9.2371007,876.65699)" gradientUnits="userSpaceOnUse" xlink:href="#linearGradient44681"/><linearGradient id="linearGradient44681"><stop id="stop44683" offset="0" style="stop-color:#ff5c38;stop-opacity:1"/><stop id="stop44685" offset=".304" style="stop-color:#fb7e65;stop-opacity:.99607843"/><stop id="stop44687" offset="1" style="stop-color:#cd0000;stop-opacity:.98039216"/></linearGradient><linearGradient id="linearGradient5245" x1="517.022" x2="517.022" y1="705.484" y2="745.301" gradientTransform="matrix(0.92690123,0,0,0.92690123,-421.47612,313.824)" gradientUnits="userSpaceOnUse" xlink:href="#linearGradient3219"/><linearGradient id="linearGradient5247" x1="83.281" x2="83.281" y1="123.098" y2="66.311" gradientTransform="matrix(0.92690123,0,0,0.92690123,32.712818,920.77688)" gradientUnits="userSpaceOnUse" xlink:href="#linearGradient44699"/><radialGradient id="radialGradient5249" cx="491.522" cy="670.925" r="36.427" fx="491.522" fy="670.925" gradientTransform="matrix(0,1.875847,-1.8149226,0,1291.2607,40.750567)" gradientUnits="userSpaceOnUse" xlink:href="#linearGradient44080"/><linearGradient id="linearGradient5251" x1="517.022" x2="517.022" y1="705.484" y2="745.301" gradientTransform="matrix(0.92690123,0,0,0.92690123,-382.12054,330.40235)" gradientUnits="userSpaceOnUse" xlink:href="#linearGradient44090"/><linearGradient id="linearGradient5253" x1="517.022" x2="517.022" y1="705.484" y2="745.301" gradientTransform="matrix(-0.92690123,0,0,0.92690123,529.43693,330.40235)" gradientUnits="userSpaceOnUse" xlink:href="#linearGradient44090"/><linearGradient id="linearGradient5255" x1="-246.577" x2="-248.777" y1="958.08" y2="964.617" gradientTransform="matrix(0.92690123,0,0,0.92690123,294.53788,102.60792)" gradientUnits="userSpaceOnUse" xlink:href="#linearGradient44615"/><linearGradient id="linearGradient5257" x1="-35.567" x2="-35.567" y1="76.563" y2="84.91" gradientTransform="matrix(1.0923022,0,0,0.86351212,114.04292,924.64357)" gradientUnits="userSpaceOnUse" xlink:href="#linearGradient44693"/><radialGradient id="radialGradient5259" cx="479.683" cy="709.658" r="5.006" fx="479.683" fy="709.658" gradientTransform="matrix(0.79353219,-0.05906808,0.10765754,1.4462923,-394.43436,-10.259638)" gradientUnits="userSpaceOnUse" xlink:href="#linearGradient44605"/><linearGradient id="linearGradient5261" x1="-246.577" x2="-248.777" y1="958.08" y2="964.617" gradientTransform="matrix(-0.92690123,0,0,0.92690123,-147.53305,102.60792)" gradientUnits="userSpaceOnUse" xlink:href="#linearGradient44615"/><radialGradient id="radialGradient5263" cx="53.602" cy="59.729" r="17.834" fx="53.602" fy="59.729" gradientTransform="matrix(0,2.2961363,-2.2730334,0,201.74668,831.00225)" gradientUnits="userSpaceOnUse" xlink:href="#linearGradient44627"/><linearGradient id="linearGradient5265" x1="60.127" x2="60.127" y1="81.914" y2="47.543" gradientTransform="matrix(1.3866822,0,0,1.3866822,-9.2371007,876.65699)" gradientUnits="userSpaceOnUse" xlink:href="#linearGradient44681"/><linearGradient id="linearGradient5299" x1="171.134" x2="171.466" y1="1031.823" y2="1038.006" gradientTransform="translate(-109.70181,-7.7222804)" gradientUnits="userSpaceOnUse" xlink:href="#linearGradient5293"/><linearGradient id="linearGradient5303" x1="171.134" x2="171.466" y1="1031.823" y2="1038.006" gradientTransform="matrix(-1,0,0,1,277.06103,-7.9631838)" gradientUnits="userSpaceOnUse" xlink:href="#linearGradient5293"/><linearGradient id="linearGradient5311" x1="193.448" x2="193.263" y1="1036.57" y2="1014.764" gradientTransform="translate(-109.70181,-7.7222804)" gradientUnits="userSpaceOnUse" xlink:href="#linearGradient5305"/><filter style="color-interpolation-filters:sRGB" id="filter5528" width="1.035" height="1.076" x="-.018" y="-.038"><feGaussianBlur id="feGaussianBlur5530" stdDeviation=".4"/></filter><linearGradient id="linearGradient4619" x1="62.342" x2="62.342" y1="8.826" y2="61.277" gradientUnits="userSpaceOnUse"><stop style="stop-color:#fff;stop-opacity:1" id="stop4621" offset="0"/><stop style="stop-color:#74aeff;stop-opacity:1" id="stop4623" offset="1"/><midPointStop id="midPointStop157" offset="0" style="stop-color:#fff"/><midPointStop id="midPointStop159" offset=".5" style="stop-color:#fff"/><midPointStop id="midPointStop161" offset="1" style="stop-color:#74aeff"/></linearGradient><radialGradient id="radialGradient4602" cx="27.576" cy="107.817" r="115.483" fx="27.576" fy="107.817" gradientTransform="matrix(1,0,0,1.0565,0,-0.544571)" gradientUnits="userSpaceOnUse"><stop style="stop-color:#fff;stop-opacity:1" id="stop4604" offset="0"/><stop style="stop-color:#def;stop-opacity:1" id="stop4606" offset=".057"/><stop style="stop-color:#b5daff;stop-opacity:1" id="stop4608" offset=".133"/><stop style="stop-color:#9dceff;stop-opacity:1" id="stop4610" offset=".193"/><stop style="stop-color:#94caff;stop-opacity:1" id="stop4612" offset=".23"/><stop style="stop-color:#0b74ff;stop-opacity:1" id="stop4614" offset=".596"/><stop style="stop-color:#0035ed;stop-opacity:1" id="stop4616" offset=".815"/><midPointStop id="midPointStop134" offset="0" style="stop-color:#fff"/><midPointStop id="midPointStop136" offset=".4" style="stop-color:#fff"/><midPointStop id="midPointStop138" offset=".23" style="stop-color:#94caff"/><midPointStop id="midPointStop140" offset=".5" style="stop-color:#94caff"/><midPointStop id="midPointStop142" offset=".596" style="stop-color:#0b74ff"/><midPointStop id="midPointStop144" offset=".5" style="stop-color:#0b74ff"/><midPointStop id="midPointStop146" offset=".815" style="stop-color:#0035ed"/></radialGradient><linearGradient id="XMLID_4_" x1="64" x2="64" y1="-1.178" y2="99.458" gradientTransform="matrix(-1,0,0,-1,128,128)" gradientUnits="userSpaceOnUse"><stop style="stop-color:#0053bd;stop-opacity:1" id="stop105" offset="0"/><stop style="stop-color:#00008d;stop-opacity:1" id="stop107" offset="1"/><midPointStop id="midPointStop109" offset="0" style="stop-color:#00008d"/><midPointStop id="midPointStop111" offset=".5" style="stop-color:#00008d"/><midPointStop id="midPointStop113" offset="1" style="stop-color:#0053bd"/></linearGradient><linearGradient id="linearGradient5598" x1="62.342" x2="62.342" y1="16.279" y2="63.596" gradientTransform="matrix(0,-0.54205791,0.54205791,0,255.31519,1001.1398)" gradientUnits="userSpaceOnUse" xlink:href="#linearGradient4619"/><linearGradient id="linearGradient5604" x1="64" x2="64" y1="-1.178" y2="99.458" gradientTransform="matrix(0,-0.54205791,-0.54205791,0,324.69861,1002.9369)" gradientUnits="userSpaceOnUse" xlink:href="#XMLID_4_"/><radialGradient id="radialGradient5615" cx="323.325" cy="388.165" r="49.622" fx="323.325" fy="388.165" gradientTransform="matrix(-0.74381024,1.1372731,0.88039719,0.57580549,211.36351,390.1867)" gradientUnits="userSpaceOnUse" xlink:href="#radialGradient4602"/></defs><metadata id="metadata7"/><g id="layer1" transform="translate(0,-924.36216)"><g id="g9122"><rect id="rect9082" width="128" height="128" x="0" y="924.362" style="opacity:0;fill:#00112b;fill-opacity:.94117647;stroke:none;stroke-width:.5;stroke-linecap:round;stroke-linejoin:round;stroke-miterlimit:4;stroke-dasharray:none;stroke-dashoffset:0;stroke-opacity:1"/><g id="g9084" transform="matrix(0.98433462,0,0,0.98433462,-1.3453913,18.946059)"><g id="g6347" transform="translate(0,4)"><path id="path5504" d="m 68.193566,1007.0498 -6.591797,16.5918 c -0.569945,-0.1619 -1.163767,-0.2262 -1.777344,-0.1367 l -2.167969,5.541 c -0.48269,1.8434 -0.369477,3.0488 2.007813,3.1328 l 7.107422,-0.041 c 0.06007,-0.3654 0.06804,-0.7589 0.04492,-1.1641 l 35.988279,0.031 c -0.004,0.3083 0.008,0.6094 0.0547,0.8926 l 7.10547,0.039 c 2.37729,-0.084 2.49051,-1.2874 2.00782,-3.1308 l -2.16797,-5.541 c -0.52775,-0.077 -1.04252,-0.048 -1.53907,0.064 l -6.17188,-16.2793 -33.900386,0 z" transform="matrix(2.2350352,0,0,2.2350352,-122.69764,-1271.5265)" style="opacity:.43900003;fill:#696969;fill-opacity:.94117647;fill-rule:evenodd;stroke:none;stroke-width:.5;stroke-linecap:round;stroke-linejoin:round;stroke-miterlimit:4;stroke-dasharray:none;stroke-opacity:1;filter:url(#filter5528)"/><g id="g5497" transform="matrix(2.2350352,0,0,2.2350352,-122.69764,-1271.5265)"><path style="fill:url(#linearGradient5311);fill-opacity:1;fill-rule:evenodd;stroke:#1f1515;stroke-width:.5;stroke-linecap:round;stroke-linejoin:round;stroke-miterlimit:4;stroke-dasharray:none;stroke-opacity:1" id="path5289" d="m 67.05891,1006.142 -9.50199,23.9148 52.48557,0.047 -9.08503,-23.9618 z"/><path style="fill:url(#linearGradient5299);fill-opacity:1;fill-rule:evenodd;stroke:#00222f;stroke-width:.5;stroke-linecap:round;stroke-linejoin:round;stroke-miterlimit:4;stroke-dasharray:none;stroke-opacity:1" id="path5291" d="m 56.52153,1028.138 2.16813,-5.5408 c 4.13678,-0.6033 7.51935,5.1448 6.94605,8.6324 l -7.10665,0.04 c -2.37729,-0.084 -2.49022,-1.2882 -2.00753,-3.1316 z"/><path id="path5301" d="m 110.83769,1027.8971 -2.16813,-5.5408 c -4.13678,-0.6033 -7.51935,5.1448 -6.94605,8.6324 l 7.10665,0.04 c 2.37729,-0.084 2.49022,-1.2882 2.00753,-3.1316 z" style="fill:url(#linearGradient5303);fill-opacity:1;fill-rule:evenodd;stroke:#00222f;stroke-width:.5;stroke-linecap:round;stroke-linejoin:round;stroke-miterlimit:4;stroke-dasharray:none;stroke-opacity:1"/></g></g><g id="g5193" transform="matrix(0.63032211,0,0,0.63032211,44.44348,337.14838)"><path style="fill:#000;fill-opacity:0;fill-rule:evenodd;stroke:url(#linearGradient5245);stroke-width:1.39035189;stroke-linecap:butt;stroke-linejoin:miter;stroke-miterlimit:4;stroke-dasharray:none;stroke-opacity:1" id="path5195" d="m 50.435985,968.09969 c 7.844958,8.39967 13.824991,22.33601 15.577048,35.82721"/><path style="fill:#000;fill-opacity:.50196078;stroke:none;stroke-width:1.33686185;stroke-linecap:square;stroke-linejoin:miter;stroke-miterlimit:4;stroke-dasharray:none;stroke-dashoffset:0;stroke-opacity:1;filter:url(#filter3297)" id="path5197" d="m -237.54657,906.14303 c -14.71669,0 -26.69498,11.97829 -26.69498,26.69498 0,14.71669 11.97829,26.69498 26.69498,26.69498 14.71668,0 26.69497,-11.97829 26.69497,-26.69498 0,-14.71669 -11.97829,-26.69498 -26.69497,-26.69498 z" transform="matrix(0.92690123,0,0,0.92690123,294.53788,102.60792)"/><path style="fill:#000;fill-opacity:.50196078;stroke:none;stroke-width:1.5;stroke-linecap:square;stroke-linejoin:miter;stroke-miterlimit:4;stroke-dashoffset:0;stroke-opacity:1;filter:url(#filter3293)" id="path5199" d="m -237.62978,943.41146 c -21.63445,0 -39.1875,17.34747 -39.1875,38.75 l 0,6.125 c 0,6.05287 6.27536,18.75004 28.90625,18.75004 l 20.53125,0 c 22.63038,0 28.9375,-12.07968 28.9375,-18.75004 l 0,-6.125 c 0,-21.40254 -17.55305,-38.75 -39.1875,-38.75 z" transform="matrix(0.92690123,0,0,0.92690123,294.53788,102.60792)"/><path style="fill:url(#linearGradient5247);fill-opacity:1;stroke:none;stroke-width:1.5;stroke-linecap:square;stroke-linejoin:miter;stroke-miterlimit:4;stroke-dashoffset:0;stroke-opacity:1" id="path5201" d="m 73.583369,975.89854 c -20.052999,0 -36.322942,16.07939 -36.322942,35.91746 l 0,5.6772 c 0,5.6104 5.816639,17.3795 26.793238,17.3795 l 19.030441,0 c 20.976124,0 26.822204,-11.1967 26.822204,-17.3795 l 0,-5.6772 c 0,-19.83808 -16.269943,-35.91746 -36.322941,-35.91746 z"/><path style="fill:url(#radialGradient5249);fill-opacity:1;stroke:none;stroke-width:1.5;stroke-linecap:square;stroke-linejoin:miter;stroke-miterlimit:4;stroke-dashoffset:0;stroke-opacity:1" id="path5203" d="m 73.583369,977.9013 c -18.640188,0 -33.763861,14.74459 -33.763861,32.9358 l 0,5.206 c 0,5.1446 5.406838,15.9366 24.905558,15.9366 l 17.689679,0 c 19.498285,0 24.932485,-10.2671 24.932485,-15.9366 l 0,-5.206 c 0,-18.19121 -15.123674,-32.9358 -33.763861,-32.9358 z"/><path style="fill:#000;fill-opacity:0;fill-rule:evenodd;stroke:url(#linearGradient5251);stroke-width:1.39035189;stroke-linecap:butt;stroke-linejoin:miter;stroke-miterlimit:4;stroke-dasharray:none;stroke-opacity:1" id="path5205" d="m 89.791562,984.67804 c 7.844959,8.39967 13.824988,22.33606 15.577048,35.82716"/><path style="fill:#000;fill-opacity:0;fill-rule:evenodd;stroke:url(#linearGradient5253);stroke-width:1.39035189;stroke-linecap:butt;stroke-linejoin:miter;stroke-miterlimit:4;stroke-dasharray:none;stroke-opacity:1" id="path5207" d="m 57.524823,984.67804 c -7.844958,8.39967 -13.824991,22.33606 -15.577047,35.82716"/><path style="fill:#c5ffbd;fill-opacity:1;fill-rule:evenodd;stroke:url(#linearGradient5255);stroke-width:.92690122px;stroke-linecap:butt;stroke-linejoin:miter;stroke-opacity:1" id="path5209" d="m 67.38074,988.57231 c -2.134375,1.82987 -4.599497,3.27261 -3.449203,7.67725 -5.246938,-1.0628 -9.222399,-8.24025 -5.89702,-13.35175 l 9.346223,5.6745 z"/><path style="fill:url(#linearGradient5257);fill-opacity:1;stroke:none;stroke-width:.85552669;stroke-linecap:square;stroke-linejoin:miter;stroke-miterlimit:4;stroke-dasharray:none;stroke-dashoffset:0;stroke-opacity:1" id="path5211" d="m 73.658194,997.9648 -5.909101,-8.0911 11.818202,0 -5.909101,8.0911 z"/><path style="fill:url(#radialGradient5259);fill-opacity:1;fill-rule:evenodd;stroke:none;stroke-width:1px;stroke-linecap:butt;stroke-linejoin:miter;stroke-opacity:1" id="path5213" d="m 58.239854,983.5491 8.342111,5.06899 c -0.915927,0.75526 -1.866427,1.52543 -2.548979,2.57794 -0.694508,1.07094 -0.911524,2.54116 -0.608279,4.37382 -2.195986,-0.67528 -4.165049,-2.45136 -5.242785,-4.69244 -1.115303,-2.3192 -1.24975,-5.00816 0.05793,-7.32831 z"/><path style="fill:#9dcfff;fill-opacity:1;fill-rule:evenodd;stroke:url(#linearGradient5261);stroke-width:.92690122px;stroke-linecap:butt;stroke-linejoin:miter;stroke-opacity:1" id="path5215" d="m 79.624086,988.57231 c 2.134375,1.82987 4.599497,3.27261 3.449203,7.67725 5.246938,-1.0628 9.222399,-8.24025 5.89702,-13.35175 l -9.346223,5.6745 z"/><path style="fill:url(#radialGradient5263);fill-opacity:1;stroke:url(#linearGradient5265);stroke-width:1.85380256;stroke-linecap:square;stroke-linejoin:miter;stroke-miterlimit:4;stroke-dasharray:none;stroke-dashoffset:0;stroke-opacity:1" id="path5217" d="m 97.461468,966.09686 a 23.803269,23.803269 0 1 1 -47.606538,0 23.803269,23.803269 0 1 1 47.606538,0 z"/></g><g id="g5120" transform="matrix(0.63032211,0,0,0.63032211,44.44348,363.21733)"><path id="path3217" d="m 50.435985,968.09969 c 7.844958,8.39967 13.824991,22.33601 15.577048,35.82721" style="fill:#000;fill-opacity:0;fill-rule:evenodd;stroke:url(#linearGradient44667);stroke-width:1.39035189;stroke-linecap:butt;stroke-linejoin:miter;stroke-miterlimit:4;stroke-dasharray:none;stroke-opacity:1"/><path id="path44010" d="m -237.54657,906.14303 c -14.71669,0 -26.69498,11.97829 -26.69498,26.69498 0,14.71669 11.97829,26.69498 26.69498,26.69498 14.71668,0 26.69497,-11.97829 26.69497,-26.69498 0,-14.71669 -11.97829,-26.69498 -26.69497,-26.69498 z" transform="matrix(0.92690123,0,0,0.92690123,294.53788,102.60792)" style="fill:#000;fill-opacity:.50196078;stroke:none;stroke-width:1.33686185;stroke-linecap:square;stroke-linejoin:miter;stroke-miterlimit:4;stroke-dasharray:none;stroke-dashoffset:0;stroke-opacity:1;filter:url(#filter3297)"/><path id="path44012" d="m -237.62978,943.41146 c -21.63445,0 -39.1875,17.34747 -39.1875,38.75 l 0,6.125 c 0,6.05287 6.27536,18.75004 28.90625,18.75004 l 20.53125,0 c 22.63038,0 28.9375,-12.07968 28.9375,-18.75004 l 0,-6.125 c 0,-21.40254 -17.55305,-38.75 -39.1875,-38.75 z" transform="matrix(0.92690123,0,0,0.92690123,294.53788,102.60792)" style="fill:#000;fill-opacity:.50196078;stroke:none;stroke-width:1.5;stroke-linecap:square;stroke-linejoin:miter;stroke-miterlimit:4;stroke-dashoffset:0;stroke-opacity:1;filter:url(#filter3293)"/><path id="path44014" d="m 73.583369,975.89854 c -20.052999,0 -36.322942,16.07939 -36.322942,35.91746 l 0,5.6772 c 0,5.6104 5.816639,17.3795 26.793238,17.3795 l 19.030441,0 c 20.976124,0 26.822204,-11.1967 26.822204,-17.3795 l 0,-5.6772 c 0,-19.83808 -16.269943,-35.91746 -36.322941,-35.91746 z" style="fill:url(#linearGradient44076);fill-opacity:1;stroke:none;stroke-width:1.5;stroke-linecap:square;stroke-linejoin:miter;stroke-miterlimit:4;stroke-dashoffset:0;stroke-opacity:1"/><path id="path44016" d="m 73.583369,977.9013 c -18.640188,0 -33.763861,14.74459 -33.763861,32.9358 l 0,5.206 c 0,5.1446 5.406838,15.9366 24.905558,15.9366 l 17.689679,0 c 19.498285,0 24.932485,-10.2671 24.932485,-15.9366 l 0,-5.206 c 0,-18.19121 -15.123674,-32.9358 -33.763861,-32.9358 z" style="fill:url(#radialGradient44073);fill-opacity:1;stroke:none;stroke-width:1.5;stroke-linecap:square;stroke-linejoin:miter;stroke-miterlimit:4;stroke-dashoffset:0;stroke-opacity:1"/><path id="path44018" d="m 89.791562,984.67804 c 7.844959,8.39967 13.824988,22.33606 15.577048,35.82716" style="fill:#000;fill-opacity:0;fill-rule:evenodd;stroke:url(#linearGradient44070);stroke-width:1.39035189;stroke-linecap:butt;stroke-linejoin:miter;stroke-miterlimit:4;stroke-dasharray:none;stroke-opacity:1"/><path id="path44020" d="m 57.524823,984.67804 c -7.844958,8.39967 -13.824991,22.33606 -15.577047,35.82716" style="fill:#000;fill-opacity:0;fill-rule:evenodd;stroke:url(#linearGradient44067);stroke-width:1.39035189;stroke-linecap:butt;stroke-linejoin:miter;stroke-miterlimit:4;stroke-dasharray:none;stroke-opacity:1"/><path id="path44022" d="m 67.38074,988.57231 c -2.134375,1.82987 -4.599497,3.27261 -3.449203,7.67725 -5.246938,-1.0628 -9.222399,-8.24025 -5.89702,-13.35175 l 9.346223,5.6745 z" style="fill:#c5ffbd;fill-opacity:1;fill-rule:evenodd;stroke:url(#linearGradient44613);stroke-width:.92690122px;stroke-linecap:butt;stroke-linejoin:miter;stroke-opacity:1"/><path id="path44024" d="m 73.658194,997.9648 -5.909101,-8.0911 11.818202,0 -5.909101,8.0911 z" style="fill:url(#linearGradient44691);fill-opacity:1;stroke:none;stroke-width:.85552669;stroke-linecap:square;stroke-linejoin:miter;stroke-miterlimit:4;stroke-dasharray:none;stroke-dashoffset:0;stroke-opacity:1"/><path id="path44028" d="m 58.239854,983.5491 8.342111,5.06899 c -0.915927,0.75526 -1.866427,1.52543 -2.548979,2.57794 -0.694508,1.07094 -0.911524,2.54116 -0.608279,4.37382 -2.195986,-0.67528 -4.165049,-2.45136 -5.242785,-4.69244 -1.115303,-2.3192 -1.24975,-5.00816 0.05793,-7.32831 z" style="fill:url(#radialGradient44061);fill-opacity:1;fill-rule:evenodd;stroke:none;stroke-width:1px;stroke-linecap:butt;stroke-linejoin:miter;stroke-opacity:1"/><path id="path44621" d="m 79.624086,988.57231 c 2.134375,1.82987 4.599497,3.27261 3.449203,7.67725 5.246938,-1.0628 9.222399,-8.24025 5.89702,-13.35175 l -9.346223,5.6745 z" style="fill:#9dcfff;fill-opacity:1;fill-rule:evenodd;stroke:url(#linearGradient44625);stroke-width:.92690122px;stroke-linecap:butt;stroke-linejoin:miter;stroke-opacity:1"/><path id="path44030" d="m 97.461468,966.09686 a 23.803269,23.803269 0 1 1 -47.606538,0 23.803269,23.803269 0 1 1 47.606538,0 z" style="fill:url(#radialGradient44048);fill-opacity:1;stroke:url(#linearGradient44677);stroke-width:1.85380256;stroke-linecap:square;stroke-linejoin:miter;stroke-miterlimit:4;stroke-dasharray:none;stroke-dashoffset:0;stroke-opacity:1"/></g><g id="g6598" transform="matrix(1.0410596,0,0,1.0410596,-266.43535,-28.477406)"><path id="path116" d="m 290.99097,999.38605 c -1.07936,-0.36579 -1.79981,-1.33292 -1.79981,-2.4165 l 0,-9.0366 -22.73731,0 c -3.34763,0 -6.06163,-2.56419 -6.06163,-5.72813 l 0,-29.71685 c 0,-3.16394 2.714,-5.72813 6.06163,-5.72813 l 22.73731,0 0,-7.23785 c 0,-1.08411 0.72045,-2.05177 1.79981,-2.41755 1.07988,-0.36578 2.28733,-0.0514 3.01466,0.78609 l 24.99713,28.72272 c 0.82526,0.94806 0.82421,2.31486 0,3.26293 l -24.99713,28.72377 c -0.72838,0.83744 -1.93478,1.15188 -3.01466,0.7861 z" style="fill:url(#linearGradient5604)"/><path id="path149" d="m 291.90781,985.36559 c -8.56838,0 -25.45396,0 -25.45396,0 -1.84427,0 -3.34472,-1.41867 -3.34472,-3.16077 l 0,-29.71685 c 0,-1.74315 1.50045,-3.16076 3.34472,-3.16076 0,0 17.9607,0 25.45396,0 l 0,-9.80522 24.99712,28.72272 -24.99712,28.72484 0,-11.60396 z" style="fill:url(#radialGradient5615);fill-opacity:1"/><path id="path164" d="m 288.57076,973.27304 c -4.11122,-7.80479 -8.67875,-14.83619 -10.19323,-22.97076 l -12.28549,0 c -1.07671,0 -1.95279,0.98089 -1.95279,2.18623 l 0,29.71684 c 0,1.20534 0.87608,2.1857 1.95279,2.1857 l 22.20081,0 c 1.64126,-3.59113 2.12456,-7.49246 0.27791,-11.11801 z" style="fill:url(#linearGradient5598);fill-opacity:1"/></g></g></g></g></svg>