<svg xmlns="http://www.w3.org/2000/svg" xmlns:svg="http://www.w3.org/2000/svg" xmlns:xlink="http://www.w3.org/1999/xlink" id="svg2" width="128" height="128" version="1.0" viewBox="0 0 128 128"><metadata id="metadata116"/><defs id="defs4"><linearGradient id="linearGradient4268"><stop style="stop-color:#025;stop-opacity:1" id="stop4270" offset="0"/><stop style="stop-color:#025;stop-opacity:0" id="stop4272" offset="1"/></linearGradient><linearGradient id="linearGradient3579"><stop id="stop3581" offset="0" stop-color="#672b27"/><stop id="stop3583" offset=".5" stop-color="#712913"/><stop id="stop3585" offset="1" stop-color="#965e26"/></linearGradient><linearGradient id="linearGradient3551"><stop id="stop3553" offset="0"/><stop id="stop3557" offset="1" stop-color="#6f382e" stop-opacity="0"/></linearGradient><linearGradient id="linearGradient3511"><stop id="stop3513" offset="0" stop-color="#813d20"/><stop id="stop3515" offset="1" stop-color="#7f4621"/></linearGradient><linearGradient id="linearGradient3439"><stop id="stop3441" offset="0" stop-color="#824623"/><stop id="stop3443" offset=".5" stop-color="#672412"/><stop id="stop3445" offset="1" stop-color="#420804" stop-opacity=".996"/></linearGradient><linearGradient id="linearGradient3431"><stop id="stop3433" offset="0" stop-color="#c96905"/><stop id="stop3435" offset="1" stop-color="#d6902a"/></linearGradient><linearGradient id="linearGradient3405"><stop id="stop3407" offset="0" stop-color="#672b27"/><stop id="stop3413" offset=".5" stop-color="#712913"/><stop id="stop3409" offset="1" stop-color="#620000" stop-opacity=".984"/></linearGradient><linearGradient id="linearGradient3356" x1="575.89" x2="661.55" y1="212.51" y2="278.1" gradientUnits="userSpaceOnUse"><stop id="stop3360" offset="0" stop-color="#029831"/><stop id="stop3372" offset=".5" stop-color="#006c02"/><stop id="stop3362" offset="1" stop-color="#003b2d"/></linearGradient><linearGradient id="linearGradient3370" x1="572.87" x2="663.65" y1="279.27" y2="279.27" gradientUnits="userSpaceOnUse" xlink:href="#linearGradient3356"><stop id="stop3366" offset="0" stop-color="#2e6b01"/><stop id="stop3368" offset="1" stop-color="#152c28"/></linearGradient><linearGradient id="linearGradient3376" x1="570.7" x2="668.25" y1="284.79" y2="284.79" gradientUnits="userSpaceOnUse"><stop id="stop3380" offset="0" stop-color="#d68c23"/><stop id="stop3392" offset=".5" stop-color="#c66100"/><stop id="stop3382" offset="1" stop-color="#6f382e"/></linearGradient><linearGradient id="linearGradient3390" x1="568.19" x2="668.93" y1="280.44" y2="280.44" gradientUnits="userSpaceOnUse"><stop id="stop3386" offset="0" stop-color="#d5801f"/><stop id="stop3394" offset=".5" stop-color="#993a1b"/><stop id="stop3388" offset="1" stop-color="#78413e"/></linearGradient><linearGradient id="linearGradient3613" x1="568.29" x2="669.91" y1="285.4" y2="285.4" gradientUnits="userSpaceOnUse"><stop id="stop3609" offset="0" stop-color="#fff" stop-opacity=".502"/><stop id="stop3611" offset="1" stop-color="#fff" stop-opacity=".361"/></linearGradient><linearGradient id="linearGradient3617" x1="66.259" x2="66.259" y1="7.864" y2="88.929" gradientUnits="userSpaceOnUse"><stop id="stop3307" offset="0" stop-color="#010000"/><stop id="stop3352" offset=".736" stop-color="#411000"/><stop id="stop3309" offset="1" stop-color="#822000"/></linearGradient><linearGradient id="linearGradient3654" x1="568.67" x2="668" y1="289.29" y2="289.29" gradientUnits="userSpaceOnUse"><stop id="stop3625" offset="0" stop-color="#811f00"/><stop id="stop3631" offset=".5" stop-color="#5d0003"/><stop id="stop3627" offset="1" stop-color="#811f00"/></linearGradient><filter id="filter3772" width="1.763" height="1.062" x="-.382" y="-.031"><feGaussianBlur id="feGaussianBlur3774" stdDeviation=".581"/></filter><linearGradient id="linearGradient3810" x1="45.798" x2="45.798" y1="113.08" y2="64.41" gradientTransform="matrix(0.51766,0.85559,-0.85559,0.51766,635.73,176.83)" gradientUnits="userSpaceOnUse"><stop id="stop3685" offset="0" stop-color="#5a5a6b"/><stop id="stop3691" offset=".5" stop-color="#837e97"/><stop id="stop3693" offset=".75" stop-color="#9192a7"/><stop id="stop3687" offset="1" stop-color="#8780a4"/></linearGradient><linearGradient id="linearGradient3814" x1="41.167" x2="41.167" y1="113.08" y2="71.687" gradientTransform="matrix(0.51766,0.85559,-0.85559,0.51766,635.73,176.83)" gradientUnits="userSpaceOnUse"><stop id="stop3697" offset="0" stop-color="#c8c8d8"/><stop id="stop3699" offset="1" stop-color="#fbfbfc"/></linearGradient><filter id="filter3834"><feGaussianBlur id="feGaussianBlur3836" stdDeviation=".384"/></filter><linearGradient id="linearGradient3845" x1="599.37" x2="599.37" y1="285.4" y2="297.6" gradientTransform="matrix(-1,0,0,1,1236.4,0)" gradientUnits="userSpaceOnUse" xlink:href="#linearGradient3551"/><linearGradient id="linearGradient3847" x1="597.52" x2="597.52" y1="290.62" y2="318.35" gradientTransform="matrix(-1,0,0,1,1236.3,0)" gradientUnits="userSpaceOnUse" xlink:href="#linearGradient3579"/><linearGradient id="linearGradient3850" x1="599.37" x2="599.37" y1="285.4" y2="297.6" gradientTransform="translate(-0.004465,0)" gradientUnits="userSpaceOnUse" xlink:href="#linearGradient3551"/><linearGradient id="linearGradient3852" x1="597.52" x2="597.52" y1="290.62" y2="318.35" gradientTransform="translate(0.10252,0)" gradientUnits="userSpaceOnUse" xlink:href="#linearGradient3579"/><linearGradient id="linearGradient3855" x1="583.48" x2="583.48" y1="315.81" y2="297.05" gradientTransform="matrix(-1,0,0,1,1236.7,0)" gradientUnits="userSpaceOnUse" xlink:href="#linearGradient3431"/><linearGradient id="linearGradient3857" x1="597.52" x2="597.52" y1="290.62" y2="318.35" gradientTransform="matrix(-1,0,0,1,1236.6,0)" gradientUnits="userSpaceOnUse" xlink:href="#linearGradient3405"/><linearGradient id="linearGradient3860" x1="583.48" x2="583.48" y1="315.81" y2="297.05" gradientTransform="translate(-0.004465,0)" gradientUnits="userSpaceOnUse" xlink:href="#linearGradient3431"/><linearGradient id="linearGradient3862" x1="597.52" x2="597.52" y1="290.62" y2="318.35" gradientTransform="translate(0.10252,0)" gradientUnits="userSpaceOnUse" xlink:href="#linearGradient3405"/><linearGradient id="linearGradient3865" x1="622.05" x2="622.05" y1="295.55" y2="299.34" gradientTransform="translate(0,0.99999)" gradientUnits="userSpaceOnUse" xlink:href="#linearGradient3551"/><linearGradient id="linearGradient3867" x1="617.44" x2="617.44" y1="302.66" y2="299.45" gradientUnits="userSpaceOnUse" xlink:href="#linearGradient3511"/><linearGradient id="linearGradient3870" x1="622.05" x2="622.05" y1="301.88" y2="299.04" gradientTransform="translate(0,0.99999)" gradientUnits="userSpaceOnUse" xlink:href="#linearGradient3431"/><linearGradient id="linearGradient3875" x1="598.18" x2="598.18" y1="290.65" y2="319.61" gradientTransform="matrix(-1,0,0,1,1236.7,0)" gradientUnits="userSpaceOnUse" xlink:href="#linearGradient3439"/><linearGradient id="linearGradient3878" x1="612.31" x2="612.31" y1="303.4" y2="299.61" gradientUnits="userSpaceOnUse"><stop id="stop3505" offset="0" stop-color="#712717"/><stop id="stop3507" offset="1" stop-color="#76351b"/></linearGradient><linearGradient id="linearGradient3881" x1="598.18" x2="598.18" y1="290.65" y2="319.61" gradientTransform="translate(-0.004465,0)" gradientUnits="userSpaceOnUse" xlink:href="#linearGradient3439"/><filter id="filter3955"><feGaussianBlur id="feGaussianBlur3957" stdDeviation="1.299"/></filter><linearGradient id="linearGradient3980" x1="27.965" x2="27.965" y1="10.75" y2="55.843" gradientTransform="translate(550.29,199.79)" gradientUnits="userSpaceOnUse"><stop id="stop3976" offset="0" stop-color="#fff" stop-opacity=".361"/><stop id="stop3978" offset="1" stop-color="#fff" stop-opacity="0"/></linearGradient><linearGradient id="linearGradient3990" x1="111.23" x2="111.23" y1="13.656" y2="80.617" gradientTransform="translate(550.29,199.79)" gradientUnits="userSpaceOnUse"><stop id="stop3986" offset="0" stop-color="#fff" stop-opacity=".361"/><stop id="stop3988" offset="1" stop-color="#fff" stop-opacity=".086"/></linearGradient><linearGradient id="linearGradient4274" x1="629.281" x2="538.503" y1="262.729" y2="177.767" gradientUnits="userSpaceOnUse" xlink:href="#linearGradient4268"/><linearGradient id="linearGradient4304" x1="66.259" x2="66.259" y1="7.864" y2="88.929" gradientTransform="translate(550.29,199.79)" gradientUnits="userSpaceOnUse" xlink:href="#linearGradient3617"/><linearGradient id="linearGradient4306" x1="617.44" x2="617.44" y1="302.66" y2="299.45" gradientUnits="userSpaceOnUse" xlink:href="#linearGradient3511"/><linearGradient id="linearGradient4308" x1="66.259" x2="66.259" y1="7.864" y2="88.929" gradientTransform="translate(550.29,199.79)" gradientUnits="userSpaceOnUse" xlink:href="#linearGradient3617"/><linearGradient id="linearGradient44667" x1="517.022" x2="517.022" y1="705.484" y2="745.301" gradientTransform="translate(-772.48144,227.87334)" gradientUnits="userSpaceOnUse" xlink:href="#linearGradient3219"/><linearGradient id="linearGradient3219"><stop id="stop3221" offset="0" style="stop-color:#0e7309;stop-opacity:1"/><stop id="stop3223" offset="1" style="stop-color:#70d13e;stop-opacity:1"/></linearGradient><filter id="filter3297"><feGaussianBlur id="feGaussianBlur3299" stdDeviation=".267"/></filter><filter id="filter3293"><feGaussianBlur id="feGaussianBlur3295" stdDeviation=".355"/></filter><linearGradient id="linearGradient44076" x1="83.281" x2="83.281" y1="123.098" y2="66.311" gradientTransform="translate(-282.47353,882.69271)" gradientUnits="userSpaceOnUse" xlink:href="#linearGradient44699"/><linearGradient id="linearGradient44699"><stop id="stop44701" offset="0" style="stop-color:#000173;stop-opacity:.93333334"/><stop id="stop44703" offset="1" style="stop-color:#3575f0;stop-opacity:1"/></linearGradient><radialGradient id="radialGradient44073" cx="491.522" cy="670.925" r="36.427" fx="491.522" fy="670.925" gradientTransform="matrix(0,2.0237831,-1.9580539,0,1075.328,-66.735647)" gradientUnits="userSpaceOnUse" xlink:href="#linearGradient44080"/><linearGradient id="linearGradient44080"><stop id="stop44082" offset="0" style="stop-color:#2c8300;stop-opacity:1"/><stop id="stop44084" offset=".25" style="stop-color:#57aeff;stop-opacity:1"/><stop id="stop44086" offset=".5" style="stop-color:#fff;stop-opacity:1"/><stop id="stop44088" offset="1" style="stop-color:#5aafff;stop-opacity:1"/></linearGradient><linearGradient id="linearGradient44070" x1="517.022" x2="517.022" y1="705.484" y2="745.301" gradientTransform="translate(-730.02214,245.75912)" gradientUnits="userSpaceOnUse" xlink:href="#linearGradient44090"/><linearGradient id="linearGradient44090"><stop id="stop44092" offset="0" style="stop-color:#0926bb;stop-opacity:1"/><stop id="stop44094" offset="1" style="stop-color:#6bb5fe;stop-opacity:1"/></linearGradient><linearGradient id="linearGradient44067" x1="517.022" x2="517.022" y1="705.484" y2="745.301" gradientTransform="matrix(-1,0,0,1,253.42404,245.75912)" gradientUnits="userSpaceOnUse" xlink:href="#linearGradient44090"/><linearGradient id="linearGradient44613" x1="-246.577" x2="-248.777" y1="958.08" y2="964.617" gradientUnits="userSpaceOnUse" xlink:href="#linearGradient44615"/><linearGradient id="linearGradient44615"><stop id="stop44617" offset="0" style="stop-color:#2f68fa;stop-opacity:1"/><stop id="stop44619" offset="1" style="stop-color:#c7d5fb;stop-opacity:1"/></linearGradient><linearGradient id="linearGradient44691" x1="-35.567" x2="-35.567" y1="76.563" y2="84.91" gradientUnits="userSpaceOnUse" xlink:href="#linearGradient44693"/><linearGradient id="linearGradient44693"><stop id="stop44695" offset="0" style="stop-color:#3690e6;stop-opacity:1"/><stop id="stop44697" offset="1" style="stop-color:#d0e9ff;stop-opacity:1"/></linearGradient><radialGradient id="radialGradient44061" cx="479.683" cy="709.658" r="5.006" fx="479.683" fy="709.658" gradientTransform="matrix(0.856113,-0.0637264,0.1161478,1.5603521,-743.30707,-121.7687)" gradientUnits="userSpaceOnUse" xlink:href="#linearGradient44605"/><linearGradient id="linearGradient44605"><stop id="stop44607" offset="0" style="stop-color:#d0ecff;stop-opacity:1"/><stop id="stop44609" offset=".5" style="stop-color:#d7f0ff;stop-opacity:1"/><stop id="stop44611" offset="1" style="stop-color:#fff;stop-opacity:1"/></linearGradient><linearGradient id="linearGradient44625" x1="-246.577" x2="-248.777" y1="958.08" y2="964.617" gradientTransform="matrix(-1,0,0,1,-476.93424,0)" gradientUnits="userSpaceOnUse" xlink:href="#linearGradient44615"/><radialGradient id="radialGradient44048" cx="53.602" cy="59.729" r="17.834" fx="53.602" fy="59.729" gradientTransform="matrix(0,1.655849,-1.6391884,0,152.15006,-32.923726)" gradientUnits="userSpaceOnUse" xlink:href="#linearGradient44627"/><linearGradient id="linearGradient44627"><stop id="stop44629" offset="0" style="stop-color:#fffcfb;stop-opacity:1"/><stop id="stop44633" offset="1" style="stop-color:#f4ad94;stop-opacity:1"/></linearGradient><linearGradient id="linearGradient44677" x1="60.127" x2="60.127" y1="81.914" y2="47.543" gradientUnits="userSpaceOnUse" xlink:href="#linearGradient44681"/><linearGradient id="linearGradient44681"><stop id="stop44683" offset="0" style="stop-color:#ff5c38;stop-opacity:1"/><stop id="stop44685" offset=".304" style="stop-color:#fb7e65;stop-opacity:.99607843"/><stop id="stop44687" offset="1" style="stop-color:#cd0000;stop-opacity:.98039216"/></linearGradient><linearGradient id="linearGradient5604" x1="64" x2="64" y1="-1.178" y2="99.458" gradientTransform="matrix(0,-0.54205791,-0.54205791,0,324.69861,1002.9369)" gradientUnits="userSpaceOnUse" xlink:href="#XMLID_4_"/><linearGradient id="XMLID_4_" x1="64" x2="64" y1="-1.178" y2="99.458" gradientTransform="rotate(180,64,64)" gradientUnits="userSpaceOnUse"><stop style="stop-color:#0053bd;stop-opacity:1" id="stop105" offset="0"/><stop style="stop-color:#00008d;stop-opacity:1" id="stop107" offset="1"/><midPointStop id="midPointStop109" offset="0" style="stop-color:#00008d"/><midPointStop id="midPointStop111" offset=".5" style="stop-color:#00008d"/><midPointStop id="midPointStop113" offset="1" style="stop-color:#0053bd"/></linearGradient><radialGradient id="radialGradient5615" cx="323.325" cy="388.165" r="49.622" fx="323.325" fy="388.165" gradientTransform="matrix(-0.74381024,1.1372731,0.88039719,0.57580549,211.36351,390.1867)" gradientUnits="userSpaceOnUse" xlink:href="#radialGradient4602"/><radialGradient id="radialGradient4602" cx="27.576" cy="107.817" r="115.483" fx="27.576" fy="107.817" gradientTransform="matrix(1,0,0,1.0565,0,-0.544571)" gradientUnits="userSpaceOnUse"><stop style="stop-color:#fff;stop-opacity:1" id="stop4604" offset="0"/><stop style="stop-color:#def;stop-opacity:1" id="stop4606" offset=".057"/><stop style="stop-color:#b5daff;stop-opacity:1" id="stop4608" offset=".133"/><stop style="stop-color:#9dceff;stop-opacity:1" id="stop4610" offset=".193"/><stop style="stop-color:#94caff;stop-opacity:1" id="stop4612" offset=".23"/><stop style="stop-color:#0b74ff;stop-opacity:1" id="stop4614" offset=".596"/><stop style="stop-color:#0035ed;stop-opacity:1" id="stop4616" offset=".815"/><midPointStop id="midPointStop134" offset="0" style="stop-color:#fff"/><midPointStop id="midPointStop136" offset=".4" style="stop-color:#fff"/><midPointStop id="midPointStop138" offset=".23" style="stop-color:#94caff"/><midPointStop id="midPointStop140" offset=".5" style="stop-color:#94caff"/><midPointStop id="midPointStop142" offset=".596" style="stop-color:#0b74ff"/><midPointStop id="midPointStop144" offset=".5" style="stop-color:#0b74ff"/><midPointStop id="midPointStop146" offset=".815" style="stop-color:#0035ed"/></radialGradient><linearGradient id="linearGradient5598" x1="62.342" x2="62.342" y1="16.279" y2="63.596" gradientTransform="matrix(0,-0.54205791,0.54205791,0,255.31519,1001.1398)" gradientUnits="userSpaceOnUse" xlink:href="#linearGradient4619"/><linearGradient id="linearGradient4619" x1="62.342" x2="62.342" y1="8.826" y2="61.277" gradientUnits="userSpaceOnUse"><stop style="stop-color:#fff;stop-opacity:1" id="stop4621" offset="0"/><stop style="stop-color:#74aeff;stop-opacity:1" id="stop4623" offset="1"/><midPointStop id="midPointStop157" offset="0" style="stop-color:#fff"/><midPointStop id="midPointStop159" offset=".5" style="stop-color:#fff"/><midPointStop id="midPointStop161" offset="1" style="stop-color:#74aeff"/></linearGradient></defs><g id="layer1" transform="translate(-550.29 -199.79)"><g id="g4336"><path id="path3970" d="m 662.63,280.373 1,-0.031 -1.53,-70.458 0,-0.032 c 0,0 0.71,-0.7539 0.71,-0.7539 0,1e-4 -1.29,0.2825 -1.29,0.2729 l -86.949,0.169 c -0.011,-0.001 -0.028,-0.003 -0.062,0 -0.018,0.002 -0.066,-0.0105 -0.094,0 -0.014,0.005 -0.015,0.0214 -0.031,0.0312 -0.016,0.01 -0.062,0.0308 -0.063,0.0313 0,5e-4 -0.021,0.0464 -0.031,0.0625 -0.01,0.0161 -0.026,0.0171 -0.031,0.0312 -0.011,0.0283 10e-4,0.0765 0,0.0938 -0.004,0.035 -10e-4,0.051 0,0.062 l 0,0.032 -1.219,70.458 1,0.031 1.219,-69.833 85.841,0 1.53,69.833 z m -0.53,-70.521 c 0,-0.002 0.01,0.016 0,-0.062 l 0,-0.0938 c 0,-8e-4 -0.06,-0.0618 -0.06,-0.0624 0,-7e-4 -0.04,-0.0515 -0.06,-0.0626 -0.02,-0.011 -0.05,-0.0274 -0.07,-0.0312 -0.05,-0.0151 -0.07,0 -0.09,0 l -0.03,0 c 0.16,0.1508 0.31,0.312 0.31,0.312 z" style="fill:#fff;fill-rule:evenodd"/><path id="path3918" d="m 576.17,207.75 c -1.53,0 -2.81,1.29 -2.81,2.82 l -1.22,68.43 0,0.03 c -0.01,0.04 -0.02,0.07 -0.03,0.1 -0.04,0.06 -0.09,0.1 -0.16,0.12 -0.02,0.01 -0.04,0.01 -0.06,0 l -2.72,0 c -0.66,0 -1.22,0.54 -1.22,1.19 l 0,9.34 c 0,0.66 0.57,1.22 1.22,1.22 l 26.37,0 -18.71,24.19 c -0.95,1.22 -1.29,2.51 -0.79,3.56 0.51,1.05 1.74,1.57 3.29,1.57 l 2.25,0 1.9,0 5.13,0 c 0.62,0 1.13,-0.25 1.53,-0.75 l 0,-0.04 10,-13.84 c 0.04,0 0.05,0.03 0.09,0.03 l 39.47,0 10.03,13.81 0,0.04 c 0.39,0.5 0.91,0.75 1.53,0.75 l 5.13,0 1.9,0 2.25,0 c 1.55,0 2.78,-0.52 3.29,-1.57 0.5,-1.05 0.16,-2.34 -0.79,-3.56 L 644.33,291 l 26.37,0 c 0.65,0 1.22,-0.56 1.22,-1.22 l 0,-9.34 c 0,-0.65 -0.56,-1.19 -1.22,-1.19 l -2.75,0 c -0.06,0 -0.11,-0.02 -0.16,-0.06 -0.05,-0.05 -0.09,-0.11 -0.09,-0.19 l -1.5,-68.47 c 0,-1.53 -1.25,-2.78 -2.78,-2.78 l -87.25,0 z m 34.62,83.25 18.29,0 4.56,6.32 -27.41,0 4.56,-6.32 z" style="fill-opacity:.50196007;fill-rule:evenodd;filter:url(#filter3955)"/><path style="fill:url(#linearGradient4274);fill-opacity:1;fill-rule:evenodd;stroke:#000;stroke-linecap:square;stroke-linejoin:round;stroke-opacity:1" id="rect3354" d="m 573.51,208.29 89.38,0 c 0.26,0 0.47,0.21 0.47,0.47 l 1.21,70.06 c 0,0.26 -0.21,0.47 -0.47,0.47 l -90.59,0 c -0.26,0 -0.47,-0.21 -0.47,-0.47 l 0,-70.06 c 0,-0.26 0.21,-0.47 0.47,-0.47 z"/><path id="path3635" d="m 566.352,289.071 c 0,0.654 0.565,1.219 1.219,1.219 l 101.53,0 c 0.66,0 1.22,-0.565 1.22,-1.219 l -103.97,0 z" style="fill:url(#linearGradient4304);fill-rule:evenodd"/><path id="rect3396" d="m 598.2,286.65 c -0.33,0 -0.74,0.21 -0.94,0.47 l -21.47,27.75 c -1.71,2.21 -0.86,4 1.94,4 l 2.23,0 1.91,0 5.14,0 c 0.32,0 0.77,-0.21 0.97,-0.47 l 22.65,-31.28 c 0.18,-0.27 0.1,-0.47 -0.22,-0.47 l -3.64,0 -4.81,0 -3.76,0 z" style="fill:none;stroke:url(#linearGradient3881);stroke-width:1.39999998;stroke-linecap:square;stroke-linejoin:round"/><rect id="rect3489" width="40.901" height="7" x="598.03" y="297.29" ry=".59" style="fill:none;stroke:url(#linearGradient3878);stroke-linecap:square;stroke-linejoin:round"/><path id="path3453" d="m 638.47,286.65 c 0.33,0 0.74,0.21 0.94,0.47 l 21.47,27.75 c 1.71,2.21 0.85,4 -1.94,4 l -2.23,0 -1.91,0 -5.14,0 c -0.33,0 -0.77,-0.21 -0.97,-0.47 l -22.65,-31.28 c -0.18,-0.27 -0.11,-0.47 0.22,-0.47 l 3.63,0 4.82,0 3.76,0 z" style="fill:none;stroke:url(#linearGradient3875);stroke-width:1.39999998;stroke-linecap:square;stroke-linejoin:round"/><rect id="rect3499" width="40.901" height="5" x="598.03" y="298.29" ry=".59" style="fill:url(#linearGradient3870);fill-rule:evenodd;stroke:url(#linearGradient4306);stroke-linecap:square;stroke-linejoin:round"/><rect id="rect3565" width="40.901" height="5" x="598.03" y="298.29" ry=".59" style="fill:url(#linearGradient3865);fill-rule:evenodd;stroke:url(#linearGradient3867);stroke-linecap:square;stroke-linejoin:round"/><path id="path3403" d="m 599.04,287.59 c -0.31,0 -0.7,0.2 -0.89,0.45 l -2.6,3.37 -19.04,23.11 c -1.63,2.11 -0.82,3.82 1.85,3.82 l 2.13,0 1.82,0 4.03,0 c 0.31,0 0.73,-0.21 0.92,-0.45 l 21.54,-29.85 c 0.19,-0.25 0.11,-0.45 -0.2,-0.45 l -2.53,0 -4.59,0 -2.44,0 z" style="fill:url(#linearGradient3860);fill-rule:evenodd;stroke:url(#linearGradient3862);stroke-width:1.33599997;stroke-linecap:square;stroke-linejoin:round"/><path id="path3455" d="m 637.62,287.59 c 0.31,0 0.71,0.2 0.9,0.45 l 2.59,3.37 19.05,23.11 c 1.63,2.11 0.82,3.82 -1.85,3.82 l -2.13,0 -1.82,0 -4.03,0 c -0.31,0 -0.74,-0.21 -0.93,-0.45 l -21.54,-29.85 c -0.19,-0.25 -0.1,-0.45 0.21,-0.45 l 2.52,0 4.59,0 2.44,0 z" style="fill:url(#linearGradient3855);fill-rule:evenodd;stroke:url(#linearGradient3857);stroke-width:1.33599997;stroke-linecap:square;stroke-linejoin:round"/><path id="path3547" d="m 599.04,287.59 c -0.31,0 -0.7,0.2 -0.89,0.45 l -2.6,3.37 -18.09,22.73 c -1.63,2.11 -1.15,3.74 1.52,3.74 l 1.09,0 1.82,0 4.03,0 c 0.31,0 0.73,-0.16 0.93,-0.41 l 21.95,-29.43 c 0.19,-0.25 0.11,-0.45 -0.2,-0.45 l -2.53,0 -4.59,0 -2.44,0 z" style="fill:url(#linearGradient3850);fill-rule:evenodd;stroke:url(#linearGradient3852);stroke-width:.80000001;stroke-linecap:square;stroke-linejoin:round"/><path id="path3589" d="m 637.35,287.59 c 0.32,0 0.71,0.2 0.9,0.45 l 2.59,3.37 18.09,22.73 c 1.64,2.11 1.15,3.74 -1.51,3.74 l -1.09,0 -1.82,0 -4.03,0 c -0.32,0 -0.74,-0.16 -0.93,-0.41 l -21.96,-29.43 c -0.19,-0.25 -0.1,-0.45 0.21,-0.45 l 2.52,0 4.6,0 2.43,0 z" style="fill:url(#linearGradient3845);fill-rule:evenodd;stroke:url(#linearGradient3847);stroke-width:.80000001;stroke-linecap:square;stroke-linejoin:round"/><path id="path3961" d="m 662.63,280.373 1,-0.031 -1.53,-70.458 0,-0.032 c 0,0 0.71,-0.7539 0.71,-0.7539 0,1e-4 -1.29,0.2825 -1.29,0.2729 l -86.949,0.169 c -0.011,-0.001 -0.028,-0.003 -0.062,0 -0.018,0.002 -0.066,-0.0105 -0.094,0 -0.014,0.005 -0.015,0.0214 -0.031,0.0312 -0.016,0.01 -0.062,0.0308 -0.063,0.0313 0,5e-4 -0.021,0.0464 -0.031,0.0625 -0.01,0.0161 -0.026,0.0171 -0.031,0.0312 -0.011,0.0283 10e-4,0.0765 0,0.0938 -0.004,0.035 -10e-4,0.051 0,0.062 l 0,1.224 1,0 85.841,0 1.53,69.297 z m -0.53,-70.521 c 0,-0.002 0.01,0.016 0,-0.062 l 0,-0.0938 c 0,-8e-4 -0.06,-0.0618 -0.06,-0.0624 0,-7e-4 -0.04,-0.0515 -0.06,-0.0626 -0.02,-0.011 -0.05,-0.0274 -0.07,-0.0312 -0.05,-0.0151 -0.07,0 -0.09,0 l -0.03,0 c 0.16,0.1508 0.31,0.312 0.31,0.312 z" style="fill:url(#linearGradient3990);fill-rule:evenodd"/><rect id="rect3374" width="102.07" height="8.844" x="567.35" y="280.29" ry=".467" style="fill:url(#linearGradient3376);fill-rule:evenodd;stroke:url(#linearGradient3390);stroke-linecap:square;stroke-linejoin:round"/><rect id="rect3595" width="100.63" height="7.991" x="568.79" y="281.29" style="fill:none;stroke:url(#linearGradient3613);stroke-linecap:square"/><path id="rect2521" d="m 644.349,290.29 -0.71,-1.5 24.931,0 c 0.02,0.003 0.04,0.003 0.06,0 0.07,-0.018 0.13,-0.063 0.16,-0.125 0.02,-0.029 0.03,-0.061 0.03,-0.094 l 0,-0.031 0,-8.25 0,-0.062 c -0.02,-0.068 -0.06,-0.124 -0.12,-0.157 -0.03,-0.016 -0.06,-0.027 -0.1,-0.031 -0.01,-0.001 -0.02,-0.001 -0.03,0 l -2.16,0 -2.74,0 -0.04,-1.75 -1.53,-68.406 0,-0.032 c 0,-0.002 0.01,0.016 0,-0.062 l 0,-0.0938 c 0,-8e-4 -0.06,-0.0618 -0.06,-0.0624 0,-7e-4 -0.04,-0.0515 -0.06,-0.0626 -0.02,-0.011 -0.05,-0.0274 -0.07,-0.0312 -0.05,-0.0151 -0.07,0 -0.09,0 l -87.249,0 c -0.011,-0.001 -0.028,-0.003 -0.062,0 -0.018,0.002 -0.066,-0.0105 -0.094,0 -0.014,0.005 -0.015,0.0214 -0.031,0.0312 -0.016,0.01 -0.062,0.0308 -0.063,0.0313 0,5e-4 -0.021,0.0464 -0.031,0.0625 -0.01,0.0161 -0.026,0.0171 -0.031,0.0312 -0.011,0.0283 10e-4,0.0765 0,0.0938 -0.004,0.035 -10e-4,0.051 0,0.062 l 0,0.032 -1.219,68.406 -0.031,1.75 -2.75,0 -2.157,0 c -0.02,-0.003 -0.041,-0.003 -0.062,0 -0.067,0.018 -0.124,0.063 -0.156,0.125 -0.017,0.029 -0.027,0.061 -0.032,0.094 l 0,0.031 0,8.25 c -0.002,0.021 -0.002,0.042 0,0.062 0.019,0.068 0.064,0.124 0.126,0.157 0.028,0.016 0.06,0.027 0.093,0.031 0.011,10e-4 0.021,10e-4 0.031,0 l 24.544,0 -1.183,1.5 -23.892,0 c -0.654,0 -1.219,-0.565 -1.219,-1.219 l 0,-9.343 c 0,-0.655 0.559,-1.188 1.219,-1.188 l 2.719,0 c 0.021,0.003 0.042,0.003 0.062,0 0.068,-0.018 0.124,-0.063 0.157,-0.125 0.016,-0.029 0.027,-0.061 0.031,-0.094 0.001,-0.01 0.001,-0.021 0,-0.031 l 1.219,-68.438 c 0,-1.5266 1.285,-2.812 2.812,-2.812 l 87.249,0 c 1.53,0 2.78,1.251 2.78,2.781 l 1.5,68.469 c 0,0.073 0.04,0.142 0.1,0.188 0.04,0.038 0.09,0.06 0.15,0.062 l 2.75,0 c 0.66,0 1.22,0.533 1.22,1.188 l 0,9.343 c 0,0.654 -0.56,1.219 -1.22,1.219 l -24.751,0 z" style="fill:url(#linearGradient4308);fill-rule:evenodd"/><path id="path3621" d="m 569.17,289.29 98.33,0" style="fill:none;stroke:url(#linearGradient3654)"/><path id="text3658" d="m 597.9,241.08 c -0.15,0 -0.43,-0.18 -0.84,-0.53 -0.36,-0.34 -0.64,-0.63 -0.81,-0.89 -0.78,0.42 -1.47,0.74 -2.06,0.95 -0.59,0.22 -1.09,0.33 -1.48,0.33 -1.9,0 -3.28,-0.54 -4.15,-1.61 -0.82,-1.01 -1.23,-2.55 -1.23,-4.62 0,-1.97 0.67,-3.64 2.02,-5.04 1.36,-1.39 2.97,-2.09 4.84,-2.09 0.71,0 1.5,0.18 2.37,0.55 1.11,0.45 1.66,1 1.66,1.64 0,0.22 -0.08,0.41 -0.25,0.58 -0.08,0.31 -0.14,0.82 -0.19,1.52 -0.04,0.71 -0.07,1.61 -0.07,2.72 -0.01,1 0.06,1.8 0.2,2.38 0.08,0.36 0.34,1.07 0.77,2.14 0.06,0.15 0.15,0.36 0.28,0.65 l 0.07,0.2 c 0,0.33 -0.11,0.59 -0.34,0.81 -0.23,0.21 -0.49,0.31 -0.79,0.31 z m -2.53,-8.45 c 0,-0.35 0.02,-0.73 0.07,-1.14 0.04,-0.41 0.11,-0.85 0.2,-1.31 -0.3,-0.15 -0.56,-0.27 -0.77,-0.34 -0.22,-0.07 -0.39,-0.11 -0.52,-0.11 -1.26,0 -2.34,0.51 -3.26,1.54 -0.91,1.03 -1.36,2.21 -1.36,3.55 0,1.33 0.23,2.32 0.7,2.99 0.47,0.66 1.18,1 2.12,1 0.78,0 1.44,-0.15 1.98,-0.43 0.29,-0.15 0.7,-0.46 1.23,-0.92 -0.26,-2.15 -0.39,-3.76 -0.39,-4.83 z" style="fill:#fff;stroke:#fff;stroke-width:.2"/><path id="text3662" d="m 618.96,244.06 c -1.5,0 -2.87,-0.3 -4.1,-0.89 -0.31,0.47 -0.7,0.71 -1.15,0.71 -0.37,0 -0.69,-0.13 -0.95,-0.39 -0.26,-0.26 -0.39,-0.59 -0.39,-0.98 0,-0.26 0.01,-0.64 0.03,-1.14 0.03,-0.5 0.04,-0.88 0.04,-1.14 0,-1.04 -0.03,-2.6 -0.08,-4.68 -0.06,-2.09 -0.08,-3.65 -0.08,-4.69 0,-0.72 0,-2.08 0.01,-4.08 0.01,-2.01 0.02,-3.37 0.02,-4.1 0,-0.59 0.12,-1.12 0.37,-1.59 0.32,-0.6 0.77,-0.9 1.34,-0.9 0.74,0 1.11,0.42 1.11,1.28 0,0.14 -0.03,0.34 -0.08,0.61 -0.05,0.26 -0.07,0.46 -0.07,0.6 l -0.05,3.23 -0.02,3.77 c 0.85,-0.58 1.67,-1.02 2.44,-1.31 0.77,-0.29 1.5,-0.43 2.18,-0.43 2.11,0 3.83,0.81 5.15,2.43 1.24,1.53 1.86,3.4 1.86,5.63 0,2.24 -0.73,4.14 -2.17,5.71 -1.45,1.56 -3.25,2.35 -5.41,2.35 z m 0.57,-13.33 c -0.81,0 -1.64,0.22 -2.48,0.67 -0.42,0.23 -1.13,0.72 -2.13,1.47 l -0.03,2.55 0.02,2.3 0.01,2.42 c 0.47,0.22 1.14,0.5 1.99,0.83 0.61,0.19 1.3,0.28 2.05,0.28 1.43,0 2.6,-0.5 3.52,-1.5 0.91,-1.01 1.37,-2.26 1.37,-3.75 0,-1.47 -0.37,-2.7 -1.11,-3.68 -0.79,-1.06 -1.87,-1.59 -3.21,-1.59 z" style="fill:#fff;stroke:#fff;stroke-width:.2"/><path id="text3666" d="m 646.96,250.59 c -2.38,0 -4.36,-0.72 -5.95,-2.16 -1.67,-1.51 -2.5,-3.49 -2.5,-5.96 0,-2.36 0.78,-4.78 2.34,-7.29 1.74,-2.78 3.7,-4.17 5.88,-4.17 1.14,0 2.41,0.27 3.81,0.8 1.77,0.68 2.66,1.52 2.66,2.5 0,0.44 -0.15,0.84 -0.44,1.18 -0.29,0.34 -0.65,0.51 -1.07,0.51 -0.34,0 -0.63,-0.1 -0.88,-0.3 -0.25,-0.21 -0.49,-0.41 -0.72,-0.6 -0.69,-0.55 -1.81,-0.82 -3.36,-0.82 -1.18,0 -2.35,1.05 -3.51,3.16 -1.06,1.94 -1.58,3.61 -1.58,5.03 0,1.53 0.52,2.73 1.56,3.61 0.97,0.83 2.23,1.24 3.76,1.24 0.69,0 1.43,-0.19 2.22,-0.56 l 2.02,-1.08 c 0.35,-0.18 0.6,-0.27 0.75,-0.27 0.43,0 0.8,0.17 1.11,0.51 0.31,0.34 0.47,0.73 0.47,1.17 0,0.85 -0.89,1.67 -2.68,2.45 -1.56,0.7 -2.86,1.05 -3.89,1.05 z" style="fill:#fff;stroke:#fff;stroke-width:.2"/><path id="path3972" d="m 574.259,211.071 -1.219,69.281 1,0.032 1.219,-69.313 -1,0 z" style="fill:url(#linearGradient3980);fill-rule:evenodd"/></g><g id="g6598" transform="matrix(0.72671865,0,0,0.72671865,396.65786,-446.84239)"><path id="path116" d="m 290.99097,999.38605 c -1.07936,-0.36579 -1.79981,-1.33292 -1.79981,-2.4165 v -9.0366 h -22.73731 c -3.34763,0 -6.06163,-2.56419 -6.06163,-5.72813 v -29.71685 c 0,-3.16394 2.714,-5.72813 6.06163,-5.72813 h 22.73731 v -7.23785 c 0,-1.08411 0.72045,-2.05177 1.79981,-2.41755 1.07988,-0.36578 2.28733,-0.0514 3.01466,0.78609 l 24.99713,28.72272 c 0.82526,0.94806 0.82421,2.31486 0,3.26293 l -24.99713,28.72377 c -0.72838,0.83744 -1.93478,1.15188 -3.01466,0.7861 z" style="fill:url(#linearGradient5604)"/><path id="path149" d="m 291.90781,985.36559 c -8.56838,0 -25.45396,0 -25.45396,0 -1.84427,0 -3.34472,-1.41867 -3.34472,-3.16077 v -29.71685 c 0,-1.74315 1.50045,-3.16076 3.34472,-3.16076 0,0 17.9607,0 25.45396,0 v -9.80522 l 24.99712,28.72272 -24.99712,28.72484 z" style="fill:url(#radialGradient5615);fill-opacity:1"/><path id="path164" d="m 288.57076,973.27304 c -4.11122,-7.80479 -8.67875,-14.83619 -10.19323,-22.97076 h -12.28549 c -1.07671,0 -1.95279,0.98089 -1.95279,2.18623 v 29.71684 c 0,1.20534 0.87608,2.1857 1.95279,2.1857 h 22.20081 c 1.64126,-3.59113 2.12456,-7.49246 0.27791,-11.11801 z" style="fill:url(#linearGradient5598);fill-opacity:1"/></g><g id="g3498" transform="matrix(0.58012188,0,0,0.58012188,716.13875,-298.56396)"><path style="fill:#000;fill-opacity:0;fill-rule:evenodd;stroke:url(#linearGradient44667);stroke-width:1.5;stroke-linecap:butt;stroke-linejoin:miter;stroke-miterlimit:4;stroke-dasharray:none;stroke-opacity:1" id="path3217" d="m -263.35265,933.74757 c 8.46364,9.0621 14.91528,24.09751 16.80551,38.65267"/><path style="fill:#000;fill-opacity:.50196078;stroke:none;stroke-width:1.33686185;stroke-linecap:square;stroke-linejoin:miter;stroke-miterlimit:4;stroke-dasharray:none;stroke-dashoffset:0;stroke-opacity:1;filter:url(#filter3297)" id="path44010" d="m -237.54657,906.14303 c -14.71669,0 -26.69498,11.97829 -26.69498,26.69498 0,14.71669 11.97829,26.69498 26.69498,26.69498 14.71668,0 26.69497,-11.97829 26.69497,-26.69498 0,-14.71669 -11.97829,-26.69498 -26.69497,-26.69498 z"/><path style="fill:#000;fill-opacity:.50196078;stroke:none;stroke-width:1.5;stroke-linecap:square;stroke-linejoin:miter;stroke-miterlimit:4;stroke-dashoffset:0;stroke-opacity:1;filter:url(#filter3293)" id="path44012" d="m -237.62978,943.41146 c -21.63445,0 -39.1875,17.34747 -39.1875,38.75 v 6.125 c 0,6.05287 6.27536,18.75004 28.90625,18.75004 h 20.53125 c 22.63038,0 28.9375,-12.07968 28.9375,-18.75004 v -6.125 c 0,-21.40254 -17.55305,-38.75 -39.1875,-38.75 z"/><path style="fill:url(#linearGradient44076);fill-opacity:1;stroke:none;stroke-width:1.5;stroke-linecap:square;stroke-linejoin:miter;stroke-miterlimit:4;stroke-dashoffset:0;stroke-opacity:1" id="path44014" d="m -238.37978,942.16146 c -21.63445,0 -39.1875,17.34747 -39.1875,38.75 v 6.125 c 0,6.05287 6.27536,18.75004 28.90625,18.75004 h 20.53125 c 22.63038,0 28.9375,-12.07968 28.9375,-18.75004 v -6.125 c 0,-21.40254 -17.55305,-38.75 -39.1875,-38.75 z"/><path style="fill:url(#radialGradient44073);fill-opacity:1;stroke:none;stroke-width:1.5;stroke-linecap:square;stroke-linejoin:miter;stroke-miterlimit:4;stroke-dashoffset:0;stroke-opacity:1" id="path44016" d="m -238.37978,944.32217 c -20.11022,0 -36.4266,15.9074 -36.4266,35.53322 v 5.61655 c 0,5.55039 5.83324,17.19346 26.8697,17.19346 h 19.08475 c 21.03599,0 26.89875,-11.07683 26.89875,-17.19346 v -5.61655 c 0,-19.62582 -16.31638,-35.53322 -36.4266,-35.53322 z"/><path style="fill:#000;fill-opacity:0;fill-rule:evenodd;stroke:url(#linearGradient44070);stroke-width:1.5;stroke-linecap:butt;stroke-linejoin:miter;stroke-miterlimit:4;stroke-dasharray:none;stroke-opacity:1" id="path44018" d="m -220.89335,951.63335 c 8.46364,9.0621 14.91528,24.09751 16.80551,38.65267"/><path style="fill:#000;fill-opacity:0;fill-rule:evenodd;stroke:url(#linearGradient44067);stroke-width:1.5;stroke-linecap:butt;stroke-linejoin:miter;stroke-miterlimit:4;stroke-dasharray:none;stroke-opacity:1" id="path44020" d="m -255.70476,951.63335 c -8.46364,9.0621 -14.91528,24.09751 -16.80551,38.65267"/><path style="fill:#c5ffbd;fill-opacity:1;fill-rule:evenodd;stroke:url(#linearGradient44613);stroke-width:1px;stroke-linecap:butt;stroke-linejoin:miter;stroke-opacity:1" id="path44022" d="m -245.07157,955.83473 c -2.3027,1.97418 -4.96223,3.5307 -3.72122,8.28271 -5.66073,-1.14662 -9.94971,-8.89011 -6.36208,-14.40472 z"/><path style="fill:url(#linearGradient44691);fill-opacity:1;stroke:none;stroke-width:.85552669;stroke-linecap:square;stroke-linejoin:miter;stroke-miterlimit:4;stroke-dasharray:none;stroke-dashoffset:0;stroke-opacity:1" id="path44024" d="m -36.972118,84.910487 -5.409768,-9.369991 10.819535,-10e-7 z" transform="matrix(1.1784451,0,0,0.9316118,-194.72944,886.86434)"/><path style="fill:url(#radialGradient44061);fill-opacity:1;fill-rule:evenodd;stroke:none;stroke-width:1px;stroke-linecap:butt;stroke-linejoin:miter;stroke-opacity:1" id="path44028" d="m -254.93334,950.41537 9,5.46875 c -0.98816,0.81483 -2.01362,1.64574 -2.75,2.78125 -0.74928,1.1554 -0.98341,2.74156 -0.65625,4.71875 -2.36917,-0.72853 -4.49352,-2.64468 -5.65625,-5.0625 -1.20326,-2.5021 -1.34831,-5.40312 0.0625,-7.90625 z"/><path style="fill:#9dcfff;fill-opacity:1;fill-rule:evenodd;stroke:url(#linearGradient44625);stroke-width:1px;stroke-linecap:butt;stroke-linejoin:miter;stroke-opacity:1" id="path44621" d="m -231.86267,955.83473 c 2.3027,1.97418 4.96223,3.5307 3.72122,8.28271 5.66073,-1.14662 9.94971,-8.89011 6.36208,-14.40472 z"/><path style="fill:url(#radialGradient44048);fill-opacity:1;stroke:url(#linearGradient44677);stroke-width:1.33686185;stroke-linecap:square;stroke-linejoin:miter;stroke-miterlimit:4;stroke-dasharray:none;stroke-dashoffset:0;stroke-opacity:1" id="path44030" d="m 76.945221,64.499184 a 17.165627,17.165627 0 1 1 -34.331253,0 17.165627,17.165627 0 1 1 34.331253,0 z" transform="matrix(1.4960409,0,0,1.4960409,-327.73177,835.09337)"/></g></g></svg>