<svg xmlns="http://www.w3.org/2000/svg" xmlns:svg="http://www.w3.org/2000/svg" xmlns:xlink="http://www.w3.org/1999/xlink" id="svg2" width="128" height="128" version="1.1" viewBox="0 0 128 128"><defs id="defs4"><linearGradient id="linearGradient3807"><stop style="stop-color:#fff;stop-opacity:1" id="stop3809" offset="0"/><stop style="stop-color:#fff;stop-opacity:0" id="stop3811" offset="1"/></linearGradient><linearGradient id="linearGradient3786"><stop style="stop-color:#fff4d2;stop-opacity:1" id="stop3788" offset="0"/><stop style="stop-color:#ffe554;stop-opacity:1" id="stop3790" offset="1"/></linearGradient><linearGradient id="linearGradient3776"><stop style="stop-color:#fdd300;stop-opacity:1" id="stop3778" offset="0"/><stop style="stop-color:#ffb126;stop-opacity:1" id="stop3780" offset="1"/></linearGradient><linearGradient id="linearGradient3744"><stop style="stop-color:#ffdeb2;stop-opacity:1" id="stop3746" offset="0"/><stop style="stop-color:#ffbe68;stop-opacity:1" id="stop3748" offset="1"/></linearGradient><linearGradient id="linearGradient3726"><stop style="stop-color:#ffe4c1;stop-opacity:1" id="stop3728" offset="0"/><stop id="stop3734" offset=".74" style="stop-color:#f6df9a;stop-opacity:1"/><stop style="stop-color:#ffe4c1;stop-opacity:1" id="stop3730" offset="1"/></linearGradient><linearGradient id="linearGradient3704"><stop style="stop-color:#fff1d8;stop-opacity:1" id="stop3706" offset="0"/><stop id="stop3712" offset=".5" style="stop-color:#ffa52e;stop-opacity:1"/><stop style="stop-color:#f97000;stop-opacity:1" id="stop3708" offset="1"/></linearGradient><linearGradient id="linearGradient3686"><stop style="stop-color:#ed5c00;stop-opacity:1" id="stop3688" offset="0"/><stop style="stop-color:#652021;stop-opacity:1" id="stop3690" offset="1"/></linearGradient><linearGradient id="linearGradient3661"><stop style="stop-color:#d71d00;stop-opacity:1" id="stop3663" offset="0"/><stop id="stop3671" offset=".181" style="stop-color:#ff9303;stop-opacity:1"/><stop id="stop3669" offset=".381" style="stop-color:#fff;stop-opacity:1"/><stop style="stop-color:#ffdaa9;stop-opacity:1" id="stop3673" offset=".826"/><stop style="stop-color:#ffa116;stop-opacity:1" id="stop3665" offset="1"/></linearGradient><linearGradient id="linearGradient3628"><stop style="stop-color:#ffbd65;stop-opacity:1" id="stop3630" offset="0"/><stop id="stop3644" offset=".164" style="stop-color:#ffa834;stop-opacity:1"/><stop id="stop3640" offset=".208" style="stop-color:#ff9404;stop-opacity:1"/><stop id="stop3638" offset=".304" style="stop-color:#ffb335;stop-opacity:1"/><stop id="stop3636" offset=".401" style="stop-color:#fff22f;stop-opacity:1"/><stop style="stop-color:#ffc814;stop-opacity:1" id="stop3646" offset=".446"/><stop style="stop-color:#ffcd18;stop-opacity:1" id="stop3632" offset="1"/></linearGradient><linearGradient id="linearGradient2840"><stop style="stop-color:#7b0000;stop-opacity:1" id="stop2842" offset="0"/><stop style="stop-color:#ce0401;stop-opacity:1" id="stop2844" offset="1"/></linearGradient><linearGradient id="linearGradient2846" x1="142.776" x2="142.776" y1="1044.115" y2="944.915" gradientTransform="translate(40,0)" gradientUnits="userSpaceOnUse" xlink:href="#linearGradient2840"/><radialGradient id="radialGradient3634" cx="124.003" cy="1032.632" r="53.436" fx="124.003" fy="1032.632" gradientTransform="matrix(5.0147508,0,0,4.4432415,-437.84225,-3535.327)" gradientUnits="userSpaceOnUse" xlink:href="#linearGradient3628"/><radialGradient id="radialGradient3650" cx="124.003" cy="1032.632" r="53.436" fx="124.003" fy="1032.632" gradientTransform="matrix(5.0147508,0,0,4.4432415,-437.84225,-3535.327)" gradientUnits="userSpaceOnUse" xlink:href="#linearGradient3628"/><radialGradient id="radialGradient3656" cx="124.003" cy="1032.632" r="53.436" fx="124.003" fy="1032.632" gradientTransform="matrix(5.0147508,0,0,4.4432415,-557.84225,-4459.6892)" gradientUnits="userSpaceOnUse" xlink:href="#linearGradient3628"/><linearGradient id="linearGradient3667" x1="130.562" x2="237.406" y1="1024.987" y2="1024.987" gradientUnits="userSpaceOnUse" xlink:href="#linearGradient3661"/><radialGradient id="radialGradient3679" cx="124.003" cy="1032.632" r="53.436" fx="124.003" fy="1032.632" gradientTransform="matrix(5.0147508,0,0,4.4432415,-437.84225,-4459.6892)" gradientUnits="userSpaceOnUse" xlink:href="#linearGradient3628"/><linearGradient id="linearGradient3692" x1="183.991" x2="183.991" y1="117.201" y2="102" gradientUnits="userSpaceOnUse" xlink:href="#linearGradient3686"/><radialGradient id="radialGradient3710" cx="183.906" cy="1045.378" r="14.531" fx="183.906" fy="1045.378" gradientTransform="matrix(1,0,0,1.1118318,0,-123.35957)" gradientUnits="userSpaceOnUse" xlink:href="#linearGradient3704"/><linearGradient id="linearGradient3732" x1="31.022" x2="31.022" y1="996.915" y2="948.917" gradientTransform="translate(140,0)" gradientUnits="userSpaceOnUse" xlink:href="#linearGradient3726"/><linearGradient id="linearGradient3750" x1="84.389" x2="84.389" y1="1001.612" y2="1014.564" gradientTransform="translate(100,0)" gradientUnits="userSpaceOnUse" xlink:href="#linearGradient3744"/><linearGradient id="linearGradient3762" x1="51.119" x2="78.282" y1="24.851" y2="24.851" gradientUnits="userSpaceOnUse" xlink:href="#linearGradient2840"/><linearGradient id="linearGradient3782" x1="64.7" x2="64.7" y1="24.851" y2="8.499" gradientUnits="userSpaceOnUse" xlink:href="#linearGradient3776"/><linearGradient id="linearGradient3792" x1="64.258" x2="64.258" y1="12.211" y2="21.846" gradientUnits="userSpaceOnUse" xlink:href="#linearGradient3786"/><linearGradient id="linearGradient3799" x1="51.119" x2="78.282" y1="24.851" y2="24.851" gradientUnits="userSpaceOnUse" xlink:href="#linearGradient2840"/><linearGradient id="linearGradient3801" x1="64.7" x2="64.7" y1="24.851" y2="8.499" gradientUnits="userSpaceOnUse" xlink:href="#linearGradient3776"/><linearGradient id="linearGradient3803" x1="64.258" x2="64.258" y1="12.211" y2="21.846" gradientUnits="userSpaceOnUse" xlink:href="#linearGradient3786"/><radialGradient id="radialGradient3813" cx="64.7" cy="15.096" r="23.455" fx="64.7" fy="15.096" gradientTransform="matrix(2.009958,0,0,1.2422224,-65.344556,5.302125)" gradientUnits="userSpaceOnUse" xlink:href="#linearGradient3807"/><linearGradient id="linearGradient3864" x1="51.119" x2="78.282" y1="24.851" y2="24.851" gradientUnits="userSpaceOnUse" xlink:href="#linearGradient2840"/><linearGradient id="linearGradient3866" x1="64.7" x2="64.7" y1="24.851" y2="8.499" gradientUnits="userSpaceOnUse" xlink:href="#linearGradient3776"/><linearGradient id="linearGradient3868" x1="64.258" x2="64.258" y1="12.211" y2="21.846" gradientUnits="userSpaceOnUse" xlink:href="#linearGradient3786"/><linearGradient id="linearGradient3870" x1="142.776" x2="142.776" y1="1044.115" y2="944.915" gradientTransform="translate(40,0)" gradientUnits="userSpaceOnUse" xlink:href="#linearGradient2840"/><radialGradient id="radialGradient3872" cx="124.003" cy="1032.632" r="53.436" fx="124.003" fy="1032.632" gradientTransform="matrix(5.0147508,0,0,4.4432415,-437.84225,-3535.327)" gradientUnits="userSpaceOnUse" xlink:href="#linearGradient3628"/><radialGradient id="radialGradient3874" cx="124.003" cy="1032.632" r="53.436" fx="124.003" fy="1032.632" gradientTransform="matrix(5.0147508,0,0,4.4432415,-437.84225,-3535.327)" gradientUnits="userSpaceOnUse" xlink:href="#linearGradient3628"/><linearGradient id="linearGradient3876" x1="183.991" x2="183.991" y1="117.201" y2="102" gradientUnits="userSpaceOnUse" xlink:href="#linearGradient3686"/><radialGradient id="radialGradient3878" cx="183.906" cy="1045.378" r="14.531" fx="183.906" fy="1045.378" gradientTransform="matrix(1,0,0,1.1118318,0,-123.35957)" gradientUnits="userSpaceOnUse" xlink:href="#linearGradient3704"/><linearGradient id="linearGradient3880" x1="130.562" x2="237.406" y1="1024.987" y2="1024.987" gradientUnits="userSpaceOnUse" xlink:href="#linearGradient3661"/><linearGradient id="linearGradient3882" x1="31.022" x2="31.022" y1="996.915" y2="948.917" gradientTransform="translate(140,0)" gradientUnits="userSpaceOnUse" xlink:href="#linearGradient3726"/><linearGradient id="linearGradient3884" x1="84.389" x2="84.389" y1="1001.612" y2="1014.564" gradientTransform="translate(100,0)" gradientUnits="userSpaceOnUse" xlink:href="#linearGradient3744"/><radialGradient id="radialGradient3886" cx="64.7" cy="15.096" r="23.455" fx="64.7" fy="15.096" gradientTransform="matrix(2.009958,0,0,1.2422224,-65.344556,5.302125)" gradientUnits="userSpaceOnUse" xlink:href="#linearGradient3807"/><linearGradient id="linearGradient3890" x1="84.389" x2="84.389" y1="1001.612" y2="1014.564" gradientTransform="translate(100,-100)" gradientUnits="userSpaceOnUse" xlink:href="#linearGradient3744"/><linearGradient id="linearGradient3893" x1="31.022" x2="31.022" y1="996.915" y2="948.917" gradientTransform="translate(140,-100)" gradientUnits="userSpaceOnUse" xlink:href="#linearGradient3726"/><linearGradient id="linearGradient3896" x1="130.562" x2="237.406" y1="1024.987" y2="1024.987" gradientTransform="translate(0,-100)" gradientUnits="userSpaceOnUse" xlink:href="#linearGradient3661"/><radialGradient id="radialGradient3900" cx="183.906" cy="1045.378" r="14.531" fx="183.906" fy="1045.378" gradientTransform="matrix(1,0,0,1.1118318,0,-223.35957)" gradientUnits="userSpaceOnUse" xlink:href="#linearGradient3704"/><linearGradient id="linearGradient3904" x1="183.991" x2="183.991" y1="117.201" y2="102" gradientTransform="translate(0,824.36218)" gradientUnits="userSpaceOnUse" xlink:href="#linearGradient3686"/><radialGradient id="radialGradient3907" cx="124.003" cy="1032.632" r="53.436" fx="124.003" fy="1032.632" gradientTransform="matrix(5.0147508,0,0,4.4432415,-437.84225,-3635.327)" gradientUnits="userSpaceOnUse" xlink:href="#linearGradient3628"/><radialGradient id="radialGradient3910" cx="124.003" cy="1032.632" r="53.436" fx="124.003" fy="1032.632" gradientTransform="matrix(5.0147508,0,0,4.4432415,-437.84225,-3635.327)" gradientUnits="userSpaceOnUse" xlink:href="#linearGradient3628"/><linearGradient id="linearGradient3913" x1="142.776" x2="142.776" y1="1044.115" y2="944.915" gradientTransform="translate(40,-100)" gradientUnits="userSpaceOnUse" xlink:href="#linearGradient2840"/><radialGradient id="radialGradient3919" cx="64.7" cy="15.096" r="23.455" fx="64.7" fy="15.096" gradientTransform="matrix(2.009958,0,0,1.2422224,-65.344556,5.302125)" gradientUnits="userSpaceOnUse" xlink:href="#linearGradient3807"/><linearGradient id="linearGradient3921" x1="51.119" x2="78.282" y1="24.851" y2="24.851" gradientUnits="userSpaceOnUse" xlink:href="#linearGradient2840"/><linearGradient id="linearGradient3923" x1="64.7" x2="64.7" y1="24.851" y2="8.499" gradientUnits="userSpaceOnUse" xlink:href="#linearGradient3776"/><linearGradient id="linearGradient3925" x1="64.258" x2="64.258" y1="12.211" y2="21.846" gradientUnits="userSpaceOnUse" xlink:href="#linearGradient3786"/><linearGradient id="linearGradient3930" x1="51.119" x2="78.282" y1="24.851" y2="24.851" gradientTransform="matrix(1.0464335,0,0,0.99930895,116.37702,-99.98283)" gradientUnits="userSpaceOnUse" xlink:href="#linearGradient2840"/><linearGradient id="linearGradient3978" x1="51.119" x2="78.282" y1="24.851" y2="24.851" gradientUnits="userSpaceOnUse" xlink:href="#linearGradient2840"/><linearGradient id="linearGradient3980" x1="64.7" x2="64.7" y1="24.851" y2="8.499" gradientUnits="userSpaceOnUse" xlink:href="#linearGradient3776"/><linearGradient id="linearGradient3982" x1="64.258" x2="64.258" y1="12.211" y2="21.846" gradientUnits="userSpaceOnUse" xlink:href="#linearGradient3786"/><linearGradient id="linearGradient3984" x1="142.776" x2="142.776" y1="1044.115" y2="944.915" gradientTransform="translate(40,0)" gradientUnits="userSpaceOnUse" xlink:href="#linearGradient2840"/><radialGradient id="radialGradient3986" cx="124.003" cy="1032.632" r="53.436" fx="124.003" fy="1032.632" gradientTransform="matrix(5.0147508,0,0,4.4432415,-437.84225,-3535.327)" gradientUnits="userSpaceOnUse" xlink:href="#linearGradient3628"/><radialGradient id="radialGradient3988" cx="124.003" cy="1032.632" r="53.436" fx="124.003" fy="1032.632" gradientTransform="matrix(5.0147508,0,0,4.4432415,-437.84225,-3535.327)" gradientUnits="userSpaceOnUse" xlink:href="#linearGradient3628"/><linearGradient id="linearGradient3990" x1="183.991" x2="183.991" y1="117.201" y2="102" gradientUnits="userSpaceOnUse" xlink:href="#linearGradient3686"/><radialGradient id="radialGradient3992" cx="183.906" cy="1045.378" r="14.531" fx="183.906" fy="1045.378" gradientTransform="matrix(1,0,0,1.1118318,0,-123.35957)" gradientUnits="userSpaceOnUse" xlink:href="#linearGradient3704"/><linearGradient id="linearGradient3994" x1="130.562" x2="237.406" y1="1024.987" y2="1024.987" gradientUnits="userSpaceOnUse" xlink:href="#linearGradient3661"/><linearGradient id="linearGradient3996" x1="31.022" x2="31.022" y1="996.915" y2="948.917" gradientTransform="translate(140,0)" gradientUnits="userSpaceOnUse" xlink:href="#linearGradient3726"/><linearGradient id="linearGradient3998" x1="84.389" x2="84.389" y1="1001.612" y2="1014.564" gradientTransform="translate(100,0)" gradientUnits="userSpaceOnUse" xlink:href="#linearGradient3744"/><radialGradient id="radialGradient4000" cx="64.7" cy="15.096" r="23.455" fx="64.7" fy="15.096" gradientTransform="matrix(2.009958,0,0,1.2422224,-65.344556,5.302125)" gradientUnits="userSpaceOnUse" xlink:href="#linearGradient3807"/></defs><metadata id="metadata7"/><g id="layer1" transform="translate(0,-924.36218)"><g id="g3953" transform="translate(-120,0)"><g style="opacity:.9567308" id="g3945" transform="matrix(0.99212275,0,0,0.99212275,-118.03437,7.3560264)"><path style="opacity:.3;fill:#000;fill-opacity:1;fill-rule:evenodd;stroke:none" id="path3836" d="m 306.09375,934.86218 c -6.8783,0 -12.5602,6.07999 -13.53125,13.96875 -0.64603,0.19815 -1.2945,0.39478 -1.90625,0.625 -0.62295,4.3e-4 -3.88379,1.29897 -7.28125,2.90625 -6.99698,3.31014 -6.09643,0.87358 -8.3125,22.375 -0.61071,5.92546 -2.25098,15.30233 -3.65625,20.875 l -2.5625,10.15622 -7.25,7.0938 c -6.9356,6.7848 -7.36646,7.4465 -9.4375,15.2187 -1.19105,4.4698 -1.85038,8.8683 -1.5,9.7813 1.32217,3.4456 9.67629,5.9097 25.59375,7.5625 4.55847,0.4729 20.43125,0.7312 35.28125,0.5625 27.76977,-0.3155 41.12701,-1.7497 47.59375,-5.0938 3.47374,-1.7963 3.65436,-3.7642 1.1875,-13.2812 -1.56581,-6.0408 -2.4251,-7.3746 -9.125,-14.1563 -7.31524,-7.4046 -7.41962,-7.56 -9.6875,-16.71872 -2.20226,-8.89371 -3.74046,-18.85119 -5.25,-33.78125 l -0.71875,-7 -7.78125,-4 c -2.26808,-1.4207 -5.07792,-2.54908 -8.1875,-3.375 -1.05925,-7.76645 -6.66322,-13.71875 -13.46875,-13.71875 z"/><path id="path3935" d="m 305.84375,934.61218 c -6.8783,0 -12.5602,6.07999 -13.53125,13.96875 -0.64603,0.19815 -1.2945,0.39478 -1.90625,0.625 -0.62295,4.3e-4 -3.88379,1.29897 -7.28125,2.90625 -6.99698,3.31014 -6.09643,0.87358 -8.3125,22.375 -0.61071,5.92546 -2.25098,15.30233 -3.65625,20.875 l -2.5625,10.15622 -7.25,7.0938 c -6.9356,6.7848 -7.36646,7.4465 -9.4375,15.2187 -1.19105,4.4698 -1.85038,8.8683 -1.5,9.7813 1.32217,3.4456 9.67629,5.9097 25.59375,7.5625 4.55847,0.4729 20.43125,0.7312 35.28125,0.5625 27.76977,-0.3155 41.12701,-1.7497 47.59375,-5.0938 3.47374,-1.7963 3.65436,-3.7642 1.1875,-13.2812 -1.56581,-6.0408 -2.4251,-7.3746 -9.125,-14.1563 -7.31524,-7.4046 -7.41962,-7.56 -9.6875,-16.71872 -2.20226,-8.89371 -3.74046,-18.85119 -5.25,-33.78125 l -0.71875,-7 -7.78125,-4 c -2.26808,-1.4207 -5.07792,-2.54908 -8.1875,-3.375 -1.05925,-7.76645 -6.66322,-13.71875 -13.46875,-13.71875 z" style="opacity:.3;fill:#000;fill-opacity:1;fill-rule:evenodd;stroke:none"/><path style="opacity:.3;fill:#000;fill-opacity:1;fill-rule:evenodd;stroke:none" id="path3937" d="m 305.59375,934.36218 c -6.8783,0 -12.5602,6.07999 -13.53125,13.96875 -0.64603,0.19815 -1.2945,0.39478 -1.90625,0.625 -0.62295,4.3e-4 -3.88379,1.29897 -7.28125,2.90625 -6.99698,3.31014 -6.09643,0.87358 -8.3125,22.375 -0.61071,5.92546 -2.25098,15.30233 -3.65625,20.875 l -2.5625,10.15622 -7.25,7.0938 c -6.9356,6.7848 -7.36646,7.4465 -9.4375,15.2187 -1.19105,4.4698 -1.85038,8.8683 -1.5,9.7813 1.32217,3.4456 9.67629,5.9097 25.59375,7.5625 4.55847,0.4729 20.43125,0.7312 35.28125,0.5625 27.76977,-0.3155 41.12701,-1.7497 47.59375,-5.0938 3.47374,-1.7963 3.65436,-3.7642 1.1875,-13.2812 -1.56581,-6.0408 -2.4251,-7.3746 -9.125,-14.1563 -7.31524,-7.4046 -7.41962,-7.56 -9.6875,-16.71872 -2.20226,-8.89371 -3.74046,-18.85119 -5.25,-33.78125 l -0.71875,-7 -7.78125,-4 c -2.26808,-1.4207 -5.07792,-2.54908 -8.1875,-3.375 -1.05925,-7.76645 -6.66322,-13.71875 -13.46875,-13.71875 z"/><path id="path3939" d="m 305.41697,934.1854 c -6.8783,0 -12.5602,6.07999 -13.53125,13.96875 -0.64603,0.19815 -1.2945,0.39478 -1.90625,0.625 -0.62295,4.3e-4 -3.88379,1.29897 -7.28125,2.90625 -6.99698,3.31014 -6.09643,0.87358 -8.3125,22.375 -0.61071,5.92546 -2.25098,15.30233 -3.65625,20.875 l -2.5625,10.1562 -7.25,7.0938 c -6.9356,6.7848 -7.36646,7.4465 -9.4375,15.2187 -1.19105,4.4698 -1.85038,8.8683 -1.5,9.7813 1.32217,3.4456 9.67629,5.9097 25.59375,7.5625 4.55847,0.4729 20.43125,0.7312 35.28125,0.5625 27.76977,-0.3155 41.12701,-1.7497 47.59375,-5.0938 3.47374,-1.7963 3.65436,-3.7642 1.1875,-13.2812 -1.56581,-6.0408 -2.4251,-7.3746 -9.125,-14.1563 -7.31524,-7.4046 -7.41962,-7.56 -9.6875,-16.7187 -2.20226,-8.89371 -3.74046,-18.85119 -5.25,-33.78125 l -0.71875,-7 -7.78125,-4 c -2.26808,-1.4207 -5.07792,-2.54908 -8.1875,-3.375 -1.05925,-7.76645 -6.66322,-13.71875 -13.46875,-13.71875 z" style="opacity:.3;fill:#000;fill-opacity:1;fill-rule:evenodd;stroke:none"/><path style="opacity:.3;fill:#000;fill-opacity:1;fill-rule:evenodd;stroke:none" id="path3941" d="m 305.24019,934.00862 c -6.8783,0 -12.5602,6.07999 -13.53125,13.96875 -0.64603,0.19815 -1.2945,0.39478 -1.90625,0.625 -0.62295,4.3e-4 -3.88379,1.29897 -7.28125,2.90625 -6.99698,3.31014 -6.09643,0.87358 -8.3125,22.375 -0.61071,5.92546 -2.25098,15.30233 -3.65625,20.875 l -2.5625,10.15618 -7.25,7.0938 c -6.9356,6.7848 -7.36646,7.4465 -9.4375,15.2187 -1.19105,4.4698 -1.85038,8.8683 -1.5,9.7813 1.32217,3.4456 9.67629,5.9097 25.59375,7.5625 4.55847,0.4729 20.43125,0.7312 35.28125,0.5625 27.76977,-0.3155 41.12701,-1.7497 47.59375,-5.0938 3.47374,-1.7963 3.65436,-3.7642 1.1875,-13.2812 -1.56581,-6.0408 -2.4251,-7.3746 -9.125,-14.1563 -7.31524,-7.4046 -7.41962,-7.56 -9.6875,-16.71868 -2.20226,-8.89371 -3.74046,-18.85119 -5.25,-33.78125 l -0.71875,-7 -7.78125,-4 c -2.26808,-1.4207 -5.07792,-2.54908 -8.1875,-3.375 -1.05925,-7.76645 -6.66322,-13.71875 -13.46875,-13.71875 z"/><path id="path3943" d="m 305.06341,933.83184 c -6.8783,0 -12.5602,6.07999 -13.53125,13.96875 -0.64603,0.19815 -1.2945,0.39478 -1.90625,0.625 -0.62295,4.3e-4 -3.88379,1.29897 -7.28125,2.90625 -6.99698,3.31014 -6.09643,0.87358 -8.3125,22.375 -0.61071,5.92546 -2.25098,15.30233 -3.65625,20.875 l -2.5625,10.15616 -7.25,7.0938 c -6.9356,6.7848 -7.36646,7.4465 -9.4375,15.2187 -1.19105,4.4698 -1.85038,8.8683 -1.5,9.7813 1.32217,3.4456 9.67629,5.9097 25.59375,7.5625 4.55847,0.4729 20.43125,0.7312 35.28125,0.5625 27.76977,-0.3155 41.12701,-1.7497 47.59375,-5.0938 3.47374,-1.7963 3.65436,-3.7642 1.1875,-13.2812 -1.56581,-6.0408 -2.4251,-7.3746 -9.125,-14.1563 -7.31524,-7.4046 -7.41962,-7.56 -9.6875,-16.71866 -2.20226,-8.89371 -3.74046,-18.85119 -5.25,-33.78125 l -0.71875,-7 -7.78125,-4 c -2.26808,-1.4207 -5.07792,-2.54908 -8.1875,-3.375 -1.05925,-7.76645 -6.66322,-13.71875 -13.46875,-13.71875 z" style="opacity:.3;fill:#000;fill-opacity:1;fill-rule:evenodd;stroke:none"/></g><g id="g3815"><g id="g3794" transform="translate(80,0)"><path id="path3754" d="m 77.781747,24.850798 c 0,9.030874 -5.856776,16.351844 -13.081475,16.351844 -7.2247,0 -13.081476,-7.32097 -13.081476,-16.351844 0,-9.030875 5.856776,-16.3518451 13.081476,-16.3518451 7.224699,0 13.081475,7.3209701 13.081475,16.3518451 z" transform="matrix(1.0464335,0,0,0.99930895,36.377022,924.37935)" style="fill:url(#linearGradient3978);fill-opacity:1;fill-rule:evenodd;stroke:none"/><path style="fill:url(#linearGradient3980);fill-opacity:1;fill-rule:evenodd;stroke:none" id="path3764" d="m 77.781747,24.850798 c 0,9.030874 -5.856776,16.351844 -13.081475,16.351844 -7.2247,0 -13.081476,-7.32097 -13.081476,-16.351844 0,-9.030875 5.856776,-16.3518451 13.081476,-16.3518451 7.224699,0 13.081475,7.3209701 13.081475,16.3518451 z" transform="matrix(0.93322733,0,0,0.89120084,43.701492,927.06592)"/><path id="path3784" d="m 71.506176,17.028429 c 0,2.660447 -3.244971,4.817165 -7.247845,4.817165 -4.002874,0 -7.247844,-2.156718 -7.247844,-4.817165 0,-2.660447 3.24497,-4.817165 7.247844,-4.817165 4.002874,0 7.247845,2.156718 7.247845,4.817165 z" transform="translate(40,924.36218)" style="fill:url(#linearGradient3982);fill-opacity:1;fill-rule:evenodd;stroke:none"/></g><path style="fill:url(#linearGradient3984);fill-opacity:1" id="path2838" d="m 154.24945,1043.4346 c -15.91746,-1.6528 -24.28437,-4.1271 -25.60654,-7.5727 -0.35038,-0.913 0.33744,-5.3172 1.52849,-9.787 2.07104,-7.7722 2.48198,-8.4364 9.41758,-15.2212 l 7.25204,-7.0943 2.55504,-10.13209 c 1.40527,-5.57267 3.05472,-14.98023 3.66543,-20.90569 2.21607,-21.50142 1.30192,-19.03952 8.2989,-22.34966 3.39746,-1.60728 6.68689,-2.92268 7.30984,-2.92311 11.08991,-4.17346 28.20559,-3.05271 37.06897,2.49921 l 7.79838,4 0.70775,7 c 1.50954,14.93006 3.0612,24.88923 5.26346,33.78294 2.26788,9.1587 2.36749,9.3309 9.68273,16.7355 6.6999,6.7817 7.55286,8.1049 9.11867,14.1457 2.46686,9.517 2.29099,11.4931 -1.18275,13.2894 -6.46674,3.3441 -19.82009,4.7714 -47.58986,5.0869 -14.85,0.1687 -30.72966,-0.081 -35.28813,-0.5539 z"/><path style="fill:url(#radialGradient3986);fill-opacity:1" id="path2848" d="m 181.50433,946.99933 c -8.33435,0.39952 -17.06349,3.12362 -24.0714,7.77021 -2.8511,11.999 -2.32666,24.76472 -5.6602,36.79968 -1.72967,6.673 -2.05155,14.23118 -8.58696,18.17158 -6.01388,4.9257 -10.88488,11.0513 -11.7359,19.0047 -0.75192,2.8369 -2.22872,7.3021 1.91165,8.0152 20.7909,6.9126 43.24028,4.2419 64.84272,4.5516 12.96505,-0.9608 26.84394,0.4381 38.62701,-5.3597 1.90442,-4.2685 -1.1967,-9.5242 -2.0526,-13.862 -4.29414,-9.286 -15.9186,-14.0324 -17.10221,-25.05137 -3.6071,-13.7358 -4.97433,-27.79286 -6.4405,-41.86564 -9.14344,-5.61292 -18.88599,-8.99795 -29.73161,-8.17426 z"/><path id="path3648" d="m 181.50433,946.99933 c -8.33435,0.39952 -17.06349,3.12362 -24.0714,7.77021 -2.8511,11.999 -2.32666,24.76472 -5.6602,36.79968 -1.72967,6.673 -2.05155,14.23118 -8.58696,18.17158 -6.01388,4.9257 -10.88488,11.0513 -11.7359,19.0047 -0.75192,2.8369 -2.22872,7.3021 1.91165,8.0152 20.7909,6.9126 43.24028,4.2419 64.84272,4.5516 12.96505,-0.9608 26.84394,0.4381 38.62701,-5.3597 1.90442,-4.2685 -1.1967,-9.5242 -2.0526,-13.862 -4.29414,-9.286 -15.9186,-14.0324 -17.10221,-25.05137 -3.6071,-13.7358 -4.97433,-27.79286 -6.4405,-41.86564 -9.14344,-5.61292 -18.88599,-8.99795 -29.73161,-8.17426 z" style="fill:url(#radialGradient3988);fill-opacity:1"/><path style="fill:url(#linearGradient3990);fill-opacity:1" id="path3684" d="m 237.34375,107.6875 c -1.67994,-0.47319 -3.97438,-1.07042 -6.96875,-1.6875 -3.01975,-0.62231 -6.73093,-1.28287 -11.15625,-1.875 -4.42532,-0.59213 -9.56881,-1.1153 -15.46875,-1.5 -5.89994,-0.3847 -12.5564,-0.625 -20,-0.625 -8.15808,0 -15.22399,0.28586 -21.3125,0.75 -6.08851,0.46414 -11.2018,1.09119 -15.46875,1.8125 -4.26695,0.72131 -7.6816,1.54098 -10.375,2.3125 -2.68099,0.76796 -4.63293,1.51189 -6,2.125 0.009,1.63968 0.63198,3.03608 2.78125,3.40625 20.7909,6.9126 43.24131,4.22155 64.84375,4.53125 12.96505,-0.9608 26.84193,0.45405 38.625,-5.34375 0.54783,-1.22788 0.60799,-2.56033 0.5,-3.90625 z" transform="translate(0,924.36218)"/><path style="opacity:.2692308;fill:#000;fill-opacity:1;fill-rule:evenodd;stroke:none" id="path3714" d="m 170.85203,1021.5691 c -3.11843,0.9693 -2.92836,6.5215 -1.77235,9.5088 4.8127,12.7705 26.6585,12.0374 30.07368,-1.3785 0.90463,-3.6224 0.23687,-10.1134 -4.97938,-8.3067 -7.77398,0.059 -15.54796,0.1176 -23.32195,0.1764 z"/><path style="fill:url(#radialGradient3992);fill-opacity:1;fill-rule:evenodd;stroke:none" id="path3702" d="m 170.15625,1022.9872 c -0.45816,1.1845 -0.78125,2.4374 -0.78125,3.75 0,6.7271 6.50847,12.1875 14.53125,12.1875 8.02278,0 14.53125,-5.4604 14.53125,-12.1875 0,-1.3948 -0.36029,-2.7208 -0.875,-3.9688 l -27.40625,0.2188 z"/><path id="path3718" d="m 185.25,1017.5814 c -33.10331,0 -51.30849,4.2128 -51.46875,4.25 -1.20983,2.4144 -2.03804,5.0179 -2.34375,7.875 -0.36112,1.3624 -0.88202,3.1074 -0.875,4.625 5.47143,-2.459 20.55519,-7 53.1875,-7 29.77439,0 46.92333,3.7866 53.65625,5.6875 -0.26835,-3.3319 -2.01552,-6.8799 -2.625,-9.9688 -0.21906,-0.4737 -0.4639,-0.9235 -0.71875,-1.375 -12.35897,-1.9198 -30.34766,-4.0937 -48.8125,-4.0937 z" style="opacity:.27000002;fill:#000;fill-opacity:1"/><path style="fill:url(#linearGradient3994);fill-opacity:1" id="path3654" d="m 185.25,1016.6122 c -33.10331,0 -51.30849,4.2128 -51.46875,4.25 -1.20983,2.4144 -2.03804,5.0179 -2.34375,7.875 -0.36112,1.3624 -0.88202,3.1074 -0.875,4.625 5.47143,-2.459 20.55519,-7 53.1875,-7 29.77439,0 46.92333,3.7866 53.65625,5.6875 -0.26835,-3.3319 -2.01552,-6.8799 -2.625,-9.9688 -0.21906,-0.4737 -0.4639,-0.9235 -0.71875,-1.375 -12.35897,-1.9198 -30.34766,-4.0937 -48.8125,-4.0937 z"/><path style="fill:url(#linearGradient3996);fill-opacity:1;stroke:none" id="path3724" d="m 179.08631,948.91748 -16.12957,7.1014 4.51408,40.89608 0.56066,-38.4212 11.05483,-9.57628 z"/><path style="fill:url(#linearGradient3998);fill-opacity:1;stroke:none" id="path3742" d="m 217.5,1013.2372 c -11.37681,-6.0333 -27.4664,-8.835 -50.5,-6.875 l 0,-4.75 c 0,0 -5.25,8.375 -14.875,11.5 -9.625,3.125 65.75,0.25 65.375,0.125 z"/><path style="opacity:.7067308;fill:url(#radialGradient4000);fill-opacity:1;fill-rule:evenodd;stroke:none" id="path3805" d="m 88.154789,38.550991 c 0,8.005748 -10.500945,14.495689 -23.454517,14.495689 -12.953573,0 -23.454518,-6.489941 -23.454518,-14.495689 0,-8.005748 10.500945,-14.495689 23.454518,-14.495689 12.953572,0 23.454517,6.489941 23.454517,14.495689 z" transform="translate(120,922.94797)"/></g></g></g></svg>