<svg xmlns="http://www.w3.org/2000/svg" xmlns:svg="http://www.w3.org/2000/svg" xmlns:xlink="http://www.w3.org/1999/xlink" id="svg2" width="120" height="120" version="1.1" viewBox="0 0 120 120"><defs id="defs4"><linearGradient id="linearGradient4172"><stop style="stop-color:#70a9ad;stop-opacity:1" id="stop4174" offset="0"/><stop style="stop-color:#a3cad2;stop-opacity:1" id="stop4176" offset="1"/></linearGradient><linearGradient id="linearGradient4162"><stop style="stop-color:#e6e6e6;stop-opacity:1" id="stop4164" offset="0"/><stop style="stop-color:#fff;stop-opacity:1" id="stop4166" offset="1"/></linearGradient><linearGradient id="linearGradient4168" x1="66.55" x2="66.55" y1="1035.014" y2="952.116" gradientTransform="matrix(1.2400694,0,0,1.1935911,-13.248449,-192.15917)" gradientUnits="userSpaceOnUse" xlink:href="#linearGradient4162"/><linearGradient id="linearGradient4178" x1="35.476" x2="35.476" y1="1001.071" y2="970.587" gradientTransform="matrix(1.1993158,0,0,1.1993158,-10.375607,-195.51155)" gradientUnits="userSpaceOnUse" xlink:href="#linearGradient4172"/><clipPath id="clipPath4262" clipPathUnits="userSpaceOnUse"><path style="opacity:1;fill:url(#linearGradient4266);fill-opacity:1;stroke:none;stroke-width:.41800001;stroke-linecap:round;stroke-linejoin:round;stroke-miterlimit:4;stroke-dasharray:none;stroke-dashoffset:0;stroke-opacity:1" id="path4264" d="m -185.92437,-46.449824 19.83975,0 c 1.64197,0 2.96386,1.321887 2.96386,2.963861 l 0,19.981329 c 0,1.641983 -1.32189,2.963902 -2.96386,2.963902 l -19.83975,0 c -1.64198,0 -2.96387,-1.321919 -2.96387,-2.963902 l 0,-19.981329 c 0,-1.641974 1.32189,-2.963861 2.96387,-2.963861 z"/></clipPath><linearGradient id="linearGradient4266" x1="35.476" x2="35.476" y1="1001.071" y2="970.587" gradientTransform="matrix(0.82759123,0,0,0.82759123,-206.83537,-848.95823)" gradientUnits="userSpaceOnUse" xlink:href="#linearGradient4172"/></defs><metadata id="metadata7"/><g id="layer1" transform="translate(0,-932.36213)"><g id="g4250"><rect id="rect4287" width="120" height="120" x="0" y="932.362" ry="0" style="opacity:1;fill:#afdde9;fill-opacity:0;stroke:none;stroke-width:.41800001;stroke-linecap:round;stroke-linejoin:round;stroke-miterlimit:4;stroke-dasharray:none;stroke-dashoffset:0;stroke-opacity:1"/><path id="rect4136" d="m 13.858727,953.89117 c -4.9933047,0 -9.0130239,4.01965 -9.0130239,9.01303 l 0,58.9159 c 0,4.9929 4.0197192,9.013 9.0130239,9.013 l 17.962394,0 a 8.0955297,8.0955297 0 0 1 -0.07957,-1.0583 8.0955297,8.0955297 0 0 1 8.096008,-8.096 8.0955297,8.0955297 0 0 1 8.094018,8.096 8.0955297,8.0955297 0 0 1 -0.07758,1.0583 l 26.742683,0 a 8.0955297,8.0955297 0 0 1 -0.07957,-1.0583 8.0955297,8.0955297 0 0 1 8.096007,-8.096 8.0955297,8.0955297 0 0 1 8.094019,8.096 8.0955297,8.0955297 0 0 1 -0.07758,1.0583 l 15.511714,0 c 4.99335,0 9.01302,-4.0201 9.01302,-9.013 l 0,-58.9159 c 0,-4.99338 -4.01967,-9.01303 -9.01302,-9.01303 l -92.282549,0 z" style="opacity:1;fill:#08a;fill-opacity:.96078431;stroke:none;stroke-width:.41800001;stroke-linecap:round;stroke-linejoin:round;stroke-miterlimit:4;stroke-dasharray:none;stroke-dashoffset:0;stroke-opacity:1"/><path id="path4158" d="m 16.016114,957.01643 c -4.732567,0 -8.5418074,3.6675 -8.5418074,8.22265 l 0,53.74412 c 0,4.555 3.8092404,8.2227 8.5418074,8.2227 l 12.960396,0 a 11.112398,10.94875 0 0 1 10.934467,-9.0586 11.112398,10.94875 0 0 1 10.944377,9.0586 l 20.748922,0 a 11.112398,10.94875 0 0 1 10.934467,-9.0586 11.112398,10.94875 0 0 1 10.944377,9.0586 l 9.99683,0 c 4.73254,0 8.54379,-3.6677 8.54379,-8.2227 l 0,-53.74412 c 0,-4.55515 -3.81125,-8.22265 -8.54379,-8.22265 l -87.463836,0 z" style="opacity:1;fill:url(#linearGradient4168);fill-opacity:1;stroke:none;stroke-width:.41800001;stroke-linecap:round;stroke-linejoin:round;stroke-miterlimit:4;stroke-dasharray:none;stroke-dashoffset:0;stroke-opacity:1"/><rect id="rect4170" width="37.341" height="37.546" x="15.633" y="967.455" ry="4.295" style="opacity:1;fill:url(#linearGradient4178);fill-opacity:1;stroke:none;stroke-width:.41800001;stroke-linecap:round;stroke-linejoin:round;stroke-miterlimit:4;stroke-dasharray:none;stroke-dashoffset:0;stroke-opacity:1"/><rect id="rect4180" width="9.693" height="8.846" x="61.854" y="970.02" ry="1.334" style="opacity:1;fill:#526b79;fill-opacity:1;stroke:none;stroke-width:.41800001;stroke-linecap:round;stroke-linejoin:round;stroke-miterlimit:4;stroke-dasharray:none;stroke-dashoffset:0;stroke-opacity:1"/><rect style="opacity:1;fill:#526b79;fill-opacity:1;stroke:none;stroke-width:.41800001;stroke-linecap:round;stroke-linejoin:round;stroke-miterlimit:4;stroke-dasharray:none;stroke-dashoffset:0;stroke-opacity:1" id="rect4182" width="9.693" height="8.846" x="76.342" y="970.02" ry="1.334"/><rect id="rect4184" width="9.693" height="8.846" x="90.83" y="970.02" ry="1.334" style="opacity:1;fill:#526b79;fill-opacity:1;stroke:none;stroke-width:.41800001;stroke-linecap:round;stroke-linejoin:round;stroke-miterlimit:4;stroke-dasharray:none;stroke-dashoffset:0;stroke-opacity:1"/><path id="rect4188" d="m 60.176006,988.06403 44.499954,0 c 0.55299,0 0.99818,0.44518 0.99818,0.99819 l 0,1.30503 c 0,0.553 -0.44519,0.99819 -0.99818,0.99819 l -44.499954,0 c -0.552995,0 -0.998191,-0.44519 -0.998191,-0.99819 l 0,-1.30503 c 0,-0.55301 0.445196,-0.99819 0.998191,-0.99819 z" style="opacity:1;fill:#ccc;fill-opacity:1;stroke:none;stroke-width:.41800001;stroke-linecap:round;stroke-linejoin:round;stroke-miterlimit:4;stroke-dasharray:none;stroke-dashoffset:0;stroke-opacity:1"/><path id="rect4190" d="m 60.176006,1001.0479 44.499954,0 c 0.55299,0 0.99818,0.4451 0.99818,0.9981 l 0,1.3051 c 0,0.553 -0.44519,0.9982 -0.99818,0.9982 l -44.499954,0 c -0.552995,0 -0.998191,-0.4452 -0.998191,-0.9982 l 0,-1.3051 c 0,-0.553 0.445196,-0.9981 0.998191,-0.9981 z" style="opacity:1;fill:#ccc;fill-opacity:1;stroke:none;stroke-width:.41800001;stroke-linecap:round;stroke-linejoin:round;stroke-miterlimit:4;stroke-dasharray:none;stroke-dashoffset:0;stroke-opacity:1"/><g style="fill:#045" id="g4245" clip-path="url(#clipPath4262)" transform="matrix(1.4491642,0,0,1.4491642,289.36281,1034.7684)"><path style="fill:#045" id="path4247" d="m -162.671,-23.382 c -0.005,-1.228 -0.866,-1.256 -1.894,-1.668 l -4.801,-1.924 c -0.084,-0.033 -0.166,-0.068 -0.247,-0.104 l 0,-0.002 c -0.853,-0.387 -1.606,-0.924 -1.883,-1.303 l -0.011,-0.012 -0.003,-0.006 c -0.016,-0.023 -0.033,-0.049 -0.047,-0.072 l -0.011,-0.021 -0.003,-0.005 -0.01,-0.012 0,-0.002 c -0.128,-0.191 -0.257,-0.277 -0.366,-0.24 l -0.007,0.003 -0.003,0.001 -0.001,10e-4 -0.006,0.004 -0.004,0 -0.006,0.006 c -0.13,0.067 -0.104,-0.006 -0.157,-0.148 -0.13,-0.352 -0.344,-1.02 -0.377,-1.117 -0.05,-0.184 -0.184,0.289 -0.153,-0.221 l 0.056,-0.92 c 0.088,-0.096 0.159,-0.174 0.208,-0.228 0.313,-0.357 0.334,-1.303 0.49,-1.533 0.157,-0.23 0.472,-0.279 0.784,-1.354 0.314,-1.072 0.696,-2.605 0.293,-2.631 -0.099,-0.006 -0.211,0.059 -0.327,0.16 0.071,-0.394 0.221,-1.287 0.254,-1.947 0.046,-0.869 -0.099,-3.097 -0.593,-3.912 -0.309,-0.51 -0.932,-1.016 -1.553,-1.41 -0.372,-0.237 -0.743,-0.434 -1.047,-0.567 -0.905,-0.401 -3.757,-0.217 -4.724,0 -1.1,0.246 -1.871,0.937 -2.363,1.755 -0.492,0.817 -0.711,3.268 -0.668,4.137 0.021,0.39 0.254,1.047 0.313,1.449 0.034,0.209 0.065,0.211 0.091,0.36 -0.041,-0.017 -0.081,-0.024 -0.117,-0.022 -0.404,0.025 -0.022,1.558 0.291,2.631 0.313,1.072 0.627,1.123 0.783,1.354 0.157,0.23 0.18,1.176 0.493,1.533 0.05,0.058 0.125,0.139 0.219,0.238 l 0.061,0.752 0.105,0.418 c -0.048,-0.12 -0.144,-0.197 -0.188,-0.041 -0.135,0.41 -0.271,0.82 -0.405,1.23 -0.014,-0.021 -0.036,-0.033 -0.061,-0.035 -0.131,-0.115 -0.308,-0.016 -0.468,0.252 -0.236,0.396 -1.021,0.965 -1.932,1.375 l -0.013,0.049 -0.014,0.051 -0.005,0.021 c -0.071,0.03 -0.144,0.062 -0.217,0.09 l -4.8,1.924 c -1.027,0.41 -1.888,0.44 -1.895,1.668 l -0.795,4.181 28.801,0 -1.07,-4.181 0.003,-0.005 z"/></g><rect id="rect4334" width="89.243" height="3.705" x="16.54" y="1012.773" ry="1.092" style="opacity:1;fill:#ccc;fill-opacity:1;stroke:none;stroke-width:.41800001;stroke-linecap:round;stroke-linejoin:round;stroke-miterlimit:4;stroke-dasharray:none;stroke-dashoffset:0;stroke-opacity:1"/></g></g></svg>