<svg xmlns="http://www.w3.org/2000/svg" xmlns:svg="http://www.w3.org/2000/svg" xmlns:xlink="http://www.w3.org/1999/xlink" id="svg10658" width="128" height="128" version="1.1" viewBox="0 0 128 128"><defs id="defs10660"><linearGradient id="linearGradient7618" x1="199.929" x2="211.457" y1="85.563" y2="85.563" gradientTransform="matrix(0.86698477,0,0,0.86698477,23.39458,15.899244)" gradientUnits="userSpaceOnUse" xlink:href="#linearGradient7610"/><linearGradient id="linearGradient7610"><stop id="stop13016" offset="0" style="stop-color:#08a;stop-opacity:1"/><stop id="stop13018" offset="1" style="stop-color:#006680;stop-opacity:1"/></linearGradient></defs><metadata id="metadata10663"/><g id="layer1" transform="translate(0,-924.36216)"><g id="g7343" transform="matrix(5.3333333,0,0,5.3333333,-1015.2146,511.94192)"><rect id="rect6795" width="24" height="24" x="190.353" y="77.329" ry="0" style="opacity:0;fill:#ececec;fill-opacity:1;stroke:none;stroke-opacity:1"/><g id="g7329" transform="translate(1.1929383e-6,1.270475e-6)"><path style="fill:#fff;stroke:none" id="path6799" d="m 192.14335,91.247329 c 5.98435,5.011055 14.20046,4.730023 18.77758,-0.506146 -4.3124,-7.39171 -12.87365,-6.685246 -18.86099,-1.02757 -0.7021,0.541768 -0.43847,1.196626 0.0834,1.533716 z"/><path id="svg_117" d="m 190.85418,90.198509 c 0,0 9.31585,-13.273622 22.65029,-1.857142 0,0 0.60882,0.548175 0.21318,1.248325 -0.49868,0.882631 -1.70499,-0.578496 -1.70499,-0.578496 0,0 -9.25484,-10.959822 -21.15848,1.187313 z"/><path id="svg_119" d="m 205.22627,86.03806 c 0.92486,0.906913 1.49857,2.170679 1.49857,3.568316 0,2.760015 -2.23741,4.997418 -4.99741,4.997418 -2.76003,0 -4.99743,-2.237403 -4.99743,-4.997418 0,-1.344005 0.53064,-2.564272 1.39383,-3.462105 0,0 1.38645,-0.585112 3.6036,-0.585112 2.21712,0 3.49884,0.478901 3.49884,0.478901 z m -5.88174,3.362228 -1.96163,-0.181594 c -0.0113,0.12796 -0.0196,0.256977 -0.0196,0.387894 0,0.686677 0.16301,1.333658 0.44554,1.911591 l 1.77181,-0.858348 c -0.15647,-0.318212 -0.24663,-0.674642 -0.24663,-1.053033 2e-4,-0.0701 0.005,-0.138517 0.0106,-0.20651 z m 2.34762,-1.588944 c -1.01079,0 -1.83008,0.819284 -1.83008,1.830084 0,1.010801 0.81929,1.830085 1.83008,1.830085 1.0108,0 1.83009,-0.819283 1.83009,-1.830085 0,-1.010801 -0.81929,-1.830084 -1.83009,-1.830084 z" style="fill:url(#linearGradient7618);fill-opacity:1"/><path id="svg_118" d="m 191.58483,90.168006 c 0,0 10.22917,-11.294645 19.87984,-0.426155 0,0 1.43098,1.765627 0.48716,2.526786 -0.94382,0.761159 -1.43098,-0.213168 -1.67447,-0.365326 -0.2435,-0.15216 -0.39584,0.09133 -0.5785,0.395831 -0.18266,0.3045 -8.92002,6.606397 -17.99237,-1.369977 0,0 9.83333,7.915547 17.74888,0.517668 0,0 0.88299,-0.974145 -0.0303,-2.100632 -0.91332,-1.126486 -6.39341,-8.189727 -17.84022,0.821805 z" style="fill:#000"/><circle style="fill:#000;fill-opacity:1;stroke:none" id="path7627" cx="201.619" cy="89.729" r="2.029"/></g></g></g></svg>