<svg xmlns="http://www.w3.org/2000/svg" xmlns:svg="http://www.w3.org/2000/svg" id="svg2" width="128" height="128" version="1.1" viewBox="0 0 128 128"><metadata id="metadata44"/><g id="g4" transform="matrix(5.3406829,0,0,5.3406829,0.26150362,-5492.0967)"><path id="path6" d="M 24,12 A 12,12 0 1 1 0,12 12,12 0 1 1 24,12 Z" transform="matrix(0.91667,0,0,0.91667,1,1029.4)" style="fill:#bdc3c7"/><g id="g8" style="fill:#95a5a6"><path id="path10" d="m 6,1048.4 c 1.6702,1.2 3.7518,2 6,2 2.248,0 4.33,-0.8 6,-2 l -12,0 z"/><path id="path12" d="M 12,1 C 5.9249,1 1,5.9249 1,12 1,18.075 5.9249,23 12,23 L 12,1 Z" transform="translate(0,1028.4)"/><path id="path14" d="M 17,13 A 6,6 0 1 1 5,13 6,6 0 1 1 17,13 Z" transform="translate(1,1028.4)"/></g><path id="path16" d="m 12,1035.4 c -3.3137,0 -6,2.6 -6,6 0,3.3 2.6863,6 6,6 l 0,-12 z" style="fill:#7f8c8d"/><path id="path18" d="M 17,13 A 6,6 0 1 1 5,13 6,6 0 1 1 17,13 Z" transform="translate(1,1027.4)" style="fill:#ecf0f1"/><path id="path20" d="m 15,12.5 a 3,3.5 0 1 1 -6,0 3,3.5 0 1 1 6,0 z" transform="matrix(1.3333,0,0,1.1429,-4,1026.1)" style="fill:#34495e"/><path id="path22" d="m 15,12.5 a 3,3.5 0 1 1 -6,0 3,3.5 0 1 1 6,0 z" transform="matrix(1,0,0,0.85714,0,1029.6)" style="fill:#2c3e50"/><path id="path24" d="m 14,13 a 2,2 0 1 1 -4,0 2,2 0 1 1 4,0 z" transform="translate(0,1027.4)" style="fill:#34495e"/><path id="path26" d="m 13,13 a 1,1 0 1 1 -2,0 1,1 0 1 1 2,0 z" transform="translate(0,1027.4)" style="fill:#3498db"/><path id="path28" d="m 25,12.5 a 1.5,1.5 0 1 1 -3,0 1.5,1.5 0 1 1 3,0 z" transform="matrix(0.66667,0,0,0.66666,-4.6667,1030)" style="fill:#ecf0f1"/><rect id="rect30" width="3" height="1" x="9" y="1030.4" style="fill:#7f8c8d"/><rect id="rect32" width="3" height="1" x="9" y="1032.4" style="fill:#7f8c8d"/><rect id="rect34" width="3" height="1" x="12" y="1030.4" style="fill:#95a5a6"/><rect id="rect36" width="3" height="1" x="12" y="1032.4" style="fill:#95a5a6"/><path id="path38" d="m 6,20 c 1.6702,1.252 3.7518,2 6,2 l 0,-2 -6,0 z" transform="translate(0,1028.4)" style="fill:#7f8c8d"/></g></svg>