<svg xmlns="http://www.w3.org/2000/svg" xmlns:svg="http://www.w3.org/2000/svg" xmlns:xlink="http://www.w3.org/1999/xlink" id="svg9483" width="128" height="128" version="1.1" viewBox="0 0 128 128"><defs id="defs9485"><linearGradient id="linearGradient10699"><stop style="stop-color:#5fbed7;stop-opacity:1" id="stop10701" offset="0"/><stop style="stop-color:#1c9ebf;stop-opacity:1" id="stop10703" offset="1"/></linearGradient><linearGradient id="linearGradient10691"><stop style="stop-color:#facb1b;stop-opacity:1" id="stop10693" offset="0"/><stop style="stop-color:#f60;stop-opacity:1" id="stop10695" offset="1"/></linearGradient><linearGradient id="linearGradient10697" x1="174.172" x2="181.724" y1="244.68" y2="248.927" gradientTransform="matrix(4.4194432,0,0,4.4194432,-687.93609,-57.238984)" gradientUnits="userSpaceOnUse" xlink:href="#linearGradient10691"/><linearGradient id="linearGradient10705" x1="169.243" x2="185.394" y1="240.396" y2="235.101" gradientTransform="matrix(4.8483835,0,0,4.8483835,-829.23772,-207.10276)" gradientUnits="userSpaceOnUse" xlink:href="#linearGradient10699"/><linearGradient id="linearGradient11329"><stop id="stop11331" offset="0" style="stop-color:green;stop-opacity:1"/><stop id="stop11333" offset="1" style="stop-color:#aad400;stop-opacity:1"/></linearGradient><linearGradient id="linearGradient11311"><stop id="stop11313" offset="0" style="stop-color:#81819c;stop-opacity:1"/><stop id="stop11315" offset="1" style="stop-color:#c9c9d7;stop-opacity:1"/></linearGradient><linearGradient id="linearGradient11303"><stop id="stop11305" offset="0" style="stop-color:#c2c2d2;stop-opacity:1"/><stop id="stop11307" offset="1" style="stop-color:#f2f2f6;stop-opacity:1"/></linearGradient><linearGradient id="linearGradient11295"><stop id="stop11297" offset="0" style="stop-color:#fafafa;stop-opacity:1"/><stop id="stop11299" offset="1" style="stop-color:#e3e3ea;stop-opacity:1"/></linearGradient><linearGradient id="linearGradient11287"><stop id="stop11289" offset="0" style="stop-color:#d2d2dd;stop-opacity:1"/><stop id="stop11291" offset="1" style="stop-color:#ededee;stop-opacity:1"/></linearGradient><linearGradient id="linearGradient11279"><stop id="stop11281" offset="0" style="stop-color:#aaaabf;stop-opacity:1"/><stop id="stop11283" offset="1" style="stop-color:#c7c7d6;stop-opacity:1"/></linearGradient><linearGradient id="linearGradient11285" x1="212.998" x2="213.891" y1="957.016" y2="989.268" gradientUnits="userSpaceOnUse" xlink:href="#linearGradient11279"/><linearGradient id="linearGradient11293" x1="182.146" x2="215.467" y1="956.299" y2="938.583" gradientUnits="userSpaceOnUse" xlink:href="#linearGradient11287"/><linearGradient id="linearGradient11301" x1="176.54" x2="195.828" y1="957.48" y2="985.87" gradientUnits="userSpaceOnUse" xlink:href="#linearGradient11295"/><linearGradient id="linearGradient11309" x1="183.066" x2="182.944" y1="1001.38" y2="1011.373" gradientUnits="userSpaceOnUse" xlink:href="#linearGradient11303"/><linearGradient id="linearGradient11317" x1="175.383" x2="188.916" y1="966.274" y2="971.092" gradientUnits="userSpaceOnUse" xlink:href="#linearGradient11311"/><linearGradient id="linearGradient11321" x1="175.383" x2="188.916" y1="966.274" y2="971.092" gradientTransform="translate(0,6.0756177)" gradientUnits="userSpaceOnUse" xlink:href="#linearGradient11311"/><linearGradient id="linearGradient11325" x1="175.383" x2="188.916" y1="966.274" y2="971.092" gradientTransform="translate(-0.05678147,12.208017)" gradientUnits="userSpaceOnUse" xlink:href="#linearGradient11311"/><linearGradient id="linearGradient11335" x1="190.731" x2="190.634" y1="1011.347" y2="1014.328" gradientTransform="matrix(1.5260403,0,0,1.4528409,-91.424718,-520.70004)" gradientUnits="userSpaceOnUse" xlink:href="#linearGradient11329"/></defs><metadata id="metadata9488"/><g id="layer1" transform="translate(0,-924.36216)"><rect style="opacity:0;fill:#afdde9;fill-opacity:1;stroke:none;stroke-width:2.03413677;stroke-linecap:round;stroke-linejoin:round;stroke-miterlimit:4;stroke-dasharray:none;stroke-opacity:1" id="rect10581" width="128" height="128" x="0" y="924.362" ry=".379"/><g id="g11337" transform="matrix(1.3426124,0,0,1.3426124,-203.42622,-319.61413)"><path id="path11261" d="m 168.98664,951.93972 33.404,-21.30414 c 0.27892,-0.21754 0.70489,-0.24732 1.23842,-0.21708 l 26.04168,5.71899 c 0.35892,0.10559 0.47187,0.24436 0.47056,0.7596 l -0.15886,59.41485 -34.24177,24.25456 c -0.23984,0.2549 -0.64744,0.2456 -0.88912,0.1653 l -25.66983,-8.8677 c -0.3317,-0.119 -0.37629,-0.2563 -0.39614,-0.5253 l -0.35277,-58.35807 c 0.008,-0.61264 0.21175,-0.8016 0.55383,-1.04104 z" style="fill:#484848;fill-opacity:1;fill-rule:evenodd;stroke:none;stroke-width:1px;stroke-linecap:butt;stroke-linejoin:miter;stroke-opacity:1"/><path id="path11263" d="m 170.45798,953.36366 24.95546,8.51722 32.92268,-24.03721 -24.83132,-5.51755 z" style="fill:url(#linearGradient11293);fill-opacity:1;fill-rule:evenodd;stroke:none;stroke-width:1px;stroke-linecap:butt;stroke-linejoin:miter;stroke-opacity:1"/><path id="path11265" d="m 195.35666,961.8241 0.0158,56.706 32.66194,-23.2901 0.34069,-57.46285 z" style="fill:url(#linearGradient11285);fill-opacity:1;fill-rule:evenodd;stroke:none;stroke-width:1px;stroke-linecap:butt;stroke-linejoin:miter;stroke-opacity:1"/><path id="path11267" d="m 170.45798,953.33527 24.87029,8.40366 0,56.66787 -24.5296,-8.2901 z" style="fill:url(#linearGradient11301);fill-opacity:1;fill-rule:evenodd;stroke:none;stroke-width:1px;stroke-linecap:butt;stroke-linejoin:miter;stroke-opacity:1"/><path style="fill:url(#linearGradient11317);fill-opacity:1;fill-rule:evenodd;stroke:none;stroke-width:1px;stroke-linecap:butt;stroke-linejoin:miter;stroke-opacity:1" id="path11271" d="m 174.65981,964.12375 15.67169,5.56458 -0.0333,4.1795 -15.69521,-5.65581 z"/><path id="path11277" d="m 170.62833,996.03494 24.64316,7.83586 0.11356,14.6496 -24.58638,-8.4037 z" style="fill:url(#linearGradient11309);fill-opacity:1;fill-rule:evenodd;stroke:none;stroke-width:1px;stroke-linecap:butt;stroke-linejoin:miter;stroke-opacity:1"/><path id="path11319" d="m 174.65981,970.19937 15.67169,5.56458 -0.0333,4.1795 -15.69521,-5.65581 z" style="fill:url(#linearGradient11321);fill-opacity:1;fill-rule:evenodd;stroke:none;stroke-width:1px;stroke-linecap:butt;stroke-linejoin:miter;stroke-opacity:1"/><path style="fill:url(#linearGradient11325);fill-opacity:1;fill-rule:evenodd;stroke:none;stroke-width:1px;stroke-linecap:butt;stroke-linejoin:miter;stroke-opacity:1" id="path11323" d="m 174.60303,976.33177 15.67169,5.56458 -0.0333,4.1795 -15.69521,-5.65581 z"/><rect id="rect11327" width="6.74" height="4.083" x="196.13" y="948.77" ry="1.137" transform="matrix(0.95203311,0.30599504,0,1,0,0)" style="opacity:1;fill:url(#linearGradient11335);fill-opacity:1;stroke:none;stroke-width:2;stroke-linecap:round;stroke-linejoin:round;stroke-miterlimit:4;stroke-dasharray:none;stroke-dashoffset:0;stroke-opacity:1"/></g><path style="fill:url(#linearGradient10705);fill-opacity:1;fill-rule:evenodd;stroke:#1c9ebf;stroke-width:1.4545151;stroke-miterlimit:4;stroke-dasharray:none;stroke-opacity:1" id="path10259" d="m 60.725861,945.46645 -23.86359,19.88618 0,-11.93168 -31.8181459,0 0,-15.90909 31.8181459,0 0,-11.93183 z"/><path id="path10263" d="m 72.536181,1032.4519 21.752411,18.1271 0,-10.8762 29.003128,0 0,-14.5017 -29.003128,0 0,-10.8761 z" style="fill:url(#linearGradient10697);fill-opacity:1;fill-rule:evenodd;stroke:#ff4401;stroke-width:1.32583308;stroke-linecap:round;stroke-linejoin:round;stroke-miterlimit:4;stroke-dasharray:none;stroke-opacity:1"/></g></svg>