<svg xmlns="http://www.w3.org/2000/svg" xmlns:pdf="http://ns.adobe.com/pdf/1.3/" xmlns:svg="http://www.w3.org/2000/svg" xmlns:x="adobe:ns:meta/" xmlns:xap="http://ns.adobe.com/xap/1.0/" xmlns:xapGImg="http://ns.adobe.com/xap/1.0/g/img/" xmlns:xapMM="http://ns.adobe.com/xap/1.0/mm/" xmlns:xlink="http://www.w3.org/1999/xlink" style="overflow:visible" id="svg786" width="128" height="128" version="1.1" viewBox="0 0 128 128" xml:space="preserve"><defs id="defs962"><linearGradient id="linearGradient5561" x1="-219.204" x2="-222.718" y1="144.436" y2="144.436" gradientTransform="matrix(-0.1991,0.98,-0.98,-0.1991,61.926691,271.51003)" gradientUnits="userSpaceOnUse"><stop id="stop5563" offset="0" style="stop-color:#1c1d98;stop-opacity:1"/><stop id="stop5565" offset="1" style="stop-color:#2d4cd3;stop-opacity:1"/></linearGradient><linearGradient id="linearGradient5555" x1="-360.801" x2="-358.752" y1="30.289" y2="32.731" gradientTransform="matrix(0.999,0.0435,0.0435,-0.999,339.46949,54.172229)" gradientUnits="userSpaceOnUse"><stop id="stop5557" offset="0" style="stop-color:#3391ec;stop-opacity:1"/><stop id="stop5559" offset="1" style="stop-color:#0e72d4;stop-opacity:1"/></linearGradient><linearGradient id="linearGradient5547" x1="-372.776" x2="-364.164" y1="37.687" y2="18.567" gradientTransform="matrix(0.999,0.0435,0.0435,-0.999,339.46949,54.172229)" gradientUnits="userSpaceOnUse"><stop id="stop5549" offset="0" style="stop-color:#84c2ff;stop-opacity:1"/><stop id="stop5551" offset=".775" style="stop-color:#79b3ff;stop-opacity:1"/><stop id="stop5553" offset="1" style="stop-color:#6b93ef;stop-opacity:1"/></linearGradient><linearGradient id="linearGradient5493" x1="-219.204" x2="-222.718" y1="144.436" y2="144.436" gradientTransform="matrix(-0.1991,0.98,-0.98,-0.1991,61.926691,271.51003)" gradientUnits="userSpaceOnUse"><stop style="stop-color:#ae793e;stop-opacity:1" id="stop5495" offset="0"/><stop style="stop-color:#eba547;stop-opacity:1" id="stop5497" offset="1"/></linearGradient><linearGradient id="linearGradient5487" x1="-360.801" x2="-358.752" y1="30.289" y2="32.731" gradientTransform="matrix(0.999,0.0435,0.0435,-0.999,339.46949,54.172229)" gradientUnits="userSpaceOnUse"><stop style="stop-color:#ffc319;stop-opacity:1" id="stop5489" offset="0"/><stop style="stop-color:#ffa509;stop-opacity:1" id="stop5491" offset="1"/></linearGradient><linearGradient id="linearGradient5479" x1="-372.776" x2="-364.164" y1="37.687" y2="18.567" gradientTransform="matrix(0.999,0.0435,0.0435,-0.999,339.46949,54.172229)" gradientUnits="userSpaceOnUse"><stop style="stop-color:#ffda1c;stop-opacity:1" id="stop5481" offset="0"/><stop style="stop-color:#ffcb1c;stop-opacity:1" id="stop5483" offset=".775"/><stop style="stop-color:#ffa40f;stop-opacity:1" id="stop5485" offset="1"/></linearGradient><linearGradient id="XMLID_21_" x1="-180.301" x2="-151.44" y1="288.041" y2="288.041" gradientTransform="matrix(1,0,0,-1,178.5,315.5)" gradientUnits="userSpaceOnUse"><stop id="stop795" offset="0" style="stop-color:#0053bd"/><stop id="stop796" offset="1" style="stop-color:#0032a4"/></linearGradient><linearGradient id="XMLID_22_" x1="-180.303" x2="-151.436" y1="288.047" y2="288.047" gradientTransform="matrix(1,0,0,-1,178.5,315.5)" gradientUnits="userSpaceOnUse"><stop id="stop802" offset="0" style="stop-color:#0053bd"/><stop id="stop803" offset="1" style="stop-color:#0032a4"/></linearGradient><linearGradient id="XMLID_23_" x1="-154.186" x2="-136.469" y1="283.349" y2="173.503" gradientTransform="matrix(1,0,0,-1,178.5,315.5)" gradientUnits="userSpaceOnUse"><stop id="stop809" offset="0" style="stop-color:#999"/><stop id="stop810" offset="1" style="stop-color:#666"/></linearGradient><linearGradient id="XMLID_24_" x1="-172.431" x2="-166.242" y1="280.076" y2="286.265" gradientTransform="matrix(1,0,0,-1,178.5,315.5)" gradientUnits="userSpaceOnUse"><stop id="stop816" offset="0" style="stop-color:#fff"/><stop id="stop817" offset="1" style="stop-color:#9cf"/></linearGradient><linearGradient id="XMLID_25_" x1="-149.122" x2="-148.194" y1="275.802" y2="301.038" gradientTransform="matrix(1,0,0,-1,178.5,315.5)" gradientUnits="userSpaceOnUse"><stop id="stop823" offset="0" style="stop-color:#39f"/><stop id="stop824" offset="1" style="stop-color:#9cf"/></linearGradient><linearGradient id="XMLID_26_" x1="-136.691" x2="-169.505" y1="287.228" y2="291.276" gradientTransform="matrix(1,0,0,-1,178.5,315.5)" gradientUnits="userSpaceOnUse"><stop id="stop831" offset="0" style="stop-color:#428aff"/><stop id="stop832" offset=".253" style="stop-color:#9cf"/><stop id="stop833" offset=".82" style="stop-color:#94caff"/><stop id="stop834" offset=".994" style="stop-color:#57adff"/></linearGradient><linearGradient id="XMLID_27_" x1="-162.632" x2="-162.632" y1="276.969" y2="272.75" gradientTransform="matrix(1,0,0,-1,178.5,315.5)" gradientUnits="userSpaceOnUse"><stop id="stop844" offset="0" style="stop-color:#ff6d00"/><stop id="stop845" offset="1" style="stop-color:#f8310e"/></linearGradient><linearGradient id="XMLID_28_" x1="-173.858" x2="-169.479" y1="291.725" y2="291.725" gradientTransform="matrix(1,0,0,-1,178.5,315.5)" gradientUnits="userSpaceOnUse"><stop id="stop853" offset="0" style="stop-color:#ff6d00"/><stop id="stop854" offset="1" style="stop-color:#f8310e"/></linearGradient><linearGradient id="XMLID_29_" x1="-157.732" x2="-134.789" y1="294.559" y2="271.615" gradientTransform="matrix(1,0,0,-1,178.5,315.5)" gradientUnits="userSpaceOnUse"><stop id="stop864" offset="0" style="stop-color:#fff"/><stop id="stop865" offset="1" style="stop-color:#b1b1c5"/></linearGradient><linearGradient id="XMLID_30_" x1="-148.756" x2="-145.631" y1="300.008" y2="303.133" gradientTransform="matrix(1,0,0,-1,178.5,315.5)" gradientUnits="userSpaceOnUse"><stop id="stop872" offset="0" style="stop-color:#ff6d00"/><stop id="stop873" offset="1" style="stop-color:#f8310e"/></linearGradient><linearGradient id="XMLID_31_" x1="-145.947" x2="-147.793" y1="303.262" y2="301.241" gradientTransform="matrix(1,0,0,-1,116.66949,316.92373)" gradientUnits="userSpaceOnUse"><stop id="stop879" offset="0" style="stop-color:#fc0"/><stop id="stop880" offset="1" style="stop-color:#ff0"/></linearGradient><linearGradient id="XMLID_32_" x1="-183.487" x2="-178.975" y1="286.817" y2="286.817" gradientTransform="matrix(1.0261,-0.394,-0.5133,-0.8639,338.5531,200.4475)" gradientUnits="userSpaceOnUse"><stop id="stop887" offset="0" style="stop-color:#fc0"/><stop id="stop888" offset="1" style="stop-color:#ff0"/></linearGradient><linearGradient id="XMLID_33_" x1="-184.057" x2="-177.663" y1="270.103" y2="270.103" gradientTransform="matrix(1.0261,-0.394,-0.5133,-0.8639,338.5531,200.4455)" gradientUnits="userSpaceOnUse"><stop id="stop896" offset="0" style="stop-color:#fc0"/><stop id="stop897" offset="1" style="stop-color:#ff0"/></linearGradient><linearGradient id="XMLID_34_" x1="-139.209" x2="-147.2" y1="286.657" y2="286.657" gradientTransform="matrix(1,0,0,-1,178.5,315.5)" gradientUnits="userSpaceOnUse"><stop id="stop903" offset="0" style="stop-color:#ff6d00"/><stop id="stop904" offset="1" style="stop-color:#f8310e"/></linearGradient><linearGradient id="XMLID_35_" x1="-138.331" x2="-138.331" y1="282.688" y2="290.938" gradientTransform="matrix(1,0,0,-1,178.5,315.5)" gradientUnits="userSpaceOnUse"><stop id="stop911" offset="0" style="stop-color:#fc0"/><stop id="stop912" offset="1" style="stop-color:#ff0"/></linearGradient><linearGradient id="XMLID_36_" x1="-201.008" x2="-178.637" y1="268.464" y2="281.321" gradientTransform="matrix(1,0,0,-1,116.66949,316.92373)" gradientUnits="userSpaceOnUse"><stop id="stop921" offset="0" style="stop-color:#366"/><stop id="stop922" offset="1" style="stop-color:#033"/></linearGradient><linearGradient id="XMLID_37_" x1="-368.084" x2="-364.23" y1="21.16" y2="17.305" gradientTransform="matrix(0.999,0.0435,0.0435,-0.999,339.46949,54.172229)" gradientUnits="userSpaceOnUse"><stop id="stop928" offset="0" style="stop-color:#f8f1dc"/><stop id="stop929" offset="1" style="stop-color:#d6a84a"/></linearGradient><linearGradient id="XMLID_38_" x1="-360.801" x2="-358.752" y1="30.289" y2="32.731" gradientTransform="matrix(0.999,0.0435,0.0435,-0.999,339.46949,54.172229)" gradientUnits="userSpaceOnUse"><stop id="stop935" offset="0" style="stop-color:#009f81"/><stop id="stop936" offset="1" style="stop-color:#366"/></linearGradient><linearGradient id="XMLID_39_" x1="-372.776" x2="-364.164" y1="37.687" y2="18.567" gradientTransform="matrix(0.999,0.0435,0.0435,-0.999,339.46949,54.172229)" gradientUnits="userSpaceOnUse"><stop id="stop942" offset="0" style="stop-color:#2ca900"/><stop id="stop943" offset=".775" style="stop-color:#3c3"/><stop id="stop944" offset="1" style="stop-color:#006a00"/></linearGradient><linearGradient id="XMLID_40_" x1="-219.204" x2="-222.718" y1="144.436" y2="144.436" gradientTransform="matrix(-0.1991,0.98,-0.98,-0.1991,61.926691,271.51003)" gradientUnits="userSpaceOnUse"><stop id="stop952" offset="0" style="stop-color:#366"/><stop id="stop953" offset="1" style="stop-color:#033"/></linearGradient><linearGradient id="linearGradient5462" x1="-368.084" x2="-364.23" y1="21.16" y2="17.305" gradientTransform="matrix(-0.0435,0.999,0.999,0.0435,-12.092113,382.61268)" gradientUnits="userSpaceOnUse" xlink:href="#XMLID_37_"/><linearGradient id="linearGradient5464" x1="-360.801" x2="-358.752" y1="30.289" y2="32.731" gradientTransform="matrix(-0.0435,0.999,0.999,0.0435,-12.092113,382.61268)" gradientUnits="userSpaceOnUse" xlink:href="#linearGradient5487"/><linearGradient id="linearGradient5466" x1="-372.776" x2="-364.164" y1="37.687" y2="18.567" gradientTransform="matrix(-0.0435,0.999,0.999,0.0435,-12.092113,382.61268)" gradientUnits="userSpaceOnUse" xlink:href="#linearGradient5479"/><linearGradient id="linearGradient5468" x1="-219.204" x2="-222.718" y1="144.436" y2="144.436" gradientTransform="matrix(-0.98,-0.1991,0.1991,-0.98,-229.42991,105.06988)" gradientUnits="userSpaceOnUse" xlink:href="#linearGradient5493"/><linearGradient id="linearGradient5530" x1="-368.084" x2="-364.23" y1="21.16" y2="17.305" gradientTransform="matrix(-0.0435,0.999,0.999,0.0435,-6.9146532,380.02395)" gradientUnits="userSpaceOnUse" xlink:href="#XMLID_37_"/><linearGradient id="linearGradient5532" x1="-360.801" x2="-358.752" y1="30.289" y2="32.731" gradientTransform="matrix(-0.0435,0.999,0.999,0.0435,-6.9146532,380.02395)" gradientUnits="userSpaceOnUse" xlink:href="#linearGradient5555"/><linearGradient id="linearGradient5534" x1="-372.776" x2="-364.164" y1="37.687" y2="18.567" gradientTransform="matrix(-0.0435,0.999,0.999,0.0435,-6.9146532,380.02395)" gradientUnits="userSpaceOnUse" xlink:href="#linearGradient5547"/><linearGradient id="linearGradient5536" x1="-219.204" x2="-222.718" y1="144.436" y2="144.436" gradientTransform="matrix(-0.98,-0.1991,0.1991,-0.98,-224.25245,102.48115)" gradientUnits="userSpaceOnUse" xlink:href="#linearGradient5561"/><linearGradient id="linearGradient5578" x1="-368.084" x2="-364.23" y1="21.16" y2="17.305" gradientTransform="matrix(0.999,0.0435,0.0435,-0.999,339.46949,54.172229)" gradientUnits="userSpaceOnUse" xlink:href="#XMLID_37_"/></defs><metadata id="metadata787"><x:xmpmeta x:xmptk="XMP toolkit 3.0-29, framework 1.6"><metadata/></x:xmpmeta><xpacket>begin=&apos; &apos; id=&apos;W5M0MpCehiHzreSzNTczkc9d&apos;</xpacket><x:xmpmeta x:xmptk="XMP toolkit 3.0-29, framework 1.6"/><xpacket>end=&apos;w&apos;</xpacket></metadata><rect style="opacity:0;fill:#fff;fill-opacity:1;stroke:none;stroke-width:.40000001;stroke-linecap:round;stroke-linejoin:round;stroke-miterlimit:4;stroke-dasharray:none;stroke-dashoffset:0;stroke-opacity:1" id="rect5612" width="120.4" height="120.4" x="4.22" y="5.237"/><g id="g5580" transform="matrix(2.5679923,0,0,2.5679923,4.1959524,5.088136)"><g id="g5567" transform="matrix(1.4711172,-0.16736194,0.16736194,1.4711172,-21.127769,1.2377491)"><path id="path5512" d="m 42.552847,20.161948 c -10e-4,-10e-4 -15.928,-14.3059999 -16.044,-14.4099999 0,0.001 -0.014,0.012 -0.014,0.012 -0.208,-0.167 -1.989,-0.74 -7.887,-2.636 l -0.102,-0.033 c 0,0 -0.022,-0.006 -0.024,-0.007 0.111,0.363 0.217,0.705 0.225,0.73 0.021,0.046 3.25,6.9749999 3.25,6.9749999 0,0 0.002,0.011 0.004,0.021 0.186,0.169 16.023,14.45 16.023,14.45 0.115,0.095 0.262,0.139 0.432,0.139 0.741,0 1.92,-0.829 2.824,-1.836 1.121,-1.244 1.919,-2.858 1.313,-3.405 z" style="opacity:.2;enable-background:new"/><path id="path5514" d="m 42.739847,19.974948 c -10e-4,-0.001 -15.928,-14.3059999 -16.044,-14.4099999 0,0.001 -0.014,0.012 -0.014,0.012 -0.208,-0.167 -1.989,-0.74 -7.887,-2.636 l -0.102,-0.033 c 0,0 -0.022,-0.006 -0.024,-0.007 0.111,0.363 0.217,0.705 0.225,0.73 0.021,0.046 3.25,6.9749999 3.25,6.9749999 0,0 0.002,0.011 0.004,0.021 0.188,0.169 16.024,14.45 16.024,14.45 0.115,0.095 0.262,0.139 0.432,0.139 0.741,0 1.92,-0.829 2.824,-1.836 1.121,-1.245 1.918,-2.858 1.312,-3.405 z" style="opacity:.2;enable-background:new"/><path id="path5516" d="m 42.927847,19.786948 c -10e-4,-10e-4 -15.928,-14.3059999 -16.044,-14.4099999 0,0.001 -0.014,0.012 -0.014,0.012 -0.208,-0.167 -1.989,-0.74 -7.887,-2.636 l -0.102,-0.032 c 0,0 -0.022,-0.006 -0.024,-0.007 0.111,0.364 0.217,0.705 0.225,0.73 0.021,0.046 3.25,6.9749999 3.25,6.9749999 0,0 0.002,0.011 0.004,0.021 0.188,0.169 16.024,14.45 16.024,14.45 0.115,0.095 0.262,0.139 0.432,0.139 0.741,0 1.92,-0.829 2.824,-1.836 1.12,-1.245 1.918,-2.859 1.312,-3.406 z" style="fill:#008;fill-opacity:.92156863"/><path id="path5518" d="m 26.652847,5.9469481 -7.02,-2.526 3.296,6.6959999 0.027,-0.03 c 0.015,0.046 0.033,0.091 0.059,0.129 l -0.022,0.022 15.389,13.866 0.019,-0.022 c 0.458,0.414 1.674,-0.19 2.716,-1.346 1.041,-1.156 1.513,-2.427 1.056,-2.84 l -15.387,-13.8639999 -0.133,-0.085 z" style="fill:url(#linearGradient5530)"/><path id="path5520" d="m 41.116847,22.735948 c 1.041,-1.156 1.513,-2.427 1.056,-2.84 l -3.467,-3.123 -4.877,-0.212 -0.144,3.31 4.698,4.233 0.019,-0.022 c 0.457,0.413 1.673,-0.191 2.715,-1.346 z" style="fill:url(#linearGradient5532)"/><path id="path5522" d="m 38.502847,24.154948 c -0.327,-0.318 -0.143,-1.104 0.404,-1.959 0.181,-0.284 0.404,-0.577 0.66,-0.862 0.244,-0.271 0.498,-0.507 0.748,-0.713 0.808,-0.658 1.591,-0.937 1.949,-0.64 l 0.004,-0.004 -15.489,-13.9599999 c -0.417,-0.118 -1.197,0.107 -1.907,0.69 -0.243,0.199 -0.489,0.431 -0.725,0.694 -0.264,0.292 -0.493,0.593 -0.677,0.885 -0.553,0.873 -0.772,1.713 -0.423,2.0279999 0.081,0.072 0.43,0.387 0.443,0.395 l 14.974,13.49 0.039,-0.044 z" style="fill:url(#linearGradient5534)"/><path id="path5524" d="m 22.919847,4.5309481 -3.344,-1.189 1.405,2.859 c 0,0 0.024,-0.422 0.629,-1.031 0.798,-0.808 1.31,-0.639 1.31,-0.639 z" style="opacity:.8;fill:url(#linearGradient5536);enable-background:new"/><path id="path5526" d="m 24.942847,6.6549481 15.306,14.0219999 c 0.022,-0.018 0.044,-0.039 0.066,-0.057 0.323,-0.263 0.643,-0.463 0.932,-0.594 l -15.229,-13.9499999 c -0.336,0.101 -0.712,0.294 -1.075,0.579 z" style="opacity:.5;fill:#fff;enable-background:new"/><path id="path5528" d="m 40.314847,20.619948 c 0.144,-0.116 0.285,-0.219 0.424,-0.312 l -15.278,-13.9959999 c -0.196,0.106 -0.395,0.236 -0.588,0.396 -0.165,0.137 -0.333,0.288 -0.497,0.454 l 15.32,14.0339999 c 0.204,-0.214 0.412,-0.407 0.619,-0.576 z" style="opacity:.5;fill:#fff;enable-background:new"/></g><g id="g5499" transform="matrix(1.4684982,0.04071098,-0.04071098,1.4684982,-15.068018,-3.9468551)"><path style="opacity:.2;enable-background:new" id="path5442" d="m 37.375387,22.750678 c -0.001,-0.001 -15.928,-14.306 -16.044,-14.41 0,10e-4 -0.014,0.012 -0.014,0.012 -0.208,-0.167 -1.989,-0.74 -7.887,-2.636 l -0.102,-0.033 c 0,0 -0.022,-0.006 -0.024,-0.007 0.111,0.363 0.217,0.705 0.225,0.73 0.021,0.046 3.25,6.975 3.25,6.975 0,0 0.002,0.011 0.004,0.021 0.186,0.169 16.023,14.45 16.023,14.45 0.115,0.095 0.262,0.139 0.432,0.139 0.741,0 1.92,-0.829 2.824,-1.836 1.121,-1.244 1.919,-2.858 1.313,-3.405 z"/><path style="opacity:.2;enable-background:new" id="path5444" d="m 37.562387,22.563678 c -10e-4,-0.001 -15.928,-14.306 -16.044,-14.41 0,0.001 -0.014,0.012 -0.014,0.012 -0.208,-0.167 -1.989,-0.74 -7.887,-2.636 l -0.102,-0.033 c 0,0 -0.022,-0.006 -0.024,-0.007 0.111,0.363 0.217,0.705 0.225,0.73 0.021,0.046 3.25,6.975 3.25,6.975 0,0 0.002,0.011 0.004,0.021 0.188,0.169 16.024,14.45 16.024,14.45 0.115,0.095 0.262,0.139 0.432,0.139 0.741,0 1.92,-0.829 2.824,-1.836 1.121,-1.245 1.918,-2.858 1.312,-3.405 z"/><path style="fill:#643131;fill-opacity:1" id="path5446" d="m 37.750387,22.375678 c -0.001,-0.001 -15.928,-14.306 -16.044,-14.41 0,0.001 -0.014,0.012 -0.014,0.012 -0.208,-0.167 -1.989,-0.74 -7.887,-2.636 l -0.102,-0.032 c 0,0 -0.022,-0.006 -0.024,-0.007 0.111,0.364 0.217,0.705 0.225,0.73 0.021,0.046 3.25,6.975 3.25,6.975 0,0 0.002,0.011 0.004,0.021 0.188,0.169 16.024,14.45 16.024,14.45 0.115,0.095 0.262,0.139 0.432,0.139 0.741,0 1.92,-0.829 2.824,-1.836 1.12,-1.245 1.918,-2.859 1.312,-3.406 z"/><path style="fill:url(#linearGradient5462)" id="path5448" d="m 21.475387,8.535678 -7.02,-2.526 3.296,6.696 0.027,-0.03 c 0.015,0.046 0.033,0.091 0.059,0.129 l -0.022,0.022 15.389,13.866 0.019,-0.022 c 0.458,0.414 1.674,-0.19 2.716,-1.346 1.041,-1.156 1.513,-2.427 1.056,-2.84 l -15.387,-13.864 -0.133,-0.085 z"/><path style="fill:url(#linearGradient5464)" id="path5450" d="m 35.939387,25.324678 c 1.041,-1.156 1.513,-2.427 1.056,-2.84 l -3.467,-3.123 -4.877,-0.212 -0.144,3.31 4.698,4.233 0.019,-0.022 c 0.457,0.413 1.673,-0.191 2.715,-1.346 z"/><path style="fill:url(#linearGradient5466)" id="path5452" d="m 33.325387,26.743678 c -0.327,-0.318 -0.143,-1.104 0.404,-1.959 0.181,-0.284 0.404,-0.577 0.66,-0.862 0.244,-0.271 0.498,-0.507 0.748,-0.713 0.808,-0.658 1.591,-0.937 1.949,-0.64 l 0.004,-0.004 -15.489,-13.96 c -0.417,-0.118 -1.197,0.107 -1.907,0.69 -0.243,0.199 -0.489,0.431 -0.725,0.694 -0.264,0.292 -0.493,0.593 -0.677,0.885 -0.553,0.873 -0.772,1.713 -0.423,2.028 0.081,0.072 0.43,0.387 0.443,0.395 l 14.974,13.49 0.039,-0.044 z"/><path style="opacity:.8;fill:url(#linearGradient5468);enable-background:new" id="path5454" d="m 17.742387,7.119678 -3.344,-1.189 1.405,2.859 c 0,0 0.024,-0.422 0.629,-1.031 0.798,-0.808 1.31,-0.639 1.31,-0.639 z"/><path style="opacity:.5;fill:#fff;enable-background:new" id="path5456" d="m 19.765387,9.243678 15.306,14.022 c 0.022,-0.018 0.044,-0.039 0.066,-0.057 0.323,-0.263 0.643,-0.463 0.932,-0.594 l -15.229,-13.95 c -0.336,0.101 -0.712,0.294 -1.075,0.579 z"/><path style="opacity:.5;fill:#fff;enable-background:new" id="path5458" d="m 35.137387,23.208678 c 0.144,-0.116 0.285,-0.219 0.424,-0.312 l -15.278,-13.996 c -0.196,0.106 -0.395,0.236 -0.588,0.396 -0.165,0.137 -0.333,0.288 -0.497,0.454 l 15.32,14.034 c 0.204,-0.214 0.412,-0.407 0.619,-0.576 z"/></g><g id="g5429" transform="matrix(-0.24631138,1.4621702,-1.4621702,-0.24631138,34.002599,69.235493)"><path id="path918" d="m -20.392509,4.7047288 c -0.001,0.001 -14.306,15.9280002 -14.41,16.0440002 10e-4,0 0.012,0.014 0.012,0.014 -0.167,0.208 -0.74,1.989 -2.636,7.887 l -0.033,0.102 c 0,0 -0.006,0.022 -0.007,0.024 0.363,-0.111 0.705,-0.217 0.73,-0.225 0.046,-0.021 6.975,-3.25 6.975,-3.25 0,0 0.011,-0.002 0.021,-0.004 0.169,-0.186 14.45,-16.0230002 14.45,-16.0230002 0.095,-0.115 0.139,-0.262 0.139,-0.432 0,-0.741 -0.829,-1.92 -1.836,-2.824 -1.244,-1.121 -2.858,-1.919 -3.405,-1.313 z" style="opacity:.2;enable-background:new"/><path id="path919" d="m -20.579509,4.5177288 c -10e-4,10e-4 -14.306,15.9280002 -14.41,16.0440002 10e-4,0 0.012,0.014 0.012,0.014 -0.167,0.208 -0.74,1.989 -2.636,7.887 l -0.033,0.102 c 0,0 -0.006,0.022 -0.007,0.024 0.363,-0.111 0.705,-0.217 0.73,-0.225 0.046,-0.021 6.975,-3.25 6.975,-3.25 0,0 0.011,-0.002 0.021,-0.004 0.169,-0.188 14.45,-16.0240002 14.45,-16.0240002 0.095,-0.115 0.139,-0.262 0.139,-0.432 0,-0.741 -0.829,-1.92 -1.836,-2.824 -1.245,-1.121 -2.858,-1.918 -3.405,-1.312 z" style="opacity:.2;enable-background:new"/><path id="path926" d="m -20.767509,4.3297288 c -0.001,0.001 -14.306,15.9280002 -14.41,16.0440002 10e-4,0 0.012,0.014 0.012,0.014 -0.167,0.208 -0.74,1.989 -2.636,7.887 l -0.032,0.102 c 0,0 -0.006,0.022 -0.007,0.024 0.364,-0.111 0.705,-0.217 0.73,-0.225 0.046,-0.021 6.975,-3.25 6.975,-3.25 0,0 0.011,-0.002 0.021,-0.004 0.169,-0.188 14.45,-16.0240002 14.45,-16.0240002 0.095,-0.115 0.139,-0.262 0.139,-0.432 0,-0.741 -0.829,-1.92 -1.836,-2.824 -1.245,-1.12 -2.859,-1.918 -3.406,-1.312 z" style="fill:url(#XMLID_36_)"/><path id="path933" d="m -34.607509,20.604729 -2.526,7.02 6.696,-3.296 -0.03,-0.027 c 0.046,-0.015 0.091,-0.033 0.129,-0.059 l 0.022,0.022 13.866,-15.3890002 -0.022,-0.019 c 0.414,-0.458 -0.19,-1.674 -1.346,-2.716 -1.156,-1.041 -2.427,-1.513 -2.84,-1.056 l -13.864,15.3870002 -0.085,0.133 z" style="fill:url(#linearGradient5578)"/><path id="path940" d="m -17.818509,6.1407288 c -1.156,-1.041 -2.427,-1.513 -2.84,-1.056 l -3.123,3.467 -0.212,4.8770002 3.31,0.144 4.233,-4.6980002 -0.022,-0.019 c 0.413,-0.457 -0.191,-1.673 -1.346,-2.715 z" style="fill:url(#XMLID_38_)"/><path id="path950" d="m -16.399509,8.7547288 c -0.318,0.327 -1.104,0.143 -1.959,-0.404 -0.284,-0.181 -0.577,-0.404 -0.862,-0.66 -0.271,-0.244 -0.507,-0.498 -0.713,-0.748 -0.658,-0.808 -0.937,-1.591 -0.64,-1.949 l -0.004,-0.004 -13.96,15.4890002 c -0.118,0.417 0.107,1.197 0.69,1.907 0.199,0.243 0.431,0.489 0.694,0.725 0.292,0.264 0.593,0.493 0.885,0.677 0.873,0.553 1.713,0.772 2.028,0.423 0.072,-0.081 0.387,-0.43 0.395,-0.443 l 13.49,-14.9740002 -0.044,-0.039 z" style="fill:url(#XMLID_39_)"/><path id="path957" d="m -36.023509,24.337729 -1.189,3.344 2.859,-1.405 c 0,0 -0.422,-0.024 -1.031,-0.629 -0.808,-0.798 -0.639,-1.31 -0.639,-1.31 z" style="opacity:.8;fill:url(#XMLID_40_);enable-background:new"/><path id="path958" d="m -33.899509,22.314729 14.022,-15.3060002 c -0.018,-0.022 -0.039,-0.044 -0.057,-0.066 -0.263,-0.323 -0.463,-0.643 -0.594,-0.932 l -13.95,15.2290002 c 0.101,0.336 0.294,0.712 0.579,1.075 z" style="opacity:.5;fill:#fff;enable-background:new"/><path id="path959" d="m -19.934509,6.9427288 c -0.116,-0.144 -0.219,-0.285 -0.312,-0.424 l -13.996,15.2780002 c 0.106,0.196 0.236,0.395 0.396,0.588 0.137,0.165 0.288,0.333 0.454,0.497 l 14.034,-15.3200002 c -0.214,-0.204 -0.407,-0.412 -0.576,-0.619 z" style="opacity:.5;fill:#fff;enable-background:new"/></g></g></svg>