<svg xmlns="http://www.w3.org/2000/svg" xmlns:svg="http://www.w3.org/2000/svg" xmlns:xlink="http://www.w3.org/1999/xlink" id="svg2" width="128" height="128" version="1.0" viewBox="0 0 128 128"><metadata id="metadata116"/><defs id="defs4"><linearGradient id="linearGradient3579"><stop id="stop3581" offset="0" stop-color="#672b27"/><stop id="stop3583" offset=".5" stop-color="#712913"/><stop id="stop3585" offset="1" stop-color="#965e26"/></linearGradient><linearGradient id="linearGradient3551"><stop id="stop3553" offset="0"/><stop id="stop3557" offset="1" stop-color="#6f382e" stop-opacity="0"/></linearGradient><linearGradient id="linearGradient3511"><stop id="stop3513" offset="0" stop-color="#813d20"/><stop id="stop3515" offset="1" stop-color="#7f4621"/></linearGradient><linearGradient id="linearGradient3439"><stop id="stop3441" offset="0" stop-color="#824623"/><stop id="stop3443" offset=".5" stop-color="#672412"/><stop id="stop3445" offset="1" stop-color="#420804" stop-opacity=".996"/></linearGradient><linearGradient id="linearGradient3431"><stop id="stop3433" offset="0" stop-color="#c96905"/><stop id="stop3435" offset="1" stop-color="#d6902a"/></linearGradient><linearGradient id="linearGradient3405"><stop id="stop3407" offset="0" stop-color="#672b27"/><stop id="stop3413" offset=".5" stop-color="#712913"/><stop id="stop3409" offset="1" stop-color="#620000" stop-opacity=".984"/></linearGradient><linearGradient id="linearGradient3376" x1="570.7" x2="668.25" y1="284.79" y2="284.79" gradientTransform="matrix(0.65033075,0,0,0.65033075,193.48029,80.168663)" gradientUnits="userSpaceOnUse"><stop id="stop3380" offset="0" stop-color="#d68c23"/><stop id="stop3392" offset=".5" stop-color="#c66100"/><stop id="stop3382" offset="1" stop-color="#6f382e"/></linearGradient><linearGradient id="linearGradient3390" x1="568.19" x2="668.93" y1="280.44" y2="280.44" gradientTransform="matrix(0.65033075,0,0,0.65033075,193.48029,80.168663)" gradientUnits="userSpaceOnUse"><stop id="stop3386" offset="0" stop-color="#d5801f"/><stop id="stop3394" offset=".5" stop-color="#993a1b"/><stop id="stop3388" offset="1" stop-color="#78413e"/></linearGradient><linearGradient id="linearGradient3613" x1="568.29" x2="669.91" y1="285.4" y2="285.4" gradientTransform="matrix(0.65033075,0,0,0.65033075,193.48029,80.168663)" gradientUnits="userSpaceOnUse"><stop id="stop3609" offset="0" stop-color="#fff" stop-opacity=".502"/><stop id="stop3611" offset="1" stop-color="#fff" stop-opacity=".361"/></linearGradient><linearGradient id="linearGradient3617" x1="66.259" x2="66.259" y1="7.864" y2="88.929" gradientUnits="userSpaceOnUse"><stop id="stop3307" offset="0" stop-color="#010000"/><stop id="stop3352" offset=".736" stop-color="#411000"/><stop id="stop3309" offset="1" stop-color="#822000"/></linearGradient><linearGradient id="linearGradient3654" x1="568.67" x2="668" y1="289.29" y2="289.29" gradientTransform="matrix(0.65033075,0,0,0.65033075,193.48029,80.168663)" gradientUnits="userSpaceOnUse"><stop id="stop3625" offset="0" stop-color="#811f00"/><stop id="stop3631" offset=".5" stop-color="#5d0003"/><stop id="stop3627" offset="1" stop-color="#811f00"/></linearGradient><linearGradient id="linearGradient3845" x1="599.37" x2="599.37" y1="285.4" y2="297.6" gradientTransform="matrix(-0.65033075,0,0,0.65033075,997.54923,80.168663)" gradientUnits="userSpaceOnUse" xlink:href="#linearGradient3551"/><linearGradient id="linearGradient3847" x1="597.52" x2="597.52" y1="290.62" y2="318.35" gradientTransform="matrix(-0.65033075,0,0,0.65033075,997.4842,80.168663)" gradientUnits="userSpaceOnUse" xlink:href="#linearGradient3579"/><linearGradient id="linearGradient3850" x1="599.37" x2="599.37" y1="285.4" y2="297.6" gradientTransform="matrix(0.65033075,0,0,0.65033075,193.47739,80.168663)" gradientUnits="userSpaceOnUse" xlink:href="#linearGradient3551"/><linearGradient id="linearGradient3852" x1="597.52" x2="597.52" y1="290.62" y2="318.35" gradientTransform="matrix(0.65033075,0,0,0.65033075,193.54696,80.168663)" gradientUnits="userSpaceOnUse" xlink:href="#linearGradient3579"/><linearGradient id="linearGradient3855" x1="583.48" x2="583.48" y1="315.81" y2="297.05" gradientTransform="matrix(-0.65033075,0,0,0.65033075,997.74433,80.168663)" gradientUnits="userSpaceOnUse" xlink:href="#linearGradient3431"/><linearGradient id="linearGradient3857" x1="597.52" x2="597.52" y1="290.62" y2="318.35" gradientTransform="matrix(-0.65033075,0,0,0.65033075,997.6793,80.168663)" gradientUnits="userSpaceOnUse" xlink:href="#linearGradient3405"/><linearGradient id="linearGradient3860" x1="583.48" x2="583.48" y1="315.81" y2="297.05" gradientTransform="matrix(0.65033075,0,0,0.65033075,193.47739,80.168663)" gradientUnits="userSpaceOnUse" xlink:href="#linearGradient3431"/><linearGradient id="linearGradient3862" x1="597.52" x2="597.52" y1="290.62" y2="318.35" gradientTransform="matrix(0.65033075,0,0,0.65033075,193.54696,80.168663)" gradientUnits="userSpaceOnUse" xlink:href="#linearGradient3405"/><linearGradient id="linearGradient3865" x1="622.05" x2="622.05" y1="295.55" y2="299.34" gradientTransform="matrix(0.65033075,0,0,0.65033075,193.48029,80.818987)" gradientUnits="userSpaceOnUse" xlink:href="#linearGradient3551"/><linearGradient id="linearGradient3867" x1="617.44" x2="617.44" y1="302.66" y2="299.45" gradientTransform="matrix(0.65033075,0,0,0.65033075,193.48029,80.168663)" gradientUnits="userSpaceOnUse" xlink:href="#linearGradient3511"/><linearGradient id="linearGradient3870" x1="622.05" x2="622.05" y1="301.88" y2="299.04" gradientTransform="matrix(0.65033075,0,0,0.65033075,193.48029,80.818987)" gradientUnits="userSpaceOnUse" xlink:href="#linearGradient3431"/><linearGradient id="linearGradient3875" x1="598.18" x2="598.18" y1="290.65" y2="319.61" gradientTransform="matrix(-0.65033075,0,0,0.65033075,997.74433,80.168663)" gradientUnits="userSpaceOnUse" xlink:href="#linearGradient3439"/><linearGradient id="linearGradient3878" x1="612.31" x2="612.31" y1="303.4" y2="299.61" gradientTransform="matrix(0.65033075,0,0,0.65033075,193.48029,80.168663)" gradientUnits="userSpaceOnUse"><stop id="stop3505" offset="0" stop-color="#712717"/><stop id="stop3507" offset="1" stop-color="#76351b"/></linearGradient><linearGradient id="linearGradient3881" x1="598.18" x2="598.18" y1="290.65" y2="319.61" gradientTransform="matrix(0.65033075,0,0,0.65033075,193.47739,80.168663)" gradientUnits="userSpaceOnUse" xlink:href="#linearGradient3439"/><filter id="filter3955"><feGaussianBlur id="feGaussianBlur3957" stdDeviation="1.299"/></filter><linearGradient id="linearGradient3980" x1="27.965" x2="27.965" y1="10.75" y2="55.843" gradientTransform="matrix(0.65033075,0,0,0.65033075,551.3508,210.09824)" gradientUnits="userSpaceOnUse"><stop id="stop3976" offset="0" stop-color="#fff" stop-opacity=".361"/><stop id="stop3978" offset="1" stop-color="#fff" stop-opacity="0"/></linearGradient><linearGradient id="linearGradient3990" x1="111.23" x2="111.23" y1="13.656" y2="80.617" gradientTransform="matrix(0.65033075,0,0,0.65033075,551.3508,210.09824)" gradientUnits="userSpaceOnUse"><stop id="stop3986" offset="0" stop-color="#fff" stop-opacity=".361"/><stop id="stop3988" offset="1" stop-color="#fff" stop-opacity=".086"/></linearGradient><linearGradient id="linearGradient4304" x1="66.259" x2="66.259" y1="7.864" y2="88.929" gradientTransform="matrix(0.65033075,0,0,0.65033075,551.3508,210.09824)" gradientUnits="userSpaceOnUse" xlink:href="#linearGradient3617"/><linearGradient id="linearGradient4306" x1="617.44" x2="617.44" y1="302.66" y2="299.45" gradientTransform="matrix(0.65033075,0,0,0.65033075,193.48029,80.168663)" gradientUnits="userSpaceOnUse" xlink:href="#linearGradient3511"/><linearGradient id="linearGradient4308" x1="66.259" x2="66.259" y1="7.864" y2="88.929" gradientTransform="matrix(0.65033075,0,0,0.65033075,551.3508,210.09824)" gradientUnits="userSpaceOnUse" xlink:href="#linearGradient3617"/><linearGradient id="linearGradient3980-9" x1="27.965" x2="27.965" y1="10.75" y2="55.843" gradientTransform="matrix(0.65033075,0,0,0.65033075,568.35044,225.73219)" gradientUnits="userSpaceOnUse"><stop id="stop3976-6" offset="0" stop-color="#fff" stop-opacity=".361"/><stop id="stop3978-0" offset="1" stop-color="#fff" stop-opacity="0"/></linearGradient><linearGradient id="linearGradient3654-2" x1="568.67" x2="668" y1="289.29" y2="289.29" gradientTransform="matrix(0.65033075,0,0,0.65033075,210.47993,95.802609)" gradientUnits="userSpaceOnUse"><stop id="stop3625-7" offset="0" stop-color="#811f00"/><stop id="stop3631-6" offset=".5" stop-color="#5d0003"/><stop id="stop3627-1" offset="1" stop-color="#811f00"/></linearGradient><linearGradient id="linearGradient4308-3" x1="66.259" x2="66.259" y1="7.864" y2="88.929" gradientTransform="matrix(0.65033075,0,0,0.65033075,568.35044,225.73219)" gradientUnits="userSpaceOnUse" xlink:href="#linearGradient3617"/><linearGradient id="linearGradient3613-9" x1="568.29" x2="669.91" y1="285.4" y2="285.4" gradientTransform="matrix(0.65033075,0,0,0.65033075,210.47993,95.802609)" gradientUnits="userSpaceOnUse"><stop id="stop3609-9" offset="0" stop-color="#fff" stop-opacity=".502"/><stop id="stop3611-1" offset="1" stop-color="#fff" stop-opacity=".361"/></linearGradient><linearGradient id="linearGradient3376-4" x1="570.7" x2="668.25" y1="284.79" y2="284.79" gradientTransform="matrix(0.65033075,0,0,0.65033075,210.47993,95.802609)" gradientUnits="userSpaceOnUse"><stop id="stop3380-9" offset="0" stop-color="#d68c23"/><stop id="stop3392-1" offset=".5" stop-color="#c66100"/><stop id="stop3382-0" offset="1" stop-color="#6f382e"/></linearGradient><linearGradient id="linearGradient3390-7" x1="568.19" x2="668.93" y1="280.44" y2="280.44" gradientTransform="matrix(0.65033075,0,0,0.65033075,210.47993,95.802609)" gradientUnits="userSpaceOnUse"><stop id="stop3386-5" offset="0" stop-color="#d5801f"/><stop id="stop3394-8" offset=".5" stop-color="#993a1b"/><stop id="stop3388-7" offset="1" stop-color="#78413e"/></linearGradient><linearGradient id="linearGradient3990-0" x1="111.23" x2="111.23" y1="13.656" y2="80.617" gradientTransform="matrix(0.65033075,0,0,0.65033075,568.35044,225.73219)" gradientUnits="userSpaceOnUse"><stop id="stop3986-4" offset="0" stop-color="#fff" stop-opacity=".361"/><stop id="stop3988-8" offset="1" stop-color="#fff" stop-opacity=".086"/></linearGradient><linearGradient id="linearGradient3845-0" x1="599.37" x2="599.37" y1="285.4" y2="297.6" gradientTransform="matrix(-0.65033075,0,0,0.65033075,1014.5489,95.802609)" gradientUnits="userSpaceOnUse" xlink:href="#linearGradient3551"/><linearGradient id="linearGradient3847-9" x1="597.52" x2="597.52" y1="290.62" y2="318.35" gradientTransform="matrix(-0.65033075,0,0,0.65033075,1014.4838,95.802609)" gradientUnits="userSpaceOnUse" xlink:href="#linearGradient3579"/><linearGradient id="linearGradient3850-4" x1="599.37" x2="599.37" y1="285.4" y2="297.6" gradientTransform="matrix(0.65033075,0,0,0.65033075,210.47703,95.802609)" gradientUnits="userSpaceOnUse" xlink:href="#linearGradient3551"/><linearGradient id="linearGradient3852-2" x1="597.52" x2="597.52" y1="290.62" y2="318.35" gradientTransform="matrix(0.65033075,0,0,0.65033075,210.5466,95.802609)" gradientUnits="userSpaceOnUse" xlink:href="#linearGradient3579"/><linearGradient id="linearGradient3855-2" x1="583.48" x2="583.48" y1="315.81" y2="297.05" gradientTransform="matrix(-0.65033075,0,0,0.65033075,1014.744,95.802609)" gradientUnits="userSpaceOnUse" xlink:href="#linearGradient3431"/><linearGradient id="linearGradient3857-5" x1="597.52" x2="597.52" y1="290.62" y2="318.35" gradientTransform="matrix(-0.65033075,0,0,0.65033075,1014.6789,95.802609)" gradientUnits="userSpaceOnUse" xlink:href="#linearGradient3405"/><linearGradient id="linearGradient3860-0" x1="583.48" x2="583.48" y1="315.81" y2="297.05" gradientTransform="matrix(0.65033075,0,0,0.65033075,210.47703,95.802609)" gradientUnits="userSpaceOnUse" xlink:href="#linearGradient3431"/><linearGradient id="linearGradient3865-8" x1="622.05" x2="622.05" y1="295.55" y2="299.34" gradientTransform="matrix(0.65033075,0,0,0.65033075,210.47993,96.452939)" gradientUnits="userSpaceOnUse" xlink:href="#linearGradient3551"/><linearGradient id="linearGradient3867-3" x1="617.44" x2="617.44" y1="302.66" y2="299.45" gradientTransform="matrix(0.65033075,0,0,0.65033075,210.47993,95.802609)" gradientUnits="userSpaceOnUse" xlink:href="#linearGradient3511"/><linearGradient id="linearGradient3870-4" x1="622.05" x2="622.05" y1="301.88" y2="299.04" gradientTransform="matrix(0.65033075,0,0,0.65033075,210.47993,96.452939)" gradientUnits="userSpaceOnUse" xlink:href="#linearGradient3431"/><linearGradient id="linearGradient3875-9" x1="598.18" x2="598.18" y1="290.65" y2="319.61" gradientTransform="matrix(-0.65033075,0,0,0.65033075,1014.744,95.802609)" gradientUnits="userSpaceOnUse" xlink:href="#linearGradient3439"/><linearGradient id="linearGradient3878-2" x1="612.31" x2="612.31" y1="303.4" y2="299.61" gradientTransform="matrix(0.65033075,0,0,0.65033075,210.47993,95.802609)" gradientUnits="userSpaceOnUse"><stop id="stop3505-5" offset="0" stop-color="#712717"/><stop id="stop3507-4" offset="1" stop-color="#76351b"/></linearGradient><linearGradient id="linearGradient3881-4" x1="598.18" x2="598.18" y1="290.65" y2="319.61" gradientTransform="matrix(0.65033075,0,0,0.65033075,210.47703,95.802609)" gradientUnits="userSpaceOnUse" xlink:href="#linearGradient3439"/><filter id="filter3955-9"><feGaussianBlur id="feGaussianBlur3957-3" stdDeviation="1.299"/></filter><linearGradient id="linearGradient2474" x1="66.259" x2="66.259" y1="7.864" y2="88.929" gradientTransform="matrix(0.65033075,0,0,0.65033075,568.35044,225.73219)" gradientUnits="userSpaceOnUse" xlink:href="#linearGradient3617"/><linearGradient id="linearGradient2476" x1="617.44" x2="617.44" y1="302.66" y2="299.45" gradientTransform="matrix(0.65033075,0,0,0.65033075,210.47993,95.802609)" gradientUnits="userSpaceOnUse" xlink:href="#linearGradient3511"/><linearGradient id="linearGradient2478" x1="597.52" x2="597.52" y1="290.62" y2="318.35" gradientTransform="matrix(0.65033075,0,0,0.65033075,210.5466,95.802609)" gradientUnits="userSpaceOnUse" xlink:href="#linearGradient3579"/><linearGradient id="linearGradient3980-2" x1="27.965" x2="27.965" y1="10.75" y2="55.843" gradientTransform="matrix(0.65033075,0,0,0.65033075,585.31099,242.01649)" gradientUnits="userSpaceOnUse"><stop id="stop3976-64" offset="0" stop-color="#fff" stop-opacity=".361"/><stop id="stop3978-1" offset="1" stop-color="#fff" stop-opacity="0"/></linearGradient><linearGradient id="linearGradient3654-28" x1="568.67" x2="668" y1="289.29" y2="289.29" gradientTransform="matrix(0.65033075,0,0,0.65033075,227.44048,112.08691)" gradientUnits="userSpaceOnUse"><stop id="stop3625-8" offset="0" stop-color="#811f00"/><stop id="stop3631-9" offset=".5" stop-color="#5d0003"/><stop id="stop3627-2" offset="1" stop-color="#811f00"/></linearGradient><linearGradient id="linearGradient4308-8" x1="66.259" x2="66.259" y1="7.864" y2="88.929" gradientTransform="matrix(0.65033075,0,0,0.65033075,585.31099,242.01649)" gradientUnits="userSpaceOnUse" xlink:href="#linearGradient3617"/><linearGradient id="linearGradient3613-8" x1="568.29" x2="669.91" y1="285.4" y2="285.4" gradientTransform="matrix(0.65033075,0,0,0.65033075,227.44048,112.08691)" gradientUnits="userSpaceOnUse"><stop id="stop3609-3" offset="0" stop-color="#fff" stop-opacity=".502"/><stop id="stop3611-8" offset="1" stop-color="#fff" stop-opacity=".361"/></linearGradient><linearGradient id="linearGradient3376-3" x1="570.7" x2="668.25" y1="284.79" y2="284.79" gradientTransform="matrix(0.65033075,0,0,0.65033075,227.44048,112.08691)" gradientUnits="userSpaceOnUse"><stop id="stop3380-3" offset="0" stop-color="#d68c23"/><stop id="stop3392-3" offset=".5" stop-color="#c66100"/><stop id="stop3382-8" offset="1" stop-color="#6f382e"/></linearGradient><linearGradient id="linearGradient3390-0" x1="568.19" x2="668.93" y1="280.44" y2="280.44" gradientTransform="matrix(0.65033075,0,0,0.65033075,227.44048,112.08691)" gradientUnits="userSpaceOnUse"><stop id="stop3386-4" offset="0" stop-color="#d5801f"/><stop id="stop3394-7" offset=".5" stop-color="#993a1b"/><stop id="stop3388-6" offset="1" stop-color="#78413e"/></linearGradient><linearGradient id="linearGradient3990-8" x1="111.23" x2="111.23" y1="13.656" y2="80.617" gradientTransform="matrix(0.65033075,0,0,0.65033075,585.31099,242.01649)" gradientUnits="userSpaceOnUse"><stop id="stop3986-9" offset="0" stop-color="#fff" stop-opacity=".361"/><stop id="stop3988-0" offset="1" stop-color="#fff" stop-opacity=".086"/></linearGradient><linearGradient id="linearGradient3845-6" x1="599.37" x2="599.37" y1="285.4" y2="297.6" gradientTransform="matrix(-0.65033075,0,0,0.65033075,1031.5094,112.08691)" gradientUnits="userSpaceOnUse" xlink:href="#linearGradient3551"/><linearGradient id="linearGradient3847-90" x1="597.52" x2="597.52" y1="290.62" y2="318.35" gradientTransform="matrix(-0.65033075,0,0,0.65033075,1031.4444,112.08691)" gradientUnits="userSpaceOnUse" xlink:href="#linearGradient3579"/><linearGradient id="linearGradient3850-7" x1="599.37" x2="599.37" y1="285.4" y2="297.6" gradientTransform="matrix(0.65033075,0,0,0.65033075,227.43758,112.08691)" gradientUnits="userSpaceOnUse" xlink:href="#linearGradient3551"/><linearGradient id="linearGradient3852-3" x1="597.52" x2="597.52" y1="290.62" y2="318.35" gradientTransform="matrix(0.65033075,0,0,0.65033075,227.50715,112.08691)" gradientUnits="userSpaceOnUse" xlink:href="#linearGradient3579"/><linearGradient id="linearGradient3855-26" x1="583.48" x2="583.48" y1="315.81" y2="297.05" gradientTransform="matrix(-0.65033075,0,0,0.65033075,1031.7045,112.08691)" gradientUnits="userSpaceOnUse" xlink:href="#linearGradient3431"/><linearGradient id="linearGradient3857-6" x1="597.52" x2="597.52" y1="290.62" y2="318.35" gradientTransform="matrix(-0.65033075,0,0,0.65033075,1031.6395,112.08691)" gradientUnits="userSpaceOnUse" xlink:href="#linearGradient3405"/><linearGradient id="linearGradient3860-9" x1="583.48" x2="583.48" y1="315.81" y2="297.05" gradientTransform="matrix(0.65033075,0,0,0.65033075,227.43758,112.08691)" gradientUnits="userSpaceOnUse" xlink:href="#linearGradient3431"/><linearGradient id="linearGradient3865-0" x1="622.05" x2="622.05" y1="295.55" y2="299.34" gradientTransform="matrix(0.65033075,0,0,0.65033075,227.44048,112.73724)" gradientUnits="userSpaceOnUse" xlink:href="#linearGradient3551"/><linearGradient id="linearGradient3867-4" x1="617.44" x2="617.44" y1="302.66" y2="299.45" gradientTransform="matrix(0.65033075,0,0,0.65033075,227.44048,112.08691)" gradientUnits="userSpaceOnUse" xlink:href="#linearGradient3511"/><linearGradient id="linearGradient3870-48" x1="622.05" x2="622.05" y1="301.88" y2="299.04" gradientTransform="matrix(0.65033075,0,0,0.65033075,227.44048,112.73724)" gradientUnits="userSpaceOnUse" xlink:href="#linearGradient3431"/><linearGradient id="linearGradient3875-0" x1="598.18" x2="598.18" y1="290.65" y2="319.61" gradientTransform="matrix(-0.65033075,0,0,0.65033075,1031.7045,112.08691)" gradientUnits="userSpaceOnUse" xlink:href="#linearGradient3439"/><linearGradient id="linearGradient3878-4" x1="612.31" x2="612.31" y1="303.4" y2="299.61" gradientTransform="matrix(0.65033075,0,0,0.65033075,227.44048,112.08691)" gradientUnits="userSpaceOnUse"><stop id="stop3505-7" offset="0" stop-color="#712717"/><stop id="stop3507-9" offset="1" stop-color="#76351b"/></linearGradient><linearGradient id="linearGradient3881-3" x1="598.18" x2="598.18" y1="290.65" y2="319.61" gradientTransform="matrix(0.65033075,0,0,0.65033075,227.43758,112.08691)" gradientUnits="userSpaceOnUse" xlink:href="#linearGradient3439"/><filter id="filter3955-2"><feGaussianBlur id="feGaussianBlur3957-8" stdDeviation="1.299"/></filter><linearGradient id="linearGradient2659" x1="66.259" x2="66.259" y1="7.864" y2="88.929" gradientTransform="matrix(0.65033075,0,0,0.65033075,585.31099,242.01649)" gradientUnits="userSpaceOnUse" xlink:href="#linearGradient3617"/><linearGradient id="linearGradient2661" x1="617.44" x2="617.44" y1="302.66" y2="299.45" gradientTransform="matrix(0.65033075,0,0,0.65033075,227.44048,112.08691)" gradientUnits="userSpaceOnUse" xlink:href="#linearGradient3511"/><linearGradient id="linearGradient2663" x1="597.52" x2="597.52" y1="290.62" y2="318.35" gradientTransform="matrix(0.65033075,0,0,0.65033075,227.50715,112.08691)" gradientUnits="userSpaceOnUse" xlink:href="#linearGradient3579"/></defs><g id="layer1" transform="translate(-550.29 -199.79)"><g id="g4336"><g id="g3417"><path style="fill:#fff;fill-rule:evenodd;stroke-width:.65033078" id="path3970" d="m 624.40895,262.50384 0.65034,-0.0202 -0.99501,-45.821 v -0.0208 c 0,0 0.46173,-0.49029 0.46173,-0.49029 0,7e-5 -0.83892,0.18372 -0.83892,0.17748 l -56.54561,0.10991 c -0.007,-6.5e-4 -0.0182,-0.002 -0.0403,0 -0.0117,0.001 -0.0429,-0.007 -0.0611,0 -0.009,0.003 -0.01,0.0139 -0.0202,0.0203 -0.0104,0.006 -0.0403,0.02 -0.041,0.0203 0,3.3e-4 -0.0137,0.0302 -0.0202,0.0406 -0.007,0.0105 -0.0169,0.0111 -0.0202,0.0203 -0.007,0.0184 6.5e-4,0.0497 0,0.061 -0.003,0.0228 -6.5e-4,0.0332 0,0.0403 v 0.0208 l -0.79276,45.821 0.65033,0.0202 0.79276,-45.41454 h 55.82504 z m -0.34467,-45.86197 c 0,-0.001 0.006,0.0104 0,-0.0403 v -0.061 c 0,-5.2e-4 -0.039,-0.0402 -0.039,-0.0406 0,-4.6e-4 -0.026,-0.0335 -0.039,-0.0407 -0.013,-0.007 -0.0325,-0.0178 -0.0455,-0.0203 -0.0325,-0.01 -0.0455,0 -0.0585,0 h -0.0195 c 0.10405,0.0981 0.2016,0.2029 0.2016,0.2029 z"/><path style="fill-opacity:.50196019;fill-rule:evenodd;filter:url(#filter3955)" id="path3918" d="m 576.17,207.75 c -1.53,0 -2.81,1.29 -2.81,2.82 L 572.14,279 v 0.03 c -0.01,0.04 -0.02,0.07 -0.03,0.1 -0.04,0.06 -0.09,0.1 -0.16,0.12 -0.02,0.01 -0.04,0.01 -0.06,0 h -2.72 c -0.66,0 -1.22,0.54 -1.22,1.19 v 9.34 c 0,0.66 0.57,1.22 1.22,1.22 h 26.37 l -18.71,24.19 c -0.95,1.22 -1.29,2.51 -0.79,3.56 0.51,1.05 1.74,1.57 3.29,1.57 h 2.25 1.9 5.13 c 0.62,0 1.13,-0.25 1.53,-0.75 v -0.04 l 10,-13.84 c 0.04,0 0.05,0.03 0.09,0.03 h 39.47 l 10.03,13.81 v 0.04 c 0.39,0.5 0.91,0.75 1.53,0.75 h 5.13 1.9 2.25 c 1.55,0 2.78,-0.52 3.29,-1.57 0.5,-1.05 0.16,-2.34 -0.79,-3.56 L 644.33,291 h 26.37 c 0.65,0 1.22,-0.56 1.22,-1.22 v -9.34 c 0,-0.65 -0.56,-1.19 -1.22,-1.19 h -2.75 c -0.06,0 -0.11,-0.02 -0.16,-0.06 -0.05,-0.05 -0.09,-0.11 -0.09,-0.19 l -1.5,-68.47 c 0,-1.53 -1.25,-2.78 -2.78,-2.78 z M 610.79,291 h 18.29 l 4.56,6.32 h -27.41 z" transform="matrix(0.65033075,0,0,0.65033075,193.48029,80.168663)"/><path id="rect3354" d="m 566.45148,215.62605 h 58.12656 c 0.16909,0 0.30566,0.13657 0.30566,0.30566 l 0.7869,45.56217 c 0,0.16909 -0.13657,0.30566 -0.30566,0.30566 h -58.91346 c -0.16909,0 -0.30566,-0.13657 -0.30566,-0.30566 v -45.56217 c 0,-0.16909 0.13657,-0.30566 0.30566,-0.30566 z" style="fill:#025;fill-opacity:1;fill-rule:evenodd;stroke:#000;stroke-width:.65033078;stroke-linecap:square;stroke-linejoin:round;stroke-opacity:1"/><path style="fill:url(#linearGradient4304);fill-rule:evenodd;stroke-width:.65033078" id="path3635" d="m 561.79641,268.16042 c 0,0.42532 0.36744,0.79275 0.79275,0.79275 h 66.02808 c 0.42922,0 0.79341,-0.36743 0.79341,-0.79275 h -67.61489 z"/><path style="fill:none;stroke:url(#linearGradient3881);stroke-width:.91046304;stroke-linecap:square;stroke-linejoin:round" id="rect3396" d="m 582.50814,266.58597 c -0.21461,0 -0.48124,0.13657 -0.61131,0.30566 l -13.9626,18.04667 c -1.11206,1.43723 -0.55928,2.60133 1.26164,2.60133 h 1.45024 1.24213 3.3427 c 0.20811,0 0.50076,-0.13657 0.63082,-0.30566 l 14.73,-20.34234 c 0.11705,-0.17559 0.065,-0.30566 -0.14308,-0.30566 h -2.3672 -3.12809 z"/><rect style="fill:none;stroke:url(#linearGradient3878);stroke-width:.65033078;stroke-linecap:square;stroke-linejoin:round" id="rect3489" width="26.599" height="4.552" x="582.398" y="273.505" ry=".383"/><path style="fill:none;stroke:url(#linearGradient3875);stroke-width:.91046304;stroke-linecap:square;stroke-linejoin:round" id="path3453" d="m 608.69696,266.58597 c 0.21461,0 0.48125,0.13657 0.61131,0.30566 l 13.96261,18.04667 c 1.11206,1.43723 0.55278,2.60133 -1.26165,2.60133 h -1.45023 -1.24214 -3.3427 c -0.2146,0 -0.50075,-0.13657 -0.63082,-0.30566 l -14.72999,-20.34234 c -0.11706,-0.17559 -0.0715,-0.30566 0.14308,-0.30566 h 2.3607 3.13459 z"/><rect style="fill:url(#linearGradient3870);fill-rule:evenodd;stroke:url(#linearGradient4306);stroke-width:.65033078;stroke-linecap:square;stroke-linejoin:round" id="rect3499" width="26.599" height="3.252" x="582.398" y="274.156" ry=".383"/><rect style="fill:url(#linearGradient3865);fill-rule:evenodd;stroke:url(#linearGradient3867);stroke-width:.65033078;stroke-linecap:square;stroke-linejoin:round" id="rect3565" width="26.599" height="3.252" x="582.398" y="274.156" ry=".383"/><path style="fill:url(#linearGradient3860);fill-rule:evenodd;stroke:url(#linearGradient3862);stroke-width:.86884189;stroke-linecap:square;stroke-linejoin:round" id="path3403" d="m 583.05442,267.19728 c -0.2016,0 -0.45523,0.13007 -0.57879,0.29265 l -1.69086,2.19161 -12.3823,15.02915 c -1.06004,1.3722 -0.53327,2.48426 1.20311,2.48426 h 1.38521 1.1836 2.62083 c 0.2016,0 0.47474,-0.13657 0.59831,-0.29265 l 14.00812,-19.41237 c 0.12356,-0.16258 0.0715,-0.29265 -0.13007,-0.29265 h -1.64533 -2.98502 z"/><path style="fill:url(#linearGradient3855);fill-rule:evenodd;stroke:url(#linearGradient3857);stroke-width:.86884189;stroke-linecap:square;stroke-linejoin:round" id="path3455" d="m 608.14418,267.19728 c 0.2016,0 0.46174,0.13007 0.5853,0.29265 l 1.68436,2.19161 12.3888,15.02915 c 1.06004,1.3722 0.53327,2.48426 -1.20311,2.48426 h -1.38521 -1.1836 -2.62083 c -0.20161,0 -0.48125,-0.13657 -0.60481,-0.29265 l -14.00813,-19.41237 c -0.12356,-0.16258 -0.065,-0.29265 0.13657,-0.29265 h 1.63884 2.98502 z"/><path style="fill:url(#linearGradient3850);fill-rule:evenodd;stroke:url(#linearGradient3852);stroke-width:.52026463;stroke-linecap:square;stroke-linejoin:round" id="path3547" d="m 583.05442,267.19728 c -0.2016,0 -0.45523,0.13007 -0.57879,0.29265 l -1.69086,2.19161 -11.76449,14.78202 c -1.06003,1.3722 -0.74788,2.43224 0.98851,2.43224 h 0.70886 1.1836 2.62083 c 0.2016,0 0.47474,-0.10405 0.60481,-0.26664 l 14.27476,-19.13923 c 0.12356,-0.16258 0.0715,-0.29265 -0.13007,-0.29265 h -1.64533 -2.98502 z"/><path style="fill:url(#linearGradient3845);fill-rule:evenodd;stroke:url(#linearGradient3847);stroke-width:.52026463;stroke-linecap:square;stroke-linejoin:round" id="path3589" d="m 607.96859,267.19728 c 0.20811,0 0.46174,0.13007 0.5853,0.29265 l 1.68436,2.19161 11.76448,14.78202 c 1.06654,1.3722 0.74788,2.43224 -0.982,2.43224 h -0.70886 -1.1836 -2.62083 c -0.20811,0 -0.48125,-0.10405 -0.60481,-0.26664 l -14.28127,-19.13923 c -0.12356,-0.16258 -0.065,-0.29265 0.13657,-0.29265 h 1.63884 2.99152 z"/><path style="fill:url(#linearGradient3990);fill-rule:evenodd;stroke-width:.65033078" id="path3961" d="m 624.40895,262.50384 0.65034,-0.0202 -0.99501,-45.821 v -0.0208 c 0,0 0.46173,-0.49029 0.46173,-0.49029 0,7e-5 -0.83892,0.18372 -0.83892,0.17748 l -56.54561,0.10991 c -0.007,-6.5e-4 -0.0182,-0.002 -0.0403,0 -0.0117,0.001 -0.0429,-0.007 -0.0611,0 -0.009,0.003 -0.01,0.0139 -0.0202,0.0203 -0.0104,0.006 -0.0403,0.02 -0.041,0.0203 0,3.3e-4 -0.0137,0.0302 -0.0202,0.0406 -0.007,0.0105 -0.0169,0.0111 -0.0202,0.0203 -0.007,0.0184 6.5e-4,0.0497 0,0.061 -0.003,0.0228 -6.5e-4,0.0332 0,0.0403 v 0.796 h 0.65033 55.82504 z m -0.34467,-45.86197 c 0,-0.001 0.006,0.0104 0,-0.0403 v -0.061 c 0,-5.2e-4 -0.039,-0.0402 -0.039,-0.0406 0,-4.6e-4 -0.026,-0.0335 -0.039,-0.0407 -0.013,-0.007 -0.0325,-0.0178 -0.0455,-0.0203 -0.0325,-0.01 -0.0455,0 -0.0585,0 h -0.0195 c 0.10405,0.0981 0.2016,0.2029 0.2016,0.2029 z"/><rect style="fill:url(#linearGradient3376);fill-rule:evenodd;stroke:url(#linearGradient3390);stroke-width:.65033078;stroke-linecap:square;stroke-linejoin:round" id="rect3374" width="66.379" height="5.752" x="562.445" y="262.45" ry=".303"/><rect style="fill:none;stroke:url(#linearGradient3613);stroke-width:.65033078;stroke-linecap:square" id="rect3595" width="65.443" height="5.197" x="563.382" y="263.1"/><path style="fill:url(#linearGradient4308);fill-rule:evenodd;stroke-width:.65033078;stroke:none;stroke-opacity:1" id="rect2521" d="m 612.52026,268.95317 -0.46174,-0.97549 h 16.2134 c 0.013,0.002 0.026,0.002 0.039,0 0.0455,-0.0117 0.0845,-0.041 0.10405,-0.0813 0.013,-0.0189 0.0195,-0.0397 0.0195,-0.0611 v -0.0202 -5.36522 -0.0403 c -0.013,-0.0442 -0.039,-0.0807 -0.078,-0.10211 -0.0195,-0.0104 -0.039,-0.0176 -0.065,-0.0202 -0.006,-6.5e-4 -0.013,-6.5e-4 -0.0195,0 h -1.40472 -1.7819 l -0.026,-1.13808 -0.99501,-44.48652 v -0.0208 c 0,-0.001 0.006,0.0104 0,-0.0403 v -0.061 c 0,-5.2e-4 -0.039,-0.0402 -0.039,-0.0406 0,-4.6e-4 -0.026,-0.0335 -0.039,-0.0407 -0.013,-0.007 -0.0325,-0.0178 -0.0455,-0.0203 -0.0325,-0.01 -0.0455,0 -0.0585,0 h -56.74071 c -0.007,-6.5e-4 -0.0182,-0.002 -0.0403,0 -0.0117,0.001 -0.0429,-0.007 -0.0611,0 -0.009,0.003 -0.01,0.0139 -0.0202,0.0203 -0.0104,0.006 -0.0403,0.02 -0.041,0.0203 0,3.3e-4 -0.0137,0.0302 -0.0202,0.0406 -0.007,0.0105 -0.0169,0.0111 -0.0202,0.0203 -0.007,0.0184 6.5e-4,0.0497 0,0.061 -0.003,0.0228 -6.5e-4,0.0332 0,0.0403 v 0.0208 l -0.79276,44.48652 -0.0202,1.13808 h -1.78841 -1.40276 c -0.013,-0.002 -0.0267,-0.002 -0.0403,0 -0.0436,0.0117 -0.0806,0.041 -0.10145,0.0813 -0.0111,0.0189 -0.0176,0.0397 -0.0208,0.0611 v 0.0202 5.36522 c -10e-4,0.0137 -10e-4,0.0273 0,0.0403 0.0123,0.0442 0.0416,0.0806 0.0819,0.1021 0.0182,0.0104 0.039,0.0176 0.0605,0.0202 0.007,6.5e-4 0.0137,6.5e-4 0.0202,0 h 15.96172 l -0.76934,0.97549 h -15.53771 c -0.42531,0 -0.79275,-0.36743 -0.79275,-0.79275 v -6.07604 c 0,-0.42597 0.36354,-0.77259 0.79275,-0.77259 h 1.76825 c 0.0137,0.002 0.0273,0.002 0.0403,0 0.0442,-0.0117 0.0806,-0.041 0.10211,-0.0813 0.0104,-0.0189 0.0175,-0.0397 0.0202,-0.0611 6.5e-4,-0.006 6.5e-4,-0.0136 0,-0.0202 l 0.79275,-44.50733 c 0,-0.9928 0.83567,-1.82873 1.82873,-1.82873 h 56.74071 c 0.995,0 1.80792,0.81356 1.80792,1.80857 l 0.97549,44.52749 c 0,0.0475 0.026,0.0924 0.065,0.12227 0.026,0.0247 0.0585,0.039 0.0975,0.0403 h 1.78841 c 0.42922,0 0.79341,0.34662 0.79341,0.77259 v 6.07604 c 0,0.42532 -0.36419,0.79275 -0.79341,0.79275 z"/><path style="fill:none;stroke:url(#linearGradient3654);stroke-width:.65033078" id="path3621" d="m 563.62904,268.30284 h 63.94703"/><path style="fill:url(#linearGradient3980);fill-rule:evenodd;stroke-width:.65033078" id="path3972" d="m 566.93858,217.43462 -0.79276,45.05557 0.65033,0.0208 0.79276,-45.07638 z"/><path style="fill:#fff;fill-rule:evenodd;stroke-width:.65033078" id="path3970-6" d="m 641.40859,278.13779 0.65034,-0.0202 -0.99501,-45.821 v -0.0208 c 0,0 0.46173,-0.49029 0.46173,-0.49029 0,7e-5 -0.83892,0.18372 -0.83892,0.17748 l -56.54561,0.10991 c -0.007,-6.5e-4 -0.0182,-0.002 -0.0403,0 -0.0117,0.001 -0.0429,-0.007 -0.0611,0 -0.009,0.003 -0.01,0.0139 -0.0202,0.0203 -0.0104,0.006 -0.0403,0.02 -0.041,0.0203 0,3.3e-4 -0.0137,0.0302 -0.0202,0.0406 -0.007,0.0105 -0.0169,0.0111 -0.0202,0.0203 -0.007,0.0184 6.5e-4,0.0497 0,0.061 -0.003,0.0228 -6.5e-4,0.0332 0,0.0403 v 0.0208 l -0.79276,45.821 0.65033,0.0202 0.79276,-45.41454 h 55.82504 z m -0.34467,-45.86197 c 0,-0.001 0.006,0.0104 0,-0.0403 v -0.061 c 0,-5.2e-4 -0.039,-0.0402 -0.039,-0.0406 0,-4.6e-4 -0.026,-0.0335 -0.039,-0.0407 -0.013,-0.007 -0.0325,-0.0178 -0.0455,-0.0203 -0.0325,-0.01 -0.0455,0 -0.0585,0 h -0.0195 c 0.10405,0.0981 0.2016,0.2029 0.2016,0.2029 z"/><path style="fill-opacity:.50196049;fill-rule:evenodd;filter:url(#filter3955-9)" id="path3918-0" d="m 576.17,207.75 c -1.53,0 -2.81,1.29 -2.81,2.82 L 572.14,279 v 0.03 c -0.01,0.04 -0.02,0.07 -0.03,0.1 -0.04,0.06 -0.09,0.1 -0.16,0.12 -0.02,0.01 -0.04,0.01 -0.06,0 h -2.72 c -0.66,0 -1.22,0.54 -1.22,1.19 v 9.34 c 0,0.66 0.57,1.22 1.22,1.22 h 26.37 l -18.71,24.19 c -0.95,1.22 -1.29,2.51 -0.79,3.56 0.51,1.05 1.74,1.57 3.29,1.57 h 2.25 1.9 5.13 c 0.62,0 1.13,-0.25 1.53,-0.75 v -0.04 l 10,-13.84 c 0.04,0 0.05,0.03 0.09,0.03 h 39.47 l 10.03,13.81 v 0.04 c 0.39,0.5 0.91,0.75 1.53,0.75 h 5.13 1.9 2.25 c 1.55,0 2.78,-0.52 3.29,-1.57 0.5,-1.05 0.16,-2.34 -0.79,-3.56 L 644.33,291 h 26.37 c 0.65,0 1.22,-0.56 1.22,-1.22 v -9.34 c 0,-0.65 -0.56,-1.19 -1.22,-1.19 h -2.75 c -0.06,0 -0.11,-0.02 -0.16,-0.06 -0.05,-0.05 -0.09,-0.11 -0.09,-0.19 l -1.5,-68.47 c 0,-1.53 -1.25,-2.78 -2.78,-2.78 z M 610.79,291 h 18.29 l 4.56,6.32 h -27.41 z" transform="matrix(0.65033075,0,0,0.65033075,210.47993,95.802609)"/><path id="rect3354-5" d="m 583.45112,231.26 h 58.12656 c 0.16909,0 0.30566,0.13657 0.30566,0.30566 l 0.7869,45.56217 c 0,0.16909 -0.13657,0.30566 -0.30566,0.30566 h -58.91346 c -0.16909,0 -0.30566,-0.13657 -0.30566,-0.30566 v -45.56217 c 0,-0.16909 0.13657,-0.30566 0.30566,-0.30566 z" style="fill:#025;fill-opacity:1;fill-rule:evenodd;stroke:#000;stroke-width:.65033078;stroke-linecap:square;stroke-linejoin:round;stroke-opacity:1"/><path style="fill:url(#linearGradient2474);fill-rule:evenodd;stroke-width:.65033078" id="path3635-0" d="m 578.79605,283.79437 c 0,0.42532 0.36744,0.79275 0.79275,0.79275 h 66.02808 c 0.42922,0 0.79341,-0.36743 0.79341,-0.79275 H 578.7954 Z"/><rect style="fill:none;stroke:url(#linearGradient3878-2);stroke-width:.65033078;stroke-linecap:square;stroke-linejoin:round" id="rect3489-9" width="26.599" height="4.552" x="599.397" y="289.139" ry=".383"/><path style="fill:none;stroke:url(#linearGradient3875-9);stroke-width:.91046304;stroke-linecap:square;stroke-linejoin:round" id="path3453-4" d="m 625.6966,282.21992 c 0.21461,0 0.48125,0.13657 0.61131,0.30566 l 13.96261,18.04667 c 1.11206,1.43723 0.55278,2.60133 -1.26165,2.60133 h -1.45023 -1.24214 -3.3427 c -0.2146,0 -0.50075,-0.13657 -0.63082,-0.30566 l -14.72999,-20.34234 c -0.11706,-0.17559 -0.0715,-0.30566 0.14308,-0.30566 h 2.3607 3.13459 z"/><rect style="fill:url(#linearGradient3870-4);fill-rule:evenodd;stroke:url(#linearGradient2476);stroke-width:.65033078;stroke-linecap:square;stroke-linejoin:round" id="rect3499-3" width="26.599" height="3.252" x="599.397" y="289.79" ry=".383"/><rect style="fill:url(#linearGradient3865-8);fill-rule:evenodd;stroke:url(#linearGradient3867-3);stroke-width:.65033078;stroke-linecap:square;stroke-linejoin:round" id="rect3565-5" width="26.599" height="3.252" x="599.397" y="289.79" ry=".383"/><path style="fill:url(#linearGradient3860-0);fill-rule:evenodd;stroke:url(#linearGradient2478);stroke-width:.86884189;stroke-linecap:square;stroke-linejoin:round" id="path3403-1" d="m 600.05406,282.83123 c -0.2016,0 -0.45523,0.13007 -0.57879,0.29265 l -1.69086,2.19161 -12.3823,15.02915 c -1.06004,1.3722 -0.53327,2.48426 1.20311,2.48426 h 1.38521 1.1836 2.62083 c 0.2016,0 0.47474,-0.13657 0.59831,-0.29265 l 14.00812,-19.41237 c 0.12356,-0.16258 0.0715,-0.29265 -0.13007,-0.29265 h -1.64533 -2.98502 z"/><path style="fill:url(#linearGradient3855-2);fill-rule:evenodd;stroke:url(#linearGradient3857-5);stroke-width:.86884189;stroke-linecap:square;stroke-linejoin:round" id="path3455-7" d="m 625.14382,282.83123 c 0.2016,0 0.46174,0.13007 0.5853,0.29265 l 1.68436,2.19161 12.3888,15.02915 c 1.06004,1.3722 0.53327,2.48426 -1.20311,2.48426 h -1.38521 -1.1836 -2.62083 c -0.20161,0 -0.48125,-0.13657 -0.60481,-0.29265 l -14.00813,-19.41237 c -0.12356,-0.16258 -0.065,-0.29265 0.13657,-0.29265 h 1.63884 2.98502 z"/><path style="fill:url(#linearGradient3850-4);fill-rule:evenodd;stroke:url(#linearGradient3852-2);stroke-width:.52026463;stroke-linecap:square;stroke-linejoin:round" id="path3547-4" d="m 600.05406,282.83123 c -0.2016,0 -0.45523,0.13007 -0.57879,0.29265 l -1.69086,2.19161 -11.76449,14.78202 c -1.06003,1.3722 -0.74788,2.43224 0.98851,2.43224 h 0.70886 1.1836 2.62083 c 0.2016,0 0.47474,-0.10405 0.60481,-0.26664 l 14.27476,-19.13923 c 0.12356,-0.16258 0.0715,-0.29265 -0.13007,-0.29265 h -1.64533 -2.98502 z"/><path style="fill:url(#linearGradient3845-0);fill-rule:evenodd;stroke:url(#linearGradient3847-9);stroke-width:.52026463;stroke-linecap:square;stroke-linejoin:round" id="path3589-3" d="m 624.96823,282.83123 c 0.20811,0 0.46174,0.13007 0.5853,0.29265 l 1.68436,2.19161 11.76448,14.78202 c 1.06654,1.3722 0.74788,2.43224 -0.982,2.43224 h -0.70886 -1.1836 -2.62083 c -0.20811,0 -0.48125,-0.10405 -0.60481,-0.26664 L 618.621,283.12388 c -0.12356,-0.16258 -0.065,-0.29265 0.13657,-0.29265 h 1.63884 2.99152 z"/><path style="fill:url(#linearGradient3990-0);fill-rule:evenodd;stroke-width:.65033078" id="path3961-1" d="m 641.40859,278.13779 0.65034,-0.0202 -0.99501,-45.821 v -0.0208 c 0,0 0.46173,-0.49029 0.46173,-0.49029 0,7e-5 -0.83892,0.18372 -0.83892,0.17748 l -56.54561,0.10991 c -0.007,-6.5e-4 -0.0182,-0.002 -0.0403,0 -0.0117,0.001 -0.0429,-0.007 -0.0611,0 -0.009,0.003 -0.01,0.0139 -0.0202,0.0203 -0.0104,0.006 -0.0403,0.02 -0.041,0.0203 0,3.3e-4 -0.0137,0.0302 -0.0202,0.0406 -0.007,0.0105 -0.0169,0.0111 -0.0202,0.0203 -0.007,0.0184 6.5e-4,0.0497 0,0.061 -0.003,0.0228 -6.5e-4,0.0332 0,0.0403 v 0.796 h 0.65033 55.82504 z m -0.34467,-45.86197 c 0,-0.001 0.006,0.0104 0,-0.0403 v -0.061 c 0,-5.2e-4 -0.039,-0.0402 -0.039,-0.0406 0,-4.6e-4 -0.026,-0.0335 -0.039,-0.0407 -0.013,-0.007 -0.0325,-0.0178 -0.0455,-0.0203 -0.0325,-0.01 -0.0455,0 -0.0585,0 h -0.0195 c 0.10405,0.0981 0.2016,0.2029 0.2016,0.2029 z"/><path style="fill:none;stroke:url(#linearGradient3881-4);stroke-width:.91046304;stroke-linecap:square;stroke-linejoin:round" id="rect3396-2" d="m 599.50778,282.21992 c -0.21461,0 -0.48124,0.13657 -0.61131,0.30566 l -13.9626,18.04667 c -1.11206,1.43723 -0.55928,2.60133 1.26164,2.60133 h 1.45024 1.24213 3.3427 c 0.20811,0 0.50076,-0.13657 0.63082,-0.30566 l 14.73,-20.34234 c 0.11705,-0.17559 0.065,-0.30566 -0.14308,-0.30566 h -2.3672 -3.12809 z"/><rect style="fill:url(#linearGradient3376-4);fill-rule:evenodd;stroke:url(#linearGradient3390-7);stroke-width:.65033078;stroke-linecap:square;stroke-linejoin:round" id="rect3374-4" width="66.379" height="5.752" x="579.445" y="278.084" ry=".303"/><rect style="fill:none;stroke:url(#linearGradient3613-9);stroke-width:.65033078;stroke-linecap:square" id="rect3595-6" width="65.443" height="5.197" x="580.381" y="278.734"/><path style="fill:url(#linearGradient4308-3);fill-rule:evenodd;stroke-width:.65033078" id="rect2521-9" d="m 629.5199,284.58712 -0.46174,-0.97549 h 16.2134 c 0.013,0.002 0.026,0.002 0.039,0 0.0455,-0.0117 0.0845,-0.041 0.10405,-0.0813 0.013,-0.0189 0.0195,-0.0397 0.0195,-0.0611 v -0.0202 -5.36522 -0.0403 c -0.013,-0.0442 -0.039,-0.0807 -0.078,-0.10211 -0.0195,-0.0104 -0.039,-0.0176 -0.065,-0.0202 -0.006,-6.5e-4 -0.013,-6.5e-4 -0.0195,0 h -1.40472 -1.7819 l -0.026,-1.13808 -0.99501,-44.48652 v -0.0208 c 0,-0.001 0.006,0.0104 0,-0.0403 v -0.061 c 0,-5.2e-4 -0.039,-0.0402 -0.039,-0.0406 0,-4.6e-4 -0.026,-0.0335 -0.039,-0.0407 -0.013,-0.007 -0.0325,-0.0178 -0.0455,-0.0203 -0.0325,-0.01 -0.0455,0 -0.0585,0 h -56.74071 c -0.007,-6.5e-4 -0.0182,-0.002 -0.0403,0 -0.0117,0.001 -0.0429,-0.007 -0.0611,0 -0.009,0.003 -0.01,0.0139 -0.0202,0.0203 -0.0104,0.006 -0.0403,0.02 -0.041,0.0203 0,3.3e-4 -0.0137,0.0302 -0.0202,0.0406 -0.007,0.0105 -0.0169,0.0111 -0.0202,0.0203 -0.007,0.0184 6.5e-4,0.0497 0,0.061 -0.003,0.0228 -6.5e-4,0.0332 0,0.0403 v 0.0208 l -0.79276,44.48652 -0.0202,1.13808 h -1.78841 -1.40276 c -0.013,-0.002 -0.0267,-0.002 -0.0403,0 -0.0436,0.0117 -0.0806,0.041 -0.10145,0.0813 -0.0111,0.0189 -0.0176,0.0397 -0.0208,0.0611 v 0.0202 5.36522 c -10e-4,0.0137 -10e-4,0.0273 0,0.0403 0.0123,0.0442 0.0416,0.0806 0.0819,0.1021 0.0182,0.0104 0.039,0.0176 0.0605,0.0202 0.007,6.5e-4 0.0137,6.5e-4 0.0202,0 h 15.96172 l -0.76934,0.97549 h -15.53771 c -0.42531,0 -0.79275,-0.36743 -0.79275,-0.79275 v -6.07604 c 0,-0.42597 0.36354,-0.77259 0.79275,-0.77259 h 1.76825 c 0.0137,0.002 0.0273,0.002 0.0403,0 0.0442,-0.0117 0.0806,-0.041 0.10211,-0.0813 0.0104,-0.0189 0.0175,-0.0397 0.0202,-0.0611 6.5e-4,-0.006 6.5e-4,-0.0136 0,-0.0202 l 0.79275,-44.50733 c 0,-0.9928 0.83567,-1.82873 1.82873,-1.82873 h 56.74071 c 0.995,0 1.80792,0.81356 1.80792,1.80857 l 0.97549,44.52749 c 0,0.0475 0.026,0.0924 0.065,0.12227 0.026,0.0247 0.0585,0.039 0.0975,0.0403 h 1.78841 c 0.42922,0 0.79341,0.34662 0.79341,0.77259 v 6.07604 c 0,0.42532 -0.36419,0.79275 -0.79341,0.79275 z"/><path style="fill:none;stroke:url(#linearGradient3654-2);stroke-width:.65033078" id="path3621-4" d="m 580.62868,283.93679 h 63.94703"/><path style="fill:url(#linearGradient3980-9);fill-rule:evenodd;stroke-width:.65033078" id="path3972-2" d="m 583.93822,233.06857 -0.79276,45.05557 0.65033,0.0208 0.79276,-45.07638 z"/><path style="fill:#fff;fill-rule:evenodd;stroke-width:.65033078" id="path3970-3" d="m 658.36914,294.42209 0.65034,-0.0202 -0.99501,-45.821 v -0.0208 c 0,0 0.46173,-0.49029 0.46173,-0.49029 0,7e-5 -0.83892,0.18372 -0.83892,0.17748 l -56.54561,0.10991 c -0.007,-6.5e-4 -0.0182,-0.002 -0.0403,0 -0.0117,0.001 -0.0429,-0.007 -0.0611,0 -0.009,0.003 -0.01,0.0139 -0.0202,0.0203 -0.0104,0.006 -0.0403,0.02 -0.041,0.0203 0,3.3e-4 -0.0137,0.0302 -0.0202,0.0406 -0.007,0.0105 -0.0169,0.0111 -0.0202,0.0203 -0.007,0.0184 6.5e-4,0.0497 0,0.061 -0.003,0.0228 -6.5e-4,0.0332 0,0.0403 v 0.0208 l -0.79276,45.821 0.65033,0.0202 0.79276,-45.41454 h 55.82504 z m -0.34467,-45.86197 c 0,-0.001 0.006,0.0104 0,-0.0403 v -0.061 c 0,-5.2e-4 -0.039,-0.0402 -0.039,-0.0406 0,-4.6e-4 -0.026,-0.0335 -0.039,-0.0407 -0.013,-0.007 -0.0325,-0.0178 -0.0455,-0.0203 -0.0325,-0.01 -0.0455,0 -0.0585,0 h -0.0195 c 0.10405,0.0981 0.2016,0.2029 0.2016,0.2029 z"/><path style="fill-opacity:.50196049;fill-rule:evenodd;filter:url(#filter3955-2)" id="path3918-01" d="m 576.17,207.75 c -1.53,0 -2.81,1.29 -2.81,2.82 L 572.14,279 v 0.03 c -0.01,0.04 -0.02,0.07 -0.03,0.1 -0.04,0.06 -0.09,0.1 -0.16,0.12 -0.02,0.01 -0.04,0.01 -0.06,0 h -2.72 c -0.66,0 -1.22,0.54 -1.22,1.19 v 9.34 c 0,0.66 0.57,1.22 1.22,1.22 h 26.37 l -18.71,24.19 c -0.95,1.22 -1.29,2.51 -0.79,3.56 0.51,1.05 1.74,1.57 3.29,1.57 h 2.25 1.9 5.13 c 0.62,0 1.13,-0.25 1.53,-0.75 v -0.04 l 10,-13.84 c 0.04,0 0.05,0.03 0.09,0.03 h 39.47 l 10.03,13.81 v 0.04 c 0.39,0.5 0.91,0.75 1.53,0.75 h 5.13 1.9 2.25 c 1.55,0 2.78,-0.52 3.29,-1.57 0.5,-1.05 0.16,-2.34 -0.79,-3.56 L 644.33,291 h 26.37 c 0.65,0 1.22,-0.56 1.22,-1.22 v -9.34 c 0,-0.65 -0.56,-1.19 -1.22,-1.19 h -2.75 c -0.06,0 -0.11,-0.02 -0.16,-0.06 -0.05,-0.05 -0.09,-0.11 -0.09,-0.19 l -1.5,-68.47 c 0,-1.53 -1.25,-2.78 -2.78,-2.78 z M 610.79,291 h 18.29 l 4.56,6.32 h -27.41 z" transform="matrix(0.65033075,0,0,0.65033075,227.44048,112.08691)"/><path id="rect3354-7" d="m 600.41167,247.5443 h 58.12656 c 0.16909,0 0.30566,0.13657 0.30566,0.30566 l 0.7869,45.56217 c 0,0.16909 -0.13657,0.30566 -0.30566,0.30566 h -58.91346 c -0.16909,0 -0.30566,-0.13657 -0.30566,-0.30566 v -45.56217 c 0,-0.16909 0.13657,-0.30566 0.30566,-0.30566 z" style="fill:#025;fill-opacity:1;fill-rule:evenodd;stroke:#000;stroke-width:.65033078;stroke-linecap:square;stroke-linejoin:round;stroke-opacity:1"/><path style="fill:url(#linearGradient2659);fill-rule:evenodd;stroke-width:.65033078" id="path3635-8" d="m 595.7566,300.07867 c 0,0.42532 0.36744,0.79275 0.79275,0.79275 h 66.02808 c 0.42922,0 0.79341,-0.36743 0.79341,-0.79275 h -67.61489 z"/><rect style="fill:none;stroke:url(#linearGradient3878-4);stroke-width:.65033078;stroke-linecap:square;stroke-linejoin:round" id="rect3489-1" width="26.599" height="4.552" x="616.358" y="305.424" ry=".383"/><path style="fill:none;stroke:url(#linearGradient3875-0);stroke-width:.91046304;stroke-linecap:square;stroke-linejoin:round" id="path3453-5" d="m 642.65715,298.50422 c 0.21461,0 0.48125,0.13657 0.61131,0.30566 l 13.96261,18.04667 c 1.11206,1.43723 0.55278,2.60133 -1.26165,2.60133 h -1.45023 -1.24214 -3.3427 c -0.2146,0 -0.50075,-0.13657 -0.63082,-0.30566 l -14.72999,-20.34234 c -0.11706,-0.17559 -0.0715,-0.30566 0.14308,-0.30566 h 2.3607 3.13459 z"/><rect style="fill:url(#linearGradient3870-48);fill-rule:evenodd;stroke:url(#linearGradient2661);stroke-width:.65033078;stroke-linecap:square;stroke-linejoin:round" id="rect3499-4" width="26.599" height="3.252" x="616.358" y="306.074" ry=".383"/><rect style="fill:url(#linearGradient3865-0);fill-rule:evenodd;stroke:url(#linearGradient3867-4);stroke-width:.65033078;stroke-linecap:square;stroke-linejoin:round" id="rect3565-9" width="26.599" height="3.252" x="616.358" y="306.074" ry=".383"/><path style="fill:url(#linearGradient3860-9);fill-rule:evenodd;stroke:url(#linearGradient2663);stroke-width:.86884189;stroke-linecap:square;stroke-linejoin:round" id="path3403-2" d="m 617.01461,299.11553 c -0.2016,0 -0.45523,0.13007 -0.57879,0.29265 l -1.69086,2.19161 -12.3823,15.02915 c -1.06004,1.3722 -0.53327,2.48426 1.20311,2.48426 h 1.38521 1.1836 2.62083 c 0.2016,0 0.47474,-0.13657 0.59831,-0.29265 l 14.00812,-19.41237 c 0.12356,-0.16258 0.0715,-0.29265 -0.13007,-0.29265 h -1.64533 -2.98502 z"/><path style="fill:none;stroke:url(#linearGradient3881-3);stroke-width:.91046304;stroke-linecap:square;stroke-linejoin:round" id="rect3396-9" d="m 616.46833,298.50422 c -0.21461,0 -0.48124,0.13657 -0.61131,0.30566 l -13.9626,18.04667 c -1.11206,1.43723 -0.55928,2.60133 1.26164,2.60133 h 1.45024 1.24213 3.3427 c 0.20811,0 0.50076,-0.13657 0.63082,-0.30566 l 14.73,-20.34234 c 0.11705,-0.17559 0.065,-0.30566 -0.14308,-0.30566 h -2.3672 -3.12809 z"/><path style="fill:url(#linearGradient3855-26);fill-rule:evenodd;stroke:url(#linearGradient3857-6);stroke-width:.86884189;stroke-linecap:square;stroke-linejoin:round" id="path3455-5" d="m 642.10437,299.11553 c 0.2016,0 0.46174,0.13007 0.5853,0.29265 l 1.68436,2.19161 12.3888,15.02915 c 1.06004,1.3722 0.53327,2.48426 -1.20311,2.48426 h -1.38521 -1.1836 -2.62083 c -0.20161,0 -0.48125,-0.13657 -0.60481,-0.29265 l -14.00813,-19.41237 c -0.12356,-0.16258 -0.065,-0.29265 0.13657,-0.29265 h 1.63884 2.98502 z"/><path style="fill:url(#linearGradient3850-7);fill-rule:evenodd;stroke:url(#linearGradient3852-3);stroke-width:.52026463;stroke-linecap:square;stroke-linejoin:round" id="path3547-7" d="m 617.01461,299.11553 c -0.2016,0 -0.45523,0.13007 -0.57879,0.29265 l -1.69086,2.19161 -11.76449,14.78202 c -1.06003,1.3722 -0.74788,2.43224 0.98851,2.43224 h 0.70886 1.1836 2.62083 c 0.2016,0 0.47474,-0.10405 0.60481,-0.26664 l 14.27476,-19.13923 c 0.12356,-0.16258 0.0715,-0.29265 -0.13007,-0.29265 h -1.64533 -2.98502 z"/><path style="fill:url(#linearGradient3845-6);fill-rule:evenodd;stroke:url(#linearGradient3847-90);stroke-width:.52026463;stroke-linecap:square;stroke-linejoin:round" id="path3589-4" d="m 641.92878,299.11553 c 0.20811,0 0.46174,0.13007 0.5853,0.29265 l 1.68436,2.19161 11.76448,14.78202 c 1.06654,1.3722 0.74788,2.43224 -0.982,2.43224 h -0.70886 -1.1836 -2.62083 c -0.20811,0 -0.48125,-0.10405 -0.60481,-0.26664 l -14.28127,-19.13923 c -0.12356,-0.16258 -0.065,-0.29265 0.13657,-0.29265 h 1.63884 2.99152 z"/><path style="fill:url(#linearGradient3990-8);fill-rule:evenodd;stroke-width:.65033078" id="path3961-9" d="m 658.36914,294.42209 0.65034,-0.0202 -0.99501,-45.821 v -0.0208 c 0,0 0.46173,-0.49029 0.46173,-0.49029 0,7e-5 -0.83892,0.18372 -0.83892,0.17748 l -56.54561,0.10991 c -0.007,-6.5e-4 -0.0182,-0.002 -0.0403,0 -0.0117,0.001 -0.0429,-0.007 -0.0611,0 -0.009,0.003 -0.01,0.0139 -0.0202,0.0203 -0.0104,0.006 -0.0403,0.02 -0.041,0.0203 0,3.3e-4 -0.0137,0.0302 -0.0202,0.0406 -0.007,0.0105 -0.0169,0.0111 -0.0202,0.0203 -0.007,0.0184 6.5e-4,0.0497 0,0.061 -0.003,0.0228 -6.5e-4,0.0332 0,0.0403 v 0.796 h 0.65033 55.82504 z m -0.34467,-45.86197 c 0,-0.001 0.006,0.0104 0,-0.0403 v -0.061 c 0,-5.2e-4 -0.039,-0.0402 -0.039,-0.0406 0,-4.6e-4 -0.026,-0.0335 -0.039,-0.0407 -0.013,-0.007 -0.0325,-0.0178 -0.0455,-0.0203 -0.0325,-0.01 -0.0455,0 -0.0585,0 h -0.0195 c 0.10405,0.0981 0.2016,0.2029 0.2016,0.2029 z"/><rect style="fill:url(#linearGradient3376-3);fill-rule:evenodd;stroke:url(#linearGradient3390-0);stroke-width:.65033078;stroke-linecap:square;stroke-linejoin:round" id="rect3374-9" width="66.379" height="5.752" x="596.406" y="294.368" ry=".303"/><rect style="fill:none;stroke:url(#linearGradient3613-8);stroke-width:.65033078;stroke-linecap:square" id="rect3595-4" width="65.443" height="5.197" x="597.342" y="295.018"/><path style="fill:url(#linearGradient4308-8);fill-rule:evenodd;stroke-width:.65033078" id="rect2521-5" d="m 646.48045,300.87142 -0.46174,-0.97549 h 16.2134 c 0.013,0.002 0.026,0.002 0.039,0 0.0455,-0.0117 0.0845,-0.041 0.10405,-0.0813 0.013,-0.0189 0.0195,-0.0397 0.0195,-0.0611 v -0.0202 -5.36522 -0.0403 c -0.013,-0.0442 -0.039,-0.0807 -0.078,-0.10211 -0.0195,-0.0104 -0.039,-0.0176 -0.065,-0.0202 -0.006,-6.5e-4 -0.013,-6.5e-4 -0.0195,0 h -1.40472 -1.7819 l -0.026,-1.13808 -0.99501,-44.48652 v -0.0208 c 0,-0.001 0.006,0.0104 0,-0.0403 v -0.061 c 0,-5.2e-4 -0.039,-0.0402 -0.039,-0.0406 0,-4.6e-4 -0.026,-0.0335 -0.039,-0.0407 -0.013,-0.007 -0.0325,-0.0178 -0.0455,-0.0203 -0.0325,-0.01 -0.0455,0 -0.0585,0 h -56.74071 c -0.007,-6.5e-4 -0.0182,-0.002 -0.0403,0 -0.0117,0.001 -0.0429,-0.007 -0.0611,0 -0.009,0.003 -0.01,0.0139 -0.0202,0.0203 -0.0104,0.006 -0.0403,0.02 -0.041,0.0203 0,3.3e-4 -0.0137,0.0302 -0.0202,0.0406 -0.007,0.0105 -0.0169,0.0111 -0.0202,0.0203 -0.007,0.0184 6.5e-4,0.0497 0,0.061 -0.003,0.0228 -6.5e-4,0.0332 0,0.0403 v 0.0208 l -0.79276,44.48652 -0.0202,1.13808 h -1.78841 -1.40276 c -0.013,-0.002 -0.0267,-0.002 -0.0403,0 -0.0436,0.0117 -0.0806,0.041 -0.10145,0.0813 -0.0111,0.0189 -0.0176,0.0397 -0.0208,0.0611 v 0.0202 5.36522 c -10e-4,0.0137 -10e-4,0.0273 0,0.0403 0.0123,0.0442 0.0416,0.0806 0.0819,0.1021 0.0182,0.0104 0.039,0.0176 0.0605,0.0202 0.007,6.5e-4 0.0137,6.5e-4 0.0202,0 h 15.96172 l -0.76934,0.97549 h -15.53771 c -0.42531,0 -0.79275,-0.36743 -0.79275,-0.79275 v -6.07604 c 0,-0.42597 0.36354,-0.77259 0.79275,-0.77259 h 1.76825 c 0.0137,0.002 0.0273,0.002 0.0403,0 0.0442,-0.0117 0.0806,-0.041 0.10211,-0.0813 0.0104,-0.0189 0.0175,-0.0397 0.0202,-0.0611 6.5e-4,-0.006 6.5e-4,-0.0136 0,-0.0202 L 599.27302,248.56 c 0,-0.9928 0.83567,-1.82873 1.82873,-1.82873 h 56.74071 c 0.995,0 1.80792,0.81356 1.80792,1.80857 l 0.97549,44.52749 c 0,0.0475 0.026,0.0924 0.065,0.12227 0.026,0.0247 0.0585,0.039 0.0975,0.0403 h 1.78841 c 0.42922,0 0.79341,0.34662 0.79341,0.77259 v 6.07604 c 0,0.42532 -0.36419,0.79275 -0.79341,0.79275 z"/><path style="fill:none;stroke:url(#linearGradient3654-28);stroke-width:.65033078" id="path3621-9" d="m 597.58923,300.22109 h 63.94703"/><path style="fill:url(#linearGradient3980-2);fill-rule:evenodd;stroke-width:.65033078" id="path3972-3" d="m 600.89877,249.35287 -0.79276,45.05557 0.65033,0.0208 0.79276,-45.07638 z"/><rect id="rect3277" width="57.069" height=".859" x="566.979" y="216.48" style="opacity:1;fill:#fff;fill-opacity:1;fill-rule:nonzero;stroke:none;stroke-width:.34564441;stroke-linecap:round;stroke-linejoin:round;stroke-miterlimit:4;stroke-dasharray:.34564442,1.03693327;stroke-dashoffset:0;stroke-opacity:1"/><rect id="rect3277-8" width="57.069" height=".859" x="583.979" y="232.113" style="opacity:1;fill:#fff;fill-opacity:1;fill-rule:nonzero;stroke:none;stroke-width:.34564441;stroke-linecap:round;stroke-linejoin:round;stroke-miterlimit:4;stroke-dasharray:.34564442,1.03693327;stroke-dashoffset:0;stroke-opacity:1"/><rect id="rect3277-8-5" width="57.069" height=".859" x="600.832" y="248.357" style="opacity:1;fill:#fff;fill-opacity:1;fill-rule:nonzero;stroke:none;stroke-width:.34564441;stroke-linecap:round;stroke-linejoin:round;stroke-miterlimit:4;stroke-dasharray:.34564442,1.03693327;stroke-dashoffset:0;stroke-opacity:1"/><rect id="rect3277-1" width="45.494" height=".859" x="206.512" y="-571.461" transform="matrix(-0.01714486,0.99985302,-0.99984271,-0.01773567,0,0)" style="opacity:1;fill:#fff;fill-opacity:1;fill-rule:nonzero;stroke:none;stroke-width:.30860737;stroke-linecap:round;stroke-linejoin:round;stroke-miterlimit:4;stroke-dasharray:.30860738,.92582215;stroke-dashoffset:0;stroke-opacity:1"/><rect id="rect3277-1-6" width="45.494" height=".859" x="221.789" y="-588.732" transform="matrix(-0.01714486,0.99985302,-0.99984271,-0.01773567,0,0)" style="opacity:1;fill:#fff;fill-opacity:1;fill-rule:nonzero;stroke:none;stroke-width:.30860737;stroke-linecap:round;stroke-linejoin:round;stroke-miterlimit:4;stroke-dasharray:.30860738,.92582215;stroke-dashoffset:0;stroke-opacity:1"/><rect id="rect3277-1-6-6" width="45.494" height=".859" x="237.809" y="-605.871" transform="matrix(-0.01714486,0.99985302,-0.99984271,-0.01773567,0,0)" style="opacity:1;fill:#fff;fill-opacity:1;fill-rule:nonzero;stroke:none;stroke-width:.30860737;stroke-linecap:round;stroke-linejoin:round;stroke-miterlimit:4;stroke-dasharray:.30860738,.92582215;stroke-dashoffset:0;stroke-opacity:1"/></g></g></g></svg>