<svg xmlns="http://www.w3.org/2000/svg" xmlns:svg="http://www.w3.org/2000/svg" xmlns:xlink="http://www.w3.org/1999/xlink" id="svg2" width="128" height="128" version="1.1" viewBox="0 0 128 128"><defs id="defs4"><linearGradient id="linearGradient25108"><stop style="stop-color:#2a5699;stop-opacity:1" id="stop25110" offset="0"/><stop style="stop-color:#123871;stop-opacity:1" id="stop25112" offset="1"/></linearGradient><linearGradient id="XMLID_8_" x1="74.5" x2="74.5" y1="5.048" y2="124.24" gradientUnits="userSpaceOnUse"><stop style="stop-color:#fff" id="stop4539" offset="0"/><stop style="stop-color:#e1e1df" id="stop4541" offset="1"/></linearGradient><linearGradient id="XMLID_9_" x1="74.5" x2="74.5" y1="11.081" y2="121.467" gradientUnits="userSpaceOnUse"><stop style="stop-color:#fdfdfd" id="stop4546" offset="0"/><stop style="stop-color:#f3f2f2" id="stop4548" offset=".298"/><stop style="stop-color:#d7d6d6" id="stop4550" offset=".817"/><stop style="stop-color:#cccbca" id="stop4552" offset="1"/></linearGradient><radialGradient id="XMLID_10_" cx="110" cy="32.869" r="15.596" gradientUnits="userSpaceOnUse"><stop style="stop-color:#8e8e8f" id="stop4557" offset=".213"/><stop style="stop-color:#eee" id="stop4559" offset=".927"/></radialGradient><linearGradient id="XMLID_11_" x1="92.023" x2="104.273" y1="9.947" y2="32.947" gradientUnits="userSpaceOnUse"><stop style="stop-color:#fffefe" id="stop4566" offset="0"/><stop style="stop-color:#cfd0d0" id="stop4568" offset="1"/></linearGradient><linearGradient id="XMLID_12_" x1="99.53" x2="105.905" y1="5.181" y2="31.931" gradientUnits="userSpaceOnUse"><stop style="stop-color:#fcfdfd" id="stop4573" offset="0"/><stop style="stop-color:#eee" id="stop4575" offset="1"/></linearGradient><linearGradient id="linearGradient3607"><stop style="stop-color:#f9fbff;stop-opacity:1" id="stop3609" offset="0"/><stop style="stop-color:#62aaff;stop-opacity:1" id="stop3611" offset="1"/></linearGradient><linearGradient id="linearGradient3596"><stop style="stop-color:#0035ed;stop-opacity:1" id="stop3598" offset="0"/><stop style="stop-color:#1c7eff;stop-opacity:1" id="stop3615" offset=".554"/><stop style="stop-color:#98cbff;stop-opacity:1" id="stop3600" offset="1"/></linearGradient><linearGradient id="linearGradient3585"><stop style="stop-color:#00008d;stop-opacity:1" id="stop3587" offset="0"/><stop style="stop-color:#0048b7;stop-opacity:1" id="stop3589" offset="1"/></linearGradient><linearGradient id="linearGradient3628" x1="2891.426" x2="2758.474" y1="317.797" y2="1350.958" gradientTransform="matrix(0.03112505,0,0,0.03112505,-59.971883,66.472321)" gradientUnits="userSpaceOnUse" xlink:href="#linearGradient3607"/><linearGradient id="linearGradient3630" x1="2758.475" x2="2745.763" y1="288.136" y2="1792.373" gradientTransform="matrix(0.03112505,0,0,0.03112505,-59.971883,66.472321)" gradientUnits="userSpaceOnUse" xlink:href="#linearGradient3585"/><linearGradient id="linearGradient3632" x1="3275.424" x2="2453.39" y1="627.119" y2="1682.203" gradientTransform="matrix(0.03112505,0,0,0.03112505,-59.971883,66.472321)" gradientUnits="userSpaceOnUse" xlink:href="#linearGradient3596"/><linearGradient id="linearGradient25114" x1="60.294" x2="60.294" y1="1018.235" y2="1048.67" gradientUnits="userSpaceOnUse" xlink:href="#linearGradient25108"/></defs><metadata id="metadata7"/><g id="layer1" transform="translate(0,-924.36216)"><g id="g25208"><rect id="rect25157" width="128" height="128" x="0" y="924.362" rx="0" ry="0" style="opacity:0;fill:#123871;fill-opacity:1;stroke:none;stroke-width:.51876956;stroke-linecap:round;stroke-linejoin:round;stroke-miterlimit:4;stroke-dasharray:none;stroke-dashoffset:0;stroke-opacity:1"/><g id="g25116" transform="translate(-0.6322573,0.31282822)"><g id="g5149" transform="matrix(1.0333334,0,0,1.0333334,-12.351081,919.84935)"><path style="opacity:.2" id="path4532" d="M 30.666,7 C 28.816,7 27,8.83 27,10.694 c 0,106.39 0,106.39 0,109.807 0,3.917 4,4.499 4,4.499 l 87,0 c 0,0 4,-0.268 4,-4.018 0,-3.75 0,-78.479 0,-78.479 C 122,37.306 94.325,7 87.135,7 L 30.666,7 Z"/><path style="opacity:.2" id="path4534" d="M 30.666,8 C 28.816,8 27,9.83 27,11.694 c 0,106.39 0,106.39 0,109.807 0,3.917 5,4.499 5,4.499 l 85,0 c 0,0 5,-0.268 5,-4.018 0,-3.75 0,-78.479 0,-78.479 C 122,38.306 94.325,8 87.135,8 L 30.666,8 Z"/><path style="opacity:.6;fill:#262626" id="path4536" d="M 30.666,6 C 28.816,6 27,7.83 27,9.694 c 0,106.39 0,106.39 0,109.807 0,3.917 3,4.499 3,4.499 l 89,0 c 0,0 3,-0.268 3,-4.018 0,-3.75 0,-78.479 0,-78.479 C 122,36.306 94.325,6 87.135,6 L 30.666,6 Z"/><path style="fill:url(#XMLID_8_)" id="path4543" d="m 121,120.113 c 0,2.584 -2.398,2.887 -2.398,2.887 l -88.104,0 C 30.498,123 28,122.525 28,119.917 28,100.1 28,10.861 28,9.694 28,8.374 29.359,7 30.666,7 31.66,7 79.135,7 87.135,7 94.167,7 121,37.326 121,41.504 c 0,4.619 0,63.145 0,78.609 z"/><path style="fill:url(#XMLID_9_)" id="path4554" d="m 120,119.282 c 0,2.481 -2,2.718 -2,2.718 l -87,0 c 0,0 -2,-0.163 -2,-2.249 C 29,101.736 29,10.877 29,9.694 29,8.374 30.317,7 31.583,7 32.547,7 79.442,7 87.193,7 94.006,7 120,37.326 120,41.504 c 0,4.63 0,62.674 0,77.778 z"/><path style="fill:url(#XMLID_10_)" id="path4561" d="m 120,39 c 0,7.18 -2.82,13 -10,13 -7.18,0 -16,-5.82 -16,-13 0,-7.18 2.82,-9 10,-9 7.18,0 11,4 16,9 z"/><path style="opacity:.5;fill:#343434" id="path4563" d="m 84.415,6.963 c 0.547,0 0.947,0.002 3.616,1.193 4.182,1.891 4.103,22.225 4.103,26.673 l -0.001,0.128 c 0,0.521 0.399,0.959 0.918,1.002 5.973,0.496 23.318,-0.848 26.406,4.026 1.199,1.608 1.365,2.858 1.918,2.858 0.553,0 0.625,-0.786 0.625,-1.339 0,-0.797 -0.257,-1.574 -0.766,-2.428 -0.004,-0.009 -0.002,-0.018 -0.006,-0.026 -0.014,-0.028 -0.038,-0.065 -0.053,-0.094 l 0,-0.001 C 118.87,34.256 95.385,8.574 88.821,6.365 88.815,6.363 88.814,6.357 88.809,6.355 88.802,6.352 88.794,6.353 88.788,6.351 88.767,6.343 88.739,6.328 88.718,6.32 88.624,6.291 88.531,6.279 88.439,6.277 88.01,6.133 87.578,6 87.135,6 86.627,6 84.473,6.457 84.415,6.963 Z"/><path style="fill:url(#XMLID_11_)" id="path4570" d="M 121,41.504 C 117.625,32.875 93.133,34.962 93.133,34.962 93.003,37.629 94.632,7 87.135,7 94.168,7 121,38.814 121,41.504 Z"/><path style="fill:url(#XMLID_12_)" id="path4577" d="M 121,41.504 C 119.5,33.563 94.25,33.438 94.25,33.438 94.225,36.104 94.524,7 87.135,7 94.168,7 121,38.814 121,41.504 Z"/></g><g id="g3103" transform="matrix(0.63964145,0,0,0.63964145,20.386598,955.66844)"><path style="fill:#2a5699" id="path6" d="M 67.02,0 73,0 c 0,2.67 0,5.33 0,8 10.7,0.06 21.39,-0.11 32.08,0.06 2.28,-0.23 4.07,1.54 3.86,3.82 0.17,19.7 -0.04,39.41 0.1,59.11 -0.1,2.02 0.2,4.26 -0.97,6.05 -1.46,1.04 -3.35,0.91 -5.05,0.99 C 93.01,77.98 83.01,78 73,78 c 0,2.67 0,5.33 0,8 l -6.25,0 C 51.53,83.22 36.27,80.67 21.02,78 21.01,54.67 21.02,31.34 21.02,8.02 36.35,5.34 51.69,2.73 67.02,0 Z"/><path style="fill:#fff" id="path46" d="m 73,11 c 11,0 22,0 33,0 0,21.33 0,42.67 0,64 -11,0 -22,0 -33,0 0,-2.67 0,-5.33 0,-8 8.67,0 17.33,0 26,0 0,-1.33 0,-2.67 0,-4 -8.67,0 -17.33,0 -26,0 0,-1.67 0,-3.33 0,-5 8.67,0 17.33,0 26,0 0,-1.33 0,-2.67 0,-4 -8.67,0 -17.33,0 -26,0 0,-1.67 0,-3.33 0,-5 8.67,0 17.33,0 26,0 0,-1.33 0,-2.67 0,-4 -8.67,0 -17.33,0 -26,0 0,-1.67 0,-3.33 0,-5 8.67,0 17.33,0 26,0 0,-1.33 0,-2.67 0,-4 -8.67,0 -17.33,0 -26,0 0,-1.67 0,-3.33 0,-5 8.67,0 17.33,0 26,0 0,-1.33 0,-2.67 0,-4 -8.67,0 -17.33,0 -26,0 0,-1.67 0,-3.33 0,-5 8.67,0 17.33,0 26,0 0,-1.33 0,-2.67 0,-4 -8.67,0 -17.33,0 -26,0 0,-2.33 0,-4.67 0,-7 z"/><path style="fill:#fff" id="path88" d="m 41.68,28.67 c 1.9,-0.11 3.8,-0.19 5.7,-0.29 1.33,6.75 2.69,13.49 4.13,20.21 1.13,-6.94 2.38,-13.86 3.59,-20.79 2,-0.07 4,-0.18 5.99,-0.3 -2.26,9.69 -4.24,19.46 -6.71,29.09 -1.67,0.87 -4.17,-0.04 -6.15,0.1 -1.33,-6.62 -2.88,-13.2 -4.07,-19.85 -1.17,6.46 -2.69,12.86 -4.03,19.28 -1.92,-0.1 -3.85,-0.22 -5.78,-0.35 -1.66,-8.8 -3.61,-17.54 -5.16,-26.36 1.71,-0.08 3.43,-0.15 5.14,-0.21 1.03,6.37 2.2,12.71 3.1,19.09 1.41,-6.54 2.85,-13.08 4.25,-19.62 z"/></g><path style="opacity:1;fill:url(#linearGradient25114);fill-opacity:1;stroke:none;stroke-width:2;stroke-linecap:round;stroke-linejoin:round;stroke-miterlimit:4;stroke-dasharray:none;stroke-dashoffset:0;stroke-opacity:.74509804" id="rect7361" d="m 112.60904,1019.4507 0,23.5966 c 0,2.1265 -0.11554,3.9546 -3.51132,3.9522 l -89.120777,-0.064 c -2.593827,0 -3.745542,-1.7618 -3.745542,-3.8883 l 0,-23.5966 z"/><text style="font-style:normal;font-variant:normal;font-weight:400;font-stretch:normal;font-size:23.10212898px;line-height:125%;font-family:'Arial Black';-inkscape-font-specification:'Arial Black, Normal';text-align:start;letter-spacing:0;word-spacing:0;writing-mode:lr-tb;text-anchor:start;fill:#fff;fill-opacity:1;stroke:none;stroke-width:1px;stroke-linecap:butt;stroke-linejoin:miter;stroke-opacity:1" id="text7357" x="38.249" y="1040.922" xml:space="preserve"><tspan id="tspan7359" x="38.249" y="1040.922">DOC</tspan></text></g></g></g></svg>