<svg xmlns="http://www.w3.org/2000/svg" xmlns:svg="http://www.w3.org/2000/svg" xmlns:xlink="http://www.w3.org/1999/xlink" id="svg8" width="150" height="450" version="1.1" viewBox="0 0 39.688 119.063"><defs id="defs2"><clipPath id="clipPath20" clipPathUnits="userSpaceOnUse"><path id="path18" d="M 4500,0 H 0 V 6800 H 4500 V 0 M 3337.97,2866.8 c 26.6,-25.57 62.71,-41.33 102.54,-41.33 81.72,0 147.97,66.27 147.97,147.99 0,67.46 -45.12,124.31 -106.82,142.15 v 0 c -13.09,3.79 -26.88,5.83 -41.15,5.83 -39.83,0 -75.94,-15.74 -102.54,-41.32 v 0 0 c 19.84,-19.06 34.35,-43.62 41.15,-71.21 v 0 c 2.79,-11.37 4.3,-23.23 4.3,-35.45 v 0 c 0,12.22 -1.51,24.08 -4.3,35.45 v 0 c -6.8,27.59 -21.31,52.15 -41.15,71.21 -19.84,-19.06 -34.38,-43.62 -41.15,-71.21 v 0 c -2.82,-11.37 -4.32,-23.23 -4.32,-35.45 v 0 c 0,12.22 1.5,24.08 4.32,35.45 v 0 c 6.77,27.59 21.31,52.15 41.15,71.21 v 0 0 c -26.6,25.58 -62.72,41.32 -102.54,41.32 -14.3,0 -28.09,-2.04 -41.15,-5.83 v 0 c -61.7,-17.84 -106.84,-74.69 -106.84,-142.15 0,-81.72 66.25,-147.99 147.99,-147.99 39.82,0 75.94,15.76 102.54,41.33 v 0 0 m -102.54,254.64 c 39.82,0 75.94,-15.74 102.54,-41.32 26.6,25.58 62.71,41.32 102.54,41.32 14.27,0 28.06,-2.04 41.15,-5.83 2.77,11.36 4.3,23.22 4.3,35.44 0,81.72 -66.25,147.99 -147.99,147.99 -81.74,0 -148.01,-66.27 -148.01,-147.99 0,-12.22 1.52,-24.08 4.32,-35.44 13.06,3.79 26.85,5.83 41.15,5.83"/></clipPath><radialGradient id="radialGradient28" cx="0" cy="0" r="1" fx="0" fy="0" gradientTransform="matrix(6090.67,0,0,-6090.67,2250,3400)" gradientUnits="userSpaceOnUse" spreadMethod="pad"><stop style="stop-opacity:1;stop-color:#faf3e9" id="stop22" offset="0"/><stop style="stop-opacity:1;stop-color:#faf3e9" id="stop24" offset=".769"/><stop style="stop-opacity:1;stop-color:#c7c2ba" id="stop26" offset="1"/></radialGradient><clipPath id="clipPath126" clipPathUnits="userSpaceOnUse"><path id="path124" d="m 3337.97,3003.07 c -14.3,0 -28.09,2.05 -41.15,5.84 6.77,27.59 21.31,52.15 41.15,71.21 19.84,-19.06 34.35,-43.62 41.15,-71.21 -13.08,-3.79 -26.87,-5.84 -41.15,-5.84"/></clipPath><radialGradient id="radialGradient132" cx="0" cy="0" r="1" fx="0" fy="0" gradientTransform="matrix(6090.67,0,0,-6090.67,2250,3400)" gradientUnits="userSpaceOnUse" spreadMethod="pad"><stop style="stop-opacity:1;stop-color:#ffeddd" id="stop128" offset="0"/><stop style="stop-opacity:1;stop-color:#f59f93" id="stop130" offset="1"/></radialGradient><linearGradient id="linearGradient3596"><stop id="stop3598" offset="0" style="stop-color:#0035ed;stop-opacity:1"/><stop id="stop3615" offset=".554" style="stop-color:#1c7eff;stop-opacity:1"/><stop id="stop3600" offset="1" style="stop-color:#98cbff;stop-opacity:1"/></linearGradient><linearGradient id="linearGradient3585"><stop id="stop3587" offset="0" style="stop-color:#00008d;stop-opacity:1"/><stop id="stop3589" offset="1" style="stop-color:#0048b7;stop-opacity:1"/></linearGradient><linearGradient id="linearGradient3607"><stop id="stop3609" offset="0" style="stop-color:#f9fbff;stop-opacity:1"/><stop id="stop3611" offset="1" style="stop-color:#62aaff;stop-opacity:1"/></linearGradient><linearGradient id="linearGradient3617" x1="66.259" x2="66.259" y1="7.864" y2="88.929" gradientUnits="userSpaceOnUse"><stop id="stop3307" offset="0" stop-color="#010000"/><stop id="stop3352" offset=".736" stop-color="#411000"/><stop id="stop3309" offset="1" stop-color="#822000"/></linearGradient><linearGradient id="linearGradient3881" x1="598.18" x2="598.18" y1="290.65" y2="319.61" gradientTransform="matrix(0.11572517,0,0,0.11572517,54.642566,115.94236)" gradientUnits="userSpaceOnUse" xlink:href="#linearGradient3439"/><linearGradient id="linearGradient3439"><stop id="stop3441" offset="0" stop-color="#824623"/><stop id="stop3443" offset=".5" stop-color="#672412"/><stop id="stop3445" offset="1" stop-color="#420804" stop-opacity=".996"/></linearGradient><linearGradient id="linearGradient3878" x1="612.31" x2="612.31" y1="303.4" y2="299.61" gradientTransform="matrix(0.11572517,0,0,0.11572517,54.643083,115.94236)" gradientUnits="userSpaceOnUse"><stop id="stop3505" offset="0" stop-color="#712717"/><stop id="stop3507" offset="1" stop-color="#76351b"/></linearGradient><linearGradient id="linearGradient3875" x1="598.18" x2="598.18" y1="290.65" y2="319.61" gradientTransform="matrix(-0.11572517,0,0,0.11572517,197.7604,115.94236)" gradientUnits="userSpaceOnUse" xlink:href="#linearGradient3439"/><linearGradient id="linearGradient3870" x1="622.05" x2="622.05" y1="301.88" y2="299.04" gradientTransform="matrix(0.11572517,0,0,0.11572517,54.643083,116.05808)" gradientUnits="userSpaceOnUse" xlink:href="#linearGradient3431"/><linearGradient id="linearGradient3431"><stop id="stop3433" offset="0" stop-color="#c96905"/><stop id="stop3435" offset="1" stop-color="#d6902a"/></linearGradient><linearGradient id="linearGradient3511"><stop id="stop3513" offset="0" stop-color="#813d20"/><stop id="stop3515" offset="1" stop-color="#7f4621"/></linearGradient><linearGradient id="linearGradient3865" x1="622.05" x2="622.05" y1="295.55" y2="299.34" gradientTransform="matrix(0.11572517,0,0,0.11572517,54.643083,116.05808)" gradientUnits="userSpaceOnUse" xlink:href="#linearGradient3551"/><linearGradient id="linearGradient3551"><stop id="stop3553" offset="0"/><stop id="stop3557" offset="1" stop-color="#6f382e" stop-opacity="0"/></linearGradient><linearGradient id="linearGradient3860" x1="583.48" x2="583.48" y1="315.81" y2="297.05" gradientTransform="matrix(0.11572517,0,0,0.11572517,54.642566,115.94236)" gradientUnits="userSpaceOnUse" xlink:href="#linearGradient3431"/><linearGradient id="linearGradient3862" x1="597.52" x2="597.52" y1="290.62" y2="318.35" gradientTransform="matrix(0.11572517,0,0,0.11572517,54.654947,115.94236)" gradientUnits="userSpaceOnUse" xlink:href="#linearGradient3405"/><linearGradient id="linearGradient3405"><stop id="stop3407" offset="0" stop-color="#672b27"/><stop id="stop3413" offset=".5" stop-color="#712913"/><stop id="stop3409" offset="1" stop-color="#620000" stop-opacity=".984"/></linearGradient><linearGradient id="linearGradient3855" x1="583.48" x2="583.48" y1="315.81" y2="297.05" gradientTransform="matrix(-0.11572517,0,0,0.11572517,197.7604,115.94236)" gradientUnits="userSpaceOnUse" xlink:href="#linearGradient3431"/><linearGradient id="linearGradient3857" x1="597.52" x2="597.52" y1="290.62" y2="318.35" gradientTransform="matrix(-0.11572517,0,0,0.11572517,197.74883,115.94236)" gradientUnits="userSpaceOnUse" xlink:href="#linearGradient3405"/><linearGradient id="linearGradient3850" x1="599.37" x2="599.37" y1="285.4" y2="297.6" gradientTransform="matrix(0.11572517,0,0,0.11572517,54.642566,115.94236)" gradientUnits="userSpaceOnUse" xlink:href="#linearGradient3551"/><linearGradient id="linearGradient3852" x1="597.52" x2="597.52" y1="290.62" y2="318.35" gradientTransform="matrix(0.11572517,0,0,0.11572517,54.654947,115.94236)" gradientUnits="userSpaceOnUse" xlink:href="#linearGradient3579"/><linearGradient id="linearGradient3579"><stop id="stop3581" offset="0" stop-color="#672b27"/><stop id="stop3583" offset=".5" stop-color="#712913"/><stop id="stop3585" offset="1" stop-color="#965e26"/></linearGradient><linearGradient id="linearGradient3845" x1="599.37" x2="599.37" y1="285.4" y2="297.6" gradientTransform="matrix(-0.11572517,0,0,0.11572517,197.72568,115.94236)" gradientUnits="userSpaceOnUse" xlink:href="#linearGradient3551"/><linearGradient id="linearGradient3847" x1="597.52" x2="597.52" y1="290.62" y2="318.35" gradientTransform="matrix(-0.11572517,0,0,0.11572517,197.71411,115.94236)" gradientUnits="userSpaceOnUse" xlink:href="#linearGradient3579"/><linearGradient id="linearGradient3990" x1="111.23" x2="111.23" y1="13.656" y2="80.617" gradientTransform="matrix(0.11572517,0,0,0.11572517,118.32549,139.06309)" gradientUnits="userSpaceOnUse"><stop id="stop3986" offset="0" stop-color="#fff" stop-opacity=".361"/><stop id="stop3988" offset="1" stop-color="#fff" stop-opacity=".086"/></linearGradient><linearGradient id="linearGradient3376" x1="570.7" x2="668.25" y1="284.79" y2="284.79" gradientTransform="matrix(0.11572517,0,0,0.11572517,54.643083,115.94236)" gradientUnits="userSpaceOnUse"><stop id="stop3380" offset="0" stop-color="#d68c23"/><stop id="stop3392" offset=".5" stop-color="#c66100"/><stop id="stop3382" offset="1" stop-color="#6f382e"/></linearGradient><linearGradient id="linearGradient3390" x1="568.19" x2="668.93" y1="280.44" y2="280.44" gradientTransform="matrix(0.11572517,0,0,0.11572517,54.643083,115.94236)" gradientUnits="userSpaceOnUse"><stop id="stop3386" offset="0" stop-color="#d5801f"/><stop id="stop3394" offset=".5" stop-color="#993a1b"/><stop id="stop3388" offset="1" stop-color="#78413e"/></linearGradient><linearGradient id="linearGradient3613" x1="568.29" x2="669.91" y1="285.4" y2="285.4" gradientTransform="matrix(0.11572517,0,0,0.11572517,54.643083,115.94236)" gradientUnits="userSpaceOnUse"><stop id="stop3609-2" offset="0" stop-color="#fff" stop-opacity=".502"/><stop id="stop3611-9" offset="1" stop-color="#fff" stop-opacity=".361"/></linearGradient><linearGradient id="linearGradient3654" x1="568.67" x2="668" y1="289.29" y2="289.29" gradientTransform="matrix(0.11572517,0,0,0.11572517,54.643083,115.94236)" gradientUnits="userSpaceOnUse"><stop id="stop3625" offset="0" stop-color="#811f00"/><stop id="stop3631" offset=".5" stop-color="#5d0003"/><stop id="stop3627" offset="1" stop-color="#811f00"/></linearGradient><filter id="filter3834"><feGaussianBlur id="feGaussianBlur3836" stdDeviation=".384"/></filter><linearGradient id="linearGradient3814" x1="41.167" x2="41.167" y1="113.08" y2="71.687" gradientTransform="matrix(0.05990629,0.0990133,-0.0990133,0.05990629,128.21305,136.40604)" gradientUnits="userSpaceOnUse"><stop id="stop3697" offset="0" stop-color="#c8c8d8"/><stop id="stop3699" offset="1" stop-color="#fbfbfc"/></linearGradient><filter id="filter3772" width="1.763" height="1.062" x="-.382" y="-.031"><feGaussianBlur id="feGaussianBlur3774" stdDeviation=".581"/></filter><linearGradient id="linearGradient3810" x1="45.798" x2="45.798" y1="113.08" y2="64.41" gradientTransform="matrix(0.05990629,0.0990133,-0.0990133,0.05990629,128.21305,136.40604)" gradientUnits="userSpaceOnUse"><stop id="stop3685" offset="0" stop-color="#5a5a6b"/><stop id="stop3691" offset=".5" stop-color="#837e97"/><stop id="stop3693" offset=".75" stop-color="#9192a7"/><stop id="stop3687" offset="1" stop-color="#8780a4"/></linearGradient><linearGradient id="linearGradient3980" x1="27.965" x2="27.965" y1="10.75" y2="55.843" gradientTransform="matrix(0.11572517,0,0,0.11572517,118.32549,139.06309)" gradientUnits="userSpaceOnUse"><stop id="stop3976" offset="0" stop-color="#fff" stop-opacity=".361"/><stop id="stop3978" offset="1" stop-color="#fff" stop-opacity="0"/></linearGradient></defs><metadata id="metadata5"/><g id="layer1"><path style="fill:#bace97;fill-opacity:1;fill-rule:nonzero;stroke:none;stroke-width:.02356204" id="path72" d="m 33.392636,95.759229 v 0.42087 H 22.376705 v -0.42087 h 11.015931"/><path style="fill:#d29493;fill-opacity:1;fill-rule:nonzero;stroke:none;stroke-width:.0246789" id="path74" d="m 34.718885,21.853724 v 0.42121 H 22.633876 v -0.42121 h 12.085009"/><path style="fill:#94aad0;fill-opacity:1;fill-rule:nonzero;stroke:none;stroke-width:.0246789" id="path78" d="m 34.726819,58.890497 v 0.42086 H 22.64181 v -0.42086 h 12.085009"/><path style="fill:#bace97;fill-opacity:1;fill-rule:nonzero;stroke:none;stroke-width:.0352778" id="path82" d="M 36.854793,112.81532 V 77.752689 l -2.12901,1.74805 -2.12937,-1.74805 v 19.306188 15.756443 l 2.12937,1.74871 2.12901,-1.74871"/><path style="fill:#f8f1e7;fill-opacity:1;fill-rule:nonzero;stroke:none;stroke-width:.0352778" id="path84" d="m 34.725783,97.189297 c -0.56903,0 -1.03046,-0.461788 -1.03046,-1.030788 0,-0.56938 0.46143,-1.03007 1.03046,-1.03007 0.56903,0 1.03046,0.46069 1.03046,1.03007 0,0.569 -0.46143,1.030788 -1.03046,1.030788"/><path style="fill:#d29493;fill-opacity:1;fill-rule:nonzero;stroke:none;stroke-width:.0352778" id="path86" d="M 36.839617,38.721084 V 3.6588546 l -2.12901,1.74801 -2.12937,-1.74801 v 19.3064694 15.75576 l 2.12937,1.74872 2.12901,-1.74872"/><path style="fill:#f8f1e7;fill-opacity:1;fill-rule:nonzero;stroke:none;stroke-width:.0352778" id="path88" d="m 34.710607,23.094794 c -0.56903,0 -1.03046,-0.46179 -1.03046,-1.03082 0,-0.56903 0.46143,-1.03011 1.03046,-1.03011 0.56903,0 1.03046,0.46108 1.03046,1.03011 0,0.56903 -0.46143,1.03082 -1.03046,1.03082"/><path style="fill:#94aad0;fill-opacity:1;fill-rule:nonzero;stroke:none;stroke-width:.0352778" id="path94" d="M 36.855829,75.770907 V 40.707973 l -2.12901,1.748014 -2.12937,-1.748014 v 19.306474 15.75646 l 2.12937,1.74802 2.12901,-1.74802"/><path style="fill:#f8f1e7;fill-opacity:1;fill-rule:nonzero;stroke:none;stroke-width:.0352778" id="path96" d="m 34.726819,60.131567 c -0.56903,0 -1.03046,-0.46179 -1.03046,-1.03082 0,-0.56938 0.46143,-1.03011 1.03046,-1.03011 0.56903,0 1.03046,0.46073 1.03046,1.03011 0,0.56903 -0.46143,1.03082 -1.03046,1.03082"/><path style="fill:#bace97;fill-opacity:1;fill-rule:nonzero;stroke:none;stroke-width:.03174862" id="path170" d="m 18.775815,89.494442 -1.2118,1.254157 C 14.913232,88.187341 10.69173,88.259181 8.1315745,90.908822 5.5702962,93.559628 5.6430681,97.781534 8.293853,100.34279 l -1.211974,1.25433 C 3.7392875,98.36743 3.6475019,93.039842 6.8774171,89.697025 10.105355,86.356259 15.433223,86.264741 18.775815,89.494442"/><path style="fill:#87aade;fill-opacity:1;fill-rule:nonzero;stroke:none;stroke-width:.03174862" id="path172" d="m 17.09358,91.234374 -1.019264,1.052558 c -1.799737,-1.742811 -4.672707,-1.696867 -6.4144149,0.101731 -1.7432439,1.800184 -1.696629,4.672912 0.1031069,6.415722 L 8.7430682,99.857644 C 6.3612843,97.551193 6.3001976,93.750985 8.6056075,91.370271 10.912011,88.988533 14.711798,88.927925 17.09358,91.234374"/><path style="fill:#6f7b91;fill-opacity:1;fill-rule:nonzero;stroke:none;stroke-width:.03174862" id="path174" d="m 15.696035,92.642669 -0.85896,0.908915 c -1.105052,-1.044316 -2.846896,-0.995096 -3.889909,0.108572 -1.044314,1.10505 -0.9950667,2.846865 0.109983,3.891182 l -0.858732,0.908674 c -1.6069331,-1.518615 -1.6780698,-4.051718 -0.160969,-5.657049 1.518349,-1.606651 4.051655,-1.678909 5.658587,-0.160294"/><path style="fill:#bace97;fill-opacity:1;fill-rule:nonzero;stroke:none;stroke-width:.03174862" id="path176" d="m 4.5086722,95.550312 h 1.7439433 c 0,3.686044 2.9856452,6.671648 6.6697505,6.671648 3.686327,0 6.671973,-2.985604 6.671973,-6.671648 h 1.743628 c 0,4.648308 -3.767603,8.415848 -8.415601,8.415848 -4.645776,0 -8.4136938,-3.76754 -8.4136938,-8.415848"/><path style="fill:#87aade;fill-opacity:1;fill-rule:nonzero;stroke:none;stroke-width:.03174862" id="path178" d="m 6.92188,95.550312 h 1.4655132 c 0,2.505905 2.0312738,4.537178 4.5349728,4.537178 2.505598,0 4.53688,-2.031273 4.53688,-4.537178 h 1.466143 c 0,3.315852 -2.687516,6.002708 -6.0008,6.002708 -3.3155086,0 -6.002709,-2.686856 -6.002709,-6.002708"/><path style="fill:#6f7b91;fill-opacity:1;fill-rule:nonzero;stroke:none;stroke-width:.03174862" id="path180" d="m 8.9214027,95.550312 h 1.2499463 c 0,1.520436 1.232801,2.752557 2.751017,2.752557 1.520762,0 2.7526,-1.232121 2.7526,-2.752557 h 1.250261 c 0,2.21061 -1.791892,4.002801 -4.000638,4.002801 -2.210969,0 -4.0031863,-1.792191 -4.0031863,-4.002801"/><path style="fill:#fd5;fill-opacity:.58823494;fill-rule:nonzero;stroke:none;stroke-width:.03174862" id="path182" d="m 14.440706,93.888786 -0.729339,0.797079 c -0.480879,-0.440006 -1.229039,-0.406828 -1.668404,0.07335 -0.440882,0.481832 -0.406822,1.229075 0.07405,1.669084 L 11.38789,97.22514 c -0.920992,-0.842722 -0.984741,-2.27426 -0.142841,-3.194354 0.842887,-0.921172 2.27466,-0.984718 3.195654,-0.141996"/><path style="fill:#fd5;fill-opacity:.58823494;fill-rule:nonzero;stroke:none;stroke-width:.03174862" id="path184" d="m 10.662502,95.550312 1.079772,6.03e-4 c 0,0.651857 0.529565,1.181394 1.180407,1.181394 0.653705,0 1.181369,-0.529537 1.181369,-1.181394 l 1.080403,-6.03e-4 c 0,1.248981 -1.01278,2.262079 -2.260503,2.262079 -1.248039,0 -2.261448,-1.013098 -2.261448,-2.262079"/><path style="fill:#fff;fill-opacity:1;fill-rule:nonzero;stroke:none;stroke-width:.03174862" id="path202" d="m 17.645825,89.783517 c 0,-0.08667 0.0702,-0.156836 0.156512,-0.156836 0.08667,0 0.15716,0.0702 0.15716,0.156836 0,0.0864 -0.07047,0.156845 -0.15716,0.156845 -0.0864,0 -0.156512,-0.07047 -0.156512,-0.156845"/><path style="fill:#fff;fill-opacity:1;fill-rule:nonzero;stroke:none;stroke-width:.03174862" id="path204" d="m 16.056166,91.390665 c 0,-0.08703 0.0702,-0.156845 0.156512,-0.156845 0.08667,0 0.15716,0.06984 0.15716,0.156845 0,0.08667 -0.07047,0.156836 -0.15716,0.156836 -0.0864,0 -0.156512,-0.0702 -0.156512,-0.156836"/><path style="fill:#fff;fill-opacity:1;fill-rule:nonzero;stroke:none;stroke-width:.03174862" id="path206" d="m 14.780496,92.757824 c 0,-0.08703 0.0702,-0.157161 0.156512,-0.157161 0.08667,0 0.15716,0.0702 0.15716,0.157161 0,0.08604 -0.07047,0.156206 -0.15716,0.156206 -0.0864,0 -0.156512,-0.0702 -0.156512,-0.156206"/><path style="fill:#fff;fill-opacity:1;fill-rule:nonzero;stroke:none;stroke-width:.03174862" id="path208" d="m 13.481203,93.989743 c 0,-0.08604 0.0702,-0.156837 0.156512,-0.156837 0.08667,0 0.15716,0.07083 0.15716,0.156837 0,0.08703 -0.07047,0.15716 -0.15716,0.15716 -0.0864,0 -0.156512,-0.0702 -0.156512,-0.15716"/><path style="fill:#d29493;fill-opacity:1;fill-rule:nonzero;stroke:none;stroke-width:.0371274" id="path304" d="M 6.752826,28.902727 H 3.3652774 V 9.449796 H 6.752826 v 19.452931"/><path style="fill:#d29493;fill-opacity:1;fill-rule:nonzero;stroke:none;stroke-width:.0371274" id="path306" d="M 20.364758,28.902727 H 16.97668 V 9.449796 h 3.388078 v 19.452931"/><path style="fill:#d29493;fill-opacity:1;fill-rule:nonzero;stroke:none;stroke-width:.0371274" id="path308" d="M 15.827683,28.902727 H 12.439605 V 9.449796 h 3.388078 v 19.452931"/><path style="fill:#d29493;fill-opacity:1;fill-rule:nonzero;stroke:none;stroke-width:.0371274" id="path310" d="M 11.290255,28.902727 H 7.902528 V 9.449796 h 3.387727 v 19.452931"/><path style="fill:#6f7b91;fill-opacity:1;fill-rule:nonzero;stroke:none;stroke-width:.0337004" id="path312" d="M 6.752826,28.902727 H 3.3652774 V 20.533726 H 6.752826 v 8.369001"/><path style="fill:#6f7b91;fill-opacity:1;fill-rule:nonzero;stroke:none;stroke-width:.0327783" id="path314" d="M 20.364758,28.902727 H 16.97668 V 17.085834 h 3.388078 v 11.816893"/><path style="fill:#6f7b91;fill-opacity:1;fill-rule:nonzero;stroke:none;stroke-width:.0329863" id="path316" d="M 15.827683,28.902727 H 12.439605 V 18.677419 h 3.388078 v 10.225308"/><path style="fill:#6f7b91;fill-opacity:1;fill-rule:nonzero;stroke:none;stroke-width:.0334432" id="path318" d="M 11.290255,28.902727 H 7.902528 v -5.927716 h 3.387727 v 5.927716"/><path style="fill:#f8f1e7;fill-opacity:1;fill-rule:nonzero;stroke:none;stroke-width:.0352778" id="path320" d="m 5.3149034,27.887077 h 0.151342 c 0.116769,0 0.15875,-0.0515 0.15875,-0.133 0,-0.0818 -0.04198,-0.13299 -0.15875,-0.13299 h -0.358705 c -0.116734,0 -0.160972,0.0512 -0.160972,0.13299 0,0.0815 0.04424,0.133 0.160972,0.133 h 0.04875 v 0.24201 l -0.946291,-0.0466 v -0.67592 h 0.233045 v 0.4452 l 0.38929,0.0212 c -0.07705,-0.0466 -0.11878,-0.12136 -0.11878,-0.22402 0,-0.18873 0.13268,-0.28433 0.372886,-0.28433 h 0.363679 c 0.26095,0 0.410175,0.13052 0.410175,0.38241 0,0.25153 -0.149225,0.38206 -0.410175,0.38206 h -0.13522 v -0.24201"/><path style="fill:#f8f1e7;fill-opacity:1;fill-rule:nonzero;stroke:none;stroke-width:.0352778" id="path322" d="m 5.3149034,26.963147 h 0.151342 c 0.116769,0 0.15875,-0.0512 0.15875,-0.13264 0,-0.0815 -0.04198,-0.133 -0.15875,-0.133 h -0.358705 c -0.116734,0 -0.160972,0.0515 -0.160972,0.133 0,0.0815 0.04424,0.13264 0.160972,0.13264 h 0.04875 v 0.24272 l -0.946291,-0.0469 v -0.67593 h 0.233045 v 0.44556 l 0.38929,0.0208 c -0.07705,-0.0466 -0.11878,-0.12101 -0.11878,-0.22366 0,-0.18909 0.13268,-0.28434 0.372886,-0.28434 h 0.363679 c 0.26095,0 0.410175,0.13052 0.410175,0.38205 0,0.25189 -0.149225,0.38242 -0.410175,0.38242 h -0.13522 v -0.24272"/><path style="fill:#f8f1e7;fill-opacity:1;fill-rule:nonzero;stroke:none;stroke-width:.0352778" id="path324" d="m 5.6038284,25.312857 c 0.07232,0 0.102659,-0.0303 0.102659,-0.0843 0,-0.0508 -0.03034,-0.0836 -0.102659,-0.0836 h -0.5594 c -0.07221,0 -0.102552,0.0328 -0.102552,0.0836 0,0.054 0.03034,0.0843 0.102552,0.0843 z m -0.547687,0.16334 c -0.167711,0 -0.261162,-0.0868 -0.261162,-0.24765 0,-0.16052 0.09345,-0.24695 0.261162,-0.24695 h 0.536046 c 0.167922,0 0.261055,0.0864 0.261055,0.24695 0,0.16086 -0.09313,0.24765 -0.261055,0.24765 z m -0.04893,0.64558 c 0.07221,0 0.102518,-0.0303 0.102518,-0.0843 0,-0.0512 -0.0303,-0.084 -0.102518,-0.084 h -0.559505 c -0.07218,0 -0.102517,0.0328 -0.102517,0.084 0,0.054 0.03034,0.0843 0.102517,0.0843 z m -0.797207,-0.72743 v -0.15169 l 1.631597,0.64346 v 0.15135 z m 0.249414,0.89041 c -0.167675,0 -0.261126,-0.0864 -0.261126,-0.24729 0,-0.16087 0.09345,-0.24695 0.261126,-0.24695 h 0.536081 c 0.167852,0 0.261126,0.0861 0.261126,0.24695 0,0.16086 -0.09327,0.24729 -0.261126,0.24729 h -0.536082"/><path style="fill:#f8f1e7;fill-opacity:1;fill-rule:nonzero;stroke:none;stroke-width:.0352778" id="path326" d="M 9.849509,27.688817 H 9.245906 l 0.603603,0.254 z m 0,0.4893 -1.102431,-0.46637 v -0.27975 h 1.102431 v -0.12101 h 0.233186 v 0.12101 h 0.295981 v 0.25682 h -0.295981 v 0.4893 H 9.849509"/><path style="fill:#f8f1e7;fill-opacity:1;fill-rule:nonzero;stroke:none;stroke-width:.0352778" id="path328" d="m 10.00332,26.958917 c 0.11677,0 0.160867,-0.0515 0.160867,-0.133 0,-0.0818 -0.0441,-0.13299 -0.160867,-0.13299 H 9.122434 c -0.116417,0 -0.160867,0.0511 -0.160867,0.13299 0,0.0815 0.04445,0.133 0.160867,0.133 z m -0.864658,0.25612 c -0.261056,0 -0.409928,-0.13723 -0.409928,-0.38912 0,-0.25188 0.148872,-0.38946 0.409928,-0.38946 h 0.84843 c 0.261056,0 0.410281,0.13758 0.410281,0.38946 0,0.25189 -0.149225,0.38912 -0.410281,0.38912 h -0.84843"/><path style="fill:#f8f1e7;fill-opacity:1;fill-rule:nonzero;stroke:none;stroke-width:.0352778" id="path330" d="m 10.141256,25.312857 c 0.07197,0 0.102306,-0.0303 0.102306,-0.0843 0,-0.0508 -0.03034,-0.0836 -0.102306,-0.0836 H 9.581751 c -0.07232,0 -0.102659,0.0328 -0.102659,0.0836 0,0.054 0.03034,0.0843 0.102659,0.0843 z m -0.547864,0.16334 c -0.167922,0 -0.261055,-0.0868 -0.261055,-0.24765 0,-0.16052 0.09313,-0.24695 0.261055,-0.24695 h 0.53587 c 0.167922,0 0.261408,0.0864 0.261408,0.24695 0,0.16086 -0.09349,0.24765 -0.261408,0.24765 z m -0.04904,0.64558 c 0.07232,0 0.102659,-0.0303 0.102659,-0.0843 0,-0.0512 -0.03034,-0.084 -0.102659,-0.084 H 8.984847 c -0.07197,0 -0.102306,0.0328 -0.102306,0.084 0,0.054 0.03034,0.0843 0.102306,0.0843 z m -0.797278,-0.72743 v -0.15169 l 1.631598,0.64346 v 0.15135 z m 0.249414,0.89041 c -0.167569,0 -0.261055,-0.0864 -0.261055,-0.24729 0,-0.16087 0.09349,-0.24695 0.261055,-0.24695 h 0.536223 c 0.167569,0 0.261055,0.0861 0.261055,0.24695 0,0.16086 -0.09349,0.24729 -0.261055,0.24729 H 8.996488"/><path style="fill:#f8f1e7;fill-opacity:1;fill-rule:nonzero;stroke:none;stroke-width:.0352778" id="path332" d="m 13.284507,27.364617 h 0.223662 l 1.407936,0.37747 v 0.25647 l -1.398411,-0.37536 v 0.51082 h -0.233187 v -0.7694"/><path style="fill:#f8f1e7;fill-opacity:1;fill-rule:nonzero;stroke:none;stroke-width:.0352778" id="path334" d="m 14.540749,26.958917 c 0.11677,0 0.160867,-0.0515 0.160867,-0.133 0,-0.0818 -0.0441,-0.13299 -0.160867,-0.13299 h -0.880886 c -0.116417,0 -0.160867,0.0511 -0.160867,0.13299 0,0.0815 0.04445,0.133 0.160867,0.133 z m -0.864658,0.25612 c -0.261056,0 -0.410281,-0.13723 -0.410281,-0.38912 0,-0.25188 0.149225,-0.38946 0.410281,-0.38946 h 0.84843 c 0.261056,0 0.410281,0.13758 0.410281,0.38946 0,0.25189 -0.149225,0.38912 -0.410281,0.38912 h -0.84843"/><path style="fill:#f8f1e7;fill-opacity:1;fill-rule:nonzero;stroke:none;stroke-width:.0352778" id="path336" d="m 14.678333,25.312857 c 0.07232,0 0.102658,-0.0303 0.102658,-0.0843 0,-0.0508 -0.03034,-0.0836 -0.102658,-0.0836 h -0.559506 c -0.07197,0 -0.102306,0.0328 -0.102306,0.0836 0,0.054 0.03034,0.0843 0.102306,0.0843 z m -0.547512,0.16334 c -0.167922,0 -0.261408,-0.0868 -0.261408,-0.24765 0,-0.16052 0.09349,-0.24695 0.261408,-0.24695 h 0.53587 c 0.167922,0 0.261055,0.0864 0.261055,0.24695 0,0.16086 -0.09313,0.24765 -0.261055,0.24765 z m -0.04904,0.64558 c 0.07232,0 0.102306,-0.0303 0.102306,-0.0843 0,-0.0512 -0.02999,-0.084 -0.102306,-0.084 h -0.559505 c -0.07232,0 -0.102659,0.0328 -0.102659,0.084 0,0.054 0.03034,0.0843 0.102659,0.0843 z m -0.797278,-0.72743 v -0.15169 l 1.631598,0.64346 v 0.15135 z m 0.249414,0.89041 c -0.167569,0 -0.261055,-0.0864 -0.261055,-0.24729 0,-0.16087 0.09349,-0.24695 0.261055,-0.24695 h 0.536223 c 0.167569,0 0.261055,0.0861 0.261055,0.24695 0,0.16086 -0.09349,0.24729 -0.261055,0.24729 h -0.536223"/><path style="fill:#f8f1e7;fill-opacity:1;fill-rule:nonzero;stroke:none;stroke-width:.0352778" id="path338" d="m 19.239048,27.749137 c 0,-0.0815 -0.0399,-0.14181 -0.18415,-0.14428 h -0.1517 c -0.12806,0 -0.18415,0.0536 -0.18415,0.14428 0,0.091 0.0561,0.14464 0.18415,0.14464 h 0.1517 c 0.14428,0 0.18415,-0.0631 0.18415,-0.14464 z m -0.92534,0.14464 c 0.13053,0 0.17251,-0.0607 0.17251,-0.14464 0,-0.0815 -0.042,-0.14428 -0.17251,-0.14428 h -0.091 c -0.146752,0 -0.186616,0.0628 -0.186616,0.14428 0,0.0815 0.03986,0.14464 0.186616,0.14464 z m 1.15817,-0.14464 c 0,0.25859 -0.14923,0.40111 -0.40993,0.40111 h -0.12841 c -0.15628,0 -0.27728,-0.0466 -0.34008,-0.15875 -0.0586,0.10725 -0.16792,0.15875 -0.32879,0.15875 h -0.0515 c -0.260705,0 -0.40993,-0.14252 -0.40993,-0.40111 0,-0.25858 0.149225,-0.40075 0.40993,-0.40075 h 0.0515 c 0.16087,0 0.27023,0.0536 0.32879,0.1584 0.0628,-0.11184 0.1838,-0.1584 0.34008,-0.1584 h 0.12841 c 0.2607,0 0.40993,0.14217 0.40993,0.40075"/><path style="fill:#f8f1e7;fill-opacity:1;fill-rule:nonzero;stroke:none;stroke-width:.0352778" id="path340" d="m 18.926478,26.963147 h 0.1517 c 0.11642,0 0.1584,-0.0512 0.1584,-0.13264 0,-0.0815 -0.042,-0.133 -0.1584,-0.133 h -0.35913 c -0.11642,0 -0.16087,0.0515 -0.16087,0.133 0,0.0815 0.0444,0.13264 0.16087,0.13264 h 0.049 v 0.24272 l -0.946505,-0.0469 v -0.67593 h 0.233186 v 0.44556 l 0.389469,0.0208 c -0.0773,-0.0466 -0.11889,-0.12101 -0.11889,-0.22366 0,-0.18909 0.13265,-0.28434 0.37289,-0.28434 h 0.36371 c 0.2607,0 0.40993,0.13052 0.40993,0.38205 0,0.25189 -0.14923,0.38242 -0.40993,0.38242 h -0.13547 v -0.24272"/><path style="fill:#f8f1e7;fill-opacity:1;fill-rule:nonzero;stroke:none;stroke-width:.0352778" id="path342" d="m 19.215758,25.312857 c 0.072,0 0.10231,-0.0303 0.10231,-0.0843 0,-0.0508 -0.0303,-0.0836 -0.10231,-0.0836 h -0.5595 c -0.0723,0 -0.10266,0.0328 -0.10266,0.0836 0,0.054 0.0303,0.0843 0.10266,0.0843 z m -0.54786,0.16334 c -0.16792,0 -0.26106,-0.0868 -0.26106,-0.24765 0,-0.16052 0.0931,-0.24695 0.26106,-0.24695 h 0.53587 c 0.16792,0 0.26141,0.0864 0.26141,0.24695 0,0.16086 -0.0935,0.24765 -0.26141,0.24765 z m -0.049,0.64558 c 0.0723,0 0.10266,-0.0303 0.10266,-0.0843 0,-0.0512 -0.0303,-0.084 -0.10266,-0.084 h -0.559503 c -0.07197,0 -0.102306,0.0328 -0.102306,0.084 0,0.054 0.03034,0.0843 0.102306,0.0843 z m -0.797275,-0.72743 v -0.15169 l 1.631595,0.64346 v 0.15135 z m 0.249766,0.89041 c -0.167922,0 -0.261408,-0.0864 -0.261408,-0.24729 0,-0.16087 0.09349,-0.24695 0.261408,-0.24695 h 0.535869 c 0.16792,0 0.26106,0.0861 0.26106,0.24695 0,0.16086 -0.0931,0.24729 -0.26106,0.24729 h -0.535869"/><path style="fill:#f8f1e7;fill-opacity:1;fill-rule:nonzero;stroke:none;stroke-width:.0352778" id="path344" d="m 4.8382654,14.765511 h 0.329212 l -0.164676,-1.09961 z m 0.779322,0.68932 h -0.344559 l -0.05912,-0.3944 h -0.419347 l -0.05881,0.3944 h -0.313796 l 0.347804,-2.17417 h 0.500097 l 0.347734,2.17417"/><path style="fill:#f8f1e7;fill-opacity:1;fill-rule:nonzero;stroke:none;stroke-width:.0352778" id="path346" d="m 9.400776,14.476581 v 0.66746 h 0.195791 c 0.114653,0 0.176742,-0.0526 0.176742,-0.21414 v -0.18944 c 0,-0.20179 -0.06526,-0.26388 -0.220486,-0.26388 z m 0,-0.88512 v 0.57468 h 0.13335 c 0.127352,0 0.204964,-0.0561 0.204964,-0.23001 v -0.12101 c 0,-0.15557 -0.05256,-0.22366 -0.17392,-0.22366 z m 0.680155,0.18944 v 0.0776 c 0,0.22367 -0.06844,0.36654 -0.220486,0.4378 0.183092,0.0716 0.254706,0.23601 0.254706,0.46602 v 0.17674 c 0,0.33585 -0.177095,0.51576 -0.518584,0.51576 H 9.058934 v -2.17417 h 0.515761 c 0.353836,0 0.506236,0.16475 0.506236,0.50024"/><path style="fill:#f8f1e7;fill-opacity:1;fill-rule:nonzero;stroke:none;stroke-width:.0352778" id="path348" d="m 14.674805,14.644151 v 0.28893 c 0,0.34783 -0.174272,0.5468 -0.509411,0.5468 -0.335492,0 -0.509411,-0.19897 -0.509411,-0.5468 v -1.1303 c 0,-0.3482 0.173919,-0.54681 0.509411,-0.54681 0.335139,0 0.509411,0.19861 0.509411,0.54681 v 0.21096 H 14.35166 v -0.23284 c 0,-0.15522 -0.06844,-0.21413 -0.177094,-0.21413 -0.108656,0 -0.177095,0.0589 -0.177095,0.21413 v 1.1737 c 0,0.15557 0.06844,0.21166 0.177095,0.21166 0.108655,0 0.177094,-0.0561 0.177094,-0.21166 v -0.31045 h 0.323145"/><path style="fill:#f8f1e7;fill-opacity:1;fill-rule:nonzero;stroke:none;stroke-width:.0352778" id="path350" d="m 18.572998,13.591461 v 1.55258 h 0.19262 c 0.10865,0 0.17392,-0.0557 0.17392,-0.21096 v -1.1303 c 0,-0.15558 -0.0653,-0.21132 -0.17392,-0.21132 z m -0.34149,-0.3108 h 0.54046 c 0.34149,0 0.50941,0.18945 0.50941,0.53764 v 1.09925 c 0,0.34784 -0.16792,0.53728 -0.50941,0.53728 h -0.54046 v -2.17417"/><text style="font-style:normal;font-variant:normal;font-weight:400;font-stretch:normal;font-size:10.5833px;line-height:1.25;font-family:OpenDyslexic;-inkscape-font-specification:OpenDyslexic;letter-spacing:0;word-spacing:0;fill:#d29493;fill-opacity:1;stroke:none;stroke-width:.264583" id="text3033" x="24.493" y="19.655" xml:space="preserve"><tspan id="tspan3031" x="24.493" y="19.655" style="font-style:normal;font-variant:normal;font-weight:400;font-stretch:normal;font-family:Consolas;-inkscape-font-specification:Consolas;fill:#d29493;fill-opacity:1;stroke-width:.264583">1</tspan></text><text style="font-style:normal;font-variant:normal;font-weight:400;font-stretch:normal;font-size:10.5833px;line-height:1.25;font-family:OpenDyslexic;-inkscape-font-specification:OpenDyslexic;letter-spacing:0;word-spacing:0;fill:#94aad0;fill-opacity:1;stroke:none;stroke-width:.264583" id="text3033-5" x="23.925" y="57.247" xml:space="preserve"><tspan id="tspan3031-3" x="23.925" y="57.247" style="font-style:normal;font-variant:normal;font-weight:400;font-stretch:normal;font-family:Consolas;-inkscape-font-specification:Consolas;fill:#94aad0;fill-opacity:1;stroke-width:.264583">2</tspan></text><text style="font-style:normal;font-variant:normal;font-weight:400;font-stretch:normal;font-size:10.5833px;line-height:1.25;font-family:OpenDyslexic;-inkscape-font-specification:OpenDyslexic;letter-spacing:0;word-spacing:0;fill:#bace97;fill-opacity:1;stroke:none;stroke-width:.264583" id="text3033-5-8" x="24.022" y="93.171" xml:space="preserve"><tspan id="tspan3031-3-6" x="24.022" y="93.171" style="font-style:normal;font-variant:normal;font-weight:400;font-stretch:normal;font-family:Consolas;-inkscape-font-specification:Consolas;fill:#bace97;fill-opacity:1;stroke-width:.264583">3</tspan></text><circle style="opacity:.588764;fill:#d38d5f;fill-opacity:1;stroke:#b7c8be;stroke-width:.144872;stroke-linecap:round;stroke-linejoin:round" id="path3413" cx="12.306" cy="53.866" r="5.275"/><circle style="opacity:.61573;fill:#6f7b91;fill-opacity:1;stroke:#b7c8be;stroke-width:.144872;stroke-linecap:round;stroke-linejoin:round" id="path3413-2" cx="8.82" cy="60.002" r="5.275"/><circle style="opacity:.588764;fill:#fd5;fill-opacity:1;stroke:#b7c8be;stroke-width:.144872;stroke-linecap:round;stroke-linejoin:round" id="path3413-1" cx="15.769" cy="60.136" r="5.275"/></g></svg>