<svg xmlns="http://www.w3.org/2000/svg" xmlns:xlink="http://www.w3.org/1999/xlink" id="Layer_1" x="0" y="0" version="1.1" viewBox="0 0 903 459" xml:space="preserve" style="enable-background:new 0 0 903 459"><style type="text/css">.st0{fill:#9aadd7}.st1{fill:#717e9c}.st2{fill:#7884a0}.st3{fill:#f9fd91}.st4{fill:#f0f48c}</style><rect width="903.1" height="459.1" x="1" class="st0"/><polygon points="527.5 459.5 527.5 334.1 364.8 234 48.1 459.5" class="st1"/><polygon points="904.2 246 732.2 142.6 287.1 459.8 904.2 459.8" class="st1"/><polygon points="394.7 459.5 106.3 254 .1 332.4 .1 459.5" class="st1"/><polygon points="-.3 366.9 133.8 274.2 105.1 255.7 -.3 332.9" class="st2"/><polygon points="370.5 459.2 771.6 168.7 732.2 142.6 292 459.2" class="st2"/><polygon points="102.8 459.5 392.8 252.6 365.3 233.5 43.6 459.5" class="st2"/><path d="M43.3,0.4c30.1,78,105.7,133.3,194.3,133.3S401.8,78.3,431.8,0.4H43.3z" class="st3"/><g><g><path d="M267.4,0.4L126.7,101.6c32.1,20.3,70.1,32,110.9,32c88.6,0,164.2-55.3,194.3-133.3L267.4,0.4L267.4,0.4z" class="st4"/></g></g></svg>